<?xml version="1.0" standalone="no"?>
<!DOCTYPE svg PUBLIC "-//W3C//DTD SVG 1.1//EN" "http://www.w3.org/Graphics/SVG/1.1/DTD/svg11.dtd" >
<svg xmlns="http://www.w3.org/2000/svg" xmlns:xlink="http://www.w3.org/1999/xlink" version="1.1">
<metadata></metadata>
<defs>
<font id="cocomatultralight" horiz-adv-x="1672" >
<font-face units-per-em="2000" ascent="1600" descent="-400" />
<missing-glyph horiz-adv-x="627" />
<glyph unicode="&#xfb01;" horiz-adv-x="995" d="M282 981h525q15 0 23 -10q6 -8 6 -19q0 -7 -1 -10v-913q0 -29 -28 -29q-31 0 -31 29v892h-494v-897q0 -28 -31 -28q-29 0 -29 28v897h-145q-29 0 -29 31q0 29 29 29h145v211q0 85 24 141.5t65 90.5t95 48.5t113 14.5q18 0 26.5 -9.5t8.5 -23.5q0 -15 -11 -21.5t-22 -6.5 q-54 1 -98.5 -13t-75.5 -43.5t-48 -75.5t-17 -109v-204zM744 1272q0 -25 17.5 -42.5t42.5 -17.5t42.5 17.5t17.5 42.5t-17.5 42.5t-42.5 17.5t-42.5 -17.5t-17.5 -42.5z" />
<glyph unicode="&#xfb02;" horiz-adv-x="1000" d="M493 981q13 0 22 -7t9 -22t-9 -23t-22 -8h-211v-897q0 -28 -31 -28q-29 0 -29 28v897h-145q-29 0 -29 31q0 29 29 29h145v211q0 85 24 141.5t65 90.5t95 48.5t113 14.5q18 0 26.5 -9.5t8.5 -23.5q0 -15 -11 -21.5t-22 -6.5q-54 1 -98.5 -13t-75.5 -43.5t-48 -75.5 t-17 -109v-204h211zM775 1458q0 29 31 29q28 0 28 -29v-1429q0 -29 -28 -29q-31 0 -31 29v1429z" />
<glyph unicode="&#xfb03;" horiz-adv-x="1611" d="M898 981h522q12 0 20.5 -6t10.5 -19v-927q0 -29 -28 -29q-31 0 -31 29v892h-494v-897q0 -28 -31 -28q-29 0 -29 28v897h-556v-897q0 -28 -31 -28q-29 0 -29 28v897h-145q-29 0 -29 31q0 29 29 29h145v211q0 85 24 141.5t65 90.5t95 48.5t113 14.5q18 0 26.5 -9.5 t8.5 -23.5q0 -15 -11 -21.5t-22 -6.5q-54 1 -98.5 -13t-75.5 -43.5t-48 -75.5t-17 -109v-204h556v211q0 85 24 141.5t65 90.5t95 48.5t113 14.5q18 0 26.5 -9.5t8.5 -23.5q0 -15 -11 -21.5t-22 -6.5q-54 1 -98.5 -13t-75.5 -43.5t-48 -75.5t-17 -109v-204zM1360 1272 q0 -25 17.5 -42.5t42.5 -17.5t42.5 17.5t17.5 42.5t-17.5 42.5t-42.5 17.5t-42.5 -17.5t-17.5 -42.5z" />
<glyph unicode="&#xfb04;" horiz-adv-x="1614" d="M493 981q13 0 22 -7t9 -22t-9 -23t-22 -8h-211v-897q0 -28 -31 -28q-29 0 -29 28v897h-145q-29 0 -29 31q0 29 29 29h145v211q0 85 24 141.5t65 90.5t95 48.5t113 14.5q18 0 26.5 -9.5t8.5 -23.5q0 -15 -11 -21.5t-22 -6.5q-54 1 -98.5 -13t-75.5 -43.5t-48 -75.5 t-17 -109v-204h211zM1109 981q13 0 22 -7t9 -22t-9 -23t-22 -8h-211v-897q0 -28 -31 -28q-29 0 -29 28v897h-145q-29 0 -29 31q0 29 29 29h145v211q0 85 24 141.5t65 90.5t95 48.5t113 14.5q18 0 26.5 -9.5t8.5 -23.5q0 -15 -11 -21.5t-22 -6.5q-54 1 -98.5 -13t-75.5 -43.5 t-48 -75.5t-17 -109v-204h211zM1391 1458q0 29 31 29q28 0 28 -29v-1429q0 -29 -28 -29q-31 0 -31 29v1429z" />
<glyph horiz-adv-x="0" />
<glyph horiz-adv-x="666" />
<glyph unicode=" "  horiz-adv-x="627" />
<glyph unicode="&#x09;" horiz-adv-x="627" />
<glyph unicode="&#xa0;" horiz-adv-x="627" />
<glyph unicode="!" horiz-adv-x="386" d="M162 1459q0 29 29 29q28 0 28 -29v-1045q0 -29 -28 -29q-29 0 -29 29v1045zM134 50q0 -25 17.5 -42.5t42.5 -17.5t42.5 17.5t17.5 42.5t-17.5 42.5t-42.5 17.5t-42.5 -17.5t-17.5 -42.5z" />
<glyph unicode="&#x22;" horiz-adv-x="582" d="M159 1455q0 29 29 29q28 0 28 -29v-301q0 -29 -28 -29q-29 0 -29 29v301zM353 1455q0 29 28 29q29 0 29 -29v-301q0 -29 -29 -29q-28 0 -28 29v301z" />
<glyph unicode="#" horiz-adv-x="1087" d="M797 1459q3 28 32 28q28 0 25 -28l-61 -420h175q31 0 31 -28q0 -29 -31 -29h-183l-66 -452h176q31 0 31 -28q0 -29 -31 -29h-184l-64 -444q-4 -29 -32 -29q-29 0 -25 29l64 444h-369l-64 -444q-4 -29 -32 -29q-29 0 -25 29l64 444h-157q-29 0 -29 29q0 28 29 28h165 l66 452h-158q-29 0 -29 29q0 28 29 28h166l61 420q3 28 32 28q28 0 25 -28l-61 -420h369zM293 530h369l66 452h-369z" />
<glyph unicode="$" horiz-adv-x="1229" d="M565 746q-120 23 -207.5 55.5t-145 77t-85.5 103t-28 133.5q0 88 32.5 157.5t93 118.5t147 76.5t193.5 32.5v129q0 29 29 29q28 0 28 -29v-126q69 -1 129.5 -10t115.5 -28.5t105.5 -51.5t98.5 -80q10 -13 10 -25q0 -23 -25 -23q-19 0 -38 20q-44 37 -84 63.5t-85 43 t-99.5 24.5t-127.5 9l-57 -2q-98 -5 -174.5 -31t-128.5 -68.5t-79 -101t-27 -127.5q0 -70 33 -121t89.5 -88t130.5 -62t156 -43l57 -11q57 -11 118 -24t119.5 -32.5t111.5 -46.5t92.5 -66t63 -91.5t23.5 -122.5q0 -109 -41.5 -187.5t-113 -130.5t-167.5 -78t-206 -29v-135 q0 -28 -28 -28q-29 0 -29 28v133q-72 2 -139.5 14.5t-129 39t-116.5 69t-101 104.5q-6 8 -9.5 13.5t-3.5 13.5q0 30 29 30q12 0 16 -6t12 -16q75 -94 182.5 -147.5t259.5 -57.5h57q94 3 179.5 23.5t150 64.5t103 113t38.5 169q0 58 -21.5 102.5t-58 78t-84.5 57.5t-100 40.5 t-105.5 28.5t-101.5 21z" />
<glyph unicode="%" horiz-adv-x="1639" d="M1276 1472q12 20 25 20q22 0 28.5 -14.5t-5.5 -31.5l-979 -1433q-6 -16 -19 -16q-14 0 -25 8.5t-11 16.5q0 5 5 15zM95 1142q0 80 30 150t82 122.5t122.5 82.5t150.5 30t150 -30t122.5 -82.5t82.5 -122.5t30 -150t-30 -150.5t-82.5 -122.5t-122.5 -82t-150 -30t-150.5 30 t-122.5 82t-82 122.5t-30 150.5zM150 1142q0 -69 25.5 -129.5t70 -105t105 -70t129.5 -25.5t128.5 25.5t104 70t69.5 105t25 129.5t-25 129t-69.5 104.5t-104 69.5t-128.5 25t-129.5 -25t-105 -69.5t-70 -104.5t-25.5 -129zM783 363q0 80 30 150t82.5 122.5t122.5 82.5 t150 30t150.5 -30t122.5 -82.5t82 -122.5t30 -150t-30 -150t-82 -122.5t-122.5 -82.5t-150.5 -30t-150 30t-122.5 82.5t-82.5 122.5t-30 150zM838 363q0 -69 25.5 -129.5t70 -105t105 -70t129.5 -25.5t129 25.5t104.5 70t69.5 105t25 129.5t-25 129t-69.5 104.5t-104.5 69.5 t-129 25t-129.5 -25t-105 -69.5t-70 -104.5t-25.5 -129z" />
<glyph unicode="&#x26;" horiz-adv-x="1712" d="M641 867q24 -6 24 -25q0 -16 -8 -24t-18 -8q-8 0 -13 2l-40 10q-8 3 -20.5 4.5t-26.5 1.5q-87 0 -155 -28t-115 -77.5t-71.5 -117t-24.5 -146.5q0 -92 41 -169.5t105.5 -133t143 -86.5t154.5 -31q88 0 167.5 32.5t139.5 89t95.5 133t35.5 165.5v7l-134 37q-1 0 -6 1.5 t-7 3.5q-30 6 -58 6q-37 0 -73 -10t-74 -32q-5 -2 -11 -4t-12 -2q-10 0 -18 7.5t-8 21.5q0 17 22 31t52.5 24.5t63 16t53.5 5.5q39 0 80 -12h5l323 -88q2 -2 4.5 -2h4.5q43 -13 88 -13t86.5 14t76 40.5t59.5 65t37 87.5q3 8 11 17.5t20 9.5t20.5 -8.5t8.5 -22.5q0 -4 -2 -12 q-15 -54 -43.5 -100t-68.5 -79.5t-89.5 -53t-106.5 -19.5q-25 0 -50.5 3.5t-51.5 11.5l-2 2l-138 37q-3 -98 -44 -183.5t-109.5 -148.5t-157.5 -99.5t-187 -36.5q-100 0 -191 37.5t-160.5 102.5t-110.5 152t-41 187q0 82 24 152.5t66 124t100 87.5t126 43q-48 17 -84 47 t-59.5 68t-35.5 83.5t-12 93.5q0 87 30 149.5t81.5 103t120.5 60t146 19.5t145 -24t119 -69.5t80.5 -111.5t29.5 -149q0 -17 -9 -25t-20 -8t-19.5 8t-8.5 25q0 69 -24.5 124.5t-66.5 93.5t-99.5 58.5t-123.5 20.5q-70 0 -129.5 -17t-102.5 -51t-67.5 -86t-24.5 -121 q0 -52 14 -93.5t39 -73t60 -53.5t76 -34z" />
<glyph unicode="'" horiz-adv-x="528" d="M171 1454q0 29 29 29q28 0 28 -29v-301q0 -29 -28 -29q-29 0 -29 29v301z" />
<glyph unicode="(" horiz-adv-x="603" d="M474 1742q11 0 19.5 -8.5t8.5 -19.5q0 -7 -5 -15q-134 -212 -205 -455.5t-71 -510.5q0 -266 71 -509.5t205 -456.5q5 -8 5 -15q0 -11 -8.5 -19.5t-19.5 -8.5q-14 0 -24 13q-138 218 -211 469.5t-73 526.5q0 276 73 526t211 470q10 13 24 13z" />
<glyph unicode=")" horiz-adv-x="620" d="M118 1742q14 0 24 -13q137 -218 211 -469q36 -126 54.5 -257.5t18.5 -269.5q0 -137 -18.5 -268.5t-54.5 -257.5q-37 -126 -89.5 -243.5t-121.5 -226.5q-10 -13 -24 -13q-7 0 -15 5q-10 6 -12.5 17t4.5 21q133 211 204 455q72 243 72 511t-72 511q-35 122 -86.5 235.5 t-117.5 219.5q-7 10 -4.5 21t12.5 17q6 5 15 5z" />
<glyph unicode="*" horiz-adv-x="983" d="M668 912q0 -4 -1 -8.5t-2 -4.5l-134 -229h278q10 -1 16.5 -8t6.5 -17q0 -11 -7 -18t-18 -7h-267l140 -248q6 -6 6 -16q0 -11 -7 -18t-18 -7q-12 0 -18 8l-4 3q-15 26 -34.5 60t-39.5 69t-39.5 67.5t-34.5 56.5q-15 -24 -34.5 -56.5t-39.5 -67.5t-39.5 -69t-34.5 -60 l-4 -3q-6 -8 -18 -8q-11 0 -18 7t-7 18q0 10 6 16l140 248h-267q-11 0 -18 7t-7 18q0 10 6.5 17t16.5 8h278l-134 229q-1 0 -2 4.5t-1 8.5q0 11 7 18t18 7t19 -9l133 -231l133 231q7 9 19 9q11 0 18 -7t7 -18z" />
<glyph unicode="+" horiz-adv-x="900" d="M479 318q0 -31 -28 -31q-29 0 -29 31v294h-292q-29 0 -29 29t29 29h292v292q0 29 29 29q28 0 28 -29v-292h295q31 0 31 -29t-31 -29h-295v-294z" />
<glyph unicode="," horiz-adv-x="411" d="M156 50q0 25 17.5 42.5t42.5 17.5q24 0 41 -17t19 -40v-42q0 -31 -6 -55t-15 -41t-19.5 -26t-19.5 -9q-5 0 -10 5l-12 10q-3 4 -3 9q0 6 4.5 12t10 14.5t10 19.5t4.5 26v14h-4q-25 0 -42.5 17.5t-17.5 42.5z" />
<glyph unicode="-" horiz-adv-x="1016" d="M840 578q31 0 31 -28q0 -29 -31 -29h-644q-29 0 -29 29q0 28 29 28h644z" />
<glyph unicode="." horiz-adv-x="451" d="M154 50q0 25 17.5 42.5t42.5 17.5t42.5 -17.5t17.5 -42.5t-17.5 -42.5t-42.5 -17.5t-42.5 17.5t-17.5 42.5z" />
<glyph unicode="/" horiz-adv-x="726" d="M598 1472q5 15 13.5 18.5t22.5 -1.5q27 -9 17 -35l-563 -1441q-11 -24 -35 -11q-28 10 -16 35z" />
<glyph unicode="0" d="M822 308q82 0 155 30t130 78h-570q58 -48 130 -78t155 -30zM586 463h564q45 55 70 124t25 147q0 80 -26.5 150t-81.5 139zM822 1251q-105 0 -198 -40t-163.5 -109t-112.5 -163.5t-42 -204.5q0 -103 39.5 -196t108 -163.5t163.5 -112.5t205 -42q35 0 70 5.5t68 15.5 q77 23 146 68t120 108.5t80.5 143.5t29.5 173q0 101 -38.5 194t-107 165t-163.5 115t-205 43zM822 260q-100 0 -186 38t-150 103t-99.5 151.5t-35.5 181.5q0 94 35 179.5t98 151t149.5 103.5t188.5 38q67 0 124 -16q71 -19 134.5 -60t111 -100t75 -134t27.5 -162 q0 -98 -37 -184.5t-101.5 -151t-150.5 -101.5t-183 -37zM492 1004q-45 -55 -70.5 -122.5t-25.5 -147.5q0 -83 28 -155.5t78 -130.5l555 556h-565zM822 1161q-83 0 -155.5 -29t-130.5 -81h566q-55 50 -126.5 80t-153.5 30zM972 191l-90 -16l4 -26l34 6l16 -89l26 5l-16 89 l31 6zM1072 156q-1 7 -8 9l-12 5h-15h-6h-9h-2v1q-3 3 -3 4l-2 1q2 0 2 4v1h3h5v4h1h5h3q3 0 3 1h9q0 3 0.5 4l0.5 1l5 10l-6 4q-9 4 -12 4q-2 0 -4.5 1t-4.5 1q-4 0 -6 -1t-4 -1l-13 -8q-2 -1 -4 -3.5t-3 -6.5q-8 -6 -8 -15v-4t3 -7q2 -9 10 -14q1 0 3.5 -1.5t3.5 -3.5 q4 0 7 -1t6 -1h12h10h2q2 0 3 -3q4 0 4 -1h3v-5q0 -2 -1 -3t-1 -2v-1q-1 0 -2 -2.5t-3 -2.5q-1 -3 -5 -3h-2.5h-2.5h-3.5h-2.5h-6h-8l-5 -1v-2t-1 -2l-5 -7q1 -4 3 -6t3 -4q4 -1 7 -2t7 -1q8 -3 11 -2q4 0 8 1t7 1l7 3.5t8 4.5l5.5 5.5t4.5 6.5q0 5 2.5 7.5t2.5 7.5 t-0.5 8.5t-4.5 6.5q0 8 -5 10zM1122 151q-1 4 -3 4t-3.5 0.5t-3.5 0.5q-1 -1 -6 -1l-7 -4q-2 -1 -2 -3v-2q-1 -2 -1 -5v-1q0 -4 1 -4v-1q0 -6 4 -6q1 -5 6 -5h7q5 0 7 2q1 2 3 2.5t2 2.5v2q0 2 1 2l4 3v2q0 6 -5 6zM846 99q-1 0 -1 4q0 1 -1.5 1t-1.5 1q0 4 -1 4l-41 60 q0 1 -3 2q-1 3 -8 3h-9h-14l3 -119l27 1v79l51 -79h25v118h-30zM599 189l48 -18l8 25l-73 25l-41 -105l26 -11l15 41l38 -15l10 25l-38 15zM747 160l-8 11q-3 3 -6.5 5t-7.5 4q-4 1 -7 2t-8 3q-5 1 -9 1h-7q-10 0 -14 -5q-4 0 -7.5 -1t-7.5 -4l-11 -10q-4 -8 -10 -11 q-2 -5 -3.5 -8.5t-1.5 -6.5v-19l3 -15l5 -12l12 -11q3 -4 7 -5.5t6 -3.5q7 -4 15 -4q5 -1 8.5 -1h6.5q5 0 14 2q4 2 8.5 3t6.5 4q6 2 11 10l9 11q4 7 6 17v15q0 3 -0.5 6.5t-2.5 8.5l-3 7.5t-4 6.5zM730 121q0 -3 -1.5 -6.5t-3.5 -5.5l-4.5 -6t-4.5 -4q-4 -1 -6.5 -2 t-5.5 -1q-7 -3 -12 0q-3 0 -6.5 1t-5.5 2l-8 10q-2 2 -2.5 5.5t-0.5 6.5q-3 5 0 14q0 6 5 11l6 9l12 5h12l12 -5l9 -9q2 -3 3.5 -5t1.5 -6q2 -9 0 -14zM1309 460q-2 -2 -3 -4t-1 -6q0 -2 1 -4t3 -5l40 -57l-69 10h-10l-9 -6l-9 -17l97 -65l16 23l-46 32l60 -12l11 20l-33 50 l47 -30l15 24l-98 63zM1296 333l-14 13l-15 3q-3 2 -15 2h-6.5t-8.5 -2l-12 -3q-4 -3 -8.5 -6.5t-6.5 -6.5q-3 -3 -4.5 -6t-3.5 -6q-3 -3 -4 -6.5t-3 -8.5q0 -3 -1.5 -6.5t-1.5 -8.5v-6t3 -9l4 -13l10 -12l13 -10q5 -1 7.5 -3.5t7.5 -2.5t8.5 -2t6.5 -2t6.5 2t8.5 2 q3 0 6.5 2.5t7.5 3.5q6 3 13 10l10 12q1 2 3 5t2 8q1 5 1 15v15l-6 13q-2 4 -5 9zM1282 280q-3 -9 -7 -10q-8 -7 -10 -9q-3 -1 -6.5 -1h-6.5t-6.5 0.5t-4.5 0.5l-11 9q-4 4 -8 11v10v12q4 8 8 12l11 8q3 0 6 0.5t5 0.5q5 0 13 -3q2 -1 4.5 -3t5.5 -5q2 -2 4 -4.5t3 -5.5 q3 -3 3 -12q0 -2 -1.5 -6.5zM1209 220l-7 -4q-2 0 -3.5 -2.5t-1.5 -4.5l-5 -9l-8 -6q-4 -3 -6 -4t-6 -1q-6 -3 -12 0q-3 2 -5.5 2t-5.5 3q-7 4 -7 11q-5 1 -5 11q-5 3 0 14v3.5t2 7.5q2 2 4 3.5t4 3.5q8 3 10 3q3 2 10 2q2 0 10 3q2 4 5 5l2 7v8q-3 5 -12 5h-13l-14 -5 l-11 -5q-2 -2 -5.5 -4.5t-6.5 -6.5q-2 -2 -4 -5.5t-4 -8.5l-7 -15v-15q0 -5 2 -7.5t2 -7.5l6 -15q3 -3 6 -5t4 -5l15 -10l12 -2q5 -3 16 -3q4 0 7 1.5t7 2.5q5 1 8.5 3.5t6.5 5.5l5 2.5t5 4.5q3 0 5 3.5t5 6.5l3 14q5 4 5 13l-12 2h-6zM519 260l-102 -74l15 -10h2.5h2.5 q3 0 3.5 -0.5t1.5 0.5h5h5l10 10l40 -22l-2 -15v-5q0 -3 1 -3q0 -1 1 -1v-4q0 -1 2 -1l3 -4l17 -10l17 125zM507 218v-2v-3l-1 -22l-19 10l17 15h2h1v2v1h2q1 1 2 1zM477 255l18 20l-69 59l-20 -21l26 -22l-57 -66l20 -19l60 70zM257 411l83 -10h6q1 0 2 1t3 1l11 8l-45 77 l-23 -14l26 -44l-83 9q-1 0 -4.5 -0.5t-7.5 -3.5l-10 -5l45 -79l22 15zM357 303l22 18l-27 30l14 12l31 -39l20 17l-48 60l-90 -75l51 -58l19 18l-32 37l17 11zM191 741l50 4q1 -2 3.5 -4t4.5 -5q2 -1 3.5 -4t1.5 -6q1 -6 3 -11q0 -4 1 -6.5t1 -4.5q0 -8 -1 -14t-3 -11 q-1 -8 -4.5 -13t-6.5 -10q-7 -8 -19 -12q-11 -8 -23 -8h-17q-4 3 -7.5 4t-7.5 4q-4 1 -6.5 3t-6.5 4q-2 3 -5 6t-5 7q-2 2 -3.5 5.5t-3.5 6.5q-1 5 -2 9.5t-1 9.5v6.5v4.5q3 9 3 14q2 3 3.5 5.5t3.5 5.5q2 2 3.5 5t3.5 5l3 -5q3 0 4 -1l1 -1q2 -3 2 -8v-3t-2 -3 q-5 -5 -5 -11v-13t3 -17q2 -4 4.5 -7t5.5 -6q5 -5 14 -7q7 -4 17 -3q6 0 11 3q3 1 5 1.5t4 3.5q1 2 3.5 3t5.5 4q1 2 2.5 3.5t3.5 4.5q0 4 0.5 6.5t2.5 5.5q1 4 1 10q-1 4 -2 7t-2 8q0 3 -5 10l-19 -1v-5v-5q0 -2 -2 -5q-1 -1 -2 -2.5t-2 -1.5q-2 -1 -6 -1h-6zM264 831 l-9 -75l-118 12l8 75l19 -2l-7 -55l30 -5l5 47l20 -2l-5 -45l32 -3l5 57zM164 851l-17 5l22 90l18 -5l-10 -37l98 -23l-4 -18l-97 23zM205 988l-18 8l42 83l16 -8l-15 -32l89 -45l-8 -18l-90 45zM392 1106l-11 -16l-40 30l-35 -47l41 -30l-11 -15l-97 70l11 15l40 -29l35 47 l-40 30l11 15zM456 1166l-54 -51l-83 86l53 53l14 -15l-39 -39l20 -21l33 31l12 -14l-31 -30l21 -23l40 38zM514 1290l10 -17l-39 -24l24 -43l-14 -10l-63 100l63 40l9 -15l-47 -30l18 -26zM562 1290q0 -7 5 -10q2 -4 10 -7q2 -2 5 -2h5q5 0 10 2q8 3 10 7q5 5 7 10 q1 1 1 10q0 6 -1 11l-27 67l17 8l28 -68q2 -5 2.5 -9t0.5 -9q0 -10 -3 -19q-2 -5 -4.5 -8t-7.5 -7q-3 -5 -6 -6.5t-8 -3.5t-9.5 -3.5t-9.5 -1.5q-8 0 -18 5q-5 2 -8.5 3.5t-6.5 6.5q-7 7 -10 15l-30 67l18 8zM662 1276l-30 117l20 5l23 -97l49 10l3 -20zM731 1291l-12 120 l20 2l10 -98l51 5v-20zM864 1296l-19 4l12 118l44 -5q6 0 14 -4q9 -5 11 -10q4 -3 6 -13q4 -7 3 -15q-3 -3 -3 -6.5t-2 -8.5q-6 -8 -9 -11q-4 -4 -14 -7q-3 -2 -13 -2l-25 4zM895 1356h7q3 0 7 5q3 0 3 5q2 2 4 8q0 5 -1 7t-2 3.5l-1 1.5q-2 3 -3.5 4t-2.5 1q-2 2 -3.5 2 t-2.5 1l-25 2l-5 -38zM951 1285l-19 5l30 113l44 -12q6 0 11 -5l10 -10q4 -5 4 -13q1 -5 0.5 -8.5t-0.5 -6.5q-2 -5 -5 -10q-4 -5 -6 -7q-8 -5 -10 -5q-3 -2 -5.5 -2.5t-3.5 -2.5l21 -56l-15 1q-1 2 -3 3.5t-3 1.5q-4 2 -5 9l-19 46l-15 4zM977 1379l-10 -31l25 -7h3h2 q3 0 4 1t4 1q2 0 2 1.5v1.5q5 5 5 7v7v3t-1 3q-1 2 -2.5 2.5t-1.5 2.5q-3 3 -6 3zM1037 1321q0 5 2.5 8.5t6.5 6.5q1 3 4.5 5.5t6.5 4.5q3 3 6.5 4t8.5 3q4 3 14 3h15q9 -1 16 -6q8 -4 15 -9q3 -3 5.5 -6.5t4.5 -4.5l3.5 -7l3.5 -7q1 -5 2 -8t1 -7v-8t-2 -8q-1 -4 -2 -7.5 t-3 -7.5q-3 -4 -4 -7t-4 -7q-3 -3 -6.5 -5t-4.5 -6q-4 -2 -7 -4t-7 -5q-6 0 -16 -1q-12 0 -17 1q-5 0 -15 5q-12 5 -18 15q-9 9 -14 20q-1 7 -1 12v12q0 11 6 21zM1054 1315q-2 -4 -2.5 -6.5t-2.5 -5.5v-10q0 -2 1 -5t2 -5q0 -7 4 -10q1 -2 3 -4.5t3 -2.5q4 -5 10 -6 q7 -4 10 -4h12h12q4 5 8 5q3 2 5 3.5t3 3.5q3 3 4 5.5t3 4.5q2 3 2.5 7.5t0.5 9.5v7.5v7.5q-2 4 -4.5 7.5t-5.5 5.5q-6 7 -13 10q-2 2 -5 2.5t-7 0.5h-10q-6 0 -10 -1q-3 -2 -5 -3t-5 -1q-1 -2 -3 -4t-3 -4zM1222 1290l10 -9q0 -1 1.5 -3t3.5 -3q0 -5 -2 -9l-28 -85l83 38 q1 1 7 1q5 0 7 -4l10 -7l-117 -54l-15 11zM1279 1064l-47 56l90 76l49 -56l-14 -14l-37 44l-23 -19l29 -36l-16 -11l-28 35l-23 -21l35 -42zM1294 1039l-9 16l101 61l23 -37q2 -3 2.5 -6t2.5 -8q2 -7 -2 -12q-2 -9 -5 -13l-4.5 -4.5t-6.5 -5.5q-4 -1 -5.5 -1.5t-4.5 -2.5 q-4 0 -5.5 -0.5t-4.5 0.5q-4 0 -10 3q-4 1 -5.5 1.5t-3.5 3.5l-23 -59l-9 13q-4 2 -4 7q0 6 3 9l20 47l-8 13zM1381 1089l-29 -16l13 -19q2 -5 4 -6q1 0 6 -3h6q1 0 5 3q1 0 6 3q0 3 1 4t1 3q1 1 1 6q-1 1 -1 2.5t-2 3.5zM1436 969q1 1 1 7q0 4 -1 5q-2 3 -2 7q-3 0 -5 3 q-2 2 -5 2q-3 1 -5 0l-2.5 -2.5l-1.5 -1.5l-2 -2l-2 -2v-7v-10v-3v-2v-10q0 -2 -0.5 -4.5t-0.5 -4.5q-4 -14 -19 -21q-4 -2 -7.5 -3t-8.5 1q-6 0 -14 2q-4 3 -7 5t-5 6q-3 2 -5 5.5t-4 6.5q-3 10 -3 15q0 4 3 14q0 3 2 5l3 4q0 4 2 4q4 2 3 2l4 -2q3 -5 5 -7q0 -1 0.5 -2 t0.5 -3q0 -3 -3 -6v-1v-8q0 -5 2 -8q0 -2 1 -3t2 -4q2 0 3.5 -1.5l3.5 -3.5h2t4 -2h4.5t4.5 2q2 0 5 3q2 4 2 5q1 2 1 7v8v4v12q0 8 2 13q1 2 2 4.5t4 5.5q2 2 4.5 3.5t6.5 3.5q8 3 14 1q6 0 12 -3q3 -2 6.5 -3.5t5.5 -5.5q3 -3 6 -11q2 -7 2 -10q0 -7 -1 -10q0 -4 -4 -10 v-4.5t-2 -3.5l-6 4q-3 1 -4 2.5t-3 3.5q-1 3 -1 6v3zM1364 881l-5 18l113 34l5 -19zM1427 881h19q6 0 14 -5q4 0 7.5 -2.5t4.5 -4.5q4 -3 7 -5.5t6 -5.5q4 -8 7 -12q3 -8 5 -18v-15q-2 -10 -5 -15q-1 -5 -3 -8.5t-4 -6.5l-10 -10q-4 -4 -7.5 -5.5t-6.5 -2.5q-7 -4 -15 -4 q-10 -1 -19 0q-8 0 -15 4q-2 1 -6 2.5t-7 3.5q-3 3 -5.5 6.5t-4.5 5.5q-7 5 -8 15q-2 3 -3.5 6.5t-1.5 8.5q-1 13 1 23q5 13 10 20q7 10 18 17q5 3 11 5.5t11 2.5zM1430 861q-8 0 -10 -3q-5 -2 -10 -5q-4 -2 -6 -7q-5 -5 -5 -10q-2 -1 -2.5 -4t-1.5 -6v-10q2 -8 4 -11 q0 -6 5 -9q1 -3 3 -5t3 -5q2 0 4.5 -1.5t5.5 -3.5q2 -1 4.5 -1h5.5q5 -4 11 0q11 0 16 5q5 1 13 11q6 8 6 15q3 7 1 15q0 7 -2 10q-3 4 -3.5 6t-1.5 4q-3 2 -4.5 3.5l-3.5 3.5q-5 3 -10 5q-3 3 -11 3q-4 3 -11 0zM1377 645l2 16l96 60l-91 5l1 20l117 -10v-11q0 -5 -1 -9 q-4 -2 -4 -5l-81 -50l81 -6l-1 -19z" />
<glyph unicode="1" d="M822 308q82 0 155 30t130 78h-570q58 -48 130 -78t155 -30zM586 463h564q45 55 70 124t25 147q0 80 -26.5 150t-81.5 139zM822 1251q-105 0 -198 -40t-163.5 -109t-112.5 -163.5t-42 -204.5q0 -103 39.5 -196t108 -163.5t163.5 -112.5t205 -42q35 0 70 5.5t68 15.5 q77 23 146 68t120 108.5t80.5 143.5t29.5 173q0 101 -38.5 194t-107 165t-163.5 115t-205 43zM822 260q-100 0 -186 38t-150 103t-99.5 151.5t-35.5 181.5q0 94 35 179.5t98 151t149.5 103.5t188.5 38q67 0 124 -16q71 -19 134.5 -60t111 -100t75 -134t27.5 -162 q0 -98 -37 -184.5t-101.5 -151t-150.5 -101.5t-183 -37zM492 1004q-45 -55 -70.5 -122.5t-25.5 -147.5q0 -83 28 -155.5t78 -130.5l555 556h-565zM822 1161q-83 0 -155.5 -29t-130.5 -81h566q-55 50 -126.5 80t-153.5 30zM972 191l-90 -16l4 -26l34 6l16 -89l26 5l-16 89 l31 6zM1072 156q-1 7 -8 9l-12 5h-15h-6h-9h-2v1q-3 3 -3 4l-2 1q2 0 2 4v1h3h5v4h1h5h3q3 0 3 1h9q0 3 0.5 4l0.5 1l5 10l-6 4q-9 4 -12 4q-2 0 -4.5 1t-4.5 1q-4 0 -6 -1t-4 -1l-13 -8q-2 -1 -4 -3.5t-3 -6.5q-8 -6 -8 -15v-4t3 -7q2 -9 10 -14q1 0 3.5 -1.5t3.5 -3.5 q4 0 7 -1t6 -1h12h10h2q2 0 3 -3q4 0 4 -1h3v-5q0 -2 -1 -3t-1 -2v-1q-1 0 -2 -2.5t-3 -2.5q-1 -3 -5 -3h-2.5h-2.5h-3.5h-2.5h-6h-8l-5 -1v-2t-1 -2l-5 -7q1 -4 3 -6t3 -4q4 -1 7 -2t7 -1q8 -3 11 -2q4 0 8 1t7 1l7 3.5t8 4.5l5.5 5.5t4.5 6.5q0 5 2.5 7.5t2.5 7.5 t-0.5 8.5t-4.5 6.5q0 8 -5 10zM1122 151q-1 4 -3 4t-3.5 0.5t-3.5 0.5q-1 -1 -6 -1l-7 -4q-2 -1 -2 -3v-2q-1 -2 -1 -5v-1q0 -4 1 -4v-1q0 -6 4 -6q1 -5 6 -5h7q5 0 7 2q1 2 3 2.5t2 2.5v2q0 2 1 2l4 3v2q0 6 -5 6zM846 99q-1 0 -1 4q0 1 -1.5 1t-1.5 1q0 4 -1 4l-41 60 q0 1 -3 2q-1 3 -8 3h-9h-14l3 -119l27 1v79l51 -79h25v118h-30zM599 189l48 -18l8 25l-73 25l-41 -105l26 -11l15 41l38 -15l10 25l-38 15zM747 160l-8 11q-3 3 -6.5 5t-7.5 4q-4 1 -7 2t-8 3q-5 1 -9 1h-7q-10 0 -14 -5q-4 0 -7.5 -1t-7.5 -4l-11 -10q-4 -8 -10 -11 q-2 -5 -3.5 -8.5t-1.5 -6.5v-19l3 -15l5 -12l12 -11q3 -4 7 -5.5t6 -3.5q7 -4 15 -4q5 -1 8.5 -1h6.5q5 0 14 2q4 2 8.5 3t6.5 4q6 2 11 10l9 11q4 7 6 17v15q0 3 -0.5 6.5t-2.5 8.5l-3 7.5t-4 6.5zM730 121q0 -3 -1.5 -6.5t-3.5 -5.5l-4.5 -6t-4.5 -4q-4 -1 -6.5 -2 t-5.5 -1q-7 -3 -12 0q-3 0 -6.5 1t-5.5 2l-8 10q-2 2 -2.5 5.5t-0.5 6.5q-3 5 0 14q0 6 5 11l6 9l12 5h12l12 -5l9 -9q2 -3 3.5 -5t1.5 -6q2 -9 0 -14zM1309 460q-2 -2 -3 -4t-1 -6q0 -2 1 -4t3 -5l40 -57l-69 10h-10l-9 -6l-9 -17l97 -65l16 23l-46 32l60 -12l11 20l-33 50 l47 -30l15 24l-98 63zM1296 333l-14 13l-15 3q-3 2 -15 2h-6.5t-8.5 -2l-12 -3q-4 -3 -8.5 -6.5t-6.5 -6.5q-3 -3 -4.5 -6t-3.5 -6q-3 -3 -4 -6.5t-3 -8.5q0 -3 -1.5 -6.5t-1.5 -8.5v-6t3 -9l4 -13l10 -12l13 -10q5 -1 7.5 -3.5t7.5 -2.5t8.5 -2t6.5 -2t6.5 2t8.5 2 q3 0 6.5 2.5t7.5 3.5q6 3 13 10l10 12q1 2 3 5t2 8q1 5 1 15v15l-6 13q-2 4 -5 9zM1282 280q-3 -9 -7 -10q-8 -7 -10 -9q-3 -1 -6.5 -1h-6.5t-6.5 0.5t-4.5 0.5l-11 9q-4 4 -8 11v10v12q4 8 8 12l11 8q3 0 6 0.5t5 0.5q5 0 13 -3q2 -1 4.5 -3t5.5 -5q2 -2 4 -4.5t3 -5.5 q3 -3 3 -12q0 -2 -1.5 -6.5zM1209 220l-7 -4q-2 0 -3.5 -2.5t-1.5 -4.5l-5 -9l-8 -6q-4 -3 -6 -4t-6 -1q-6 -3 -12 0q-3 2 -5.5 2t-5.5 3q-7 4 -7 11q-5 1 -5 11q-5 3 0 14v3.5t2 7.5q2 2 4 3.5t4 3.5q8 3 10 3q3 2 10 2q2 0 10 3q2 4 5 5l2 7v8q-3 5 -12 5h-13l-14 -5 l-11 -5q-2 -2 -5.5 -4.5t-6.5 -6.5q-2 -2 -4 -5.5t-4 -8.5l-7 -15v-15q0 -5 2 -7.5t2 -7.5l6 -15q3 -3 6 -5t4 -5l15 -10l12 -2q5 -3 16 -3q4 0 7 1.5t7 2.5q5 1 8.5 3.5t6.5 5.5l5 2.5t5 4.5q3 0 5 3.5t5 6.5l3 14q5 4 5 13l-12 2h-6zM519 260l-102 -74l15 -10h2.5h2.5 q3 0 3.5 -0.5t1.5 0.5h5h5l10 10l40 -22l-2 -15v-5q0 -3 1 -3q0 -1 1 -1v-4q0 -1 2 -1l3 -4l17 -10l17 125zM507 218v-2v-3l-1 -22l-19 10l17 15h2h1v2v1h2q1 1 2 1zM477 255l18 20l-69 59l-20 -21l26 -22l-57 -66l20 -19l60 70zM257 411l83 -10h6q1 0 2 1t3 1l11 8l-45 77 l-23 -14l26 -44l-83 9q-1 0 -4.5 -0.5t-7.5 -3.5l-10 -5l45 -79l22 15zM357 303l22 18l-27 30l14 12l31 -39l20 17l-48 60l-90 -75l51 -58l19 18l-32 37l17 11zM191 741l50 4q1 -2 3.5 -4t4.5 -5q2 -1 3.5 -4t1.5 -6q1 -6 3 -11q0 -4 1 -6.5t1 -4.5q0 -8 -1 -14t-3 -11 q-1 -8 -4.5 -13t-6.5 -10q-7 -8 -19 -12q-11 -8 -23 -8h-17q-4 3 -7.5 4t-7.5 4q-4 1 -6.5 3t-6.5 4q-2 3 -5 6t-5 7q-2 2 -3.5 5.5t-3.5 6.5q-1 5 -2 9.5t-1 9.5v6.5v4.5q3 9 3 14q2 3 3.5 5.5t3.5 5.5q2 2 3.5 5t3.5 5l3 -5q3 0 4 -1l1 -1q2 -3 2 -8v-3t-2 -3 q-5 -5 -5 -11v-13t3 -17q2 -4 4.5 -7t5.5 -6q5 -5 14 -7q7 -4 17 -3q6 0 11 3q3 1 5 1.5t4 3.5q1 2 3.5 3t5.5 4q1 2 2.5 3.5t3.5 4.5q0 4 0.5 6.5t2.5 5.5q1 4 1 10q-1 4 -2 7t-2 8q0 3 -5 10l-19 -1v-5v-5q0 -2 -2 -5q-1 -1 -2 -2.5t-2 -1.5q-2 -1 -6 -1h-6zM264 831 l-9 -75l-118 12l8 75l19 -2l-7 -55l30 -5l5 47l20 -2l-5 -45l32 -3l5 57zM164 851l-17 5l22 90l18 -5l-10 -37l98 -23l-4 -18l-97 23zM205 988l-18 8l42 83l16 -8l-15 -32l89 -45l-8 -18l-90 45zM392 1106l-11 -16l-40 30l-35 -47l41 -30l-11 -15l-97 70l11 15l40 -29l35 47 l-40 30l11 15zM456 1166l-54 -51l-83 86l53 53l14 -15l-39 -39l20 -21l33 31l12 -14l-31 -30l21 -23l40 38zM514 1290l10 -17l-39 -24l24 -43l-14 -10l-63 100l63 40l9 -15l-47 -30l18 -26zM562 1290q0 -7 5 -10q2 -4 10 -7q2 -2 5 -2h5q5 0 10 2q8 3 10 7q5 5 7 10 q1 1 1 10q0 6 -1 11l-27 67l17 8l28 -68q2 -5 2.5 -9t0.5 -9q0 -10 -3 -19q-2 -5 -4.5 -8t-7.5 -7q-3 -5 -6 -6.5t-8 -3.5t-9.5 -3.5t-9.5 -1.5q-8 0 -18 5q-5 2 -8.5 3.5t-6.5 6.5q-7 7 -10 15l-30 67l18 8zM662 1276l-30 117l20 5l23 -97l49 10l3 -20zM731 1291l-12 120 l20 2l10 -98l51 5v-20zM864 1296l-19 4l12 118l44 -5q6 0 14 -4q9 -5 11 -10q4 -3 6 -13q4 -7 3 -15q-3 -3 -3 -6.5t-2 -8.5q-6 -8 -9 -11q-4 -4 -14 -7q-3 -2 -13 -2l-25 4zM895 1356h7q3 0 7 5q3 0 3 5q2 2 4 8q0 5 -1 7t-2 3.5l-1 1.5q-2 3 -3.5 4t-2.5 1q-2 2 -3.5 2 t-2.5 1l-25 2l-5 -38zM951 1285l-19 5l30 113l44 -12q6 0 11 -5l10 -10q4 -5 4 -13q1 -5 0.5 -8.5t-0.5 -6.5q-2 -5 -5 -10q-4 -5 -6 -7q-8 -5 -10 -5q-3 -2 -5.5 -2.5t-3.5 -2.5l21 -56l-15 1q-1 2 -3 3.5t-3 1.5q-4 2 -5 9l-19 46l-15 4zM977 1379l-10 -31l25 -7h3h2 q3 0 4 1t4 1q2 0 2 1.5v1.5q5 5 5 7v7v3t-1 3q-1 2 -2.5 2.5t-1.5 2.5q-3 3 -6 3zM1037 1321q0 5 2.5 8.5t6.5 6.5q1 3 4.5 5.5t6.5 4.5q3 3 6.5 4t8.5 3q4 3 14 3h15q9 -1 16 -6q8 -4 15 -9q3 -3 5.5 -6.5t4.5 -4.5l3.5 -7l3.5 -7q1 -5 2 -8t1 -7v-8t-2 -8q-1 -4 -2 -7.5 t-3 -7.5q-3 -4 -4 -7t-4 -7q-3 -3 -6.5 -5t-4.5 -6q-4 -2 -7 -4t-7 -5q-6 0 -16 -1q-12 0 -17 1q-5 0 -15 5q-12 5 -18 15q-9 9 -14 20q-1 7 -1 12v12q0 11 6 21zM1054 1315q-2 -4 -2.5 -6.5t-2.5 -5.5v-10q0 -2 1 -5t2 -5q0 -7 4 -10q1 -2 3 -4.5t3 -2.5q4 -5 10 -6 q7 -4 10 -4h12h12q4 5 8 5q3 2 5 3.5t3 3.5q3 3 4 5.5t3 4.5q2 3 2.5 7.5t0.5 9.5v7.5v7.5q-2 4 -4.5 7.5t-5.5 5.5q-6 7 -13 10q-2 2 -5 2.5t-7 0.5h-10q-6 0 -10 -1q-3 -2 -5 -3t-5 -1q-1 -2 -3 -4t-3 -4zM1222 1290l10 -9q0 -1 1.5 -3t3.5 -3q0 -5 -2 -9l-28 -85l83 38 q1 1 7 1q5 0 7 -4l10 -7l-117 -54l-15 11zM1279 1064l-47 56l90 76l49 -56l-14 -14l-37 44l-23 -19l29 -36l-16 -11l-28 35l-23 -21l35 -42zM1294 1039l-9 16l101 61l23 -37q2 -3 2.5 -6t2.5 -8q2 -7 -2 -12q-2 -9 -5 -13l-4.5 -4.5t-6.5 -5.5q-4 -1 -5.5 -1.5t-4.5 -2.5 q-4 0 -5.5 -0.5t-4.5 0.5q-4 0 -10 3q-4 1 -5.5 1.5t-3.5 3.5l-23 -59l-9 13q-4 2 -4 7q0 6 3 9l20 47l-8 13zM1381 1089l-29 -16l13 -19q2 -5 4 -6q1 0 6 -3h6q1 0 5 3q1 0 6 3q0 3 1 4t1 3q1 1 1 6q-1 1 -1 2.5t-2 3.5zM1436 969q1 1 1 7q0 4 -1 5q-2 3 -2 7q-3 0 -5 3 q-2 2 -5 2q-3 1 -5 0l-2.5 -2.5l-1.5 -1.5l-2 -2l-2 -2v-7v-10v-3v-2v-10q0 -2 -0.5 -4.5t-0.5 -4.5q-4 -14 -19 -21q-4 -2 -7.5 -3t-8.5 1q-6 0 -14 2q-4 3 -7 5t-5 6q-3 2 -5 5.5t-4 6.5q-3 10 -3 15q0 4 3 14q0 3 2 5l3 4q0 4 2 4q4 2 3 2l4 -2q3 -5 5 -7q0 -1 0.5 -2 t0.5 -3q0 -3 -3 -6v-1v-8q0 -5 2 -8q0 -2 1 -3t2 -4q2 0 3.5 -1.5l3.5 -3.5h2t4 -2h4.5t4.5 2q2 0 5 3q2 4 2 5q1 2 1 7v8v4v12q0 8 2 13q1 2 2 4.5t4 5.5q2 2 4.5 3.5t6.5 3.5q8 3 14 1q6 0 12 -3q3 -2 6.5 -3.5t5.5 -5.5q3 -3 6 -11q2 -7 2 -10q0 -7 -1 -10q0 -4 -4 -10 v-4.5t-2 -3.5l-6 4q-3 1 -4 2.5t-3 3.5q-1 3 -1 6v3zM1364 881l-5 18l113 34l5 -19zM1427 881h19q6 0 14 -5q4 0 7.5 -2.5t4.5 -4.5q4 -3 7 -5.5t6 -5.5q4 -8 7 -12q3 -8 5 -18v-15q-2 -10 -5 -15q-1 -5 -3 -8.5t-4 -6.5l-10 -10q-4 -4 -7.5 -5.5t-6.5 -2.5q-7 -4 -15 -4 q-10 -1 -19 0q-8 0 -15 4q-2 1 -6 2.5t-7 3.5q-3 3 -5.5 6.5t-4.5 5.5q-7 5 -8 15q-2 3 -3.5 6.5t-1.5 8.5q-1 13 1 23q5 13 10 20q7 10 18 17q5 3 11 5.5t11 2.5zM1430 861q-8 0 -10 -3q-5 -2 -10 -5q-4 -2 -6 -7q-5 -5 -5 -10q-2 -1 -2.5 -4t-1.5 -6v-10q2 -8 4 -11 q0 -6 5 -9q1 -3 3 -5t3 -5q2 0 4.5 -1.5t5.5 -3.5q2 -1 4.5 -1h5.5q5 -4 11 0q11 0 16 5q5 1 13 11q6 8 6 15q3 7 1 15q0 7 -2 10q-3 4 -3.5 6t-1.5 4q-3 2 -4.5 3.5l-3.5 3.5q-5 3 -10 5q-3 3 -11 3q-4 3 -11 0zM1377 645l2 16l96 60l-91 5l1 20l117 -10v-11q0 -5 -1 -9 q-4 -2 -4 -5l-81 -50l81 -6l-1 -19z" />
<glyph unicode="2" d="M822 308q82 0 155 30t130 78h-570q58 -48 130 -78t155 -30zM586 463h564q45 55 70 124t25 147q0 80 -26.5 150t-81.5 139zM822 1251q-105 0 -198 -40t-163.5 -109t-112.5 -163.5t-42 -204.5q0 -103 39.5 -196t108 -163.5t163.5 -112.5t205 -42q35 0 70 5.5t68 15.5 q77 23 146 68t120 108.5t80.5 143.5t29.5 173q0 101 -38.5 194t-107 165t-163.5 115t-205 43zM822 260q-100 0 -186 38t-150 103t-99.5 151.5t-35.5 181.5q0 94 35 179.5t98 151t149.5 103.5t188.5 38q67 0 124 -16q71 -19 134.5 -60t111 -100t75 -134t27.5 -162 q0 -98 -37 -184.5t-101.5 -151t-150.5 -101.5t-183 -37zM492 1004q-45 -55 -70.5 -122.5t-25.5 -147.5q0 -83 28 -155.5t78 -130.5l555 556h-565zM822 1161q-83 0 -155.5 -29t-130.5 -81h566q-55 50 -126.5 80t-153.5 30zM972 191l-90 -16l4 -26l34 6l16 -89l26 5l-16 89 l31 6zM1072 156q-1 7 -8 9l-12 5h-15h-6h-9h-2v1q-3 3 -3 4l-2 1q2 0 2 4v1h3h5v4h1h5h3q3 0 3 1h9q0 3 0.5 4l0.5 1l5 10l-6 4q-9 4 -12 4q-2 0 -4.5 1t-4.5 1q-4 0 -6 -1t-4 -1l-13 -8q-2 -1 -4 -3.5t-3 -6.5q-8 -6 -8 -15v-4t3 -7q2 -9 10 -14q1 0 3.5 -1.5t3.5 -3.5 q4 0 7 -1t6 -1h12h10h2q2 0 3 -3q4 0 4 -1h3v-5q0 -2 -1 -3t-1 -2v-1q-1 0 -2 -2.5t-3 -2.5q-1 -3 -5 -3h-2.5h-2.5h-3.5h-2.5h-6h-8l-5 -1v-2t-1 -2l-5 -7q1 -4 3 -6t3 -4q4 -1 7 -2t7 -1q8 -3 11 -2q4 0 8 1t7 1l7 3.5t8 4.5l5.5 5.5t4.5 6.5q0 5 2.5 7.5t2.5 7.5 t-0.5 8.5t-4.5 6.5q0 8 -5 10zM1122 151q-1 4 -3 4t-3.5 0.5t-3.5 0.5q-1 -1 -6 -1l-7 -4q-2 -1 -2 -3v-2q-1 -2 -1 -5v-1q0 -4 1 -4v-1q0 -6 4 -6q1 -5 6 -5h7q5 0 7 2q1 2 3 2.5t2 2.5v2q0 2 1 2l4 3v2q0 6 -5 6zM846 99q-1 0 -1 4q0 1 -1.5 1t-1.5 1q0 4 -1 4l-41 60 q0 1 -3 2q-1 3 -8 3h-9h-14l3 -119l27 1v79l51 -79h25v118h-30zM599 189l48 -18l8 25l-73 25l-41 -105l26 -11l15 41l38 -15l10 25l-38 15zM747 160l-8 11q-3 3 -6.5 5t-7.5 4q-4 1 -7 2t-8 3q-5 1 -9 1h-7q-10 0 -14 -5q-4 0 -7.5 -1t-7.5 -4l-11 -10q-4 -8 -10 -11 q-2 -5 -3.5 -8.5t-1.5 -6.5v-19l3 -15l5 -12l12 -11q3 -4 7 -5.5t6 -3.5q7 -4 15 -4q5 -1 8.5 -1h6.5q5 0 14 2q4 2 8.5 3t6.5 4q6 2 11 10l9 11q4 7 6 17v15q0 3 -0.5 6.5t-2.5 8.5l-3 7.5t-4 6.5zM730 121q0 -3 -1.5 -6.5t-3.5 -5.5l-4.5 -6t-4.5 -4q-4 -1 -6.5 -2 t-5.5 -1q-7 -3 -12 0q-3 0 -6.5 1t-5.5 2l-8 10q-2 2 -2.5 5.5t-0.5 6.5q-3 5 0 14q0 6 5 11l6 9l12 5h12l12 -5l9 -9q2 -3 3.5 -5t1.5 -6q2 -9 0 -14zM1309 460q-2 -2 -3 -4t-1 -6q0 -2 1 -4t3 -5l40 -57l-69 10h-10l-9 -6l-9 -17l97 -65l16 23l-46 32l60 -12l11 20l-33 50 l47 -30l15 24l-98 63zM1296 333l-14 13l-15 3q-3 2 -15 2h-6.5t-8.5 -2l-12 -3q-4 -3 -8.5 -6.5t-6.5 -6.5q-3 -3 -4.5 -6t-3.5 -6q-3 -3 -4 -6.5t-3 -8.5q0 -3 -1.5 -6.5t-1.5 -8.5v-6t3 -9l4 -13l10 -12l13 -10q5 -1 7.5 -3.5t7.5 -2.5t8.5 -2t6.5 -2t6.5 2t8.5 2 q3 0 6.5 2.5t7.5 3.5q6 3 13 10l10 12q1 2 3 5t2 8q1 5 1 15v15l-6 13q-2 4 -5 9zM1282 280q-3 -9 -7 -10q-8 -7 -10 -9q-3 -1 -6.5 -1h-6.5t-6.5 0.5t-4.5 0.5l-11 9q-4 4 -8 11v10v12q4 8 8 12l11 8q3 0 6 0.5t5 0.5q5 0 13 -3q2 -1 4.5 -3t5.5 -5q2 -2 4 -4.5t3 -5.5 q3 -3 3 -12q0 -2 -1.5 -6.5zM1209 220l-7 -4q-2 0 -3.5 -2.5t-1.5 -4.5l-5 -9l-8 -6q-4 -3 -6 -4t-6 -1q-6 -3 -12 0q-3 2 -5.5 2t-5.5 3q-7 4 -7 11q-5 1 -5 11q-5 3 0 14v3.5t2 7.5q2 2 4 3.5t4 3.5q8 3 10 3q3 2 10 2q2 0 10 3q2 4 5 5l2 7v8q-3 5 -12 5h-13l-14 -5 l-11 -5q-2 -2 -5.5 -4.5t-6.5 -6.5q-2 -2 -4 -5.5t-4 -8.5l-7 -15v-15q0 -5 2 -7.5t2 -7.5l6 -15q3 -3 6 -5t4 -5l15 -10l12 -2q5 -3 16 -3q4 0 7 1.5t7 2.5q5 1 8.5 3.5t6.5 5.5l5 2.5t5 4.5q3 0 5 3.5t5 6.5l3 14q5 4 5 13l-12 2h-6zM519 260l-102 -74l15 -10h2.5h2.5 q3 0 3.5 -0.5t1.5 0.5h5h5l10 10l40 -22l-2 -15v-5q0 -3 1 -3q0 -1 1 -1v-4q0 -1 2 -1l3 -4l17 -10l17 125zM507 218v-2v-3l-1 -22l-19 10l17 15h2h1v2v1h2q1 1 2 1zM477 255l18 20l-69 59l-20 -21l26 -22l-57 -66l20 -19l60 70zM257 411l83 -10h6q1 0 2 1t3 1l11 8l-45 77 l-23 -14l26 -44l-83 9q-1 0 -4.5 -0.5t-7.5 -3.5l-10 -5l45 -79l22 15zM357 303l22 18l-27 30l14 12l31 -39l20 17l-48 60l-90 -75l51 -58l19 18l-32 37l17 11zM191 741l50 4q1 -2 3.5 -4t4.5 -5q2 -1 3.5 -4t1.5 -6q1 -6 3 -11q0 -4 1 -6.5t1 -4.5q0 -8 -1 -14t-3 -11 q-1 -8 -4.5 -13t-6.5 -10q-7 -8 -19 -12q-11 -8 -23 -8h-17q-4 3 -7.5 4t-7.5 4q-4 1 -6.5 3t-6.5 4q-2 3 -5 6t-5 7q-2 2 -3.5 5.5t-3.5 6.5q-1 5 -2 9.5t-1 9.5v6.5v4.5q3 9 3 14q2 3 3.5 5.5t3.5 5.5q2 2 3.5 5t3.5 5l3 -5q3 0 4 -1l1 -1q2 -3 2 -8v-3t-2 -3 q-5 -5 -5 -11v-13t3 -17q2 -4 4.5 -7t5.5 -6q5 -5 14 -7q7 -4 17 -3q6 0 11 3q3 1 5 1.5t4 3.5q1 2 3.5 3t5.5 4q1 2 2.5 3.5t3.5 4.5q0 4 0.5 6.5t2.5 5.5q1 4 1 10q-1 4 -2 7t-2 8q0 3 -5 10l-19 -1v-5v-5q0 -2 -2 -5q-1 -1 -2 -2.5t-2 -1.5q-2 -1 -6 -1h-6zM264 831 l-9 -75l-118 12l8 75l19 -2l-7 -55l30 -5l5 47l20 -2l-5 -45l32 -3l5 57zM164 851l-17 5l22 90l18 -5l-10 -37l98 -23l-4 -18l-97 23zM205 988l-18 8l42 83l16 -8l-15 -32l89 -45l-8 -18l-90 45zM392 1106l-11 -16l-40 30l-35 -47l41 -30l-11 -15l-97 70l11 15l40 -29l35 47 l-40 30l11 15zM456 1166l-54 -51l-83 86l53 53l14 -15l-39 -39l20 -21l33 31l12 -14l-31 -30l21 -23l40 38zM514 1290l10 -17l-39 -24l24 -43l-14 -10l-63 100l63 40l9 -15l-47 -30l18 -26zM562 1290q0 -7 5 -10q2 -4 10 -7q2 -2 5 -2h5q5 0 10 2q8 3 10 7q5 5 7 10 q1 1 1 10q0 6 -1 11l-27 67l17 8l28 -68q2 -5 2.5 -9t0.5 -9q0 -10 -3 -19q-2 -5 -4.5 -8t-7.5 -7q-3 -5 -6 -6.5t-8 -3.5t-9.5 -3.5t-9.5 -1.5q-8 0 -18 5q-5 2 -8.5 3.5t-6.5 6.5q-7 7 -10 15l-30 67l18 8zM662 1276l-30 117l20 5l23 -97l49 10l3 -20zM731 1291l-12 120 l20 2l10 -98l51 5v-20zM864 1296l-19 4l12 118l44 -5q6 0 14 -4q9 -5 11 -10q4 -3 6 -13q4 -7 3 -15q-3 -3 -3 -6.5t-2 -8.5q-6 -8 -9 -11q-4 -4 -14 -7q-3 -2 -13 -2l-25 4zM895 1356h7q3 0 7 5q3 0 3 5q2 2 4 8q0 5 -1 7t-2 3.5l-1 1.5q-2 3 -3.5 4t-2.5 1q-2 2 -3.5 2 t-2.5 1l-25 2l-5 -38zM951 1285l-19 5l30 113l44 -12q6 0 11 -5l10 -10q4 -5 4 -13q1 -5 0.5 -8.5t-0.5 -6.5q-2 -5 -5 -10q-4 -5 -6 -7q-8 -5 -10 -5q-3 -2 -5.5 -2.5t-3.5 -2.5l21 -56l-15 1q-1 2 -3 3.5t-3 1.5q-4 2 -5 9l-19 46l-15 4zM977 1379l-10 -31l25 -7h3h2 q3 0 4 1t4 1q2 0 2 1.5v1.5q5 5 5 7v7v3t-1 3q-1 2 -2.5 2.5t-1.5 2.5q-3 3 -6 3zM1037 1321q0 5 2.5 8.5t6.5 6.5q1 3 4.5 5.5t6.5 4.5q3 3 6.5 4t8.5 3q4 3 14 3h15q9 -1 16 -6q8 -4 15 -9q3 -3 5.5 -6.5t4.5 -4.5l3.5 -7l3.5 -7q1 -5 2 -8t1 -7v-8t-2 -8q-1 -4 -2 -7.5 t-3 -7.5q-3 -4 -4 -7t-4 -7q-3 -3 -6.5 -5t-4.5 -6q-4 -2 -7 -4t-7 -5q-6 0 -16 -1q-12 0 -17 1q-5 0 -15 5q-12 5 -18 15q-9 9 -14 20q-1 7 -1 12v12q0 11 6 21zM1054 1315q-2 -4 -2.5 -6.5t-2.5 -5.5v-10q0 -2 1 -5t2 -5q0 -7 4 -10q1 -2 3 -4.5t3 -2.5q4 -5 10 -6 q7 -4 10 -4h12h12q4 5 8 5q3 2 5 3.5t3 3.5q3 3 4 5.5t3 4.5q2 3 2.5 7.5t0.5 9.5v7.5v7.5q-2 4 -4.5 7.5t-5.5 5.5q-6 7 -13 10q-2 2 -5 2.5t-7 0.5h-10q-6 0 -10 -1q-3 -2 -5 -3t-5 -1q-1 -2 -3 -4t-3 -4zM1222 1290l10 -9q0 -1 1.5 -3t3.5 -3q0 -5 -2 -9l-28 -85l83 38 q1 1 7 1q5 0 7 -4l10 -7l-117 -54l-15 11zM1279 1064l-47 56l90 76l49 -56l-14 -14l-37 44l-23 -19l29 -36l-16 -11l-28 35l-23 -21l35 -42zM1294 1039l-9 16l101 61l23 -37q2 -3 2.5 -6t2.5 -8q2 -7 -2 -12q-2 -9 -5 -13l-4.5 -4.5t-6.5 -5.5q-4 -1 -5.5 -1.5t-4.5 -2.5 q-4 0 -5.5 -0.5t-4.5 0.5q-4 0 -10 3q-4 1 -5.5 1.5t-3.5 3.5l-23 -59l-9 13q-4 2 -4 7q0 6 3 9l20 47l-8 13zM1381 1089l-29 -16l13 -19q2 -5 4 -6q1 0 6 -3h6q1 0 5 3q1 0 6 3q0 3 1 4t1 3q1 1 1 6q-1 1 -1 2.5t-2 3.5zM1436 969q1 1 1 7q0 4 -1 5q-2 3 -2 7q-3 0 -5 3 q-2 2 -5 2q-3 1 -5 0l-2.5 -2.5l-1.5 -1.5l-2 -2l-2 -2v-7v-10v-3v-2v-10q0 -2 -0.5 -4.5t-0.5 -4.5q-4 -14 -19 -21q-4 -2 -7.5 -3t-8.5 1q-6 0 -14 2q-4 3 -7 5t-5 6q-3 2 -5 5.5t-4 6.5q-3 10 -3 15q0 4 3 14q0 3 2 5l3 4q0 4 2 4q4 2 3 2l4 -2q3 -5 5 -7q0 -1 0.5 -2 t0.5 -3q0 -3 -3 -6v-1v-8q0 -5 2 -8q0 -2 1 -3t2 -4q2 0 3.5 -1.5l3.5 -3.5h2t4 -2h4.5t4.5 2q2 0 5 3q2 4 2 5q1 2 1 7v8v4v12q0 8 2 13q1 2 2 4.5t4 5.5q2 2 4.5 3.5t6.5 3.5q8 3 14 1q6 0 12 -3q3 -2 6.5 -3.5t5.5 -5.5q3 -3 6 -11q2 -7 2 -10q0 -7 -1 -10q0 -4 -4 -10 v-4.5t-2 -3.5l-6 4q-3 1 -4 2.5t-3 3.5q-1 3 -1 6v3zM1364 881l-5 18l113 34l5 -19zM1427 881h19q6 0 14 -5q4 0 7.5 -2.5t4.5 -4.5q4 -3 7 -5.5t6 -5.5q4 -8 7 -12q3 -8 5 -18v-15q-2 -10 -5 -15q-1 -5 -3 -8.5t-4 -6.5l-10 -10q-4 -4 -7.5 -5.5t-6.5 -2.5q-7 -4 -15 -4 q-10 -1 -19 0q-8 0 -15 4q-2 1 -6 2.5t-7 3.5q-3 3 -5.5 6.5t-4.5 5.5q-7 5 -8 15q-2 3 -3.5 6.5t-1.5 8.5q-1 13 1 23q5 13 10 20q7 10 18 17q5 3 11 5.5t11 2.5zM1430 861q-8 0 -10 -3q-5 -2 -10 -5q-4 -2 -6 -7q-5 -5 -5 -10q-2 -1 -2.5 -4t-1.5 -6v-10q2 -8 4 -11 q0 -6 5 -9q1 -3 3 -5t3 -5q2 0 4.5 -1.5t5.5 -3.5q2 -1 4.5 -1h5.5q5 -4 11 0q11 0 16 5q5 1 13 11q6 8 6 15q3 7 1 15q0 7 -2 10q-3 4 -3.5 6t-1.5 4q-3 2 -4.5 3.5l-3.5 3.5q-5 3 -10 5q-3 3 -11 3q-4 3 -11 0zM1377 645l2 16l96 60l-91 5l1 20l117 -10v-11q0 -5 -1 -9 q-4 -2 -4 -5l-81 -50l81 -6l-1 -19z" />
<glyph unicode="3" d="M822 308q82 0 155 30t130 78h-570q58 -48 130 -78t155 -30zM586 463h564q45 55 70 124t25 147q0 80 -26.5 150t-81.5 139zM822 1251q-105 0 -198 -40t-163.5 -109t-112.5 -163.5t-42 -204.5q0 -103 39.5 -196t108 -163.5t163.5 -112.5t205 -42q35 0 70 5.5t68 15.5 q77 23 146 68t120 108.5t80.5 143.5t29.5 173q0 101 -38.5 194t-107 165t-163.5 115t-205 43zM822 260q-100 0 -186 38t-150 103t-99.5 151.5t-35.5 181.5q0 94 35 179.5t98 151t149.5 103.5t188.5 38q67 0 124 -16q71 -19 134.5 -60t111 -100t75 -134t27.5 -162 q0 -98 -37 -184.5t-101.5 -151t-150.5 -101.5t-183 -37zM492 1004q-45 -55 -70.5 -122.5t-25.5 -147.5q0 -83 28 -155.5t78 -130.5l555 556h-565zM822 1161q-83 0 -155.5 -29t-130.5 -81h566q-55 50 -126.5 80t-153.5 30zM972 191l-90 -16l4 -26l34 6l16 -89l26 5l-16 89 l31 6zM1072 156q-1 7 -8 9l-12 5h-15h-6h-9h-2v1q-3 3 -3 4l-2 1q2 0 2 4v1h3h5v4h1h5h3q3 0 3 1h9q0 3 0.5 4l0.5 1l5 10l-6 4q-9 4 -12 4q-2 0 -4.5 1t-4.5 1q-4 0 -6 -1t-4 -1l-13 -8q-2 -1 -4 -3.5t-3 -6.5q-8 -6 -8 -15v-4t3 -7q2 -9 10 -14q1 0 3.5 -1.5t3.5 -3.5 q4 0 7 -1t6 -1h12h10h2q2 0 3 -3q4 0 4 -1h3v-5q0 -2 -1 -3t-1 -2v-1q-1 0 -2 -2.5t-3 -2.5q-1 -3 -5 -3h-2.5h-2.5h-3.5h-2.5h-6h-8l-5 -1v-2t-1 -2l-5 -7q1 -4 3 -6t3 -4q4 -1 7 -2t7 -1q8 -3 11 -2q4 0 8 1t7 1l7 3.5t8 4.5l5.5 5.5t4.5 6.5q0 5 2.5 7.5t2.5 7.5 t-0.5 8.5t-4.5 6.5q0 8 -5 10zM1122 151q-1 4 -3 4t-3.5 0.5t-3.5 0.5q-1 -1 -6 -1l-7 -4q-2 -1 -2 -3v-2q-1 -2 -1 -5v-1q0 -4 1 -4v-1q0 -6 4 -6q1 -5 6 -5h7q5 0 7 2q1 2 3 2.5t2 2.5v2q0 2 1 2l4 3v2q0 6 -5 6zM846 99q-1 0 -1 4q0 1 -1.5 1t-1.5 1q0 4 -1 4l-41 60 q0 1 -3 2q-1 3 -8 3h-9h-14l3 -119l27 1v79l51 -79h25v118h-30zM599 189l48 -18l8 25l-73 25l-41 -105l26 -11l15 41l38 -15l10 25l-38 15zM747 160l-8 11q-3 3 -6.5 5t-7.5 4q-4 1 -7 2t-8 3q-5 1 -9 1h-7q-10 0 -14 -5q-4 0 -7.5 -1t-7.5 -4l-11 -10q-4 -8 -10 -11 q-2 -5 -3.5 -8.5t-1.5 -6.5v-19l3 -15l5 -12l12 -11q3 -4 7 -5.5t6 -3.5q7 -4 15 -4q5 -1 8.5 -1h6.5q5 0 14 2q4 2 8.5 3t6.5 4q6 2 11 10l9 11q4 7 6 17v15q0 3 -0.5 6.5t-2.5 8.5l-3 7.5t-4 6.5zM730 121q0 -3 -1.5 -6.5t-3.5 -5.5l-4.5 -6t-4.5 -4q-4 -1 -6.5 -2 t-5.5 -1q-7 -3 -12 0q-3 0 -6.5 1t-5.5 2l-8 10q-2 2 -2.5 5.5t-0.5 6.5q-3 5 0 14q0 6 5 11l6 9l12 5h12l12 -5l9 -9q2 -3 3.5 -5t1.5 -6q2 -9 0 -14zM1309 460q-2 -2 -3 -4t-1 -6q0 -2 1 -4t3 -5l40 -57l-69 10h-10l-9 -6l-9 -17l97 -65l16 23l-46 32l60 -12l11 20l-33 50 l47 -30l15 24l-98 63zM1296 333l-14 13l-15 3q-3 2 -15 2h-6.5t-8.5 -2l-12 -3q-4 -3 -8.5 -6.5t-6.5 -6.5q-3 -3 -4.5 -6t-3.5 -6q-3 -3 -4 -6.5t-3 -8.5q0 -3 -1.5 -6.5t-1.5 -8.5v-6t3 -9l4 -13l10 -12l13 -10q5 -1 7.5 -3.5t7.5 -2.5t8.5 -2t6.5 -2t6.5 2t8.5 2 q3 0 6.5 2.5t7.5 3.5q6 3 13 10l10 12q1 2 3 5t2 8q1 5 1 15v15l-6 13q-2 4 -5 9zM1282 280q-3 -9 -7 -10q-8 -7 -10 -9q-3 -1 -6.5 -1h-6.5t-6.5 0.5t-4.5 0.5l-11 9q-4 4 -8 11v10v12q4 8 8 12l11 8q3 0 6 0.5t5 0.5q5 0 13 -3q2 -1 4.5 -3t5.5 -5q2 -2 4 -4.5t3 -5.5 q3 -3 3 -12q0 -2 -1.5 -6.5zM1209 220l-7 -4q-2 0 -3.5 -2.5t-1.5 -4.5l-5 -9l-8 -6q-4 -3 -6 -4t-6 -1q-6 -3 -12 0q-3 2 -5.5 2t-5.5 3q-7 4 -7 11q-5 1 -5 11q-5 3 0 14v3.5t2 7.5q2 2 4 3.5t4 3.5q8 3 10 3q3 2 10 2q2 0 10 3q2 4 5 5l2 7v8q-3 5 -12 5h-13l-14 -5 l-11 -5q-2 -2 -5.5 -4.5t-6.5 -6.5q-2 -2 -4 -5.5t-4 -8.5l-7 -15v-15q0 -5 2 -7.5t2 -7.5l6 -15q3 -3 6 -5t4 -5l15 -10l12 -2q5 -3 16 -3q4 0 7 1.5t7 2.5q5 1 8.5 3.5t6.5 5.5l5 2.5t5 4.5q3 0 5 3.5t5 6.5l3 14q5 4 5 13l-12 2h-6zM519 260l-102 -74l15 -10h2.5h2.5 q3 0 3.5 -0.5t1.5 0.5h5h5l10 10l40 -22l-2 -15v-5q0 -3 1 -3q0 -1 1 -1v-4q0 -1 2 -1l3 -4l17 -10l17 125zM507 218v-2v-3l-1 -22l-19 10l17 15h2h1v2v1h2q1 1 2 1zM477 255l18 20l-69 59l-20 -21l26 -22l-57 -66l20 -19l60 70zM257 411l83 -10h6q1 0 2 1t3 1l11 8l-45 77 l-23 -14l26 -44l-83 9q-1 0 -4.5 -0.5t-7.5 -3.5l-10 -5l45 -79l22 15zM357 303l22 18l-27 30l14 12l31 -39l20 17l-48 60l-90 -75l51 -58l19 18l-32 37l17 11zM191 741l50 4q1 -2 3.5 -4t4.5 -5q2 -1 3.5 -4t1.5 -6q1 -6 3 -11q0 -4 1 -6.5t1 -4.5q0 -8 -1 -14t-3 -11 q-1 -8 -4.5 -13t-6.5 -10q-7 -8 -19 -12q-11 -8 -23 -8h-17q-4 3 -7.5 4t-7.5 4q-4 1 -6.5 3t-6.5 4q-2 3 -5 6t-5 7q-2 2 -3.5 5.5t-3.5 6.5q-1 5 -2 9.5t-1 9.5v6.5v4.5q3 9 3 14q2 3 3.5 5.5t3.5 5.5q2 2 3.5 5t3.5 5l3 -5q3 0 4 -1l1 -1q2 -3 2 -8v-3t-2 -3 q-5 -5 -5 -11v-13t3 -17q2 -4 4.5 -7t5.5 -6q5 -5 14 -7q7 -4 17 -3q6 0 11 3q3 1 5 1.5t4 3.5q1 2 3.5 3t5.5 4q1 2 2.5 3.5t3.5 4.5q0 4 0.5 6.5t2.5 5.5q1 4 1 10q-1 4 -2 7t-2 8q0 3 -5 10l-19 -1v-5v-5q0 -2 -2 -5q-1 -1 -2 -2.5t-2 -1.5q-2 -1 -6 -1h-6zM264 831 l-9 -75l-118 12l8 75l19 -2l-7 -55l30 -5l5 47l20 -2l-5 -45l32 -3l5 57zM164 851l-17 5l22 90l18 -5l-10 -37l98 -23l-4 -18l-97 23zM205 988l-18 8l42 83l16 -8l-15 -32l89 -45l-8 -18l-90 45zM392 1106l-11 -16l-40 30l-35 -47l41 -30l-11 -15l-97 70l11 15l40 -29l35 47 l-40 30l11 15zM456 1166l-54 -51l-83 86l53 53l14 -15l-39 -39l20 -21l33 31l12 -14l-31 -30l21 -23l40 38zM514 1290l10 -17l-39 -24l24 -43l-14 -10l-63 100l63 40l9 -15l-47 -30l18 -26zM562 1290q0 -7 5 -10q2 -4 10 -7q2 -2 5 -2h5q5 0 10 2q8 3 10 7q5 5 7 10 q1 1 1 10q0 6 -1 11l-27 67l17 8l28 -68q2 -5 2.5 -9t0.5 -9q0 -10 -3 -19q-2 -5 -4.5 -8t-7.5 -7q-3 -5 -6 -6.5t-8 -3.5t-9.5 -3.5t-9.5 -1.5q-8 0 -18 5q-5 2 -8.5 3.5t-6.5 6.5q-7 7 -10 15l-30 67l18 8zM662 1276l-30 117l20 5l23 -97l49 10l3 -20zM731 1291l-12 120 l20 2l10 -98l51 5v-20zM864 1296l-19 4l12 118l44 -5q6 0 14 -4q9 -5 11 -10q4 -3 6 -13q4 -7 3 -15q-3 -3 -3 -6.5t-2 -8.5q-6 -8 -9 -11q-4 -4 -14 -7q-3 -2 -13 -2l-25 4zM895 1356h7q3 0 7 5q3 0 3 5q2 2 4 8q0 5 -1 7t-2 3.5l-1 1.5q-2 3 -3.5 4t-2.5 1q-2 2 -3.5 2 t-2.5 1l-25 2l-5 -38zM951 1285l-19 5l30 113l44 -12q6 0 11 -5l10 -10q4 -5 4 -13q1 -5 0.5 -8.5t-0.5 -6.5q-2 -5 -5 -10q-4 -5 -6 -7q-8 -5 -10 -5q-3 -2 -5.5 -2.5t-3.5 -2.5l21 -56l-15 1q-1 2 -3 3.5t-3 1.5q-4 2 -5 9l-19 46l-15 4zM977 1379l-10 -31l25 -7h3h2 q3 0 4 1t4 1q2 0 2 1.5v1.5q5 5 5 7v7v3t-1 3q-1 2 -2.5 2.5t-1.5 2.5q-3 3 -6 3zM1037 1321q0 5 2.5 8.5t6.5 6.5q1 3 4.5 5.5t6.5 4.5q3 3 6.5 4t8.5 3q4 3 14 3h15q9 -1 16 -6q8 -4 15 -9q3 -3 5.5 -6.5t4.5 -4.5l3.5 -7l3.5 -7q1 -5 2 -8t1 -7v-8t-2 -8q-1 -4 -2 -7.5 t-3 -7.5q-3 -4 -4 -7t-4 -7q-3 -3 -6.5 -5t-4.5 -6q-4 -2 -7 -4t-7 -5q-6 0 -16 -1q-12 0 -17 1q-5 0 -15 5q-12 5 -18 15q-9 9 -14 20q-1 7 -1 12v12q0 11 6 21zM1054 1315q-2 -4 -2.5 -6.5t-2.5 -5.5v-10q0 -2 1 -5t2 -5q0 -7 4 -10q1 -2 3 -4.5t3 -2.5q4 -5 10 -6 q7 -4 10 -4h12h12q4 5 8 5q3 2 5 3.5t3 3.5q3 3 4 5.5t3 4.5q2 3 2.5 7.5t0.5 9.5v7.5v7.5q-2 4 -4.5 7.5t-5.5 5.5q-6 7 -13 10q-2 2 -5 2.5t-7 0.5h-10q-6 0 -10 -1q-3 -2 -5 -3t-5 -1q-1 -2 -3 -4t-3 -4zM1222 1290l10 -9q0 -1 1.5 -3t3.5 -3q0 -5 -2 -9l-28 -85l83 38 q1 1 7 1q5 0 7 -4l10 -7l-117 -54l-15 11zM1279 1064l-47 56l90 76l49 -56l-14 -14l-37 44l-23 -19l29 -36l-16 -11l-28 35l-23 -21l35 -42zM1294 1039l-9 16l101 61l23 -37q2 -3 2.5 -6t2.5 -8q2 -7 -2 -12q-2 -9 -5 -13l-4.5 -4.5t-6.5 -5.5q-4 -1 -5.5 -1.5t-4.5 -2.5 q-4 0 -5.5 -0.5t-4.5 0.5q-4 0 -10 3q-4 1 -5.5 1.5t-3.5 3.5l-23 -59l-9 13q-4 2 -4 7q0 6 3 9l20 47l-8 13zM1381 1089l-29 -16l13 -19q2 -5 4 -6q1 0 6 -3h6q1 0 5 3q1 0 6 3q0 3 1 4t1 3q1 1 1 6q-1 1 -1 2.5t-2 3.5zM1436 969q1 1 1 7q0 4 -1 5q-2 3 -2 7q-3 0 -5 3 q-2 2 -5 2q-3 1 -5 0l-2.5 -2.5l-1.5 -1.5l-2 -2l-2 -2v-7v-10v-3v-2v-10q0 -2 -0.5 -4.5t-0.5 -4.5q-4 -14 -19 -21q-4 -2 -7.5 -3t-8.5 1q-6 0 -14 2q-4 3 -7 5t-5 6q-3 2 -5 5.5t-4 6.5q-3 10 -3 15q0 4 3 14q0 3 2 5l3 4q0 4 2 4q4 2 3 2l4 -2q3 -5 5 -7q0 -1 0.5 -2 t0.5 -3q0 -3 -3 -6v-1v-8q0 -5 2 -8q0 -2 1 -3t2 -4q2 0 3.5 -1.5l3.5 -3.5h2t4 -2h4.5t4.5 2q2 0 5 3q2 4 2 5q1 2 1 7v8v4v12q0 8 2 13q1 2 2 4.5t4 5.5q2 2 4.5 3.5t6.5 3.5q8 3 14 1q6 0 12 -3q3 -2 6.5 -3.5t5.5 -5.5q3 -3 6 -11q2 -7 2 -10q0 -7 -1 -10q0 -4 -4 -10 v-4.5t-2 -3.5l-6 4q-3 1 -4 2.5t-3 3.5q-1 3 -1 6v3zM1364 881l-5 18l113 34l5 -19zM1427 881h19q6 0 14 -5q4 0 7.5 -2.5t4.5 -4.5q4 -3 7 -5.5t6 -5.5q4 -8 7 -12q3 -8 5 -18v-15q-2 -10 -5 -15q-1 -5 -3 -8.5t-4 -6.5l-10 -10q-4 -4 -7.5 -5.5t-6.5 -2.5q-7 -4 -15 -4 q-10 -1 -19 0q-8 0 -15 4q-2 1 -6 2.5t-7 3.5q-3 3 -5.5 6.5t-4.5 5.5q-7 5 -8 15q-2 3 -3.5 6.5t-1.5 8.5q-1 13 1 23q5 13 10 20q7 10 18 17q5 3 11 5.5t11 2.5zM1430 861q-8 0 -10 -3q-5 -2 -10 -5q-4 -2 -6 -7q-5 -5 -5 -10q-2 -1 -2.5 -4t-1.5 -6v-10q2 -8 4 -11 q0 -6 5 -9q1 -3 3 -5t3 -5q2 0 4.5 -1.5t5.5 -3.5q2 -1 4.5 -1h5.5q5 -4 11 0q11 0 16 5q5 1 13 11q6 8 6 15q3 7 1 15q0 7 -2 10q-3 4 -3.5 6t-1.5 4q-3 2 -4.5 3.5l-3.5 3.5q-5 3 -10 5q-3 3 -11 3q-4 3 -11 0zM1377 645l2 16l96 60l-91 5l1 20l117 -10v-11q0 -5 -1 -9 q-4 -2 -4 -5l-81 -50l81 -6l-1 -19z" />
<glyph unicode="4" d="M822 308q82 0 155 30t130 78h-570q58 -48 130 -78t155 -30zM586 463h564q45 55 70 124t25 147q0 80 -26.5 150t-81.5 139zM822 1251q-105 0 -198 -40t-163.5 -109t-112.5 -163.5t-42 -204.5q0 -103 39.5 -196t108 -163.5t163.5 -112.5t205 -42q35 0 70 5.5t68 15.5 q77 23 146 68t120 108.5t80.5 143.5t29.5 173q0 101 -38.5 194t-107 165t-163.5 115t-205 43zM822 260q-100 0 -186 38t-150 103t-99.5 151.5t-35.5 181.5q0 94 35 179.5t98 151t149.5 103.5t188.5 38q67 0 124 -16q71 -19 134.5 -60t111 -100t75 -134t27.5 -162 q0 -98 -37 -184.5t-101.5 -151t-150.5 -101.5t-183 -37zM492 1004q-45 -55 -70.5 -122.5t-25.5 -147.5q0 -83 28 -155.5t78 -130.5l555 556h-565zM822 1161q-83 0 -155.5 -29t-130.5 -81h566q-55 50 -126.5 80t-153.5 30zM972 191l-90 -16l4 -26l34 6l16 -89l26 5l-16 89 l31 6zM1072 156q-1 7 -8 9l-12 5h-15h-6h-9h-2v1q-3 3 -3 4l-2 1q2 0 2 4v1h3h5v4h1h5h3q3 0 3 1h9q0 3 0.5 4l0.5 1l5 10l-6 4q-9 4 -12 4q-2 0 -4.5 1t-4.5 1q-4 0 -6 -1t-4 -1l-13 -8q-2 -1 -4 -3.5t-3 -6.5q-8 -6 -8 -15v-4t3 -7q2 -9 10 -14q1 0 3.5 -1.5t3.5 -3.5 q4 0 7 -1t6 -1h12h10h2q2 0 3 -3q4 0 4 -1h3v-5q0 -2 -1 -3t-1 -2v-1q-1 0 -2 -2.5t-3 -2.5q-1 -3 -5 -3h-2.5h-2.5h-3.5h-2.5h-6h-8l-5 -1v-2t-1 -2l-5 -7q1 -4 3 -6t3 -4q4 -1 7 -2t7 -1q8 -3 11 -2q4 0 8 1t7 1l7 3.5t8 4.5l5.5 5.5t4.5 6.5q0 5 2.5 7.5t2.5 7.5 t-0.5 8.5t-4.5 6.5q0 8 -5 10zM1122 151q-1 4 -3 4t-3.5 0.5t-3.5 0.5q-1 -1 -6 -1l-7 -4q-2 -1 -2 -3v-2q-1 -2 -1 -5v-1q0 -4 1 -4v-1q0 -6 4 -6q1 -5 6 -5h7q5 0 7 2q1 2 3 2.5t2 2.5v2q0 2 1 2l4 3v2q0 6 -5 6zM846 99q-1 0 -1 4q0 1 -1.5 1t-1.5 1q0 4 -1 4l-41 60 q0 1 -3 2q-1 3 -8 3h-9h-14l3 -119l27 1v79l51 -79h25v118h-30zM599 189l48 -18l8 25l-73 25l-41 -105l26 -11l15 41l38 -15l10 25l-38 15zM747 160l-8 11q-3 3 -6.5 5t-7.5 4q-4 1 -7 2t-8 3q-5 1 -9 1h-7q-10 0 -14 -5q-4 0 -7.5 -1t-7.5 -4l-11 -10q-4 -8 -10 -11 q-2 -5 -3.5 -8.5t-1.5 -6.5v-19l3 -15l5 -12l12 -11q3 -4 7 -5.5t6 -3.5q7 -4 15 -4q5 -1 8.5 -1h6.5q5 0 14 2q4 2 8.5 3t6.5 4q6 2 11 10l9 11q4 7 6 17v15q0 3 -0.5 6.5t-2.5 8.5l-3 7.5t-4 6.5zM730 121q0 -3 -1.5 -6.5t-3.5 -5.5l-4.5 -6t-4.5 -4q-4 -1 -6.5 -2 t-5.5 -1q-7 -3 -12 0q-3 0 -6.5 1t-5.5 2l-8 10q-2 2 -2.5 5.5t-0.5 6.5q-3 5 0 14q0 6 5 11l6 9l12 5h12l12 -5l9 -9q2 -3 3.5 -5t1.5 -6q2 -9 0 -14zM1309 460q-2 -2 -3 -4t-1 -6q0 -2 1 -4t3 -5l40 -57l-69 10h-10l-9 -6l-9 -17l97 -65l16 23l-46 32l60 -12l11 20l-33 50 l47 -30l15 24l-98 63zM1296 333l-14 13l-15 3q-3 2 -15 2h-6.5t-8.5 -2l-12 -3q-4 -3 -8.5 -6.5t-6.5 -6.5q-3 -3 -4.5 -6t-3.5 -6q-3 -3 -4 -6.5t-3 -8.5q0 -3 -1.5 -6.5t-1.5 -8.5v-6t3 -9l4 -13l10 -12l13 -10q5 -1 7.5 -3.5t7.5 -2.5t8.5 -2t6.5 -2t6.5 2t8.5 2 q3 0 6.5 2.5t7.5 3.5q6 3 13 10l10 12q1 2 3 5t2 8q1 5 1 15v15l-6 13q-2 4 -5 9zM1282 280q-3 -9 -7 -10q-8 -7 -10 -9q-3 -1 -6.5 -1h-6.5t-6.5 0.5t-4.5 0.5l-11 9q-4 4 -8 11v10v12q4 8 8 12l11 8q3 0 6 0.5t5 0.5q5 0 13 -3q2 -1 4.5 -3t5.5 -5q2 -2 4 -4.5t3 -5.5 q3 -3 3 -12q0 -2 -1.5 -6.5zM1209 220l-7 -4q-2 0 -3.5 -2.5t-1.5 -4.5l-5 -9l-8 -6q-4 -3 -6 -4t-6 -1q-6 -3 -12 0q-3 2 -5.5 2t-5.5 3q-7 4 -7 11q-5 1 -5 11q-5 3 0 14v3.5t2 7.5q2 2 4 3.5t4 3.5q8 3 10 3q3 2 10 2q2 0 10 3q2 4 5 5l2 7v8q-3 5 -12 5h-13l-14 -5 l-11 -5q-2 -2 -5.5 -4.5t-6.5 -6.5q-2 -2 -4 -5.5t-4 -8.5l-7 -15v-15q0 -5 2 -7.5t2 -7.5l6 -15q3 -3 6 -5t4 -5l15 -10l12 -2q5 -3 16 -3q4 0 7 1.5t7 2.5q5 1 8.5 3.5t6.5 5.5l5 2.5t5 4.5q3 0 5 3.5t5 6.5l3 14q5 4 5 13l-12 2h-6zM519 260l-102 -74l15 -10h2.5h2.5 q3 0 3.5 -0.5t1.5 0.5h5h5l10 10l40 -22l-2 -15v-5q0 -3 1 -3q0 -1 1 -1v-4q0 -1 2 -1l3 -4l17 -10l17 125zM507 218v-2v-3l-1 -22l-19 10l17 15h2h1v2v1h2q1 1 2 1zM477 255l18 20l-69 59l-20 -21l26 -22l-57 -66l20 -19l60 70zM257 411l83 -10h6q1 0 2 1t3 1l11 8l-45 77 l-23 -14l26 -44l-83 9q-1 0 -4.5 -0.5t-7.5 -3.5l-10 -5l45 -79l22 15zM357 303l22 18l-27 30l14 12l31 -39l20 17l-48 60l-90 -75l51 -58l19 18l-32 37l17 11zM191 741l50 4q1 -2 3.5 -4t4.5 -5q2 -1 3.5 -4t1.5 -6q1 -6 3 -11q0 -4 1 -6.5t1 -4.5q0 -8 -1 -14t-3 -11 q-1 -8 -4.5 -13t-6.5 -10q-7 -8 -19 -12q-11 -8 -23 -8h-17q-4 3 -7.5 4t-7.5 4q-4 1 -6.5 3t-6.5 4q-2 3 -5 6t-5 7q-2 2 -3.5 5.5t-3.5 6.5q-1 5 -2 9.5t-1 9.5v6.5v4.5q3 9 3 14q2 3 3.5 5.5t3.5 5.5q2 2 3.5 5t3.5 5l3 -5q3 0 4 -1l1 -1q2 -3 2 -8v-3t-2 -3 q-5 -5 -5 -11v-13t3 -17q2 -4 4.5 -7t5.5 -6q5 -5 14 -7q7 -4 17 -3q6 0 11 3q3 1 5 1.5t4 3.5q1 2 3.5 3t5.5 4q1 2 2.5 3.5t3.5 4.5q0 4 0.5 6.5t2.5 5.5q1 4 1 10q-1 4 -2 7t-2 8q0 3 -5 10l-19 -1v-5v-5q0 -2 -2 -5q-1 -1 -2 -2.5t-2 -1.5q-2 -1 -6 -1h-6zM264 831 l-9 -75l-118 12l8 75l19 -2l-7 -55l30 -5l5 47l20 -2l-5 -45l32 -3l5 57zM164 851l-17 5l22 90l18 -5l-10 -37l98 -23l-4 -18l-97 23zM205 988l-18 8l42 83l16 -8l-15 -32l89 -45l-8 -18l-90 45zM392 1106l-11 -16l-40 30l-35 -47l41 -30l-11 -15l-97 70l11 15l40 -29l35 47 l-40 30l11 15zM456 1166l-54 -51l-83 86l53 53l14 -15l-39 -39l20 -21l33 31l12 -14l-31 -30l21 -23l40 38zM514 1290l10 -17l-39 -24l24 -43l-14 -10l-63 100l63 40l9 -15l-47 -30l18 -26zM562 1290q0 -7 5 -10q2 -4 10 -7q2 -2 5 -2h5q5 0 10 2q8 3 10 7q5 5 7 10 q1 1 1 10q0 6 -1 11l-27 67l17 8l28 -68q2 -5 2.5 -9t0.5 -9q0 -10 -3 -19q-2 -5 -4.5 -8t-7.5 -7q-3 -5 -6 -6.5t-8 -3.5t-9.5 -3.5t-9.5 -1.5q-8 0 -18 5q-5 2 -8.5 3.5t-6.5 6.5q-7 7 -10 15l-30 67l18 8zM662 1276l-30 117l20 5l23 -97l49 10l3 -20zM731 1291l-12 120 l20 2l10 -98l51 5v-20zM864 1296l-19 4l12 118l44 -5q6 0 14 -4q9 -5 11 -10q4 -3 6 -13q4 -7 3 -15q-3 -3 -3 -6.5t-2 -8.5q-6 -8 -9 -11q-4 -4 -14 -7q-3 -2 -13 -2l-25 4zM895 1356h7q3 0 7 5q3 0 3 5q2 2 4 8q0 5 -1 7t-2 3.5l-1 1.5q-2 3 -3.5 4t-2.5 1q-2 2 -3.5 2 t-2.5 1l-25 2l-5 -38zM951 1285l-19 5l30 113l44 -12q6 0 11 -5l10 -10q4 -5 4 -13q1 -5 0.5 -8.5t-0.5 -6.5q-2 -5 -5 -10q-4 -5 -6 -7q-8 -5 -10 -5q-3 -2 -5.5 -2.5t-3.5 -2.5l21 -56l-15 1q-1 2 -3 3.5t-3 1.5q-4 2 -5 9l-19 46l-15 4zM977 1379l-10 -31l25 -7h3h2 q3 0 4 1t4 1q2 0 2 1.5v1.5q5 5 5 7v7v3t-1 3q-1 2 -2.5 2.5t-1.5 2.5q-3 3 -6 3zM1037 1321q0 5 2.5 8.5t6.5 6.5q1 3 4.5 5.5t6.5 4.5q3 3 6.5 4t8.5 3q4 3 14 3h15q9 -1 16 -6q8 -4 15 -9q3 -3 5.5 -6.5t4.5 -4.5l3.5 -7l3.5 -7q1 -5 2 -8t1 -7v-8t-2 -8q-1 -4 -2 -7.5 t-3 -7.5q-3 -4 -4 -7t-4 -7q-3 -3 -6.5 -5t-4.5 -6q-4 -2 -7 -4t-7 -5q-6 0 -16 -1q-12 0 -17 1q-5 0 -15 5q-12 5 -18 15q-9 9 -14 20q-1 7 -1 12v12q0 11 6 21zM1054 1315q-2 -4 -2.5 -6.5t-2.5 -5.5v-10q0 -2 1 -5t2 -5q0 -7 4 -10q1 -2 3 -4.5t3 -2.5q4 -5 10 -6 q7 -4 10 -4h12h12q4 5 8 5q3 2 5 3.5t3 3.5q3 3 4 5.5t3 4.5q2 3 2.5 7.5t0.5 9.5v7.5v7.5q-2 4 -4.5 7.5t-5.5 5.5q-6 7 -13 10q-2 2 -5 2.5t-7 0.5h-10q-6 0 -10 -1q-3 -2 -5 -3t-5 -1q-1 -2 -3 -4t-3 -4zM1222 1290l10 -9q0 -1 1.5 -3t3.5 -3q0 -5 -2 -9l-28 -85l83 38 q1 1 7 1q5 0 7 -4l10 -7l-117 -54l-15 11zM1279 1064l-47 56l90 76l49 -56l-14 -14l-37 44l-23 -19l29 -36l-16 -11l-28 35l-23 -21l35 -42zM1294 1039l-9 16l101 61l23 -37q2 -3 2.5 -6t2.5 -8q2 -7 -2 -12q-2 -9 -5 -13l-4.5 -4.5t-6.5 -5.5q-4 -1 -5.5 -1.5t-4.5 -2.5 q-4 0 -5.5 -0.5t-4.5 0.5q-4 0 -10 3q-4 1 -5.5 1.5t-3.5 3.5l-23 -59l-9 13q-4 2 -4 7q0 6 3 9l20 47l-8 13zM1381 1089l-29 -16l13 -19q2 -5 4 -6q1 0 6 -3h6q1 0 5 3q1 0 6 3q0 3 1 4t1 3q1 1 1 6q-1 1 -1 2.5t-2 3.5zM1436 969q1 1 1 7q0 4 -1 5q-2 3 -2 7q-3 0 -5 3 q-2 2 -5 2q-3 1 -5 0l-2.5 -2.5l-1.5 -1.5l-2 -2l-2 -2v-7v-10v-3v-2v-10q0 -2 -0.5 -4.5t-0.5 -4.5q-4 -14 -19 -21q-4 -2 -7.5 -3t-8.5 1q-6 0 -14 2q-4 3 -7 5t-5 6q-3 2 -5 5.5t-4 6.5q-3 10 -3 15q0 4 3 14q0 3 2 5l3 4q0 4 2 4q4 2 3 2l4 -2q3 -5 5 -7q0 -1 0.5 -2 t0.5 -3q0 -3 -3 -6v-1v-8q0 -5 2 -8q0 -2 1 -3t2 -4q2 0 3.5 -1.5l3.5 -3.5h2t4 -2h4.5t4.5 2q2 0 5 3q2 4 2 5q1 2 1 7v8v4v12q0 8 2 13q1 2 2 4.5t4 5.5q2 2 4.5 3.5t6.5 3.5q8 3 14 1q6 0 12 -3q3 -2 6.5 -3.5t5.5 -5.5q3 -3 6 -11q2 -7 2 -10q0 -7 -1 -10q0 -4 -4 -10 v-4.5t-2 -3.5l-6 4q-3 1 -4 2.5t-3 3.5q-1 3 -1 6v3zM1364 881l-5 18l113 34l5 -19zM1427 881h19q6 0 14 -5q4 0 7.5 -2.5t4.5 -4.5q4 -3 7 -5.5t6 -5.5q4 -8 7 -12q3 -8 5 -18v-15q-2 -10 -5 -15q-1 -5 -3 -8.5t-4 -6.5l-10 -10q-4 -4 -7.5 -5.5t-6.5 -2.5q-7 -4 -15 -4 q-10 -1 -19 0q-8 0 -15 4q-2 1 -6 2.5t-7 3.5q-3 3 -5.5 6.5t-4.5 5.5q-7 5 -8 15q-2 3 -3.5 6.5t-1.5 8.5q-1 13 1 23q5 13 10 20q7 10 18 17q5 3 11 5.5t11 2.5zM1430 861q-8 0 -10 -3q-5 -2 -10 -5q-4 -2 -6 -7q-5 -5 -5 -10q-2 -1 -2.5 -4t-1.5 -6v-10q2 -8 4 -11 q0 -6 5 -9q1 -3 3 -5t3 -5q2 0 4.5 -1.5t5.5 -3.5q2 -1 4.5 -1h5.5q5 -4 11 0q11 0 16 5q5 1 13 11q6 8 6 15q3 7 1 15q0 7 -2 10q-3 4 -3.5 6t-1.5 4q-3 2 -4.5 3.5l-3.5 3.5q-5 3 -10 5q-3 3 -11 3q-4 3 -11 0zM1377 645l2 16l96 60l-91 5l1 20l117 -10v-11q0 -5 -1 -9 q-4 -2 -4 -5l-81 -50l81 -6l-1 -19z" />
<glyph unicode="5" d="M822 308q82 0 155 30t130 78h-570q58 -48 130 -78t155 -30zM586 463h564q45 55 70 124t25 147q0 80 -26.5 150t-81.5 139zM822 1251q-105 0 -198 -40t-163.5 -109t-112.5 -163.5t-42 -204.5q0 -103 39.5 -196t108 -163.5t163.5 -112.5t205 -42q35 0 70 5.5t68 15.5 q77 23 146 68t120 108.5t80.5 143.5t29.5 173q0 101 -38.5 194t-107 165t-163.5 115t-205 43zM822 260q-100 0 -186 38t-150 103t-99.5 151.5t-35.5 181.5q0 94 35 179.5t98 151t149.5 103.5t188.5 38q67 0 124 -16q71 -19 134.5 -60t111 -100t75 -134t27.5 -162 q0 -98 -37 -184.5t-101.5 -151t-150.5 -101.5t-183 -37zM492 1004q-45 -55 -70.5 -122.5t-25.5 -147.5q0 -83 28 -155.5t78 -130.5l555 556h-565zM822 1161q-83 0 -155.5 -29t-130.5 -81h566q-55 50 -126.5 80t-153.5 30zM972 191l-90 -16l4 -26l34 6l16 -89l26 5l-16 89 l31 6zM1072 156q-1 7 -8 9l-12 5h-15h-6h-9h-2v1q-3 3 -3 4l-2 1q2 0 2 4v1h3h5v4h1h5h3q3 0 3 1h9q0 3 0.5 4l0.5 1l5 10l-6 4q-9 4 -12 4q-2 0 -4.5 1t-4.5 1q-4 0 -6 -1t-4 -1l-13 -8q-2 -1 -4 -3.5t-3 -6.5q-8 -6 -8 -15v-4t3 -7q2 -9 10 -14q1 0 3.5 -1.5t3.5 -3.5 q4 0 7 -1t6 -1h12h10h2q2 0 3 -3q4 0 4 -1h3v-5q0 -2 -1 -3t-1 -2v-1q-1 0 -2 -2.5t-3 -2.5q-1 -3 -5 -3h-2.5h-2.5h-3.5h-2.5h-6h-8l-5 -1v-2t-1 -2l-5 -7q1 -4 3 -6t3 -4q4 -1 7 -2t7 -1q8 -3 11 -2q4 0 8 1t7 1l7 3.5t8 4.5l5.5 5.5t4.5 6.5q0 5 2.5 7.5t2.5 7.5 t-0.5 8.5t-4.5 6.5q0 8 -5 10zM1122 151q-1 4 -3 4t-3.5 0.5t-3.5 0.5q-1 -1 -6 -1l-7 -4q-2 -1 -2 -3v-2q-1 -2 -1 -5v-1q0 -4 1 -4v-1q0 -6 4 -6q1 -5 6 -5h7q5 0 7 2q1 2 3 2.5t2 2.5v2q0 2 1 2l4 3v2q0 6 -5 6zM846 99q-1 0 -1 4q0 1 -1.5 1t-1.5 1q0 4 -1 4l-41 60 q0 1 -3 2q-1 3 -8 3h-9h-14l3 -119l27 1v79l51 -79h25v118h-30zM599 189l48 -18l8 25l-73 25l-41 -105l26 -11l15 41l38 -15l10 25l-38 15zM747 160l-8 11q-3 3 -6.5 5t-7.5 4q-4 1 -7 2t-8 3q-5 1 -9 1h-7q-10 0 -14 -5q-4 0 -7.5 -1t-7.5 -4l-11 -10q-4 -8 -10 -11 q-2 -5 -3.5 -8.5t-1.5 -6.5v-19l3 -15l5 -12l12 -11q3 -4 7 -5.5t6 -3.5q7 -4 15 -4q5 -1 8.5 -1h6.5q5 0 14 2q4 2 8.5 3t6.5 4q6 2 11 10l9 11q4 7 6 17v15q0 3 -0.5 6.5t-2.5 8.5l-3 7.5t-4 6.5zM730 121q0 -3 -1.5 -6.5t-3.5 -5.5l-4.5 -6t-4.5 -4q-4 -1 -6.5 -2 t-5.5 -1q-7 -3 -12 0q-3 0 -6.5 1t-5.5 2l-8 10q-2 2 -2.5 5.5t-0.5 6.5q-3 5 0 14q0 6 5 11l6 9l12 5h12l12 -5l9 -9q2 -3 3.5 -5t1.5 -6q2 -9 0 -14zM1309 460q-2 -2 -3 -4t-1 -6q0 -2 1 -4t3 -5l40 -57l-69 10h-10l-9 -6l-9 -17l97 -65l16 23l-46 32l60 -12l11 20l-33 50 l47 -30l15 24l-98 63zM1296 333l-14 13l-15 3q-3 2 -15 2h-6.5t-8.5 -2l-12 -3q-4 -3 -8.5 -6.5t-6.5 -6.5q-3 -3 -4.5 -6t-3.5 -6q-3 -3 -4 -6.5t-3 -8.5q0 -3 -1.5 -6.5t-1.5 -8.5v-6t3 -9l4 -13l10 -12l13 -10q5 -1 7.5 -3.5t7.5 -2.5t8.5 -2t6.5 -2t6.5 2t8.5 2 q3 0 6.5 2.5t7.5 3.5q6 3 13 10l10 12q1 2 3 5t2 8q1 5 1 15v15l-6 13q-2 4 -5 9zM1282 280q-3 -9 -7 -10q-8 -7 -10 -9q-3 -1 -6.5 -1h-6.5t-6.5 0.5t-4.5 0.5l-11 9q-4 4 -8 11v10v12q4 8 8 12l11 8q3 0 6 0.5t5 0.5q5 0 13 -3q2 -1 4.5 -3t5.5 -5q2 -2 4 -4.5t3 -5.5 q3 -3 3 -12q0 -2 -1.5 -6.5zM1209 220l-7 -4q-2 0 -3.5 -2.5t-1.5 -4.5l-5 -9l-8 -6q-4 -3 -6 -4t-6 -1q-6 -3 -12 0q-3 2 -5.5 2t-5.5 3q-7 4 -7 11q-5 1 -5 11q-5 3 0 14v3.5t2 7.5q2 2 4 3.5t4 3.5q8 3 10 3q3 2 10 2q2 0 10 3q2 4 5 5l2 7v8q-3 5 -12 5h-13l-14 -5 l-11 -5q-2 -2 -5.5 -4.5t-6.5 -6.5q-2 -2 -4 -5.5t-4 -8.5l-7 -15v-15q0 -5 2 -7.5t2 -7.5l6 -15q3 -3 6 -5t4 -5l15 -10l12 -2q5 -3 16 -3q4 0 7 1.5t7 2.5q5 1 8.5 3.5t6.5 5.5l5 2.5t5 4.5q3 0 5 3.5t5 6.5l3 14q5 4 5 13l-12 2h-6zM519 260l-102 -74l15 -10h2.5h2.5 q3 0 3.5 -0.5t1.5 0.5h5h5l10 10l40 -22l-2 -15v-5q0 -3 1 -3q0 -1 1 -1v-4q0 -1 2 -1l3 -4l17 -10l17 125zM507 218v-2v-3l-1 -22l-19 10l17 15h2h1v2v1h2q1 1 2 1zM477 255l18 20l-69 59l-20 -21l26 -22l-57 -66l20 -19l60 70zM257 411l83 -10h6q1 0 2 1t3 1l11 8l-45 77 l-23 -14l26 -44l-83 9q-1 0 -4.5 -0.5t-7.5 -3.5l-10 -5l45 -79l22 15zM357 303l22 18l-27 30l14 12l31 -39l20 17l-48 60l-90 -75l51 -58l19 18l-32 37l17 11zM191 741l50 4q1 -2 3.5 -4t4.5 -5q2 -1 3.5 -4t1.5 -6q1 -6 3 -11q0 -4 1 -6.5t1 -4.5q0 -8 -1 -14t-3 -11 q-1 -8 -4.5 -13t-6.5 -10q-7 -8 -19 -12q-11 -8 -23 -8h-17q-4 3 -7.5 4t-7.5 4q-4 1 -6.5 3t-6.5 4q-2 3 -5 6t-5 7q-2 2 -3.5 5.5t-3.5 6.5q-1 5 -2 9.5t-1 9.5v6.5v4.5q3 9 3 14q2 3 3.5 5.5t3.5 5.5q2 2 3.5 5t3.5 5l3 -5q3 0 4 -1l1 -1q2 -3 2 -8v-3t-2 -3 q-5 -5 -5 -11v-13t3 -17q2 -4 4.5 -7t5.5 -6q5 -5 14 -7q7 -4 17 -3q6 0 11 3q3 1 5 1.5t4 3.5q1 2 3.5 3t5.5 4q1 2 2.5 3.5t3.5 4.5q0 4 0.5 6.5t2.5 5.5q1 4 1 10q-1 4 -2 7t-2 8q0 3 -5 10l-19 -1v-5v-5q0 -2 -2 -5q-1 -1 -2 -2.5t-2 -1.5q-2 -1 -6 -1h-6zM264 831 l-9 -75l-118 12l8 75l19 -2l-7 -55l30 -5l5 47l20 -2l-5 -45l32 -3l5 57zM164 851l-17 5l22 90l18 -5l-10 -37l98 -23l-4 -18l-97 23zM205 988l-18 8l42 83l16 -8l-15 -32l89 -45l-8 -18l-90 45zM392 1106l-11 -16l-40 30l-35 -47l41 -30l-11 -15l-97 70l11 15l40 -29l35 47 l-40 30l11 15zM456 1166l-54 -51l-83 86l53 53l14 -15l-39 -39l20 -21l33 31l12 -14l-31 -30l21 -23l40 38zM514 1290l10 -17l-39 -24l24 -43l-14 -10l-63 100l63 40l9 -15l-47 -30l18 -26zM562 1290q0 -7 5 -10q2 -4 10 -7q2 -2 5 -2h5q5 0 10 2q8 3 10 7q5 5 7 10 q1 1 1 10q0 6 -1 11l-27 67l17 8l28 -68q2 -5 2.5 -9t0.5 -9q0 -10 -3 -19q-2 -5 -4.5 -8t-7.5 -7q-3 -5 -6 -6.5t-8 -3.5t-9.5 -3.5t-9.5 -1.5q-8 0 -18 5q-5 2 -8.5 3.5t-6.5 6.5q-7 7 -10 15l-30 67l18 8zM662 1276l-30 117l20 5l23 -97l49 10l3 -20zM731 1291l-12 120 l20 2l10 -98l51 5v-20zM864 1296l-19 4l12 118l44 -5q6 0 14 -4q9 -5 11 -10q4 -3 6 -13q4 -7 3 -15q-3 -3 -3 -6.5t-2 -8.5q-6 -8 -9 -11q-4 -4 -14 -7q-3 -2 -13 -2l-25 4zM895 1356h7q3 0 7 5q3 0 3 5q2 2 4 8q0 5 -1 7t-2 3.5l-1 1.5q-2 3 -3.5 4t-2.5 1q-2 2 -3.5 2 t-2.5 1l-25 2l-5 -38zM951 1285l-19 5l30 113l44 -12q6 0 11 -5l10 -10q4 -5 4 -13q1 -5 0.5 -8.5t-0.5 -6.5q-2 -5 -5 -10q-4 -5 -6 -7q-8 -5 -10 -5q-3 -2 -5.5 -2.5t-3.5 -2.5l21 -56l-15 1q-1 2 -3 3.5t-3 1.5q-4 2 -5 9l-19 46l-15 4zM977 1379l-10 -31l25 -7h3h2 q3 0 4 1t4 1q2 0 2 1.5v1.5q5 5 5 7v7v3t-1 3q-1 2 -2.5 2.5t-1.5 2.5q-3 3 -6 3zM1037 1321q0 5 2.5 8.5t6.5 6.5q1 3 4.5 5.5t6.5 4.5q3 3 6.5 4t8.5 3q4 3 14 3h15q9 -1 16 -6q8 -4 15 -9q3 -3 5.5 -6.5t4.5 -4.5l3.5 -7l3.5 -7q1 -5 2 -8t1 -7v-8t-2 -8q-1 -4 -2 -7.5 t-3 -7.5q-3 -4 -4 -7t-4 -7q-3 -3 -6.5 -5t-4.5 -6q-4 -2 -7 -4t-7 -5q-6 0 -16 -1q-12 0 -17 1q-5 0 -15 5q-12 5 -18 15q-9 9 -14 20q-1 7 -1 12v12q0 11 6 21zM1054 1315q-2 -4 -2.5 -6.5t-2.5 -5.5v-10q0 -2 1 -5t2 -5q0 -7 4 -10q1 -2 3 -4.5t3 -2.5q4 -5 10 -6 q7 -4 10 -4h12h12q4 5 8 5q3 2 5 3.5t3 3.5q3 3 4 5.5t3 4.5q2 3 2.5 7.5t0.5 9.5v7.5v7.5q-2 4 -4.5 7.5t-5.5 5.5q-6 7 -13 10q-2 2 -5 2.5t-7 0.5h-10q-6 0 -10 -1q-3 -2 -5 -3t-5 -1q-1 -2 -3 -4t-3 -4zM1222 1290l10 -9q0 -1 1.5 -3t3.5 -3q0 -5 -2 -9l-28 -85l83 38 q1 1 7 1q5 0 7 -4l10 -7l-117 -54l-15 11zM1279 1064l-47 56l90 76l49 -56l-14 -14l-37 44l-23 -19l29 -36l-16 -11l-28 35l-23 -21l35 -42zM1294 1039l-9 16l101 61l23 -37q2 -3 2.5 -6t2.5 -8q2 -7 -2 -12q-2 -9 -5 -13l-4.5 -4.5t-6.5 -5.5q-4 -1 -5.5 -1.5t-4.5 -2.5 q-4 0 -5.5 -0.5t-4.5 0.5q-4 0 -10 3q-4 1 -5.5 1.5t-3.5 3.5l-23 -59l-9 13q-4 2 -4 7q0 6 3 9l20 47l-8 13zM1381 1089l-29 -16l13 -19q2 -5 4 -6q1 0 6 -3h6q1 0 5 3q1 0 6 3q0 3 1 4t1 3q1 1 1 6q-1 1 -1 2.5t-2 3.5zM1436 969q1 1 1 7q0 4 -1 5q-2 3 -2 7q-3 0 -5 3 q-2 2 -5 2q-3 1 -5 0l-2.5 -2.5l-1.5 -1.5l-2 -2l-2 -2v-7v-10v-3v-2v-10q0 -2 -0.5 -4.5t-0.5 -4.5q-4 -14 -19 -21q-4 -2 -7.5 -3t-8.5 1q-6 0 -14 2q-4 3 -7 5t-5 6q-3 2 -5 5.5t-4 6.5q-3 10 -3 15q0 4 3 14q0 3 2 5l3 4q0 4 2 4q4 2 3 2l4 -2q3 -5 5 -7q0 -1 0.5 -2 t0.5 -3q0 -3 -3 -6v-1v-8q0 -5 2 -8q0 -2 1 -3t2 -4q2 0 3.5 -1.5l3.5 -3.5h2t4 -2h4.5t4.5 2q2 0 5 3q2 4 2 5q1 2 1 7v8v4v12q0 8 2 13q1 2 2 4.5t4 5.5q2 2 4.5 3.5t6.5 3.5q8 3 14 1q6 0 12 -3q3 -2 6.5 -3.5t5.5 -5.5q3 -3 6 -11q2 -7 2 -10q0 -7 -1 -10q0 -4 -4 -10 v-4.5t-2 -3.5l-6 4q-3 1 -4 2.5t-3 3.5q-1 3 -1 6v3zM1364 881l-5 18l113 34l5 -19zM1427 881h19q6 0 14 -5q4 0 7.5 -2.5t4.5 -4.5q4 -3 7 -5.5t6 -5.5q4 -8 7 -12q3 -8 5 -18v-15q-2 -10 -5 -15q-1 -5 -3 -8.5t-4 -6.5l-10 -10q-4 -4 -7.5 -5.5t-6.5 -2.5q-7 -4 -15 -4 q-10 -1 -19 0q-8 0 -15 4q-2 1 -6 2.5t-7 3.5q-3 3 -5.5 6.5t-4.5 5.5q-7 5 -8 15q-2 3 -3.5 6.5t-1.5 8.5q-1 13 1 23q5 13 10 20q7 10 18 17q5 3 11 5.5t11 2.5zM1430 861q-8 0 -10 -3q-5 -2 -10 -5q-4 -2 -6 -7q-5 -5 -5 -10q-2 -1 -2.5 -4t-1.5 -6v-10q2 -8 4 -11 q0 -6 5 -9q1 -3 3 -5t3 -5q2 0 4.5 -1.5t5.5 -3.5q2 -1 4.5 -1h5.5q5 -4 11 0q11 0 16 5q5 1 13 11q6 8 6 15q3 7 1 15q0 7 -2 10q-3 4 -3.5 6t-1.5 4q-3 2 -4.5 3.5l-3.5 3.5q-5 3 -10 5q-3 3 -11 3q-4 3 -11 0zM1377 645l2 16l96 60l-91 5l1 20l117 -10v-11q0 -5 -1 -9 q-4 -2 -4 -5l-81 -50l81 -6l-1 -19z" />
<glyph unicode="6" d="M822 308q82 0 155 30t130 78h-570q58 -48 130 -78t155 -30zM586 463h564q45 55 70 124t25 147q0 80 -26.5 150t-81.5 139zM822 1251q-105 0 -198 -40t-163.5 -109t-112.5 -163.5t-42 -204.5q0 -103 39.5 -196t108 -163.5t163.5 -112.5t205 -42q35 0 70 5.5t68 15.5 q77 23 146 68t120 108.5t80.5 143.5t29.5 173q0 101 -38.5 194t-107 165t-163.5 115t-205 43zM822 260q-100 0 -186 38t-150 103t-99.5 151.5t-35.5 181.5q0 94 35 179.5t98 151t149.5 103.5t188.5 38q67 0 124 -16q71 -19 134.5 -60t111 -100t75 -134t27.5 -162 q0 -98 -37 -184.5t-101.5 -151t-150.5 -101.5t-183 -37zM492 1004q-45 -55 -70.5 -122.5t-25.5 -147.5q0 -83 28 -155.5t78 -130.5l555 556h-565zM822 1161q-83 0 -155.5 -29t-130.5 -81h566q-55 50 -126.5 80t-153.5 30zM972 191l-90 -16l4 -26l34 6l16 -89l26 5l-16 89 l31 6zM1072 156q-1 7 -8 9l-12 5h-15h-6h-9h-2v1q-3 3 -3 4l-2 1q2 0 2 4v1h3h5v4h1h5h3q3 0 3 1h9q0 3 0.5 4l0.5 1l5 10l-6 4q-9 4 -12 4q-2 0 -4.5 1t-4.5 1q-4 0 -6 -1t-4 -1l-13 -8q-2 -1 -4 -3.5t-3 -6.5q-8 -6 -8 -15v-4t3 -7q2 -9 10 -14q1 0 3.5 -1.5t3.5 -3.5 q4 0 7 -1t6 -1h12h10h2q2 0 3 -3q4 0 4 -1h3v-5q0 -2 -1 -3t-1 -2v-1q-1 0 -2 -2.5t-3 -2.5q-1 -3 -5 -3h-2.5h-2.5h-3.5h-2.5h-6h-8l-5 -1v-2t-1 -2l-5 -7q1 -4 3 -6t3 -4q4 -1 7 -2t7 -1q8 -3 11 -2q4 0 8 1t7 1l7 3.5t8 4.5l5.5 5.5t4.5 6.5q0 5 2.5 7.5t2.5 7.5 t-0.5 8.5t-4.5 6.5q0 8 -5 10zM1122 151q-1 4 -3 4t-3.5 0.5t-3.5 0.5q-1 -1 -6 -1l-7 -4q-2 -1 -2 -3v-2q-1 -2 -1 -5v-1q0 -4 1 -4v-1q0 -6 4 -6q1 -5 6 -5h7q5 0 7 2q1 2 3 2.5t2 2.5v2q0 2 1 2l4 3v2q0 6 -5 6zM846 99q-1 0 -1 4q0 1 -1.5 1t-1.5 1q0 4 -1 4l-41 60 q0 1 -3 2q-1 3 -8 3h-9h-14l3 -119l27 1v79l51 -79h25v118h-30zM599 189l48 -18l8 25l-73 25l-41 -105l26 -11l15 41l38 -15l10 25l-38 15zM747 160l-8 11q-3 3 -6.5 5t-7.5 4q-4 1 -7 2t-8 3q-5 1 -9 1h-7q-10 0 -14 -5q-4 0 -7.5 -1t-7.5 -4l-11 -10q-4 -8 -10 -11 q-2 -5 -3.5 -8.5t-1.5 -6.5v-19l3 -15l5 -12l12 -11q3 -4 7 -5.5t6 -3.5q7 -4 15 -4q5 -1 8.5 -1h6.5q5 0 14 2q4 2 8.5 3t6.5 4q6 2 11 10l9 11q4 7 6 17v15q0 3 -0.5 6.5t-2.5 8.5l-3 7.5t-4 6.5zM730 121q0 -3 -1.5 -6.5t-3.5 -5.5l-4.5 -6t-4.5 -4q-4 -1 -6.5 -2 t-5.5 -1q-7 -3 -12 0q-3 0 -6.5 1t-5.5 2l-8 10q-2 2 -2.5 5.5t-0.5 6.5q-3 5 0 14q0 6 5 11l6 9l12 5h12l12 -5l9 -9q2 -3 3.5 -5t1.5 -6q2 -9 0 -14zM1309 460q-2 -2 -3 -4t-1 -6q0 -2 1 -4t3 -5l40 -57l-69 10h-10l-9 -6l-9 -17l97 -65l16 23l-46 32l60 -12l11 20l-33 50 l47 -30l15 24l-98 63zM1296 333l-14 13l-15 3q-3 2 -15 2h-6.5t-8.5 -2l-12 -3q-4 -3 -8.5 -6.5t-6.5 -6.5q-3 -3 -4.5 -6t-3.5 -6q-3 -3 -4 -6.5t-3 -8.5q0 -3 -1.5 -6.5t-1.5 -8.5v-6t3 -9l4 -13l10 -12l13 -10q5 -1 7.5 -3.5t7.5 -2.5t8.5 -2t6.5 -2t6.5 2t8.5 2 q3 0 6.5 2.5t7.5 3.5q6 3 13 10l10 12q1 2 3 5t2 8q1 5 1 15v15l-6 13q-2 4 -5 9zM1282 280q-3 -9 -7 -10q-8 -7 -10 -9q-3 -1 -6.5 -1h-6.5t-6.5 0.5t-4.5 0.5l-11 9q-4 4 -8 11v10v12q4 8 8 12l11 8q3 0 6 0.5t5 0.5q5 0 13 -3q2 -1 4.5 -3t5.5 -5q2 -2 4 -4.5t3 -5.5 q3 -3 3 -12q0 -2 -1.5 -6.5zM1209 220l-7 -4q-2 0 -3.5 -2.5t-1.5 -4.5l-5 -9l-8 -6q-4 -3 -6 -4t-6 -1q-6 -3 -12 0q-3 2 -5.5 2t-5.5 3q-7 4 -7 11q-5 1 -5 11q-5 3 0 14v3.5t2 7.5q2 2 4 3.5t4 3.5q8 3 10 3q3 2 10 2q2 0 10 3q2 4 5 5l2 7v8q-3 5 -12 5h-13l-14 -5 l-11 -5q-2 -2 -5.5 -4.5t-6.5 -6.5q-2 -2 -4 -5.5t-4 -8.5l-7 -15v-15q0 -5 2 -7.5t2 -7.5l6 -15q3 -3 6 -5t4 -5l15 -10l12 -2q5 -3 16 -3q4 0 7 1.5t7 2.5q5 1 8.5 3.5t6.5 5.5l5 2.5t5 4.5q3 0 5 3.5t5 6.5l3 14q5 4 5 13l-12 2h-6zM519 260l-102 -74l15 -10h2.5h2.5 q3 0 3.5 -0.5t1.5 0.5h5h5l10 10l40 -22l-2 -15v-5q0 -3 1 -3q0 -1 1 -1v-4q0 -1 2 -1l3 -4l17 -10l17 125zM507 218v-2v-3l-1 -22l-19 10l17 15h2h1v2v1h2q1 1 2 1zM477 255l18 20l-69 59l-20 -21l26 -22l-57 -66l20 -19l60 70zM257 411l83 -10h6q1 0 2 1t3 1l11 8l-45 77 l-23 -14l26 -44l-83 9q-1 0 -4.5 -0.5t-7.5 -3.5l-10 -5l45 -79l22 15zM357 303l22 18l-27 30l14 12l31 -39l20 17l-48 60l-90 -75l51 -58l19 18l-32 37l17 11zM191 741l50 4q1 -2 3.5 -4t4.5 -5q2 -1 3.5 -4t1.5 -6q1 -6 3 -11q0 -4 1 -6.5t1 -4.5q0 -8 -1 -14t-3 -11 q-1 -8 -4.5 -13t-6.5 -10q-7 -8 -19 -12q-11 -8 -23 -8h-17q-4 3 -7.5 4t-7.5 4q-4 1 -6.5 3t-6.5 4q-2 3 -5 6t-5 7q-2 2 -3.5 5.5t-3.5 6.5q-1 5 -2 9.5t-1 9.5v6.5v4.5q3 9 3 14q2 3 3.5 5.5t3.5 5.5q2 2 3.5 5t3.5 5l3 -5q3 0 4 -1l1 -1q2 -3 2 -8v-3t-2 -3 q-5 -5 -5 -11v-13t3 -17q2 -4 4.5 -7t5.5 -6q5 -5 14 -7q7 -4 17 -3q6 0 11 3q3 1 5 1.5t4 3.5q1 2 3.5 3t5.5 4q1 2 2.5 3.5t3.5 4.5q0 4 0.5 6.5t2.5 5.5q1 4 1 10q-1 4 -2 7t-2 8q0 3 -5 10l-19 -1v-5v-5q0 -2 -2 -5q-1 -1 -2 -2.5t-2 -1.5q-2 -1 -6 -1h-6zM264 831 l-9 -75l-118 12l8 75l19 -2l-7 -55l30 -5l5 47l20 -2l-5 -45l32 -3l5 57zM164 851l-17 5l22 90l18 -5l-10 -37l98 -23l-4 -18l-97 23zM205 988l-18 8l42 83l16 -8l-15 -32l89 -45l-8 -18l-90 45zM392 1106l-11 -16l-40 30l-35 -47l41 -30l-11 -15l-97 70l11 15l40 -29l35 47 l-40 30l11 15zM456 1166l-54 -51l-83 86l53 53l14 -15l-39 -39l20 -21l33 31l12 -14l-31 -30l21 -23l40 38zM514 1290l10 -17l-39 -24l24 -43l-14 -10l-63 100l63 40l9 -15l-47 -30l18 -26zM562 1290q0 -7 5 -10q2 -4 10 -7q2 -2 5 -2h5q5 0 10 2q8 3 10 7q5 5 7 10 q1 1 1 10q0 6 -1 11l-27 67l17 8l28 -68q2 -5 2.5 -9t0.5 -9q0 -10 -3 -19q-2 -5 -4.5 -8t-7.5 -7q-3 -5 -6 -6.5t-8 -3.5t-9.5 -3.5t-9.5 -1.5q-8 0 -18 5q-5 2 -8.5 3.5t-6.5 6.5q-7 7 -10 15l-30 67l18 8zM662 1276l-30 117l20 5l23 -97l49 10l3 -20zM731 1291l-12 120 l20 2l10 -98l51 5v-20zM864 1296l-19 4l12 118l44 -5q6 0 14 -4q9 -5 11 -10q4 -3 6 -13q4 -7 3 -15q-3 -3 -3 -6.5t-2 -8.5q-6 -8 -9 -11q-4 -4 -14 -7q-3 -2 -13 -2l-25 4zM895 1356h7q3 0 7 5q3 0 3 5q2 2 4 8q0 5 -1 7t-2 3.5l-1 1.5q-2 3 -3.5 4t-2.5 1q-2 2 -3.5 2 t-2.5 1l-25 2l-5 -38zM951 1285l-19 5l30 113l44 -12q6 0 11 -5l10 -10q4 -5 4 -13q1 -5 0.5 -8.5t-0.5 -6.5q-2 -5 -5 -10q-4 -5 -6 -7q-8 -5 -10 -5q-3 -2 -5.5 -2.5t-3.5 -2.5l21 -56l-15 1q-1 2 -3 3.5t-3 1.5q-4 2 -5 9l-19 46l-15 4zM977 1379l-10 -31l25 -7h3h2 q3 0 4 1t4 1q2 0 2 1.5v1.5q5 5 5 7v7v3t-1 3q-1 2 -2.5 2.5t-1.5 2.5q-3 3 -6 3zM1037 1321q0 5 2.5 8.5t6.5 6.5q1 3 4.5 5.5t6.5 4.5q3 3 6.5 4t8.5 3q4 3 14 3h15q9 -1 16 -6q8 -4 15 -9q3 -3 5.5 -6.5t4.5 -4.5l3.5 -7l3.5 -7q1 -5 2 -8t1 -7v-8t-2 -8q-1 -4 -2 -7.5 t-3 -7.5q-3 -4 -4 -7t-4 -7q-3 -3 -6.5 -5t-4.5 -6q-4 -2 -7 -4t-7 -5q-6 0 -16 -1q-12 0 -17 1q-5 0 -15 5q-12 5 -18 15q-9 9 -14 20q-1 7 -1 12v12q0 11 6 21zM1054 1315q-2 -4 -2.5 -6.5t-2.5 -5.5v-10q0 -2 1 -5t2 -5q0 -7 4 -10q1 -2 3 -4.5t3 -2.5q4 -5 10 -6 q7 -4 10 -4h12h12q4 5 8 5q3 2 5 3.5t3 3.5q3 3 4 5.5t3 4.5q2 3 2.5 7.5t0.5 9.5v7.5v7.5q-2 4 -4.5 7.5t-5.5 5.5q-6 7 -13 10q-2 2 -5 2.5t-7 0.5h-10q-6 0 -10 -1q-3 -2 -5 -3t-5 -1q-1 -2 -3 -4t-3 -4zM1222 1290l10 -9q0 -1 1.5 -3t3.5 -3q0 -5 -2 -9l-28 -85l83 38 q1 1 7 1q5 0 7 -4l10 -7l-117 -54l-15 11zM1279 1064l-47 56l90 76l49 -56l-14 -14l-37 44l-23 -19l29 -36l-16 -11l-28 35l-23 -21l35 -42zM1294 1039l-9 16l101 61l23 -37q2 -3 2.5 -6t2.5 -8q2 -7 -2 -12q-2 -9 -5 -13l-4.5 -4.5t-6.5 -5.5q-4 -1 -5.5 -1.5t-4.5 -2.5 q-4 0 -5.5 -0.5t-4.5 0.5q-4 0 -10 3q-4 1 -5.5 1.5t-3.5 3.5l-23 -59l-9 13q-4 2 -4 7q0 6 3 9l20 47l-8 13zM1381 1089l-29 -16l13 -19q2 -5 4 -6q1 0 6 -3h6q1 0 5 3q1 0 6 3q0 3 1 4t1 3q1 1 1 6q-1 1 -1 2.5t-2 3.5zM1436 969q1 1 1 7q0 4 -1 5q-2 3 -2 7q-3 0 -5 3 q-2 2 -5 2q-3 1 -5 0l-2.5 -2.5l-1.5 -1.5l-2 -2l-2 -2v-7v-10v-3v-2v-10q0 -2 -0.5 -4.5t-0.5 -4.5q-4 -14 -19 -21q-4 -2 -7.5 -3t-8.5 1q-6 0 -14 2q-4 3 -7 5t-5 6q-3 2 -5 5.5t-4 6.5q-3 10 -3 15q0 4 3 14q0 3 2 5l3 4q0 4 2 4q4 2 3 2l4 -2q3 -5 5 -7q0 -1 0.5 -2 t0.5 -3q0 -3 -3 -6v-1v-8q0 -5 2 -8q0 -2 1 -3t2 -4q2 0 3.5 -1.5l3.5 -3.5h2t4 -2h4.5t4.5 2q2 0 5 3q2 4 2 5q1 2 1 7v8v4v12q0 8 2 13q1 2 2 4.5t4 5.5q2 2 4.5 3.5t6.5 3.5q8 3 14 1q6 0 12 -3q3 -2 6.5 -3.5t5.5 -5.5q3 -3 6 -11q2 -7 2 -10q0 -7 -1 -10q0 -4 -4 -10 v-4.5t-2 -3.5l-6 4q-3 1 -4 2.5t-3 3.5q-1 3 -1 6v3zM1364 881l-5 18l113 34l5 -19zM1427 881h19q6 0 14 -5q4 0 7.5 -2.5t4.5 -4.5q4 -3 7 -5.5t6 -5.5q4 -8 7 -12q3 -8 5 -18v-15q-2 -10 -5 -15q-1 -5 -3 -8.5t-4 -6.5l-10 -10q-4 -4 -7.5 -5.5t-6.5 -2.5q-7 -4 -15 -4 q-10 -1 -19 0q-8 0 -15 4q-2 1 -6 2.5t-7 3.5q-3 3 -5.5 6.5t-4.5 5.5q-7 5 -8 15q-2 3 -3.5 6.5t-1.5 8.5q-1 13 1 23q5 13 10 20q7 10 18 17q5 3 11 5.5t11 2.5zM1430 861q-8 0 -10 -3q-5 -2 -10 -5q-4 -2 -6 -7q-5 -5 -5 -10q-2 -1 -2.5 -4t-1.5 -6v-10q2 -8 4 -11 q0 -6 5 -9q1 -3 3 -5t3 -5q2 0 4.5 -1.5t5.5 -3.5q2 -1 4.5 -1h5.5q5 -4 11 0q11 0 16 5q5 1 13 11q6 8 6 15q3 7 1 15q0 7 -2 10q-3 4 -3.5 6t-1.5 4q-3 2 -4.5 3.5l-3.5 3.5q-5 3 -10 5q-3 3 -11 3q-4 3 -11 0zM1377 645l2 16l96 60l-91 5l1 20l117 -10v-11q0 -5 -1 -9 q-4 -2 -4 -5l-81 -50l81 -6l-1 -19z" />
<glyph unicode="7" d="M822 308q82 0 155 30t130 78h-570q58 -48 130 -78t155 -30zM586 463h564q45 55 70 124t25 147q0 80 -26.5 150t-81.5 139zM822 1251q-105 0 -198 -40t-163.5 -109t-112.5 -163.5t-42 -204.5q0 -103 39.5 -196t108 -163.5t163.5 -112.5t205 -42q35 0 70 5.5t68 15.5 q77 23 146 68t120 108.5t80.5 143.5t29.5 173q0 101 -38.5 194t-107 165t-163.5 115t-205 43zM822 260q-100 0 -186 38t-150 103t-99.5 151.5t-35.5 181.5q0 94 35 179.5t98 151t149.5 103.5t188.5 38q67 0 124 -16q71 -19 134.5 -60t111 -100t75 -134t27.5 -162 q0 -98 -37 -184.5t-101.5 -151t-150.5 -101.5t-183 -37zM492 1004q-45 -55 -70.5 -122.5t-25.5 -147.5q0 -83 28 -155.5t78 -130.5l555 556h-565zM822 1161q-83 0 -155.5 -29t-130.5 -81h566q-55 50 -126.5 80t-153.5 30zM972 191l-90 -16l4 -26l34 6l16 -89l26 5l-16 89 l31 6zM1072 156q-1 7 -8 9l-12 5h-15h-6h-9h-2v1q-3 3 -3 4l-2 1q2 0 2 4v1h3h5v4h1h5h3q3 0 3 1h9q0 3 0.5 4l0.5 1l5 10l-6 4q-9 4 -12 4q-2 0 -4.5 1t-4.5 1q-4 0 -6 -1t-4 -1l-13 -8q-2 -1 -4 -3.5t-3 -6.5q-8 -6 -8 -15v-4t3 -7q2 -9 10 -14q1 0 3.5 -1.5t3.5 -3.5 q4 0 7 -1t6 -1h12h10h2q2 0 3 -3q4 0 4 -1h3v-5q0 -2 -1 -3t-1 -2v-1q-1 0 -2 -2.5t-3 -2.5q-1 -3 -5 -3h-2.5h-2.5h-3.5h-2.5h-6h-8l-5 -1v-2t-1 -2l-5 -7q1 -4 3 -6t3 -4q4 -1 7 -2t7 -1q8 -3 11 -2q4 0 8 1t7 1l7 3.5t8 4.5l5.5 5.5t4.5 6.5q0 5 2.5 7.5t2.5 7.5 t-0.5 8.5t-4.5 6.5q0 8 -5 10zM1122 151q-1 4 -3 4t-3.5 0.5t-3.5 0.5q-1 -1 -6 -1l-7 -4q-2 -1 -2 -3v-2q-1 -2 -1 -5v-1q0 -4 1 -4v-1q0 -6 4 -6q1 -5 6 -5h7q5 0 7 2q1 2 3 2.5t2 2.5v2q0 2 1 2l4 3v2q0 6 -5 6zM846 99q-1 0 -1 4q0 1 -1.5 1t-1.5 1q0 4 -1 4l-41 60 q0 1 -3 2q-1 3 -8 3h-9h-14l3 -119l27 1v79l51 -79h25v118h-30zM599 189l48 -18l8 25l-73 25l-41 -105l26 -11l15 41l38 -15l10 25l-38 15zM747 160l-8 11q-3 3 -6.5 5t-7.5 4q-4 1 -7 2t-8 3q-5 1 -9 1h-7q-10 0 -14 -5q-4 0 -7.5 -1t-7.5 -4l-11 -10q-4 -8 -10 -11 q-2 -5 -3.5 -8.5t-1.5 -6.5v-19l3 -15l5 -12l12 -11q3 -4 7 -5.5t6 -3.5q7 -4 15 -4q5 -1 8.5 -1h6.5q5 0 14 2q4 2 8.5 3t6.5 4q6 2 11 10l9 11q4 7 6 17v15q0 3 -0.5 6.5t-2.5 8.5l-3 7.5t-4 6.5zM730 121q0 -3 -1.5 -6.5t-3.5 -5.5l-4.5 -6t-4.5 -4q-4 -1 -6.5 -2 t-5.5 -1q-7 -3 -12 0q-3 0 -6.5 1t-5.5 2l-8 10q-2 2 -2.5 5.5t-0.5 6.5q-3 5 0 14q0 6 5 11l6 9l12 5h12l12 -5l9 -9q2 -3 3.5 -5t1.5 -6q2 -9 0 -14zM1309 460q-2 -2 -3 -4t-1 -6q0 -2 1 -4t3 -5l40 -57l-69 10h-10l-9 -6l-9 -17l97 -65l16 23l-46 32l60 -12l11 20l-33 50 l47 -30l15 24l-98 63zM1296 333l-14 13l-15 3q-3 2 -15 2h-6.5t-8.5 -2l-12 -3q-4 -3 -8.5 -6.5t-6.5 -6.5q-3 -3 -4.5 -6t-3.5 -6q-3 -3 -4 -6.5t-3 -8.5q0 -3 -1.5 -6.5t-1.5 -8.5v-6t3 -9l4 -13l10 -12l13 -10q5 -1 7.5 -3.5t7.5 -2.5t8.5 -2t6.5 -2t6.5 2t8.5 2 q3 0 6.5 2.5t7.5 3.5q6 3 13 10l10 12q1 2 3 5t2 8q1 5 1 15v15l-6 13q-2 4 -5 9zM1282 280q-3 -9 -7 -10q-8 -7 -10 -9q-3 -1 -6.5 -1h-6.5t-6.5 0.5t-4.5 0.5l-11 9q-4 4 -8 11v10v12q4 8 8 12l11 8q3 0 6 0.5t5 0.5q5 0 13 -3q2 -1 4.5 -3t5.5 -5q2 -2 4 -4.5t3 -5.5 q3 -3 3 -12q0 -2 -1.5 -6.5zM1209 220l-7 -4q-2 0 -3.5 -2.5t-1.5 -4.5l-5 -9l-8 -6q-4 -3 -6 -4t-6 -1q-6 -3 -12 0q-3 2 -5.5 2t-5.5 3q-7 4 -7 11q-5 1 -5 11q-5 3 0 14v3.5t2 7.5q2 2 4 3.5t4 3.5q8 3 10 3q3 2 10 2q2 0 10 3q2 4 5 5l2 7v8q-3 5 -12 5h-13l-14 -5 l-11 -5q-2 -2 -5.5 -4.5t-6.5 -6.5q-2 -2 -4 -5.5t-4 -8.5l-7 -15v-15q0 -5 2 -7.5t2 -7.5l6 -15q3 -3 6 -5t4 -5l15 -10l12 -2q5 -3 16 -3q4 0 7 1.5t7 2.5q5 1 8.5 3.5t6.5 5.5l5 2.5t5 4.5q3 0 5 3.5t5 6.5l3 14q5 4 5 13l-12 2h-6zM519 260l-102 -74l15 -10h2.5h2.5 q3 0 3.5 -0.5t1.5 0.5h5h5l10 10l40 -22l-2 -15v-5q0 -3 1 -3q0 -1 1 -1v-4q0 -1 2 -1l3 -4l17 -10l17 125zM507 218v-2v-3l-1 -22l-19 10l17 15h2h1v2v1h2q1 1 2 1zM477 255l18 20l-69 59l-20 -21l26 -22l-57 -66l20 -19l60 70zM257 411l83 -10h6q1 0 2 1t3 1l11 8l-45 77 l-23 -14l26 -44l-83 9q-1 0 -4.5 -0.5t-7.5 -3.5l-10 -5l45 -79l22 15zM357 303l22 18l-27 30l14 12l31 -39l20 17l-48 60l-90 -75l51 -58l19 18l-32 37l17 11zM191 741l50 4q1 -2 3.5 -4t4.5 -5q2 -1 3.5 -4t1.5 -6q1 -6 3 -11q0 -4 1 -6.5t1 -4.5q0 -8 -1 -14t-3 -11 q-1 -8 -4.5 -13t-6.5 -10q-7 -8 -19 -12q-11 -8 -23 -8h-17q-4 3 -7.5 4t-7.5 4q-4 1 -6.5 3t-6.5 4q-2 3 -5 6t-5 7q-2 2 -3.5 5.5t-3.5 6.5q-1 5 -2 9.5t-1 9.5v6.5v4.5q3 9 3 14q2 3 3.5 5.5t3.5 5.5q2 2 3.5 5t3.5 5l3 -5q3 0 4 -1l1 -1q2 -3 2 -8v-3t-2 -3 q-5 -5 -5 -11v-13t3 -17q2 -4 4.5 -7t5.5 -6q5 -5 14 -7q7 -4 17 -3q6 0 11 3q3 1 5 1.5t4 3.5q1 2 3.5 3t5.5 4q1 2 2.5 3.5t3.5 4.5q0 4 0.5 6.5t2.5 5.5q1 4 1 10q-1 4 -2 7t-2 8q0 3 -5 10l-19 -1v-5v-5q0 -2 -2 -5q-1 -1 -2 -2.5t-2 -1.5q-2 -1 -6 -1h-6zM264 831 l-9 -75l-118 12l8 75l19 -2l-7 -55l30 -5l5 47l20 -2l-5 -45l32 -3l5 57zM164 851l-17 5l22 90l18 -5l-10 -37l98 -23l-4 -18l-97 23zM205 988l-18 8l42 83l16 -8l-15 -32l89 -45l-8 -18l-90 45zM392 1106l-11 -16l-40 30l-35 -47l41 -30l-11 -15l-97 70l11 15l40 -29l35 47 l-40 30l11 15zM456 1166l-54 -51l-83 86l53 53l14 -15l-39 -39l20 -21l33 31l12 -14l-31 -30l21 -23l40 38zM514 1290l10 -17l-39 -24l24 -43l-14 -10l-63 100l63 40l9 -15l-47 -30l18 -26zM562 1290q0 -7 5 -10q2 -4 10 -7q2 -2 5 -2h5q5 0 10 2q8 3 10 7q5 5 7 10 q1 1 1 10q0 6 -1 11l-27 67l17 8l28 -68q2 -5 2.5 -9t0.5 -9q0 -10 -3 -19q-2 -5 -4.5 -8t-7.5 -7q-3 -5 -6 -6.5t-8 -3.5t-9.5 -3.5t-9.5 -1.5q-8 0 -18 5q-5 2 -8.5 3.5t-6.5 6.5q-7 7 -10 15l-30 67l18 8zM662 1276l-30 117l20 5l23 -97l49 10l3 -20zM731 1291l-12 120 l20 2l10 -98l51 5v-20zM864 1296l-19 4l12 118l44 -5q6 0 14 -4q9 -5 11 -10q4 -3 6 -13q4 -7 3 -15q-3 -3 -3 -6.5t-2 -8.5q-6 -8 -9 -11q-4 -4 -14 -7q-3 -2 -13 -2l-25 4zM895 1356h7q3 0 7 5q3 0 3 5q2 2 4 8q0 5 -1 7t-2 3.5l-1 1.5q-2 3 -3.5 4t-2.5 1q-2 2 -3.5 2 t-2.5 1l-25 2l-5 -38zM951 1285l-19 5l30 113l44 -12q6 0 11 -5l10 -10q4 -5 4 -13q1 -5 0.5 -8.5t-0.5 -6.5q-2 -5 -5 -10q-4 -5 -6 -7q-8 -5 -10 -5q-3 -2 -5.5 -2.5t-3.5 -2.5l21 -56l-15 1q-1 2 -3 3.5t-3 1.5q-4 2 -5 9l-19 46l-15 4zM977 1379l-10 -31l25 -7h3h2 q3 0 4 1t4 1q2 0 2 1.5v1.5q5 5 5 7v7v3t-1 3q-1 2 -2.5 2.5t-1.5 2.5q-3 3 -6 3zM1037 1321q0 5 2.5 8.5t6.5 6.5q1 3 4.5 5.5t6.5 4.5q3 3 6.5 4t8.5 3q4 3 14 3h15q9 -1 16 -6q8 -4 15 -9q3 -3 5.5 -6.5t4.5 -4.5l3.5 -7l3.5 -7q1 -5 2 -8t1 -7v-8t-2 -8q-1 -4 -2 -7.5 t-3 -7.5q-3 -4 -4 -7t-4 -7q-3 -3 -6.5 -5t-4.5 -6q-4 -2 -7 -4t-7 -5q-6 0 -16 -1q-12 0 -17 1q-5 0 -15 5q-12 5 -18 15q-9 9 -14 20q-1 7 -1 12v12q0 11 6 21zM1054 1315q-2 -4 -2.5 -6.5t-2.5 -5.5v-10q0 -2 1 -5t2 -5q0 -7 4 -10q1 -2 3 -4.5t3 -2.5q4 -5 10 -6 q7 -4 10 -4h12h12q4 5 8 5q3 2 5 3.5t3 3.5q3 3 4 5.5t3 4.5q2 3 2.5 7.5t0.5 9.5v7.5v7.5q-2 4 -4.5 7.5t-5.5 5.5q-6 7 -13 10q-2 2 -5 2.5t-7 0.5h-10q-6 0 -10 -1q-3 -2 -5 -3t-5 -1q-1 -2 -3 -4t-3 -4zM1222 1290l10 -9q0 -1 1.5 -3t3.5 -3q0 -5 -2 -9l-28 -85l83 38 q1 1 7 1q5 0 7 -4l10 -7l-117 -54l-15 11zM1279 1064l-47 56l90 76l49 -56l-14 -14l-37 44l-23 -19l29 -36l-16 -11l-28 35l-23 -21l35 -42zM1294 1039l-9 16l101 61l23 -37q2 -3 2.5 -6t2.5 -8q2 -7 -2 -12q-2 -9 -5 -13l-4.5 -4.5t-6.5 -5.5q-4 -1 -5.5 -1.5t-4.5 -2.5 q-4 0 -5.5 -0.5t-4.5 0.5q-4 0 -10 3q-4 1 -5.5 1.5t-3.5 3.5l-23 -59l-9 13q-4 2 -4 7q0 6 3 9l20 47l-8 13zM1381 1089l-29 -16l13 -19q2 -5 4 -6q1 0 6 -3h6q1 0 5 3q1 0 6 3q0 3 1 4t1 3q1 1 1 6q-1 1 -1 2.5t-2 3.5zM1436 969q1 1 1 7q0 4 -1 5q-2 3 -2 7q-3 0 -5 3 q-2 2 -5 2q-3 1 -5 0l-2.5 -2.5l-1.5 -1.5l-2 -2l-2 -2v-7v-10v-3v-2v-10q0 -2 -0.5 -4.5t-0.5 -4.5q-4 -14 -19 -21q-4 -2 -7.5 -3t-8.5 1q-6 0 -14 2q-4 3 -7 5t-5 6q-3 2 -5 5.5t-4 6.5q-3 10 -3 15q0 4 3 14q0 3 2 5l3 4q0 4 2 4q4 2 3 2l4 -2q3 -5 5 -7q0 -1 0.5 -2 t0.5 -3q0 -3 -3 -6v-1v-8q0 -5 2 -8q0 -2 1 -3t2 -4q2 0 3.5 -1.5l3.5 -3.5h2t4 -2h4.5t4.5 2q2 0 5 3q2 4 2 5q1 2 1 7v8v4v12q0 8 2 13q1 2 2 4.5t4 5.5q2 2 4.5 3.5t6.5 3.5q8 3 14 1q6 0 12 -3q3 -2 6.5 -3.5t5.5 -5.5q3 -3 6 -11q2 -7 2 -10q0 -7 -1 -10q0 -4 -4 -10 v-4.5t-2 -3.5l-6 4q-3 1 -4 2.5t-3 3.5q-1 3 -1 6v3zM1364 881l-5 18l113 34l5 -19zM1427 881h19q6 0 14 -5q4 0 7.5 -2.5t4.5 -4.5q4 -3 7 -5.5t6 -5.5q4 -8 7 -12q3 -8 5 -18v-15q-2 -10 -5 -15q-1 -5 -3 -8.5t-4 -6.5l-10 -10q-4 -4 -7.5 -5.5t-6.5 -2.5q-7 -4 -15 -4 q-10 -1 -19 0q-8 0 -15 4q-2 1 -6 2.5t-7 3.5q-3 3 -5.5 6.5t-4.5 5.5q-7 5 -8 15q-2 3 -3.5 6.5t-1.5 8.5q-1 13 1 23q5 13 10 20q7 10 18 17q5 3 11 5.5t11 2.5zM1430 861q-8 0 -10 -3q-5 -2 -10 -5q-4 -2 -6 -7q-5 -5 -5 -10q-2 -1 -2.5 -4t-1.5 -6v-10q2 -8 4 -11 q0 -6 5 -9q1 -3 3 -5t3 -5q2 0 4.5 -1.5t5.5 -3.5q2 -1 4.5 -1h5.5q5 -4 11 0q11 0 16 5q5 1 13 11q6 8 6 15q3 7 1 15q0 7 -2 10q-3 4 -3.5 6t-1.5 4q-3 2 -4.5 3.5l-3.5 3.5q-5 3 -10 5q-3 3 -11 3q-4 3 -11 0zM1377 645l2 16l96 60l-91 5l1 20l117 -10v-11q0 -5 -1 -9 q-4 -2 -4 -5l-81 -50l81 -6l-1 -19z" />
<glyph unicode="8" d="M822 308q82 0 155 30t130 78h-570q58 -48 130 -78t155 -30zM586 463h564q45 55 70 124t25 147q0 80 -26.5 150t-81.5 139zM822 1251q-105 0 -198 -40t-163.5 -109t-112.5 -163.5t-42 -204.5q0 -103 39.5 -196t108 -163.5t163.5 -112.5t205 -42q35 0 70 5.5t68 15.5 q77 23 146 68t120 108.5t80.5 143.5t29.5 173q0 101 -38.5 194t-107 165t-163.5 115t-205 43zM822 260q-100 0 -186 38t-150 103t-99.5 151.5t-35.5 181.5q0 94 35 179.5t98 151t149.5 103.5t188.5 38q67 0 124 -16q71 -19 134.5 -60t111 -100t75 -134t27.5 -162 q0 -98 -37 -184.5t-101.5 -151t-150.5 -101.5t-183 -37zM492 1004q-45 -55 -70.5 -122.5t-25.5 -147.5q0 -83 28 -155.5t78 -130.5l555 556h-565zM822 1161q-83 0 -155.5 -29t-130.5 -81h566q-55 50 -126.5 80t-153.5 30zM972 191l-90 -16l4 -26l34 6l16 -89l26 5l-16 89 l31 6zM1072 156q-1 7 -8 9l-12 5h-15h-6h-9h-2v1q-3 3 -3 4l-2 1q2 0 2 4v1h3h5v4h1h5h3q3 0 3 1h9q0 3 0.5 4l0.5 1l5 10l-6 4q-9 4 -12 4q-2 0 -4.5 1t-4.5 1q-4 0 -6 -1t-4 -1l-13 -8q-2 -1 -4 -3.5t-3 -6.5q-8 -6 -8 -15v-4t3 -7q2 -9 10 -14q1 0 3.5 -1.5t3.5 -3.5 q4 0 7 -1t6 -1h12h10h2q2 0 3 -3q4 0 4 -1h3v-5q0 -2 -1 -3t-1 -2v-1q-1 0 -2 -2.5t-3 -2.5q-1 -3 -5 -3h-2.5h-2.5h-3.5h-2.5h-6h-8l-5 -1v-2t-1 -2l-5 -7q1 -4 3 -6t3 -4q4 -1 7 -2t7 -1q8 -3 11 -2q4 0 8 1t7 1l7 3.5t8 4.5l5.5 5.5t4.5 6.5q0 5 2.5 7.5t2.5 7.5 t-0.5 8.5t-4.5 6.5q0 8 -5 10zM1122 151q-1 4 -3 4t-3.5 0.5t-3.5 0.5q-1 -1 -6 -1l-7 -4q-2 -1 -2 -3v-2q-1 -2 -1 -5v-1q0 -4 1 -4v-1q0 -6 4 -6q1 -5 6 -5h7q5 0 7 2q1 2 3 2.5t2 2.5v2q0 2 1 2l4 3v2q0 6 -5 6zM846 99q-1 0 -1 4q0 1 -1.5 1t-1.5 1q0 4 -1 4l-41 60 q0 1 -3 2q-1 3 -8 3h-9h-14l3 -119l27 1v79l51 -79h25v118h-30zM599 189l48 -18l8 25l-73 25l-41 -105l26 -11l15 41l38 -15l10 25l-38 15zM747 160l-8 11q-3 3 -6.5 5t-7.5 4q-4 1 -7 2t-8 3q-5 1 -9 1h-7q-10 0 -14 -5q-4 0 -7.5 -1t-7.5 -4l-11 -10q-4 -8 -10 -11 q-2 -5 -3.5 -8.5t-1.5 -6.5v-19l3 -15l5 -12l12 -11q3 -4 7 -5.5t6 -3.5q7 -4 15 -4q5 -1 8.5 -1h6.5q5 0 14 2q4 2 8.5 3t6.5 4q6 2 11 10l9 11q4 7 6 17v15q0 3 -0.5 6.5t-2.5 8.5l-3 7.5t-4 6.5zM730 121q0 -3 -1.5 -6.5t-3.5 -5.5l-4.5 -6t-4.5 -4q-4 -1 -6.5 -2 t-5.5 -1q-7 -3 -12 0q-3 0 -6.5 1t-5.5 2l-8 10q-2 2 -2.5 5.5t-0.5 6.5q-3 5 0 14q0 6 5 11l6 9l12 5h12l12 -5l9 -9q2 -3 3.5 -5t1.5 -6q2 -9 0 -14zM1309 460q-2 -2 -3 -4t-1 -6q0 -2 1 -4t3 -5l40 -57l-69 10h-10l-9 -6l-9 -17l97 -65l16 23l-46 32l60 -12l11 20l-33 50 l47 -30l15 24l-98 63zM1296 333l-14 13l-15 3q-3 2 -15 2h-6.5t-8.5 -2l-12 -3q-4 -3 -8.5 -6.5t-6.5 -6.5q-3 -3 -4.5 -6t-3.5 -6q-3 -3 -4 -6.5t-3 -8.5q0 -3 -1.5 -6.5t-1.5 -8.5v-6t3 -9l4 -13l10 -12l13 -10q5 -1 7.5 -3.5t7.5 -2.5t8.5 -2t6.5 -2t6.5 2t8.5 2 q3 0 6.5 2.5t7.5 3.5q6 3 13 10l10 12q1 2 3 5t2 8q1 5 1 15v15l-6 13q-2 4 -5 9zM1282 280q-3 -9 -7 -10q-8 -7 -10 -9q-3 -1 -6.5 -1h-6.5t-6.5 0.5t-4.5 0.5l-11 9q-4 4 -8 11v10v12q4 8 8 12l11 8q3 0 6 0.5t5 0.5q5 0 13 -3q2 -1 4.5 -3t5.5 -5q2 -2 4 -4.5t3 -5.5 q3 -3 3 -12q0 -2 -1.5 -6.5zM1209 220l-7 -4q-2 0 -3.5 -2.5t-1.5 -4.5l-5 -9l-8 -6q-4 -3 -6 -4t-6 -1q-6 -3 -12 0q-3 2 -5.5 2t-5.5 3q-7 4 -7 11q-5 1 -5 11q-5 3 0 14v3.5t2 7.5q2 2 4 3.5t4 3.5q8 3 10 3q3 2 10 2q2 0 10 3q2 4 5 5l2 7v8q-3 5 -12 5h-13l-14 -5 l-11 -5q-2 -2 -5.5 -4.5t-6.5 -6.5q-2 -2 -4 -5.5t-4 -8.5l-7 -15v-15q0 -5 2 -7.5t2 -7.5l6 -15q3 -3 6 -5t4 -5l15 -10l12 -2q5 -3 16 -3q4 0 7 1.5t7 2.5q5 1 8.5 3.5t6.5 5.5l5 2.5t5 4.5q3 0 5 3.5t5 6.5l3 14q5 4 5 13l-12 2h-6zM519 260l-102 -74l15 -10h2.5h2.5 q3 0 3.5 -0.5t1.5 0.5h5h5l10 10l40 -22l-2 -15v-5q0 -3 1 -3q0 -1 1 -1v-4q0 -1 2 -1l3 -4l17 -10l17 125zM507 218v-2v-3l-1 -22l-19 10l17 15h2h1v2v1h2q1 1 2 1zM477 255l18 20l-69 59l-20 -21l26 -22l-57 -66l20 -19l60 70zM257 411l83 -10h6q1 0 2 1t3 1l11 8l-45 77 l-23 -14l26 -44l-83 9q-1 0 -4.5 -0.5t-7.5 -3.5l-10 -5l45 -79l22 15zM357 303l22 18l-27 30l14 12l31 -39l20 17l-48 60l-90 -75l51 -58l19 18l-32 37l17 11zM191 741l50 4q1 -2 3.5 -4t4.5 -5q2 -1 3.5 -4t1.5 -6q1 -6 3 -11q0 -4 1 -6.5t1 -4.5q0 -8 -1 -14t-3 -11 q-1 -8 -4.5 -13t-6.5 -10q-7 -8 -19 -12q-11 -8 -23 -8h-17q-4 3 -7.5 4t-7.5 4q-4 1 -6.5 3t-6.5 4q-2 3 -5 6t-5 7q-2 2 -3.5 5.5t-3.5 6.5q-1 5 -2 9.5t-1 9.5v6.5v4.5q3 9 3 14q2 3 3.5 5.5t3.5 5.5q2 2 3.5 5t3.5 5l3 -5q3 0 4 -1l1 -1q2 -3 2 -8v-3t-2 -3 q-5 -5 -5 -11v-13t3 -17q2 -4 4.5 -7t5.5 -6q5 -5 14 -7q7 -4 17 -3q6 0 11 3q3 1 5 1.5t4 3.5q1 2 3.5 3t5.5 4q1 2 2.5 3.5t3.5 4.5q0 4 0.5 6.5t2.5 5.5q1 4 1 10q-1 4 -2 7t-2 8q0 3 -5 10l-19 -1v-5v-5q0 -2 -2 -5q-1 -1 -2 -2.5t-2 -1.5q-2 -1 -6 -1h-6zM264 831 l-9 -75l-118 12l8 75l19 -2l-7 -55l30 -5l5 47l20 -2l-5 -45l32 -3l5 57zM164 851l-17 5l22 90l18 -5l-10 -37l98 -23l-4 -18l-97 23zM205 988l-18 8l42 83l16 -8l-15 -32l89 -45l-8 -18l-90 45zM392 1106l-11 -16l-40 30l-35 -47l41 -30l-11 -15l-97 70l11 15l40 -29l35 47 l-40 30l11 15zM456 1166l-54 -51l-83 86l53 53l14 -15l-39 -39l20 -21l33 31l12 -14l-31 -30l21 -23l40 38zM514 1290l10 -17l-39 -24l24 -43l-14 -10l-63 100l63 40l9 -15l-47 -30l18 -26zM562 1290q0 -7 5 -10q2 -4 10 -7q2 -2 5 -2h5q5 0 10 2q8 3 10 7q5 5 7 10 q1 1 1 10q0 6 -1 11l-27 67l17 8l28 -68q2 -5 2.5 -9t0.5 -9q0 -10 -3 -19q-2 -5 -4.5 -8t-7.5 -7q-3 -5 -6 -6.5t-8 -3.5t-9.5 -3.5t-9.5 -1.5q-8 0 -18 5q-5 2 -8.5 3.5t-6.5 6.5q-7 7 -10 15l-30 67l18 8zM662 1276l-30 117l20 5l23 -97l49 10l3 -20zM731 1291l-12 120 l20 2l10 -98l51 5v-20zM864 1296l-19 4l12 118l44 -5q6 0 14 -4q9 -5 11 -10q4 -3 6 -13q4 -7 3 -15q-3 -3 -3 -6.5t-2 -8.5q-6 -8 -9 -11q-4 -4 -14 -7q-3 -2 -13 -2l-25 4zM895 1356h7q3 0 7 5q3 0 3 5q2 2 4 8q0 5 -1 7t-2 3.5l-1 1.5q-2 3 -3.5 4t-2.5 1q-2 2 -3.5 2 t-2.5 1l-25 2l-5 -38zM951 1285l-19 5l30 113l44 -12q6 0 11 -5l10 -10q4 -5 4 -13q1 -5 0.5 -8.5t-0.5 -6.5q-2 -5 -5 -10q-4 -5 -6 -7q-8 -5 -10 -5q-3 -2 -5.5 -2.5t-3.5 -2.5l21 -56l-15 1q-1 2 -3 3.5t-3 1.5q-4 2 -5 9l-19 46l-15 4zM977 1379l-10 -31l25 -7h3h2 q3 0 4 1t4 1q2 0 2 1.5v1.5q5 5 5 7v7v3t-1 3q-1 2 -2.5 2.5t-1.5 2.5q-3 3 -6 3zM1037 1321q0 5 2.5 8.5t6.5 6.5q1 3 4.5 5.5t6.5 4.5q3 3 6.5 4t8.5 3q4 3 14 3h15q9 -1 16 -6q8 -4 15 -9q3 -3 5.5 -6.5t4.5 -4.5l3.5 -7l3.5 -7q1 -5 2 -8t1 -7v-8t-2 -8q-1 -4 -2 -7.5 t-3 -7.5q-3 -4 -4 -7t-4 -7q-3 -3 -6.5 -5t-4.5 -6q-4 -2 -7 -4t-7 -5q-6 0 -16 -1q-12 0 -17 1q-5 0 -15 5q-12 5 -18 15q-9 9 -14 20q-1 7 -1 12v12q0 11 6 21zM1054 1315q-2 -4 -2.5 -6.5t-2.5 -5.5v-10q0 -2 1 -5t2 -5q0 -7 4 -10q1 -2 3 -4.5t3 -2.5q4 -5 10 -6 q7 -4 10 -4h12h12q4 5 8 5q3 2 5 3.5t3 3.5q3 3 4 5.5t3 4.5q2 3 2.5 7.5t0.5 9.5v7.5v7.5q-2 4 -4.5 7.5t-5.5 5.5q-6 7 -13 10q-2 2 -5 2.5t-7 0.5h-10q-6 0 -10 -1q-3 -2 -5 -3t-5 -1q-1 -2 -3 -4t-3 -4zM1222 1290l10 -9q0 -1 1.5 -3t3.5 -3q0 -5 -2 -9l-28 -85l83 38 q1 1 7 1q5 0 7 -4l10 -7l-117 -54l-15 11zM1279 1064l-47 56l90 76l49 -56l-14 -14l-37 44l-23 -19l29 -36l-16 -11l-28 35l-23 -21l35 -42zM1294 1039l-9 16l101 61l23 -37q2 -3 2.5 -6t2.5 -8q2 -7 -2 -12q-2 -9 -5 -13l-4.5 -4.5t-6.5 -5.5q-4 -1 -5.5 -1.5t-4.5 -2.5 q-4 0 -5.5 -0.5t-4.5 0.5q-4 0 -10 3q-4 1 -5.5 1.5t-3.5 3.5l-23 -59l-9 13q-4 2 -4 7q0 6 3 9l20 47l-8 13zM1381 1089l-29 -16l13 -19q2 -5 4 -6q1 0 6 -3h6q1 0 5 3q1 0 6 3q0 3 1 4t1 3q1 1 1 6q-1 1 -1 2.5t-2 3.5zM1436 969q1 1 1 7q0 4 -1 5q-2 3 -2 7q-3 0 -5 3 q-2 2 -5 2q-3 1 -5 0l-2.5 -2.5l-1.5 -1.5l-2 -2l-2 -2v-7v-10v-3v-2v-10q0 -2 -0.5 -4.5t-0.5 -4.5q-4 -14 -19 -21q-4 -2 -7.5 -3t-8.5 1q-6 0 -14 2q-4 3 -7 5t-5 6q-3 2 -5 5.5t-4 6.5q-3 10 -3 15q0 4 3 14q0 3 2 5l3 4q0 4 2 4q4 2 3 2l4 -2q3 -5 5 -7q0 -1 0.5 -2 t0.5 -3q0 -3 -3 -6v-1v-8q0 -5 2 -8q0 -2 1 -3t2 -4q2 0 3.5 -1.5l3.5 -3.5h2t4 -2h4.5t4.5 2q2 0 5 3q2 4 2 5q1 2 1 7v8v4v12q0 8 2 13q1 2 2 4.5t4 5.5q2 2 4.5 3.5t6.5 3.5q8 3 14 1q6 0 12 -3q3 -2 6.5 -3.5t5.5 -5.5q3 -3 6 -11q2 -7 2 -10q0 -7 -1 -10q0 -4 -4 -10 v-4.5t-2 -3.5l-6 4q-3 1 -4 2.5t-3 3.5q-1 3 -1 6v3zM1364 881l-5 18l113 34l5 -19zM1427 881h19q6 0 14 -5q4 0 7.5 -2.5t4.5 -4.5q4 -3 7 -5.5t6 -5.5q4 -8 7 -12q3 -8 5 -18v-15q-2 -10 -5 -15q-1 -5 -3 -8.5t-4 -6.5l-10 -10q-4 -4 -7.5 -5.5t-6.5 -2.5q-7 -4 -15 -4 q-10 -1 -19 0q-8 0 -15 4q-2 1 -6 2.5t-7 3.5q-3 3 -5.5 6.5t-4.5 5.5q-7 5 -8 15q-2 3 -3.5 6.5t-1.5 8.5q-1 13 1 23q5 13 10 20q7 10 18 17q5 3 11 5.5t11 2.5zM1430 861q-8 0 -10 -3q-5 -2 -10 -5q-4 -2 -6 -7q-5 -5 -5 -10q-2 -1 -2.5 -4t-1.5 -6v-10q2 -8 4 -11 q0 -6 5 -9q1 -3 3 -5t3 -5q2 0 4.5 -1.5t5.5 -3.5q2 -1 4.5 -1h5.5q5 -4 11 0q11 0 16 5q5 1 13 11q6 8 6 15q3 7 1 15q0 7 -2 10q-3 4 -3.5 6t-1.5 4q-3 2 -4.5 3.5l-3.5 3.5q-5 3 -10 5q-3 3 -11 3q-4 3 -11 0zM1377 645l2 16l96 60l-91 5l1 20l117 -10v-11q0 -5 -1 -9 q-4 -2 -4 -5l-81 -50l81 -6l-1 -19z" />
<glyph unicode="9" d="M822 308q82 0 155 30t130 78h-570q58 -48 130 -78t155 -30zM586 463h564q45 55 70 124t25 147q0 80 -26.5 150t-81.5 139zM822 1251q-105 0 -198 -40t-163.5 -109t-112.5 -163.5t-42 -204.5q0 -103 39.5 -196t108 -163.5t163.5 -112.5t205 -42q35 0 70 5.5t68 15.5 q77 23 146 68t120 108.5t80.5 143.5t29.5 173q0 101 -38.5 194t-107 165t-163.5 115t-205 43zM822 260q-100 0 -186 38t-150 103t-99.5 151.5t-35.5 181.5q0 94 35 179.5t98 151t149.5 103.5t188.5 38q67 0 124 -16q71 -19 134.5 -60t111 -100t75 -134t27.5 -162 q0 -98 -37 -184.5t-101.5 -151t-150.5 -101.5t-183 -37zM492 1004q-45 -55 -70.5 -122.5t-25.5 -147.5q0 -83 28 -155.5t78 -130.5l555 556h-565zM822 1161q-83 0 -155.5 -29t-130.5 -81h566q-55 50 -126.5 80t-153.5 30zM972 191l-90 -16l4 -26l34 6l16 -89l26 5l-16 89 l31 6zM1072 156q-1 7 -8 9l-12 5h-15h-6h-9h-2v1q-3 3 -3 4l-2 1q2 0 2 4v1h3h5v4h1h5h3q3 0 3 1h9q0 3 0.5 4l0.5 1l5 10l-6 4q-9 4 -12 4q-2 0 -4.5 1t-4.5 1q-4 0 -6 -1t-4 -1l-13 -8q-2 -1 -4 -3.5t-3 -6.5q-8 -6 -8 -15v-4t3 -7q2 -9 10 -14q1 0 3.5 -1.5t3.5 -3.5 q4 0 7 -1t6 -1h12h10h2q2 0 3 -3q4 0 4 -1h3v-5q0 -2 -1 -3t-1 -2v-1q-1 0 -2 -2.5t-3 -2.5q-1 -3 -5 -3h-2.5h-2.5h-3.5h-2.5h-6h-8l-5 -1v-2t-1 -2l-5 -7q1 -4 3 -6t3 -4q4 -1 7 -2t7 -1q8 -3 11 -2q4 0 8 1t7 1l7 3.5t8 4.5l5.5 5.5t4.5 6.5q0 5 2.5 7.5t2.5 7.5 t-0.5 8.5t-4.5 6.5q0 8 -5 10zM1122 151q-1 4 -3 4t-3.5 0.5t-3.5 0.5q-1 -1 -6 -1l-7 -4q-2 -1 -2 -3v-2q-1 -2 -1 -5v-1q0 -4 1 -4v-1q0 -6 4 -6q1 -5 6 -5h7q5 0 7 2q1 2 3 2.5t2 2.5v2q0 2 1 2l4 3v2q0 6 -5 6zM846 99q-1 0 -1 4q0 1 -1.5 1t-1.5 1q0 4 -1 4l-41 60 q0 1 -3 2q-1 3 -8 3h-9h-14l3 -119l27 1v79l51 -79h25v118h-30zM599 189l48 -18l8 25l-73 25l-41 -105l26 -11l15 41l38 -15l10 25l-38 15zM747 160l-8 11q-3 3 -6.5 5t-7.5 4q-4 1 -7 2t-8 3q-5 1 -9 1h-7q-10 0 -14 -5q-4 0 -7.5 -1t-7.5 -4l-11 -10q-4 -8 -10 -11 q-2 -5 -3.5 -8.5t-1.5 -6.5v-19l3 -15l5 -12l12 -11q3 -4 7 -5.5t6 -3.5q7 -4 15 -4q5 -1 8.5 -1h6.5q5 0 14 2q4 2 8.5 3t6.5 4q6 2 11 10l9 11q4 7 6 17v15q0 3 -0.5 6.5t-2.5 8.5l-3 7.5t-4 6.5zM730 121q0 -3 -1.5 -6.5t-3.5 -5.5l-4.5 -6t-4.5 -4q-4 -1 -6.5 -2 t-5.5 -1q-7 -3 -12 0q-3 0 -6.5 1t-5.5 2l-8 10q-2 2 -2.5 5.5t-0.5 6.5q-3 5 0 14q0 6 5 11l6 9l12 5h12l12 -5l9 -9q2 -3 3.5 -5t1.5 -6q2 -9 0 -14zM1309 460q-2 -2 -3 -4t-1 -6q0 -2 1 -4t3 -5l40 -57l-69 10h-10l-9 -6l-9 -17l97 -65l16 23l-46 32l60 -12l11 20l-33 50 l47 -30l15 24l-98 63zM1296 333l-14 13l-15 3q-3 2 -15 2h-6.5t-8.5 -2l-12 -3q-4 -3 -8.5 -6.5t-6.5 -6.5q-3 -3 -4.5 -6t-3.5 -6q-3 -3 -4 -6.5t-3 -8.5q0 -3 -1.5 -6.5t-1.5 -8.5v-6t3 -9l4 -13l10 -12l13 -10q5 -1 7.5 -3.5t7.5 -2.5t8.5 -2t6.5 -2t6.5 2t8.5 2 q3 0 6.5 2.5t7.5 3.5q6 3 13 10l10 12q1 2 3 5t2 8q1 5 1 15v15l-6 13q-2 4 -5 9zM1282 280q-3 -9 -7 -10q-8 -7 -10 -9q-3 -1 -6.5 -1h-6.5t-6.5 0.5t-4.5 0.5l-11 9q-4 4 -8 11v10v12q4 8 8 12l11 8q3 0 6 0.5t5 0.5q5 0 13 -3q2 -1 4.5 -3t5.5 -5q2 -2 4 -4.5t3 -5.5 q3 -3 3 -12q0 -2 -1.5 -6.5zM1209 220l-7 -4q-2 0 -3.5 -2.5t-1.5 -4.5l-5 -9l-8 -6q-4 -3 -6 -4t-6 -1q-6 -3 -12 0q-3 2 -5.5 2t-5.5 3q-7 4 -7 11q-5 1 -5 11q-5 3 0 14v3.5t2 7.5q2 2 4 3.5t4 3.5q8 3 10 3q3 2 10 2q2 0 10 3q2 4 5 5l2 7v8q-3 5 -12 5h-13l-14 -5 l-11 -5q-2 -2 -5.5 -4.5t-6.5 -6.5q-2 -2 -4 -5.5t-4 -8.5l-7 -15v-15q0 -5 2 -7.5t2 -7.5l6 -15q3 -3 6 -5t4 -5l15 -10l12 -2q5 -3 16 -3q4 0 7 1.5t7 2.5q5 1 8.5 3.5t6.5 5.5l5 2.5t5 4.5q3 0 5 3.5t5 6.5l3 14q5 4 5 13l-12 2h-6zM519 260l-102 -74l15 -10h2.5h2.5 q3 0 3.5 -0.5t1.5 0.5h5h5l10 10l40 -22l-2 -15v-5q0 -3 1 -3q0 -1 1 -1v-4q0 -1 2 -1l3 -4l17 -10l17 125zM507 218v-2v-3l-1 -22l-19 10l17 15h2h1v2v1h2q1 1 2 1zM477 255l18 20l-69 59l-20 -21l26 -22l-57 -66l20 -19l60 70zM257 411l83 -10h6q1 0 2 1t3 1l11 8l-45 77 l-23 -14l26 -44l-83 9q-1 0 -4.5 -0.5t-7.5 -3.5l-10 -5l45 -79l22 15zM357 303l22 18l-27 30l14 12l31 -39l20 17l-48 60l-90 -75l51 -58l19 18l-32 37l17 11zM191 741l50 4q1 -2 3.5 -4t4.5 -5q2 -1 3.5 -4t1.5 -6q1 -6 3 -11q0 -4 1 -6.5t1 -4.5q0 -8 -1 -14t-3 -11 q-1 -8 -4.5 -13t-6.5 -10q-7 -8 -19 -12q-11 -8 -23 -8h-17q-4 3 -7.5 4t-7.5 4q-4 1 -6.5 3t-6.5 4q-2 3 -5 6t-5 7q-2 2 -3.5 5.5t-3.5 6.5q-1 5 -2 9.5t-1 9.5v6.5v4.5q3 9 3 14q2 3 3.5 5.5t3.5 5.5q2 2 3.5 5t3.5 5l3 -5q3 0 4 -1l1 -1q2 -3 2 -8v-3t-2 -3 q-5 -5 -5 -11v-13t3 -17q2 -4 4.5 -7t5.5 -6q5 -5 14 -7q7 -4 17 -3q6 0 11 3q3 1 5 1.5t4 3.5q1 2 3.5 3t5.5 4q1 2 2.5 3.5t3.5 4.5q0 4 0.5 6.5t2.5 5.5q1 4 1 10q-1 4 -2 7t-2 8q0 3 -5 10l-19 -1v-5v-5q0 -2 -2 -5q-1 -1 -2 -2.5t-2 -1.5q-2 -1 -6 -1h-6zM264 831 l-9 -75l-118 12l8 75l19 -2l-7 -55l30 -5l5 47l20 -2l-5 -45l32 -3l5 57zM164 851l-17 5l22 90l18 -5l-10 -37l98 -23l-4 -18l-97 23zM205 988l-18 8l42 83l16 -8l-15 -32l89 -45l-8 -18l-90 45zM392 1106l-11 -16l-40 30l-35 -47l41 -30l-11 -15l-97 70l11 15l40 -29l35 47 l-40 30l11 15zM456 1166l-54 -51l-83 86l53 53l14 -15l-39 -39l20 -21l33 31l12 -14l-31 -30l21 -23l40 38zM514 1290l10 -17l-39 -24l24 -43l-14 -10l-63 100l63 40l9 -15l-47 -30l18 -26zM562 1290q0 -7 5 -10q2 -4 10 -7q2 -2 5 -2h5q5 0 10 2q8 3 10 7q5 5 7 10 q1 1 1 10q0 6 -1 11l-27 67l17 8l28 -68q2 -5 2.5 -9t0.5 -9q0 -10 -3 -19q-2 -5 -4.5 -8t-7.5 -7q-3 -5 -6 -6.5t-8 -3.5t-9.5 -3.5t-9.5 -1.5q-8 0 -18 5q-5 2 -8.5 3.5t-6.5 6.5q-7 7 -10 15l-30 67l18 8zM662 1276l-30 117l20 5l23 -97l49 10l3 -20zM731 1291l-12 120 l20 2l10 -98l51 5v-20zM864 1296l-19 4l12 118l44 -5q6 0 14 -4q9 -5 11 -10q4 -3 6 -13q4 -7 3 -15q-3 -3 -3 -6.5t-2 -8.5q-6 -8 -9 -11q-4 -4 -14 -7q-3 -2 -13 -2l-25 4zM895 1356h7q3 0 7 5q3 0 3 5q2 2 4 8q0 5 -1 7t-2 3.5l-1 1.5q-2 3 -3.5 4t-2.5 1q-2 2 -3.5 2 t-2.5 1l-25 2l-5 -38zM951 1285l-19 5l30 113l44 -12q6 0 11 -5l10 -10q4 -5 4 -13q1 -5 0.5 -8.5t-0.5 -6.5q-2 -5 -5 -10q-4 -5 -6 -7q-8 -5 -10 -5q-3 -2 -5.5 -2.5t-3.5 -2.5l21 -56l-15 1q-1 2 -3 3.5t-3 1.5q-4 2 -5 9l-19 46l-15 4zM977 1379l-10 -31l25 -7h3h2 q3 0 4 1t4 1q2 0 2 1.5v1.5q5 5 5 7v7v3t-1 3q-1 2 -2.5 2.5t-1.5 2.5q-3 3 -6 3zM1037 1321q0 5 2.5 8.5t6.5 6.5q1 3 4.5 5.5t6.5 4.5q3 3 6.5 4t8.5 3q4 3 14 3h15q9 -1 16 -6q8 -4 15 -9q3 -3 5.5 -6.5t4.5 -4.5l3.5 -7l3.5 -7q1 -5 2 -8t1 -7v-8t-2 -8q-1 -4 -2 -7.5 t-3 -7.5q-3 -4 -4 -7t-4 -7q-3 -3 -6.5 -5t-4.5 -6q-4 -2 -7 -4t-7 -5q-6 0 -16 -1q-12 0 -17 1q-5 0 -15 5q-12 5 -18 15q-9 9 -14 20q-1 7 -1 12v12q0 11 6 21zM1054 1315q-2 -4 -2.5 -6.5t-2.5 -5.5v-10q0 -2 1 -5t2 -5q0 -7 4 -10q1 -2 3 -4.5t3 -2.5q4 -5 10 -6 q7 -4 10 -4h12h12q4 5 8 5q3 2 5 3.5t3 3.5q3 3 4 5.5t3 4.5q2 3 2.5 7.5t0.5 9.5v7.5v7.5q-2 4 -4.5 7.5t-5.5 5.5q-6 7 -13 10q-2 2 -5 2.5t-7 0.5h-10q-6 0 -10 -1q-3 -2 -5 -3t-5 -1q-1 -2 -3 -4t-3 -4zM1222 1290l10 -9q0 -1 1.5 -3t3.5 -3q0 -5 -2 -9l-28 -85l83 38 q1 1 7 1q5 0 7 -4l10 -7l-117 -54l-15 11zM1279 1064l-47 56l90 76l49 -56l-14 -14l-37 44l-23 -19l29 -36l-16 -11l-28 35l-23 -21l35 -42zM1294 1039l-9 16l101 61l23 -37q2 -3 2.5 -6t2.5 -8q2 -7 -2 -12q-2 -9 -5 -13l-4.5 -4.5t-6.5 -5.5q-4 -1 -5.5 -1.5t-4.5 -2.5 q-4 0 -5.5 -0.5t-4.5 0.5q-4 0 -10 3q-4 1 -5.5 1.5t-3.5 3.5l-23 -59l-9 13q-4 2 -4 7q0 6 3 9l20 47l-8 13zM1381 1089l-29 -16l13 -19q2 -5 4 -6q1 0 6 -3h6q1 0 5 3q1 0 6 3q0 3 1 4t1 3q1 1 1 6q-1 1 -1 2.5t-2 3.5zM1436 969q1 1 1 7q0 4 -1 5q-2 3 -2 7q-3 0 -5 3 q-2 2 -5 2q-3 1 -5 0l-2.5 -2.5l-1.5 -1.5l-2 -2l-2 -2v-7v-10v-3v-2v-10q0 -2 -0.5 -4.5t-0.5 -4.5q-4 -14 -19 -21q-4 -2 -7.5 -3t-8.5 1q-6 0 -14 2q-4 3 -7 5t-5 6q-3 2 -5 5.5t-4 6.5q-3 10 -3 15q0 4 3 14q0 3 2 5l3 4q0 4 2 4q4 2 3 2l4 -2q3 -5 5 -7q0 -1 0.5 -2 t0.5 -3q0 -3 -3 -6v-1v-8q0 -5 2 -8q0 -2 1 -3t2 -4q2 0 3.5 -1.5l3.5 -3.5h2t4 -2h4.5t4.5 2q2 0 5 3q2 4 2 5q1 2 1 7v8v4v12q0 8 2 13q1 2 2 4.5t4 5.5q2 2 4.5 3.5t6.5 3.5q8 3 14 1q6 0 12 -3q3 -2 6.5 -3.5t5.5 -5.5q3 -3 6 -11q2 -7 2 -10q0 -7 -1 -10q0 -4 -4 -10 v-4.5t-2 -3.5l-6 4q-3 1 -4 2.5t-3 3.5q-1 3 -1 6v3zM1364 881l-5 18l113 34l5 -19zM1427 881h19q6 0 14 -5q4 0 7.5 -2.5t4.5 -4.5q4 -3 7 -5.5t6 -5.5q4 -8 7 -12q3 -8 5 -18v-15q-2 -10 -5 -15q-1 -5 -3 -8.5t-4 -6.5l-10 -10q-4 -4 -7.5 -5.5t-6.5 -2.5q-7 -4 -15 -4 q-10 -1 -19 0q-8 0 -15 4q-2 1 -6 2.5t-7 3.5q-3 3 -5.5 6.5t-4.5 5.5q-7 5 -8 15q-2 3 -3.5 6.5t-1.5 8.5q-1 13 1 23q5 13 10 20q7 10 18 17q5 3 11 5.5t11 2.5zM1430 861q-8 0 -10 -3q-5 -2 -10 -5q-4 -2 -6 -7q-5 -5 -5 -10q-2 -1 -2.5 -4t-1.5 -6v-10q2 -8 4 -11 q0 -6 5 -9q1 -3 3 -5t3 -5q2 0 4.5 -1.5t5.5 -3.5q2 -1 4.5 -1h5.5q5 -4 11 0q11 0 16 5q5 1 13 11q6 8 6 15q3 7 1 15q0 7 -2 10q-3 4 -3.5 6t-1.5 4q-3 2 -4.5 3.5l-3.5 3.5q-5 3 -10 5q-3 3 -11 3q-4 3 -11 0zM1377 645l2 16l96 60l-91 5l1 20l117 -10v-11q0 -5 -1 -9 q-4 -2 -4 -5l-81 -50l81 -6l-1 -19z" />
<glyph unicode=":" horiz-adv-x="528" d="M171 48q0 25 17.5 42.5t42.5 17.5t42.5 -17.5t17.5 -42.5t-17.5 -42.5t-42.5 -17.5t-42.5 17.5t-17.5 42.5zM171 932q0 25 17.5 42.5t42.5 17.5t42.5 -17.5t17.5 -42.5t-17.5 -42.5t-42.5 -17.5t-42.5 17.5t-17.5 42.5z" />
<glyph unicode=";" horiz-adv-x="480" d="M171 932q0 25 17.5 42.5t42.5 17.5t42.5 -17.5t17.5 -42.5t-17.5 -42.5t-42.5 -17.5t-42.5 17.5t-17.5 42.5zM172 50q0 25 17.5 42.5t42.5 17.5q24 0 41 -17t19 -40v-42q0 -31 -6 -55t-15 -41t-19.5 -26t-19.5 -9q-5 0 -10 5l-12 10q-3 4 -3 9q0 6 4.5 12t10 14.5 t10 19.5t4.5 26v14h-4q-25 0 -42.5 17.5t-17.5 42.5z" />
<glyph unicode="&#x3c;" horiz-adv-x="720" d="M120 559q-1 0 -2 1l432 429q1 2 6.5 6t13.5 4q11 0 18.5 -7.5t7.5 -18.5t-7 -18l-397 -397l393 -393q3 -3 7 -8t4 -13q0 -11 -7.5 -18t-18.5 -7q-9 0 -17 6z" />
<glyph unicode="=" horiz-adv-x="981" d="M820 437q31 0 31 -29t-31 -29h-644q-29 0 -29 29t29 29h644zM820 704q31 0 31 -28q0 -29 -31 -29h-644q-29 0 -29 29q0 28 29 28h644z" />
<glyph unicode="&#x3e;" horiz-adv-x="726" d="M196 119q-8 -6 -17 -6q-11 0 -18.5 7t-7.5 18q0 8 4 13t7 8l393 393l-397 397q-7 7 -7 18t7.5 18.5t18.5 7.5q8 0 13.5 -4t6.5 -6l432 -429q-1 -1 -2 -1z" />
<glyph unicode="?" horiz-adv-x="1137" d="M561 319q0 -22 -29 -22q-28 0 -28 22v361l220 134q88 50 136.5 99.5t71.5 95.5t27.5 88t4.5 78q0 70 -33 133t-89.5 110.5t-132 75.5t-161.5 28q-89 0 -166.5 -28.5t-135.5 -81t-91.5 -126t-33.5 -162.5q0 -17 -10 -26t-21 -9t-20.5 8t-10.5 25q0 100 38.5 184t105 145 t155 95t188.5 34q107 0 194.5 -35t150 -92.5t96.5 -130.5t34 -149q0 -38 -6 -85.5t-32 -100t-79.5 -107.5t-148.5 -108l-194 -123v-330zM472 46q0 -25 17.5 -42.5t42.5 -17.5t42.5 17.5t17.5 42.5t-17.5 42.5t-42.5 17.5t-42.5 -17.5t-17.5 -42.5z" />
<glyph unicode="@" d="M822 308q82 0 155 30t130 78h-570q58 -48 130 -78t155 -30zM586 463h564q45 55 70 124t25 147q0 80 -26.5 150t-81.5 139zM822 1251q-105 0 -198 -40t-163.5 -109t-112.5 -163.5t-42 -204.5q0 -103 39.5 -196t108 -163.5t163.5 -112.5t205 -42q35 0 70 5.5t68 15.5 q77 23 146 68t120 108.5t80.5 143.5t29.5 173q0 101 -38.5 194t-107 165t-163.5 115t-205 43zM822 260q-100 0 -186 38t-150 103t-99.5 151.5t-35.5 181.5q0 94 35 179.5t98 151t149.5 103.5t188.5 38q67 0 124 -16q71 -19 134.5 -60t111 -100t75 -134t27.5 -162 q0 -98 -37 -184.5t-101.5 -151t-150.5 -101.5t-183 -37zM492 1004q-45 -55 -70.5 -122.5t-25.5 -147.5q0 -83 28 -155.5t78 -130.5l555 556h-565zM822 1161q-83 0 -155.5 -29t-130.5 -81h566q-55 50 -126.5 80t-153.5 30zM972 191l-90 -16l4 -26l34 6l16 -89l26 5l-16 89 l31 6zM1072 156q-1 7 -8 9l-12 5h-15h-6h-9h-2v1q-3 3 -3 4l-2 1q2 0 2 4v1h3h5v4h1h5h3q3 0 3 1h9q0 3 0.5 4l0.5 1l5 10l-6 4q-9 4 -12 4q-2 0 -4.5 1t-4.5 1q-4 0 -6 -1t-4 -1l-13 -8q-2 -1 -4 -3.5t-3 -6.5q-8 -6 -8 -15v-4t3 -7q2 -9 10 -14q1 0 3.5 -1.5t3.5 -3.5 q4 0 7 -1t6 -1h12h10h2q2 0 3 -3q4 0 4 -1h3v-5q0 -2 -1 -3t-1 -2v-1q-1 0 -2 -2.5t-3 -2.5q-1 -3 -5 -3h-2.5h-2.5h-3.5h-2.5h-6h-8l-5 -1v-2t-1 -2l-5 -7q1 -4 3 -6t3 -4q4 -1 7 -2t7 -1q8 -3 11 -2q4 0 8 1t7 1l7 3.5t8 4.5l5.5 5.5t4.5 6.5q0 5 2.5 7.5t2.5 7.5 t-0.5 8.5t-4.5 6.5q0 8 -5 10zM1122 151q-1 4 -3 4t-3.5 0.5t-3.5 0.5q-1 -1 -6 -1l-7 -4q-2 -1 -2 -3v-2q-1 -2 -1 -5v-1q0 -4 1 -4v-1q0 -6 4 -6q1 -5 6 -5h7q5 0 7 2q1 2 3 2.5t2 2.5v2q0 2 1 2l4 3v2q0 6 -5 6zM846 99q-1 0 -1 4q0 1 -1.5 1t-1.5 1q0 4 -1 4l-41 60 q0 1 -3 2q-1 3 -8 3h-9h-14l3 -119l27 1v79l51 -79h25v118h-30zM599 189l48 -18l8 25l-73 25l-41 -105l26 -11l15 41l38 -15l10 25l-38 15zM747 160l-8 11q-3 3 -6.5 5t-7.5 4q-4 1 -7 2t-8 3q-5 1 -9 1h-7q-10 0 -14 -5q-4 0 -7.5 -1t-7.5 -4l-11 -10q-4 -8 -10 -11 q-2 -5 -3.5 -8.5t-1.5 -6.5v-19l3 -15l5 -12l12 -11q3 -4 7 -5.5t6 -3.5q7 -4 15 -4q5 -1 8.5 -1h6.5q5 0 14 2q4 2 8.5 3t6.5 4q6 2 11 10l9 11q4 7 6 17v15q0 3 -0.5 6.5t-2.5 8.5l-3 7.5t-4 6.5zM730 121q0 -3 -1.5 -6.5t-3.5 -5.5l-4.5 -6t-4.5 -4q-4 -1 -6.5 -2 t-5.5 -1q-7 -3 -12 0q-3 0 -6.5 1t-5.5 2l-8 10q-2 2 -2.5 5.5t-0.5 6.5q-3 5 0 14q0 6 5 11l6 9l12 5h12l12 -5l9 -9q2 -3 3.5 -5t1.5 -6q2 -9 0 -14zM1309 460q-2 -2 -3 -4t-1 -6q0 -2 1 -4t3 -5l40 -57l-69 10h-10l-9 -6l-9 -17l97 -65l16 23l-46 32l60 -12l11 20l-33 50 l47 -30l15 24l-98 63zM1296 333l-14 13l-15 3q-3 2 -15 2h-6.5t-8.5 -2l-12 -3q-4 -3 -8.5 -6.5t-6.5 -6.5q-3 -3 -4.5 -6t-3.5 -6q-3 -3 -4 -6.5t-3 -8.5q0 -3 -1.5 -6.5t-1.5 -8.5v-6t3 -9l4 -13l10 -12l13 -10q5 -1 7.5 -3.5t7.5 -2.5t8.5 -2t6.5 -2t6.5 2t8.5 2 q3 0 6.5 2.5t7.5 3.5q6 3 13 10l10 12q1 2 3 5t2 8q1 5 1 15v15l-6 13q-2 4 -5 9zM1282 280q-3 -9 -7 -10q-8 -7 -10 -9q-3 -1 -6.5 -1h-6.5t-6.5 0.5t-4.5 0.5l-11 9q-4 4 -8 11v10v12q4 8 8 12l11 8q3 0 6 0.5t5 0.5q5 0 13 -3q2 -1 4.5 -3t5.5 -5q2 -2 4 -4.5t3 -5.5 q3 -3 3 -12q0 -2 -1.5 -6.5zM1209 220l-7 -4q-2 0 -3.5 -2.5t-1.5 -4.5l-5 -9l-8 -6q-4 -3 -6 -4t-6 -1q-6 -3 -12 0q-3 2 -5.5 2t-5.5 3q-7 4 -7 11q-5 1 -5 11q-5 3 0 14v3.5t2 7.5q2 2 4 3.5t4 3.5q8 3 10 3q3 2 10 2q2 0 10 3q2 4 5 5l2 7v8q-3 5 -12 5h-13l-14 -5 l-11 -5q-2 -2 -5.5 -4.5t-6.5 -6.5q-2 -2 -4 -5.5t-4 -8.5l-7 -15v-15q0 -5 2 -7.5t2 -7.5l6 -15q3 -3 6 -5t4 -5l15 -10l12 -2q5 -3 16 -3q4 0 7 1.5t7 2.5q5 1 8.5 3.5t6.5 5.5l5 2.5t5 4.5q3 0 5 3.5t5 6.5l3 14q5 4 5 13l-12 2h-6zM519 260l-102 -74l15 -10h2.5h2.5 q3 0 3.5 -0.5t1.5 0.5h5h5l10 10l40 -22l-2 -15v-5q0 -3 1 -3q0 -1 1 -1v-4q0 -1 2 -1l3 -4l17 -10l17 125zM507 218v-2v-3l-1 -22l-19 10l17 15h2h1v2v1h2q1 1 2 1zM477 255l18 20l-69 59l-20 -21l26 -22l-57 -66l20 -19l60 70zM257 411l83 -10h6q1 0 2 1t3 1l11 8l-45 77 l-23 -14l26 -44l-83 9q-1 0 -4.5 -0.5t-7.5 -3.5l-10 -5l45 -79l22 15zM357 303l22 18l-27 30l14 12l31 -39l20 17l-48 60l-90 -75l51 -58l19 18l-32 37l17 11zM191 741l50 4q1 -2 3.5 -4t4.5 -5q2 -1 3.5 -4t1.5 -6q1 -6 3 -11q0 -4 1 -6.5t1 -4.5q0 -8 -1 -14t-3 -11 q-1 -8 -4.5 -13t-6.5 -10q-7 -8 -19 -12q-11 -8 -23 -8h-17q-4 3 -7.5 4t-7.5 4q-4 1 -6.5 3t-6.5 4q-2 3 -5 6t-5 7q-2 2 -3.5 5.5t-3.5 6.5q-1 5 -2 9.5t-1 9.5v6.5v4.5q3 9 3 14q2 3 3.5 5.5t3.5 5.5q2 2 3.5 5t3.5 5l3 -5q3 0 4 -1l1 -1q2 -3 2 -8v-3t-2 -3 q-5 -5 -5 -11v-13t3 -17q2 -4 4.5 -7t5.5 -6q5 -5 14 -7q7 -4 17 -3q6 0 11 3q3 1 5 1.5t4 3.5q1 2 3.5 3t5.5 4q1 2 2.5 3.5t3.5 4.5q0 4 0.5 6.5t2.5 5.5q1 4 1 10q-1 4 -2 7t-2 8q0 3 -5 10l-19 -1v-5v-5q0 -2 -2 -5q-1 -1 -2 -2.5t-2 -1.5q-2 -1 -6 -1h-6zM264 831 l-9 -75l-118 12l8 75l19 -2l-7 -55l30 -5l5 47l20 -2l-5 -45l32 -3l5 57zM164 851l-17 5l22 90l18 -5l-10 -37l98 -23l-4 -18l-97 23zM205 988l-18 8l42 83l16 -8l-15 -32l89 -45l-8 -18l-90 45zM392 1106l-11 -16l-40 30l-35 -47l41 -30l-11 -15l-97 70l11 15l40 -29l35 47 l-40 30l11 15zM456 1166l-54 -51l-83 86l53 53l14 -15l-39 -39l20 -21l33 31l12 -14l-31 -30l21 -23l40 38zM514 1290l10 -17l-39 -24l24 -43l-14 -10l-63 100l63 40l9 -15l-47 -30l18 -26zM562 1290q0 -7 5 -10q2 -4 10 -7q2 -2 5 -2h5q5 0 10 2q8 3 10 7q5 5 7 10 q1 1 1 10q0 6 -1 11l-27 67l17 8l28 -68q2 -5 2.5 -9t0.5 -9q0 -10 -3 -19q-2 -5 -4.5 -8t-7.5 -7q-3 -5 -6 -6.5t-8 -3.5t-9.5 -3.5t-9.5 -1.5q-8 0 -18 5q-5 2 -8.5 3.5t-6.5 6.5q-7 7 -10 15l-30 67l18 8zM662 1276l-30 117l20 5l23 -97l49 10l3 -20zM731 1291l-12 120 l20 2l10 -98l51 5v-20zM864 1296l-19 4l12 118l44 -5q6 0 14 -4q9 -5 11 -10q4 -3 6 -13q4 -7 3 -15q-3 -3 -3 -6.5t-2 -8.5q-6 -8 -9 -11q-4 -4 -14 -7q-3 -2 -13 -2l-25 4zM895 1356h7q3 0 7 5q3 0 3 5q2 2 4 8q0 5 -1 7t-2 3.5l-1 1.5q-2 3 -3.5 4t-2.5 1q-2 2 -3.5 2 t-2.5 1l-25 2l-5 -38zM951 1285l-19 5l30 113l44 -12q6 0 11 -5l10 -10q4 -5 4 -13q1 -5 0.5 -8.5t-0.5 -6.5q-2 -5 -5 -10q-4 -5 -6 -7q-8 -5 -10 -5q-3 -2 -5.5 -2.5t-3.5 -2.5l21 -56l-15 1q-1 2 -3 3.5t-3 1.5q-4 2 -5 9l-19 46l-15 4zM977 1379l-10 -31l25 -7h3h2 q3 0 4 1t4 1q2 0 2 1.5v1.5q5 5 5 7v7v3t-1 3q-1 2 -2.5 2.5t-1.5 2.5q-3 3 -6 3zM1037 1321q0 5 2.5 8.5t6.5 6.5q1 3 4.5 5.5t6.5 4.5q3 3 6.5 4t8.5 3q4 3 14 3h15q9 -1 16 -6q8 -4 15 -9q3 -3 5.5 -6.5t4.5 -4.5l3.5 -7l3.5 -7q1 -5 2 -8t1 -7v-8t-2 -8q-1 -4 -2 -7.5 t-3 -7.5q-3 -4 -4 -7t-4 -7q-3 -3 -6.5 -5t-4.5 -6q-4 -2 -7 -4t-7 -5q-6 0 -16 -1q-12 0 -17 1q-5 0 -15 5q-12 5 -18 15q-9 9 -14 20q-1 7 -1 12v12q0 11 6 21zM1054 1315q-2 -4 -2.5 -6.5t-2.5 -5.5v-10q0 -2 1 -5t2 -5q0 -7 4 -10q1 -2 3 -4.5t3 -2.5q4 -5 10 -6 q7 -4 10 -4h12h12q4 5 8 5q3 2 5 3.5t3 3.5q3 3 4 5.5t3 4.5q2 3 2.5 7.5t0.5 9.5v7.5v7.5q-2 4 -4.5 7.5t-5.5 5.5q-6 7 -13 10q-2 2 -5 2.5t-7 0.5h-10q-6 0 -10 -1q-3 -2 -5 -3t-5 -1q-1 -2 -3 -4t-3 -4zM1222 1290l10 -9q0 -1 1.5 -3t3.5 -3q0 -5 -2 -9l-28 -85l83 38 q1 1 7 1q5 0 7 -4l10 -7l-117 -54l-15 11zM1279 1064l-47 56l90 76l49 -56l-14 -14l-37 44l-23 -19l29 -36l-16 -11l-28 35l-23 -21l35 -42zM1294 1039l-9 16l101 61l23 -37q2 -3 2.5 -6t2.5 -8q2 -7 -2 -12q-2 -9 -5 -13l-4.5 -4.5t-6.5 -5.5q-4 -1 -5.5 -1.5t-4.5 -2.5 q-4 0 -5.5 -0.5t-4.5 0.5q-4 0 -10 3q-4 1 -5.5 1.5t-3.5 3.5l-23 -59l-9 13q-4 2 -4 7q0 6 3 9l20 47l-8 13zM1381 1089l-29 -16l13 -19q2 -5 4 -6q1 0 6 -3h6q1 0 5 3q1 0 6 3q0 3 1 4t1 3q1 1 1 6q-1 1 -1 2.5t-2 3.5zM1436 969q1 1 1 7q0 4 -1 5q-2 3 -2 7q-3 0 -5 3 q-2 2 -5 2q-3 1 -5 0l-2.5 -2.5l-1.5 -1.5l-2 -2l-2 -2v-7v-10v-3v-2v-10q0 -2 -0.5 -4.5t-0.5 -4.5q-4 -14 -19 -21q-4 -2 -7.5 -3t-8.5 1q-6 0 -14 2q-4 3 -7 5t-5 6q-3 2 -5 5.5t-4 6.5q-3 10 -3 15q0 4 3 14q0 3 2 5l3 4q0 4 2 4q4 2 3 2l4 -2q3 -5 5 -7q0 -1 0.5 -2 t0.5 -3q0 -3 -3 -6v-1v-8q0 -5 2 -8q0 -2 1 -3t2 -4q2 0 3.5 -1.5l3.5 -3.5h2t4 -2h4.5t4.5 2q2 0 5 3q2 4 2 5q1 2 1 7v8v4v12q0 8 2 13q1 2 2 4.5t4 5.5q2 2 4.5 3.5t6.5 3.5q8 3 14 1q6 0 12 -3q3 -2 6.5 -3.5t5.5 -5.5q3 -3 6 -11q2 -7 2 -10q0 -7 -1 -10q0 -4 -4 -10 v-4.5t-2 -3.5l-6 4q-3 1 -4 2.5t-3 3.5q-1 3 -1 6v3zM1364 881l-5 18l113 34l5 -19zM1427 881h19q6 0 14 -5q4 0 7.5 -2.5t4.5 -4.5q4 -3 7 -5.5t6 -5.5q4 -8 7 -12q3 -8 5 -18v-15q-2 -10 -5 -15q-1 -5 -3 -8.5t-4 -6.5l-10 -10q-4 -4 -7.5 -5.5t-6.5 -2.5q-7 -4 -15 -4 q-10 -1 -19 0q-8 0 -15 4q-2 1 -6 2.5t-7 3.5q-3 3 -5.5 6.5t-4.5 5.5q-7 5 -8 15q-2 3 -3.5 6.5t-1.5 8.5q-1 13 1 23q5 13 10 20q7 10 18 17q5 3 11 5.5t11 2.5zM1430 861q-8 0 -10 -3q-5 -2 -10 -5q-4 -2 -6 -7q-5 -5 -5 -10q-2 -1 -2.5 -4t-1.5 -6v-10q2 -8 4 -11 q0 -6 5 -9q1 -3 3 -5t3 -5q2 0 4.5 -1.5t5.5 -3.5q2 -1 4.5 -1h5.5q5 -4 11 0q11 0 16 5q5 1 13 11q6 8 6 15q3 7 1 15q0 7 -2 10q-3 4 -3.5 6t-1.5 4q-3 2 -4.5 3.5l-3.5 3.5q-5 3 -10 5q-3 3 -11 3q-4 3 -11 0zM1377 645l2 16l96 60l-91 5l1 20l117 -10v-11q0 -5 -1 -9 q-4 -2 -4 -5l-81 -50l81 -6l-1 -19z" />
<glyph unicode="A" horiz-adv-x="1405" d="M123 20q-5 -11 -9 -16t-12 -4q-17 0 -26 8t-9 16q0 6 3 14l603 1441q7 15 20 15h12q8 0 14 -4.5t9 -15.5l600 -1434q4 -8 4 -16t-11 -16t-25 -8q-12 0 -18 16l-94 225h-969zM239 298h921l-461 1099z" />
<glyph unicode="B" horiz-adv-x="1334" d="M786 1486q79 0 148.5 -28.5t121.5 -78t82 -118t30 -147.5q0 -56 -15.5 -106t-43 -92t-65.5 -76t-84 -58q60 -17 111.5 -56t89.5 -92t59.5 -116.5t21.5 -129.5q0 -77 -29 -146.5t-79.5 -122t-118 -84.5t-143.5 -35h-694q-8 2 -11 6t-5 8v1444q0 12 3 18t6.5 8t7 2h3.5h604 zM1186 386q0 67 -27 131t-72 114t-104 80.5t-123 30.5h-642v-686h656l-2 -1v-1q64 4 121.5 31t100 72t67.5 103.5t25 125.5zM1114 1112q0 67 -26 125.5t-70.5 101t-104.5 67t-127 24.5h-568v-632h568q67 0 127 23.5t104.5 65.5t70.5 99.5t26 125.5z" />
<glyph unicode="C" horiz-adv-x="1437" d="M1348 1326q15 -11 15 -23q0 -11 -10.5 -23t-21.5 -12t-21 10q-94 78 -206.5 120t-239.5 42q-97 0 -186 -25t-166.5 -70.5t-141 -109.5t-109 -142t-70.5 -167.5t-25 -185.5t25 -185t70.5 -166t109 -141t141 -109t166.5 -70t186 -25q127 0 239.5 42.5t206.5 117.5 q10 9 21 9q12 0 22 -12t10 -23q0 -12 -15 -22q-101 -81 -222.5 -127.5t-261.5 -46.5q-105 0 -202 27t-181 76.5t-153.5 118.5t-118.5 153.5t-76 181.5t-27 201t27 201.5t76 182t118.5 154t153.5 119.5t181 77.5t202 27.5q140 0 261.5 -47.5t222.5 -128.5z" />
<glyph unicode="D" horiz-adv-x="1530" d="M166 1458q0 25 20 28h494q101 -2 195.5 -29.5t176.5 -76t149.5 -116t115.5 -149.5t74.5 -177t26.5 -198q0 -104 -27 -199t-76 -177t-117.5 -149t-152.5 -115t-180 -74t-199 -26h-470q-8 0 -12.5 1t-7.5 3l-4 4q-6 3 -6 12v1438zM666 56q95 0 183.5 24.5t165.5 69 t140.5 107t109 138.5t70.5 163t25 182t-25 183.5t-70.5 165t-109 139.5t-140.5 108t-165.5 69.5t-183.5 24.5h-442v-1374h442z" />
<glyph unicode="E" horiz-adv-x="1299" d="M1162 1486q30 0 30 -28t-30 -28h-940v-822h770q32 0 32 -30q0 -28 -32 -28h-770v-494h962q30 0 30 -28t-30 -28h-1000q-11 0 -15.5 9t-4.5 19v1430q0 12 3.5 18t8 8.5t10 2t8.5 -0.5h968z" />
<glyph unicode="F" horiz-adv-x="1254" d="M1152 1486q32 0 32 -28t-32 -28h-930v-824h762q30 0 30 -30q0 -28 -30 -28h-762v-520q0 -28 -28 -28t-28 28v1430q0 19 10 24q8 4 18 4h958z" />
<glyph unicode="G" horiz-adv-x="1508" d="M1342 619q25 0 28 -25v-418q-2 -8 -5.5 -13.5t-12.5 -8.5q-100 -80 -221.5 -126t-260.5 -46q-105 0 -202 27t-181 76.5t-153.5 118.5t-118.5 153.5t-76 181t-27 201.5q0 104 27 201.5t76 182t118.5 154t153.5 119.5t181 77.5t202 27.5q140 0 262 -47.5t222 -128.5 q15 -11 15 -23q0 -11 -10.5 -23t-21.5 -12t-21 10q-94 78 -206.5 120t-239.5 42q-96 0 -185 -25t-166.5 -70.5t-141.5 -109.5t-109.5 -142t-70.5 -167.5t-25 -185.5t25 -185t70.5 -167t109.5 -142t141.5 -110t166.5 -71t185 -25q124 0 236 41.5t206 112.5v368h-440 q-29 0 -29 28q0 29 29 29h470z" />
<glyph unicode="H" horiz-adv-x="1514" d="M1290 1458q0 28 28 28q30 0 30 -28v-1430q0 -28 -30 -28q-28 0 -28 28v522h-1072v-522q0 -28 -28 -28t-28 28v1430q0 28 28 28t28 -28v-850h1072v850z" />
<glyph unicode="I" horiz-adv-x="373" d="M163 1458q0 28 30 28q28 0 28 -28v-1430q0 -28 -28 -28q-30 0 -30 28v1430z" />
<glyph unicode="J" horiz-adv-x="778" d="M568 1458q0 28 28 28t28 -28v-1146v-6t-2 -8q-4 -71 -31.5 -128t-72.5 -97.5t-104 -62.5t-126 -22q-71 0 -138 20.5t-108 65.5q-16 19 -16 32q0 6 6 12q16 16 26 16q11 0 20 -12q13 -14 31.5 -27.5t44 -24t57.5 -17.5t73 -7q64 0 115 23.5t87.5 62t57.5 86.5t24 98v1142z " />
<glyph unicode="K" horiz-adv-x="1346" d="M632 1024l-414 -356v-640q0 -28 -28 -28t-28 28v1430q0 28 28 28t28 -28v-716l856 738q10 8 19 8q10 0 20 -11.5t10 -20.5q0 -11 -11 -20l-434 -374l606 -1022q5 -12 5 -17q0 -9 -11 -19t-23 -10q-11 0 -21 16z" />
<glyph unicode="L" horiz-adv-x="1124" d="M1014 56q30 0 30 -28t-30 -28h-828q-19 0 -24 8q-6 6 -6 20v1430q0 28 30 28q28 0 28 -28v-1402h800z" />
<glyph unicode="M" horiz-adv-x="1794" d="M900 90l648 1424q6 14 20 14q26 0 32 -34l120 -1460q0 -12 -6 -24t-20 -12t-22 8.5t-8 23.5l-112 1356l-626 -1380q-9 -22 -28 -22q-17 0 -26 22l-626 1380l-112 -1356q0 -15 -8 -23.5t-22 -8.5t-20 12t-6 24l120 1460q6 34 32 34q14 0 20 -14l648 -1424l1 -3z" />
<glyph unicode="N" horiz-adv-x="1544" d="M1322 1458q0 28 28 28t28 -28v-1476q-3 -22 -26 -22q-12 0 -17.5 3.5t-10.5 8.5l-1104 1428v-1372q0 -28 -28 -28q-30 0 -30 28v1460q0 28 22 28q9 0 13.5 -2t10.5 -8l1114 -1430v1382z" />
<glyph unicode="O" horiz-adv-x="1720" d="M81 742q0 104 27 201t76 181.5t118.5 154t153.5 119t181 77t202 27.5q157 0 295 -60t241.5 -163.5t163.5 -241.5t60 -295q0 -105 -27.5 -202t-77 -181t-119 -153.5t-154 -118.5t-181.5 -76t-201 -27q-105 0 -202 27t-181 76t-153.5 118.5t-118.5 153.5t-76 181t-27 202z M141 742q0 -144 55 -271t150 -222t222 -150t271 -55q96 0 185 25t167 70.5t142 109.5t110 141.5t71 166.5t25 185t-25 185t-71 167t-110 142t-142 110t-167 71t-185 25t-185 -25t-166.5 -71t-141.5 -110t-109.5 -142t-70.5 -167t-25 -185z" />
<glyph unicode="P" horiz-adv-x="1238" d="M1130 914q0 -64 -15.5 -130.5t-47.5 -130t-79.5 -120t-111 -98.5t-143.5 -66.5t-177 -24.5h-338v-316q0 -28 -28 -28t-28 28v1430q0 17 8 22l12 6h374q96 0 176.5 -24.5t144 -67t111 -98.5t79.5 -119.5t47.5 -131t15.5 -131.5zM556 402q88 0 161 22t131 60.5t101 89 t71 107.5t42 117t14 116q0 57 -14 117.5t-42 117.5t-71 108.5t-101 89.5t-131 60.5t-161 22.5h-338v-1028h338z" />
<glyph unicode="Q" horiz-adv-x="1720" d="M81 742q0 104 27 201t76 181.5t118.5 154t153.5 119t181 77t202 27.5q157 0 295 -60t241.5 -163.5t163.5 -241.5t60 -295q0 -103 -26 -198t-74 -178t-114.5 -151.5t-148 -118t-175 -78t-194.5 -32.5v-208q0 -30 -28 -30t-28 30v208q-102 3 -195.5 32t-175 78.5 t-147.5 118t-113.5 151.5t-73 178t-25.5 198zM141 742q0 -144 55 -271t150 -222t222 -150t271 -55q96 0 185 25t167 70.5t142 109.5t110 141.5t71 166.5t25 185t-25 185t-71 167t-110 142t-142 110t-167 71t-185 25t-185 -25t-166.5 -71t-141.5 -110t-109.5 -142t-70.5 -167 t-25 -185z" />
<glyph unicode="R" horiz-adv-x="1324" d="M1218 944q0 -67 -16.5 -134.5t-50.5 -129.5t-85 -115.5t-120 -90.5l204 -430q9 -15 2.5 -28.5t-26.5 -15.5q-15 0 -26.5 9.5t-19.5 32.5l-192 404q-102 -42 -234 -42h-438v-376q0 -28 -28 -28t-28 28v1430q0 17 8 22l12 6h474q145 0 251 -48.5t175.5 -126.5t103.5 -174.5 t34 -192.5zM654 462q88 0 160 20t128.5 54.5t97.5 81.5t67.5 100.5t39.5 111.5t13 114q0 57 -13 115t-39.5 112t-67.5 101.5t-97.5 82.5t-128.5 55t-160 20h-438v-968h438z" />
<glyph unicode="S" horiz-adv-x="1206" d="M112 246q0 14 6 23t20 9q7 0 12.5 -6t11.5 -15q34 -52 78.5 -94t98 -72t115.5 -46t132 -16q87 0 168.5 20t144.5 65t101 116.5t38 175.5q0 74 -37 125t-97.5 88t-138 64t-158 54t-158 58t-138 75t-97.5 106t-37 151q0 95 33 168t90.5 123t135 75.5t166.5 25.5 q108 0 209 -43t182 -137q7 -8 8 -12.5t1 -10.5q0 -10 -6.5 -17.5t-14.5 -7.5t-14 5t-17 16q-38 37 -75.5 65t-79 47t-89 28.5t-104.5 9.5q-83 0 -152 -24.5t-118.5 -69t-77 -106t-27.5 -135.5q0 -77 37 -131t98 -93t138.5 -67.5t159 -55.5t159 -57.5t138.5 -72.5t98 -101 t37 -143q0 -113 -41.5 -195t-111 -135.5t-161.5 -79.5t-192 -26q-65 0 -129 13.5t-124 43.5t-113.5 77t-95.5 115q-5 8 -8.5 13t-3.5 14z" />
<glyph unicode="T" horiz-adv-x="1124" d="M1038 1486q32 0 32 -28t-32 -28h-452v-1402q0 -28 -28 -28t-28 28v1402h-466q-28 0 -28 28t28 28h974z" />
<glyph unicode="U" horiz-adv-x="1492" d="M168 582q0 -115 43 -215t117.5 -174.5t174.5 -117.5t215 -43t215 43t174.5 117.5t117.5 174.5t43 215v876q0 28 30 28q28 0 28 -28v-884q-1 -83 -23 -159.5t-61.5 -143t-95 -121t-122.5 -93.5t-144.5 -60t-161.5 -21q-126 0 -236.5 47.5t-192.5 129.5t-129.5 192.5 t-47.5 236.5v876q0 28 28 28t28 -28v-876z" />
<glyph unicode="V" horiz-adv-x="1372" d="M1244 1472q6 20 20 20q15 0 25 -8.5t10 -16.5q0 -6 -3 -13l-602 -1482q-8 -15 -21 -15q-1 0 -2 0.5t-3 0.5t-3 -0.5t-3 -0.5q-17 0 -24 21l-600 1474q-4 8 -4 15q0 8 12 16t25 8q11 0 17 -15l580 -1422z" />
<glyph unicode="W" horiz-adv-x="2070" d="M1030 954l196 518q6 20 20 20q15 0 25 -8.5t10 -16.5q0 -6 -3 -13l-220 -570l332 -830l576 1418q6 20 21 20q17 0 26 -8.5t9 -16.5t-2 -13l-604 -1482q-4 -8 -8 -11.5t-12 -3.5q-2 0 -3 0.5t-3 0.5t-3 -0.5t-3 -0.5q-18 0 -22 21l-336 834l-332 -840q-4 -8 -8 -11.5 t-12 -3.5q-2 0 -3 0.5t-3 0.5t-3 -0.5t-3 -0.5q-8 0 -14 5t-8 16l-600 1474q-5 7 -5 16q0 8 12 15.5t24 7.5q13 0 19 -15l578 -1422l330 828z" />
<glyph unicode="X" horiz-adv-x="1148" d="M1032 1476q9 14 22 14q11 0 21.5 -9t10.5 -20q0 -9 -6 -19l-476 -698l476 -698q6 -11 6 -18q0 -10 -9 -19t-23 -9q-13 0 -22 12l-462 680l-460 -680q-11 -12 -22 -12q-10 0 -21.5 8t-11.5 19q0 9 7 19l472 698l-472 698q-7 10 -7 19q0 11 12.5 20t21.5 9q10 0 21 -14 l460 -680z" />
<glyph unicode="Y" horiz-adv-x="1192" d="M1062 1476q11 14 22 14t22.5 -9t11.5 -20q0 -8 -8 -19l-490 -820v-594q0 -28 -28 -28q-30 0 -30 28v592l-492 822q-7 10 -7 18q0 12 12.5 21t21.5 9q12 0 21 -14l472 -792z" />
<glyph unicode="Z" horiz-adv-x="1192" d="M1086 56q28 0 28 -28t-28 -28h-1011q-30 0 -30 23q0 7 4 14.5t8 12.5l960 1380h-877q-30 0 -30 28t30 28h926q25 0 28 -26v-2q0 -6 -4 -12.5t-8 -11.5l-958 -1378h962z" />
<glyph unicode="[" horiz-adv-x="485" d="M167 1712q0 22 22 22h264q10 0 17 -6t7 -16v-11q0 -25 -24 -25h-229v-1898h229q10 0 17 -6t7 -16v-13q-2 -12 -7 -17t-17 -5h-264q-22 0 -22 22v1969z" />
<glyph unicode="\" horiz-adv-x="710" d="M35 1452q-4 8 -4 15q0 8 11 16.5t25 8.5q11 0 19 -16l563 -1441q3 -8 3 -13q0 -8 -9 -16.5t-25 -8.5q-15 0 -22 21z" />
<glyph unicode="]" horiz-adv-x="505" d="M317 -257q0 -22 -22 -22h-264q-12 0 -17 5t-7 17v13q0 10 7 16t17 6h229v1898h-229q-24 0 -24 25v11q0 10 7 16t17 6h264q22 0 22 -22v-1969z" />
<glyph unicode="^" horiz-adv-x="823" d="M475 1611q6 6 13 6q8 0 16 -8l299 -299q6 -6 6 -14q0 -9 -8 -17l-9 -9q-6 -8 -15 -8q-8 0 -16 8l-270 273l-269 -275q-7 -7 -15 -7q-11 0 -18 9l-8 7q-6 9 -6 16q0 8 6 17z" />
<glyph unicode="_" horiz-adv-x="924" d="M932 -122q31 0 31 -28q0 -29 -31 -29h-930q-29 0 -29 29q0 28 29 28h930z" />
<glyph unicode="`" horiz-adv-x="527" d="M161 1440q-5 10 -5 17q0 10 9 18.5t22 8.5q8 1 13.5 -4t10.5 -13l141 -249q4 -8 4 -16q0 -11 -10.5 -19.5t-23.5 -8.5q-14 0 -23 18z" />
<glyph unicode="a" horiz-adv-x="1201" d="M1061 29q0 -29 -28 -29q-31 0 -31 29v255q-20 -68 -63 -124.5t-100.5 -97t-125.5 -62.5t-138 -22q-99 0 -187 40.5t-153.5 110t-103.5 163t-38 199.5t38 200t103.5 164t153.5 110.5t187 40.5q71 0 138 -21t123.5 -60t99.5 -94t66 -123v243q0 31 31 31q28 0 28 -31v-922z M999 491q0 94 -33.5 177.5t-91 145.5t-135 98.5t-164.5 36.5q-89 0 -166 -36.5t-134 -98.5t-90 -145.5t-33 -177.5q0 -93 33 -176t90 -145.5t134 -98.5t166 -36q87 0 164.5 36t135 98.5t91 145.5t33.5 176z" />
<glyph unicode="b" horiz-adv-x="1212" d="M153 1455q0 29 28 29q31 0 31 -29v-758q6 15 14 34t17 38t19 36.5t21 29.5q33 37 73.5 68t86.5 53.5t95.5 34.5t100.5 12q99 0 187 -40.5t153.5 -110.5t103.5 -163t38 -199q0 -107 -38 -200.5t-103.5 -163.5t-153.5 -110.5t-187 -40.5q-109 0 -201.5 46.5t-161.5 128.5h2 q-23 28 -38 65.5t-28 67.5v-250q0 -31 -31 -31q-28 0 -28 31v1422zM215 490q0 -94 33.5 -177.5t91 -145.5t135 -98.5t164.5 -36.5q89 0 166 36.5t134 98.5t90 145.5t33 177.5q0 93 -33 176t-90 145.5t-134 98.5t-166 36q-87 0 -164.5 -36t-135 -98.5t-91 -145.5t-33.5 -176z " />
<glyph unicode="c" horiz-adv-x="1065" d="M909 825q-62 55 -140 86t-166 31q-93 0 -175.5 -36t-144 -97.5t-97.5 -144.5t-36 -176t36 -175.5t97.5 -144t144 -97.5t175.5 -36q91 0 170 31t140 88q10 8 19 8q11 0 20.5 -9.5t9.5 -20.5q0 -12 -16 -24v2q-72 -65 -157.5 -98.5t-183.5 -33.5q-106 0 -199 40t-162 109.5 t-109 162.5t-40 198q0 106 40 199t109 162.5t162 109.5t199 40q100 0 182.5 -35t151.5 -93q16 -13 16 -25q0 -10 -9.5 -20.5t-17.5 -10.5q-9 0 -19 10z" />
<glyph unicode="d" horiz-adv-x="1201" d="M1062 33q0 -31 -28 -31q-31 0 -31 31v250q-13 -30 -28 -67.5t-38 -65.5h2q-69 -82 -161.5 -128.5t-201.5 -46.5q-99 0 -187 40.5t-153.5 110.5t-103.5 163.5t-38 200.5q0 106 38 199t103.5 163t153.5 110.5t187 40.5q51 0 100.5 -12t95.5 -34.5t86.5 -53.5t73.5 -68 q11 -12 21 -29.5t19 -36.5t17 -38t14 -34v758q0 29 31 29q28 0 28 -29v-1422zM1000 490q0 93 -33.5 176t-91 145.5t-135 98.5t-164.5 36q-89 0 -166 -36t-134 -98.5t-90 -145.5t-33 -176q0 -94 33 -177.5t90 -145.5t134 -98.5t166 -36.5q87 0 164.5 36.5t135 98.5t91 145.5 t33.5 177.5z" />
<glyph unicode="e" horiz-adv-x="1144" d="M158 479q0 -93 36 -174t97.5 -141t143.5 -94.5t174 -34.5q94 0 172.5 31t140.5 88q9 9 19 9q8 0 18 -8.5t10 -20.5q0 -13 -16 -26v2q-70 -65 -155.5 -98.5t-185.5 -33.5q-106 0 -199 40t-162.5 109t-109.5 162t-40 199t37.5 199t102 162.5t150.5 109.5t183 40 q92 0 174 -37.5t145 -102.5t102.5 -152.5t46.5 -187.5q2 -4 2 -6.5v-4.5q0 -29 -28 -29h-858zM572 941q-79 0 -149.5 -31t-126 -85t-92 -127.5t-46.5 -158.5h827q-8 84 -44 157.5t-92 128t-127 85.5t-150 31z" />
<glyph unicode="f" horiz-adv-x="616" d="M493 981q13 0 22 -7t9 -22t-9 -23t-22 -8h-211v-897q0 -28 -31 -28q-29 0 -29 28v897h-145q-29 0 -29 31q0 29 29 29h145v211q0 85 24 141.5t65 90.5t95 48.5t113 14.5q18 0 26.5 -9.5t8.5 -23.5q0 -15 -11 -21.5t-22 -6.5q-54 1 -98.5 -13t-75.5 -43.5t-48 -75.5 t-17 -109v-204h211z" />
<glyph unicode="g" horiz-adv-x="1197" d="M1061 149v-5q-1 -104 -31 -197.5t-89 -164t-147 -111.5t-205 -41q-64 0 -126 14t-122 39q-14 8 -21 16.5t-3 23.5q6 13 14.5 17.5t26.5 -2.5q60 -23 113 -38t106 -15q85 0 162 26t135.5 83.5t93 148.5t34.5 221v120q-20 -68 -63 -124.5t-100.5 -97t-125.5 -62.5t-138 -22 q-99 0 -187 40.5t-153.5 110t-103.5 163t-38 199.5t38 200t103.5 164t153.5 110.5t187 40.5q71 0 138 -21t123.5 -60t99.5 -94t66 -123v243q0 31 31 31q28 0 28 -31v-802zM999 491q0 94 -33.5 177.5t-91 145.5t-135 98.5t-164.5 36.5q-89 0 -166 -36.5t-134 -98.5 t-90 -145.5t-33 -177.5q0 -93 33 -176t90 -145.5t134 -98.5t166 -36q87 0 164.5 36t135 98.5t91 145.5t33.5 176z" />
<glyph unicode="h" horiz-adv-x="1089" d="M906 596q-2 73 -29.5 136.5t-75 110t-111 73t-136.5 26.5q-72 0 -135.5 -26t-110.5 -72t-75 -107.5t-31 -133.5v-577q0 -28 -30 -28q-29 0 -29 28v1428q0 31 29 31q30 0 30 -31v-651q54 91 146 144.5t206 53.5q85 0 160 -32.5t130.5 -88.5t87.5 -130.5t32 -159.5v-564 q0 -28 -29 -28t-29 28v570z" />
<glyph unicode="i" horiz-adv-x="379" d="M160 952q0 29 31 29q28 0 28 -29v-923q0 -29 -28 -29q-31 0 -31 29v923zM128 1272q0 25 17.5 42.5t42.5 17.5t42.5 -17.5t17.5 -42.5t-17.5 -42.5t-42.5 -17.5t-42.5 17.5t-17.5 42.5z" />
<glyph unicode="j" horiz-adv-x="427" d="M194 952q0 29 28 29q31 0 31 -29v-972q-2 -59 -23.5 -112.5t-59 -93.5t-88.5 -63.5t-111 -23.5q-26 0 -38 7t-12 24q0 9 4 14.5t9.5 8.5t12 3.5t11.5 0.5q54 0 97.5 18.5t74.5 51t47.5 76.5t16.5 96v965zM162 1272q0 25 17.5 42.5t42.5 17.5t42.5 -17.5t17.5 -42.5 t-17.5 -42.5t-42.5 -17.5t-42.5 17.5t-17.5 42.5z" />
<glyph unicode="k" horiz-adv-x="1027" d="M726 968h-2q15 15 24 15q8 0 14 -5.5t9.5 -12.5t5.5 -13l2 -6q0 -5 -2 -7l-328 -301l528 -587q9 -14 9 -22q0 -11 -11 -19.5t-22 -8.5t-20 10h2l-524 590l-209 -190v-382q0 -29 -30 -29q-29 0 -29 29v1425q0 31 29 31q30 0 30 -31v-970z" />
<glyph unicode="l" horiz-adv-x="376" d="M159 1458q0 29 31 29q28 0 28 -29v-1429q0 -29 -28 -29q-31 0 -31 29v1429z" />
<glyph unicode="m" horiz-adv-x="1641" d="M202 29q0 -29 -30 -29q-29 0 -29 29v923q0 29 29 29q30 0 30 -29v-112q23 34 54.5 62t69 47.5t80 30t87.5 10.5q54 0 103 -14.5t90 -41t73 -65t53 -86.5q20 48 52 86.5t73 65t90.5 41t103.5 14.5q72 0 134.5 -26t110 -72t75.5 -108t30 -135v-620q0 -29 -31 -29 q-29 0 -29 29v620q-2 59 -25 110.5t-62 89.5t-91.5 60t-111.5 22t-110.5 -21.5t-91 -58.5t-63 -87t-26.5 -108v-627q0 -29 -28 -29q-31 0 -31 29v627q-3 58 -26 108t-62 87t-90.5 58.5t-109.5 21.5q-60 0 -113 -22.5t-92.5 -61.5t-62.5 -92t-23 -113v-613z" />
<glyph unicode="n" horiz-adv-x="1089" d="M202 29q0 -29 -30 -29q-29 0 -29 29v923q0 29 29 29q30 0 30 -29v-145q54 91 146 143.5t206 52.5q85 0 160 -32t130.5 -87.5t87.5 -130t32 -159.5v-565q0 -29 -29 -29t-29 29v569q-2 73 -29.5 136.5t-75 110t-111 73t-136.5 26.5q-72 0 -135.5 -25.5t-110.5 -71t-75 -107 t-31 -133.5v-578z" />
<glyph unicode="o" horiz-adv-x="1221" d="M101 488q0 106 40 199t109 162.5t161.5 109.5t197.5 40q106 0 199 -40t162.5 -109.5t109.5 -162.5t40 -199q0 -105 -40 -198t-109.5 -162.5t-162.5 -109.5t-199 -40q-105 0 -197.5 40t-161.5 109.5t-109 162.5t-40 198zM158 488q0 -93 36 -175.5t98 -144t144.5 -97.5 t175.5 -36t175.5 36t144 97.5t97.5 144t36 175.5t-36 176t-97.5 144.5t-144 97.5t-175.5 36t-175.5 -36t-144.5 -97.5t-98 -144.5t-36 -176z" />
<glyph unicode="p" horiz-adv-x="1178" d="M131 951q0 31 28 31q31 0 31 -31v-247q13 30 28 67.5t38 65.5h-2q69 82 161.5 128.5t201.5 46.5q99 0 187 -40.5t153.5 -110.5t103.5 -164t38 -200t-38 -199.5t-103.5 -163t-153.5 -110t-187 -40.5q-51 0 -100.5 12t-95.5 34.5t-86.5 53t-73.5 68.5q-11 12 -21 29.5 t-19 36.5t-17 38t-14 34v-648q0 -29 -31 -29q-28 0 -28 29v1309zM193 497q0 -93 33.5 -176t91 -145.5t135 -98.5t164.5 -36q89 0 166 36t134 98.5t90 145.5t33 176q0 94 -33 177.5t-90 145.5t-134 98.5t-166 36.5q-87 0 -164.5 -36.5t-135 -98.5t-91 -145.5t-33.5 -177.5z " />
<glyph unicode="q" horiz-adv-x="1204" d="M1059 -358q0 -29 -28 -29q-31 0 -31 29v648q-6 -15 -14 -34t-17 -38t-19 -36.5t-21 -29.5q-33 -38 -73.5 -68.5t-86.5 -53t-95.5 -34.5t-100.5 -12q-99 0 -187 40.5t-153.5 110t-103.5 163t-38 199.5t38 200t103.5 164t153.5 110.5t187 40.5q109 0 201.5 -46.5 t161.5 -128.5h-2q23 -28 38 -65.5t28 -67.5v247q0 31 31 31q28 0 28 -31v-1309zM997 497q0 94 -33.5 177.5t-91 145.5t-135 98.5t-164.5 36.5q-89 0 -166 -36.5t-134 -98.5t-90 -145.5t-33 -177.5q0 -93 33 -176t90 -145.5t134 -98.5t166 -36q87 0 164.5 36t135 98.5 t91 145.5t33.5 176z" />
<glyph unicode="r" horiz-adv-x="832" d="M733 918q5 -4 9.5 -9.5t4.5 -14.5q0 -13 -8 -21.5t-20 -8.5q-6 0 -12 1.5t-10 5.5q-41 27 -92 44.5t-103 17.5q-64 0 -118 -26.5t-93.5 -73t-61.5 -108.5t-22 -132l-5 -564q0 -29 -30 -29q-29 0 -29 29v919q0 29 29 29q30 0 30 -29v-154q16 49 45.5 86t68.5 62t85.5 37.5 t95.5 12.5q65 0 125.5 -19.5t110.5 -54.5z" />
<glyph unicode="s" horiz-adv-x="806" d="M635 805q-35 66 -102 102t-149 36q-50 0 -91.5 -13.5t-72 -39.5t-47.5 -63.5t-17 -86.5q0 -35 15 -62t39 -48.5t54 -37.5t59 -27t55.5 -18t42.5 -10q147 -37 223.5 -110t76.5 -173q0 -69 -30 -121.5t-78 -87t-108 -52t-121 -17.5q-118 0 -198.5 50.5t-112.5 140.5 q0 8 -3 14t-3 11q0 8 7.5 16t25.5 8q9 0 16 -8t11 -21q12 -37 40 -66t64.5 -49t77 -30.5t75.5 -10.5q37 0 85.5 11.5t91 37t72 67.5t29.5 103q0 53 -28.5 93.5t-71.5 69.5t-93.5 47t-93.5 26q-47 9 -96.5 29t-90.5 51.5t-67.5 74t-26.5 95.5q0 61 20.5 110t58.5 83.5 t91.5 53t119.5 18.5q46 0 90 -9t83 -28.5t71 -52t56 -78.5q7 -14 7 -21q0 -6 -7 -16t-24 -10q-8 0 -14 5.5t-11 13.5z" />
<glyph unicode="t" horiz-adv-x="604" d="M522 57q10 0 21.5 -7t11.5 -21q0 -21 -16.5 -25.5t-51.5 -4.5q-57 0 -102 14t-76 48t-47 91.5t-16 144.5v625h-156q-28 0 -28 28q0 31 28 31h156v306q0 31 31 31q29 0 29 -31v-306h218q14 0 23.5 -8t9.5 -23q0 -14 -9.5 -21t-23.5 -7h-218v-636q0 -71 14 -115.5t41 -69.5 t67.5 -34.5t93.5 -9.5z" />
<glyph unicode="u" horiz-adv-x="1111" d="M121 951q0 29 31 29q28 0 28 -29v-575q2 -74 29.5 -136.5t75 -108.5t111 -72t136.5 -26q74 0 138.5 27t112 74.5t74.5 111t27 137.5v568q0 29 29 29q31 0 31 -29v-922q0 -29 -31 -29q-29 0 -29 29v143q-56 -91 -147.5 -144.5t-204.5 -53.5q-85 0 -159.5 32t-130.5 87.5 t-88.5 130t-32.5 159.5v568z" />
<glyph unicode="v" horiz-adv-x="961" d="M812 959q5 9 11.5 15t14.5 6q16 0 23.5 -11t7.5 -18q0 -8 -2 -12q-95 -229 -194 -463t-193 -463q-4 -6 -10 -10.5t-14 -4.5h-6q-8 0 -15.5 6t-12.5 14l-385 921q-2 6 -2 10q0 11 9.5 21t23.5 10q15 0 24 -14l361 -865z" />
<glyph unicode="w" horiz-adv-x="1439" d="M799 959q4 9 11 15t15 6q15 0 23.5 -10.5t8.5 -16.5q0 -7 -3 -14l-113 -266l240 -572l361 858v-2q7 22 25 22q16 0 24.5 -8.5t8.5 -16.5q0 -6 -3 -15l-387 -926q-9 -16 -22 -16q-4 0 -7 1h-5q-8 0 -14.5 4.5t-8.5 15.5l-242 578l-245 -583q-3 -6 -9 -10.5t-14 -4.5h-6 q-9 0 -17 6t-11 14l-385 921q-3 6 -3 13q0 8 8.5 18.5t24.5 10.5q18 0 23 -15l363 -865l242 574q0 7 4 11h-2z" />
<glyph unicode="x" horiz-adv-x="783" d="M99 13q-9 -10 -25 -10q-14 0 -22.5 9.5t-8.5 20.5q0 8 5 13l302 442q-75 108 -152.5 223t-152.5 223q-5 6 -5 16q0 14 10.5 22t22.5 8q15 0 23 -11q72 -106 146 -213t145 -213q72 106 146 213.5t145 213.5q9 11 24 11q14 0 24 -9t10 -22q0 -7 -5 -15l-306 -447l303 -442 q3 -6 3 -12q0 -14 -8.5 -23.5t-21.5 -9.5q-17 0 -26 12l-288 423z" />
<glyph unicode="y" horiz-adv-x="928" d="M315 -389q-8 -14 -24 -14q-13 0 -23.5 9t-10.5 20q0 5 3 11l160 385l-383 917q-2 6 -2 10q0 11 9.5 21t23.5 10q15 0 24 -14l361 -865l359 858q5 9 11.5 15t14.5 6q16 0 23.5 -11t7.5 -18q0 -8 -2 -12z" />
<glyph unicode="z" horiz-adv-x="898" d="M811 59q29 0 29 -30q0 -29 -29 -29h-749q-17 0 -23 9.5t-6 20.5q0 5 3 11t8 14l699 864h-649q-31 0 -31 32q0 14 8 22t23 8h706q11 0 24 -5.5t13 -19.5q0 -7 -4 -14t-9 -16l-701 -867h688z" />
<glyph unicode="{" horiz-adv-x="656" d="M631 1670q-63 0 -114 -21t-87 -58t-55 -88.5t-19 -112.5v-367q0 -109 -33.5 -185t-98.5 -112q63 -35 97.5 -104.5t34.5 -177.5v-380q0 -61 19.5 -112.5t55.5 -88.5t87.5 -58t115.5 -21q10 0 21.5 -5.5t11.5 -20.5q0 -14 -8.5 -23.5t-27.5 -9.5q-68 0 -128 23.5t-105.5 67 t-72 106t-26.5 140.5v374q0 52 -9.5 97.5t-30.5 80t-55.5 56t-84.5 25.5q-33 0 -48.5 3.5t-15.5 25.5q0 23 17 27t47 4q54 5 88.5 28t55 60t28.5 86t8 105v365q0 78 27 139.5t72.5 104t105.5 64.5t127 22q19 0 27.5 -9.5t8.5 -23.5q0 -15 -8.5 -20.5t-27.5 -5.5z" />
<glyph unicode="|" horiz-adv-x="480" d="M218 1490q0 38 22 38h11q11 0 18 -9t7 -29v-1876q0 -23 -6.5 -31t-18.5 -8h-11q-11 0 -16.5 8t-5.5 31v1876z" />
<glyph unicode="}" horiz-adv-x="672" d="M26 1670q-18 0 -26.5 5.5t-8.5 20.5q0 14 8.5 23.5t26.5 9.5q67 0 127.5 -22t106 -64.5t72.5 -104t27 -139.5v-365q0 -56 8 -105t28.5 -86t55 -60t88.5 -28q30 0 47 -4t17 -27q0 -22 -15.5 -25.5t-48.5 -3.5q-50 -4 -84.5 -25.5t-55.5 -56t-30.5 -80t-9.5 -97.5v-374 q0 -78 -26.5 -140.5t-72 -106t-106 -67t-128.5 -23.5q-18 0 -26.5 9.5t-8.5 23.5q0 15 11.5 20.5t21.5 5.5q64 0 115 21t87 58t55.5 88.5t19.5 112.5v380q0 108 34.5 177.5t97.5 104.5q-64 36 -98 112t-34 185v367q0 61 -19 112.5t-54.5 88.5t-86.5 58t-115 21z" />
<glyph unicode="~" horiz-adv-x="737" d="M592 608q8 11 17 11q6 0 14 -5l11 -6q4 -2 7 -7t3 -11q0 -8 -4 -13q-32 -47 -70 -67.5t-82 -20.5q-30 0 -57 13.5t-53.5 29.5t-52.5 29.5t-54 13.5q-30 0 -55.5 -14.5t-48.5 -47.5q-7 -11 -18 -11q-5 0 -13 5l-8 6q-12 7 -12 20q0 5 3 11q29 40 64.5 65t87.5 25 q21 0 37.5 -5t33.5 -13.5t35.5 -20.5t44.5 -25q15 -11 33.5 -16.5t35.5 -5.5q28 0 53.5 14t47.5 46z" />
<glyph unicode="&#xa1;" horiz-adv-x="542" d="M277 -475q0 -29 -29 -29q-28 0 -28 29v1045q0 29 28 29q29 0 29 -29v-1045zM305 934q0 -25 -17.5 -42.5t-42.5 -17.5t-42.5 17.5t-17.5 42.5t17.5 42.5t42.5 17.5t42.5 -17.5t17.5 -42.5z" />
<glyph unicode="&#xa2;" horiz-adv-x="1018" d="M525 938q-83 -11 -155.5 -50.5t-125.5 -99.5t-83.5 -137t-30.5 -163t30.5 -163t83.5 -137t125.5 -99t155.5 -50l58 -4q91 0 170 31t140 88q10 8 19 8q11 0 20.5 -9.5t9.5 -20.5q0 -12 -16 -24v2q-72 -65 -157.5 -98.5t-183.5 -33.5h-3v-161q0 -29 -28 -29q-29 0 -29 29 v165q-95 11 -177.5 54.5t-143 111.5t-95 155t-34.5 185t34.5 185.5t95 155t143 111.5t177.5 55v152q0 28 29 28q28 0 28 -28v-148h3q100 0 182.5 -35t151.5 -93q16 -13 16 -25q0 -10 -9.5 -20.5t-17.5 -10.5q-9 0 -19 10q-62 55 -140 86t-166 31h-1z" />
<glyph unicode="&#xa3;" horiz-adv-x="1162" d="M622 747q31 0 31 -28q0 -29 -31 -29h-398v-633h861q30 0 30 -28q0 -29 -30 -29h-889q-19 0 -24 9q-5 7 -5 20v661h-69q-29 0 -29 29q0 28 29 28h69v231q0 106 40.5 199t110 162.5t162.5 109.5t199 40q100 0 183 -35t151 -93q12 -10 15.5 -20t-6.5 -22q-17 -26 -39 -4 q-62 55 -140 86t-166 31q-93 0 -175.5 -36t-144 -97.5t-97.5 -144.5t-36 -176v-231h398z" />
<glyph unicode="&#xa4;" horiz-adv-x="1078" d="M252 309q-42 51 -63.5 112t-22 123.5t20.5 123.5t63 113l-67 67q-21 20 0 41t42 1l66 -66q52 46 114 69.5t126.5 24.5t127.5 -20.5t116 -65.5l59 59q9 10 20 9.5t22 -11.5q20 -19 -1 -40l-58 -58q47 -53 70 -116.5t23 -129.5t-23.5 -130t-70.5 -116l59 -59q10 -9 9.5 -20 t-11.5 -22q-19 -20 -40 1l-59 59q-58 -49 -122 -69.5t-128 -17.5t-123 28t-107 68l-68 -68q-21 -21 -41 0q-22 21 -1 42zM313 771q-47 -47 -70.5 -106t-23 -120t24 -120t70.5 -105q46 -47 104.5 -70.5t119.5 -23.5t120 23.5t106 70.5q45 46 68.5 104.5t23.5 119.5t-23 120 t-69 106q-47 46 -106 69.5t-120.5 23.5t-120.5 -23t-104 -69z" />
<glyph unicode="&#xa5;" horiz-adv-x="1147" d="M1028 1476q18 24 42 6q25 -15 6 -40l-490 -820v-24h284q31 0 31 -28q0 -29 -31 -29h-284v-210h284q31 0 31 -29t-31 -29h-284v-245q0 -28 -28 -28q-30 0 -30 28v245h-302q-29 0 -29 29t29 29h302v210h-302q-29 0 -29 29q0 28 29 28h302v22l-492 822q-9 14 -6 24t14 16 q25 19 40 -6l472 -792z" />
<glyph unicode="&#xa6;" horiz-adv-x="501" d="M216 1482q0 29 31 29q28 0 28 -29v-789q0 -29 -28 -29q-31 0 -31 29v789zM216 389q0 29 31 29q28 0 28 -29v-799q0 -29 -28 -29q-31 0 -31 29v799z" />
<glyph unicode="&#xa7;" horiz-adv-x="939" d="M697 1285q-34 65 -100.5 100.5t-147.5 35.5q-49 0 -90 -13.5t-71 -39t-47 -62.5t-17 -85q0 -35 15 -62t39 -48t54 -36.5t59 -26.5t54.5 -17.5t40.5 -9.5q151 -36 226 -109.5t75 -174.5q0 -53 -18 -96.5t-49 -76.5t-72 -56t-86 -35q102 -42 152.5 -106t50.5 -147 q0 -69 -30 -121.5t-78 -87.5t-108.5 -52.5t-121.5 -17.5q-119 0 -199.5 49.5t-111.5 141.5q-2 8 -4 14.5t-2 11.5q0 8 7 17t27 9t29 -30q10 -37 38 -66t64.5 -48.5t76.5 -29.5t75 -10q37 0 84.5 11t90 36.5t71.5 67t29 101.5q0 52 -28.5 91.5t-71 68.5t-92 47t-92.5 26 q-47 9 -97 31t-91 55.5t-67.5 77.5t-26.5 97q0 52 16.5 99t46.5 84t72.5 62.5t93.5 36.5q-42 14 -79.5 32t-66 44t-45 62t-16.5 87q0 61 20.5 110.5t59 84t92 53t119.5 18.5q46 0 90 -8.5t82.5 -28t71 -51t56.5 -77.5q3 -7 5.5 -13t2.5 -12q0 -7 -8 -17.5t-25 -10.5 q-9 0 -15.5 6t-11.5 14zM449 517q37 0 84.5 11t90 36.5t71.5 67t29 101.5q0 48 -17 82t-45.5 59t-66.5 41.5t-80 30.5q-88 -2 -148 -21.5t-96.5 -51t-52.5 -72.5t-16 -87q0 -42 22 -74.5t54.5 -56.5t69.5 -40.5t68 -26.5q8 1 16 1h17z" />
<glyph unicode="&#xa8;" horiz-adv-x="790" d="M169 1231q0 20 14.5 34.5t34.5 14.5t34.5 -14.5t14.5 -34.5t-14.5 -34.5t-34.5 -14.5t-34.5 14.5t-14.5 34.5zM524 1231q0 20 14.5 34.5t34.5 14.5t34.5 -14.5t14.5 -34.5t-14.5 -34.5t-34.5 -14.5t-34.5 14.5t-14.5 34.5z" />
<glyph unicode="&#xa9;" horiz-adv-x="1763" d="M1154 1093q-23 18 -48 32.5t-54 27.5q-82 35 -172 35q-93 0 -174.5 -35t-141.5 -95.5t-95 -141.5t-35 -172q0 -93 35 -174.5t95.5 -142t141 -95.5t172.5 -35q91 0 174 34q27 12 52 26.5t47 31.5q11 7 12 17.5t-4 18.5l-9 14q-8 13 -18 14.5t-18 -4.5q-22 -19 -48 -31 q-45 -29 -94 -42.5t-97 -13.5q-73 0 -140.5 31.5t-119.5 84t-83 121.5t-31 145q0 75 29.5 143t80.5 120t120.5 83t149.5 31q62 0 118.5 -21t106.5 -58q17 -11 24.5 -10t15.5 10l15 14q6 8 5 19t-12 18zM121 742q0 104 27 201t76 181.5t118.5 154t153.5 119t181 77t202 27.5 q157 0 295 -60t241.5 -163.5t163.5 -241.5t60 -295q0 -105 -27.5 -202t-77 -181t-119 -153.5t-154 -118.5t-181.5 -76t-201 -27q-105 0 -202 27t-181 76t-153.5 118.5t-118.5 153.5t-76 181t-27 202zM181 742q0 -144 55 -271t150 -222t222 -150t271 -55q96 0 185 25 t167 70.5t142 109.5t110 141.5t71 166.5t25 185t-25 185t-71 167t-110 142t-142 110t-167 71t-185 25t-185 -25t-166.5 -71t-141.5 -110t-109.5 -142t-70.5 -167t-25 -185z" />
<glyph unicode="&#xaa;" horiz-adv-x="1125" d="M793 937q-26 -41 -61 -72t-75.5 -53t-86 -33t-92.5 -11q-77 0 -145 29t-118.5 79t-80 118t-29.5 145t29.5 145t80 118.5t118.5 79.5t145 29q50 0 96 -12.5t86.5 -35.5t74 -55.5t58.5 -72.5v127q0 29 31 29q28 0 28 -29l8 -651q0 -14 -11 -25.5t-25 -11.5q-31 0 -31 29 v134zM164 1139q0 -66 25 -123t67.5 -99t99.5 -66t122 -24t122 24t99 66t66.5 99t24.5 123q0 63 -24.5 120t-66.5 99.5t-99 67.5t-122 25t-122 -25t-99.5 -67.5t-67.5 -99.5t-25 -120z" />
<glyph unicode="&#xab;" horiz-adv-x="1324" d="M620 559q-1 0 -2 1l532 529q1 2 6.5 6t13.5 4q11 0 18.5 -7.5t7.5 -18.5t-7 -18l-497 -497l493 -493q3 -3 7 -8t4 -13q0 -11 -7.5 -18t-18.5 -7q-9 0 -17 6zM150 559q-1 0 -2 1l532 529q1 2 6.5 6t13.5 4q11 0 18.5 -7.5t7.5 -18.5t-7 -18l-497 -497l493 -493q3 -3 7 -8 t4 -13q0 -11 -7.5 -18t-18.5 -7q-9 0 -17 6z" />
<glyph unicode="&#xac;" horiz-adv-x="1037" d="M127 701q-30 0 -30 28q0 29 30 29h729q19 0 24 -9q5 -7 5 -20v-353q0 -28 -29 -28q-28 0 -28 28v325h-701z" />
<glyph unicode="&#xad;" horiz-adv-x="1210" />
<glyph unicode="&#xae;" horiz-adv-x="1763" d="M629 317q8 0 18 6t10 26v254h284q36 0 69 9l125 -258v1q13 -36 41 -36q14 0 20.5 9.5t6.5 20.5q0 5 -2 13l-133 272q35 18 64 46t49.5 62t32 73.5t11.5 81.5q0 60 -22 113.5t-61 94t-92 64.5t-114 24h-294q-43 0 -43 -41v-802q0 -24 10 -28.5t20 -4.5zM1161 895 q0 -45 -18 -86.5t-49 -73t-72 -50t-87 -18.5h-278v465h278q47 0 88 -19t72 -51.5t48.5 -75.5t17.5 -91zM121 742q0 104 27 201t76 181.5t118.5 154t153.5 119t181 77t202 27.5q157 0 295 -60t241.5 -163.5t163.5 -241.5t60 -295q0 -105 -27.5 -202t-77 -181t-119 -153.5 t-154 -118.5t-181.5 -76t-201 -27q-105 0 -202 27t-181 76t-153.5 118.5t-118.5 153.5t-76 181t-27 202zM181 742q0 -144 55 -271t150 -222t222 -150t271 -55q96 0 185 25t167 70.5t142 109.5t110 141.5t71 166.5t25 185t-25 185t-71 167t-110 142t-142 110t-167 71t-185 25 t-185 -25t-166.5 -71t-141.5 -110t-109.5 -142t-70.5 -167t-25 -185z" />
<glyph unicode="&#xaf;" horiz-adv-x="977" d="M812 1233q31 0 31 -28q0 -29 -31 -29h-644q-29 0 -29 29q0 28 29 28h644z" />
<glyph unicode="&#xb0;" horiz-adv-x="716" d="M323 1529q51 0 96.5 -20t79.5 -54.5t54 -80t20 -97.5q0 -54 -20 -100t-54 -79.5t-79.5 -53t-96.5 -19.5q-52 0 -98 19.5t-80 53t-54 79.5t-20 100q0 52 20 97.5t54 80t80 54.5t98 20zM323 1472q-42 0 -77.5 -15.5t-62 -42t-41 -62t-14.5 -75.5q0 -41 14.5 -76.5t41 -61.5 t62 -41t77.5 -15q40 0 75.5 15t61.5 41t41.5 61.5t15.5 76.5q0 40 -15.5 75.5t-41.5 62t-61.5 42t-75.5 15.5z" />
<glyph unicode="&#xb1;" horiz-adv-x="1022" d="M524 315q0 -31 -28 -31q-29 0 -29 31v294h-292q-29 0 -29 29t29 29h292v292q0 29 29 29q28 0 28 -29v-292h295q31 0 31 -29t-31 -29h-295v-294zM175 0q-29 0 -29 29t29 29h644q31 0 31 -29t-31 -29h-644z" />
<glyph unicode="&#xb2;" horiz-adv-x="710" d="M108 671q-11 0 -18.5 7t-7.5 18v20q0 5 4 15l386 365q41 40 56.5 74.5t15.5 75.5q0 42 -16 75.5t-43.5 56t-64.5 34.5t-79 12t-78.5 -14t-63.5 -39t-43 -60t-16 -77q0 -8 -6 -17q-1 -3 -6 -5l-7 -2h-18q-6 0 -8 1q-8 1 -11.5 5t-5.5 11v7q1 55 22 101t56.5 80t83 53 t101.5 19q55 0 103.5 -17t84.5 -48t56.5 -75.5t20.5 -99.5q0 -51 -18 -93t-48 -75l-367 -345h436q10 0 17 -6t7 -18v-14q0 -10 -6.5 -17.5t-17.5 -7.5h-501z" />
<glyph unicode="&#xb3;" horiz-adv-x="659" d="M335 1161q30 1 55 10.5t44 26t29.5 40t10.5 53.5q0 31 -11 55.5t-30.5 42t-46 27t-57.5 9.5q-62 0 -102.5 -36t-40.5 -98q0 -24 -25 -24h-15q-11 0 -17 6.5t-6 17.5q0 43 16.5 79t44.5 61.5t65.5 40t79.5 14.5t80 -14.5t66 -40t44.5 -61.5t16.5 -79q0 -52 -23.5 -92.5 t-62.5 -64.5q66 -32 105 -91t39 -136q0 -55 -20.5 -101t-56.5 -79.5t-84.5 -52t-103.5 -18.5t-103 18.5t-84 52t-56.5 79.5t-20.5 101v5q2 8 6.5 14t14.5 6h19q8 0 14 -3l3 -4q4 -3 6 -13v-4q0 -42 16 -77t43 -60t63.5 -39t78.5 -14t79 14t64.5 39t43.5 60t16 77t-16 77.5 t-43.5 61t-64.5 40t-79 14.5q-11 0 -17.5 5.5t-6.5 19.5v12q0 12 7 17.5t17 5.5h6z" />
<glyph unicode="&#xb4;" horiz-adv-x="552" d="M281 1192q-13 -26 -40 -13t-13 39l141 249q14 26 39 13q24 -14 11 -40z" />
<glyph unicode="&#xb5;" horiz-adv-x="1162" d="M582 -26q-113 0 -204.5 53.5t-147.5 144.5v-528q0 -29 -29 -29q-31 0 -31 29v1304q0 29 31 29q29 0 29 -29v-565q0 -74 27 -137.5t74.5 -111t112 -74.5t138.5 -27t138.5 27t112 74.5t74.5 111t27 137.5v565q0 29 29 29q31 0 31 -29v-919q0 -29 -31 -29q-29 0 -29 29v143 q-56 -91 -147.5 -144.5t-204.5 -53.5z" />
<glyph unicode="&#xb6;" horiz-adv-x="1362" d="M1307 1487q31 0 31 -28q0 -29 -31 -29h-272v-1401q0 -29 -28 -29q-29 0 -29 29v1401h-303v-1401q0 -29 -29 -29q-28 0 -28 29v536h-95q-96 0 -180 36t-146.5 98.5t-99 146t-36.5 179.5t36.5 180t99 146.5t146.5 99t180 36.5h784v0z" />
<glyph unicode="&#xb7;" horiz-adv-x="501" d="M209 556q0 25 17.5 42.5t42.5 17.5t42.5 -17.5t17.5 -42.5t-17.5 -42.5t-42.5 -17.5t-42.5 17.5t-17.5 42.5z" />
<glyph unicode="&#xb8;" horiz-adv-x="557" d="M203 27q0 28 29 28q28 0 28 -28v-158q31 -5 58.5 -21t47 -39t31 -52.5t11.5 -62.5q0 -36 -14 -68.5t-38 -57t-56.5 -38.5t-68.5 -14q-13 0 -21 9t-8 20q0 12 8 20.5t21 8.5q25 0 46.5 9.5t37.5 26t25.5 38t9.5 46.5q0 24 -9 45.5t-25 37.5t-36.5 25.5t-44.5 10.5h-5 q-27 1 -27 29v185z" />
<glyph unicode="&#xb9;" horiz-adv-x="375" d="M237 1487q10 0 17.5 -6.5t7.5 -17.5v-768q0 -25 -25 -25h-13q-24 0 -24 25v714l-47 -19q-23 -9 -33 13l-5 12q-9 23 13 33l82 35q4 4 14 4h13z" />
<glyph unicode="&#xba;" horiz-adv-x="984" d="M105 1139q0 77 29.5 145t80 118.5t118.5 79.5t145 29t144.5 -29t118 -79.5t79.5 -118.5t29 -145q0 -87 -31.5 -155.5t-83 -116.5t-118.5 -73.5t-138 -25.5q-77 0 -145 29t-118.5 79t-80 118t-29.5 145zM164 1139q0 -66 25 -123t67.5 -99t99.5 -66t122 -24t122 24t99 66 t66.5 99t24.5 123q0 63 -24.5 120t-66.5 99.5t-99 67.5t-122 25t-122 -25t-99.5 -67.5t-67.5 -99.5t-25 -120z" />
<glyph unicode="&#xbb;" horiz-adv-x="1335" d="M191 25q-8 -6 -17 -6q-11 0 -18.5 7t-7.5 18q0 8 4 13t7 8l493 493l-497 497q-7 7 -7 18t7.5 18.5t18.5 7.5q8 0 13.5 -4t6.5 -6l532 -529q-1 -1 -2 -1zM661 25q-8 -6 -17 -6q-11 0 -18.5 7t-7.5 18q0 8 4 13t7 8l493 493l-497 497q-7 7 -7 18t7.5 18.5t18.5 7.5 q8 0 13.5 -4t6.5 -6l532 -529q-1 -1 -2 -1z" />
<glyph unicode="&#xbc;" horiz-adv-x="1440" d="M1039 1468q7 14 15.5 17t22.5 -4q26 -13 12 -37l-788 -1432q-15 -21 -36 -6q-27 13 -11 37zM321 1487q-10 0 -14 -4l-82 -35q-22 -10 -13 -33l5 -12q10 -22 33 -13l47 19v-714q0 -25 24 -25h13q25 0 25 25v768q0 11 -7.5 17.5t-17.5 6.5h-13zM1195 152v-119q0 -31 32 -31 q30 0 30 31v119h53q32 0 32 32q0 31 -32 31h-53v559q8 17 -2 30q-6 15 -25 16q-10 2 -14 -1q-17 -2 -21 -19l-400 -588q-13 -6 -13 -28q0 -32 31 -32h382zM873 215l322 468v-468h-322z" />
<glyph unicode="&#xbd;" horiz-adv-x="1520" d="M991 1468q7 14 15.5 17t22.5 -4q26 -13 12 -37l-788 -1432q-15 -21 -36 -6q-27 13 -11 37zM321 1487q-10 0 -14 -4l-82 -35q-22 -10 -13 -33l5 -12q10 -22 33 -13l47 19v-714q0 -25 24 -25h13q25 0 25 25v768q0 11 -7.5 17.5t-17.5 6.5h-13zM1347 -1q11 0 17.5 7.5 t6.5 17.5v14q0 12 -7 18t-17 6h-436l367 345q30 33 48 75t18 93q0 55 -20.5 99.5t-56.5 75.5t-84.5 48t-103.5 17q-54 0 -101.5 -19t-83 -53t-56.5 -80t-22 -101v-7q2 -7 5.5 -11t11.5 -5q2 -1 8 -1h18l7 2q5 2 6 5q6 9 6 17q0 42 16 77t43 60t63.5 39t78.5 14t79 -12 t64.5 -34.5t43.5 -56t16 -75.5q0 -41 -15.5 -75.5t-56.5 -74.5l-386 -365q-4 -10 -4 -15v-20q0 -11 7.5 -18t18.5 -7h501z" />
<glyph unicode="&#xbe;" horiz-adv-x="1686" d="M1176 1468q7 14 15.5 17t22.5 -4q26 -13 12 -37l-788 -1432q-15 -21 -36 -6q-27 13 -11 37zM325 1185q30 1 55 10.5t44 26t29.5 40t10.5 53.5q0 31 -11 55.5t-30.5 42t-46 27t-57.5 9.5q-62 0 -102.5 -36t-40.5 -98q0 -24 -25 -24h-15q-11 0 -17 6.5t-6 17.5 q0 43 16.5 79t44.5 61.5t65.5 40t79.5 14.5t80 -14.5t66 -40t44.5 -61.5t16.5 -79q0 -52 -23.5 -92.5t-62.5 -64.5q66 -32 105 -91t39 -136q0 -55 -20.5 -101t-56.5 -79.5t-84.5 -52t-103.5 -18.5t-103 18.5t-84 52t-56.5 79.5t-20.5 101v5q3 19 21 20h19q8 0 14 -3l3 -3v-1 q4 -3 6 -13v-4q0 -42 16 -77t43 -60t63.5 -39t78.5 -14t79 14t64.5 39t43.5 60t16 77t-16 77.5t-43.5 61t-64.5 40t-79 14.5q-11 0 -17.5 5.5t-6.5 19.5v12q0 12 7 17.5t17 5.5h6zM739 98q-31 0 -31 32q0 22 13 28l400 588q4 17 21 19q4 3 14 1q19 -1 25 -16q10 -13 2 -30 v-559h53q32 0 32 -31q0 -32 -32 -32h-53v-119q0 -31 -30 -31q-32 0 -32 31v119h-382zM1121 161v468l-322 -468h322z" />
<glyph unicode="&#xbf;" horiz-adv-x="1137" d="M534 670q0 22 29 22q28 0 28 -22v-361l-220 -134q-88 -50 -136.5 -99.5t-71.5 -95.5t-27.5 -88t-4.5 -78q0 -70 33 -133t89.5 -110.5t132 -75.5t161.5 -28q88 0 166 28.5t136 81t91.5 126t33.5 162.5q0 17 10 26t21 9t20 -8t11 -25q0 -100 -38.5 -184t-105 -145t-155 -95 t-188.5 -34q-107 0 -195 35t-150 92.5t-96 130.5t-34 149q0 38 6 85.5t32 100t79.5 107.5t148.5 108l194 123v330zM623 943q0 -25 -17.5 -42.5t-42.5 -17.5t-42.5 17.5t-17.5 42.5t17.5 42.5t42.5 17.5t42.5 -17.5t17.5 -42.5z" />
<glyph unicode="&#xc0;" horiz-adv-x="1405" d="M123 20q-5 -15 -13.5 -18.5t-21.5 1.5q-28 8 -18 35l603 1441q8 18 26 15q10 2 17.5 -2t11.5 -18l600 -1434q13 -27 -15 -35q-26 -13 -35 11l-94 225h-969zM239 298h921l-461 1099zM481 1944q-13 26 11 40q25 13 39 -13l141 -249q14 -26 -13 -39t-40 13z" />
<glyph unicode="&#xc1;" horiz-adv-x="1405" d="M123 20q-5 -15 -13.5 -18.5t-21.5 1.5q-28 8 -18 35l603 1441q8 18 26 15q10 2 17.5 -2t11.5 -18l600 -1434q13 -27 -15 -35q-26 -13 -35 11l-94 225h-969zM239 298h921l-461 1099zM764 1696q-13 -26 -40 -13t-13 39l141 249q14 26 39 13q24 -14 11 -40z" />
<glyph unicode="&#xc2;" horiz-adv-x="1405" d="M123 20q-5 -15 -13.5 -18.5t-21.5 1.5q-28 8 -18 35l603 1441q8 18 26 15q10 2 17.5 -2t11.5 -18l600 -1434q13 -27 -15 -35q-26 -13 -35 11l-94 225h-969zM239 298h921l-461 1099zM684 1980q12 14 28 -2l242 -240q7 -7 7 -15.5t-7 -15.5l-9 -9q-6 -7 -15 -7t-15 7 l-218 214l-216 -212q-5 -6 -14.5 -6t-16.5 6l-8 9q-8 8 -7.5 16t7.5 15z" />
<glyph unicode="&#xc3;" horiz-adv-x="1405" d="M123 20q-5 -15 -13.5 -18.5t-21.5 1.5q-28 8 -18 35l603 1441q8 18 26 15q10 2 17.5 -2t11.5 -18l600 -1434q13 -27 -15 -35q-26 -13 -35 11l-94 225h-969zM239 298h921l-461 1099zM490 1729q-17 -17 -28 -17q-12 0 -21.5 11t-9.5 17q0 11 11 20q32 47 69.5 67.5 t82.5 20.5q30 0 57.5 -13.5t53.5 -29.5t52 -29.5t52 -13.5h9q20 3 38 15t33.5 26t28 25t21.5 11q10 0 19.5 -10.5t9.5 -17.5q0 -10 -9 -20q-32 -47 -69.5 -67.5t-82.5 -20.5q-25 0 -50.5 10t-50.5 25l-57 33q-12 7 -24 11.5t-27 6.5q-35 0 -60 -15t-48 -45z" />
<glyph unicode="&#xc4;" horiz-adv-x="1405" d="M123 20q-8 -20 -21 -20q-17 0 -26 8t-9 16q0 6 3 14l603 1441q5 12 12.5 13.5t19.5 1.5q8 0 14 -4.5t9 -15.5l600 -1434q4 -8 4 -16t-11 -16t-25 -8q-12 0 -18 16l-94 225h-969zM239 298h921l-461 1099zM473 1735q0 20 14.5 34.5t34.5 14.5t34.5 -14.5t14.5 -34.5 t-14.5 -34.5t-34.5 -14.5t-34.5 14.5t-14.5 34.5zM828 1735q0 20 14.5 34.5t34.5 14.5t34.5 -14.5t14.5 -34.5t-14.5 -34.5t-34.5 -14.5t-34.5 14.5t-14.5 34.5z" />
<glyph unicode="&#xc5;" horiz-adv-x="1405" d="M699 1763q34 0 63 -13t51 -35t34.5 -51t12.5 -61q0 -29 -9 -54.5t-25 -46t-38.5 -35t-48.5 -20.5l589 -1407q4 -8 4 -16t-11 -16t-25 -8q-12 0 -18 16l-94 225h-969l-92 -221q-8 -20 -21 -20q-17 0 -26 8t-9 16q0 6 3 14l589 1408q-53 14 -87 56.5t-34 100.5 q0 32 12.5 61t34 51t51 35t63.5 13zM239 298h921l-461 1099zM589 1603q0 -45 28.5 -75.5t71.5 -34.5q5 1 16 1q3 0 4 -1q43 4 70.5 34.5t27.5 75.5q0 46 -30.5 77t-77.5 31q-23 0 -43 -8.5t-35 -23t-23.5 -34t-8.5 -42.5z" />
<glyph unicode="&#xc6;" horiz-adv-x="2395" d="M2253 1487q31 0 31 -28q0 -29 -31 -29h-970v-947h801q31 0 31 -29q0 -28 -31 -28h-801v-369h992q31 0 31 -28q0 -29 -31 -29h-1029q-10 2 -15 10.5t-5 18.5v393h-772l-328 -405q-6 -8 -15 -13t-19 -5t-17 6t-7 17q0 15 16 35l1152 1417q5 7 11 10t19 3h987zM503 480h723 v891z" />
<glyph unicode="&#xc7;" horiz-adv-x="1437" d="M1348 1326q15 -11 15 -23q0 -11 -10.5 -23t-21.5 -12t-21 10q-94 78 -206.5 120t-239.5 42q-97 0 -186 -25t-166.5 -70.5t-141 -109.5t-109 -142t-70.5 -167.5t-25 -185.5t25 -185t70.5 -166t109 -141t141 -109t166.5 -70t186 -25q127 0 239.5 42.5t206.5 117.5 q10 9 21 9q12 0 22 -12t10 -23q0 -12 -15 -22q-99 -79 -216 -125t-253 -49v-127q31 -5 58.5 -21t47 -39t31 -52.5t11.5 -62.5q0 -36 -14 -68.5t-38 -57t-56.5 -38.5t-68.5 -14q-13 0 -21 9t-8 20q0 12 8 20.5t21 8.5q25 0 46.5 9.5t37.5 26t25.5 38t9.5 46.5q0 24 -9 45.5 t-25 37.5t-36.5 25.5t-44.5 10.5h-5q-27 1 -27 29v155q-100 5 -192 35t-171.5 80.5t-144.5 119t-111.5 151t-71.5 176.5t-25 195q0 104 27 201.5t76 182t118.5 154t153.5 119.5t181 77.5t202 27.5q140 0 261.5 -47.5t222.5 -128.5z" />
<glyph unicode="&#xc8;" horiz-adv-x="1299" d="M1162 1486q30 0 30 -28t-30 -28h-940v-822h770q32 0 32 -30q0 -28 -32 -28h-770v-494h962q30 0 30 -28t-30 -28h-1000q-2 0 -4 1t-4 1l-1 2h-1q-6 3 -8 9.5t-2 14.5v1430v9t2 7q2 2 2 4l4.5 3t3.5 1q8 4 18 4h968zM527 1944q-13 26 11 40q25 13 39 -13l141 -249 q14 -26 -13 -39t-40 13z" />
<glyph unicode="&#xc9;" horiz-adv-x="1299" d="M1162 1486q30 0 30 -28t-30 -28h-940v-822h770q32 0 32 -30q0 -28 -32 -28h-770v-494h962q30 0 30 -28t-30 -28h-1000q-11 0 -15.5 9t-4.5 19v1430q0 12 3.5 18t8 8.5t10 2t8.5 -0.5h968zM667 1698q-5 -9 -10 -13.5t-13 -4.5q-14 0 -24.5 8.5t-10.5 19.5q0 6 5 16 l141 249q10 18 23 17q13 0 22.5 -8.5t9.5 -18.5q0 -7 -5 -17z" />
<glyph unicode="&#xca;" horiz-adv-x="1299" d="M1162 1486q30 0 30 -28t-30 -28h-940v-822h770q32 0 32 -30q0 -28 -32 -28h-770v-494h962q30 0 30 -28t-30 -28h-1000q-2 0 -4 1t-4 1l-1 2h-1q-6 3 -8 9.5t-2 14.5v1430v9t2 7q2 2 2 4l4.5 3t3.5 1q8 4 18 4h968zM676 1986q12 14 28 -2l242 -240q7 -7 7 -15.5t-7 -15.5 l-9 -9q-6 -7 -15 -7t-15 7l-218 214l-216 -212q-5 -6 -14.5 -6t-16.5 6l-8 9q-8 8 -7.5 16t7.5 15z" />
<glyph unicode="&#xcb;" horiz-adv-x="1299" d="M1162 1486q30 0 30 -28t-30 -28h-940v-822h770q32 0 32 -30q0 -28 -32 -28h-770v-494h962q30 0 30 -28t-30 -28h-1000q-2 0 -4 1t-4 1l-1 2h-1q-6 3 -8 9.5t-2 14.5v1430v9t2 7q2 2 2 4l4.5 3t3.5 1q8 4 18 4h968zM463 1774q0 20 14.5 34.5t34.5 14.5t34.5 -14.5 t14.5 -34.5t-14.5 -34.5t-34.5 -14.5t-34.5 14.5t-14.5 34.5zM818 1774q0 20 14.5 34.5t34.5 14.5t34.5 -14.5t14.5 -34.5t-14.5 -34.5t-34.5 -14.5t-34.5 14.5t-14.5 34.5z" />
<glyph unicode="&#xcc;" horiz-adv-x="373" d="M163 1458q0 28 30 28q28 0 28 -28v-1430q0 -28 -28 -28q-30 0 -30 28v1430zM5 1942q-13 26 11 40q25 13 39 -13l141 -249q14 -26 -13 -39t-40 13z" />
<glyph unicode="&#xcd;" horiz-adv-x="373" d="M163 1458q0 28 30 28q28 0 28 -28v-1430q0 -28 -28 -28q-30 0 -30 28v1430zM211 1699q-13 -26 -40 -13t-13 39l141 249q14 26 39 13q24 -14 11 -40z" />
<glyph unicode="&#xce;" horiz-adv-x="373" d="M163 1458q0 28 30 28q28 0 28 -28v-1430q0 -28 -28 -28q-30 0 -30 28v1430zM170 2033q12 14 28 -2l242 -240q7 -7 7 -15.5t-7 -15.5l-9 -9q-6 -7 -15 -7t-15 7l-218 214l-216 -212q-5 -6 -14.5 -6t-16.5 6l-8 9q-8 8 -7.5 16t7.5 15z" />
<glyph unicode="&#xcf;" horiz-adv-x="373" d="M174 1458q0 28 30 28q28 0 28 -28v-1430q0 -28 -28 -28q-30 0 -30 28v1430zM-36 1788q0 20 14.5 34.5t34.5 14.5t34.5 -14.5t14.5 -34.5t-14.5 -34.5t-34.5 -14.5t-34.5 14.5t-14.5 34.5zM319 1788q0 20 14.5 34.5t34.5 14.5t34.5 -14.5t14.5 -34.5t-14.5 -34.5 t-34.5 -14.5t-34.5 14.5t-14.5 34.5z" />
<glyph unicode="&#xd0;" horiz-adv-x="1521" d="M160 1458q0 25 20 28h494q101 -2 195.5 -29.5t176.5 -76t149.5 -116t115.5 -149.5t74.5 -177t26.5 -198q0 -104 -27 -199t-76 -177t-117.5 -149t-152.5 -115t-180 -74t-199 -26h-470q-8 0 -12.5 1t-7.5 3l-4 4q-6 3 -6 12v517h-104q-29 0 -29 29q0 28 29 28h104v864z M660 56q95 0 183.5 24.5t165.5 69t140.5 107t109 138.5t70.5 163t25 182t-25 183.5t-70.5 165t-109 139.5t-140.5 108t-165.5 69.5t-183.5 24.5h-442v-836h284q31 0 31 -28q0 -29 -31 -29h-284v-481h442z" />
<glyph unicode="&#xd1;" horiz-adv-x="1544" d="M1322 1458q0 28 28 28t28 -28v-1476q-3 -22 -26 -22q-12 0 -17.5 3.5t-10.5 8.5l-1104 1428v-1372q0 -28 -28 -28q-30 0 -30 28v1460q0 28 22 28q9 0 13.5 -2t10.5 -8l1114 -1430v1382zM588 1743q-17 -17 -28 -17q-12 0 -21.5 11t-9.5 17q0 11 11 20q32 47 69.5 67.5 t82.5 20.5q30 0 57.5 -13.5t53.5 -29.5t52 -29.5t52 -13.5h9q20 3 38 15t33.5 26t28 25t21.5 11q10 0 19.5 -10.5t9.5 -17.5q0 -10 -9 -20q-32 -47 -69.5 -67.5t-82.5 -20.5q-25 0 -50.5 10t-50.5 25l-57 33q-12 7 -24 11.5t-27 6.5q-35 0 -60 -15t-48 -45z" />
<glyph unicode="&#xd2;" horiz-adv-x="1720" d="M81 742q0 104 27 201t76 181.5t118.5 154t153.5 119t181 77t202 27.5q157 0 295 -60t241.5 -163.5t163.5 -241.5t60 -295q0 -105 -27.5 -202t-77 -181t-119 -153.5t-154 -118.5t-181.5 -76t-201 -27q-105 0 -202 27t-181 76t-153.5 118.5t-118.5 153.5t-76 181t-27 202z M141 742q0 -144 55 -271t150 -222t222 -150t271 -55q96 0 185 25t167 70.5t142 109.5t110 141.5t71 166.5t25 185t-25 185t-71 167t-110 142t-142 110t-167 71t-185 25t-185 -25t-166.5 -71t-141.5 -110t-109.5 -142t-70.5 -167t-25 -185zM684 1945q-13 26 11 40 q25 13 39 -13l141 -249q14 -26 -13 -39t-40 13z" />
<glyph unicode="&#xd3;" horiz-adv-x="1720" d="M81 742q0 104 27 201t76 181.5t118.5 154t153.5 119t181 77t202 27.5q157 0 295 -60t241.5 -163.5t163.5 -241.5t60 -295q0 -105 -27.5 -202t-77 -181t-119 -153.5t-154 -118.5t-181.5 -76t-201 -27q-105 0 -202 27t-181 76t-153.5 118.5t-118.5 153.5t-76 181t-27 202z M141 742q0 -144 55 -271t150 -222t222 -150t271 -55q96 0 185 25t167 70.5t142 109.5t110 141.5t71 166.5t25 185t-25 185t-71 167t-110 142t-142 110t-167 71t-185 25t-185 -25t-166.5 -71t-141.5 -110t-109.5 -142t-70.5 -167t-25 -185zM867 1685q-13 -26 -40 -13t-13 39 l141 249q14 26 39 13q24 -14 11 -40z" />
<glyph unicode="&#xd4;" horiz-adv-x="1720" d="M81 742q0 104 27 201t76 181.5t118.5 154t153.5 119t181 77t202 27.5q157 0 295 -60t241.5 -163.5t163.5 -241.5t60 -295q0 -105 -27.5 -202t-77 -181t-119 -153.5t-154 -118.5t-181.5 -76t-201 -27q-105 0 -202 27t-181 76t-153.5 118.5t-118.5 153.5t-76 181t-27 202z M141 742q0 -144 55 -271t150 -222t222 -150t271 -55q96 0 185 25t167 70.5t142 109.5t110 141.5t71 166.5t25 185t-25 185t-71 167t-110 142t-142 110t-167 71t-185 25t-185 -25t-166.5 -71t-141.5 -110t-109.5 -142t-70.5 -167t-25 -185zM840 1988q12 14 28 -2l242 -240 q7 -7 7 -15.5t-7 -15.5l-9 -9q-6 -7 -15 -7t-15 7l-218 214l-216 -212q-5 -6 -14.5 -6t-16.5 6l-8 9q-8 8 -7.5 16t7.5 15z" />
<glyph unicode="&#xd5;" horiz-adv-x="1720" d="M81 742q0 104 27 201t76 181.5t118.5 154t153.5 119t181 77t202 27.5q157 0 295 -60t241.5 -163.5t163.5 -241.5t60 -295q0 -105 -27.5 -202t-77 -181t-119 -153.5t-154 -118.5t-181.5 -76t-201 -27q-105 0 -202 27t-181 76t-153.5 118.5t-118.5 153.5t-76 181t-27 202z M141 742q0 -144 55 -271t150 -222t222 -150t271 -55q96 0 185 25t167 70.5t142 109.5t110 141.5t71 166.5t25 185t-25 185t-71 167t-110 142t-142 110t-167 71t-185 25t-185 -25t-166.5 -71t-141.5 -110t-109.5 -142t-70.5 -167t-25 -185zM645 1734q-17 -17 -28 -17 q-12 0 -21.5 11t-9.5 17q0 11 11 20q32 47 69.5 67.5t82.5 20.5q30 0 57.5 -13.5t53.5 -29.5t52 -29.5t52 -13.5h9q20 3 38 15t33.5 26t28 25t21.5 11q10 0 19.5 -10.5t9.5 -17.5q0 -10 -9 -20q-32 -47 -69.5 -67.5t-82.5 -20.5q-25 0 -50.5 10t-50.5 25l-57 33 q-12 7 -24 11.5t-27 6.5q-35 0 -60 -15t-48 -45z" />
<glyph unicode="&#xd6;" horiz-adv-x="1720" d="M81 742q0 104 27 201t76 181.5t118.5 154t153.5 119t181 77t202 27.5q157 0 295 -60t241.5 -163.5t163.5 -241.5t60 -295q0 -105 -27.5 -202t-77 -181t-119 -153.5t-154 -118.5t-181.5 -76t-201 -27q-105 0 -202 27t-181 76t-153.5 118.5t-118.5 153.5t-76 181t-27 202z M141 742q0 -144 55 -271t150 -222t222 -150t271 -55q96 0 185 25t167 70.5t142 109.5t110 141.5t71 166.5t25 185t-25 185t-71 167t-110 142t-142 110t-167 71t-185 25t-185 -25t-166.5 -71t-141.5 -110t-109.5 -142t-70.5 -167t-25 -185zM629 1748q0 20 14.5 34.5 t34.5 14.5t34.5 -14.5t14.5 -34.5t-14.5 -34.5t-34.5 -14.5t-34.5 14.5t-14.5 34.5zM984 1748q0 20 14.5 34.5t34.5 14.5t34.5 -14.5t14.5 -34.5t-14.5 -34.5t-34.5 -14.5t-34.5 14.5t-14.5 34.5z" />
<glyph unicode="&#xd7;" horiz-adv-x="878" d="M244 394q-21 -23 -41 -2q-21 20 1 42l208 208l-206 206q-22 20 0 41q20 20 41 0l206 -206l206 206q21 20 41 0q21 -19 0 -40l-207 -206l209 -209q21 -22 1 -42q-20 -21 -42 1l-209 209z" />
<glyph unicode="&#xd8;" horiz-adv-x="1723" d="M147 742q0 -96 25 -185t70.5 -166.5t109 -141t141 -109t167 -70.5t185.5 -25t185 25t167 70.5t142 109t110 141t71 166.5t25 185t-25 185.5t-71 167t-110 141.5t-142 110t-167 71t-185 25t-185.5 -25t-167 -71t-141 -110t-109 -141.5t-70.5 -167t-25 -185.5zM86 742 q0 104 27 201.5t76.5 182t118.5 154t153.5 119t181.5 77t202 27.5q67 0 130 -11.5t123 -32.5l90 222q5 12 10 17.5t14 5.5q17 0 28 -8.5t11 -19.5q0 -6 -3 -15l-91 -226q99 -45 181 -116t141.5 -161t92.5 -195.5t33 -220.5q0 -105 -27.5 -202t-77 -181t-119 -153 t-154 -118.5t-181.5 -76.5t-201 -27q-63 0 -123 10t-117 28l-90 -210q-8 -18 -23 -18q-17 0 -28 9.5t-11 18.5q0 5 5 17l88 206q-102 43 -186.5 113.5t-145 161t-94.5 198t-34 224.5z" />
<glyph unicode="&#xd9;" horiz-adv-x="1492" d="M168 582q0 -115 43 -215t117.5 -174.5t174.5 -117.5t215 -43t215 43t174.5 117.5t117.5 174.5t43 215v876q0 28 30 28q28 0 28 -28v-884q-1 -83 -23 -159.5t-61.5 -143t-95 -121t-122.5 -93.5t-144.5 -60t-161.5 -21q-126 0 -236.5 47.5t-192.5 129.5t-129.5 192.5 t-47.5 236.5v876q0 28 28 28t28 -28v-876zM590 1944q-13 26 11 40q25 13 39 -13l141 -249q14 -26 -13 -39t-40 13z" />
<glyph unicode="&#xda;" horiz-adv-x="1492" d="M168 582q0 -115 43 -215t117.5 -174.5t174.5 -117.5t215 -43t215 43t174.5 117.5t117.5 174.5t43 215v876q0 28 30 28q28 0 28 -28v-884q-1 -83 -23 -159.5t-61.5 -143t-95 -121t-122.5 -93.5t-144.5 -60t-161.5 -21q-126 0 -236.5 47.5t-192.5 129.5t-129.5 192.5 t-47.5 236.5v876q0 28 28 28t28 -28v-876zM747 1697q-13 -26 -40 -13t-13 39l141 249q14 26 39 13q24 -14 11 -40z" />
<glyph unicode="&#xdb;" horiz-adv-x="1492" d="M168 582q0 -115 43 -215t117.5 -174.5t174.5 -117.5t215 -43t215 43t174.5 117.5t117.5 174.5t43 215v876q0 28 30 28q28 0 28 -28v-884q-1 -83 -23 -159.5t-61.5 -143t-95 -121t-122.5 -93.5t-144.5 -60t-161.5 -21q-126 0 -236.5 47.5t-192.5 129.5t-129.5 192.5 t-47.5 236.5v876q0 28 28 28t28 -28v-876zM740 1986q12 14 28 -2l242 -240q7 -7 7 -15.5t-7 -15.5l-9 -9q-6 -7 -15 -7t-15 7l-218 214l-216 -212q-5 -6 -14.5 -6t-16.5 6l-8 9q-8 8 -7.5 16t7.5 15z" />
<glyph unicode="&#xdc;" horiz-adv-x="1492" d="M168 582q0 -115 43 -215t117.5 -174.5t174.5 -117.5t215 -43t215 43t174.5 117.5t117.5 174.5t43 215v876q0 28 30 28q28 0 28 -28v-884q-1 -83 -23 -159.5t-61.5 -143t-95 -121t-122.5 -93.5t-144.5 -60t-161.5 -21q-126 0 -236.5 47.5t-192.5 129.5t-129.5 192.5 t-47.5 236.5v876q0 28 28 28t28 -28v-876zM539 1750q0 20 14.5 34.5t34.5 14.5t34.5 -14.5t14.5 -34.5t-14.5 -34.5t-34.5 -14.5t-34.5 14.5t-14.5 34.5zM894 1750q0 20 14.5 34.5t34.5 14.5t34.5 -14.5t14.5 -34.5t-14.5 -34.5t-34.5 -14.5t-34.5 14.5t-14.5 34.5z" />
<glyph unicode="&#xdd;" horiz-adv-x="1192" d="M1062 1476q11 14 22 14t22.5 -9t11.5 -20q0 -8 -8 -19l-490 -820v-594q0 -28 -28 -28q-30 0 -30 28v592l-492 822q-7 10 -7 18q0 12 12.5 21t21.5 9q12 0 21 -14l472 -792zM701 1701q-5 -9 -10 -13.5t-13 -4.5q-14 0 -24.5 8.5t-10.5 19.5q0 6 5 16l141 249q10 18 23 17 q13 0 22.5 -8.5t9.5 -18.5q0 -7 -5 -17z" />
<glyph unicode="&#xde;" horiz-adv-x="1195" d="M160 1459q0 28 29 28q28 0 28 -28v-228h437q96 0 180 -36.5t146.5 -99t99 -146.5t36.5 -180t-36.5 -179.5t-99 -146t-146.5 -98.5t-180 -36h-435v-280q0 -29 -28 -29h-2q-29 0 -29 29v1430zM654 367q85 0 158.5 31t128 85t85.5 127.5t31 158.5t-31 159t-85.5 128.5 t-128 86t-158.5 31.5h-435v-807h435z" />
<glyph unicode="&#xdf;" horiz-adv-x="1116" d="M535 -24q-17 0 -42 1.5t-48 6.5t-40 14t-17 24q0 11 9 20.5t25 9.5q6 0 9 -1q29 -8 54 -13t52 -5q76 0 151.5 27.5t136 79t98 125.5t37.5 166q0 88 -25 159t-77 121t-132 76.5t-189 26.5q-17 0 -26 8.5t-9 18.5t8 18t25 8h11q64 0 120 15t98 47t66 81.5t24 118.5t-24 126 t-66.5 97.5t-101.5 63t-129 22.5q-66 0 -123.5 -22t-99.5 -62t-66 -96t-24 -124v-1477q0 -29 -28 -29q-31 0 -31 29v1477q0 86 30 153t81.5 113.5t119.5 70.5t143 24q78 0 146.5 -27.5t120.5 -76t82 -115.5t30 -145q0 -53 -14.5 -101.5t-40 -87.5t-60.5 -66t-77 -36 q76 -18 131.5 -55.5t92 -90.5t54 -119.5t17.5 -141.5q0 -100 -38 -184t-103.5 -144.5t-153 -94.5t-187.5 -34z" />
<glyph unicode="&#xe0;" horiz-adv-x="1201" d="M1061 29q0 -29 -28 -29q-31 0 -31 29v255q-20 -68 -63 -124.5t-100.5 -97t-125.5 -62.5t-138 -22q-99 0 -187 40.5t-153.5 110t-103.5 163t-38 199.5t38 200t103.5 164t153.5 110.5t187 40.5q71 0 138 -21t123.5 -60t99.5 -94t66 -123v243q0 31 31 31q28 0 28 -31v-922z M999 491q0 94 -33.5 177.5t-91 145.5t-135 98.5t-164.5 36.5q-89 0 -166 -36.5t-134 -98.5t-90 -145.5t-33 -177.5q0 -93 33 -176t90 -145.5t134 -98.5t166 -36q87 0 164.5 36t135 98.5t91 145.5t33.5 176zM451 1440q-5 10 -5 17q0 10 9 18.5t22 8.5q8 1 13.5 -4t10.5 -13 l141 -249q4 -8 4 -16q0 -11 -10.5 -19.5t-23.5 -8.5q-14 0 -23 18z" />
<glyph unicode="&#xe1;" horiz-adv-x="1201" d="M1061 29q0 -29 -28 -29q-31 0 -31 29v255q-20 -68 -63 -124.5t-100.5 -97t-125.5 -62.5t-138 -22q-99 0 -187 40.5t-153.5 110t-103.5 163t-38 199.5t38 200t103.5 164t153.5 110.5t187 40.5q71 0 138 -21t123.5 -60t99.5 -94t66 -123v243q0 31 31 31q28 0 28 -31v-922z M999 491q0 94 -33.5 177.5t-91 145.5t-135 98.5t-164.5 36.5q-89 0 -166 -36.5t-134 -98.5t-90 -145.5t-33 -177.5q0 -93 33 -176t90 -145.5t134 -98.5t166 -36q87 0 164.5 36t135 98.5t91 145.5t33.5 176zM690 1192q-13 -26 -40 -13t-13 39l141 249q14 26 39 13 q24 -14 11 -40z" />
<glyph unicode="&#xe2;" horiz-adv-x="1201" d="M1061 29q0 -29 -28 -29q-31 0 -31 29v255q-20 -68 -63 -124.5t-100.5 -97t-125.5 -62.5t-138 -22q-99 0 -187 40.5t-153.5 110t-103.5 163t-38 199.5t38 200t103.5 164t153.5 110.5t187 40.5q71 0 138 -21t123.5 -60t99.5 -94t66 -123v243q0 31 31 31q28 0 28 -31v-922z M999 491q0 94 -33.5 177.5t-91 145.5t-135 98.5t-164.5 36.5q-89 0 -166 -36.5t-134 -98.5t-90 -145.5t-33 -177.5q0 -93 33 -176t90 -145.5t134 -98.5t166 -36q87 0 164.5 36t135 98.5t91 145.5t33.5 176zM546 1476q12 14 28 -2l242 -240q7 -7 7 -15.5t-7 -15.5l-9 -9 q-6 -7 -15 -7t-15 7l-218 214l-216 -212q-5 -6 -14.5 -6t-16.5 6l-8 9q-8 8 -7.5 16t7.5 15z" />
<glyph unicode="&#xe3;" horiz-adv-x="1201" d="M1061 29q0 -29 -28 -29q-31 0 -31 29v255q-20 -68 -63 -124.5t-100.5 -97t-125.5 -62.5t-138 -22q-99 0 -187 40.5t-153.5 110t-103.5 163t-38 199.5t38 200t103.5 164t153.5 110.5t187 40.5q71 0 138 -21t123.5 -60t99.5 -94t66 -123v243q0 31 31 31q28 0 28 -31v-922z M999 491q0 94 -33.5 177.5t-91 145.5t-135 98.5t-164.5 36.5q-89 0 -166 -36.5t-134 -98.5t-90 -145.5t-33 -177.5q0 -93 33 -176t90 -145.5t134 -98.5t166 -36q87 0 164.5 36t135 98.5t91 145.5t33.5 176zM350 1225q-17 -17 -28 -17q-12 0 -21.5 11t-9.5 17q0 11 11 20 q32 47 69.5 67.5t82.5 20.5q30 0 57.5 -13.5t53.5 -29.5t52 -29.5t52 -13.5h9q20 3 38 15t33.5 26t28 25t21.5 11q10 0 19.5 -10.5t9.5 -17.5q0 -10 -9 -20q-32 -47 -69.5 -67.5t-82.5 -20.5q-25 0 -50.5 10t-50.5 25l-57 33q-12 7 -24 11.5t-27 6.5q-35 0 -60 -15t-48 -45z " />
<glyph unicode="&#xe4;" horiz-adv-x="1201" d="M1061 29q0 -29 -28 -29q-31 0 -31 29v255q-20 -68 -63 -124.5t-100.5 -97t-125.5 -62.5t-138 -22q-99 0 -187 40.5t-153.5 110t-103.5 163t-38 199.5t38 200t103.5 164t153.5 110.5t187 40.5q71 0 138 -21t123.5 -60t99.5 -94t66 -123v243q0 31 31 31q28 0 28 -31v-922z M999 491q0 94 -33.5 177.5t-91 145.5t-135 98.5t-164.5 36.5q-89 0 -166 -36.5t-134 -98.5t-90 -145.5t-33 -177.5q0 -93 33 -176t90 -145.5t134 -98.5t166 -36q87 0 164.5 36t135 98.5t91 145.5t33.5 176zM332 1231q0 20 14.5 34.5t34.5 14.5t34.5 -14.5t14.5 -34.5 t-14.5 -34.5t-34.5 -14.5t-34.5 14.5t-14.5 34.5zM687 1231q0 20 14.5 34.5t34.5 14.5t34.5 -14.5t14.5 -34.5t-14.5 -34.5t-34.5 -14.5t-34.5 14.5t-14.5 34.5z" />
<glyph unicode="&#xe5;" horiz-adv-x="1201" d="M1061 29q0 -29 -28 -29q-31 0 -31 29v255q-20 -68 -63 -124.5t-100.5 -97t-125.5 -62.5t-138 -22q-99 0 -187 40.5t-153.5 110t-103.5 163t-38 199.5t38 200t103.5 164t153.5 110.5t187 40.5q71 0 138 -21t123.5 -60t99.5 -94t66 -123v243q0 31 31 31q28 0 28 -31v-922z M999 491q0 94 -33.5 177.5t-91 145.5t-135 98.5t-164.5 36.5q-89 0 -166 -36.5t-134 -98.5t-90 -145.5t-33 -177.5q0 -93 33 -176t90 -145.5t134 -98.5t166 -36q87 0 164.5 36t135 98.5t91 145.5t33.5 176zM568 1560q34 0 63 -13t51 -35t34.5 -51t12.5 -61 q0 -34 -12.5 -63.5t-34.5 -51t-51 -34t-63 -12.5t-63.5 12.5t-51 34t-34 51t-12.5 63.5q0 32 12.5 61t34 51t51 35t63.5 13zM458 1400q0 -47 31.5 -78.5t78.5 -31.5t77.5 31.5t30.5 78.5q0 46 -30.5 77t-77.5 31q-23 0 -43 -8.5t-35 -23t-23.5 -34t-8.5 -42.5z" />
<glyph unicode="&#xe6;" horiz-adv-x="2025" d="M1060 29q0 -29 -28 -29q-31 0 -31 29v255q-20 -68 -63 -124.5t-100.5 -97t-125.5 -62.5t-138 -22q-99 0 -187 40.5t-153.5 110t-103.5 163t-38 199.5t38 200t103.5 164t153.5 110.5t187 40.5q71 0 138 -21t123.5 -60t99.5 -94t66 -123v243q0 31 31 31q28 0 28 -31v-922z M998 491q0 94 -33.5 177.5t-91 145.5t-135 98.5t-164.5 36.5q-89 0 -166 -36.5t-134 -98.5t-90 -145.5t-33 -177.5q0 -93 33 -176t90 -145.5t134 -98.5t166 -36q87 0 164.5 36t135 98.5t91 145.5t33.5 176zM1058 479q0 -93 36 -174t97.5 -141t143.5 -94.5t174 -34.5 q94 0 172.5 31t140.5 88q9 9 19 9q8 0 18 -8.5t10 -20.5q0 -13 -16 -26v2q-70 -65 -155.5 -98.5t-185.5 -33.5q-106 0 -199 40t-162.5 109t-109.5 162t-40 199t37.5 199t102 162.5t150.5 109.5t183 40q92 0 174 -37.5t145 -102.5t102.5 -152.5t46.5 -187.5q2 -4 2 -6.5v-4.5 q0 -29 -28 -29h-858zM1472 941q-79 0 -149.5 -31t-126 -85t-92 -127.5t-46.5 -158.5h827q-8 84 -44 157.5t-92 128t-127 85.5t-150 31z" />
<glyph unicode="&#xe7;" horiz-adv-x="1065" d="M909 825q-62 55 -140 86t-166 31q-93 0 -175.5 -36t-144 -97.5t-97.5 -144.5t-36 -176t36 -175.5t97.5 -144t144 -97.5t175.5 -36q91 0 170 31t140 88q10 8 19 8q11 0 20.5 -9.5t9.5 -20.5q0 -12 -16 -24v2q-67 -61 -146.5 -94t-170.5 -37v-140q31 -5 58.5 -21t47 -39 t31 -52.5t11.5 -62.5q0 -36 -14 -68.5t-38 -57t-56.5 -38.5t-68.5 -14q-13 0 -21 9t-8 20q0 12 8 20.5t21 8.5q25 0 46.5 9.5t37.5 26t25.5 38t9.5 46.5q0 24 -9 45.5t-25 37.5t-36.5 25.5t-44.5 10.5h-5q-27 1 -27 29v167q-100 6 -187 48.5t-151.5 111t-101.5 158.5 t-37 191q0 106 40 199t109 162.5t162 109.5t199 40q100 0 182.5 -35t151.5 -93q16 -13 16 -25q0 -10 -9.5 -20.5t-17.5 -10.5q-9 0 -19 10z" />
<glyph unicode="&#xe8;" horiz-adv-x="1144" d="M158 479q0 -93 36 -174t97.5 -141t143.5 -94.5t174 -34.5q94 0 172.5 31t140.5 88q9 9 19 9q8 0 18 -8.5t10 -20.5q0 -13 -16 -26v2q-70 -65 -155.5 -98.5t-185.5 -33.5q-106 0 -199 40t-162.5 109t-109.5 162t-40 199t37.5 199t102 162.5t150.5 109.5t183 40 q92 0 174 -37.5t145 -102.5t102.5 -152.5t46.5 -187.5q2 -4 2 -6.5v-4.5q0 -29 -28 -29h-858zM572 941q-79 0 -149.5 -31t-126 -85t-92 -127.5t-46.5 -158.5h827q-8 84 -44 157.5t-92 128t-127 85.5t-150 31zM437 1440q-5 10 -5 17q0 10 9 18.5t22 8.5q8 1 13.5 -4t10.5 -13 l141 -249q4 -8 4 -16q0 -11 -10.5 -19.5t-23.5 -8.5q-14 0 -23 18z" />
<glyph unicode="&#xe9;" horiz-adv-x="1144" d="M158 479q0 -93 36 -174t97.5 -141t143.5 -94.5t174 -34.5q94 0 172.5 31t140.5 88q9 9 19 9q8 0 18 -8.5t10 -20.5q0 -13 -16 -26v2q-70 -65 -155.5 -98.5t-185.5 -33.5q-106 0 -199 40t-162.5 109t-109.5 162t-40 199t37.5 199t102 162.5t150.5 109.5t183 40 q92 0 174 -37.5t145 -102.5t102.5 -152.5t46.5 -187.5q2 -4 2 -6.5v-4.5q0 -29 -28 -29h-858zM572 941q-79 0 -149.5 -31t-126 -85t-92 -127.5t-46.5 -158.5h827q-8 84 -44 157.5t-92 128t-127 85.5t-150 31zM559 1192q-5 -9 -10 -13.5t-13 -4.5q-14 0 -24.5 8.5t-10.5 19.5 q0 6 5 16l141 249q10 18 23 17q13 0 22.5 -8.5t9.5 -18.5q0 -7 -5 -17z" />
<glyph unicode="&#xea;" horiz-adv-x="1144" d="M158 479q0 -93 36 -174t97.5 -141t143.5 -94.5t174 -34.5q94 0 172.5 31t140.5 88q9 9 19 9q8 0 18 -8.5t10 -20.5q0 -13 -16 -26v2q-70 -65 -155.5 -98.5t-185.5 -33.5q-106 0 -199 40t-162.5 109t-109.5 162t-40 199t37.5 199t102 162.5t150.5 109.5t183 40 q92 0 174 -37.5t145 -102.5t102.5 -152.5t46.5 -187.5q2 -4 2 -6.5v-4.5q0 -29 -28 -29h-858zM572 941q-79 0 -149.5 -31t-126 -85t-92 -127.5t-46.5 -158.5h827q-8 84 -44 157.5t-92 128t-127 85.5t-150 31zM589 1476q6 6 12 6q8 0 16 -8l242 -240q7 -9 7 -16q0 -8 -7 -15 l-9 -9q-6 -7 -15 -7t-15 7l-218 214l-216 -212q-5 -6 -15 -6t-16 6l-8 9q-8 8 -8 15q0 8 8 16z" />
<glyph unicode="&#xeb;" horiz-adv-x="1144" d="M158 479q0 -93 36 -174t97.5 -141t143.5 -94.5t174 -34.5q94 0 172.5 31t140.5 88q11 11 21 9t21 -13q8 -14 4 -23t-15 -19v2q-70 -65 -155.5 -98.5t-185.5 -33.5q-106 0 -199 40t-162.5 109t-109.5 162t-40 199t37.5 199t102 162.5t150.5 109.5t183 40q92 0 174 -37.5 t145 -102.5t102.5 -152.5t46.5 -187.5q2 -4 2 -6.5v-4.5q0 -29 -28 -29h-858zM572 941q-79 0 -149.5 -31t-126 -85t-92 -127.5t-46.5 -158.5h827q-8 84 -44 157.5t-92 128t-127 85.5t-150 31zM341 1231q0 20 14.5 34.5t34.5 14.5t34.5 -14.5t14.5 -34.5t-14.5 -34.5 t-34.5 -14.5t-34.5 14.5t-14.5 34.5zM696 1231q0 20 14.5 34.5t34.5 14.5t34.5 -14.5t14.5 -34.5t-14.5 -34.5t-34.5 -14.5t-34.5 14.5t-14.5 34.5z" />
<glyph unicode="&#xec;" horiz-adv-x="379" d="M166 948q0 29 31 29q28 0 28 -29v-919q0 -29 -28 -29q-31 0 -31 29v919zM31 1440q-5 10 -5 17q0 10 9 18.5t22 8.5q8 1 13.5 -4t10.5 -13l141 -249q4 -8 4 -16q0 -11 -10.5 -19.5t-23.5 -8.5q-14 0 -23 18z" />
<glyph unicode="&#xed;" horiz-adv-x="379" d="M166 948q0 29 31 29q28 0 28 -29v-919q0 -29 -28 -29q-31 0 -31 29v919zM226 1192q-5 -9 -10 -13.5t-13 -4.5q-14 0 -24.5 8.5t-10.5 19.5q0 6 5 16l141 249q10 18 23 17q13 0 22.5 -8.5t9.5 -18.5q0 -7 -5 -17z" />
<glyph unicode="&#xee;" horiz-adv-x="379" d="M166 948q0 29 31 29q28 0 28 -29v-919q0 -29 -28 -29q-31 0 -31 29v919zM197 1476q12 14 28 -2l242 -240q7 -7 7 -15.5t-7 -15.5l-9 -9q-6 -7 -15 -7t-15 7l-218 214l-216 -212q-5 -6 -14.5 -6t-16.5 6l-8 9q-8 8 -7.5 16t7.5 15z" />
<glyph unicode="&#xef;" horiz-adv-x="379" d="M166 948q0 29 31 29q28 0 28 -29v-919q0 -29 -28 -29q-31 0 -31 29v919zM-22 1258q0 20 14.5 34.5t34.5 14.5t34.5 -14.5t14.5 -34.5t-14.5 -34.5t-34.5 -14.5t-34.5 14.5t-14.5 34.5zM333 1258q0 20 14.5 34.5t34.5 14.5t34.5 -14.5t14.5 -34.5t-14.5 -34.5t-34.5 -14.5 t-34.5 14.5t-14.5 34.5z" />
<glyph unicode="&#xf0;" horiz-adv-x="1227" d="M633 1351l151 105q8 7 19 7q8 -1 19 -11t11 -22t-14 -22l-152 -106l371 -536q39 -60 60.5 -130.5t21.5 -147.5q0 -105 -40 -198t-109 -162.5t-161.5 -109.5t-197.5 -40q-106 0 -199 40t-162.5 109.5t-109.5 162.5t-40 198q0 106 40 199t109.5 162.5t162.5 109.5t199 40 q66 0 125.5 -15.5t113.5 -44.5l-230 331l-143 -99q-10 -7 -20 -7q-9 1 -18.5 10.5t-9.5 21.5q0 7 4 13t10 11l143 99l-83 121q-6 9 -6 17t10.5 18t21.5 10t22 -15zM1063 488q0 93 -36 176t-98 144.5t-144.5 97.5t-175.5 36t-175.5 -36t-144 -97.5t-97.5 -144.5t-36 -176 t36 -175.5t97.5 -144t144 -97.5t175.5 -36t175.5 36t144.5 97.5t98 144t36 175.5z" />
<glyph unicode="&#xf1;" horiz-adv-x="1089" d="M202 29q0 -29 -30 -29q-29 0 -29 29v923q0 29 29 29q30 0 30 -29v-145q54 91 146 143.5t206 52.5q85 0 160 -32t130.5 -87.5t87.5 -130t32 -159.5v-565q0 -29 -29 -29t-29 29v569q-2 73 -29.5 136.5t-75 110t-111 73t-136.5 26.5q-72 0 -135.5 -25.5t-110.5 -71t-75 -107 t-31 -133.5v-578zM353 1225q-17 -17 -28 -17q-12 0 -21.5 11t-9.5 17q0 11 11 20q32 47 69.5 67.5t82.5 20.5q30 0 57.5 -13.5t53.5 -29.5t52 -29.5t52 -13.5h9q20 3 38 15t33.5 26t28 25t21.5 11q10 0 19.5 -10.5t9.5 -17.5q0 -10 -9 -20q-32 -47 -69.5 -67.5t-82.5 -20.5 q-25 -1 -50.5 10t-50.5 25l-57 33q-12 7 -24 11.5t-27 6.5q-35 0 -60 -15t-48 -45z" />
<glyph unicode="&#xf2;" horiz-adv-x="1221" d="M101 488q0 106 40 199t109 162.5t161.5 109.5t197.5 40q106 0 199 -40t162.5 -109.5t109.5 -162.5t40 -199q0 -105 -40 -198t-109.5 -162.5t-162.5 -109.5t-199 -40q-105 0 -197.5 40t-161.5 109.5t-109 162.5t-40 198zM158 488q0 -93 36 -175.5t98 -144t144.5 -97.5 t175.5 -36t175.5 36t144 97.5t97.5 144t36 175.5t-36 176t-97.5 144.5t-144 97.5t-175.5 36t-175.5 -36t-144.5 -97.5t-98 -144.5t-36 -176zM447 1440q-5 10 -5 17q0 10 9 18.5t22 8.5q8 1 13.5 -4t10.5 -13l141 -249q4 -8 4 -16q0 -11 -10.5 -19.5t-23.5 -8.5q-14 0 -23 18 z" />
<glyph unicode="&#xf3;" horiz-adv-x="1221" d="M101 488q0 106 40 199t109 162.5t161.5 109.5t197.5 40q106 0 199 -40t162.5 -109.5t109.5 -162.5t40 -199q0 -105 -40 -198t-109.5 -162.5t-162.5 -109.5t-199 -40q-105 0 -197.5 40t-161.5 109.5t-109 162.5t-40 198zM158 488q0 -93 36 -175.5t98 -144t144.5 -97.5 t175.5 -36t175.5 36t144 97.5t97.5 144t36 175.5t-36 176t-97.5 144.5t-144 97.5t-175.5 36t-175.5 -36t-144.5 -97.5t-98 -144.5t-36 -176zM569 1192q-13 -26 -40 -13t-13 39l141 249q14 26 39 13q24 -14 11 -40z" />
<glyph unicode="&#xf4;" horiz-adv-x="1221" d="M101 488q0 106 40 199t109 162.5t161.5 109.5t197.5 40q106 0 199 -40t162.5 -109.5t109.5 -162.5t40 -199q0 -105 -40 -198t-109.5 -162.5t-162.5 -109.5t-199 -40q-105 0 -197.5 40t-161.5 109.5t-109 162.5t-40 198zM158 488q0 -93 36 -175.5t98 -144t144.5 -97.5 t175.5 -36t175.5 36t144 97.5t97.5 144t36 175.5t-36 176t-97.5 144.5t-144 97.5t-175.5 36t-175.5 -36t-144.5 -97.5t-98 -144.5t-36 -176zM597 1476q12 14 28 -2l242 -240q7 -7 7 -15.5t-7 -15.5l-9 -9q-6 -7 -15 -7t-15 7l-218 214l-216 -212q-5 -6 -14.5 -6t-16.5 6 l-8 9q-8 8 -7.5 16t7.5 15z" />
<glyph unicode="&#xf5;" horiz-adv-x="1221" d="M101 488q0 106 40 199t109 162.5t161.5 109.5t197.5 40q106 0 199 -40t162.5 -109.5t109.5 -162.5t40 -199q0 -105 -40 -198t-109.5 -162.5t-162.5 -109.5t-199 -40q-105 0 -197.5 40t-161.5 109.5t-109 162.5t-40 198zM158 488q0 -93 36 -175.5t98 -144t144.5 -97.5 t175.5 -36t175.5 36t144 97.5t97.5 144t36 175.5t-36 176t-97.5 144.5t-144 97.5t-175.5 36t-175.5 -36t-144.5 -97.5t-98 -144.5t-36 -176zM386 1225q-17 -17 -28 -17q-12 0 -21.5 11t-9.5 17q0 11 11 20q32 47 69.5 67.5t82.5 20.5q30 0 57.5 -13.5t53.5 -29.5t52 -29.5 t52 -13.5h9q20 3 38 15t33.5 26t28 25t21.5 11q10 0 19.5 -10.5t9.5 -17.5q0 -10 -9 -20q-32 -47 -69.5 -67.5t-82.5 -20.5q-25 0 -50.5 10t-50.5 25l-57 33q-12 7 -24 11.5t-27 6.5q-35 0 -60 -15t-48 -45z" />
<glyph unicode="&#xf6;" horiz-adv-x="1221" d="M101 488q0 106 40 199t109 162.5t161.5 109.5t197.5 40q106 0 199 -40t162.5 -109.5t109.5 -162.5t40 -199q0 -105 -40 -198t-109.5 -162.5t-162.5 -109.5t-199 -40q-105 0 -197.5 40t-161.5 109.5t-109 162.5t-40 198zM158 488q0 -93 36 -175.5t98 -144t144.5 -97.5 t175.5 -36t175.5 36t144 97.5t97.5 144t36 175.5t-36 176t-97.5 144.5t-144 97.5t-175.5 36t-175.5 -36t-144.5 -97.5t-98 -144.5t-36 -176zM347 1231q0 20 14.5 34.5t34.5 14.5t34.5 -14.5t14.5 -34.5t-14.5 -34.5t-34.5 -14.5t-34.5 14.5t-14.5 34.5zM702 1231 q0 20 14.5 34.5t34.5 14.5t34.5 -14.5t14.5 -34.5t-14.5 -34.5t-34.5 -14.5t-34.5 14.5t-14.5 34.5z" />
<glyph unicode="&#xf7;" horiz-adv-x="939" d="M780 518q31 0 31 -28q0 -29 -31 -29h-644q-29 0 -29 29q0 28 29 28h644zM402 48q0 25 17.5 42.5t42.5 17.5t42.5 -17.5t17.5 -42.5t-17.5 -42.5t-42.5 -17.5t-42.5 17.5t-17.5 42.5zM402 932q0 25 17.5 42.5t42.5 17.5t42.5 -17.5t17.5 -42.5t-17.5 -42.5t-42.5 -17.5 t-42.5 17.5t-17.5 42.5z" />
<glyph unicode="&#xf8;" horiz-adv-x="1221" d="M158 488q0 -93 36 -175.5t98 -144t144.5 -97.5t175.5 -36t175.5 36t144 97.5t97.5 144t36 175.5t-36 176t-97.5 144.5t-144 97.5t-175.5 36t-175.5 -36t-144.5 -97.5t-98 -144.5t-36 -176zM101 488q0 106 40 199t109 162.5t161.5 109.5t197.5 40q45 0 88 -8t84 -22 l63 147q10 28 39 15q26 -10 15 -38l-63 -147q63 -32 115.5 -79t90 -106t58.5 -128.5t21 -144.5q0 -105 -40 -198t-109.5 -162.5t-162.5 -109.5t-199 -40q-44 0 -84.5 7t-79.5 20l-58 -139q-11 -28 -37 -17q-29 12 -18 39l59 139q-65 31 -118 78t-91.5 107t-59.5 130t-21 146 z" />
<glyph unicode="&#xf9;" horiz-adv-x="1111" d="M121 951q0 29 31 29q28 0 28 -29v-575q2 -74 29.5 -136.5t75 -108.5t111 -72t136.5 -26q74 0 138.5 27t112 74.5t74.5 111t27 137.5v568q0 29 29 29q31 0 31 -29v-922q0 -29 -31 -29q-29 0 -29 29v143q-56 -91 -147.5 -144.5t-204.5 -53.5q-85 0 -159.5 32t-130.5 87.5 t-88.5 130t-32.5 159.5v568zM399 1440q-13 26 11 40q25 13 39 -13l141 -249q14 -26 -13 -39t-40 13z" />
<glyph unicode="&#xfa;" horiz-adv-x="1111" d="M121 951q0 29 31 29q28 0 28 -29v-575q2 -74 29.5 -136.5t75 -108.5t111 -72t136.5 -26q74 0 138.5 27t112 74.5t74.5 111t27 137.5v568q0 29 29 29q31 0 31 -29v-922q0 -29 -31 -29q-29 0 -29 29v143q-56 -91 -147.5 -144.5t-204.5 -53.5q-85 0 -159.5 32t-130.5 87.5 t-88.5 130t-32.5 159.5v568zM521 1192q-13 -26 -40 -13t-13 39l141 249q14 26 39 13q24 -14 11 -40z" />
<glyph unicode="&#xfb;" horiz-adv-x="1111" d="M121 951q0 29 31 29q28 0 28 -29v-575q2 -74 29.5 -136.5t75 -108.5t111 -72t136.5 -26q74 0 138.5 27t112 74.5t74.5 111t27 137.5v568q0 29 29 29q31 0 31 -29v-922q0 -29 -31 -29q-29 0 -29 29v143q-56 -91 -147.5 -144.5t-204.5 -53.5q-85 0 -159.5 32t-130.5 87.5 t-88.5 130t-32.5 159.5v568zM508 1476q6 6 12 6q8 0 16 -8l242 -240q7 -9 7 -16q0 -8 -7 -15l-9 -9q-6 -7 -15 -7t-15 7l-218 214l-216 -212q-5 -6 -15 -6t-16 6l-8 9q-8 8 -8 15q0 8 8 16z" />
<glyph unicode="&#xfc;" horiz-adv-x="1111" d="M121 951q0 29 31 29q28 0 28 -29v-575q2 -74 29.5 -136.5t75 -108.5t111 -72t136.5 -26q74 0 138.5 27t112 74.5t74.5 111t27 137.5v568q0 29 29 29q31 0 31 -29v-922q0 -29 -31 -29q-29 0 -29 29v143q-56 -91 -147.5 -144.5t-204.5 -53.5q-85 0 -159.5 32t-130.5 87.5 t-88.5 130t-32.5 159.5v568zM299 1231q0 20 14.5 34.5t34.5 14.5t34.5 -14.5t14.5 -34.5t-14.5 -34.5t-34.5 -14.5t-34.5 14.5t-14.5 34.5zM654 1231q0 20 14.5 34.5t34.5 14.5t34.5 -14.5t14.5 -34.5t-14.5 -34.5t-34.5 -14.5t-34.5 14.5t-14.5 34.5z" />
<glyph unicode="&#xfd;" horiz-adv-x="928" d="M315 -389q-8 -14 -24 -14q-13 0 -23.5 9t-10.5 20q0 5 3 11l160 385l-383 917q-2 6 -2 10q0 11 9.5 21t23.5 10q15 0 24 -14l361 -865l359 858q5 9 11.5 15t14.5 6q16 0 23.5 -11t7.5 -18q0 -8 -2 -12zM559 1192q-5 -9 -10 -13.5t-13 -4.5q-14 0 -24.5 8.5t-10.5 19.5 q0 6 5 16l141 249q10 18 23 17q13 0 22.5 -8.5t9.5 -18.5q0 -7 -5 -17z" />
<glyph unicode="&#xfe;" horiz-adv-x="1236" d="M132 1447q0 29 29 29q28 0 28 -29v-754q12 30 30 67t43 65h-2q71 81 168 127.5t212 46.5q106 0 199 -40t162.5 -109.5t109.5 -162.5t40 -199q0 -105 -40 -198t-109.5 -162.5t-162.5 -109.5t-199 -40q-111 0 -207 44.5t-169 122.5q-12 13 -23 30t-20 35.5t-17 37t-15 34.5 v-655q0 -31 -28 -31q-29 0 -29 31v1820zM189 469q7 -86 46 -164.5t100 -138.5t140 -95.5t167 -35.5q93 0 176 36t144.5 97.5t97.5 144t36 175.5t-36 176t-97.5 144.5t-144.5 97.5t-176 36q-92 0 -174.5 -36t-144.5 -97.5t-98 -144.5t-36 -176v-19z" />
<glyph unicode="&#xff;" horiz-adv-x="928" d="M315 -389q-14 -22 -38 -11q-11 6 -16.5 16t-0.5 21l160 385l-383 917q-5 12 1 21.5t17 16.5q24 10 37 -11l361 -865l359 858q7 12 16.5 18.5t20.5 -0.5q28 -12 18 -38zM269 1257q0 20 14.5 34.5t34.5 14.5t34.5 -14.5t14.5 -34.5t-14.5 -34.5t-34.5 -14.5t-34.5 14.5 t-14.5 34.5zM624 1257q0 20 14.5 34.5t34.5 14.5t34.5 -14.5t14.5 -34.5t-14.5 -34.5t-34.5 -14.5t-34.5 14.5t-14.5 34.5z" />
<glyph unicode="&#x152;" horiz-adv-x="2591" d="M2509 1486q30 0 30 -28t-30 -28h-940v-822h770q32 0 32 -30q0 -28 -32 -28h-770v-494h962q30 0 30 -28t-30 -28h-1000q-2 0 -4 1t-4 1l-1 2h-1q-6 3 -8 9.5t-2 14.5v460q-39 -110 -109.5 -202.5t-164.5 -159.5t-206.5 -104.5t-235.5 -37.5q-105 0 -202 27t-181 76 t-153.5 118.5t-118.5 153.5t-76 181t-27 202q0 104 27 201t76 181.5t118.5 154t153.5 119t181 77t202 27.5q123 0 235.5 -37.5t206.5 -105t164.5 -160.5t109.5 -204v463v9t2 7q2 2 2 4l4.5 3t3.5 1q8 4 18 4h968zM97 742q0 -144 55 -271t150 -222t222 -150t271 -55 q96 0 185 25t167 70.5t142 109.5t110 141.5t71 166.5t25 185t-25 185t-71 167t-110 142t-142 110t-167 71t-185 25t-185 -25t-166.5 -71t-141.5 -110t-109.5 -142t-70.5 -167t-25 -185z" />
<glyph unicode="&#x153;" horiz-adv-x="2041" d="M1091 479q0 -93 36 -174t97.5 -141t143.5 -94.5t174 -34.5q94 0 172.5 31t140.5 88q11 11 21 9t21 -13q8 -14 4 -23t-15 -19v2q-70 -65 -155.5 -98.5t-185.5 -33.5q-85 0 -162 26t-140.5 72t-110.5 110t-72 140q-26 -76 -73 -139.5t-110.5 -110t-140.5 -72.5t-161 -26 q-105 0 -197.5 40t-161.5 109.5t-109 162.5t-40 198q0 106 40 199t109 162.5t161.5 109.5t197.5 40q84 0 160.5 -26t140 -72.5t110.5 -110t73 -139.5q24 76 68 139.5t102.5 110t129.5 72.5t148 26q92 0 174 -37.5t145 -102.5t102.5 -152.5t46.5 -187.5q2 -4 2 -6.5v-4.5 q0 -29 -28 -29h-858zM124 488q0 -93 36 -175.5t98 -144t144.5 -97.5t175.5 -36t175.5 36t144 97.5t97.5 144t36 175.5t-36 176t-97.5 144.5t-144 97.5t-175.5 36t-175.5 -36t-144.5 -97.5t-98 -144.5t-36 -176zM1505 941q-79 0 -149.5 -31t-126 -85t-92 -127.5t-46.5 -158.5 h827q-8 84 -44 157.5t-92 128t-127 85.5t-150 31z" />
<glyph unicode="&#x178;" horiz-adv-x="1192" d="M1062 1476q18 24 42 6q25 -15 6 -40l-490 -820v-594q0 -28 -28 -28q-30 0 -30 28v592l-492 822q-9 14 -6 24t14 16q25 19 40 -6l472 -792zM438 1753q0 20 14.5 34.5t34.5 14.5t34.5 -14.5t14.5 -34.5t-14.5 -34.5t-34.5 -14.5t-34.5 14.5t-14.5 34.5zM793 1753 q0 20 14.5 34.5t34.5 14.5t34.5 -14.5t14.5 -34.5t-14.5 -34.5t-34.5 -14.5t-34.5 14.5t-14.5 34.5z" />
<glyph unicode="&#x2c6;" horiz-adv-x="748" d="M359 1476q12 14 28 -2l242 -240q7 -7 7 -15.5t-7 -15.5l-9 -9q-6 -7 -15 -7t-15 7l-218 214l-216 -212q-5 -6 -14.5 -6t-16.5 6l-8 9q-8 8 -7.5 16t7.5 15z" />
<glyph unicode="&#x2da;" horiz-adv-x="420" d="M211 1497q34 0 63 -13t51 -35t34.5 -51t12.5 -61q0 -34 -12.5 -63.5t-34.5 -51t-51 -34t-63 -12.5t-63.5 12.5t-51 34t-34 51t-12.5 63.5q0 32 12.5 61t34 51t51 35t63.5 13zM101 1337q0 -47 31.5 -78.5t78.5 -31.5t77.5 31.5t30.5 78.5q0 46 -30.5 77t-77.5 31 q-23 0 -43 -8.5t-35 -23t-23.5 -34t-8.5 -42.5z" />
<glyph unicode="&#x2dc;" horiz-adv-x="590" d="M82 1225q-17 -17 -28 -17q-12 0 -21.5 11t-9.5 17q0 11 11 20q32 47 69.5 67.5t82.5 20.5q30 0 57.5 -13.5t53.5 -29.5t52 -29.5t52 -13.5h9q20 3 38 15t33.5 26t28 25t21.5 11q10 0 19.5 -10.5t9.5 -17.5q0 -10 -9 -20q-32 -47 -69.5 -67.5t-82.5 -20.5q-25 0 -50.5 10 t-50.5 25l-57 33q-12 7 -24 11.5t-27 6.5q-35 0 -60 -15t-48 -45z" />
<glyph unicode="&#x2000;" horiz-adv-x="1019" />
<glyph unicode="&#x2001;" horiz-adv-x="2039" />
<glyph unicode="&#x2002;" horiz-adv-x="1019" />
<glyph unicode="&#x2003;" horiz-adv-x="2039" />
<glyph unicode="&#x2004;" horiz-adv-x="679" />
<glyph unicode="&#x2005;" horiz-adv-x="509" />
<glyph unicode="&#x2006;" horiz-adv-x="339" />
<glyph unicode="&#x2007;" horiz-adv-x="339" />
<glyph unicode="&#x2008;" horiz-adv-x="254" />
<glyph unicode="&#x2009;" horiz-adv-x="407" />
<glyph unicode="&#x200a;" horiz-adv-x="113" />
<glyph unicode="&#x2010;" horiz-adv-x="1016" d="M840 578q31 0 31 -28q0 -29 -31 -29h-644q-29 0 -29 29q0 28 29 28h644z" />
<glyph unicode="&#x2011;" horiz-adv-x="1016" d="M840 578q31 0 31 -28q0 -29 -31 -29h-644q-29 0 -29 29q0 28 29 28h644z" />
<glyph unicode="&#x2012;" horiz-adv-x="1016" d="M840 578q31 0 31 -28q0 -29 -31 -29h-644q-29 0 -29 29q0 28 29 28h644z" />
<glyph unicode="&#x2013;" horiz-adv-x="1350" d="M1152 579q31 0 31 -28q0 -29 -31 -29h-957q-29 0 -29 29q0 28 29 28h957z" />
<glyph unicode="&#x2014;" horiz-adv-x="1666" d="M1483 580q31 0 31 -28q0 -29 -31 -29h-1287q-29 0 -29 29q0 28 29 28h1287z" />
<glyph unicode="&#x2018;" horiz-adv-x="372" d="M202 1320q0 -25 -17.5 -42.5t-42.5 -17.5q-24 0 -41 17t-19 40v42q0 31 6 55t15 41t19.5 26t19.5 9q5 0 10 -5l12 -10q3 -5 3 -9q0 -6 -4.5 -12t-10 -14.5t-10 -19.5t-4.5 -26v-14h4q25 0 42.5 -17.5t17.5 -42.5z" />
<glyph unicode="&#x2019;" horiz-adv-x="375" d="M146 1436q0 25 17.5 42.5t42.5 17.5q24 0 41 -17t19 -40v-42q0 -31 -6 -55t-15 -41t-19.5 -26t-19.5 -9q-5 0 -10 5l-12 10q-3 4 -3 9q0 6 4.5 12t10 14.5t10 19.5t4.5 26v14h-4q-25 0 -42.5 17.5t-17.5 42.5z" />
<glyph unicode="&#x201a;" horiz-adv-x="372" d="M146 50q0 25 17.5 42.5t42.5 17.5q24 0 41 -17t19 -40v-42q0 -31 -6 -55t-15 -41t-19.5 -26t-19.5 -9q-5 0 -10 5l-12 10q-3 4 -3 9q0 6 4.5 12t10 14.5t10 19.5t4.5 26v14h-4q-25 0 -42.5 17.5t-17.5 42.5z" />
<glyph unicode="&#x201c;" horiz-adv-x="581" d="M202 1320q0 -25 -17.5 -42.5t-42.5 -17.5q-24 0 -41 17t-19 40v42q0 31 6 55t15 41t19.5 26t19.5 9q5 0 10 -5l12 -10q3 -5 3 -9q0 -6 -4.5 -12t-10 -14.5t-10 -19.5t-4.5 -26v-14h4q25 0 42.5 -17.5t17.5 -42.5zM432 1320q0 -25 -17.5 -42.5t-42.5 -17.5q-24 0 -41 17 t-19 40v42q0 31 6 55t15 41t19.5 26t19.5 9q5 0 10 -5l12 -10q3 -5 3 -9q0 -6 -4.5 -12t-10 -14.5t-10 -19.5t-4.5 -26v-14h4q25 0 42.5 -17.5t17.5 -42.5z" />
<glyph unicode="&#x201d;" horiz-adv-x="599" d="M129 1432q0 25 17.5 42.5t42.5 17.5q24 0 41 -17t19 -40v-42q0 -31 -6 -55t-15 -41t-19.5 -26t-19.5 -9q-5 0 -10 5l-12 10q-3 4 -3 9q0 6 4.5 12t10 14.5t10 19.5t4.5 26v14h-4q-25 0 -42.5 17.5t-17.5 42.5zM336 1432q0 25 17.5 42.5t42.5 17.5q24 0 41 -17t19 -40v-42 q0 -31 -6 -55t-15 -41t-19.5 -26t-19.5 -9q-5 0 -10 5l-12 10q-3 4 -3 9q0 6 4.5 12t10 14.5t10 19.5t4.5 26v14h-4q-25 0 -42.5 17.5t-17.5 42.5z" />
<glyph unicode="&#x201e;" horiz-adv-x="570" d="M119 50q0 25 17.5 42.5t42.5 17.5q24 0 41 -17t19 -40v-42q0 -31 -6 -55t-15 -41t-19.5 -26t-19.5 -9q-5 0 -10 5l-12 10q-3 4 -3 9q0 6 4.5 12t10 14.5t10 19.5t4.5 26v14h-4q-25 0 -42.5 17.5t-17.5 42.5zM326 50q0 25 17.5 42.5t42.5 17.5q24 0 41 -17t19 -40v-42 q0 -31 -6 -55t-15 -41t-19.5 -26t-19.5 -9q-5 0 -10 5l-12 10q-3 4 -3 9q0 6 4.5 12t10 14.5t10 19.5t4.5 26v14h-4q-25 0 -42.5 17.5t-17.5 42.5z" />
<glyph unicode="&#x2022;" horiz-adv-x="498" d="M164 559q0 26 19 45t46 19q26 0 44.5 -19t18.5 -45t-18.5 -45t-44.5 -19q-27 0 -46 19t-19 45z" />
<glyph unicode="&#x2026;" horiz-adv-x="1209" d="M154 50q0 25 17.5 42.5t42.5 17.5t42.5 -17.5t17.5 -42.5t-17.5 -42.5t-42.5 -17.5t-42.5 17.5t-17.5 42.5zM522 50q0 25 17.5 42.5t42.5 17.5t42.5 -17.5t17.5 -42.5t-17.5 -42.5t-42.5 -17.5t-42.5 17.5t-17.5 42.5zM880 50q0 25 17.5 42.5t42.5 17.5t42.5 -17.5 t17.5 -42.5t-17.5 -42.5t-42.5 -17.5t-42.5 17.5t-17.5 42.5z" />
<glyph unicode="&#x202f;" horiz-adv-x="407" />
<glyph unicode="&#x2039;" horiz-adv-x="799" d="M127 559q-1 0 -2 1l532 529q1 2 6.5 6t13.5 4q11 0 18.5 -7.5t7.5 -18.5t-7 -18l-497 -497l493 -493q3 -3 7 -8t4 -13q0 -11 -7.5 -18t-18.5 -7q-9 0 -17 6z" />
<glyph unicode="&#x203a;" horiz-adv-x="843" d="M198 25q-8 -6 -17 -6q-11 0 -18.5 7t-7.5 18q0 8 4 13t7 8l493 493l-497 497q-7 7 -7 18t7.5 18.5t18.5 7.5q8 0 13.5 -4t6.5 -6l532 -529q-1 -1 -2 -1z" />
<glyph unicode="&#x205f;" horiz-adv-x="509" />
<glyph unicode="&#x20ac;" horiz-adv-x="1490" d="M731 899q31 0 31 -28q0 -29 -31 -29h-516q-4 -25 -5.5 -50t-1.5 -51q0 -28 2 -55.5t6 -53.5h515q31 0 31 -29t-31 -29h-503q28 -114 91.5 -211t152.5 -168t200 -111t234 -40q128 0 240.5 42.5t206.5 117.5q23 23 44 -4q20 -26 -7 -43q-100 -82 -221.5 -128t-262.5 -46 q-136 0 -258 44.5t-219.5 123.5t-165.5 187.5t-96 235.5h-80q-29 0 -29 29t29 29h70q-4 26 -6 53.5t-2 55.5q0 26 1.5 51t5.5 50h-69q-29 0 -29 29q0 28 29 28h78q27 129 95 239t165.5 191t220.5 127t260 46q141 0 262.5 -47t221.5 -129q27 -17 7 -43q-10 -13 -21.5 -14.5 t-22.5 10.5q-94 78 -206.5 120t-240.5 42q-124 0 -235.5 -41t-201.5 -114t-153 -172t-90 -215h505z" />
<glyph unicode="&#x2122;" horiz-adv-x="1292" d="M481 1485q31 0 31 -28q0 -29 -31 -29h-173v-527q0 -29 -28 -29q-29 0 -29 29v527h-176q-28 0 -28 29q0 28 28 28h406zM1190 911q0 -14 -5.5 -23.5t-20.5 -9.5q-16 0 -22.5 8t-8.5 23l-36 438l-202 -427q-5 -11 -11.5 -17t-15.5 -6q-19 0 -28 23l-182 416l-34 -429 q-2 -15 -9 -24t-21 -9t-20.5 12t-6.5 24l42 534q3 19 12 27t21 8q6 0 13 -3.5t11 -11.5l200 -460l223 469q12 17 22 17q14 0 24 -5.5t11 -16.5z" />
<glyph unicode="&#x25fc;" horiz-adv-x="980" d="M0 980h980v-980h-980v980z" />
</font>
</defs>
</svg>
