<?xml version="1.0" standalone="no"?>
<!DOCTYPE svg PUBLIC "-//W3C//DTD SVG 1.1//EN" "http://www.w3.org/Graphics/SVG/1.1/DTD/svg11.dtd" >
<svg xmlns="http://www.w3.org/2000/svg" xmlns:xlink="http://www.w3.org/1999/xlink" version="1.1">
<metadata></metadata>
<defs>
<font id="cocomatregular" horiz-adv-x="1256" >
<font-face units-per-em="2000" ascent="1600" descent="-400" />
<missing-glyph horiz-adv-x="627" />
<glyph unicode="&#xfb01;" horiz-adv-x="1069" d="M746 828h-374v-778q0 -24 -16 -37t-35 -13h-65q-23 0 -35 14t-12 36v778h-99q-21 0 -34.5 15t-13.5 40v46q0 26 13.5 38t34.5 12h99v183q0 62 13 122t43 106.5t79.5 75t121.5 28.5q16 0 34 -1t34 -6t26.5 -16t10.5 -31v-60q0 -19 -11 -34.5t-29 -15.5t-32 1.5t-28 1.5 q-23 0 -41.5 -6t-31 -24.5t-19.5 -52.5t-7 -90v-181h490q22 0 34.5 -12t12.5 -32v-891q0 -21 -12.5 -32.5t-33.5 -11.5h-71q-46 0 -46 44v784zM718 1276q0 24 9 44.5t24.5 36t36 24.5t44.5 9t44.5 -9t36 -24.5t24.5 -36t9 -44.5t-9 -44.5t-24.5 -36t-36 -24.5t-44.5 -9 t-44.5 9t-36 24.5t-24.5 36t-9 44.5z" />
<glyph horiz-adv-x="0" />
<glyph horiz-adv-x="666" />
<glyph unicode=" "  horiz-adv-x="627" />
<glyph unicode="&#x09;" horiz-adv-x="627" />
<glyph unicode="&#xa0;" horiz-adv-x="627" />
<glyph unicode="!" horiz-adv-x="497" d="M335 450q0 -22 -12 -33t-33 -11h-83q-45 0 -45 44v991q0 20 11.5 32t33.5 12h83q20 0 32.5 -12t12.5 -32v-991zM120 94q0 26 10 49t27 40t39.5 27t48.5 10q27 0 50 -10t40 -27t26.5 -40t9.5 -49t-9.5 -48.5t-26.5 -39.5t-40 -27t-50 -10q-26 0 -48.5 10t-39.5 27 t-27 39.5t-10 48.5z" />
<glyph unicode="&#x22;" horiz-adv-x="832" d="M162 1442q0 44 44 44h84q21 0 33 -11t12 -33v-335q0 -29 -13.5 -37.5t-33.5 -8.5h-82q-44 0 -44 46v335zM487 1442q0 44 44 44h84q44 0 44 -44v-335q0 -29 -13 -37.5t-33 -8.5h-82q-44 0 -44 46v335z" />
<glyph unicode="#" horiz-adv-x="1034" d="M413 570h207v343h-207v-343zM620 1441q0 18 11 31t33 13h83q18 0 32 -12t14 -32v-354h119q18 0 31 -11.5t13 -32.5v-84q0 -18 -12 -32t-32 -14h-119v-343h119q18 0 31 -11t13 -33v-82q0 -18 -12 -33t-32 -15h-119v-352q0 -44 -46 -44h-83q-44 0 -44 44v352h-207v-352 q0 -44 -47 -44h-82q-44 0 -44 44v352h-110q-46 0 -46 48v82q0 44 46 44h110v343h-110q-46 0 -46 46v84q0 44 46 44h110v354q0 18 11 31t33 13h82q18 0 32.5 -12t14.5 -32v-354h207v354z" />
<glyph unicode="$" horiz-adv-x="1283" d="M1002 1177q-24 21 -60 49t-82 53t-101 42.5t-118 17.5q-85 0 -146 -21t-100.5 -55.5t-58 -77.5t-18.5 -86q0 -51 31.5 -88.5t82 -65t114 -47.5t128.5 -38q59 -16 121.5 -34t121.5 -40.5t111 -52.5t91 -71t61.5 -94.5t22.5 -123.5q0 -98 -36 -177.5t-100 -138.5 t-150.5 -95.5t-188.5 -47.5v-145q0 -45 -47 -45h-82q-44 0 -44 45v146q-132 15 -248 77t-199 170q-16 21 -16 36q0 17 18 32l64 53q7 5 15.5 8t15.5 3t13.5 -4t12.5 -9.5t11 -10.5l7 -7q44 -46 98.5 -80.5t109 -58t105 -35.5t86.5 -12q42 0 86.5 7.5t87 23t80.5 39t66.5 55 t45 71.5t16.5 88q0 61 -33.5 103t-90 71.5t-129.5 50.5t-151 41q-123 32 -215.5 69t-154 84.5t-92 106.5t-30.5 135q0 82 29.5 151.5t84 122.5t132.5 87.5t175 45.5v137q0 18 11 31t33 13h82q19 0 33 -12t14 -32v-137q52 -8 103.5 -24.5t99.5 -40.5t91.5 -54t79.5 -65 q13 -13 26 -28t13 -28q0 -15 -16 -31l-60 -58q-14 -14 -27 -14q-16 0 -36 20z" />
<glyph unicode="%" horiz-adv-x="1857" d="M96 1126q0 80 30 150t82 122.5t122.5 82.5t150.5 30t150 -30t122.5 -82.5t82.5 -122.5t30 -150t-30 -150.5t-82.5 -122.5t-122.5 -82t-150 -30t-150.5 30t-122.5 82t-82 122.5t-30 150.5zM1000 364q0 80 30 150t82.5 122.5t122.5 82.5t150 30t150.5 -30t122.5 -82.5 t82 -122.5t30 -150t-30 -150t-82 -122.5t-122.5 -82.5t-150.5 -30t-150 30t-122.5 82.5t-82.5 122.5t-30 150zM1154 364q0 -49 18 -91t49 -73t73.5 -49t90.5 -18t90 18t73 49t49 73t18 91q0 52 -19 94.5t-51 72.5t-73.5 46.5t-86.5 16.5q-48 0 -90.5 -18t-73.5 -49t-49 -73 t-18 -90zM250 1126q0 -48 18 -90.5t49 -73.5t73 -49t91 -18q48 0 90 18t73 49t49 73.5t18 90.5t-18 90.5t-49 73.5t-73 49t-90 18q-49 0 -91 -18t-73 -49t-49 -73.5t-18 -90.5zM1159 1441q11 26 23.5 35t37.5 9h90q41 0 41 -25q0 -5 -2 -11.5t-2 -12.5q0 -1 1 -1 q-172 -351 -339.5 -699.5t-338.5 -700.5q-8 -17 -20 -26t-30 -9h-105q-33 0 -33 21v7t4 14z" />
<glyph unicode="&#x26;" horiz-adv-x="1676" d="M959 433q-38 8 -74.5 14.5t-79.5 6.5q-19 0 -39 -4t-39 -4q-17 0 -30 15.5t-13 33.5q0 27 12.5 49.5t33.5 38t49.5 24t61.5 8.5q58 0 119 -16.5t121 -36t117.5 -35.5t109.5 -16q29 0 57.5 7.5t52 23t41 40t24.5 59.5q5 27 12.5 46t29.5 19h80q21 0 32.5 -15.5t11.5 -41.5 q0 -58 -26.5 -112.5t-72 -96.5t-106 -67t-128.5 -25q-52 0 -98 13t-99 25q-10 -102 -53 -179t-109.5 -128.5t-151.5 -77t-179 -25.5q-102 0 -192.5 34t-158.5 95t-107.5 145.5t-39.5 185.5q0 143 64 243.5t176 159.5q-63 46 -100 118t-37 162q0 81 31 151t84 122.5 t124.5 82.5t152.5 30q79 0 149.5 -26.5t123.5 -76.5t84.5 -121.5t31.5 -161.5q0 -44 -43 -44h-71q-49 0 -49 44q0 49 -15.5 90.5t-44.5 71.5t-70.5 46.5t-94.5 16.5q-56 0 -99 -19t-72.5 -50.5t-45 -72.5t-15.5 -86q0 -44 16.5 -83t45.5 -68.5t68.5 -47t85.5 -17.5 q49 0 49 -44v-50q0 -23 -14 -36t-36 -13q-74 0 -133 -22t-100 -63.5t-63 -100.5t-22 -133q0 -69 27 -124.5t72.5 -94.5t107 -60.5t130.5 -21.5q63 0 123 18t106.5 55t75 92.5t28.5 130.5z" />
<glyph unicode="'" horiz-adv-x="528" d="M162 1442q0 44 44 44h84q21 0 33 -11t12 -33v-335q0 -29 -13.5 -37.5t-33.5 -8.5h-82q-44 0 -44 46v335z" />
<glyph unicode="(" horiz-adv-x="497" d="M347 -253q-137 217 -210.5 467.5t-73.5 524.5t73.5 524.5t210.5 467.5q12 20 32 20q13 0 25 -9l71 -50q20 -14 20 -37q0 -14 -9 -26q-127 -201 -189 -426t-62 -464q0 -241 62.5 -464.5t188.5 -428.5q9 -12 9 -27q0 -10 -4.5 -20t-15.5 -17l-71 -46q-12 -9 -25 -9 q-20 0 -32 20z" />
<glyph unicode=")" horiz-adv-x="497" d="M151 -253q-12 -20 -32 -20q-13 0 -25 9l-71 46q-11 7 -15.5 17t-4.5 20q0 15 9 27q126 205 188.5 428.5t62.5 464.5q0 239 -62 464t-189 426q-9 12 -9 26q0 23 20 37l71 50q12 9 25 9q20 0 32 -20q137 -217 210.5 -467.5t73.5 -524.5t-73.5 -524.5t-210.5 -467.5z" />
<glyph unicode="*" horiz-adv-x="983" d="M612 711l200 17q20 0 32 -13.5t12 -39.5v-65q0 -20 -10.5 -38t-33.5 -18q-48 5 -96 9t-104 8l115 -164q6 -12 6 -22q0 -25 -30 -43l-56 -33q-17 -10 -34 -10q-24 0 -37 21l-86 181l-84 -181q-13 -22 -36 -22q-15 0 -32 10l-57 32q-14 8 -22.5 20.5t-9.5 26.5q0 9 6 20 q28 38 56 78t58 86l-183 -17q-29 0 -44 9.5t-15 38.5v73q0 26 10 39.5t34 13.5q46 -5 93.5 -9t104.5 -8l-106 151q-14 23 -14 39q0 11 6 19.5t20 16.5l63 36q20 11 34 11q15 0 30 -21t30 -51.5t30 -66t29 -64.5l78 168q10 17 19.5 26.5t23.5 9.5q11 0 28 -9l62 -37 q32 -19 32 -41q0 -12 -7 -23z" />
<glyph unicode="+" horiz-adv-x="900" d="M536 316q0 -18 -11.5 -31t-32.5 -13h-83q-18 0 -32.5 12t-14.5 32v235h-233q-44 0 -44 46v84q0 44 44 44h233v232q0 47 47 47h83q44 0 44 -47v-232h234q19 0 31.5 -11.5t12.5 -32.5v-84q0 -18 -12 -32t-32 -14h-234v-235z" />
<glyph unicode="," horiz-adv-x="528" d="M120 91q0 28 10.5 52.5t28.5 42.5t42.5 28t51.5 10q29 0 53.5 -10.5t42.5 -29t28 -45t10 -59.5q0 -70 -14 -122t-33.5 -86.5t-40 -51.5t-33.5 -17q-8 0 -12.5 1.5t-10.5 6.5l-31 24q-7 6 -11 14.5t-4 15.5q0 9 4.5 14.5t10.5 13.5q9 9 15.5 23t6.5 35v7q-23 4 -43.5 16 t-36.5 30t-25 40.5t-9 46.5z" />
<glyph unicode="-" horiz-adv-x="1034" d="M845 639q18 0 31 -11.5t13 -32.5v-84q0 -18 -12 -32t-32 -14h-637q-47 0 -47 46v84q0 44 47 44h637z" />
<glyph unicode="." horiz-adv-x="528" d="M120 94q0 26 10 49t27 40t39.5 27t48.5 10q27 0 50 -10t40 -27t26.5 -40t9.5 -49t-9.5 -48.5t-26.5 -39.5t-40 -27t-50 -10q-26 0 -48.5 10t-39.5 27t-27 39.5t-10 48.5z" />
<glyph unicode="/" horiz-adv-x="994" d="M689 1441q11 26 24 35t38 9h89q32 0 40.5 -10.5t-3.5 -41.5q-38 -88 -84.5 -201t-98.5 -239t-106 -258.5t-106 -258.5t-99 -239.5t-84 -201.5q-15 -35 -50 -35h-105q-24 0 -30.5 11.5t1.5 31.5z" />
<glyph unicode="0" horiz-adv-x="1672" d="M822 308q82 0 155 30t130 78h-570q58 -48 130 -78t155 -30zM586 463h564q45 55 70 124t25 147q0 80 -26.5 150t-81.5 139zM822 1251q-105 0 -198 -40t-163.5 -109t-112.5 -163.5t-42 -204.5q0 -103 39.5 -196t108 -163.5t163.5 -112.5t205 -42q35 0 70 5.5t68 15.5 q77 23 146 68t120 108.5t80.5 143.5t29.5 173q0 101 -38.5 194t-107 165t-163.5 115t-205 43zM822 260q-100 0 -186 38t-150 103t-99.5 151.5t-35.5 181.5q0 94 35 179.5t98 151t149.5 103.5t188.5 38q67 0 124 -16q71 -19 134.5 -60t111 -100t75 -134t27.5 -162 q0 -98 -37 -184.5t-101.5 -151t-150.5 -101.5t-183 -37zM492 1004q-45 -55 -70.5 -122.5t-25.5 -147.5q0 -83 28 -155.5t78 -130.5l555 556h-565zM822 1161q-83 0 -155.5 -29t-130.5 -81h566q-55 50 -126.5 80t-153.5 30zM972 191l-90 -16l4 -26l34 6l16 -89l26 5l-16 89 l31 6zM1072 156q-1 7 -8 9l-12 5h-15h-6h-9h-2v1q-3 3 -3 4l-2 1q2 0 2 4v1h3h5v4h1h5h3q3 0 3 1h9q0 3 0.5 4l0.5 1l5 10l-6 4q-9 4 -12 4q-2 0 -4.5 1t-4.5 1q-4 0 -6 -1t-4 -1l-13 -8q-2 -1 -4 -3.5t-3 -6.5q-8 -6 -8 -15v-4t3 -7q2 -9 10 -14q1 0 3.5 -1.5t3.5 -3.5 q4 0 7 -1t6 -1h12h10h2q2 0 3 -3q4 0 4 -1h3v-5q0 -2 -1 -3t-1 -2v-1q-1 0 -2 -2.5t-3 -2.5q-1 -3 -5 -3h-2.5h-2.5h-3.5h-2.5h-6h-8l-5 -1v-2t-1 -2l-5 -7q1 -4 3 -6t3 -4q4 -1 7 -2t7 -1q8 -3 11 -2q4 0 8 1t7 1l7 3.5t8 4.5l5.5 5.5t4.5 6.5q0 5 2.5 7.5t2.5 7.5 t-0.5 8.5t-4.5 6.5q0 8 -5 10zM1122 151q-1 4 -3 4t-3.5 0.5t-3.5 0.5q-1 -1 -6 -1l-7 -4q-2 -1 -2 -3v-2q-1 -2 -1 -5v-1q0 -4 1 -4v-1q0 -6 4 -6q1 -5 6 -5h7q5 0 7 2q1 2 3 2.5t2 2.5v2q0 2 1 2l4 3v2q0 6 -5 6zM846 99q-1 0 -1 4q0 1 -1.5 1t-1.5 1q0 4 -1 4l-41 60 q0 1 -3 2q-1 3 -8 3h-9h-14l3 -119l27 1v79l51 -79h25v118h-30zM599 189l48 -18l8 25l-73 25l-41 -105l26 -11l15 41l38 -15l10 25l-38 15zM747 160l-8 11q-3 3 -6.5 5t-7.5 4q-4 1 -7 2t-8 3q-5 1 -9 1h-7q-10 0 -14 -5q-4 0 -7.5 -1t-7.5 -4l-11 -10q-4 -8 -10 -11 q-2 -5 -3.5 -8.5t-1.5 -6.5v-19l3 -15l5 -12l12 -11q3 -4 7 -5.5t6 -3.5q7 -4 15 -4q5 -1 8.5 -1h6.5q5 0 14 2q4 2 8.5 3t6.5 4q6 2 11 10l9 11q4 7 6 17v15q0 3 -0.5 6.5t-2.5 8.5l-3 7.5t-4 6.5zM730 121q0 -3 -1.5 -6.5t-3.5 -5.5l-4.5 -6t-4.5 -4q-4 -1 -6.5 -2 t-5.5 -1q-7 -3 -12 0q-3 0 -6.5 1t-5.5 2l-8 10q-2 2 -2.5 5.5t-0.5 6.5q-3 5 0 14q0 6 5 11l6 9l12 5h12l12 -5l9 -9q2 -3 3.5 -5t1.5 -6q2 -9 0 -14zM1309 460q-2 -2 -3 -4t-1 -6q0 -2 1 -4t3 -5l40 -57l-69 10h-10l-9 -6l-9 -17l97 -65l16 23l-46 32l60 -12l11 20l-33 50 l47 -30l15 24l-98 63zM1296 333l-14 13l-15 3q-3 2 -15 2h-6.5t-8.5 -2l-12 -3q-4 -3 -8.5 -6.5t-6.5 -6.5q-3 -3 -4.5 -6t-3.5 -6q-3 -3 -4 -6.5t-3 -8.5q0 -3 -1.5 -6.5t-1.5 -8.5v-6t3 -9l4 -13l10 -12l13 -10q5 -1 7.5 -3.5t7.5 -2.5t8.5 -2t6.5 -2t6.5 2t8.5 2 q3 0 6.5 2.5t7.5 3.5q6 3 13 10l10 12q1 2 3 5t2 8q1 5 1 15v15l-6 13q-2 4 -5 9zM1282 280q-3 -9 -7 -10q-8 -7 -10 -9q-3 -1 -6.5 -1h-6.5t-6.5 0.5t-4.5 0.5l-11 9q-4 4 -8 11v10v12q4 8 8 12l11 8q3 0 6 0.5t5 0.5q5 0 13 -3q2 -1 4.5 -3t5.5 -5q2 -2 4 -4.5t3 -5.5 q3 -3 3 -12q0 -2 -1.5 -6.5zM1209 220l-7 -4q-2 0 -3.5 -2.5t-1.5 -4.5l-5 -9l-8 -6q-4 -3 -6 -4t-6 -1q-6 -3 -12 0q-3 2 -5.5 2t-5.5 3q-7 4 -7 11q-5 1 -5 11q-5 3 0 14v3.5t2 7.5q2 2 4 3.5t4 3.5q8 3 10 3q3 2 10 2q2 0 10 3q2 4 5 5l2 7v8q-3 5 -12 5h-13l-14 -5 l-11 -5q-2 -2 -5.5 -4.5t-6.5 -6.5q-2 -2 -4 -5.5t-4 -8.5l-7 -15v-15q0 -5 2 -7.5t2 -7.5l6 -15q3 -3 6 -5t4 -5l15 -10l12 -2q5 -3 16 -3q4 0 7 1.5t7 2.5q5 1 8.5 3.5t6.5 5.5l5 2.5t5 4.5q3 0 5 3.5t5 6.5l3 14q5 4 5 13l-12 2h-6zM519 260l-102 -74l15 -10h2.5h2.5 q3 0 3.5 -0.5t1.5 0.5h5h5l10 10l40 -22l-2 -15v-5q0 -3 1 -3q0 -1 1 -1v-4q0 -1 2 -1l3 -4l17 -10l17 125zM507 218v-2v-3l-1 -22l-19 10l17 15h2h1v2v1h2q1 1 2 1zM477 255l18 20l-69 59l-20 -21l26 -22l-57 -66l20 -19l60 70zM257 411l83 -10h6q1 0 2 1t3 1l11 8l-45 77 l-23 -14l26 -44l-83 9q-1 0 -4.5 -0.5t-7.5 -3.5l-10 -5l45 -79l22 15zM357 303l22 18l-27 30l14 12l31 -39l20 17l-48 60l-90 -75l51 -58l19 18l-32 37l17 11zM191 741l50 4q1 -2 3.5 -4t4.5 -5q2 -1 3.5 -4t1.5 -6q1 -6 3 -11q0 -4 1 -6.5t1 -4.5q0 -8 -1 -14t-3 -11 q-1 -8 -4.5 -13t-6.5 -10q-7 -8 -19 -12q-11 -8 -23 -8h-17q-4 3 -7.5 4t-7.5 4q-4 1 -6.5 3t-6.5 4q-2 3 -5 6t-5 7q-2 2 -3.5 5.5t-3.5 6.5q-1 5 -2 9.5t-1 9.5v6.5v4.5q3 9 3 14q2 3 3.5 5.5t3.5 5.5q2 2 3.5 5t3.5 5l3 -5q3 0 4 -1l1 -1q2 -3 2 -8v-3t-2 -3 q-5 -5 -5 -11v-13t3 -17q2 -4 4.5 -7t5.5 -6q5 -5 14 -7q7 -4 17 -3q6 0 11 3q3 1 5 1.5t4 3.5q1 2 3.5 3t5.5 4q1 2 2.5 3.5t3.5 4.5q0 4 0.5 6.5t2.5 5.5q1 4 1 10q-1 4 -2 7t-2 8q0 3 -5 10l-19 -1v-5v-5q0 -2 -2 -5q-1 -1 -2 -2.5t-2 -1.5q-2 -1 -6 -1h-6zM264 831 l-9 -75l-118 12l8 75l19 -2l-7 -55l30 -5l5 47l20 -2l-5 -45l32 -3l5 57zM164 851l-17 5l22 90l18 -5l-10 -37l98 -23l-4 -18l-97 23zM205 988l-18 8l42 83l16 -8l-15 -32l89 -45l-8 -18l-90 45zM392 1106l-11 -16l-40 30l-35 -47l41 -30l-11 -15l-97 70l11 15l40 -29l35 47 l-40 30l11 15zM456 1166l-54 -51l-83 86l53 53l14 -15l-39 -39l20 -21l33 31l12 -14l-31 -30l21 -23l40 38zM514 1290l10 -17l-39 -24l24 -43l-14 -10l-63 100l63 40l9 -15l-47 -30l18 -26zM562 1290q0 -7 5 -10q2 -4 10 -7q2 -2 5 -2h5q5 0 10 2q8 3 10 7q5 5 7 10 q1 1 1 10q0 6 -1 11l-27 67l17 8l28 -68q2 -5 2.5 -9t0.5 -9q0 -10 -3 -19q-2 -5 -4.5 -8t-7.5 -7q-3 -5 -6 -6.5t-8 -3.5t-9.5 -3.5t-9.5 -1.5q-8 0 -18 5q-5 2 -8.5 3.5t-6.5 6.5q-7 7 -10 15l-30 67l18 8zM662 1276l-30 117l20 5l23 -97l49 10l3 -20zM731 1291l-12 120 l20 2l10 -98l51 5v-20zM864 1296l-19 4l12 118l44 -5q6 0 14 -4q9 -5 11 -10q4 -3 6 -13q4 -7 3 -15q-3 -3 -3 -6.5t-2 -8.5q-6 -8 -9 -11q-4 -4 -14 -7q-3 -2 -13 -2l-25 4zM895 1356h7q3 0 7 5q3 0 3 5q2 2 4 8q0 5 -1 7t-2 3.5l-1 1.5q-2 3 -3.5 4t-2.5 1q-2 2 -3.5 2 t-2.5 1l-25 2l-5 -38zM951 1285l-19 5l30 113l44 -12q6 0 11 -5l10 -10q4 -5 4 -13q1 -5 0.5 -8.5t-0.5 -6.5q-2 -5 -5 -10q-4 -5 -6 -7q-8 -5 -10 -5q-3 -2 -5.5 -2.5t-3.5 -2.5l21 -56l-15 1q-1 2 -3 3.5t-3 1.5q-4 2 -5 9l-19 46l-15 4zM977 1379l-10 -31l25 -7h3h2 q3 0 4 1t4 1q2 0 2 1.5v1.5q5 5 5 7v7v3t-1 3q-1 2 -2.5 2.5t-1.5 2.5q-3 3 -6 3zM1037 1321q0 5 2.5 8.5t6.5 6.5q1 3 4.5 5.5t6.5 4.5q3 3 6.5 4t8.5 3q4 3 14 3h15q9 -1 16 -6q8 -4 15 -9q3 -3 5.5 -6.5t4.5 -4.5l3.5 -7l3.5 -7q1 -5 2 -8t1 -7v-8t-2 -8q-1 -4 -2 -7.5 t-3 -7.5q-3 -4 -4 -7t-4 -7q-3 -3 -6.5 -5t-4.5 -6q-4 -2 -7 -4t-7 -5q-6 0 -16 -1q-12 0 -17 1q-5 0 -15 5q-12 5 -18 15q-9 9 -14 20q-1 7 -1 12v12q0 11 6 21zM1054 1315q-2 -4 -2.5 -6.5t-2.5 -5.5v-10q0 -2 1 -5t2 -5q0 -7 4 -10q1 -2 3 -4.5t3 -2.5q4 -5 10 -6 q7 -4 10 -4h12h12q4 5 8 5q3 2 5 3.5t3 3.5q3 3 4 5.5t3 4.5q2 3 2.5 7.5t0.5 9.5v7.5v7.5q-2 4 -4.5 7.5t-5.5 5.5q-6 7 -13 10q-2 2 -5 2.5t-7 0.5h-10q-6 0 -10 -1q-3 -2 -5 -3t-5 -1q-1 -2 -3 -4t-3 -4zM1222 1290l10 -9q0 -1 1.5 -3t3.5 -3q0 -5 -2 -9l-28 -85l83 38 q1 1 7 1q5 0 7 -4l10 -7l-117 -54l-15 11zM1279 1064l-47 56l90 76l49 -56l-14 -14l-37 44l-23 -19l29 -36l-16 -11l-28 35l-23 -21l35 -42zM1294 1039l-9 16l101 61l23 -37q2 -3 2.5 -6t2.5 -8q2 -7 -2 -12q-2 -9 -5 -13l-4.5 -4.5t-6.5 -5.5q-4 -1 -5.5 -1.5t-4.5 -2.5 q-4 0 -5.5 -0.5t-4.5 0.5q-4 0 -10 3q-4 1 -5.5 1.5t-3.5 3.5l-23 -59l-9 13q-4 2 -4 7q0 6 3 9l20 47l-8 13zM1381 1089l-29 -16l13 -19q2 -5 4 -6q1 0 6 -3h6q1 0 5 3q1 0 6 3q0 3 1 4t1 3q1 1 1 6q-1 1 -1 2.5t-2 3.5zM1436 969q1 1 1 7q0 4 -1 5q-2 3 -2 7q-3 0 -5 3 q-2 2 -5 2q-3 1 -5 0l-2.5 -2.5l-1.5 -1.5l-2 -2l-2 -2v-7v-10v-3v-2v-10q0 -2 -0.5 -4.5t-0.5 -4.5q-4 -14 -19 -21q-4 -2 -7.5 -3t-8.5 1q-6 0 -14 2q-4 3 -7 5t-5 6q-3 2 -5 5.5t-4 6.5q-3 10 -3 15q0 4 3 14q0 3 2 5l3 4q0 4 2 4q4 2 3 2l4 -2q3 -5 5 -7q0 -1 0.5 -2 t0.5 -3q0 -3 -3 -6v-1v-8q0 -5 2 -8q0 -2 1 -3t2 -4q2 0 3.5 -1.5l3.5 -3.5h2t4 -2h4.5t4.5 2q2 0 5 3q2 4 2 5q1 2 1 7v8v4v12q0 8 2 13q1 2 2 4.5t4 5.5q2 2 4.5 3.5t6.5 3.5q8 3 14 1q6 0 12 -3q3 -2 6.5 -3.5t5.5 -5.5q3 -3 6 -11q2 -7 2 -10q0 -7 -1 -10q0 -4 -4 -10 v-4.5t-2 -3.5l-6 4q-3 1 -4 2.5t-3 3.5q-1 3 -1 6v3zM1364 881l-5 18l113 34l5 -19zM1427 881h19q6 0 14 -5q4 0 7.5 -2.5t4.5 -4.5q4 -3 7 -5.5t6 -5.5q4 -8 7 -12q3 -8 5 -18v-15q-2 -10 -5 -15q-1 -5 -3 -8.5t-4 -6.5l-10 -10q-4 -4 -7.5 -5.5t-6.5 -2.5q-7 -4 -15 -4 q-10 -1 -19 0q-8 0 -15 4q-2 1 -6 2.5t-7 3.5q-3 3 -5.5 6.5t-4.5 5.5q-7 5 -8 15q-2 3 -3.5 6.5t-1.5 8.5q-1 13 1 23q5 13 10 20q7 10 18 17q5 3 11 5.5t11 2.5zM1430 861q-8 0 -10 -3q-5 -2 -10 -5q-4 -2 -6 -7q-5 -5 -5 -10q-2 -1 -2.5 -4t-1.5 -6v-10q2 -8 4 -11 q0 -6 5 -9q1 -3 3 -5t3 -5q2 0 4.5 -1.5t5.5 -3.5q2 -1 4.5 -1h5.5q5 -4 11 0q11 0 16 5q5 1 13 11q6 8 6 15q3 7 1 15q0 7 -2 10q-3 4 -3.5 6t-1.5 4q-3 2 -4.5 3.5l-3.5 3.5q-5 3 -10 5q-3 3 -11 3q-4 3 -11 0zM1377 645l2 16l96 60l-91 5l1 20l117 -10v-11q0 -5 -1 -9 q-4 -2 -4 -5l-81 -50l81 -6l-1 -19z" />
<glyph unicode="1" horiz-adv-x="1672" d="M822 308q82 0 155 30t130 78h-570q58 -48 130 -78t155 -30zM586 463h564q45 55 70 124t25 147q0 80 -26.5 150t-81.5 139zM822 1251q-105 0 -198 -40t-163.5 -109t-112.5 -163.5t-42 -204.5q0 -103 39.5 -196t108 -163.5t163.5 -112.5t205 -42q35 0 70 5.5t68 15.5 q77 23 146 68t120 108.5t80.5 143.5t29.5 173q0 101 -38.5 194t-107 165t-163.5 115t-205 43zM822 260q-100 0 -186 38t-150 103t-99.5 151.5t-35.5 181.5q0 94 35 179.5t98 151t149.5 103.5t188.5 38q67 0 124 -16q71 -19 134.5 -60t111 -100t75 -134t27.5 -162 q0 -98 -37 -184.5t-101.5 -151t-150.5 -101.5t-183 -37zM492 1004q-45 -55 -70.5 -122.5t-25.5 -147.5q0 -83 28 -155.5t78 -130.5l555 556h-565zM822 1161q-83 0 -155.5 -29t-130.5 -81h566q-55 50 -126.5 80t-153.5 30zM972 191l-90 -16l4 -26l34 6l16 -89l26 5l-16 89 l31 6zM1072 156q-1 7 -8 9l-12 5h-15h-6h-9h-2v1q-3 3 -3 4l-2 1q2 0 2 4v1h3h5v4h1h5h3q3 0 3 1h9q0 3 0.5 4l0.5 1l5 10l-6 4q-9 4 -12 4q-2 0 -4.5 1t-4.5 1q-4 0 -6 -1t-4 -1l-13 -8q-2 -1 -4 -3.5t-3 -6.5q-8 -6 -8 -15v-4t3 -7q2 -9 10 -14q1 0 3.5 -1.5t3.5 -3.5 q4 0 7 -1t6 -1h12h10h2q2 0 3 -3q4 0 4 -1h3v-5q0 -2 -1 -3t-1 -2v-1q-1 0 -2 -2.5t-3 -2.5q-1 -3 -5 -3h-2.5h-2.5h-3.5h-2.5h-6h-8l-5 -1v-2t-1 -2l-5 -7q1 -4 3 -6t3 -4q4 -1 7 -2t7 -1q8 -3 11 -2q4 0 8 1t7 1l7 3.5t8 4.5l5.5 5.5t4.5 6.5q0 5 2.5 7.5t2.5 7.5 t-0.5 8.5t-4.5 6.5q0 8 -5 10zM1122 151q-1 4 -3 4t-3.5 0.5t-3.5 0.5q-1 -1 -6 -1l-7 -4q-2 -1 -2 -3v-2q-1 -2 -1 -5v-1q0 -4 1 -4v-1q0 -6 4 -6q1 -5 6 -5h7q5 0 7 2q1 2 3 2.5t2 2.5v2q0 2 1 2l4 3v2q0 6 -5 6zM846 99q-1 0 -1 4q0 1 -1.5 1t-1.5 1q0 4 -1 4l-41 60 q0 1 -3 2q-1 3 -8 3h-9h-14l3 -119l27 1v79l51 -79h25v118h-30zM599 189l48 -18l8 25l-73 25l-41 -105l26 -11l15 41l38 -15l10 25l-38 15zM747 160l-8 11q-3 3 -6.5 5t-7.5 4q-4 1 -7 2t-8 3q-5 1 -9 1h-7q-10 0 -14 -5q-4 0 -7.5 -1t-7.5 -4l-11 -10q-4 -8 -10 -11 q-2 -5 -3.5 -8.5t-1.5 -6.5v-19l3 -15l5 -12l12 -11q3 -4 7 -5.5t6 -3.5q7 -4 15 -4q5 -1 8.5 -1h6.5q5 0 14 2q4 2 8.5 3t6.5 4q6 2 11 10l9 11q4 7 6 17v15q0 3 -0.5 6.5t-2.5 8.5l-3 7.5t-4 6.5zM730 121q0 -3 -1.5 -6.5t-3.5 -5.5l-4.5 -6t-4.5 -4q-4 -1 -6.5 -2 t-5.5 -1q-7 -3 -12 0q-3 0 -6.5 1t-5.5 2l-8 10q-2 2 -2.5 5.5t-0.5 6.5q-3 5 0 14q0 6 5 11l6 9l12 5h12l12 -5l9 -9q2 -3 3.5 -5t1.5 -6q2 -9 0 -14zM1309 460q-2 -2 -3 -4t-1 -6q0 -2 1 -4t3 -5l40 -57l-69 10h-10l-9 -6l-9 -17l97 -65l16 23l-46 32l60 -12l11 20l-33 50 l47 -30l15 24l-98 63zM1296 333l-14 13l-15 3q-3 2 -15 2h-6.5t-8.5 -2l-12 -3q-4 -3 -8.5 -6.5t-6.5 -6.5q-3 -3 -4.5 -6t-3.5 -6q-3 -3 -4 -6.5t-3 -8.5q0 -3 -1.5 -6.5t-1.5 -8.5v-6t3 -9l4 -13l10 -12l13 -10q5 -1 7.5 -3.5t7.5 -2.5t8.5 -2t6.5 -2t6.5 2t8.5 2 q3 0 6.5 2.5t7.5 3.5q6 3 13 10l10 12q1 2 3 5t2 8q1 5 1 15v15l-6 13q-2 4 -5 9zM1282 280q-3 -9 -7 -10q-8 -7 -10 -9q-3 -1 -6.5 -1h-6.5t-6.5 0.5t-4.5 0.5l-11 9q-4 4 -8 11v10v12q4 8 8 12l11 8q3 0 6 0.5t5 0.5q5 0 13 -3q2 -1 4.5 -3t5.5 -5q2 -2 4 -4.5t3 -5.5 q3 -3 3 -12q0 -2 -1.5 -6.5zM1209 220l-7 -4q-2 0 -3.5 -2.5t-1.5 -4.5l-5 -9l-8 -6q-4 -3 -6 -4t-6 -1q-6 -3 -12 0q-3 2 -5.5 2t-5.5 3q-7 4 -7 11q-5 1 -5 11q-5 3 0 14v3.5t2 7.5q2 2 4 3.5t4 3.5q8 3 10 3q3 2 10 2q2 0 10 3q2 4 5 5l2 7v8q-3 5 -12 5h-13l-14 -5 l-11 -5q-2 -2 -5.5 -4.5t-6.5 -6.5q-2 -2 -4 -5.5t-4 -8.5l-7 -15v-15q0 -5 2 -7.5t2 -7.5l6 -15q3 -3 6 -5t4 -5l15 -10l12 -2q5 -3 16 -3q4 0 7 1.5t7 2.5q5 1 8.5 3.5t6.5 5.5l5 2.5t5 4.5q3 0 5 3.5t5 6.5l3 14q5 4 5 13l-12 2h-6zM519 260l-102 -74l15 -10h2.5h2.5 q3 0 3.5 -0.5t1.5 0.5h5h5l10 10l40 -22l-2 -15v-5q0 -3 1 -3q0 -1 1 -1v-4q0 -1 2 -1l3 -4l17 -10l17 125zM507 218v-2v-3l-1 -22l-19 10l17 15h2h1v2v1h2q1 1 2 1zM477 255l18 20l-69 59l-20 -21l26 -22l-57 -66l20 -19l60 70zM257 411l83 -10h6q1 0 2 1t3 1l11 8l-45 77 l-23 -14l26 -44l-83 9q-1 0 -4.5 -0.5t-7.5 -3.5l-10 -5l45 -79l22 15zM357 303l22 18l-27 30l14 12l31 -39l20 17l-48 60l-90 -75l51 -58l19 18l-32 37l17 11zM191 741l50 4q1 -2 3.5 -4t4.5 -5q2 -1 3.5 -4t1.5 -6q1 -6 3 -11q0 -4 1 -6.5t1 -4.5q0 -8 -1 -14t-3 -11 q-1 -8 -4.5 -13t-6.5 -10q-7 -8 -19 -12q-11 -8 -23 -8h-17q-4 3 -7.5 4t-7.5 4q-4 1 -6.5 3t-6.5 4q-2 3 -5 6t-5 7q-2 2 -3.5 5.5t-3.5 6.5q-1 5 -2 9.5t-1 9.5v6.5v4.5q3 9 3 14q2 3 3.5 5.5t3.5 5.5q2 2 3.5 5t3.5 5l3 -5q3 0 4 -1l1 -1q2 -3 2 -8v-3t-2 -3 q-5 -5 -5 -11v-13t3 -17q2 -4 4.5 -7t5.5 -6q5 -5 14 -7q7 -4 17 -3q6 0 11 3q3 1 5 1.5t4 3.5q1 2 3.5 3t5.5 4q1 2 2.5 3.5t3.5 4.5q0 4 0.5 6.5t2.5 5.5q1 4 1 10q-1 4 -2 7t-2 8q0 3 -5 10l-19 -1v-5v-5q0 -2 -2 -5q-1 -1 -2 -2.5t-2 -1.5q-2 -1 -6 -1h-6zM264 831 l-9 -75l-118 12l8 75l19 -2l-7 -55l30 -5l5 47l20 -2l-5 -45l32 -3l5 57zM164 851l-17 5l22 90l18 -5l-10 -37l98 -23l-4 -18l-97 23zM205 988l-18 8l42 83l16 -8l-15 -32l89 -45l-8 -18l-90 45zM392 1106l-11 -16l-40 30l-35 -47l41 -30l-11 -15l-97 70l11 15l40 -29l35 47 l-40 30l11 15zM456 1166l-54 -51l-83 86l53 53l14 -15l-39 -39l20 -21l33 31l12 -14l-31 -30l21 -23l40 38zM514 1290l10 -17l-39 -24l24 -43l-14 -10l-63 100l63 40l9 -15l-47 -30l18 -26zM562 1290q0 -7 5 -10q2 -4 10 -7q2 -2 5 -2h5q5 0 10 2q8 3 10 7q5 5 7 10 q1 1 1 10q0 6 -1 11l-27 67l17 8l28 -68q2 -5 2.5 -9t0.5 -9q0 -10 -3 -19q-2 -5 -4.5 -8t-7.5 -7q-3 -5 -6 -6.5t-8 -3.5t-9.5 -3.5t-9.5 -1.5q-8 0 -18 5q-5 2 -8.5 3.5t-6.5 6.5q-7 7 -10 15l-30 67l18 8zM662 1276l-30 117l20 5l23 -97l49 10l3 -20zM731 1291l-12 120 l20 2l10 -98l51 5v-20zM864 1296l-19 4l12 118l44 -5q6 0 14 -4q9 -5 11 -10q4 -3 6 -13q4 -7 3 -15q-3 -3 -3 -6.5t-2 -8.5q-6 -8 -9 -11q-4 -4 -14 -7q-3 -2 -13 -2l-25 4zM895 1356h7q3 0 7 5q3 0 3 5q2 2 4 8q0 5 -1 7t-2 3.5l-1 1.5q-2 3 -3.5 4t-2.5 1q-2 2 -3.5 2 t-2.5 1l-25 2l-5 -38zM951 1285l-19 5l30 113l44 -12q6 0 11 -5l10 -10q4 -5 4 -13q1 -5 0.5 -8.5t-0.5 -6.5q-2 -5 -5 -10q-4 -5 -6 -7q-8 -5 -10 -5q-3 -2 -5.5 -2.5t-3.5 -2.5l21 -56l-15 1q-1 2 -3 3.5t-3 1.5q-4 2 -5 9l-19 46l-15 4zM977 1379l-10 -31l25 -7h3h2 q3 0 4 1t4 1q2 0 2 1.5v1.5q5 5 5 7v7v3t-1 3q-1 2 -2.5 2.5t-1.5 2.5q-3 3 -6 3zM1037 1321q0 5 2.5 8.5t6.5 6.5q1 3 4.5 5.5t6.5 4.5q3 3 6.5 4t8.5 3q4 3 14 3h15q9 -1 16 -6q8 -4 15 -9q3 -3 5.5 -6.5t4.5 -4.5l3.5 -7l3.5 -7q1 -5 2 -8t1 -7v-8t-2 -8q-1 -4 -2 -7.5 t-3 -7.5q-3 -4 -4 -7t-4 -7q-3 -3 -6.5 -5t-4.5 -6q-4 -2 -7 -4t-7 -5q-6 0 -16 -1q-12 0 -17 1q-5 0 -15 5q-12 5 -18 15q-9 9 -14 20q-1 7 -1 12v12q0 11 6 21zM1054 1315q-2 -4 -2.5 -6.5t-2.5 -5.5v-10q0 -2 1 -5t2 -5q0 -7 4 -10q1 -2 3 -4.5t3 -2.5q4 -5 10 -6 q7 -4 10 -4h12h12q4 5 8 5q3 2 5 3.5t3 3.5q3 3 4 5.5t3 4.5q2 3 2.5 7.5t0.5 9.5v7.5v7.5q-2 4 -4.5 7.5t-5.5 5.5q-6 7 -13 10q-2 2 -5 2.5t-7 0.5h-10q-6 0 -10 -1q-3 -2 -5 -3t-5 -1q-1 -2 -3 -4t-3 -4zM1222 1290l10 -9q0 -1 1.5 -3t3.5 -3q0 -5 -2 -9l-28 -85l83 38 q1 1 7 1q5 0 7 -4l10 -7l-117 -54l-15 11zM1279 1064l-47 56l90 76l49 -56l-14 -14l-37 44l-23 -19l29 -36l-16 -11l-28 35l-23 -21l35 -42zM1294 1039l-9 16l101 61l23 -37q2 -3 2.5 -6t2.5 -8q2 -7 -2 -12q-2 -9 -5 -13l-4.5 -4.5t-6.5 -5.5q-4 -1 -5.5 -1.5t-4.5 -2.5 q-4 0 -5.5 -0.5t-4.5 0.5q-4 0 -10 3q-4 1 -5.5 1.5t-3.5 3.5l-23 -59l-9 13q-4 2 -4 7q0 6 3 9l20 47l-8 13zM1381 1089l-29 -16l13 -19q2 -5 4 -6q1 0 6 -3h6q1 0 5 3q1 0 6 3q0 3 1 4t1 3q1 1 1 6q-1 1 -1 2.5t-2 3.5zM1436 969q1 1 1 7q0 4 -1 5q-2 3 -2 7q-3 0 -5 3 q-2 2 -5 2q-3 1 -5 0l-2.5 -2.5l-1.5 -1.5l-2 -2l-2 -2v-7v-10v-3v-2v-10q0 -2 -0.5 -4.5t-0.5 -4.5q-4 -14 -19 -21q-4 -2 -7.5 -3t-8.5 1q-6 0 -14 2q-4 3 -7 5t-5 6q-3 2 -5 5.5t-4 6.5q-3 10 -3 15q0 4 3 14q0 3 2 5l3 4q0 4 2 4q4 2 3 2l4 -2q3 -5 5 -7q0 -1 0.5 -2 t0.5 -3q0 -3 -3 -6v-1v-8q0 -5 2 -8q0 -2 1 -3t2 -4q2 0 3.5 -1.5l3.5 -3.5h2t4 -2h4.5t4.5 2q2 0 5 3q2 4 2 5q1 2 1 7v8v4v12q0 8 2 13q1 2 2 4.5t4 5.5q2 2 4.5 3.5t6.5 3.5q8 3 14 1q6 0 12 -3q3 -2 6.5 -3.5t5.5 -5.5q3 -3 6 -11q2 -7 2 -10q0 -7 -1 -10q0 -4 -4 -10 v-4.5t-2 -3.5l-6 4q-3 1 -4 2.5t-3 3.5q-1 3 -1 6v3zM1364 881l-5 18l113 34l5 -19zM1427 881h19q6 0 14 -5q4 0 7.5 -2.5t4.5 -4.5q4 -3 7 -5.5t6 -5.5q4 -8 7 -12q3 -8 5 -18v-15q-2 -10 -5 -15q-1 -5 -3 -8.5t-4 -6.5l-10 -10q-4 -4 -7.5 -5.5t-6.5 -2.5q-7 -4 -15 -4 q-10 -1 -19 0q-8 0 -15 4q-2 1 -6 2.5t-7 3.5q-3 3 -5.5 6.5t-4.5 5.5q-7 5 -8 15q-2 3 -3.5 6.5t-1.5 8.5q-1 13 1 23q5 13 10 20q7 10 18 17q5 3 11 5.5t11 2.5zM1430 861q-8 0 -10 -3q-5 -2 -10 -5q-4 -2 -6 -7q-5 -5 -5 -10q-2 -1 -2.5 -4t-1.5 -6v-10q2 -8 4 -11 q0 -6 5 -9q1 -3 3 -5t3 -5q2 0 4.5 -1.5t5.5 -3.5q2 -1 4.5 -1h5.5q5 -4 11 0q11 0 16 5q5 1 13 11q6 8 6 15q3 7 1 15q0 7 -2 10q-3 4 -3.5 6t-1.5 4q-3 2 -4.5 3.5l-3.5 3.5q-5 3 -10 5q-3 3 -11 3q-4 3 -11 0zM1377 645l2 16l96 60l-91 5l1 20l117 -10v-11q0 -5 -1 -9 q-4 -2 -4 -5l-81 -50l81 -6l-1 -19z" />
<glyph unicode="2" horiz-adv-x="1672" d="M822 308q82 0 155 30t130 78h-570q58 -48 130 -78t155 -30zM586 463h564q45 55 70 124t25 147q0 80 -26.5 150t-81.5 139zM822 1251q-105 0 -198 -40t-163.5 -109t-112.5 -163.5t-42 -204.5q0 -103 39.5 -196t108 -163.5t163.5 -112.5t205 -42q35 0 70 5.5t68 15.5 q77 23 146 68t120 108.5t80.5 143.5t29.5 173q0 101 -38.5 194t-107 165t-163.5 115t-205 43zM822 260q-100 0 -186 38t-150 103t-99.5 151.5t-35.5 181.5q0 94 35 179.5t98 151t149.5 103.5t188.5 38q67 0 124 -16q71 -19 134.5 -60t111 -100t75 -134t27.5 -162 q0 -98 -37 -184.5t-101.5 -151t-150.5 -101.5t-183 -37zM492 1004q-45 -55 -70.5 -122.5t-25.5 -147.5q0 -83 28 -155.5t78 -130.5l555 556h-565zM822 1161q-83 0 -155.5 -29t-130.5 -81h566q-55 50 -126.5 80t-153.5 30zM972 191l-90 -16l4 -26l34 6l16 -89l26 5l-16 89 l31 6zM1072 156q-1 7 -8 9l-12 5h-15h-6h-9h-2v1q-3 3 -3 4l-2 1q2 0 2 4v1h3h5v4h1h5h3q3 0 3 1h9q0 3 0.5 4l0.5 1l5 10l-6 4q-9 4 -12 4q-2 0 -4.5 1t-4.5 1q-4 0 -6 -1t-4 -1l-13 -8q-2 -1 -4 -3.5t-3 -6.5q-8 -6 -8 -15v-4t3 -7q2 -9 10 -14q1 0 3.5 -1.5t3.5 -3.5 q4 0 7 -1t6 -1h12h10h2q2 0 3 -3q4 0 4 -1h3v-5q0 -2 -1 -3t-1 -2v-1q-1 0 -2 -2.5t-3 -2.5q-1 -3 -5 -3h-2.5h-2.5h-3.5h-2.5h-6h-8l-5 -1v-2t-1 -2l-5 -7q1 -4 3 -6t3 -4q4 -1 7 -2t7 -1q8 -3 11 -2q4 0 8 1t7 1l7 3.5t8 4.5l5.5 5.5t4.5 6.5q0 5 2.5 7.5t2.5 7.5 t-0.5 8.5t-4.5 6.5q0 8 -5 10zM1122 151q-1 4 -3 4t-3.5 0.5t-3.5 0.5q-1 -1 -6 -1l-7 -4q-2 -1 -2 -3v-2q-1 -2 -1 -5v-1q0 -4 1 -4v-1q0 -6 4 -6q1 -5 6 -5h7q5 0 7 2q1 2 3 2.5t2 2.5v2q0 2 1 2l4 3v2q0 6 -5 6zM846 99q-1 0 -1 4q0 1 -1.5 1t-1.5 1q0 4 -1 4l-41 60 q0 1 -3 2q-1 3 -8 3h-9h-14l3 -119l27 1v79l51 -79h25v118h-30zM599 189l48 -18l8 25l-73 25l-41 -105l26 -11l15 41l38 -15l10 25l-38 15zM747 160l-8 11q-3 3 -6.5 5t-7.5 4q-4 1 -7 2t-8 3q-5 1 -9 1h-7q-10 0 -14 -5q-4 0 -7.5 -1t-7.5 -4l-11 -10q-4 -8 -10 -11 q-2 -5 -3.5 -8.5t-1.5 -6.5v-19l3 -15l5 -12l12 -11q3 -4 7 -5.5t6 -3.5q7 -4 15 -4q5 -1 8.5 -1h6.5q5 0 14 2q4 2 8.5 3t6.5 4q6 2 11 10l9 11q4 7 6 17v15q0 3 -0.5 6.5t-2.5 8.5l-3 7.5t-4 6.5zM730 121q0 -3 -1.5 -6.5t-3.5 -5.5l-4.5 -6t-4.5 -4q-4 -1 -6.5 -2 t-5.5 -1q-7 -3 -12 0q-3 0 -6.5 1t-5.5 2l-8 10q-2 2 -2.5 5.5t-0.5 6.5q-3 5 0 14q0 6 5 11l6 9l12 5h12l12 -5l9 -9q2 -3 3.5 -5t1.5 -6q2 -9 0 -14zM1309 460q-2 -2 -3 -4t-1 -6q0 -2 1 -4t3 -5l40 -57l-69 10h-10l-9 -6l-9 -17l97 -65l16 23l-46 32l60 -12l11 20l-33 50 l47 -30l15 24l-98 63zM1296 333l-14 13l-15 3q-3 2 -15 2h-6.5t-8.5 -2l-12 -3q-4 -3 -8.5 -6.5t-6.5 -6.5q-3 -3 -4.5 -6t-3.5 -6q-3 -3 -4 -6.5t-3 -8.5q0 -3 -1.5 -6.5t-1.5 -8.5v-6t3 -9l4 -13l10 -12l13 -10q5 -1 7.5 -3.5t7.5 -2.5t8.5 -2t6.5 -2t6.5 2t8.5 2 q3 0 6.5 2.5t7.5 3.5q6 3 13 10l10 12q1 2 3 5t2 8q1 5 1 15v15l-6 13q-2 4 -5 9zM1282 280q-3 -9 -7 -10q-8 -7 -10 -9q-3 -1 -6.5 -1h-6.5t-6.5 0.5t-4.5 0.5l-11 9q-4 4 -8 11v10v12q4 8 8 12l11 8q3 0 6 0.5t5 0.5q5 0 13 -3q2 -1 4.5 -3t5.5 -5q2 -2 4 -4.5t3 -5.5 q3 -3 3 -12q0 -2 -1.5 -6.5zM1209 220l-7 -4q-2 0 -3.5 -2.5t-1.5 -4.5l-5 -9l-8 -6q-4 -3 -6 -4t-6 -1q-6 -3 -12 0q-3 2 -5.5 2t-5.5 3q-7 4 -7 11q-5 1 -5 11q-5 3 0 14v3.5t2 7.5q2 2 4 3.5t4 3.5q8 3 10 3q3 2 10 2q2 0 10 3q2 4 5 5l2 7v8q-3 5 -12 5h-13l-14 -5 l-11 -5q-2 -2 -5.5 -4.5t-6.5 -6.5q-2 -2 -4 -5.5t-4 -8.5l-7 -15v-15q0 -5 2 -7.5t2 -7.5l6 -15q3 -3 6 -5t4 -5l15 -10l12 -2q5 -3 16 -3q4 0 7 1.5t7 2.5q5 1 8.5 3.5t6.5 5.5l5 2.5t5 4.5q3 0 5 3.5t5 6.5l3 14q5 4 5 13l-12 2h-6zM519 260l-102 -74l15 -10h2.5h2.5 q3 0 3.5 -0.5t1.5 0.5h5h5l10 10l40 -22l-2 -15v-5q0 -3 1 -3q0 -1 1 -1v-4q0 -1 2 -1l3 -4l17 -10l17 125zM507 218v-2v-3l-1 -22l-19 10l17 15h2h1v2v1h2q1 1 2 1zM477 255l18 20l-69 59l-20 -21l26 -22l-57 -66l20 -19l60 70zM257 411l83 -10h6q1 0 2 1t3 1l11 8l-45 77 l-23 -14l26 -44l-83 9q-1 0 -4.5 -0.5t-7.5 -3.5l-10 -5l45 -79l22 15zM357 303l22 18l-27 30l14 12l31 -39l20 17l-48 60l-90 -75l51 -58l19 18l-32 37l17 11zM191 741l50 4q1 -2 3.5 -4t4.5 -5q2 -1 3.5 -4t1.5 -6q1 -6 3 -11q0 -4 1 -6.5t1 -4.5q0 -8 -1 -14t-3 -11 q-1 -8 -4.5 -13t-6.5 -10q-7 -8 -19 -12q-11 -8 -23 -8h-17q-4 3 -7.5 4t-7.5 4q-4 1 -6.5 3t-6.5 4q-2 3 -5 6t-5 7q-2 2 -3.5 5.5t-3.5 6.5q-1 5 -2 9.5t-1 9.5v6.5v4.5q3 9 3 14q2 3 3.5 5.5t3.5 5.5q2 2 3.5 5t3.5 5l3 -5q3 0 4 -1l1 -1q2 -3 2 -8v-3t-2 -3 q-5 -5 -5 -11v-13t3 -17q2 -4 4.5 -7t5.5 -6q5 -5 14 -7q7 -4 17 -3q6 0 11 3q3 1 5 1.5t4 3.5q1 2 3.5 3t5.5 4q1 2 2.5 3.5t3.5 4.5q0 4 0.5 6.5t2.5 5.5q1 4 1 10q-1 4 -2 7t-2 8q0 3 -5 10l-19 -1v-5v-5q0 -2 -2 -5q-1 -1 -2 -2.5t-2 -1.5q-2 -1 -6 -1h-6zM264 831 l-9 -75l-118 12l8 75l19 -2l-7 -55l30 -5l5 47l20 -2l-5 -45l32 -3l5 57zM164 851l-17 5l22 90l18 -5l-10 -37l98 -23l-4 -18l-97 23zM205 988l-18 8l42 83l16 -8l-15 -32l89 -45l-8 -18l-90 45zM392 1106l-11 -16l-40 30l-35 -47l41 -30l-11 -15l-97 70l11 15l40 -29l35 47 l-40 30l11 15zM456 1166l-54 -51l-83 86l53 53l14 -15l-39 -39l20 -21l33 31l12 -14l-31 -30l21 -23l40 38zM514 1290l10 -17l-39 -24l24 -43l-14 -10l-63 100l63 40l9 -15l-47 -30l18 -26zM562 1290q0 -7 5 -10q2 -4 10 -7q2 -2 5 -2h5q5 0 10 2q8 3 10 7q5 5 7 10 q1 1 1 10q0 6 -1 11l-27 67l17 8l28 -68q2 -5 2.5 -9t0.5 -9q0 -10 -3 -19q-2 -5 -4.5 -8t-7.5 -7q-3 -5 -6 -6.5t-8 -3.5t-9.5 -3.5t-9.5 -1.5q-8 0 -18 5q-5 2 -8.5 3.5t-6.5 6.5q-7 7 -10 15l-30 67l18 8zM662 1276l-30 117l20 5l23 -97l49 10l3 -20zM731 1291l-12 120 l20 2l10 -98l51 5v-20zM864 1296l-19 4l12 118l44 -5q6 0 14 -4q9 -5 11 -10q4 -3 6 -13q4 -7 3 -15q-3 -3 -3 -6.5t-2 -8.5q-6 -8 -9 -11q-4 -4 -14 -7q-3 -2 -13 -2l-25 4zM895 1356h7q3 0 7 5q3 0 3 5q2 2 4 8q0 5 -1 7t-2 3.5l-1 1.5q-2 3 -3.5 4t-2.5 1q-2 2 -3.5 2 t-2.5 1l-25 2l-5 -38zM951 1285l-19 5l30 113l44 -12q6 0 11 -5l10 -10q4 -5 4 -13q1 -5 0.5 -8.5t-0.5 -6.5q-2 -5 -5 -10q-4 -5 -6 -7q-8 -5 -10 -5q-3 -2 -5.5 -2.5t-3.5 -2.5l21 -56l-15 1q-1 2 -3 3.5t-3 1.5q-4 2 -5 9l-19 46l-15 4zM977 1379l-10 -31l25 -7h3h2 q3 0 4 1t4 1q2 0 2 1.5v1.5q5 5 5 7v7v3t-1 3q-1 2 -2.5 2.5t-1.5 2.5q-3 3 -6 3zM1037 1321q0 5 2.5 8.5t6.5 6.5q1 3 4.5 5.5t6.5 4.5q3 3 6.5 4t8.5 3q4 3 14 3h15q9 -1 16 -6q8 -4 15 -9q3 -3 5.5 -6.5t4.5 -4.5l3.5 -7l3.5 -7q1 -5 2 -8t1 -7v-8t-2 -8q-1 -4 -2 -7.5 t-3 -7.5q-3 -4 -4 -7t-4 -7q-3 -3 -6.5 -5t-4.5 -6q-4 -2 -7 -4t-7 -5q-6 0 -16 -1q-12 0 -17 1q-5 0 -15 5q-12 5 -18 15q-9 9 -14 20q-1 7 -1 12v12q0 11 6 21zM1054 1315q-2 -4 -2.5 -6.5t-2.5 -5.5v-10q0 -2 1 -5t2 -5q0 -7 4 -10q1 -2 3 -4.5t3 -2.5q4 -5 10 -6 q7 -4 10 -4h12h12q4 5 8 5q3 2 5 3.5t3 3.5q3 3 4 5.5t3 4.5q2 3 2.5 7.5t0.5 9.5v7.5v7.5q-2 4 -4.5 7.5t-5.5 5.5q-6 7 -13 10q-2 2 -5 2.5t-7 0.5h-10q-6 0 -10 -1q-3 -2 -5 -3t-5 -1q-1 -2 -3 -4t-3 -4zM1222 1290l10 -9q0 -1 1.5 -3t3.5 -3q0 -5 -2 -9l-28 -85l83 38 q1 1 7 1q5 0 7 -4l10 -7l-117 -54l-15 11zM1279 1064l-47 56l90 76l49 -56l-14 -14l-37 44l-23 -19l29 -36l-16 -11l-28 35l-23 -21l35 -42zM1294 1039l-9 16l101 61l23 -37q2 -3 2.5 -6t2.5 -8q2 -7 -2 -12q-2 -9 -5 -13l-4.5 -4.5t-6.5 -5.5q-4 -1 -5.5 -1.5t-4.5 -2.5 q-4 0 -5.5 -0.5t-4.5 0.5q-4 0 -10 3q-4 1 -5.5 1.5t-3.5 3.5l-23 -59l-9 13q-4 2 -4 7q0 6 3 9l20 47l-8 13zM1381 1089l-29 -16l13 -19q2 -5 4 -6q1 0 6 -3h6q1 0 5 3q1 0 6 3q0 3 1 4t1 3q1 1 1 6q-1 1 -1 2.5t-2 3.5zM1436 969q1 1 1 7q0 4 -1 5q-2 3 -2 7q-3 0 -5 3 q-2 2 -5 2q-3 1 -5 0l-2.5 -2.5l-1.5 -1.5l-2 -2l-2 -2v-7v-10v-3v-2v-10q0 -2 -0.5 -4.5t-0.5 -4.5q-4 -14 -19 -21q-4 -2 -7.5 -3t-8.5 1q-6 0 -14 2q-4 3 -7 5t-5 6q-3 2 -5 5.5t-4 6.5q-3 10 -3 15q0 4 3 14q0 3 2 5l3 4q0 4 2 4q4 2 3 2l4 -2q3 -5 5 -7q0 -1 0.5 -2 t0.5 -3q0 -3 -3 -6v-1v-8q0 -5 2 -8q0 -2 1 -3t2 -4q2 0 3.5 -1.5l3.5 -3.5h2t4 -2h4.5t4.5 2q2 0 5 3q2 4 2 5q1 2 1 7v8v4v12q0 8 2 13q1 2 2 4.5t4 5.5q2 2 4.5 3.5t6.5 3.5q8 3 14 1q6 0 12 -3q3 -2 6.5 -3.5t5.5 -5.5q3 -3 6 -11q2 -7 2 -10q0 -7 -1 -10q0 -4 -4 -10 v-4.5t-2 -3.5l-6 4q-3 1 -4 2.5t-3 3.5q-1 3 -1 6v3zM1364 881l-5 18l113 34l5 -19zM1427 881h19q6 0 14 -5q4 0 7.5 -2.5t4.5 -4.5q4 -3 7 -5.5t6 -5.5q4 -8 7 -12q3 -8 5 -18v-15q-2 -10 -5 -15q-1 -5 -3 -8.5t-4 -6.5l-10 -10q-4 -4 -7.5 -5.5t-6.5 -2.5q-7 -4 -15 -4 q-10 -1 -19 0q-8 0 -15 4q-2 1 -6 2.5t-7 3.5q-3 3 -5.5 6.5t-4.5 5.5q-7 5 -8 15q-2 3 -3.5 6.5t-1.5 8.5q-1 13 1 23q5 13 10 20q7 10 18 17q5 3 11 5.5t11 2.5zM1430 861q-8 0 -10 -3q-5 -2 -10 -5q-4 -2 -6 -7q-5 -5 -5 -10q-2 -1 -2.5 -4t-1.5 -6v-10q2 -8 4 -11 q0 -6 5 -9q1 -3 3 -5t3 -5q2 0 4.5 -1.5t5.5 -3.5q2 -1 4.5 -1h5.5q5 -4 11 0q11 0 16 5q5 1 13 11q6 8 6 15q3 7 1 15q0 7 -2 10q-3 4 -3.5 6t-1.5 4q-3 2 -4.5 3.5l-3.5 3.5q-5 3 -10 5q-3 3 -11 3q-4 3 -11 0zM1377 645l2 16l96 60l-91 5l1 20l117 -10v-11q0 -5 -1 -9 q-4 -2 -4 -5l-81 -50l81 -6l-1 -19z" />
<glyph unicode="3" horiz-adv-x="1672" d="M822 308q82 0 155 30t130 78h-570q58 -48 130 -78t155 -30zM586 463h564q45 55 70 124t25 147q0 80 -26.5 150t-81.5 139zM822 1251q-105 0 -198 -40t-163.5 -109t-112.5 -163.5t-42 -204.5q0 -103 39.5 -196t108 -163.5t163.5 -112.5t205 -42q35 0 70 5.5t68 15.5 q77 23 146 68t120 108.5t80.5 143.5t29.5 173q0 101 -38.5 194t-107 165t-163.5 115t-205 43zM822 260q-100 0 -186 38t-150 103t-99.5 151.5t-35.5 181.5q0 94 35 179.5t98 151t149.5 103.5t188.5 38q67 0 124 -16q71 -19 134.5 -60t111 -100t75 -134t27.5 -162 q0 -98 -37 -184.5t-101.5 -151t-150.5 -101.5t-183 -37zM492 1004q-45 -55 -70.5 -122.5t-25.5 -147.5q0 -83 28 -155.5t78 -130.5l555 556h-565zM822 1161q-83 0 -155.5 -29t-130.5 -81h566q-55 50 -126.5 80t-153.5 30zM972 191l-90 -16l4 -26l34 6l16 -89l26 5l-16 89 l31 6zM1072 156q-1 7 -8 9l-12 5h-15h-6h-9h-2v1q-3 3 -3 4l-2 1q2 0 2 4v1h3h5v4h1h5h3q3 0 3 1h9q0 3 0.5 4l0.5 1l5 10l-6 4q-9 4 -12 4q-2 0 -4.5 1t-4.5 1q-4 0 -6 -1t-4 -1l-13 -8q-2 -1 -4 -3.5t-3 -6.5q-8 -6 -8 -15v-4t3 -7q2 -9 10 -14q1 0 3.5 -1.5t3.5 -3.5 q4 0 7 -1t6 -1h12h10h2q2 0 3 -3q4 0 4 -1h3v-5q0 -2 -1 -3t-1 -2v-1q-1 0 -2 -2.5t-3 -2.5q-1 -3 -5 -3h-2.5h-2.5h-3.5h-2.5h-6h-8l-5 -1v-2t-1 -2l-5 -7q1 -4 3 -6t3 -4q4 -1 7 -2t7 -1q8 -3 11 -2q4 0 8 1t7 1l7 3.5t8 4.5l5.5 5.5t4.5 6.5q0 5 2.5 7.5t2.5 7.5 t-0.5 8.5t-4.5 6.5q0 8 -5 10zM1122 151q-1 4 -3 4t-3.5 0.5t-3.5 0.5q-1 -1 -6 -1l-7 -4q-2 -1 -2 -3v-2q-1 -2 -1 -5v-1q0 -4 1 -4v-1q0 -6 4 -6q1 -5 6 -5h7q5 0 7 2q1 2 3 2.5t2 2.5v2q0 2 1 2l4 3v2q0 6 -5 6zM846 99q-1 0 -1 4q0 1 -1.5 1t-1.5 1q0 4 -1 4l-41 60 q0 1 -3 2q-1 3 -8 3h-9h-14l3 -119l27 1v79l51 -79h25v118h-30zM599 189l48 -18l8 25l-73 25l-41 -105l26 -11l15 41l38 -15l10 25l-38 15zM747 160l-8 11q-3 3 -6.5 5t-7.5 4q-4 1 -7 2t-8 3q-5 1 -9 1h-7q-10 0 -14 -5q-4 0 -7.5 -1t-7.5 -4l-11 -10q-4 -8 -10 -11 q-2 -5 -3.5 -8.5t-1.5 -6.5v-19l3 -15l5 -12l12 -11q3 -4 7 -5.5t6 -3.5q7 -4 15 -4q5 -1 8.5 -1h6.5q5 0 14 2q4 2 8.5 3t6.5 4q6 2 11 10l9 11q4 7 6 17v15q0 3 -0.5 6.5t-2.5 8.5l-3 7.5t-4 6.5zM730 121q0 -3 -1.5 -6.5t-3.5 -5.5l-4.5 -6t-4.5 -4q-4 -1 -6.5 -2 t-5.5 -1q-7 -3 -12 0q-3 0 -6.5 1t-5.5 2l-8 10q-2 2 -2.5 5.5t-0.5 6.5q-3 5 0 14q0 6 5 11l6 9l12 5h12l12 -5l9 -9q2 -3 3.5 -5t1.5 -6q2 -9 0 -14zM1309 460q-2 -2 -3 -4t-1 -6q0 -2 1 -4t3 -5l40 -57l-69 10h-10l-9 -6l-9 -17l97 -65l16 23l-46 32l60 -12l11 20l-33 50 l47 -30l15 24l-98 63zM1296 333l-14 13l-15 3q-3 2 -15 2h-6.5t-8.5 -2l-12 -3q-4 -3 -8.5 -6.5t-6.5 -6.5q-3 -3 -4.5 -6t-3.5 -6q-3 -3 -4 -6.5t-3 -8.5q0 -3 -1.5 -6.5t-1.5 -8.5v-6t3 -9l4 -13l10 -12l13 -10q5 -1 7.5 -3.5t7.5 -2.5t8.5 -2t6.5 -2t6.5 2t8.5 2 q3 0 6.5 2.5t7.5 3.5q6 3 13 10l10 12q1 2 3 5t2 8q1 5 1 15v15l-6 13q-2 4 -5 9zM1282 280q-3 -9 -7 -10q-8 -7 -10 -9q-3 -1 -6.5 -1h-6.5t-6.5 0.5t-4.5 0.5l-11 9q-4 4 -8 11v10v12q4 8 8 12l11 8q3 0 6 0.5t5 0.5q5 0 13 -3q2 -1 4.5 -3t5.5 -5q2 -2 4 -4.5t3 -5.5 q3 -3 3 -12q0 -2 -1.5 -6.5zM1209 220l-7 -4q-2 0 -3.5 -2.5t-1.5 -4.5l-5 -9l-8 -6q-4 -3 -6 -4t-6 -1q-6 -3 -12 0q-3 2 -5.5 2t-5.5 3q-7 4 -7 11q-5 1 -5 11q-5 3 0 14v3.5t2 7.5q2 2 4 3.5t4 3.5q8 3 10 3q3 2 10 2q2 0 10 3q2 4 5 5l2 7v8q-3 5 -12 5h-13l-14 -5 l-11 -5q-2 -2 -5.5 -4.5t-6.5 -6.5q-2 -2 -4 -5.5t-4 -8.5l-7 -15v-15q0 -5 2 -7.5t2 -7.5l6 -15q3 -3 6 -5t4 -5l15 -10l12 -2q5 -3 16 -3q4 0 7 1.5t7 2.5q5 1 8.5 3.5t6.5 5.5l5 2.5t5 4.5q3 0 5 3.5t5 6.5l3 14q5 4 5 13l-12 2h-6zM519 260l-102 -74l15 -10h2.5h2.5 q3 0 3.5 -0.5t1.5 0.5h5h5l10 10l40 -22l-2 -15v-5q0 -3 1 -3q0 -1 1 -1v-4q0 -1 2 -1l3 -4l17 -10l17 125zM507 218v-2v-3l-1 -22l-19 10l17 15h2h1v2v1h2q1 1 2 1zM477 255l18 20l-69 59l-20 -21l26 -22l-57 -66l20 -19l60 70zM257 411l83 -10h6q1 0 2 1t3 1l11 8l-45 77 l-23 -14l26 -44l-83 9q-1 0 -4.5 -0.5t-7.5 -3.5l-10 -5l45 -79l22 15zM357 303l22 18l-27 30l14 12l31 -39l20 17l-48 60l-90 -75l51 -58l19 18l-32 37l17 11zM191 741l50 4q1 -2 3.5 -4t4.5 -5q2 -1 3.5 -4t1.5 -6q1 -6 3 -11q0 -4 1 -6.5t1 -4.5q0 -8 -1 -14t-3 -11 q-1 -8 -4.5 -13t-6.5 -10q-7 -8 -19 -12q-11 -8 -23 -8h-17q-4 3 -7.5 4t-7.5 4q-4 1 -6.5 3t-6.5 4q-2 3 -5 6t-5 7q-2 2 -3.5 5.5t-3.5 6.5q-1 5 -2 9.5t-1 9.5v6.5v4.5q3 9 3 14q2 3 3.5 5.5t3.5 5.5q2 2 3.5 5t3.5 5l3 -5q3 0 4 -1l1 -1q2 -3 2 -8v-3t-2 -3 q-5 -5 -5 -11v-13t3 -17q2 -4 4.5 -7t5.5 -6q5 -5 14 -7q7 -4 17 -3q6 0 11 3q3 1 5 1.5t4 3.5q1 2 3.5 3t5.5 4q1 2 2.5 3.5t3.5 4.5q0 4 0.5 6.5t2.5 5.5q1 4 1 10q-1 4 -2 7t-2 8q0 3 -5 10l-19 -1v-5v-5q0 -2 -2 -5q-1 -1 -2 -2.5t-2 -1.5q-2 -1 -6 -1h-6zM264 831 l-9 -75l-118 12l8 75l19 -2l-7 -55l30 -5l5 47l20 -2l-5 -45l32 -3l5 57zM164 851l-17 5l22 90l18 -5l-10 -37l98 -23l-4 -18l-97 23zM205 988l-18 8l42 83l16 -8l-15 -32l89 -45l-8 -18l-90 45zM392 1106l-11 -16l-40 30l-35 -47l41 -30l-11 -15l-97 70l11 15l40 -29l35 47 l-40 30l11 15zM456 1166l-54 -51l-83 86l53 53l14 -15l-39 -39l20 -21l33 31l12 -14l-31 -30l21 -23l40 38zM514 1290l10 -17l-39 -24l24 -43l-14 -10l-63 100l63 40l9 -15l-47 -30l18 -26zM562 1290q0 -7 5 -10q2 -4 10 -7q2 -2 5 -2h5q5 0 10 2q8 3 10 7q5 5 7 10 q1 1 1 10q0 6 -1 11l-27 67l17 8l28 -68q2 -5 2.5 -9t0.5 -9q0 -10 -3 -19q-2 -5 -4.5 -8t-7.5 -7q-3 -5 -6 -6.5t-8 -3.5t-9.5 -3.5t-9.5 -1.5q-8 0 -18 5q-5 2 -8.5 3.5t-6.5 6.5q-7 7 -10 15l-30 67l18 8zM662 1276l-30 117l20 5l23 -97l49 10l3 -20zM731 1291l-12 120 l20 2l10 -98l51 5v-20zM864 1296l-19 4l12 118l44 -5q6 0 14 -4q9 -5 11 -10q4 -3 6 -13q4 -7 3 -15q-3 -3 -3 -6.5t-2 -8.5q-6 -8 -9 -11q-4 -4 -14 -7q-3 -2 -13 -2l-25 4zM895 1356h7q3 0 7 5q3 0 3 5q2 2 4 8q0 5 -1 7t-2 3.5l-1 1.5q-2 3 -3.5 4t-2.5 1q-2 2 -3.5 2 t-2.5 1l-25 2l-5 -38zM951 1285l-19 5l30 113l44 -12q6 0 11 -5l10 -10q4 -5 4 -13q1 -5 0.5 -8.5t-0.5 -6.5q-2 -5 -5 -10q-4 -5 -6 -7q-8 -5 -10 -5q-3 -2 -5.5 -2.5t-3.5 -2.5l21 -56l-15 1q-1 2 -3 3.5t-3 1.5q-4 2 -5 9l-19 46l-15 4zM977 1379l-10 -31l25 -7h3h2 q3 0 4 1t4 1q2 0 2 1.5v1.5q5 5 5 7v7v3t-1 3q-1 2 -2.5 2.5t-1.5 2.5q-3 3 -6 3zM1037 1321q0 5 2.5 8.5t6.5 6.5q1 3 4.5 5.5t6.5 4.5q3 3 6.5 4t8.5 3q4 3 14 3h15q9 -1 16 -6q8 -4 15 -9q3 -3 5.5 -6.5t4.5 -4.5l3.5 -7l3.5 -7q1 -5 2 -8t1 -7v-8t-2 -8q-1 -4 -2 -7.5 t-3 -7.5q-3 -4 -4 -7t-4 -7q-3 -3 -6.5 -5t-4.5 -6q-4 -2 -7 -4t-7 -5q-6 0 -16 -1q-12 0 -17 1q-5 0 -15 5q-12 5 -18 15q-9 9 -14 20q-1 7 -1 12v12q0 11 6 21zM1054 1315q-2 -4 -2.5 -6.5t-2.5 -5.5v-10q0 -2 1 -5t2 -5q0 -7 4 -10q1 -2 3 -4.5t3 -2.5q4 -5 10 -6 q7 -4 10 -4h12h12q4 5 8 5q3 2 5 3.5t3 3.5q3 3 4 5.5t3 4.5q2 3 2.5 7.5t0.5 9.5v7.5v7.5q-2 4 -4.5 7.5t-5.5 5.5q-6 7 -13 10q-2 2 -5 2.5t-7 0.5h-10q-6 0 -10 -1q-3 -2 -5 -3t-5 -1q-1 -2 -3 -4t-3 -4zM1222 1290l10 -9q0 -1 1.5 -3t3.5 -3q0 -5 -2 -9l-28 -85l83 38 q1 1 7 1q5 0 7 -4l10 -7l-117 -54l-15 11zM1279 1064l-47 56l90 76l49 -56l-14 -14l-37 44l-23 -19l29 -36l-16 -11l-28 35l-23 -21l35 -42zM1294 1039l-9 16l101 61l23 -37q2 -3 2.5 -6t2.5 -8q2 -7 -2 -12q-2 -9 -5 -13l-4.5 -4.5t-6.5 -5.5q-4 -1 -5.5 -1.5t-4.5 -2.5 q-4 0 -5.5 -0.5t-4.5 0.5q-4 0 -10 3q-4 1 -5.5 1.5t-3.5 3.5l-23 -59l-9 13q-4 2 -4 7q0 6 3 9l20 47l-8 13zM1381 1089l-29 -16l13 -19q2 -5 4 -6q1 0 6 -3h6q1 0 5 3q1 0 6 3q0 3 1 4t1 3q1 1 1 6q-1 1 -1 2.5t-2 3.5zM1436 969q1 1 1 7q0 4 -1 5q-2 3 -2 7q-3 0 -5 3 q-2 2 -5 2q-3 1 -5 0l-2.5 -2.5l-1.5 -1.5l-2 -2l-2 -2v-7v-10v-3v-2v-10q0 -2 -0.5 -4.5t-0.5 -4.5q-4 -14 -19 -21q-4 -2 -7.5 -3t-8.5 1q-6 0 -14 2q-4 3 -7 5t-5 6q-3 2 -5 5.5t-4 6.5q-3 10 -3 15q0 4 3 14q0 3 2 5l3 4q0 4 2 4q4 2 3 2l4 -2q3 -5 5 -7q0 -1 0.5 -2 t0.5 -3q0 -3 -3 -6v-1v-8q0 -5 2 -8q0 -2 1 -3t2 -4q2 0 3.5 -1.5l3.5 -3.5h2t4 -2h4.5t4.5 2q2 0 5 3q2 4 2 5q1 2 1 7v8v4v12q0 8 2 13q1 2 2 4.5t4 5.5q2 2 4.5 3.5t6.5 3.5q8 3 14 1q6 0 12 -3q3 -2 6.5 -3.5t5.5 -5.5q3 -3 6 -11q2 -7 2 -10q0 -7 -1 -10q0 -4 -4 -10 v-4.5t-2 -3.5l-6 4q-3 1 -4 2.5t-3 3.5q-1 3 -1 6v3zM1364 881l-5 18l113 34l5 -19zM1427 881h19q6 0 14 -5q4 0 7.5 -2.5t4.5 -4.5q4 -3 7 -5.5t6 -5.5q4 -8 7 -12q3 -8 5 -18v-15q-2 -10 -5 -15q-1 -5 -3 -8.5t-4 -6.5l-10 -10q-4 -4 -7.5 -5.5t-6.5 -2.5q-7 -4 -15 -4 q-10 -1 -19 0q-8 0 -15 4q-2 1 -6 2.5t-7 3.5q-3 3 -5.5 6.5t-4.5 5.5q-7 5 -8 15q-2 3 -3.5 6.5t-1.5 8.5q-1 13 1 23q5 13 10 20q7 10 18 17q5 3 11 5.5t11 2.5zM1430 861q-8 0 -10 -3q-5 -2 -10 -5q-4 -2 -6 -7q-5 -5 -5 -10q-2 -1 -2.5 -4t-1.5 -6v-10q2 -8 4 -11 q0 -6 5 -9q1 -3 3 -5t3 -5q2 0 4.5 -1.5t5.5 -3.5q2 -1 4.5 -1h5.5q5 -4 11 0q11 0 16 5q5 1 13 11q6 8 6 15q3 7 1 15q0 7 -2 10q-3 4 -3.5 6t-1.5 4q-3 2 -4.5 3.5l-3.5 3.5q-5 3 -10 5q-3 3 -11 3q-4 3 -11 0zM1377 645l2 16l96 60l-91 5l1 20l117 -10v-11q0 -5 -1 -9 q-4 -2 -4 -5l-81 -50l81 -6l-1 -19z" />
<glyph unicode="4" horiz-adv-x="1672" d="M822 308q82 0 155 30t130 78h-570q58 -48 130 -78t155 -30zM586 463h564q45 55 70 124t25 147q0 80 -26.5 150t-81.5 139zM822 1251q-105 0 -198 -40t-163.5 -109t-112.5 -163.5t-42 -204.5q0 -103 39.5 -196t108 -163.5t163.5 -112.5t205 -42q35 0 70 5.5t68 15.5 q77 23 146 68t120 108.5t80.5 143.5t29.5 173q0 101 -38.5 194t-107 165t-163.5 115t-205 43zM822 260q-100 0 -186 38t-150 103t-99.5 151.5t-35.5 181.5q0 94 35 179.5t98 151t149.5 103.5t188.5 38q67 0 124 -16q71 -19 134.5 -60t111 -100t75 -134t27.5 -162 q0 -98 -37 -184.5t-101.5 -151t-150.5 -101.5t-183 -37zM492 1004q-45 -55 -70.5 -122.5t-25.5 -147.5q0 -83 28 -155.5t78 -130.5l555 556h-565zM822 1161q-83 0 -155.5 -29t-130.5 -81h566q-55 50 -126.5 80t-153.5 30zM972 191l-90 -16l4 -26l34 6l16 -89l26 5l-16 89 l31 6zM1072 156q-1 7 -8 9l-12 5h-15h-6h-9h-2v1q-3 3 -3 4l-2 1q2 0 2 4v1h3h5v4h1h5h3q3 0 3 1h9q0 3 0.5 4l0.5 1l5 10l-6 4q-9 4 -12 4q-2 0 -4.5 1t-4.5 1q-4 0 -6 -1t-4 -1l-13 -8q-2 -1 -4 -3.5t-3 -6.5q-8 -6 -8 -15v-4t3 -7q2 -9 10 -14q1 0 3.5 -1.5t3.5 -3.5 q4 0 7 -1t6 -1h12h10h2q2 0 3 -3q4 0 4 -1h3v-5q0 -2 -1 -3t-1 -2v-1q-1 0 -2 -2.5t-3 -2.5q-1 -3 -5 -3h-2.5h-2.5h-3.5h-2.5h-6h-8l-5 -1v-2t-1 -2l-5 -7q1 -4 3 -6t3 -4q4 -1 7 -2t7 -1q8 -3 11 -2q4 0 8 1t7 1l7 3.5t8 4.5l5.5 5.5t4.5 6.5q0 5 2.5 7.5t2.5 7.5 t-0.5 8.5t-4.5 6.5q0 8 -5 10zM1122 151q-1 4 -3 4t-3.5 0.5t-3.5 0.5q-1 -1 -6 -1l-7 -4q-2 -1 -2 -3v-2q-1 -2 -1 -5v-1q0 -4 1 -4v-1q0 -6 4 -6q1 -5 6 -5h7q5 0 7 2q1 2 3 2.5t2 2.5v2q0 2 1 2l4 3v2q0 6 -5 6zM846 99q-1 0 -1 4q0 1 -1.5 1t-1.5 1q0 4 -1 4l-41 60 q0 1 -3 2q-1 3 -8 3h-9h-14l3 -119l27 1v79l51 -79h25v118h-30zM599 189l48 -18l8 25l-73 25l-41 -105l26 -11l15 41l38 -15l10 25l-38 15zM747 160l-8 11q-3 3 -6.5 5t-7.5 4q-4 1 -7 2t-8 3q-5 1 -9 1h-7q-10 0 -14 -5q-4 0 -7.5 -1t-7.5 -4l-11 -10q-4 -8 -10 -11 q-2 -5 -3.5 -8.5t-1.5 -6.5v-19l3 -15l5 -12l12 -11q3 -4 7 -5.5t6 -3.5q7 -4 15 -4q5 -1 8.5 -1h6.5q5 0 14 2q4 2 8.5 3t6.5 4q6 2 11 10l9 11q4 7 6 17v15q0 3 -0.5 6.5t-2.5 8.5l-3 7.5t-4 6.5zM730 121q0 -3 -1.5 -6.5t-3.5 -5.5l-4.5 -6t-4.5 -4q-4 -1 -6.5 -2 t-5.5 -1q-7 -3 -12 0q-3 0 -6.5 1t-5.5 2l-8 10q-2 2 -2.5 5.5t-0.5 6.5q-3 5 0 14q0 6 5 11l6 9l12 5h12l12 -5l9 -9q2 -3 3.5 -5t1.5 -6q2 -9 0 -14zM1309 460q-2 -2 -3 -4t-1 -6q0 -2 1 -4t3 -5l40 -57l-69 10h-10l-9 -6l-9 -17l97 -65l16 23l-46 32l60 -12l11 20l-33 50 l47 -30l15 24l-98 63zM1296 333l-14 13l-15 3q-3 2 -15 2h-6.5t-8.5 -2l-12 -3q-4 -3 -8.5 -6.5t-6.5 -6.5q-3 -3 -4.5 -6t-3.5 -6q-3 -3 -4 -6.5t-3 -8.5q0 -3 -1.5 -6.5t-1.5 -8.5v-6t3 -9l4 -13l10 -12l13 -10q5 -1 7.5 -3.5t7.5 -2.5t8.5 -2t6.5 -2t6.5 2t8.5 2 q3 0 6.5 2.5t7.5 3.5q6 3 13 10l10 12q1 2 3 5t2 8q1 5 1 15v15l-6 13q-2 4 -5 9zM1282 280q-3 -9 -7 -10q-8 -7 -10 -9q-3 -1 -6.5 -1h-6.5t-6.5 0.5t-4.5 0.5l-11 9q-4 4 -8 11v10v12q4 8 8 12l11 8q3 0 6 0.5t5 0.5q5 0 13 -3q2 -1 4.5 -3t5.5 -5q2 -2 4 -4.5t3 -5.5 q3 -3 3 -12q0 -2 -1.5 -6.5zM1209 220l-7 -4q-2 0 -3.5 -2.5t-1.5 -4.5l-5 -9l-8 -6q-4 -3 -6 -4t-6 -1q-6 -3 -12 0q-3 2 -5.5 2t-5.5 3q-7 4 -7 11q-5 1 -5 11q-5 3 0 14v3.5t2 7.5q2 2 4 3.5t4 3.5q8 3 10 3q3 2 10 2q2 0 10 3q2 4 5 5l2 7v8q-3 5 -12 5h-13l-14 -5 l-11 -5q-2 -2 -5.5 -4.5t-6.5 -6.5q-2 -2 -4 -5.5t-4 -8.5l-7 -15v-15q0 -5 2 -7.5t2 -7.5l6 -15q3 -3 6 -5t4 -5l15 -10l12 -2q5 -3 16 -3q4 0 7 1.5t7 2.5q5 1 8.5 3.5t6.5 5.5l5 2.5t5 4.5q3 0 5 3.5t5 6.5l3 14q5 4 5 13l-12 2h-6zM519 260l-102 -74l15 -10h2.5h2.5 q3 0 3.5 -0.5t1.5 0.5h5h5l10 10l40 -22l-2 -15v-5q0 -3 1 -3q0 -1 1 -1v-4q0 -1 2 -1l3 -4l17 -10l17 125zM507 218v-2v-3l-1 -22l-19 10l17 15h2h1v2v1h2q1 1 2 1zM477 255l18 20l-69 59l-20 -21l26 -22l-57 -66l20 -19l60 70zM257 411l83 -10h6q1 0 2 1t3 1l11 8l-45 77 l-23 -14l26 -44l-83 9q-1 0 -4.5 -0.5t-7.5 -3.5l-10 -5l45 -79l22 15zM357 303l22 18l-27 30l14 12l31 -39l20 17l-48 60l-90 -75l51 -58l19 18l-32 37l17 11zM191 741l50 4q1 -2 3.5 -4t4.5 -5q2 -1 3.5 -4t1.5 -6q1 -6 3 -11q0 -4 1 -6.5t1 -4.5q0 -8 -1 -14t-3 -11 q-1 -8 -4.5 -13t-6.5 -10q-7 -8 -19 -12q-11 -8 -23 -8h-17q-4 3 -7.5 4t-7.5 4q-4 1 -6.5 3t-6.5 4q-2 3 -5 6t-5 7q-2 2 -3.5 5.5t-3.5 6.5q-1 5 -2 9.5t-1 9.5v6.5v4.5q3 9 3 14q2 3 3.5 5.5t3.5 5.5q2 2 3.5 5t3.5 5l3 -5q3 0 4 -1l1 -1q2 -3 2 -8v-3t-2 -3 q-5 -5 -5 -11v-13t3 -17q2 -4 4.5 -7t5.5 -6q5 -5 14 -7q7 -4 17 -3q6 0 11 3q3 1 5 1.5t4 3.5q1 2 3.5 3t5.5 4q1 2 2.5 3.5t3.5 4.5q0 4 0.5 6.5t2.5 5.5q1 4 1 10q-1 4 -2 7t-2 8q0 3 -5 10l-19 -1v-5v-5q0 -2 -2 -5q-1 -1 -2 -2.5t-2 -1.5q-2 -1 -6 -1h-6zM264 831 l-9 -75l-118 12l8 75l19 -2l-7 -55l30 -5l5 47l20 -2l-5 -45l32 -3l5 57zM164 851l-17 5l22 90l18 -5l-10 -37l98 -23l-4 -18l-97 23zM205 988l-18 8l42 83l16 -8l-15 -32l89 -45l-8 -18l-90 45zM392 1106l-11 -16l-40 30l-35 -47l41 -30l-11 -15l-97 70l11 15l40 -29l35 47 l-40 30l11 15zM456 1166l-54 -51l-83 86l53 53l14 -15l-39 -39l20 -21l33 31l12 -14l-31 -30l21 -23l40 38zM514 1290l10 -17l-39 -24l24 -43l-14 -10l-63 100l63 40l9 -15l-47 -30l18 -26zM562 1290q0 -7 5 -10q2 -4 10 -7q2 -2 5 -2h5q5 0 10 2q8 3 10 7q5 5 7 10 q1 1 1 10q0 6 -1 11l-27 67l17 8l28 -68q2 -5 2.5 -9t0.5 -9q0 -10 -3 -19q-2 -5 -4.5 -8t-7.5 -7q-3 -5 -6 -6.5t-8 -3.5t-9.5 -3.5t-9.5 -1.5q-8 0 -18 5q-5 2 -8.5 3.5t-6.5 6.5q-7 7 -10 15l-30 67l18 8zM662 1276l-30 117l20 5l23 -97l49 10l3 -20zM731 1291l-12 120 l20 2l10 -98l51 5v-20zM864 1296l-19 4l12 118l44 -5q6 0 14 -4q9 -5 11 -10q4 -3 6 -13q4 -7 3 -15q-3 -3 -3 -6.5t-2 -8.5q-6 -8 -9 -11q-4 -4 -14 -7q-3 -2 -13 -2l-25 4zM895 1356h7q3 0 7 5q3 0 3 5q2 2 4 8q0 5 -1 7t-2 3.5l-1 1.5q-2 3 -3.5 4t-2.5 1q-2 2 -3.5 2 t-2.5 1l-25 2l-5 -38zM951 1285l-19 5l30 113l44 -12q6 0 11 -5l10 -10q4 -5 4 -13q1 -5 0.5 -8.5t-0.5 -6.5q-2 -5 -5 -10q-4 -5 -6 -7q-8 -5 -10 -5q-3 -2 -5.5 -2.5t-3.5 -2.5l21 -56l-15 1q-1 2 -3 3.5t-3 1.5q-4 2 -5 9l-19 46l-15 4zM977 1379l-10 -31l25 -7h3h2 q3 0 4 1t4 1q2 0 2 1.5v1.5q5 5 5 7v7v3t-1 3q-1 2 -2.5 2.5t-1.5 2.5q-3 3 -6 3zM1037 1321q0 5 2.5 8.5t6.5 6.5q1 3 4.5 5.5t6.5 4.5q3 3 6.5 4t8.5 3q4 3 14 3h15q9 -1 16 -6q8 -4 15 -9q3 -3 5.5 -6.5t4.5 -4.5l3.5 -7l3.5 -7q1 -5 2 -8t1 -7v-8t-2 -8q-1 -4 -2 -7.5 t-3 -7.5q-3 -4 -4 -7t-4 -7q-3 -3 -6.5 -5t-4.5 -6q-4 -2 -7 -4t-7 -5q-6 0 -16 -1q-12 0 -17 1q-5 0 -15 5q-12 5 -18 15q-9 9 -14 20q-1 7 -1 12v12q0 11 6 21zM1054 1315q-2 -4 -2.5 -6.5t-2.5 -5.5v-10q0 -2 1 -5t2 -5q0 -7 4 -10q1 -2 3 -4.5t3 -2.5q4 -5 10 -6 q7 -4 10 -4h12h12q4 5 8 5q3 2 5 3.5t3 3.5q3 3 4 5.5t3 4.5q2 3 2.5 7.5t0.5 9.5v7.5v7.5q-2 4 -4.5 7.5t-5.5 5.5q-6 7 -13 10q-2 2 -5 2.5t-7 0.5h-10q-6 0 -10 -1q-3 -2 -5 -3t-5 -1q-1 -2 -3 -4t-3 -4zM1222 1290l10 -9q0 -1 1.5 -3t3.5 -3q0 -5 -2 -9l-28 -85l83 38 q1 1 7 1q5 0 7 -4l10 -7l-117 -54l-15 11zM1279 1064l-47 56l90 76l49 -56l-14 -14l-37 44l-23 -19l29 -36l-16 -11l-28 35l-23 -21l35 -42zM1294 1039l-9 16l101 61l23 -37q2 -3 2.5 -6t2.5 -8q2 -7 -2 -12q-2 -9 -5 -13l-4.5 -4.5t-6.5 -5.5q-4 -1 -5.5 -1.5t-4.5 -2.5 q-4 0 -5.5 -0.5t-4.5 0.5q-4 0 -10 3q-4 1 -5.5 1.5t-3.5 3.5l-23 -59l-9 13q-4 2 -4 7q0 6 3 9l20 47l-8 13zM1381 1089l-29 -16l13 -19q2 -5 4 -6q1 0 6 -3h6q1 0 5 3q1 0 6 3q0 3 1 4t1 3q1 1 1 6q-1 1 -1 2.5t-2 3.5zM1436 969q1 1 1 7q0 4 -1 5q-2 3 -2 7q-3 0 -5 3 q-2 2 -5 2q-3 1 -5 0l-2.5 -2.5l-1.5 -1.5l-2 -2l-2 -2v-7v-10v-3v-2v-10q0 -2 -0.5 -4.5t-0.5 -4.5q-4 -14 -19 -21q-4 -2 -7.5 -3t-8.5 1q-6 0 -14 2q-4 3 -7 5t-5 6q-3 2 -5 5.5t-4 6.5q-3 10 -3 15q0 4 3 14q0 3 2 5l3 4q0 4 2 4q4 2 3 2l4 -2q3 -5 5 -7q0 -1 0.5 -2 t0.5 -3q0 -3 -3 -6v-1v-8q0 -5 2 -8q0 -2 1 -3t2 -4q2 0 3.5 -1.5l3.5 -3.5h2t4 -2h4.5t4.5 2q2 0 5 3q2 4 2 5q1 2 1 7v8v4v12q0 8 2 13q1 2 2 4.5t4 5.5q2 2 4.5 3.5t6.5 3.5q8 3 14 1q6 0 12 -3q3 -2 6.5 -3.5t5.5 -5.5q3 -3 6 -11q2 -7 2 -10q0 -7 -1 -10q0 -4 -4 -10 v-4.5t-2 -3.5l-6 4q-3 1 -4 2.5t-3 3.5q-1 3 -1 6v3zM1364 881l-5 18l113 34l5 -19zM1427 881h19q6 0 14 -5q4 0 7.5 -2.5t4.5 -4.5q4 -3 7 -5.5t6 -5.5q4 -8 7 -12q3 -8 5 -18v-15q-2 -10 -5 -15q-1 -5 -3 -8.5t-4 -6.5l-10 -10q-4 -4 -7.5 -5.5t-6.5 -2.5q-7 -4 -15 -4 q-10 -1 -19 0q-8 0 -15 4q-2 1 -6 2.5t-7 3.5q-3 3 -5.5 6.5t-4.5 5.5q-7 5 -8 15q-2 3 -3.5 6.5t-1.5 8.5q-1 13 1 23q5 13 10 20q7 10 18 17q5 3 11 5.5t11 2.5zM1430 861q-8 0 -10 -3q-5 -2 -10 -5q-4 -2 -6 -7q-5 -5 -5 -10q-2 -1 -2.5 -4t-1.5 -6v-10q2 -8 4 -11 q0 -6 5 -9q1 -3 3 -5t3 -5q2 0 4.5 -1.5t5.5 -3.5q2 -1 4.5 -1h5.5q5 -4 11 0q11 0 16 5q5 1 13 11q6 8 6 15q3 7 1 15q0 7 -2 10q-3 4 -3.5 6t-1.5 4q-3 2 -4.5 3.5l-3.5 3.5q-5 3 -10 5q-3 3 -11 3q-4 3 -11 0zM1377 645l2 16l96 60l-91 5l1 20l117 -10v-11q0 -5 -1 -9 q-4 -2 -4 -5l-81 -50l81 -6l-1 -19z" />
<glyph unicode="5" horiz-adv-x="1672" d="M822 308q82 0 155 30t130 78h-570q58 -48 130 -78t155 -30zM586 463h564q45 55 70 124t25 147q0 80 -26.5 150t-81.5 139zM822 1251q-105 0 -198 -40t-163.5 -109t-112.5 -163.5t-42 -204.5q0 -103 39.5 -196t108 -163.5t163.5 -112.5t205 -42q35 0 70 5.5t68 15.5 q77 23 146 68t120 108.5t80.5 143.5t29.5 173q0 101 -38.5 194t-107 165t-163.5 115t-205 43zM822 260q-100 0 -186 38t-150 103t-99.5 151.5t-35.5 181.5q0 94 35 179.5t98 151t149.5 103.5t188.5 38q67 0 124 -16q71 -19 134.5 -60t111 -100t75 -134t27.5 -162 q0 -98 -37 -184.5t-101.5 -151t-150.5 -101.5t-183 -37zM492 1004q-45 -55 -70.5 -122.5t-25.5 -147.5q0 -83 28 -155.5t78 -130.5l555 556h-565zM822 1161q-83 0 -155.5 -29t-130.5 -81h566q-55 50 -126.5 80t-153.5 30zM972 191l-90 -16l4 -26l34 6l16 -89l26 5l-16 89 l31 6zM1072 156q-1 7 -8 9l-12 5h-15h-6h-9h-2v1q-3 3 -3 4l-2 1q2 0 2 4v1h3h5v4h1h5h3q3 0 3 1h9q0 3 0.5 4l0.5 1l5 10l-6 4q-9 4 -12 4q-2 0 -4.5 1t-4.5 1q-4 0 -6 -1t-4 -1l-13 -8q-2 -1 -4 -3.5t-3 -6.5q-8 -6 -8 -15v-4t3 -7q2 -9 10 -14q1 0 3.5 -1.5t3.5 -3.5 q4 0 7 -1t6 -1h12h10h2q2 0 3 -3q4 0 4 -1h3v-5q0 -2 -1 -3t-1 -2v-1q-1 0 -2 -2.5t-3 -2.5q-1 -3 -5 -3h-2.5h-2.5h-3.5h-2.5h-6h-8l-5 -1v-2t-1 -2l-5 -7q1 -4 3 -6t3 -4q4 -1 7 -2t7 -1q8 -3 11 -2q4 0 8 1t7 1l7 3.5t8 4.5l5.5 5.5t4.5 6.5q0 5 2.5 7.5t2.5 7.5 t-0.5 8.5t-4.5 6.5q0 8 -5 10zM1122 151q-1 4 -3 4t-3.5 0.5t-3.5 0.5q-1 -1 -6 -1l-7 -4q-2 -1 -2 -3v-2q-1 -2 -1 -5v-1q0 -4 1 -4v-1q0 -6 4 -6q1 -5 6 -5h7q5 0 7 2q1 2 3 2.5t2 2.5v2q0 2 1 2l4 3v2q0 6 -5 6zM846 99q-1 0 -1 4q0 1 -1.5 1t-1.5 1q0 4 -1 4l-41 60 q0 1 -3 2q-1 3 -8 3h-9h-14l3 -119l27 1v79l51 -79h25v118h-30zM599 189l48 -18l8 25l-73 25l-41 -105l26 -11l15 41l38 -15l10 25l-38 15zM747 160l-8 11q-3 3 -6.5 5t-7.5 4q-4 1 -7 2t-8 3q-5 1 -9 1h-7q-10 0 -14 -5q-4 0 -7.5 -1t-7.5 -4l-11 -10q-4 -8 -10 -11 q-2 -5 -3.5 -8.5t-1.5 -6.5v-19l3 -15l5 -12l12 -11q3 -4 7 -5.5t6 -3.5q7 -4 15 -4q5 -1 8.5 -1h6.5q5 0 14 2q4 2 8.5 3t6.5 4q6 2 11 10l9 11q4 7 6 17v15q0 3 -0.5 6.5t-2.5 8.5l-3 7.5t-4 6.5zM730 121q0 -3 -1.5 -6.5t-3.5 -5.5l-4.5 -6t-4.5 -4q-4 -1 -6.5 -2 t-5.5 -1q-7 -3 -12 0q-3 0 -6.5 1t-5.5 2l-8 10q-2 2 -2.5 5.5t-0.5 6.5q-3 5 0 14q0 6 5 11l6 9l12 5h12l12 -5l9 -9q2 -3 3.5 -5t1.5 -6q2 -9 0 -14zM1309 460q-2 -2 -3 -4t-1 -6q0 -2 1 -4t3 -5l40 -57l-69 10h-10l-9 -6l-9 -17l97 -65l16 23l-46 32l60 -12l11 20l-33 50 l47 -30l15 24l-98 63zM1296 333l-14 13l-15 3q-3 2 -15 2h-6.5t-8.5 -2l-12 -3q-4 -3 -8.5 -6.5t-6.5 -6.5q-3 -3 -4.5 -6t-3.5 -6q-3 -3 -4 -6.5t-3 -8.5q0 -3 -1.5 -6.5t-1.5 -8.5v-6t3 -9l4 -13l10 -12l13 -10q5 -1 7.5 -3.5t7.5 -2.5t8.5 -2t6.5 -2t6.5 2t8.5 2 q3 0 6.5 2.5t7.5 3.5q6 3 13 10l10 12q1 2 3 5t2 8q1 5 1 15v15l-6 13q-2 4 -5 9zM1282 280q-3 -9 -7 -10q-8 -7 -10 -9q-3 -1 -6.5 -1h-6.5t-6.5 0.5t-4.5 0.5l-11 9q-4 4 -8 11v10v12q4 8 8 12l11 8q3 0 6 0.5t5 0.5q5 0 13 -3q2 -1 4.5 -3t5.5 -5q2 -2 4 -4.5t3 -5.5 q3 -3 3 -12q0 -2 -1.5 -6.5zM1209 220l-7 -4q-2 0 -3.5 -2.5t-1.5 -4.5l-5 -9l-8 -6q-4 -3 -6 -4t-6 -1q-6 -3 -12 0q-3 2 -5.5 2t-5.5 3q-7 4 -7 11q-5 1 -5 11q-5 3 0 14v3.5t2 7.5q2 2 4 3.5t4 3.5q8 3 10 3q3 2 10 2q2 0 10 3q2 4 5 5l2 7v8q-3 5 -12 5h-13l-14 -5 l-11 -5q-2 -2 -5.5 -4.5t-6.5 -6.5q-2 -2 -4 -5.5t-4 -8.5l-7 -15v-15q0 -5 2 -7.5t2 -7.5l6 -15q3 -3 6 -5t4 -5l15 -10l12 -2q5 -3 16 -3q4 0 7 1.5t7 2.5q5 1 8.5 3.5t6.5 5.5l5 2.5t5 4.5q3 0 5 3.5t5 6.5l3 14q5 4 5 13l-12 2h-6zM519 260l-102 -74l15 -10h2.5h2.5 q3 0 3.5 -0.5t1.5 0.5h5h5l10 10l40 -22l-2 -15v-5q0 -3 1 -3q0 -1 1 -1v-4q0 -1 2 -1l3 -4l17 -10l17 125zM507 218v-2v-3l-1 -22l-19 10l17 15h2h1v2v1h2q1 1 2 1zM477 255l18 20l-69 59l-20 -21l26 -22l-57 -66l20 -19l60 70zM257 411l83 -10h6q1 0 2 1t3 1l11 8l-45 77 l-23 -14l26 -44l-83 9q-1 0 -4.5 -0.5t-7.5 -3.5l-10 -5l45 -79l22 15zM357 303l22 18l-27 30l14 12l31 -39l20 17l-48 60l-90 -75l51 -58l19 18l-32 37l17 11zM191 741l50 4q1 -2 3.5 -4t4.5 -5q2 -1 3.5 -4t1.5 -6q1 -6 3 -11q0 -4 1 -6.5t1 -4.5q0 -8 -1 -14t-3 -11 q-1 -8 -4.5 -13t-6.5 -10q-7 -8 -19 -12q-11 -8 -23 -8h-17q-4 3 -7.5 4t-7.5 4q-4 1 -6.5 3t-6.5 4q-2 3 -5 6t-5 7q-2 2 -3.5 5.5t-3.5 6.5q-1 5 -2 9.5t-1 9.5v6.5v4.5q3 9 3 14q2 3 3.5 5.5t3.5 5.5q2 2 3.5 5t3.5 5l3 -5q3 0 4 -1l1 -1q2 -3 2 -8v-3t-2 -3 q-5 -5 -5 -11v-13t3 -17q2 -4 4.5 -7t5.5 -6q5 -5 14 -7q7 -4 17 -3q6 0 11 3q3 1 5 1.5t4 3.5q1 2 3.5 3t5.5 4q1 2 2.5 3.5t3.5 4.5q0 4 0.5 6.5t2.5 5.5q1 4 1 10q-1 4 -2 7t-2 8q0 3 -5 10l-19 -1v-5v-5q0 -2 -2 -5q-1 -1 -2 -2.5t-2 -1.5q-2 -1 -6 -1h-6zM264 831 l-9 -75l-118 12l8 75l19 -2l-7 -55l30 -5l5 47l20 -2l-5 -45l32 -3l5 57zM164 851l-17 5l22 90l18 -5l-10 -37l98 -23l-4 -18l-97 23zM205 988l-18 8l42 83l16 -8l-15 -32l89 -45l-8 -18l-90 45zM392 1106l-11 -16l-40 30l-35 -47l41 -30l-11 -15l-97 70l11 15l40 -29l35 47 l-40 30l11 15zM456 1166l-54 -51l-83 86l53 53l14 -15l-39 -39l20 -21l33 31l12 -14l-31 -30l21 -23l40 38zM514 1290l10 -17l-39 -24l24 -43l-14 -10l-63 100l63 40l9 -15l-47 -30l18 -26zM562 1290q0 -7 5 -10q2 -4 10 -7q2 -2 5 -2h5q5 0 10 2q8 3 10 7q5 5 7 10 q1 1 1 10q0 6 -1 11l-27 67l17 8l28 -68q2 -5 2.5 -9t0.5 -9q0 -10 -3 -19q-2 -5 -4.5 -8t-7.5 -7q-3 -5 -6 -6.5t-8 -3.5t-9.5 -3.5t-9.5 -1.5q-8 0 -18 5q-5 2 -8.5 3.5t-6.5 6.5q-7 7 -10 15l-30 67l18 8zM662 1276l-30 117l20 5l23 -97l49 10l3 -20zM731 1291l-12 120 l20 2l10 -98l51 5v-20zM864 1296l-19 4l12 118l44 -5q6 0 14 -4q9 -5 11 -10q4 -3 6 -13q4 -7 3 -15q-3 -3 -3 -6.5t-2 -8.5q-6 -8 -9 -11q-4 -4 -14 -7q-3 -2 -13 -2l-25 4zM895 1356h7q3 0 7 5q3 0 3 5q2 2 4 8q0 5 -1 7t-2 3.5l-1 1.5q-2 3 -3.5 4t-2.5 1q-2 2 -3.5 2 t-2.5 1l-25 2l-5 -38zM951 1285l-19 5l30 113l44 -12q6 0 11 -5l10 -10q4 -5 4 -13q1 -5 0.5 -8.5t-0.5 -6.5q-2 -5 -5 -10q-4 -5 -6 -7q-8 -5 -10 -5q-3 -2 -5.5 -2.5t-3.5 -2.5l21 -56l-15 1q-1 2 -3 3.5t-3 1.5q-4 2 -5 9l-19 46l-15 4zM977 1379l-10 -31l25 -7h3h2 q3 0 4 1t4 1q2 0 2 1.5v1.5q5 5 5 7v7v3t-1 3q-1 2 -2.5 2.5t-1.5 2.5q-3 3 -6 3zM1037 1321q0 5 2.5 8.5t6.5 6.5q1 3 4.5 5.5t6.5 4.5q3 3 6.5 4t8.5 3q4 3 14 3h15q9 -1 16 -6q8 -4 15 -9q3 -3 5.5 -6.5t4.5 -4.5l3.5 -7l3.5 -7q1 -5 2 -8t1 -7v-8t-2 -8q-1 -4 -2 -7.5 t-3 -7.5q-3 -4 -4 -7t-4 -7q-3 -3 -6.5 -5t-4.5 -6q-4 -2 -7 -4t-7 -5q-6 0 -16 -1q-12 0 -17 1q-5 0 -15 5q-12 5 -18 15q-9 9 -14 20q-1 7 -1 12v12q0 11 6 21zM1054 1315q-2 -4 -2.5 -6.5t-2.5 -5.5v-10q0 -2 1 -5t2 -5q0 -7 4 -10q1 -2 3 -4.5t3 -2.5q4 -5 10 -6 q7 -4 10 -4h12h12q4 5 8 5q3 2 5 3.5t3 3.5q3 3 4 5.5t3 4.5q2 3 2.5 7.5t0.5 9.5v7.5v7.5q-2 4 -4.5 7.5t-5.5 5.5q-6 7 -13 10q-2 2 -5 2.5t-7 0.5h-10q-6 0 -10 -1q-3 -2 -5 -3t-5 -1q-1 -2 -3 -4t-3 -4zM1222 1290l10 -9q0 -1 1.5 -3t3.5 -3q0 -5 -2 -9l-28 -85l83 38 q1 1 7 1q5 0 7 -4l10 -7l-117 -54l-15 11zM1279 1064l-47 56l90 76l49 -56l-14 -14l-37 44l-23 -19l29 -36l-16 -11l-28 35l-23 -21l35 -42zM1294 1039l-9 16l101 61l23 -37q2 -3 2.5 -6t2.5 -8q2 -7 -2 -12q-2 -9 -5 -13l-4.5 -4.5t-6.5 -5.5q-4 -1 -5.5 -1.5t-4.5 -2.5 q-4 0 -5.5 -0.5t-4.5 0.5q-4 0 -10 3q-4 1 -5.5 1.5t-3.5 3.5l-23 -59l-9 13q-4 2 -4 7q0 6 3 9l20 47l-8 13zM1381 1089l-29 -16l13 -19q2 -5 4 -6q1 0 6 -3h6q1 0 5 3q1 0 6 3q0 3 1 4t1 3q1 1 1 6q-1 1 -1 2.5t-2 3.5zM1436 969q1 1 1 7q0 4 -1 5q-2 3 -2 7q-3 0 -5 3 q-2 2 -5 2q-3 1 -5 0l-2.5 -2.5l-1.5 -1.5l-2 -2l-2 -2v-7v-10v-3v-2v-10q0 -2 -0.5 -4.5t-0.5 -4.5q-4 -14 -19 -21q-4 -2 -7.5 -3t-8.5 1q-6 0 -14 2q-4 3 -7 5t-5 6q-3 2 -5 5.5t-4 6.5q-3 10 -3 15q0 4 3 14q0 3 2 5l3 4q0 4 2 4q4 2 3 2l4 -2q3 -5 5 -7q0 -1 0.5 -2 t0.5 -3q0 -3 -3 -6v-1v-8q0 -5 2 -8q0 -2 1 -3t2 -4q2 0 3.5 -1.5l3.5 -3.5h2t4 -2h4.5t4.5 2q2 0 5 3q2 4 2 5q1 2 1 7v8v4v12q0 8 2 13q1 2 2 4.5t4 5.5q2 2 4.5 3.5t6.5 3.5q8 3 14 1q6 0 12 -3q3 -2 6.5 -3.5t5.5 -5.5q3 -3 6 -11q2 -7 2 -10q0 -7 -1 -10q0 -4 -4 -10 v-4.5t-2 -3.5l-6 4q-3 1 -4 2.5t-3 3.5q-1 3 -1 6v3zM1364 881l-5 18l113 34l5 -19zM1427 881h19q6 0 14 -5q4 0 7.5 -2.5t4.5 -4.5q4 -3 7 -5.5t6 -5.5q4 -8 7 -12q3 -8 5 -18v-15q-2 -10 -5 -15q-1 -5 -3 -8.5t-4 -6.5l-10 -10q-4 -4 -7.5 -5.5t-6.5 -2.5q-7 -4 -15 -4 q-10 -1 -19 0q-8 0 -15 4q-2 1 -6 2.5t-7 3.5q-3 3 -5.5 6.5t-4.5 5.5q-7 5 -8 15q-2 3 -3.5 6.5t-1.5 8.5q-1 13 1 23q5 13 10 20q7 10 18 17q5 3 11 5.5t11 2.5zM1430 861q-8 0 -10 -3q-5 -2 -10 -5q-4 -2 -6 -7q-5 -5 -5 -10q-2 -1 -2.5 -4t-1.5 -6v-10q2 -8 4 -11 q0 -6 5 -9q1 -3 3 -5t3 -5q2 0 4.5 -1.5t5.5 -3.5q2 -1 4.5 -1h5.5q5 -4 11 0q11 0 16 5q5 1 13 11q6 8 6 15q3 7 1 15q0 7 -2 10q-3 4 -3.5 6t-1.5 4q-3 2 -4.5 3.5l-3.5 3.5q-5 3 -10 5q-3 3 -11 3q-4 3 -11 0zM1377 645l2 16l96 60l-91 5l1 20l117 -10v-11q0 -5 -1 -9 q-4 -2 -4 -5l-81 -50l81 -6l-1 -19z" />
<glyph unicode="6" horiz-adv-x="1672" d="M822 308q82 0 155 30t130 78h-570q58 -48 130 -78t155 -30zM586 463h564q45 55 70 124t25 147q0 80 -26.5 150t-81.5 139zM822 1251q-105 0 -198 -40t-163.5 -109t-112.5 -163.5t-42 -204.5q0 -103 39.5 -196t108 -163.5t163.5 -112.5t205 -42q35 0 70 5.5t68 15.5 q77 23 146 68t120 108.5t80.5 143.5t29.5 173q0 101 -38.5 194t-107 165t-163.5 115t-205 43zM822 260q-100 0 -186 38t-150 103t-99.5 151.5t-35.5 181.5q0 94 35 179.5t98 151t149.5 103.5t188.5 38q67 0 124 -16q71 -19 134.5 -60t111 -100t75 -134t27.5 -162 q0 -98 -37 -184.5t-101.5 -151t-150.5 -101.5t-183 -37zM492 1004q-45 -55 -70.5 -122.5t-25.5 -147.5q0 -83 28 -155.5t78 -130.5l555 556h-565zM822 1161q-83 0 -155.5 -29t-130.5 -81h566q-55 50 -126.5 80t-153.5 30zM972 191l-90 -16l4 -26l34 6l16 -89l26 5l-16 89 l31 6zM1072 156q-1 7 -8 9l-12 5h-15h-6h-9h-2v1q-3 3 -3 4l-2 1q2 0 2 4v1h3h5v4h1h5h3q3 0 3 1h9q0 3 0.5 4l0.5 1l5 10l-6 4q-9 4 -12 4q-2 0 -4.5 1t-4.5 1q-4 0 -6 -1t-4 -1l-13 -8q-2 -1 -4 -3.5t-3 -6.5q-8 -6 -8 -15v-4t3 -7q2 -9 10 -14q1 0 3.5 -1.5t3.5 -3.5 q4 0 7 -1t6 -1h12h10h2q2 0 3 -3q4 0 4 -1h3v-5q0 -2 -1 -3t-1 -2v-1q-1 0 -2 -2.5t-3 -2.5q-1 -3 -5 -3h-2.5h-2.5h-3.5h-2.5h-6h-8l-5 -1v-2t-1 -2l-5 -7q1 -4 3 -6t3 -4q4 -1 7 -2t7 -1q8 -3 11 -2q4 0 8 1t7 1l7 3.5t8 4.5l5.5 5.5t4.5 6.5q0 5 2.5 7.5t2.5 7.5 t-0.5 8.5t-4.5 6.5q0 8 -5 10zM1122 151q-1 4 -3 4t-3.5 0.5t-3.5 0.5q-1 -1 -6 -1l-7 -4q-2 -1 -2 -3v-2q-1 -2 -1 -5v-1q0 -4 1 -4v-1q0 -6 4 -6q1 -5 6 -5h7q5 0 7 2q1 2 3 2.5t2 2.5v2q0 2 1 2l4 3v2q0 6 -5 6zM846 99q-1 0 -1 4q0 1 -1.5 1t-1.5 1q0 4 -1 4l-41 60 q0 1 -3 2q-1 3 -8 3h-9h-14l3 -119l27 1v79l51 -79h25v118h-30zM599 189l48 -18l8 25l-73 25l-41 -105l26 -11l15 41l38 -15l10 25l-38 15zM747 160l-8 11q-3 3 -6.5 5t-7.5 4q-4 1 -7 2t-8 3q-5 1 -9 1h-7q-10 0 -14 -5q-4 0 -7.5 -1t-7.5 -4l-11 -10q-4 -8 -10 -11 q-2 -5 -3.5 -8.5t-1.5 -6.5v-19l3 -15l5 -12l12 -11q3 -4 7 -5.5t6 -3.5q7 -4 15 -4q5 -1 8.5 -1h6.5q5 0 14 2q4 2 8.5 3t6.5 4q6 2 11 10l9 11q4 7 6 17v15q0 3 -0.5 6.5t-2.5 8.5l-3 7.5t-4 6.5zM730 121q0 -3 -1.5 -6.5t-3.5 -5.5l-4.5 -6t-4.5 -4q-4 -1 -6.5 -2 t-5.5 -1q-7 -3 -12 0q-3 0 -6.5 1t-5.5 2l-8 10q-2 2 -2.5 5.5t-0.5 6.5q-3 5 0 14q0 6 5 11l6 9l12 5h12l12 -5l9 -9q2 -3 3.5 -5t1.5 -6q2 -9 0 -14zM1309 460q-2 -2 -3 -4t-1 -6q0 -2 1 -4t3 -5l40 -57l-69 10h-10l-9 -6l-9 -17l97 -65l16 23l-46 32l60 -12l11 20l-33 50 l47 -30l15 24l-98 63zM1296 333l-14 13l-15 3q-3 2 -15 2h-6.5t-8.5 -2l-12 -3q-4 -3 -8.5 -6.5t-6.5 -6.5q-3 -3 -4.5 -6t-3.5 -6q-3 -3 -4 -6.5t-3 -8.5q0 -3 -1.5 -6.5t-1.5 -8.5v-6t3 -9l4 -13l10 -12l13 -10q5 -1 7.5 -3.5t7.5 -2.5t8.5 -2t6.5 -2t6.5 2t8.5 2 q3 0 6.5 2.5t7.5 3.5q6 3 13 10l10 12q1 2 3 5t2 8q1 5 1 15v15l-6 13q-2 4 -5 9zM1282 280q-3 -9 -7 -10q-8 -7 -10 -9q-3 -1 -6.5 -1h-6.5t-6.5 0.5t-4.5 0.5l-11 9q-4 4 -8 11v10v12q4 8 8 12l11 8q3 0 6 0.5t5 0.5q5 0 13 -3q2 -1 4.5 -3t5.5 -5q2 -2 4 -4.5t3 -5.5 q3 -3 3 -12q0 -2 -1.5 -6.5zM1209 220l-7 -4q-2 0 -3.5 -2.5t-1.5 -4.5l-5 -9l-8 -6q-4 -3 -6 -4t-6 -1q-6 -3 -12 0q-3 2 -5.5 2t-5.5 3q-7 4 -7 11q-5 1 -5 11q-5 3 0 14v3.5t2 7.5q2 2 4 3.5t4 3.5q8 3 10 3q3 2 10 2q2 0 10 3q2 4 5 5l2 7v8q-3 5 -12 5h-13l-14 -5 l-11 -5q-2 -2 -5.5 -4.5t-6.5 -6.5q-2 -2 -4 -5.5t-4 -8.5l-7 -15v-15q0 -5 2 -7.5t2 -7.5l6 -15q3 -3 6 -5t4 -5l15 -10l12 -2q5 -3 16 -3q4 0 7 1.5t7 2.5q5 1 8.5 3.5t6.5 5.5l5 2.5t5 4.5q3 0 5 3.5t5 6.5l3 14q5 4 5 13l-12 2h-6zM519 260l-102 -74l15 -10h2.5h2.5 q3 0 3.5 -0.5t1.5 0.5h5h5l10 10l40 -22l-2 -15v-5q0 -3 1 -3q0 -1 1 -1v-4q0 -1 2 -1l3 -4l17 -10l17 125zM507 218v-2v-3l-1 -22l-19 10l17 15h2h1v2v1h2q1 1 2 1zM477 255l18 20l-69 59l-20 -21l26 -22l-57 -66l20 -19l60 70zM257 411l83 -10h6q1 0 2 1t3 1l11 8l-45 77 l-23 -14l26 -44l-83 9q-1 0 -4.5 -0.5t-7.5 -3.5l-10 -5l45 -79l22 15zM357 303l22 18l-27 30l14 12l31 -39l20 17l-48 60l-90 -75l51 -58l19 18l-32 37l17 11zM191 741l50 4q1 -2 3.5 -4t4.5 -5q2 -1 3.5 -4t1.5 -6q1 -6 3 -11q0 -4 1 -6.5t1 -4.5q0 -8 -1 -14t-3 -11 q-1 -8 -4.5 -13t-6.5 -10q-7 -8 -19 -12q-11 -8 -23 -8h-17q-4 3 -7.5 4t-7.5 4q-4 1 -6.5 3t-6.5 4q-2 3 -5 6t-5 7q-2 2 -3.5 5.5t-3.5 6.5q-1 5 -2 9.5t-1 9.5v6.5v4.5q3 9 3 14q2 3 3.5 5.5t3.5 5.5q2 2 3.5 5t3.5 5l3 -5q3 0 4 -1l1 -1q2 -3 2 -8v-3t-2 -3 q-5 -5 -5 -11v-13t3 -17q2 -4 4.5 -7t5.5 -6q5 -5 14 -7q7 -4 17 -3q6 0 11 3q3 1 5 1.5t4 3.5q1 2 3.5 3t5.5 4q1 2 2.5 3.5t3.5 4.5q0 4 0.5 6.5t2.5 5.5q1 4 1 10q-1 4 -2 7t-2 8q0 3 -5 10l-19 -1v-5v-5q0 -2 -2 -5q-1 -1 -2 -2.5t-2 -1.5q-2 -1 -6 -1h-6zM264 831 l-9 -75l-118 12l8 75l19 -2l-7 -55l30 -5l5 47l20 -2l-5 -45l32 -3l5 57zM164 851l-17 5l22 90l18 -5l-10 -37l98 -23l-4 -18l-97 23zM205 988l-18 8l42 83l16 -8l-15 -32l89 -45l-8 -18l-90 45zM392 1106l-11 -16l-40 30l-35 -47l41 -30l-11 -15l-97 70l11 15l40 -29l35 47 l-40 30l11 15zM456 1166l-54 -51l-83 86l53 53l14 -15l-39 -39l20 -21l33 31l12 -14l-31 -30l21 -23l40 38zM514 1290l10 -17l-39 -24l24 -43l-14 -10l-63 100l63 40l9 -15l-47 -30l18 -26zM562 1290q0 -7 5 -10q2 -4 10 -7q2 -2 5 -2h5q5 0 10 2q8 3 10 7q5 5 7 10 q1 1 1 10q0 6 -1 11l-27 67l17 8l28 -68q2 -5 2.5 -9t0.5 -9q0 -10 -3 -19q-2 -5 -4.5 -8t-7.5 -7q-3 -5 -6 -6.5t-8 -3.5t-9.5 -3.5t-9.5 -1.5q-8 0 -18 5q-5 2 -8.5 3.5t-6.5 6.5q-7 7 -10 15l-30 67l18 8zM662 1276l-30 117l20 5l23 -97l49 10l3 -20zM731 1291l-12 120 l20 2l10 -98l51 5v-20zM864 1296l-19 4l12 118l44 -5q6 0 14 -4q9 -5 11 -10q4 -3 6 -13q4 -7 3 -15q-3 -3 -3 -6.5t-2 -8.5q-6 -8 -9 -11q-4 -4 -14 -7q-3 -2 -13 -2l-25 4zM895 1356h7q3 0 7 5q3 0 3 5q2 2 4 8q0 5 -1 7t-2 3.5l-1 1.5q-2 3 -3.5 4t-2.5 1q-2 2 -3.5 2 t-2.5 1l-25 2l-5 -38zM951 1285l-19 5l30 113l44 -12q6 0 11 -5l10 -10q4 -5 4 -13q1 -5 0.5 -8.5t-0.5 -6.5q-2 -5 -5 -10q-4 -5 -6 -7q-8 -5 -10 -5q-3 -2 -5.5 -2.5t-3.5 -2.5l21 -56l-15 1q-1 2 -3 3.5t-3 1.5q-4 2 -5 9l-19 46l-15 4zM977 1379l-10 -31l25 -7h3h2 q3 0 4 1t4 1q2 0 2 1.5v1.5q5 5 5 7v7v3t-1 3q-1 2 -2.5 2.5t-1.5 2.5q-3 3 -6 3zM1037 1321q0 5 2.5 8.5t6.5 6.5q1 3 4.5 5.5t6.5 4.5q3 3 6.5 4t8.5 3q4 3 14 3h15q9 -1 16 -6q8 -4 15 -9q3 -3 5.5 -6.5t4.5 -4.5l3.5 -7l3.5 -7q1 -5 2 -8t1 -7v-8t-2 -8q-1 -4 -2 -7.5 t-3 -7.5q-3 -4 -4 -7t-4 -7q-3 -3 -6.5 -5t-4.5 -6q-4 -2 -7 -4t-7 -5q-6 0 -16 -1q-12 0 -17 1q-5 0 -15 5q-12 5 -18 15q-9 9 -14 20q-1 7 -1 12v12q0 11 6 21zM1054 1315q-2 -4 -2.5 -6.5t-2.5 -5.5v-10q0 -2 1 -5t2 -5q0 -7 4 -10q1 -2 3 -4.5t3 -2.5q4 -5 10 -6 q7 -4 10 -4h12h12q4 5 8 5q3 2 5 3.5t3 3.5q3 3 4 5.5t3 4.5q2 3 2.5 7.5t0.5 9.5v7.5v7.5q-2 4 -4.5 7.5t-5.5 5.5q-6 7 -13 10q-2 2 -5 2.5t-7 0.5h-10q-6 0 -10 -1q-3 -2 -5 -3t-5 -1q-1 -2 -3 -4t-3 -4zM1222 1290l10 -9q0 -1 1.5 -3t3.5 -3q0 -5 -2 -9l-28 -85l83 38 q1 1 7 1q5 0 7 -4l10 -7l-117 -54l-15 11zM1279 1064l-47 56l90 76l49 -56l-14 -14l-37 44l-23 -19l29 -36l-16 -11l-28 35l-23 -21l35 -42zM1294 1039l-9 16l101 61l23 -37q2 -3 2.5 -6t2.5 -8q2 -7 -2 -12q-2 -9 -5 -13l-4.5 -4.5t-6.5 -5.5q-4 -1 -5.5 -1.5t-4.5 -2.5 q-4 0 -5.5 -0.5t-4.5 0.5q-4 0 -10 3q-4 1 -5.5 1.5t-3.5 3.5l-23 -59l-9 13q-4 2 -4 7q0 6 3 9l20 47l-8 13zM1381 1089l-29 -16l13 -19q2 -5 4 -6q1 0 6 -3h6q1 0 5 3q1 0 6 3q0 3 1 4t1 3q1 1 1 6q-1 1 -1 2.5t-2 3.5zM1436 969q1 1 1 7q0 4 -1 5q-2 3 -2 7q-3 0 -5 3 q-2 2 -5 2q-3 1 -5 0l-2.5 -2.5l-1.5 -1.5l-2 -2l-2 -2v-7v-10v-3v-2v-10q0 -2 -0.5 -4.5t-0.5 -4.5q-4 -14 -19 -21q-4 -2 -7.5 -3t-8.5 1q-6 0 -14 2q-4 3 -7 5t-5 6q-3 2 -5 5.5t-4 6.5q-3 10 -3 15q0 4 3 14q0 3 2 5l3 4q0 4 2 4q4 2 3 2l4 -2q3 -5 5 -7q0 -1 0.5 -2 t0.5 -3q0 -3 -3 -6v-1v-8q0 -5 2 -8q0 -2 1 -3t2 -4q2 0 3.5 -1.5l3.5 -3.5h2t4 -2h4.5t4.5 2q2 0 5 3q2 4 2 5q1 2 1 7v8v4v12q0 8 2 13q1 2 2 4.5t4 5.5q2 2 4.5 3.5t6.5 3.5q8 3 14 1q6 0 12 -3q3 -2 6.5 -3.5t5.5 -5.5q3 -3 6 -11q2 -7 2 -10q0 -7 -1 -10q0 -4 -4 -10 v-4.5t-2 -3.5l-6 4q-3 1 -4 2.5t-3 3.5q-1 3 -1 6v3zM1364 881l-5 18l113 34l5 -19zM1427 881h19q6 0 14 -5q4 0 7.5 -2.5t4.5 -4.5q4 -3 7 -5.5t6 -5.5q4 -8 7 -12q3 -8 5 -18v-15q-2 -10 -5 -15q-1 -5 -3 -8.5t-4 -6.5l-10 -10q-4 -4 -7.5 -5.5t-6.5 -2.5q-7 -4 -15 -4 q-10 -1 -19 0q-8 0 -15 4q-2 1 -6 2.5t-7 3.5q-3 3 -5.5 6.5t-4.5 5.5q-7 5 -8 15q-2 3 -3.5 6.5t-1.5 8.5q-1 13 1 23q5 13 10 20q7 10 18 17q5 3 11 5.5t11 2.5zM1430 861q-8 0 -10 -3q-5 -2 -10 -5q-4 -2 -6 -7q-5 -5 -5 -10q-2 -1 -2.5 -4t-1.5 -6v-10q2 -8 4 -11 q0 -6 5 -9q1 -3 3 -5t3 -5q2 0 4.5 -1.5t5.5 -3.5q2 -1 4.5 -1h5.5q5 -4 11 0q11 0 16 5q5 1 13 11q6 8 6 15q3 7 1 15q0 7 -2 10q-3 4 -3.5 6t-1.5 4q-3 2 -4.5 3.5l-3.5 3.5q-5 3 -10 5q-3 3 -11 3q-4 3 -11 0zM1377 645l2 16l96 60l-91 5l1 20l117 -10v-11q0 -5 -1 -9 q-4 -2 -4 -5l-81 -50l81 -6l-1 -19z" />
<glyph unicode="7" horiz-adv-x="1672" d="M822 308q82 0 155 30t130 78h-570q58 -48 130 -78t155 -30zM586 463h564q45 55 70 124t25 147q0 80 -26.5 150t-81.5 139zM822 1251q-105 0 -198 -40t-163.5 -109t-112.5 -163.5t-42 -204.5q0 -103 39.5 -196t108 -163.5t163.5 -112.5t205 -42q35 0 70 5.5t68 15.5 q77 23 146 68t120 108.5t80.5 143.5t29.5 173q0 101 -38.5 194t-107 165t-163.5 115t-205 43zM822 260q-100 0 -186 38t-150 103t-99.5 151.5t-35.5 181.5q0 94 35 179.5t98 151t149.5 103.5t188.5 38q67 0 124 -16q71 -19 134.5 -60t111 -100t75 -134t27.5 -162 q0 -98 -37 -184.5t-101.5 -151t-150.5 -101.5t-183 -37zM492 1004q-45 -55 -70.5 -122.5t-25.5 -147.5q0 -83 28 -155.5t78 -130.5l555 556h-565zM822 1161q-83 0 -155.5 -29t-130.5 -81h566q-55 50 -126.5 80t-153.5 30zM972 191l-90 -16l4 -26l34 6l16 -89l26 5l-16 89 l31 6zM1072 156q-1 7 -8 9l-12 5h-15h-6h-9h-2v1q-3 3 -3 4l-2 1q2 0 2 4v1h3h5v4h1h5h3q3 0 3 1h9q0 3 0.5 4l0.5 1l5 10l-6 4q-9 4 -12 4q-2 0 -4.5 1t-4.5 1q-4 0 -6 -1t-4 -1l-13 -8q-2 -1 -4 -3.5t-3 -6.5q-8 -6 -8 -15v-4t3 -7q2 -9 10 -14q1 0 3.5 -1.5t3.5 -3.5 q4 0 7 -1t6 -1h12h10h2q2 0 3 -3q4 0 4 -1h3v-5q0 -2 -1 -3t-1 -2v-1q-1 0 -2 -2.5t-3 -2.5q-1 -3 -5 -3h-2.5h-2.5h-3.5h-2.5h-6h-8l-5 -1v-2t-1 -2l-5 -7q1 -4 3 -6t3 -4q4 -1 7 -2t7 -1q8 -3 11 -2q4 0 8 1t7 1l7 3.5t8 4.5l5.5 5.5t4.5 6.5q0 5 2.5 7.5t2.5 7.5 t-0.5 8.5t-4.5 6.5q0 8 -5 10zM1122 151q-1 4 -3 4t-3.5 0.5t-3.5 0.5q-1 -1 -6 -1l-7 -4q-2 -1 -2 -3v-2q-1 -2 -1 -5v-1q0 -4 1 -4v-1q0 -6 4 -6q1 -5 6 -5h7q5 0 7 2q1 2 3 2.5t2 2.5v2q0 2 1 2l4 3v2q0 6 -5 6zM846 99q-1 0 -1 4q0 1 -1.5 1t-1.5 1q0 4 -1 4l-41 60 q0 1 -3 2q-1 3 -8 3h-9h-14l3 -119l27 1v79l51 -79h25v118h-30zM599 189l48 -18l8 25l-73 25l-41 -105l26 -11l15 41l38 -15l10 25l-38 15zM747 160l-8 11q-3 3 -6.5 5t-7.5 4q-4 1 -7 2t-8 3q-5 1 -9 1h-7q-10 0 -14 -5q-4 0 -7.5 -1t-7.5 -4l-11 -10q-4 -8 -10 -11 q-2 -5 -3.5 -8.5t-1.5 -6.5v-19l3 -15l5 -12l12 -11q3 -4 7 -5.5t6 -3.5q7 -4 15 -4q5 -1 8.5 -1h6.5q5 0 14 2q4 2 8.5 3t6.5 4q6 2 11 10l9 11q4 7 6 17v15q0 3 -0.5 6.5t-2.5 8.5l-3 7.5t-4 6.5zM730 121q0 -3 -1.5 -6.5t-3.5 -5.5l-4.5 -6t-4.5 -4q-4 -1 -6.5 -2 t-5.5 -1q-7 -3 -12 0q-3 0 -6.5 1t-5.5 2l-8 10q-2 2 -2.5 5.5t-0.5 6.5q-3 5 0 14q0 6 5 11l6 9l12 5h12l12 -5l9 -9q2 -3 3.5 -5t1.5 -6q2 -9 0 -14zM1309 460q-2 -2 -3 -4t-1 -6q0 -2 1 -4t3 -5l40 -57l-69 10h-10l-9 -6l-9 -17l97 -65l16 23l-46 32l60 -12l11 20l-33 50 l47 -30l15 24l-98 63zM1296 333l-14 13l-15 3q-3 2 -15 2h-6.5t-8.5 -2l-12 -3q-4 -3 -8.5 -6.5t-6.5 -6.5q-3 -3 -4.5 -6t-3.5 -6q-3 -3 -4 -6.5t-3 -8.5q0 -3 -1.5 -6.5t-1.5 -8.5v-6t3 -9l4 -13l10 -12l13 -10q5 -1 7.5 -3.5t7.5 -2.5t8.5 -2t6.5 -2t6.5 2t8.5 2 q3 0 6.5 2.5t7.5 3.5q6 3 13 10l10 12q1 2 3 5t2 8q1 5 1 15v15l-6 13q-2 4 -5 9zM1282 280q-3 -9 -7 -10q-8 -7 -10 -9q-3 -1 -6.5 -1h-6.5t-6.5 0.5t-4.5 0.5l-11 9q-4 4 -8 11v10v12q4 8 8 12l11 8q3 0 6 0.5t5 0.5q5 0 13 -3q2 -1 4.5 -3t5.5 -5q2 -2 4 -4.5t3 -5.5 q3 -3 3 -12q0 -2 -1.5 -6.5zM1209 220l-7 -4q-2 0 -3.5 -2.5t-1.5 -4.5l-5 -9l-8 -6q-4 -3 -6 -4t-6 -1q-6 -3 -12 0q-3 2 -5.5 2t-5.5 3q-7 4 -7 11q-5 1 -5 11q-5 3 0 14v3.5t2 7.5q2 2 4 3.5t4 3.5q8 3 10 3q3 2 10 2q2 0 10 3q2 4 5 5l2 7v8q-3 5 -12 5h-13l-14 -5 l-11 -5q-2 -2 -5.5 -4.5t-6.5 -6.5q-2 -2 -4 -5.5t-4 -8.5l-7 -15v-15q0 -5 2 -7.5t2 -7.5l6 -15q3 -3 6 -5t4 -5l15 -10l12 -2q5 -3 16 -3q4 0 7 1.5t7 2.5q5 1 8.5 3.5t6.5 5.5l5 2.5t5 4.5q3 0 5 3.5t5 6.5l3 14q5 4 5 13l-12 2h-6zM519 260l-102 -74l15 -10h2.5h2.5 q3 0 3.5 -0.5t1.5 0.5h5h5l10 10l40 -22l-2 -15v-5q0 -3 1 -3q0 -1 1 -1v-4q0 -1 2 -1l3 -4l17 -10l17 125zM507 218v-2v-3l-1 -22l-19 10l17 15h2h1v2v1h2q1 1 2 1zM477 255l18 20l-69 59l-20 -21l26 -22l-57 -66l20 -19l60 70zM257 411l83 -10h6q1 0 2 1t3 1l11 8l-45 77 l-23 -14l26 -44l-83 9q-1 0 -4.5 -0.5t-7.5 -3.5l-10 -5l45 -79l22 15zM357 303l22 18l-27 30l14 12l31 -39l20 17l-48 60l-90 -75l51 -58l19 18l-32 37l17 11zM191 741l50 4q1 -2 3.5 -4t4.5 -5q2 -1 3.5 -4t1.5 -6q1 -6 3 -11q0 -4 1 -6.5t1 -4.5q0 -8 -1 -14t-3 -11 q-1 -8 -4.5 -13t-6.5 -10q-7 -8 -19 -12q-11 -8 -23 -8h-17q-4 3 -7.5 4t-7.5 4q-4 1 -6.5 3t-6.5 4q-2 3 -5 6t-5 7q-2 2 -3.5 5.5t-3.5 6.5q-1 5 -2 9.5t-1 9.5v6.5v4.5q3 9 3 14q2 3 3.5 5.5t3.5 5.5q2 2 3.5 5t3.5 5l3 -5q3 0 4 -1l1 -1q2 -3 2 -8v-3t-2 -3 q-5 -5 -5 -11v-13t3 -17q2 -4 4.5 -7t5.5 -6q5 -5 14 -7q7 -4 17 -3q6 0 11 3q3 1 5 1.5t4 3.5q1 2 3.5 3t5.5 4q1 2 2.5 3.5t3.5 4.5q0 4 0.5 6.5t2.5 5.5q1 4 1 10q-1 4 -2 7t-2 8q0 3 -5 10l-19 -1v-5v-5q0 -2 -2 -5q-1 -1 -2 -2.5t-2 -1.5q-2 -1 -6 -1h-6zM264 831 l-9 -75l-118 12l8 75l19 -2l-7 -55l30 -5l5 47l20 -2l-5 -45l32 -3l5 57zM164 851l-17 5l22 90l18 -5l-10 -37l98 -23l-4 -18l-97 23zM205 988l-18 8l42 83l16 -8l-15 -32l89 -45l-8 -18l-90 45zM392 1106l-11 -16l-40 30l-35 -47l41 -30l-11 -15l-97 70l11 15l40 -29l35 47 l-40 30l11 15zM456 1166l-54 -51l-83 86l53 53l14 -15l-39 -39l20 -21l33 31l12 -14l-31 -30l21 -23l40 38zM514 1290l10 -17l-39 -24l24 -43l-14 -10l-63 100l63 40l9 -15l-47 -30l18 -26zM562 1290q0 -7 5 -10q2 -4 10 -7q2 -2 5 -2h5q5 0 10 2q8 3 10 7q5 5 7 10 q1 1 1 10q0 6 -1 11l-27 67l17 8l28 -68q2 -5 2.5 -9t0.5 -9q0 -10 -3 -19q-2 -5 -4.5 -8t-7.5 -7q-3 -5 -6 -6.5t-8 -3.5t-9.5 -3.5t-9.5 -1.5q-8 0 -18 5q-5 2 -8.5 3.5t-6.5 6.5q-7 7 -10 15l-30 67l18 8zM662 1276l-30 117l20 5l23 -97l49 10l3 -20zM731 1291l-12 120 l20 2l10 -98l51 5v-20zM864 1296l-19 4l12 118l44 -5q6 0 14 -4q9 -5 11 -10q4 -3 6 -13q4 -7 3 -15q-3 -3 -3 -6.5t-2 -8.5q-6 -8 -9 -11q-4 -4 -14 -7q-3 -2 -13 -2l-25 4zM895 1356h7q3 0 7 5q3 0 3 5q2 2 4 8q0 5 -1 7t-2 3.5l-1 1.5q-2 3 -3.5 4t-2.5 1q-2 2 -3.5 2 t-2.5 1l-25 2l-5 -38zM951 1285l-19 5l30 113l44 -12q6 0 11 -5l10 -10q4 -5 4 -13q1 -5 0.5 -8.5t-0.5 -6.5q-2 -5 -5 -10q-4 -5 -6 -7q-8 -5 -10 -5q-3 -2 -5.5 -2.5t-3.5 -2.5l21 -56l-15 1q-1 2 -3 3.5t-3 1.5q-4 2 -5 9l-19 46l-15 4zM977 1379l-10 -31l25 -7h3h2 q3 0 4 1t4 1q2 0 2 1.5v1.5q5 5 5 7v7v3t-1 3q-1 2 -2.5 2.5t-1.5 2.5q-3 3 -6 3zM1037 1321q0 5 2.5 8.5t6.5 6.5q1 3 4.5 5.5t6.5 4.5q3 3 6.5 4t8.5 3q4 3 14 3h15q9 -1 16 -6q8 -4 15 -9q3 -3 5.5 -6.5t4.5 -4.5l3.5 -7l3.5 -7q1 -5 2 -8t1 -7v-8t-2 -8q-1 -4 -2 -7.5 t-3 -7.5q-3 -4 -4 -7t-4 -7q-3 -3 -6.5 -5t-4.5 -6q-4 -2 -7 -4t-7 -5q-6 0 -16 -1q-12 0 -17 1q-5 0 -15 5q-12 5 -18 15q-9 9 -14 20q-1 7 -1 12v12q0 11 6 21zM1054 1315q-2 -4 -2.5 -6.5t-2.5 -5.5v-10q0 -2 1 -5t2 -5q0 -7 4 -10q1 -2 3 -4.5t3 -2.5q4 -5 10 -6 q7 -4 10 -4h12h12q4 5 8 5q3 2 5 3.5t3 3.5q3 3 4 5.5t3 4.5q2 3 2.5 7.5t0.5 9.5v7.5v7.5q-2 4 -4.5 7.5t-5.5 5.5q-6 7 -13 10q-2 2 -5 2.5t-7 0.5h-10q-6 0 -10 -1q-3 -2 -5 -3t-5 -1q-1 -2 -3 -4t-3 -4zM1222 1290l10 -9q0 -1 1.5 -3t3.5 -3q0 -5 -2 -9l-28 -85l83 38 q1 1 7 1q5 0 7 -4l10 -7l-117 -54l-15 11zM1279 1064l-47 56l90 76l49 -56l-14 -14l-37 44l-23 -19l29 -36l-16 -11l-28 35l-23 -21l35 -42zM1294 1039l-9 16l101 61l23 -37q2 -3 2.5 -6t2.5 -8q2 -7 -2 -12q-2 -9 -5 -13l-4.5 -4.5t-6.5 -5.5q-4 -1 -5.5 -1.5t-4.5 -2.5 q-4 0 -5.5 -0.5t-4.5 0.5q-4 0 -10 3q-4 1 -5.5 1.5t-3.5 3.5l-23 -59l-9 13q-4 2 -4 7q0 6 3 9l20 47l-8 13zM1381 1089l-29 -16l13 -19q2 -5 4 -6q1 0 6 -3h6q1 0 5 3q1 0 6 3q0 3 1 4t1 3q1 1 1 6q-1 1 -1 2.5t-2 3.5zM1436 969q1 1 1 7q0 4 -1 5q-2 3 -2 7q-3 0 -5 3 q-2 2 -5 2q-3 1 -5 0l-2.5 -2.5l-1.5 -1.5l-2 -2l-2 -2v-7v-10v-3v-2v-10q0 -2 -0.5 -4.5t-0.5 -4.5q-4 -14 -19 -21q-4 -2 -7.5 -3t-8.5 1q-6 0 -14 2q-4 3 -7 5t-5 6q-3 2 -5 5.5t-4 6.5q-3 10 -3 15q0 4 3 14q0 3 2 5l3 4q0 4 2 4q4 2 3 2l4 -2q3 -5 5 -7q0 -1 0.5 -2 t0.5 -3q0 -3 -3 -6v-1v-8q0 -5 2 -8q0 -2 1 -3t2 -4q2 0 3.5 -1.5l3.5 -3.5h2t4 -2h4.5t4.5 2q2 0 5 3q2 4 2 5q1 2 1 7v8v4v12q0 8 2 13q1 2 2 4.5t4 5.5q2 2 4.5 3.5t6.5 3.5q8 3 14 1q6 0 12 -3q3 -2 6.5 -3.5t5.5 -5.5q3 -3 6 -11q2 -7 2 -10q0 -7 -1 -10q0 -4 -4 -10 v-4.5t-2 -3.5l-6 4q-3 1 -4 2.5t-3 3.5q-1 3 -1 6v3zM1364 881l-5 18l113 34l5 -19zM1427 881h19q6 0 14 -5q4 0 7.5 -2.5t4.5 -4.5q4 -3 7 -5.5t6 -5.5q4 -8 7 -12q3 -8 5 -18v-15q-2 -10 -5 -15q-1 -5 -3 -8.5t-4 -6.5l-10 -10q-4 -4 -7.5 -5.5t-6.5 -2.5q-7 -4 -15 -4 q-10 -1 -19 0q-8 0 -15 4q-2 1 -6 2.5t-7 3.5q-3 3 -5.5 6.5t-4.5 5.5q-7 5 -8 15q-2 3 -3.5 6.5t-1.5 8.5q-1 13 1 23q5 13 10 20q7 10 18 17q5 3 11 5.5t11 2.5zM1430 861q-8 0 -10 -3q-5 -2 -10 -5q-4 -2 -6 -7q-5 -5 -5 -10q-2 -1 -2.5 -4t-1.5 -6v-10q2 -8 4 -11 q0 -6 5 -9q1 -3 3 -5t3 -5q2 0 4.5 -1.5t5.5 -3.5q2 -1 4.5 -1h5.5q5 -4 11 0q11 0 16 5q5 1 13 11q6 8 6 15q3 7 1 15q0 7 -2 10q-3 4 -3.5 6t-1.5 4q-3 2 -4.5 3.5l-3.5 3.5q-5 3 -10 5q-3 3 -11 3q-4 3 -11 0zM1377 645l2 16l96 60l-91 5l1 20l117 -10v-11q0 -5 -1 -9 q-4 -2 -4 -5l-81 -50l81 -6l-1 -19z" />
<glyph unicode="8" horiz-adv-x="1672" d="M822 308q82 0 155 30t130 78h-570q58 -48 130 -78t155 -30zM586 463h564q45 55 70 124t25 147q0 80 -26.5 150t-81.5 139zM822 1251q-105 0 -198 -40t-163.5 -109t-112.5 -163.5t-42 -204.5q0 -103 39.5 -196t108 -163.5t163.5 -112.5t205 -42q35 0 70 5.5t68 15.5 q77 23 146 68t120 108.5t80.5 143.5t29.5 173q0 101 -38.5 194t-107 165t-163.5 115t-205 43zM822 260q-100 0 -186 38t-150 103t-99.5 151.5t-35.5 181.5q0 94 35 179.5t98 151t149.5 103.5t188.5 38q67 0 124 -16q71 -19 134.5 -60t111 -100t75 -134t27.5 -162 q0 -98 -37 -184.5t-101.5 -151t-150.5 -101.5t-183 -37zM492 1004q-45 -55 -70.5 -122.5t-25.5 -147.5q0 -83 28 -155.5t78 -130.5l555 556h-565zM822 1161q-83 0 -155.5 -29t-130.5 -81h566q-55 50 -126.5 80t-153.5 30zM972 191l-90 -16l4 -26l34 6l16 -89l26 5l-16 89 l31 6zM1072 156q-1 7 -8 9l-12 5h-15h-6h-9h-2v1q-3 3 -3 4l-2 1q2 0 2 4v1h3h5v4h1h5h3q3 0 3 1h9q0 3 0.5 4l0.5 1l5 10l-6 4q-9 4 -12 4q-2 0 -4.5 1t-4.5 1q-4 0 -6 -1t-4 -1l-13 -8q-2 -1 -4 -3.5t-3 -6.5q-8 -6 -8 -15v-4t3 -7q2 -9 10 -14q1 0 3.5 -1.5t3.5 -3.5 q4 0 7 -1t6 -1h12h10h2q2 0 3 -3q4 0 4 -1h3v-5q0 -2 -1 -3t-1 -2v-1q-1 0 -2 -2.5t-3 -2.5q-1 -3 -5 -3h-2.5h-2.5h-3.5h-2.5h-6h-8l-5 -1v-2t-1 -2l-5 -7q1 -4 3 -6t3 -4q4 -1 7 -2t7 -1q8 -3 11 -2q4 0 8 1t7 1l7 3.5t8 4.5l5.5 5.5t4.5 6.5q0 5 2.5 7.5t2.5 7.5 t-0.5 8.5t-4.5 6.5q0 8 -5 10zM1122 151q-1 4 -3 4t-3.5 0.5t-3.5 0.5q-1 -1 -6 -1l-7 -4q-2 -1 -2 -3v-2q-1 -2 -1 -5v-1q0 -4 1 -4v-1q0 -6 4 -6q1 -5 6 -5h7q5 0 7 2q1 2 3 2.5t2 2.5v2q0 2 1 2l4 3v2q0 6 -5 6zM846 99q-1 0 -1 4q0 1 -1.5 1t-1.5 1q0 4 -1 4l-41 60 q0 1 -3 2q-1 3 -8 3h-9h-14l3 -119l27 1v79l51 -79h25v118h-30zM599 189l48 -18l8 25l-73 25l-41 -105l26 -11l15 41l38 -15l10 25l-38 15zM747 160l-8 11q-3 3 -6.5 5t-7.5 4q-4 1 -7 2t-8 3q-5 1 -9 1h-7q-10 0 -14 -5q-4 0 -7.5 -1t-7.5 -4l-11 -10q-4 -8 -10 -11 q-2 -5 -3.5 -8.5t-1.5 -6.5v-19l3 -15l5 -12l12 -11q3 -4 7 -5.5t6 -3.5q7 -4 15 -4q5 -1 8.5 -1h6.5q5 0 14 2q4 2 8.5 3t6.5 4q6 2 11 10l9 11q4 7 6 17v15q0 3 -0.5 6.5t-2.5 8.5l-3 7.5t-4 6.5zM730 121q0 -3 -1.5 -6.5t-3.5 -5.5l-4.5 -6t-4.5 -4q-4 -1 -6.5 -2 t-5.5 -1q-7 -3 -12 0q-3 0 -6.5 1t-5.5 2l-8 10q-2 2 -2.5 5.5t-0.5 6.5q-3 5 0 14q0 6 5 11l6 9l12 5h12l12 -5l9 -9q2 -3 3.5 -5t1.5 -6q2 -9 0 -14zM1309 460q-2 -2 -3 -4t-1 -6q0 -2 1 -4t3 -5l40 -57l-69 10h-10l-9 -6l-9 -17l97 -65l16 23l-46 32l60 -12l11 20l-33 50 l47 -30l15 24l-98 63zM1296 333l-14 13l-15 3q-3 2 -15 2h-6.5t-8.5 -2l-12 -3q-4 -3 -8.5 -6.5t-6.5 -6.5q-3 -3 -4.5 -6t-3.5 -6q-3 -3 -4 -6.5t-3 -8.5q0 -3 -1.5 -6.5t-1.5 -8.5v-6t3 -9l4 -13l10 -12l13 -10q5 -1 7.5 -3.5t7.5 -2.5t8.5 -2t6.5 -2t6.5 2t8.5 2 q3 0 6.5 2.5t7.5 3.5q6 3 13 10l10 12q1 2 3 5t2 8q1 5 1 15v15l-6 13q-2 4 -5 9zM1282 280q-3 -9 -7 -10q-8 -7 -10 -9q-3 -1 -6.5 -1h-6.5t-6.5 0.5t-4.5 0.5l-11 9q-4 4 -8 11v10v12q4 8 8 12l11 8q3 0 6 0.5t5 0.5q5 0 13 -3q2 -1 4.5 -3t5.5 -5q2 -2 4 -4.5t3 -5.5 q3 -3 3 -12q0 -2 -1.5 -6.5zM1209 220l-7 -4q-2 0 -3.5 -2.5t-1.5 -4.5l-5 -9l-8 -6q-4 -3 -6 -4t-6 -1q-6 -3 -12 0q-3 2 -5.5 2t-5.5 3q-7 4 -7 11q-5 1 -5 11q-5 3 0 14v3.5t2 7.5q2 2 4 3.5t4 3.5q8 3 10 3q3 2 10 2q2 0 10 3q2 4 5 5l2 7v8q-3 5 -12 5h-13l-14 -5 l-11 -5q-2 -2 -5.5 -4.5t-6.5 -6.5q-2 -2 -4 -5.5t-4 -8.5l-7 -15v-15q0 -5 2 -7.5t2 -7.5l6 -15q3 -3 6 -5t4 -5l15 -10l12 -2q5 -3 16 -3q4 0 7 1.5t7 2.5q5 1 8.5 3.5t6.5 5.5l5 2.5t5 4.5q3 0 5 3.5t5 6.5l3 14q5 4 5 13l-12 2h-6zM519 260l-102 -74l15 -10h2.5h2.5 q3 0 3.5 -0.5t1.5 0.5h5h5l10 10l40 -22l-2 -15v-5q0 -3 1 -3q0 -1 1 -1v-4q0 -1 2 -1l3 -4l17 -10l17 125zM507 218v-2v-3l-1 -22l-19 10l17 15h2h1v2v1h2q1 1 2 1zM477 255l18 20l-69 59l-20 -21l26 -22l-57 -66l20 -19l60 70zM257 411l83 -10h6q1 0 2 1t3 1l11 8l-45 77 l-23 -14l26 -44l-83 9q-1 0 -4.5 -0.5t-7.5 -3.5l-10 -5l45 -79l22 15zM357 303l22 18l-27 30l14 12l31 -39l20 17l-48 60l-90 -75l51 -58l19 18l-32 37l17 11zM191 741l50 4q1 -2 3.5 -4t4.5 -5q2 -1 3.5 -4t1.5 -6q1 -6 3 -11q0 -4 1 -6.5t1 -4.5q0 -8 -1 -14t-3 -11 q-1 -8 -4.5 -13t-6.5 -10q-7 -8 -19 -12q-11 -8 -23 -8h-17q-4 3 -7.5 4t-7.5 4q-4 1 -6.5 3t-6.5 4q-2 3 -5 6t-5 7q-2 2 -3.5 5.5t-3.5 6.5q-1 5 -2 9.5t-1 9.5v6.5v4.5q3 9 3 14q2 3 3.5 5.5t3.5 5.5q2 2 3.5 5t3.5 5l3 -5q3 0 4 -1l1 -1q2 -3 2 -8v-3t-2 -3 q-5 -5 -5 -11v-13t3 -17q2 -4 4.5 -7t5.5 -6q5 -5 14 -7q7 -4 17 -3q6 0 11 3q3 1 5 1.5t4 3.5q1 2 3.5 3t5.5 4q1 2 2.5 3.5t3.5 4.5q0 4 0.5 6.5t2.5 5.5q1 4 1 10q-1 4 -2 7t-2 8q0 3 -5 10l-19 -1v-5v-5q0 -2 -2 -5q-1 -1 -2 -2.5t-2 -1.5q-2 -1 -6 -1h-6zM264 831 l-9 -75l-118 12l8 75l19 -2l-7 -55l30 -5l5 47l20 -2l-5 -45l32 -3l5 57zM164 851l-17 5l22 90l18 -5l-10 -37l98 -23l-4 -18l-97 23zM205 988l-18 8l42 83l16 -8l-15 -32l89 -45l-8 -18l-90 45zM392 1106l-11 -16l-40 30l-35 -47l41 -30l-11 -15l-97 70l11 15l40 -29l35 47 l-40 30l11 15zM456 1166l-54 -51l-83 86l53 53l14 -15l-39 -39l20 -21l33 31l12 -14l-31 -30l21 -23l40 38zM514 1290l10 -17l-39 -24l24 -43l-14 -10l-63 100l63 40l9 -15l-47 -30l18 -26zM562 1290q0 -7 5 -10q2 -4 10 -7q2 -2 5 -2h5q5 0 10 2q8 3 10 7q5 5 7 10 q1 1 1 10q0 6 -1 11l-27 67l17 8l28 -68q2 -5 2.5 -9t0.5 -9q0 -10 -3 -19q-2 -5 -4.5 -8t-7.5 -7q-3 -5 -6 -6.5t-8 -3.5t-9.5 -3.5t-9.5 -1.5q-8 0 -18 5q-5 2 -8.5 3.5t-6.5 6.5q-7 7 -10 15l-30 67l18 8zM662 1276l-30 117l20 5l23 -97l49 10l3 -20zM731 1291l-12 120 l20 2l10 -98l51 5v-20zM864 1296l-19 4l12 118l44 -5q6 0 14 -4q9 -5 11 -10q4 -3 6 -13q4 -7 3 -15q-3 -3 -3 -6.5t-2 -8.5q-6 -8 -9 -11q-4 -4 -14 -7q-3 -2 -13 -2l-25 4zM895 1356h7q3 0 7 5q3 0 3 5q2 2 4 8q0 5 -1 7t-2 3.5l-1 1.5q-2 3 -3.5 4t-2.5 1q-2 2 -3.5 2 t-2.5 1l-25 2l-5 -38zM951 1285l-19 5l30 113l44 -12q6 0 11 -5l10 -10q4 -5 4 -13q1 -5 0.5 -8.5t-0.5 -6.5q-2 -5 -5 -10q-4 -5 -6 -7q-8 -5 -10 -5q-3 -2 -5.5 -2.5t-3.5 -2.5l21 -56l-15 1q-1 2 -3 3.5t-3 1.5q-4 2 -5 9l-19 46l-15 4zM977 1379l-10 -31l25 -7h3h2 q3 0 4 1t4 1q2 0 2 1.5v1.5q5 5 5 7v7v3t-1 3q-1 2 -2.5 2.5t-1.5 2.5q-3 3 -6 3zM1037 1321q0 5 2.5 8.5t6.5 6.5q1 3 4.5 5.5t6.5 4.5q3 3 6.5 4t8.5 3q4 3 14 3h15q9 -1 16 -6q8 -4 15 -9q3 -3 5.5 -6.5t4.5 -4.5l3.5 -7l3.5 -7q1 -5 2 -8t1 -7v-8t-2 -8q-1 -4 -2 -7.5 t-3 -7.5q-3 -4 -4 -7t-4 -7q-3 -3 -6.5 -5t-4.5 -6q-4 -2 -7 -4t-7 -5q-6 0 -16 -1q-12 0 -17 1q-5 0 -15 5q-12 5 -18 15q-9 9 -14 20q-1 7 -1 12v12q0 11 6 21zM1054 1315q-2 -4 -2.5 -6.5t-2.5 -5.5v-10q0 -2 1 -5t2 -5q0 -7 4 -10q1 -2 3 -4.5t3 -2.5q4 -5 10 -6 q7 -4 10 -4h12h12q4 5 8 5q3 2 5 3.5t3 3.5q3 3 4 5.5t3 4.5q2 3 2.5 7.5t0.5 9.5v7.5v7.5q-2 4 -4.5 7.5t-5.5 5.5q-6 7 -13 10q-2 2 -5 2.5t-7 0.5h-10q-6 0 -10 -1q-3 -2 -5 -3t-5 -1q-1 -2 -3 -4t-3 -4zM1222 1290l10 -9q0 -1 1.5 -3t3.5 -3q0 -5 -2 -9l-28 -85l83 38 q1 1 7 1q5 0 7 -4l10 -7l-117 -54l-15 11zM1279 1064l-47 56l90 76l49 -56l-14 -14l-37 44l-23 -19l29 -36l-16 -11l-28 35l-23 -21l35 -42zM1294 1039l-9 16l101 61l23 -37q2 -3 2.5 -6t2.5 -8q2 -7 -2 -12q-2 -9 -5 -13l-4.5 -4.5t-6.5 -5.5q-4 -1 -5.5 -1.5t-4.5 -2.5 q-4 0 -5.5 -0.5t-4.5 0.5q-4 0 -10 3q-4 1 -5.5 1.5t-3.5 3.5l-23 -59l-9 13q-4 2 -4 7q0 6 3 9l20 47l-8 13zM1381 1089l-29 -16l13 -19q2 -5 4 -6q1 0 6 -3h6q1 0 5 3q1 0 6 3q0 3 1 4t1 3q1 1 1 6q-1 1 -1 2.5t-2 3.5zM1436 969q1 1 1 7q0 4 -1 5q-2 3 -2 7q-3 0 -5 3 q-2 2 -5 2q-3 1 -5 0l-2.5 -2.5l-1.5 -1.5l-2 -2l-2 -2v-7v-10v-3v-2v-10q0 -2 -0.5 -4.5t-0.5 -4.5q-4 -14 -19 -21q-4 -2 -7.5 -3t-8.5 1q-6 0 -14 2q-4 3 -7 5t-5 6q-3 2 -5 5.5t-4 6.5q-3 10 -3 15q0 4 3 14q0 3 2 5l3 4q0 4 2 4q4 2 3 2l4 -2q3 -5 5 -7q0 -1 0.5 -2 t0.5 -3q0 -3 -3 -6v-1v-8q0 -5 2 -8q0 -2 1 -3t2 -4q2 0 3.5 -1.5l3.5 -3.5h2t4 -2h4.5t4.5 2q2 0 5 3q2 4 2 5q1 2 1 7v8v4v12q0 8 2 13q1 2 2 4.5t4 5.5q2 2 4.5 3.5t6.5 3.5q8 3 14 1q6 0 12 -3q3 -2 6.5 -3.5t5.5 -5.5q3 -3 6 -11q2 -7 2 -10q0 -7 -1 -10q0 -4 -4 -10 v-4.5t-2 -3.5l-6 4q-3 1 -4 2.5t-3 3.5q-1 3 -1 6v3zM1364 881l-5 18l113 34l5 -19zM1427 881h19q6 0 14 -5q4 0 7.5 -2.5t4.5 -4.5q4 -3 7 -5.5t6 -5.5q4 -8 7 -12q3 -8 5 -18v-15q-2 -10 -5 -15q-1 -5 -3 -8.5t-4 -6.5l-10 -10q-4 -4 -7.5 -5.5t-6.5 -2.5q-7 -4 -15 -4 q-10 -1 -19 0q-8 0 -15 4q-2 1 -6 2.5t-7 3.5q-3 3 -5.5 6.5t-4.5 5.5q-7 5 -8 15q-2 3 -3.5 6.5t-1.5 8.5q-1 13 1 23q5 13 10 20q7 10 18 17q5 3 11 5.5t11 2.5zM1430 861q-8 0 -10 -3q-5 -2 -10 -5q-4 -2 -6 -7q-5 -5 -5 -10q-2 -1 -2.5 -4t-1.5 -6v-10q2 -8 4 -11 q0 -6 5 -9q1 -3 3 -5t3 -5q2 0 4.5 -1.5t5.5 -3.5q2 -1 4.5 -1h5.5q5 -4 11 0q11 0 16 5q5 1 13 11q6 8 6 15q3 7 1 15q0 7 -2 10q-3 4 -3.5 6t-1.5 4q-3 2 -4.5 3.5l-3.5 3.5q-5 3 -10 5q-3 3 -11 3q-4 3 -11 0zM1377 645l2 16l96 60l-91 5l1 20l117 -10v-11q0 -5 -1 -9 q-4 -2 -4 -5l-81 -50l81 -6l-1 -19z" />
<glyph unicode="9" horiz-adv-x="1672" d="M822 308q82 0 155 30t130 78h-570q58 -48 130 -78t155 -30zM586 463h564q45 55 70 124t25 147q0 80 -26.5 150t-81.5 139zM822 1251q-105 0 -198 -40t-163.5 -109t-112.5 -163.5t-42 -204.5q0 -103 39.5 -196t108 -163.5t163.5 -112.5t205 -42q35 0 70 5.5t68 15.5 q77 23 146 68t120 108.5t80.5 143.5t29.5 173q0 101 -38.5 194t-107 165t-163.5 115t-205 43zM822 260q-100 0 -186 38t-150 103t-99.5 151.5t-35.5 181.5q0 94 35 179.5t98 151t149.5 103.5t188.5 38q67 0 124 -16q71 -19 134.5 -60t111 -100t75 -134t27.5 -162 q0 -98 -37 -184.5t-101.5 -151t-150.5 -101.5t-183 -37zM492 1004q-45 -55 -70.5 -122.5t-25.5 -147.5q0 -83 28 -155.5t78 -130.5l555 556h-565zM822 1161q-83 0 -155.5 -29t-130.5 -81h566q-55 50 -126.5 80t-153.5 30zM972 191l-90 -16l4 -26l34 6l16 -89l26 5l-16 89 l31 6zM1072 156q-1 7 -8 9l-12 5h-15h-6h-9h-2v1q-3 3 -3 4l-2 1q2 0 2 4v1h3h5v4h1h5h3q3 0 3 1h9q0 3 0.5 4l0.5 1l5 10l-6 4q-9 4 -12 4q-2 0 -4.5 1t-4.5 1q-4 0 -6 -1t-4 -1l-13 -8q-2 -1 -4 -3.5t-3 -6.5q-8 -6 -8 -15v-4t3 -7q2 -9 10 -14q1 0 3.5 -1.5t3.5 -3.5 q4 0 7 -1t6 -1h12h10h2q2 0 3 -3q4 0 4 -1h3v-5q0 -2 -1 -3t-1 -2v-1q-1 0 -2 -2.5t-3 -2.5q-1 -3 -5 -3h-2.5h-2.5h-3.5h-2.5h-6h-8l-5 -1v-2t-1 -2l-5 -7q1 -4 3 -6t3 -4q4 -1 7 -2t7 -1q8 -3 11 -2q4 0 8 1t7 1l7 3.5t8 4.5l5.5 5.5t4.5 6.5q0 5 2.5 7.5t2.5 7.5 t-0.5 8.5t-4.5 6.5q0 8 -5 10zM1122 151q-1 4 -3 4t-3.5 0.5t-3.5 0.5q-1 -1 -6 -1l-7 -4q-2 -1 -2 -3v-2q-1 -2 -1 -5v-1q0 -4 1 -4v-1q0 -6 4 -6q1 -5 6 -5h7q5 0 7 2q1 2 3 2.5t2 2.5v2q0 2 1 2l4 3v2q0 6 -5 6zM846 99q-1 0 -1 4q0 1 -1.5 1t-1.5 1q0 4 -1 4l-41 60 q0 1 -3 2q-1 3 -8 3h-9h-14l3 -119l27 1v79l51 -79h25v118h-30zM599 189l48 -18l8 25l-73 25l-41 -105l26 -11l15 41l38 -15l10 25l-38 15zM747 160l-8 11q-3 3 -6.5 5t-7.5 4q-4 1 -7 2t-8 3q-5 1 -9 1h-7q-10 0 -14 -5q-4 0 -7.5 -1t-7.5 -4l-11 -10q-4 -8 -10 -11 q-2 -5 -3.5 -8.5t-1.5 -6.5v-19l3 -15l5 -12l12 -11q3 -4 7 -5.5t6 -3.5q7 -4 15 -4q5 -1 8.5 -1h6.5q5 0 14 2q4 2 8.5 3t6.5 4q6 2 11 10l9 11q4 7 6 17v15q0 3 -0.5 6.5t-2.5 8.5l-3 7.5t-4 6.5zM730 121q0 -3 -1.5 -6.5t-3.5 -5.5l-4.5 -6t-4.5 -4q-4 -1 -6.5 -2 t-5.5 -1q-7 -3 -12 0q-3 0 -6.5 1t-5.5 2l-8 10q-2 2 -2.5 5.5t-0.5 6.5q-3 5 0 14q0 6 5 11l6 9l12 5h12l12 -5l9 -9q2 -3 3.5 -5t1.5 -6q2 -9 0 -14zM1309 460q-2 -2 -3 -4t-1 -6q0 -2 1 -4t3 -5l40 -57l-69 10h-10l-9 -6l-9 -17l97 -65l16 23l-46 32l60 -12l11 20l-33 50 l47 -30l15 24l-98 63zM1296 333l-14 13l-15 3q-3 2 -15 2h-6.5t-8.5 -2l-12 -3q-4 -3 -8.5 -6.5t-6.5 -6.5q-3 -3 -4.5 -6t-3.5 -6q-3 -3 -4 -6.5t-3 -8.5q0 -3 -1.5 -6.5t-1.5 -8.5v-6t3 -9l4 -13l10 -12l13 -10q5 -1 7.5 -3.5t7.5 -2.5t8.5 -2t6.5 -2t6.5 2t8.5 2 q3 0 6.5 2.5t7.5 3.5q6 3 13 10l10 12q1 2 3 5t2 8q1 5 1 15v15l-6 13q-2 4 -5 9zM1282 280q-3 -9 -7 -10q-8 -7 -10 -9q-3 -1 -6.5 -1h-6.5t-6.5 0.5t-4.5 0.5l-11 9q-4 4 -8 11v10v12q4 8 8 12l11 8q3 0 6 0.5t5 0.5q5 0 13 -3q2 -1 4.5 -3t5.5 -5q2 -2 4 -4.5t3 -5.5 q3 -3 3 -12q0 -2 -1.5 -6.5zM1209 220l-7 -4q-2 0 -3.5 -2.5t-1.5 -4.5l-5 -9l-8 -6q-4 -3 -6 -4t-6 -1q-6 -3 -12 0q-3 2 -5.5 2t-5.5 3q-7 4 -7 11q-5 1 -5 11q-5 3 0 14v3.5t2 7.5q2 2 4 3.5t4 3.5q8 3 10 3q3 2 10 2q2 0 10 3q2 4 5 5l2 7v8q-3 5 -12 5h-13l-14 -5 l-11 -5q-2 -2 -5.5 -4.5t-6.5 -6.5q-2 -2 -4 -5.5t-4 -8.5l-7 -15v-15q0 -5 2 -7.5t2 -7.5l6 -15q3 -3 6 -5t4 -5l15 -10l12 -2q5 -3 16 -3q4 0 7 1.5t7 2.5q5 1 8.5 3.5t6.5 5.5l5 2.5t5 4.5q3 0 5 3.5t5 6.5l3 14q5 4 5 13l-12 2h-6zM519 260l-102 -74l15 -10h2.5h2.5 q3 0 3.5 -0.5t1.5 0.5h5h5l10 10l40 -22l-2 -15v-5q0 -3 1 -3q0 -1 1 -1v-4q0 -1 2 -1l3 -4l17 -10l17 125zM507 218v-2v-3l-1 -22l-19 10l17 15h2h1v2v1h2q1 1 2 1zM477 255l18 20l-69 59l-20 -21l26 -22l-57 -66l20 -19l60 70zM257 411l83 -10h6q1 0 2 1t3 1l11 8l-45 77 l-23 -14l26 -44l-83 9q-1 0 -4.5 -0.5t-7.5 -3.5l-10 -5l45 -79l22 15zM357 303l22 18l-27 30l14 12l31 -39l20 17l-48 60l-90 -75l51 -58l19 18l-32 37l17 11zM191 741l50 4q1 -2 3.5 -4t4.5 -5q2 -1 3.5 -4t1.5 -6q1 -6 3 -11q0 -4 1 -6.5t1 -4.5q0 -8 -1 -14t-3 -11 q-1 -8 -4.5 -13t-6.5 -10q-7 -8 -19 -12q-11 -8 -23 -8h-17q-4 3 -7.5 4t-7.5 4q-4 1 -6.5 3t-6.5 4q-2 3 -5 6t-5 7q-2 2 -3.5 5.5t-3.5 6.5q-1 5 -2 9.5t-1 9.5v6.5v4.5q3 9 3 14q2 3 3.5 5.5t3.5 5.5q2 2 3.5 5t3.5 5l3 -5q3 0 4 -1l1 -1q2 -3 2 -8v-3t-2 -3 q-5 -5 -5 -11v-13t3 -17q2 -4 4.5 -7t5.5 -6q5 -5 14 -7q7 -4 17 -3q6 0 11 3q3 1 5 1.5t4 3.5q1 2 3.5 3t5.5 4q1 2 2.5 3.5t3.5 4.5q0 4 0.5 6.5t2.5 5.5q1 4 1 10q-1 4 -2 7t-2 8q0 3 -5 10l-19 -1v-5v-5q0 -2 -2 -5q-1 -1 -2 -2.5t-2 -1.5q-2 -1 -6 -1h-6zM264 831 l-9 -75l-118 12l8 75l19 -2l-7 -55l30 -5l5 47l20 -2l-5 -45l32 -3l5 57zM164 851l-17 5l22 90l18 -5l-10 -37l98 -23l-4 -18l-97 23zM205 988l-18 8l42 83l16 -8l-15 -32l89 -45l-8 -18l-90 45zM392 1106l-11 -16l-40 30l-35 -47l41 -30l-11 -15l-97 70l11 15l40 -29l35 47 l-40 30l11 15zM456 1166l-54 -51l-83 86l53 53l14 -15l-39 -39l20 -21l33 31l12 -14l-31 -30l21 -23l40 38zM514 1290l10 -17l-39 -24l24 -43l-14 -10l-63 100l63 40l9 -15l-47 -30l18 -26zM562 1290q0 -7 5 -10q2 -4 10 -7q2 -2 5 -2h5q5 0 10 2q8 3 10 7q5 5 7 10 q1 1 1 10q0 6 -1 11l-27 67l17 8l28 -68q2 -5 2.5 -9t0.5 -9q0 -10 -3 -19q-2 -5 -4.5 -8t-7.5 -7q-3 -5 -6 -6.5t-8 -3.5t-9.5 -3.5t-9.5 -1.5q-8 0 -18 5q-5 2 -8.5 3.5t-6.5 6.5q-7 7 -10 15l-30 67l18 8zM662 1276l-30 117l20 5l23 -97l49 10l3 -20zM731 1291l-12 120 l20 2l10 -98l51 5v-20zM864 1296l-19 4l12 118l44 -5q6 0 14 -4q9 -5 11 -10q4 -3 6 -13q4 -7 3 -15q-3 -3 -3 -6.5t-2 -8.5q-6 -8 -9 -11q-4 -4 -14 -7q-3 -2 -13 -2l-25 4zM895 1356h7q3 0 7 5q3 0 3 5q2 2 4 8q0 5 -1 7t-2 3.5l-1 1.5q-2 3 -3.5 4t-2.5 1q-2 2 -3.5 2 t-2.5 1l-25 2l-5 -38zM951 1285l-19 5l30 113l44 -12q6 0 11 -5l10 -10q4 -5 4 -13q1 -5 0.5 -8.5t-0.5 -6.5q-2 -5 -5 -10q-4 -5 -6 -7q-8 -5 -10 -5q-3 -2 -5.5 -2.5t-3.5 -2.5l21 -56l-15 1q-1 2 -3 3.5t-3 1.5q-4 2 -5 9l-19 46l-15 4zM977 1379l-10 -31l25 -7h3h2 q3 0 4 1t4 1q2 0 2 1.5v1.5q5 5 5 7v7v3t-1 3q-1 2 -2.5 2.5t-1.5 2.5q-3 3 -6 3zM1037 1321q0 5 2.5 8.5t6.5 6.5q1 3 4.5 5.5t6.5 4.5q3 3 6.5 4t8.5 3q4 3 14 3h15q9 -1 16 -6q8 -4 15 -9q3 -3 5.5 -6.5t4.5 -4.5l3.5 -7l3.5 -7q1 -5 2 -8t1 -7v-8t-2 -8q-1 -4 -2 -7.5 t-3 -7.5q-3 -4 -4 -7t-4 -7q-3 -3 -6.5 -5t-4.5 -6q-4 -2 -7 -4t-7 -5q-6 0 -16 -1q-12 0 -17 1q-5 0 -15 5q-12 5 -18 15q-9 9 -14 20q-1 7 -1 12v12q0 11 6 21zM1054 1315q-2 -4 -2.5 -6.5t-2.5 -5.5v-10q0 -2 1 -5t2 -5q0 -7 4 -10q1 -2 3 -4.5t3 -2.5q4 -5 10 -6 q7 -4 10 -4h12h12q4 5 8 5q3 2 5 3.5t3 3.5q3 3 4 5.5t3 4.5q2 3 2.5 7.5t0.5 9.5v7.5v7.5q-2 4 -4.5 7.5t-5.5 5.5q-6 7 -13 10q-2 2 -5 2.5t-7 0.5h-10q-6 0 -10 -1q-3 -2 -5 -3t-5 -1q-1 -2 -3 -4t-3 -4zM1222 1290l10 -9q0 -1 1.5 -3t3.5 -3q0 -5 -2 -9l-28 -85l83 38 q1 1 7 1q5 0 7 -4l10 -7l-117 -54l-15 11zM1279 1064l-47 56l90 76l49 -56l-14 -14l-37 44l-23 -19l29 -36l-16 -11l-28 35l-23 -21l35 -42zM1294 1039l-9 16l101 61l23 -37q2 -3 2.5 -6t2.5 -8q2 -7 -2 -12q-2 -9 -5 -13l-4.5 -4.5t-6.5 -5.5q-4 -1 -5.5 -1.5t-4.5 -2.5 q-4 0 -5.5 -0.5t-4.5 0.5q-4 0 -10 3q-4 1 -5.5 1.5t-3.5 3.5l-23 -59l-9 13q-4 2 -4 7q0 6 3 9l20 47l-8 13zM1381 1089l-29 -16l13 -19q2 -5 4 -6q1 0 6 -3h6q1 0 5 3q1 0 6 3q0 3 1 4t1 3q1 1 1 6q-1 1 -1 2.5t-2 3.5zM1436 969q1 1 1 7q0 4 -1 5q-2 3 -2 7q-3 0 -5 3 q-2 2 -5 2q-3 1 -5 0l-2.5 -2.5l-1.5 -1.5l-2 -2l-2 -2v-7v-10v-3v-2v-10q0 -2 -0.5 -4.5t-0.5 -4.5q-4 -14 -19 -21q-4 -2 -7.5 -3t-8.5 1q-6 0 -14 2q-4 3 -7 5t-5 6q-3 2 -5 5.5t-4 6.5q-3 10 -3 15q0 4 3 14q0 3 2 5l3 4q0 4 2 4q4 2 3 2l4 -2q3 -5 5 -7q0 -1 0.5 -2 t0.5 -3q0 -3 -3 -6v-1v-8q0 -5 2 -8q0 -2 1 -3t2 -4q2 0 3.5 -1.5l3.5 -3.5h2t4 -2h4.5t4.5 2q2 0 5 3q2 4 2 5q1 2 1 7v8v4v12q0 8 2 13q1 2 2 4.5t4 5.5q2 2 4.5 3.5t6.5 3.5q8 3 14 1q6 0 12 -3q3 -2 6.5 -3.5t5.5 -5.5q3 -3 6 -11q2 -7 2 -10q0 -7 -1 -10q0 -4 -4 -10 v-4.5t-2 -3.5l-6 4q-3 1 -4 2.5t-3 3.5q-1 3 -1 6v3zM1364 881l-5 18l113 34l5 -19zM1427 881h19q6 0 14 -5q4 0 7.5 -2.5t4.5 -4.5q4 -3 7 -5.5t6 -5.5q4 -8 7 -12q3 -8 5 -18v-15q-2 -10 -5 -15q-1 -5 -3 -8.5t-4 -6.5l-10 -10q-4 -4 -7.5 -5.5t-6.5 -2.5q-7 -4 -15 -4 q-10 -1 -19 0q-8 0 -15 4q-2 1 -6 2.5t-7 3.5q-3 3 -5.5 6.5t-4.5 5.5q-7 5 -8 15q-2 3 -3.5 6.5t-1.5 8.5q-1 13 1 23q5 13 10 20q7 10 18 17q5 3 11 5.5t11 2.5zM1430 861q-8 0 -10 -3q-5 -2 -10 -5q-4 -2 -6 -7q-5 -5 -5 -10q-2 -1 -2.5 -4t-1.5 -6v-10q2 -8 4 -11 q0 -6 5 -9q1 -3 3 -5t3 -5q2 0 4.5 -1.5t5.5 -3.5q2 -1 4.5 -1h5.5q5 -4 11 0q11 0 16 5q5 1 13 11q6 8 6 15q3 7 1 15q0 7 -2 10q-3 4 -3.5 6t-1.5 4q-3 2 -4.5 3.5l-3.5 3.5q-5 3 -10 5q-3 3 -11 3q-4 3 -11 0zM1377 645l2 16l96 60l-91 5l1 20l117 -10v-11q0 -5 -1 -9 q-4 -2 -4 -5l-81 -50l81 -6l-1 -19z" />
<glyph unicode=":" horiz-adv-x="497" d="M120 94q0 26 10 49t27 40t39.5 27t48.5 10q27 0 50 -10t40 -27t26.5 -40t9.5 -49t-9.5 -48.5t-26.5 -39.5t-40 -27t-50 -10q-26 0 -48.5 10t-39.5 27t-27 39.5t-10 48.5zM120 874q0 26 10 49t27 40t39.5 27t48.5 10q27 0 50 -10t40 -27t26.5 -40t9.5 -49t-9.5 -48.5 t-26.5 -39.5t-40 -27t-50 -10q-26 0 -48.5 10t-39.5 27t-27 39.5t-10 48.5z" />
<glyph unicode=";" horiz-adv-x="497" d="M116 90q0 28 10.5 52.5t28.5 42.5t42.5 28t51.5 10q29 0 53.5 -10.5t42.5 -29t28 -45t10 -59.5q0 -70 -14 -122t-33.5 -86.5t-40 -51.5t-33.5 -17q-8 0 -12.5 1.5t-10.5 6.5l-31 24q-7 6 -11 14.5t-4 15.5q0 10 4.5 17.5t10.5 15.5l1 2v-1q8 8 14.5 20t6.5 32v7 q-23 4 -43.5 16t-36.5 30t-25 40.5t-9 46.5zM120 874q0 26 10 49t27 40t39.5 27t48.5 10q27 0 50 -10t40 -27t26.5 -40t9.5 -49t-9.5 -48.5t-26.5 -39.5t-40 -27t-50 -10q-26 0 -48.5 10t-39.5 27t-27 39.5t-10 48.5z" />
<glyph unicode="&#x3c;" horiz-adv-x="876" d="M590 1046q5 5 14 12t18 7q11 0 17.5 -6t13.5 -13l57 -59q6 -7 12.5 -14t6.5 -18q0 -12 -3.5 -17.5t-11.5 -13.5l-374 -373l374 -372q8 -8 11.5 -13.5t3.5 -17.5q0 -11 -6.5 -18t-12.5 -14l-57 -59q-7 -7 -13.5 -13t-17.5 -6q-9 0 -18 7t-14 12l-468 467q-4 4 -9 11.5 t-5 16.5q0 8 5 15t9 12z" />
<glyph unicode="=" horiz-adv-x="1034" d="M835 778q18 0 31 -11t13 -33v-83q0 -18 -12 -32t-32 -14h-641q-47 0 -47 46v83q0 44 47 44h641zM835 487q18 0 31 -11t13 -33v-83q0 -18 -12 -32t-32 -14h-641q-47 0 -47 46v83q0 44 47 44h641z" />
<glyph unicode="&#x3e;" horiz-adv-x="838" d="M758 579q4 -5 9 -12t5 -15q0 -9 -5 -16.5t-9 -11.5l-468 -467q-5 -5 -14 -12t-18 -7q-11 0 -17.5 6t-13.5 13l-57 59q-6 7 -12.5 14t-6.5 18q0 12 3.5 17.5t11.5 13.5l374 372l-374 373q-8 8 -11.5 13.5t-3.5 17.5q0 11 6.5 18t12.5 14l57 59q7 7 13.5 13t17.5 6 q9 0 18 -7t14 -12z" />
<glyph unicode="?" horiz-adv-x="1137" d="M641 379q0 -17 -10 -26.5t-23 -9.5h-108q-16 0 -25 11t-9 25v164q0 52 17.5 93t46 74.5t65 62t74.5 55.5q40 28 78 57.5t67.5 64t47.5 77t18 97.5q0 65 -25 119t-68.5 93t-101.5 60.5t-125 21.5q-51 0 -106.5 -17.5t-102 -54t-76.5 -92.5t-30 -133v-24q0 -17 -10 -25.5 t-23 -8.5h-106q-17 0 -25.5 11t-8.5 22v15q0 111 40.5 198t108 147t156 91.5t185.5 31.5q102 0 191 -32t155.5 -89.5t104.5 -138t38 -176.5q0 -83 -24 -147.5t-61 -115t-81.5 -88t-86.5 -66.5q-31 -22 -59.5 -44t-50 -46t-34.5 -51.5t-13 -60.5v-145zM434 94q0 26 10 49 t27 40t39.5 27t48.5 10q27 0 50 -10t40 -27t26.5 -40t9.5 -49t-9.5 -48.5t-26.5 -39.5t-40 -27t-50 -10q-26 0 -48.5 10t-39.5 27t-27 39.5t-10 48.5z" />
<glyph unicode="@" horiz-adv-x="1212" d="M804 -197q82 0 155 30t130 78h-570q58 -48 130 -78t155 -30zM568 -42h564q45 55 70 124t25 147q0 80 -26.5 150t-81.5 139zM804 746q-105 0 -198 -40t-163.5 -109t-112.5 -163.5t-42 -204.5q0 -103 39.5 -196t108 -163.5t163.5 -112.5t205 -42q35 0 70 5.5t68 15.5 q77 23 146 68t120 108.5t80.5 143.5t29.5 173q0 101 -38.5 194t-107 165t-163.5 115t-205 43zM804 -245q-100 0 -186 38t-150 103t-99.5 151.5t-35.5 181.5q0 94 35 179.5t98 151t149.5 103.5t188.5 38q67 0 124 -16q71 -19 134.5 -60t111 -100t75 -134t27.5 -162 q0 -98 -37 -184.5t-101.5 -151t-150.5 -101.5t-183 -37zM474 499q-45 -55 -70.5 -122.5t-25.5 -147.5q0 -83 28 -155.5t78 -130.5l555 556h-565zM804 656q-83 0 -155.5 -29t-130.5 -81h566q-55 50 -126.5 80t-153.5 30zM954 -314l-90 -16l4 -26l34 6l16 -89l26 5l-16 89 l31 6zM1054 -349q-1 7 -8 9l-12 5h-15h-6h-9h-2v1q-3 3 -3 4l-2 1q2 0 2 4v1h3h5v4h1h5h3q3 0 3 1h9q0 3 0.5 4l0.5 1l5 10l-6 4q-9 4 -12 4q-2 0 -4.5 1t-4.5 1q-4 0 -6 -1t-4 -1l-13 -8q-2 -1 -4 -3.5t-3 -6.5q-8 -6 -8 -15v-4t3 -7q2 -9 10 -14q1 0 3.5 -1.5t3.5 -3.5 q4 0 7 -1t6 -1h12h10h2q2 0 3 -3q4 0 4 -1h3v-5q0 -2 -1 -3t-1 -2v-1q-1 0 -2 -2.5t-3 -2.5q-1 -3 -5 -3h-2.5h-2.5h-3.5h-2.5h-6h-8l-5 -1v-2t-1 -2l-5 -7q1 -4 3 -6t3 -4q4 -1 7 -2t7 -1q8 -3 11 -2q4 0 8 1t7 1l7 3.5t8 4.5l5.5 5.5t4.5 6.5q0 5 2.5 7.5t2.5 7.5 t-0.5 8.5t-4.5 6.5q0 8 -5 10zM1104 -354q-1 4 -3 4t-3.5 0.5t-3.5 0.5q-1 -1 -6 -1l-7 -4q-2 -1 -2 -3v-2q-1 -2 -1 -5v-1q0 -4 1 -4v-1q0 -6 4 -6q1 -5 6 -5h7q5 0 7 2q1 2 3 2.5t2 2.5v2q0 2 1 2l4 3v2q0 6 -5 6zM828 -406q-1 0 -1 4q0 1 -1.5 1t-1.5 1q0 4 -1 4l-41 60 q0 1 -3 2q-1 3 -8 3h-9h-14l3 -119l27 1v79l51 -79h25v118h-30zM581 -316l48 -18l8 25l-73 25l-41 -105l26 -11l15 41l38 -15l10 25l-38 15zM729 -345l-8 11q-3 3 -6.5 5t-7.5 4q-4 1 -7 2t-8 3q-5 1 -9 1h-7q-10 0 -14 -5q-4 0 -7.5 -1t-7.5 -4l-11 -10q-4 -8 -10 -11 q-2 -5 -3.5 -8.5t-1.5 -6.5v-19l3 -15l5 -12l12 -11q3 -4 7 -5.5t6 -3.5q7 -4 15 -4q5 -1 8.5 -1h6.5q5 0 14 2q4 2 8.5 3t6.5 4q6 2 11 10l9 11q4 7 6 17v15q0 3 -0.5 6.5t-2.5 8.5l-3 7.5t-4 6.5zM712 -384q0 -3 -1.5 -6.5t-3.5 -5.5l-4.5 -6t-4.5 -4q-4 -1 -6.5 -2 t-5.5 -1q-7 -3 -12 0q-3 0 -6.5 1t-5.5 2l-8 10q-2 2 -2.5 5.5t-0.5 6.5q-3 5 0 14q0 6 5 11l6 9l12 5h12l12 -5l9 -9q2 -3 3.5 -5t1.5 -6q2 -9 0 -14zM1291 -45q-2 -2 -3 -4t-1 -6q0 -2 1 -4t3 -5l40 -57l-69 10h-10l-9 -6l-9 -17l97 -65l16 23l-46 32l60 -12l11 20l-33 50 l47 -30l15 24l-98 63zM1278 -172l-14 13l-15 3q-3 2 -15 2h-6.5t-8.5 -2l-12 -3q-4 -3 -8.5 -6.5t-6.5 -6.5q-3 -3 -4.5 -6t-3.5 -6q-3 -3 -4 -6.5t-3 -8.5q0 -3 -1.5 -6.5t-1.5 -8.5v-6t3 -9l4 -13l10 -12l13 -10q5 -1 7.5 -3.5t7.5 -2.5t8.5 -2t6.5 -2t6.5 2t8.5 2 q3 0 6.5 2.5t7.5 3.5q6 3 13 10l10 12q1 2 3 5t2 8q1 5 1 15v15l-6 13q-2 4 -5 9zM1264 -225q-3 -9 -7 -10q-8 -7 -10 -9q-3 -1 -6.5 -1h-6.5t-6.5 0.5t-4.5 0.5l-11 9q-4 4 -8 11v10v12q4 8 8 12l11 8q3 0 6 0.5t5 0.5q5 0 13 -3q2 -1 4.5 -3t5.5 -5q2 -2 4 -4.5t3 -5.5 q3 -3 3 -12q0 -2 -1.5 -6.5zM1191 -285l-7 -4q-2 0 -3.5 -2.5t-1.5 -4.5l-5 -9l-8 -6q-4 -3 -6 -4t-6 -1q-6 -3 -12 0q-3 2 -5.5 2t-5.5 3q-7 4 -7 11q-5 1 -5 11q-5 3 0 14v3.5t2 7.5q2 2 4 3.5t4 3.5q8 3 10 3q3 2 10 2q2 0 10 3q2 4 5 5l2 7v8q-3 5 -12 5h-13l-14 -5 l-11 -5q-2 -2 -5.5 -4.5t-6.5 -6.5q-2 -2 -4 -5.5t-4 -8.5l-7 -15v-15q0 -5 2 -7.5t2 -7.5l6 -15q3 -3 6 -5t4 -5l15 -10l12 -2q5 -3 16 -3q4 0 7 1.5t7 2.5q5 1 8.5 3.5t6.5 5.5l5 2.5t5 4.5q3 0 5 3.5t5 6.5l3 14q5 4 5 13l-12 2h-6zM501 -245l-102 -74l15 -10h2.5h2.5 q3 0 3.5 -0.5t1.5 0.5h5h5l10 10l40 -22l-2 -15v-5q0 -3 1 -3q0 -1 1 -1v-4q0 -1 2 -1l3 -4l17 -10l17 125zM489 -287v-2v-3l-1 -22l-19 10l17 15h2h1v2v1h2q1 1 2 1zM459 -250l18 20l-69 59l-20 -21l26 -22l-57 -66l20 -19l60 70zM239 -94l83 -10h6q1 0 2 1t3 1l11 8 l-45 77l-23 -14l26 -44l-83 9q-1 0 -4.5 -0.5t-7.5 -3.5l-10 -5l45 -79l22 15zM339 -202l22 18l-27 30l14 12l31 -39l20 17l-48 60l-90 -75l51 -58l19 18l-32 37l17 11zM173 236l50 4q1 -2 3.5 -4t4.5 -5q2 -1 3.5 -4t1.5 -6q1 -6 3 -11q0 -4 1 -6.5t1 -4.5q0 -8 -1 -14 t-3 -11q-1 -8 -4.5 -13t-6.5 -10q-7 -8 -19 -12q-11 -8 -23 -8h-17q-4 3 -7.5 4t-7.5 4q-4 1 -6.5 3t-6.5 4q-2 3 -5 6t-5 7q-2 2 -3.5 5.5t-3.5 6.5q-1 5 -2 9.5t-1 9.5v6.5v4.5q3 9 3 14q2 3 3.5 5.5t3.5 5.5q2 2 3.5 5t3.5 5l3 -5q3 0 4 -1l1 -1q2 -3 2 -8v-3t-2 -3 q-5 -5 -5 -11v-13t3 -17q2 -4 4.5 -7t5.5 -6q5 -5 14 -7q7 -4 17 -3q6 0 11 3q3 1 5 1.5t4 3.5q1 2 3.5 3t5.5 4q1 2 2.5 3.5t3.5 4.5q0 4 0.5 6.5t2.5 5.5q1 4 1 10q-1 4 -2 7t-2 8q0 3 -5 10l-19 -1v-5v-5q0 -2 -2 -5q-1 -1 -2 -2.5t-2 -1.5q-2 -1 -6 -1h-6zM246 326 l-9 -75l-118 12l8 75l19 -2l-7 -55l30 -5l5 47l20 -2l-5 -45l32 -3l5 57zM146 346l-17 5l22 90l18 -5l-10 -37l98 -23l-4 -18l-97 23zM187 483l-18 8l42 83l16 -8l-15 -32l89 -45l-8 -18l-90 45zM374 601l-11 -16l-40 30l-35 -47l41 -30l-11 -15l-97 70l11 15l40 -29l35 47 l-40 30l11 15zM438 661l-54 -51l-83 86l53 53l14 -15l-39 -39l20 -21l33 31l12 -14l-31 -30l21 -23l40 38zM496 785l10 -17l-39 -24l24 -43l-14 -10l-63 100l63 40l9 -15l-47 -30l18 -26zM544 785q0 -7 5 -10q2 -4 10 -7q2 -2 5 -2h5q5 0 10 2q8 3 10 7q5 5 7 10q1 1 1 10 q0 6 -1 11l-27 67l17 8l28 -68q2 -5 2.5 -9t0.5 -9q0 -10 -3 -19q-2 -5 -4.5 -8t-7.5 -7q-3 -5 -6 -6.5t-8 -3.5t-9.5 -3.5t-9.5 -1.5q-8 0 -18 5q-5 2 -8.5 3.5t-6.5 6.5q-7 7 -10 15l-30 67l18 8zM644 771l-30 117l20 5l23 -97l49 10l3 -20zM713 786l-12 120l20 2l10 -98 l51 5v-20zM846 791l-19 4l12 118l44 -5q6 0 14 -4q9 -5 11 -10q4 -3 6 -13q4 -7 3 -15q-3 -3 -3 -6.5t-2 -8.5q-6 -8 -9 -11q-4 -4 -14 -7q-3 -2 -13 -2l-25 4zM877 851h7q3 0 7 5q3 0 3 5q2 2 4 8q0 5 -1 7t-2 3.5l-1 1.5q-2 3 -3.5 4t-2.5 1q-2 2 -3.5 2t-2.5 1l-25 2 l-5 -38zM933 780l-19 5l30 113l44 -12q6 0 11 -5l10 -10q4 -5 4 -13q1 -5 0.5 -8.5t-0.5 -6.5q-2 -5 -5 -10q-4 -5 -6 -7q-8 -5 -10 -5q-3 -2 -5.5 -2.5t-3.5 -2.5l21 -56l-15 1q-1 2 -3 3.5t-3 1.5q-4 2 -5 9l-19 46l-15 4zM959 874l-10 -31l25 -7h3h2q3 0 4 1t4 1 q2 0 2 1.5v1.5q5 5 5 7v7v3t-1 3q-1 2 -2.5 2.5t-1.5 2.5q-3 3 -6 3zM1019 816q0 5 2.5 8.5t6.5 6.5q1 3 4.5 5.5t6.5 4.5q3 3 6.5 4t8.5 3q4 3 14 3h15q9 -1 16 -6q8 -4 15 -9q3 -3 5.5 -6.5t4.5 -4.5l3.5 -7l3.5 -7q1 -5 2 -8t1 -7v-8t-2 -8q-1 -4 -2 -7.5t-3 -7.5 q-3 -4 -4 -7t-4 -7q-3 -3 -6.5 -5t-4.5 -6q-4 -2 -7 -4t-7 -5q-6 0 -16 -1q-12 0 -17 1q-5 0 -15 5q-12 5 -18 15q-9 9 -14 20q-1 7 -1 12v12q0 11 6 21zM1036 810q-2 -4 -2.5 -6.5t-2.5 -5.5v-10q0 -2 1 -5t2 -5q0 -7 4 -10q1 -2 3 -4.5t3 -2.5q4 -5 10 -6q7 -4 10 -4h12 h12q4 5 8 5q3 2 5 3.5t3 3.5q3 3 4 5.5t3 4.5q2 3 2.5 7.5t0.5 9.5v7.5v7.5q-2 4 -4.5 7.5t-5.5 5.5q-6 7 -13 10q-2 2 -5 2.5t-7 0.5h-10q-6 0 -10 -1q-3 -2 -5 -3t-5 -1q-1 -2 -3 -4t-3 -4zM1204 785l10 -9q0 -1 1.5 -3t3.5 -3q0 -5 -2 -9l-28 -85l83 38q1 1 7 1q5 0 7 -4 l10 -7l-117 -54l-15 11zM1261 559l-47 56l90 76l49 -56l-14 -14l-37 44l-23 -19l29 -36l-16 -11l-28 35l-23 -21l35 -42zM1276 534l-9 16l101 61l23 -37q2 -3 2.5 -6t2.5 -8q2 -7 -2 -12q-2 -9 -5 -13l-4.5 -4.5t-6.5 -5.5q-4 -1 -5.5 -1.5t-4.5 -2.5q-4 0 -5.5 -0.5 t-4.5 0.5q-4 0 -10 3q-4 1 -5.5 1.5t-3.5 3.5l-23 -59l-9 13q-4 2 -4 7q0 6 3 9l20 47l-8 13zM1363 584l-29 -16l13 -19q2 -5 4 -6q1 0 6 -3h6q1 0 5 3q1 0 6 3q0 3 1 4t1 3q1 1 1 6q-1 1 -1 2.5t-2 3.5zM1418 464q1 1 1 7q0 4 -1 5q-2 3 -2 7q-3 0 -5 3q-2 2 -5 2 q-3 1 -5 0l-2.5 -2.5l-1.5 -1.5l-2 -2l-2 -2v-7v-10v-3v-2v-10q0 -2 -0.5 -4.5t-0.5 -4.5q-4 -14 -19 -21q-4 -2 -7.5 -3t-8.5 1q-6 0 -14 2q-4 3 -7 5t-5 6q-3 2 -5 5.5t-4 6.5q-3 10 -3 15q0 4 3 14q0 3 2 5l3 4q0 4 2 4q4 2 3 2l4 -2q3 -5 5 -7q0 -1 0.5 -2t0.5 -3 q0 -3 -3 -6v-1v-8q0 -5 2 -8q0 -2 1 -3t2 -4q2 0 3.5 -1.5l3.5 -3.5h2t4 -2h4.5t4.5 2q2 0 5 3q2 4 2 5q1 2 1 7v8v4v12q0 8 2 13q1 2 2 4.5t4 5.5q2 2 4.5 3.5t6.5 3.5q8 3 14 1q6 0 12 -3q3 -2 6.5 -3.5t5.5 -5.5q3 -3 6 -11q2 -7 2 -10q0 -7 -1 -10q0 -4 -4 -10v-4.5 t-2 -3.5l-6 4q-3 1 -4 2.5t-3 3.5q-1 3 -1 6v3zM1346 376l-5 18l113 34l5 -19zM1409 376h19q6 0 14 -5q4 0 7.5 -2.5t4.5 -4.5q4 -3 7 -5.5t6 -5.5q4 -8 7 -12q3 -8 5 -18v-15q-2 -10 -5 -15q-1 -5 -3 -8.5t-4 -6.5l-10 -10q-4 -4 -7.5 -5.5t-6.5 -2.5q-7 -4 -15 -4 q-10 -1 -19 0q-8 0 -15 4q-2 1 -6 2.5t-7 3.5q-3 3 -5.5 6.5t-4.5 5.5q-7 5 -8 15q-2 3 -3.5 6.5t-1.5 8.5q-1 13 1 23q5 13 10 20q7 10 18 17q5 3 11 5.5t11 2.5zM1412 356q-8 0 -10 -3q-5 -2 -10 -5q-4 -2 -6 -7q-5 -5 -5 -10q-2 -1 -2.5 -4t-1.5 -6v-10q2 -8 4 -11 q0 -6 5 -9q1 -3 3 -5t3 -5q2 0 4.5 -1.5t5.5 -3.5q2 -1 4.5 -1h5.5q5 -4 11 0q11 0 16 5q5 1 13 11q6 8 6 15q3 7 1 15q0 7 -2 10q-3 4 -3.5 6t-1.5 4q-3 2 -4.5 3.5l-3.5 3.5q-5 3 -10 5q-3 3 -11 3q-4 3 -11 0zM1359 140l2 16l96 60l-91 5l1 20l117 -10v-11q0 -5 -1 -9 q-4 -2 -4 -5l-81 -50l81 -6l-1 -19z" />
<glyph unicode="A" horiz-adv-x="1396" d="M1102 203h-809l-66 -161q-8 -20 -21.5 -31t-34.5 -11h-74q-24 0 -32 10t-8 23q0 8 2 15.5t4 12.5l605 1447q3 8 10 17.5t21 9.5q12 0 19 -7.5t12 -19.5l605 -1454q2 -1 3 -9.5t1 -12.5q0 -32 -40 -32h-75q-20 0 -34 11t-21 28zM360 366h675l-333 815q-1 1 -1 2l-2 2 q-3 0 -4 -4z" />
<glyph unicode="B" horiz-adv-x="1397" d="M1209 1130q0 -45 -10 -82t-28 -69t-44 -60.5t-59 -56.5q50 -25 94 -59.5t77 -84t52 -116t19 -156.5q0 -103 -34.5 -185.5t-93 -140.5t-137 -89t-166.5 -31h-672q-20 0 -33 12t-13 33v1393q0 47 46 47h604q84 0 156.5 -24.5t126 -70t84.5 -111.5t31 -149zM324 757v-595 h554q51 0 99 15t85.5 49t60.5 87.5t23 131.5t-22.5 136.5t-59.5 97.5t-85.5 58.5t-100.5 19.5h-554zM1044 1129q0 48 -17 84.5t-48 61.5t-74 37.5t-95 12.5h-486v-409h485q51 0 94 14t74.5 41t49 66.5t17.5 91.5z" />
<glyph unicode="C" horiz-adv-x="1391" d="M1298 132q-101 -72 -215.5 -112.5t-241.5 -40.5q-106 0 -203.5 27.5t-182.5 77t-154.5 119.5t-119.5 154.5t-77 182t-27 202.5t27 202.5t77 182t119.5 154.5t154.5 119.5t182.5 77t203.5 27.5q127 0 241.5 -40.5t215.5 -112.5q22 -16 22 -37q0 -10 -4.5 -17.5t-9.5 -15.5 l-32 -54q-6 -10 -15.5 -15.5t-17.5 -5.5q-5 0 -16 2.5t-24 11.5q-77 56 -163.5 87.5t-180.5 31.5q-88 0 -168 -22t-148.5 -62t-124.5 -95t-95.5 -121t-61 -141t-21.5 -154q0 -120 47 -229t130 -191.5t196.5 -131.5t245.5 -49q94 0 180 31.5t164 87.5q13 9 24 11.5t16 2.5 q8 0 17.5 -5.5t15.5 -15.5l32 -54q5 -8 9.5 -15.5t4.5 -17.5q0 -21 -22 -37z" />
<glyph unicode="D" horiz-adv-x="1519" d="M161 1436q0 23 12.5 35.5t33.5 12.5h470q104 0 199.5 -26.5t178 -74.5t149.5 -115.5t115 -150t74 -178t26 -198.5q0 -102 -26.5 -197t-74.5 -177t-116 -150t-150 -116t-177 -74.5t-198 -26.5h-470q-19 0 -32.5 10t-13.5 33v1393zM670 161q86 0 162.5 22t142.5 61 t118.5 94t89.5 120.5t57 140.5t20 155q0 129 -47.5 234.5t-127.5 180t-186 115.5t-223 41h-352v-1164h346z" />
<glyph unicode="E" horiz-adv-x="1301" d="M1167 1485q46 0 46 -46v-70q0 -19 -12 -33t-35 -14h-842v-670h671q18 0 31 -11t13 -35v-71q0 -18 -11.5 -32t-32.5 -14h-671v-326h853q45 0 45 -46v-72q0 -20 -11.5 -32.5t-32.5 -12.5h-974q-44 0 -44 43v1397q0 21 11.5 33t32.5 12h963z" />
<glyph unicode="F" horiz-adv-x="1237" d="M161 1440q0 21 11 33t33 12h954q21 0 33 -11.5t12 -34.5v-70q0 -19 -12.5 -33t-32.5 -14h-835v-669h85h116.5t131.5 -0.5t131.5 -0.5h116.5h85q19 0 31.5 -11t12.5 -34v-72q0 -18 -11.5 -32t-32.5 -14h-666v-446q0 -43 -47 -43h-72q-44 0 -44 43v1397z" />
<glyph unicode="G" horiz-adv-x="1400" d="M1284 651q20 0 33 -11.5t13 -32.5v-435q0 -26 -19 -38l-13 -9q-97 -71 -211 -109t-247 -38q-105 0 -202.5 27t-182 77t-154 119.5t-119.5 154.5t-77 182.5t-27 203.5q0 104 27 201.5t77 182t119.5 154.5t154.5 120t183 77.5t204 27.5q75 0 146.5 -14.5t140.5 -42.5 q24 -10 57 -26t62.5 -34t50.5 -37.5t21 -36.5q0 -15 -9 -29l-32 -54q-12 -20 -32.5 -21t-39.5 13q-77 55 -165.5 85.5t-187.5 30.5q-88 0 -168 -23t-148.5 -64t-124 -97.5t-95 -123t-60.5 -141t-21 -151.5q0 -83 21.5 -160t61 -143.5t94.5 -121t121 -93.5t141 -60t156 -21 q86 0 168 29t167 71v248h-282q-21 0 -32.5 14t-11.5 32v72q0 23 12.5 34t31.5 11h398v0z" />
<glyph unicode="H" horiz-adv-x="1551" d="M1228 1441q0 18 12 31t32 13h71q18 0 33 -12t15 -32v-1397q0 -44 -48 -44h-71q-44 0 -44 44v445h-903v-445q0 -44 -48 -44h-71q-44 0 -44 44v1397q0 18 12 31t32 13h72q19 0 33 -12.5t14 -31.5v-789h903v789z" />
<glyph unicode="I" horiz-adv-x="486" d="M162 1441q0 18 11 31t33 13h72q18 0 32 -12t14 -32v-1396q0 -45 -46 -45h-72q-44 0 -44 45v1396z" />
<glyph unicode="J" horiz-adv-x="828" d="M32 88q-12 14 -9 31.5t17 31.5l45 46q12 14 30.5 12.5t32.5 -12.5q10 -8 23.5 -19t32 -20.5t42 -16t55.5 -6.5q40 0 74.5 15t60 41t40 61t14.5 75v1115q0 18 10 29.5t32 13.5h76q20 0 32 -12t12 -32v-1114q0 -74 -27.5 -137.5t-75 -110.5t-111.5 -74t-137 -27 q-79 0 -150 26.5t-119 83.5z" />
<glyph unicode="K" horiz-adv-x="1437" d="M324 836l585 618q14 14 25.5 22.5t22.5 8.5h142q4 0 11 -1t13.5 -3t11 -5t4.5 -8q0 -6 -7 -13l-365 -385l606 -1011q4 -7 6.5 -17t0 -19.5t-10 -16t-22.5 -6.5h-103q-11 0 -21 8.5t-18 22.5l-554 916l-327 -346v-557q0 -44 -46 -44h-72q-44 0 -44 44v1397q0 18 11 31 t33 13h73q18 0 31.5 -12t13.5 -32v-605z" />
<glyph unicode="L" horiz-adv-x="1086" d="M1009 163q18 0 31 -12t13 -34v-72q0 -18 -12 -31.5t-32 -13.5h-804q-44 0 -44 44v1397q0 18 12 31t34 13h72q18 0 31.5 -11.5t13.5 -32.5v-1278h685z" />
<glyph unicode="M" horiz-adv-x="1793" d="M902 -16q-10 0 -16.5 6t-11.5 15l-525 1047l-99 -1008q-2 -22 -12.5 -33t-32.5 -11h-73q-21 0 -34 10.5t-11 33.5l143 1442q0 4 1.5 10.5t4.5 12.5t9 10t16 4q19 0 31 -22l606 -1185q0 -1 1 -2q2 -2 3 -2t3 2q1 1 1 2l606 1185q12 22 31 22q10 0 16 -4t9 -10t4.5 -12.5 t1.5 -10.5l143 -1442q2 -23 -11 -33.5t-34 -10.5h-73q-22 0 -32.5 11t-12.5 33l-99 1008l-525 -1047q-2 -3 -8.5 -12t-19.5 -9z" />
<glyph unicode="N" horiz-adv-x="1560" d="M323 1146v-1101q0 -45 -46 -45h-71q-44 0 -44 45v1438q0 4 0.5 10.5t3.5 13t9 11.5t17 5q16 0 26 -13l1021 -1171v1101q0 45 46 45h71q44 0 44 -45v-1438q0 -4 -0.5 -10.5t-3.5 -13t-9 -11.5t-17 -5q-16 0 -26 13z" />
<glyph unicode="O" horiz-adv-x="1683" d="M78 741q0 105 27.5 203t77 183t119 154.5t154.5 119t182.5 77t203.5 27.5q105 0 202.5 -27.5t182.5 -77t154.5 -119t119 -154.5t77 -183t27.5 -203t-27.5 -202.5t-77 -182.5t-119 -154.5t-154.5 -119t-182.5 -77t-202.5 -27.5t-203 27.5t-183 77t-154.5 119t-119 154.5 t-77 182.5t-27.5 202.5zM240 741q0 -125 47 -234t129 -191t191.5 -129t234.5 -47q124 0 233.5 47t191 129t129 191t47.5 234q0 124 -47.5 234t-129 191.5t-191 129t-233.5 47.5q-83 0 -160 -21.5t-144 -61t-122 -94t-94 -121.5t-60.5 -144t-21.5 -160z" />
<glyph unicode="P" horiz-adv-x="1229" d="M547 1485q81 0 157 -21t143.5 -59.5t123 -92.5t96 -121t62.5 -144.5t22 -162.5q0 -123 -47.5 -233t-129.5 -192t-192 -130t-235 -48h-224v-236q0 -45 -45 -45h-73q-44 0 -44 45v1393q0 47 46 47h340zM323 443h225q88 0 168 33.5t141 93t97 140t36 174.5t-36 174.5 t-98.5 140t-146 93.5t-177.5 34h-209v-883z" />
<glyph unicode="Q" horiz-adv-x="1683" d="M78 741q0 105 27.5 203t77 183t119 154.5t154.5 119t182.5 77t203.5 27.5q105 0 202.5 -27.5t182.5 -77t154.5 -119t119 -154.5t77 -183t27.5 -203q0 -98 -24 -190t-68 -173t-105.5 -149t-137.5 -119.5t-163.5 -84t-183.5 -42.5v-261q-3 -44 -47 -44h-71q-44 0 -44 46 v259q-144 15 -268.5 80t-217 166.5t-145 232.5t-52.5 279zM240 741q0 -125 47 -234t129 -191t191.5 -129t234.5 -47q124 0 233.5 47t191 129t129 191t47.5 234q0 124 -47.5 234t-129 191.5t-191 129t-233.5 47.5q-83 0 -160 -21.5t-144 -61t-122 -94t-94 -121.5t-60.5 -144 t-21.5 -160z" />
<glyph unicode="R" horiz-adv-x="1402" d="M710 1484q120 0 225.5 -45.5t184 -124t124 -184t45.5 -225.5q0 -74 -17.5 -142t-50 -128.5t-78 -112t-101.5 -90.5l183 -388q3 -8 3 -13q0 -14 -11 -22.5t-27 -8.5h-83q-19 0 -32 10.5t-21 28.5l-148 323q-94 -34 -196 -34h-385v-284q0 -44 -46 -44h-73q-44 0 -44 44 v1392q0 23 12.5 35.5t32.5 12.5h503zM325 489h385q87 0 163 32.5t132.5 89t89.5 132.5t33 162q0 87 -33 163t-89.5 132.5t-132.5 89.5t-163 33h-385v-834z" />
<glyph unicode="S" horiz-adv-x="1173" d="M712 830q94 -43 163 -88.5t114.5 -99.5t67.5 -119t22 -147q0 -93 -34.5 -167.5t-96 -127.5t-146 -81.5t-184.5 -28.5q-87 0 -159.5 15.5t-135 49t-116.5 86.5t-104 128q-7 10 -7 23q0 25 25 39l65 33q12 5 21 5q19 0 34 -19q39 -51 75 -89t78.5 -62.5t95 -36.5t124.5 -12 q69 0 125 16.5t96 48t62 77t22 103.5q0 61 -19.5 106t-55.5 79.5t-87 63t-114 58.5l-118 56q-80 38 -141.5 77t-103 86t-62.5 107t-21 140q0 82 28.5 150t80.5 116t123.5 74.5t157.5 26.5q128 0 231.5 -51t160.5 -144q8 -13 8 -27q0 -22 -18 -33l-60 -40q-11 -8 -24 -8 q-11 0 -18.5 4.5t-12.5 10.5q-47 63 -111 95.5t-156 32.5q-53 0 -95.5 -15.5t-72.5 -43t-46 -65.5t-16 -83q0 -56 18.5 -96t60 -74.5t109.5 -69t167 -79.5z" />
<glyph unicode="T" horiz-adv-x="1166" d="M1060 1485q18 0 32.5 -11t14.5 -33v-71q0 -20 -12 -34t-35 -14h-392v-1277q0 -20 -11.5 -32.5t-34.5 -12.5h-71q-20 0 -32.5 12.5t-12.5 32.5v1277h-405q-21 0 -33.5 12t-12.5 36v71q0 20 12.5 32t33.5 12h959z" />
<glyph unicode="U" horiz-adv-x="1447" d="M275 603q0 -98 32 -183.5t90.5 -149t141 -100t183.5 -36.5q106 0 189 36.5t140.5 100.5t88 149t30.5 183v838q0 18 13.5 31t33.5 13h66q18 0 34.5 -12t16.5 -32v-854q0 -139 -48 -251.5t-131.5 -192.5t-195 -123.5t-237.5 -43.5t-237 48t-194.5 131.5t-131.5 194.5 t-48 237v854q0 15 11.5 29.5t29.5 14.5h77q15 0 30.5 -13t15.5 -31v-838z" />
<glyph unicode="V" horiz-adv-x="1394" d="M693 304q0 -1 1 -2q0 -2 2 -2q3 0 4 4l468 1139q8 20 21.5 31t34.5 11h74q40 0 40 -29q0 -6 -2 -14t-4 -15t-4 -12.5l-2 -5.5l-599 -1432q-3 -8 -10 -17.5t-21 -9.5q-12 0 -19 7.5t-12 19.5l-605 1454q-2 5 -3 11.5t-1 10.5q0 32 40 32h75q20 0 34 -11t21 -28z" />
<glyph unicode="W" horiz-adv-x="2156" d="M693 304q0 -1 1 -2q0 -2 2 -2q3 0 4 4l468 1139q8 20 21.5 31t34.5 11h74q40 0 40 -29q0 -19 -7 -36l-161 -383l300 -733q0 -1 1 -2q0 -2 2 -2q3 0 4 4l468 1139q8 20 21.5 31t34.5 11h74q40 0 40 -29q0 -12 -2 -20t-4 -13l-605 -1446q-3 -8 -10 -17.5t-21 -9.5 q-12 0 -19 7.5t-12 19.5l-357 857l-358 -857q-3 -8 -10 -17.5t-21 -9.5q-12 0 -19 7.5t-12 19.5l-605 1454q-2 5 -3 11.5t-1 10.5q0 32 40 32h75q20 0 34 -11t21 -28z" />
<glyph unicode="X" horiz-adv-x="1272" d="M249 39q-11 -17 -18.5 -25t-17.5 -11t-24.5 -3h-39.5h-86q-19 0 -20.5 12.5t7.5 26.5l480 702l-452 674q-8 11 -17.5 26t-9.5 26q0 8 7 12.5t25 4.5h113q19 0 29 -11t23 -29q1 -2 4 -6.5l14 -21t34.5 -51t65 -96.5t106 -157.5t157.5 -233.5l1 -2l1 2q93 138 157.5 233.5 t106 157.5t65 96.5t34.5 51l14 21t4 6.5q13 18 23 29t29 11h113q18 0 25 -4.5t7 -12.5q0 -11 -9.5 -26t-17.5 -26l-452 -674l480 -702q9 -14 7.5 -26.5t-20.5 -12.5h-86h-39.5t-24.5 3t-17.5 11t-18.5 25l-380 566l-1 1l-1 -1z" />
<glyph unicode="Y" horiz-adv-x="1264" d="M67 1433q-11 17 -11 30q0 22 30 22h113q10 -1 16.5 -2t12 -5.5t11 -13t14.5 -23.5q93 -161 186.5 -320t187.5 -320h2l384 650q11 19 21 25.5t25 8.5h121q23 0 23 -17q0 -4 -1 -12t-8 -16q-122 -198 -240.5 -402t-243.5 -402v-589q0 -47 -44 -47h-75q-43 0 -43 47v583z " />
<glyph unicode="Z" horiz-adv-x="1218" d="M72 0q-4 0 -10.5 0.5t-13 3.5t-11.5 9.5t-5 17.5q0 7 4 13t9 14l844 1265h-697q-47 0 -47 47v71q0 44 47 44h928q4 0 10.5 -0.5t13 -3.5t11.5 -9t5 -17q0 -7 -4 -13.5t-9 -13.5l-838 -1266h828q19 0 32 -11.5t13 -34.5v-69q0 -18 -12.5 -32.5t-32.5 -14.5h-1065z" />
<glyph unicode="[" horiz-adv-x="497" d="M138 1678q0 20 11.5 32t32.5 12h269q21 0 33 -11.5t12 -32.5v-84q0 -46 -45 -46h-139v-1609h139q19 0 32 -12.5t13 -33.5v-84q-2 -44 -45 -44h-269q-44 0 -44 44v1869z" />
<glyph unicode="\" horiz-adv-x="930" d="M849 42q5 -13 5 -21q0 -21 -33 -21h-105q-36 0 -50 35l-579 1400q-5 11 -5 22q0 19 14.5 23.5t26.5 4.5h92q24 0 37 -9t24 -35z" />
<glyph unicode="]" horiz-adv-x="497" d="M358 -197q0 -45 -44 -45h-267q-43 0 -46 45v84q0 20 14 32.5t32 12.5h138v1609h-138q-46 0 -46 46v84q0 20 13 32t33 12h267q44 0 44 -44v-1868z" />
<glyph unicode="^" horiz-adv-x="977" d="M832 1345q5 -5 12 -14t7 -18q0 -11 -6 -17.5t-13 -13.5l-49 -47q-7 -6 -14 -12.5t-18 -6.5q-12 0 -17.5 3.5t-13.5 11.5l-233 234l-232 -234q-8 -8 -13.5 -11.5t-17.5 -3.5q-11 0 -18 6.5t-14 12.5l-49 47q-7 7 -13 13.5t-6 17.5q0 9 7 18t12 14l317 318q4 4 11.5 9 t16.5 5q8 0 15 -5t12 -9z" />
<glyph unicode="_" horiz-adv-x="903" d="M858 -121q19 0 31.5 -11t12.5 -33v-84q0 -18 -12 -32t-32 -14h-811q-47 0 -47 46v84q0 44 47 44h811z" />
<glyph unicode="`" horiz-adv-x="517" d="M146 1426q-8 17 -10.5 26t-2.5 14q0 12 8.5 15.5t21.5 3.5h80q19 0 30.5 -10t23.5 -32l88 -205q6 -15 7.5 -22t3.5 -14q0 -14 -6.5 -21t-26.5 -7h-73q-34 0 -53 42z" />
<glyph unicode="a" d="M932 820q0 32 3.5 63t6.5 52q2 20 13 32t33 12h62q20 0 32.5 -12t12.5 -32v-885q0 -23 -13 -36.5t-36 -13.5h-56q-47 0 -50 50l-8 114q-26 -43 -64 -77.5t-85.5 -59t-101.5 -37.5t-111 -13q-105 0 -195 40t-156 109.5t-103.5 162.5t-37.5 200q0 106 37.5 199.5t103.5 163 t156 110t195 40.5q67 0 124 -16.5t102.5 -43.5t80 -61.5t55.5 -70.5v10zM241 489q0 -73 27 -137t73.5 -111.5t109.5 -75t135 -27.5q73 0 136.5 28t110.5 76t74.5 112t27.5 137t-27.5 136.5t-74.5 110.5t-110.5 74.5t-136.5 27.5q-72 0 -135 -27.5t-109.5 -75.5t-73.5 -112 t-27 -136z" />
<glyph unicode="b" d="M324 810q21 36 55 70.5t80 61.5t103 43.5t124 16.5q105 0 195 -40.5t156 -110t103.5 -163t37.5 -199.5q0 -107 -37.5 -200t-103.5 -162.5t-156 -109.5t-195 -40q-57 0 -111 13t-101.5 37.5t-86 59t-63.5 77.5l-8 -114q-3 -50 -50 -50h-56q-23 0 -36 13.5t-13 36.5v1390 q0 20 12.5 32t32.5 12h62q22 0 33 -12t13 -32q3 -21 6.5 -52t3.5 -63v-515zM1015 489q0 72 -27 136t-73.5 112t-109.5 75.5t-135 27.5q-73 0 -136.5 -27.5t-111 -74.5t-74.5 -110.5t-27 -136.5t27 -137t74.5 -112t111 -76t136.5 -28q72 0 135 27.5t109.5 75t73.5 111.5 t27 137z" />
<glyph unicode="c" horiz-adv-x="1021" d="M590 139q61 0 122 21.5t109 64.5q7 6 16.5 10t19.5 4q15 0 23 -11l56 -80q5 -8 5 -15q0 -14 -11 -26t-19 -19q-66 -49 -146 -80t-175 -31q-106 0 -199.5 40t-163 109.5t-109.5 163t-40 199.5t40 199.5t109.5 163t163 110t199.5 40.5q79 0 154 -24.5t155 -78.5 q33 -24 33 -46q0 -10 -5 -17l-56 -84q-9 -14 -26 -14q-5 0 -13 5.5t-18 13.5q-48 38 -103 60.5t-121 22.5q-72 0 -136 -27.5t-111.5 -75.5t-75 -112t-27.5 -136t27.5 -136t75 -111.5t111.5 -75t136 -27.5z" />
<glyph unicode="d" d="M932 1325q0 32 3.5 63t6.5 52q2 20 13 32t33 12h62q20 0 32.5 -12t12.5 -32v-1390q0 -23 -13 -36.5t-36 -13.5h-56q-47 0 -50 50l-8 114q-26 -43 -64 -77.5t-85.5 -59t-101.5 -37.5t-111 -13q-105 0 -195 40t-156 109.5t-103.5 162.5t-37.5 200q0 106 37.5 199.5 t103.5 163t156 110t195 40.5q67 0 124 -16.5t102.5 -43.5t80 -61.5t55.5 -70.5v515zM241 489q0 -73 27 -137t73.5 -111.5t109.5 -75t135 -27.5q73 0 136.5 28t110.5 76t74.5 112t27.5 137t-27.5 136.5t-74.5 110.5t-110.5 74.5t-136.5 27.5q-72 0 -135 -27.5t-109.5 -75.5 t-73.5 -112t-27 -136z" />
<glyph unicode="e" horiz-adv-x="1153" d="M590 139q61 0 122 21.5t109 64.5q7 6 16.5 10t19.5 4q15 0 23 -11l56 -80q5 -8 5 -15q0 -14 -11 -26t-19 -19q-66 -49 -146 -80t-175 -31q-106 0 -199.5 40t-163 109.5t-109.5 163t-40 199.5t40 199.5t109.5 163t163 110t199.5 40.5q100 0 188 -35.5t154 -99t104 -152 t38 -194.5v-26q0 -25 -8.5 -40t-23 -22.5t-33.5 -9.5t-41 -2h-722q12 -60 43.5 -112t77 -89.5t102.5 -59t121 -21.5zM914 560q-7 58 -34.5 109t-70.5 89t-99 60t-120 22q-63 0 -120 -21.5t-102.5 -59t-77 -88.5t-43.5 -111h667z" />
<glyph unicode="f" horiz-adv-x="618" d="M523 1490q21 -3 34.5 -15t13.5 -35v-60q0 -20 -12 -36t-32 -14q-3 0 -10.5 0.5t-10.5 0.5q-30 2 -54.5 0.5t-42.5 -17.5t-27.5 -52t-9.5 -102v-181h137q21 0 34.5 -12t13.5 -38v-46q0 -25 -13 -40t-35 -15h-137v-778q0 -24 -16 -37t-35 -13h-65q-23 0 -35 14t-12 36v778 h-99q-21 0 -34.5 15t-13.5 40v46q0 26 13.5 38t34.5 12h99v183q0 68 15.5 133t52.5 112.5t97 71.5t149 11z" />
<glyph unicode="g" d="M932 820q0 32 3.5 63t6.5 52q2 20 13 32t33 12h62q20 0 32.5 -12t12.5 -32v-831v-23v-31q0 -12 -3 -19l-3 -33q-11 -94 -50.5 -167.5t-103 -124.5t-147 -77.5t-180.5 -26.5q-12 0 -24.5 0.5t-25.5 1.5q-42 1 -88.5 13t-85.5 29.5t-65 37t-26 37.5q0 12 7 26l45 67l7 8 q10 9 20 9q6 0 17.5 -5.5t26.5 -13t33.5 -15.5t38.5 -12q31 -12 60 -18.5t64 -6.5q64 0 122.5 20.5t102 57.5t69.5 86.5t26 108.5v131q-26 -43 -64 -77.5t-85.5 -59t-101.5 -37.5t-111 -13q-105 0 -195 40t-156 109.5t-103.5 162.5t-37.5 200q0 106 37.5 199.5t103.5 163 t156 110t195 40.5q67 0 124 -16.5t102.5 -43.5t80 -61.5t55.5 -70.5v10zM241 489q0 -73 27 -137t73.5 -111.5t109.5 -75t135 -27.5q73 0 136.5 28t110.5 76t74.5 112t27.5 137t-27.5 136.5t-74.5 110.5t-110.5 74.5t-136.5 27.5q-72 0 -135 -27.5t-109.5 -75.5t-73.5 -112 t-27 -136z" />
<glyph unicode="h" horiz-adv-x="1110" d="M161 1440q0 20 12.5 32t32.5 12h62q22 0 33 -12t13 -32q3 -21 6.5 -52t3.5 -63v-479q19 32 49 60t67.5 49t81 33.5t88.5 12.5q86 0 157 -32.5t122 -88.5t79.5 -132t28.5 -163v-535q0 -24 -13.5 -37t-33.5 -13h-71q-26 0 -35.5 12t-9.5 37v536q0 52 -17.5 99t-50.5 81.5 t-80.5 55t-106.5 20.5q-50 0 -96.5 -19t-81.5 -52.5t-56 -78.5t-21 -96v-551q0 -21 -12.5 -32.5t-32.5 -11.5h-71q-47 0 -47 44v1396z" />
<glyph unicode="i" horiz-adv-x="486" d="M161 935q0 20 12 32t32 12h72q22 0 34.5 -12t12.5 -32v-891q0 -21 -12.5 -32.5t-33.5 -11.5h-71q-46 0 -46 44v891zM133 1276q0 24 9 44.5t24.5 36t36 24.5t44.5 9t44.5 -9t36 -24.5t24.5 -36t9 -44.5t-9 -44.5t-24.5 -36t-36 -24.5t-44.5 -9t-44.5 9t-36 24.5t-24.5 36 t-9 44.5z" />
<glyph unicode="j" horiz-adv-x="492" d="M133 1276q0 24 9 44.5t24.5 36t36 24.5t44.5 9t44.5 -9t36 -24.5t24.5 -36t9 -44.5t-9 -44.5t-24.5 -36t-36 -24.5t-44.5 -9t-44.5 9t-36 24.5t-24.5 36t-9 44.5zM10 -391q-21 3 -34.5 15t-13.5 35v60q0 20 12 36t32 14q3 0 10.5 -0.5t10.5 -0.5q30 -2 54.5 -0.5 t42.5 17.5t27.5 52t9.5 102v990q0 24 16 37t35 13h65q23 0 35 -14t12 -36v-992q0 -68 -15.5 -133t-52.5 -112.5t-97 -71.5t-149 -11z" />
<glyph unicode="k" horiz-adv-x="1104" d="M634 686l392 -634q7 -11 9.5 -23.5t2.5 -14.5q0 -14 -28 -14h-116q-26 0 -45 31l-326 540l-198 -205v-322q0 -44 -48 -44h-72q-44 0 -44 44v1396q0 20 12.5 32t32.5 12h62q20 0 31.5 -13t17 -35t6.5 -51t1 -60v-740q86 92 172.5 183t172.5 183q12 13 25 20.5t33 7.5h119 q14 0 23 -8t9 -19q0 -14 -13 -27z" />
<glyph unicode="l" horiz-adv-x="486" d="M161 1440q0 20 12.5 32t32.5 12h62q22 0 33 -12t13 -32q3 -21 6.5 -52t3.5 -63l1 -1281q0 -21 -12.5 -32.5t-33.5 -11.5h-71q-46 0 -46 44z" />
<glyph unicode="m" horiz-adv-x="1663" d="M161 935q0 20 12.5 32t32.5 12h62q22 0 33 -12t13 -32l10 -89q19 32 44.5 60t57.5 49t70.5 33.5t83.5 12.5q108 0 184.5 -45t119.5 -124l6 10q19 33 52 61.5t73.5 50.5t86.5 34.5t91 12.5q86 0 152.5 -32.5t112 -88.5t69 -132t23.5 -163v-535q0 -24 -13.5 -37t-33.5 -13 h-71q-26 0 -35.5 12t-9.5 37v536q0 52 -13 99t-40.5 81.5t-70 55t-101.5 20.5q-50 0 -91.5 -19t-71 -52.5t-46 -78.5t-16.5 -96v-551q0 -21 -12 -32t-31 -12h-78q-20 0 -29 8t-12 23q-1 3 -1 11v543q0 52 -13 99t-40.5 81.5t-70 55t-101.5 20.5q-50 0 -91.5 -19t-71 -52.5 t-46 -78.5t-16.5 -96v-551q0 -21 -12.5 -32.5t-32.5 -11.5h-71q-47 0 -47 44v891z" />
<glyph unicode="n" horiz-adv-x="1110" d="M161 935q0 20 12.5 32t32.5 12h62q22 0 33 -12t13 -32l10 -89q19 32 49 60t67.5 49t81 33.5t88.5 12.5q86 0 157 -32.5t122 -88.5t79.5 -132t28.5 -163v-535q0 -24 -13.5 -37t-33.5 -13h-71q-26 0 -35.5 12t-9.5 37v536q0 52 -17.5 99t-50.5 81.5t-80.5 55t-106.5 20.5 q-50 0 -96.5 -19t-81.5 -52.5t-56 -78.5t-21 -96v-551q0 -21 -12.5 -32.5t-32.5 -11.5h-71q-47 0 -47 44v891z" />
<glyph unicode="o" horiz-adv-x="1181" d="M78 489q0 106 40 199.5t109.5 163t163 110t199.5 40.5t199.5 -40.5t163 -110t110 -163t40.5 -199.5t-40.5 -199.5t-110 -163t-163 -109.5t-199.5 -40t-199.5 40t-163 109.5t-109.5 163t-40 199.5zM240 489q0 -72 27.5 -136t75 -111.5t111.5 -75t136 -27.5t136 27.5 t112 75t75.5 111.5t27.5 136t-27.5 136t-75.5 112t-112 75.5t-136 27.5t-136 -27.5t-111.5 -75.5t-75 -112t-27.5 -136z" />
<glyph unicode="p" d="M324 -226q0 -32 -3.5 -63t-6.5 -52q-2 -20 -13 -32t-33 -12h-62q-20 0 -32.5 12t-12.5 32v1270q0 23 13 36.5t36 13.5h56q47 0 50 -50l8 -114q25 43 63.5 77.5t86 59t101.5 37.5t111 13q105 0 195 -40t156 -109.5t103.5 -163t37.5 -199.5t-37.5 -199.5t-103.5 -163 t-156 -110t-195 -40.5q-67 0 -124 16.5t-103 43.5t-80 61.5t-55 70.5v-395zM1015 490q0 73 -27 137t-73.5 111.5t-109.5 75t-135 27.5q-73 0 -136.5 -28t-111 -76t-74.5 -112t-27 -137t27 -136.5t74.5 -111t111 -74.5t136.5 -27q72 0 135 27.5t109.5 75.5t73.5 112t27 136z " />
<glyph unicode="q" d="M932 169q-21 -36 -55.5 -70.5t-80 -61.5t-102.5 -43.5t-124 -16.5q-105 0 -195 40.5t-156 110t-103.5 163t-37.5 199.5t37.5 199.5t103.5 163t156 109.5t195 40q57 0 111 -13t101.5 -37.5t85.5 -59t64 -77.5l8 114q3 50 50 50h56q23 0 36 -13.5t13 -36.5v-1270 q0 -20 -12.5 -32t-32.5 -12h-62q-22 0 -33 12t-13 32q-3 21 -6.5 52t-3.5 63v395zM241 490q0 -72 27 -136t73.5 -112t109.5 -75.5t135 -27.5q73 0 136.5 27t110.5 74.5t74.5 111t27.5 136.5t-27.5 137t-74.5 112t-110.5 76t-136.5 28q-72 0 -135 -27.5t-109.5 -75 t-73.5 -111.5t-27 -137z" />
<glyph unicode="r" horiz-adv-x="774" d="M161 935q0 20 12.5 32t32.5 12h62q22 0 33 -12t13 -32l6 -56q16 26 36.5 48.5t47 39t60 26t77.5 9.5q34 0 68 -9t61.5 -22t44.5 -28t17 -27q0 -9 -4 -17l-33 -66q-15 -29 -34 -29q-8 0 -24.5 6.5t-38 14t-46 14t-48.5 6.5q-41 0 -73.5 -20.5t-56 -52.5t-36.5 -72t-14 -80 v-576q0 -42 -41 -44h-76q-46 0 -46 44v891z" />
<glyph unicode="s" horiz-adv-x="891" d="M106 201q-7 35 26 47l82 30q16 6 29.5 -4.5t18.5 -29.5q7 -33 27 -54.5t45 -33.5t52.5 -17t50.5 -5q35 0 69 7.5t61 23.5t43.5 40.5t16.5 58.5q0 36 -22 64t-54 48.5t-68.5 35.5t-66.5 26q-62 23 -113 48t-87.5 58.5t-56.5 78t-20 106.5q0 63 21.5 113.5t61 86t96 54.5 t127.5 19q56 0 102.5 -14.5t83.5 -40.5t66 -64t51 -84q4 -9 4 -19q0 -16 -23 -30l-59 -36q-14 -8 -25.5 -7.5t-21.5 6.5t-18 16t-15 22q-12 21 -24.5 38.5t-29 30.5t-38.5 20t-52 7q-72 0 -110.5 -31.5t-34.5 -85.5q2 -35 19 -57.5t40 -37t49 -23.5t46 -16q61 -21 121 -48.5 t107 -66.5t76.5 -92t29.5 -126q0 -68 -26.5 -121t-74 -89.5t-112 -56t-139.5 -19.5q-62 0 -117.5 15.5t-99 45t-73.5 71t-41 92.5z" />
<glyph unicode="t" horiz-adv-x="643" d="M395 243q0 -47 9.5 -69t27.5 -29.5t42.5 -4.5t54.5 5q3 0 10.5 0.5t10.5 0.5q20 2 32 -11t12 -33v-68q0 -23 -13.5 -35t-34.5 -15q-89 -13 -149 -0.5t-97 48t-52.5 91.5t-15.5 131v575h-124q-23 0 -35.5 9.5t-12.5 33.5v65q0 26 12.5 34t35.5 8h124v229q0 23 10 32.5 t42 14.5l62 11q12 2 19.5 -3t12 -13t6 -19t1.5 -21q2 -42 5 -83q2 -35 3.5 -75t1.5 -73h155q22 0 33.5 -10t11.5 -36v-57q0 -47 -45 -47h-155v-586v0z" />
<glyph unicode="u" horiz-adv-x="1110" d="M949 45q0 -20 -12.5 -32t-32.5 -12h-62q-22 0 -33 12t-13 32l-10 89q-19 -32 -49 -60t-67.5 -49t-81 -33.5t-88.5 -12.5q-86 0 -157 32.5t-122 88.5t-79.5 132t-28.5 163v535q0 24 13.5 37t33.5 13h71q26 0 35.5 -12t9.5 -37v-536q0 -53 17.5 -99.5t50.5 -81t80.5 -55 t106.5 -20.5q50 0 96 19t81.5 52.5t56.5 78.5t21 96v551q0 21 12.5 32.5t32.5 11.5h71q47 0 47 -44v-891z" />
<glyph unicode="v" horiz-adv-x="995" d="M493 304q0 -1 1 -2q0 -2 2 -2q3 0 4 4l261 635q8 20 21.5 31t34.5 11h74q18 0 29 -11.5t11 -27.5q0 -9 -3 -16l-401 -949q-3 -8 -10 -17.5t-21 -9.5q-12 0 -19 7.5t-12 19.5l-399 949q-2 1 -3 9.5t-1 12.5q0 32 40 32h75q20 0 34 -11t21 -28z" />
<glyph unicode="w" horiz-adv-x="1562" d="M493 304q0 -1 1 -2q0 -2 2 -2q3 0 4 4l261 635q8 20 21.5 31t34.5 11h74q18 0 29 -11.5t11 -27.5q0 -9 -3 -16l-63 -148l195 -474q0 -1 1 -2q0 -2 2 -2q3 0 4 4l261 635q8 20 21.5 31t34.5 11h74q18 0 29 -11.5t11 -27.5q0 -9 -3 -16l-401 -949q-3 -8 -10 -17.5t-21 -9.5 q-12 0 -19 7.5t-12 19.5l-252 599l-253 -599q-3 -8 -10 -17.5t-21 -9.5q-12 0 -19 7.5t-12 19.5l-399 949q-2 1 -3 9.5t-1 12.5q0 32 40 32h75q20 0 34 -11t21 -28z" />
<glyph unicode="x" horiz-adv-x="1011" d="M502 376l-209 -316q-15 -23 -27.5 -35.5t-24.5 -18t-25.5 -6t-31.5 -0.5h-75q-13 0 -19.5 5t-8 12.5t1.5 17t9 18.5q80 116 158.5 231.5t157.5 231.5q-34 50 -59.5 88t-47.5 70t-41 60t-39 57.5t-42 62t-50 74.5q-7 11 -11 20.5t-1.5 17t11.5 11.5t27 4h96q24 0 38 -9 t31 -34q52 -82 95 -149.5t87 -131.5q44 65 86 132t96 149q17 25 31 34t38 9h96q18 0 27 -4t11.5 -11.5t-1.5 -17t-11 -20.5q-28 -42 -50 -74.5t-42 -62t-39 -57.5t-41 -60t-48 -70t-59 -88q79 -116 157.5 -231.5t158.5 -231.5q13 -19 10.5 -36t-27.5 -17h-75 q-18 0 -31.5 0.5t-25.5 6t-24.5 18t-27.5 35.5z" />
<glyph unicode="y" horiz-adv-x="995" d="M492 305q0 -1 1 -2q0 -2 2 -2q3 0 4 4l261 635q8 20 21.5 31t34.5 11h74q18 0 29 -11.5t11 -27.5q0 -9 -3 -16l-541 -1282q-6 -14 -20 -23t-33 -9h-55q-28 0 -37 9.5t-9 21.5q0 7 2 13.5t4 11.5l176 427l-349 831q-2 1 -3 9.5t-1 12.5q0 32 40 32h75q20 0 34 -11t21 -28z " />
<glyph unicode="z" horiz-adv-x="1012" d="M99 0q-4 0 -10.5 0.5t-13 3.5t-11.5 9.5t-5 17.5q0 7 4 13.5t9 13.5l549 759h-439q-47 0 -47 47v71q0 44 47 44h687q4 0 10.5 -0.5t13 -3.5t11.5 -9t5 -17q0 -7 -4 -13.5t-9 -13.5l-546 -760h554q19 0 32 -11.5t13 -34.5v-69q0 -18 -12.5 -32.5t-32.5 -14.5h-805z" />
<glyph unicode="{" horiz-adv-x="600" d="M609 1715q49 -3 49 -43v-84q0 -20 -12 -33t-32 -13q-32 0 -63.5 -15.5t-57 -41.5t-41 -60t-15.5 -72v-470q0 -34 -17.5 -71.5t-55.5 -69.5q73 -57 73 -140v-476q0 -14 7 -28q3 -42 20.5 -69t41 -44t50.5 -27.5t49.5 -19.5t37.5 -20t15 -29v-84q0 -41 -44 -44 q-93 11 -159 47t-108.5 93t-62.5 133.5t-20 168.5v334q0 20 -7 41t-19 38t-29.5 28t-38.5 11h-38q-44 0 -44 45v85q0 21 12 32.5t32 11.5h34q27 0 45.5 10t30.5 27t17 39t5 46v320q0 87 19.5 162.5t59 133.5t99.5 95.5t141 48.5z" />
<glyph unicode="|" horiz-adv-x="502" d="M162 1485q0 18 11 31t33 13h82q19 0 33 -12t14 -32v-1868q0 -45 -47 -45h-82q-44 0 -44 45v1868z" />
<glyph unicode="}" horiz-adv-x="600" d="M-15 1716q88 -11 153.5 -46.5t109.5 -92.5t66 -134.5t22 -171.5v-320q0 -24 5 -46t16.5 -39t30 -27t45.5 -10h34q44 0 44 -44v-85q0 -45 -44 -45h-38q-21 0 -38 -11t-29.5 -28t-19 -38t-6.5 -41v-334q0 -95 -21 -172t-64.5 -133.5t-109.5 -91.5t-156 -45q-44 3 -44 44v84 q0 20 15 31t37 18q28 8 58 21t55 34.5t40.5 53.5t15.5 79v476q0 83 73 140q-38 32 -55.5 69.5t-17.5 71.5v470q0 38 -15.5 72t-40 59.5t-56 40.5t-62.5 17q-21 0 -34 12t-13 34v84q0 41 44 44z" />
<glyph unicode="~" horiz-adv-x="1318" d="M271 418q-5 -5 -12.5 -8t-12.5 -3q-8 0 -15 3.5t-15 8.5q-17 13 -38 31t-34 28q-8 8 -10.5 13.5t-2.5 16.5q0 4 3 10.5t6.5 13t7 11t4.5 5.5q67 90 145 128t172 38q50 0 100 -19t97 -50l88 -57q52 -33 110 -33q33 0 63.5 11t53.5 33q15 14 32.5 37.5t32.5 38.5 q5 5 12.5 8t12.5 3q8 0 15 -3.5t15 -8.5q17 -13 38 -31t34 -28q8 -8 10.5 -13.5t2.5 -16.5q0 -4 -3 -10.5t-7 -13t-7 -11t-4 -5.5q-67 -90 -145 -128t-172 -38q-50 0 -100 19t-97 49l-88 58q-53 33 -110 33q-33 0 -63.5 -11t-53.5 -33q-15 -14 -32.5 -37.5t-32.5 -38.5z" />
<glyph unicode="&#xa1;" horiz-adv-x="497" d="M162.021 512.027q0 21.999 11.999 32.998t32.998 10.999h82.9951q44.9971 0 44.9971 -43.9971v-990.939q0 -19.999 -11.499 -31.998t-33.498 -11.999h-82.9951q-19.999 0 -32.498 11.999t-12.499 31.998v990.939zM377.008 868.006q0 -25.998 -10 -48.9971 q-9.99902 -22.999 -26.998 -39.998t-39.498 -26.998q-22.498 -9.99902 -48.4971 -9.99902q-26.998 0 -49.9971 9.99902q-22.998 9.99902 -39.9971 26.998t-26.498 39.998q-9.5 22.999 -9.5 48.9971t9.5 48.4971q9.49902 22.498 26.498 39.4971t39.9971 26.999 q22.999 9.99902 49.9971 9.99902q25.999 0 48.4971 -9.99902q22.499 -10 39.498 -26.999t26.998 -39.4971q10 -22.499 10 -48.4971z" />
<glyph unicode="&#xa2;" horiz-adv-x="976" d="M551 144q26 0 53.5 4.5t54 14.5t51 24t43.5 34q11 9 27 16.5t28 7.5q11 0 20.5 -4t14.5 -12l41 -69q9 -15 9 -23q0 -15 -11 -28t-23 -21q-45 -36 -105.5 -64t-124.5 -39v-140q0 -44 -44 -44h-83q-46 0 -46 44v143q-81 18 -150 63.5t-119.5 111.5t-79 149.5t-28.5 176.5 t28.5 176.5t79 150t119.5 112t150 63.5v133q0 20 13 32t31 12h82q22 0 34.5 -13t12.5 -31v-128q57 -9 111.5 -32.5t106.5 -64.5q15 -14 25 -25.5t10 -22.5q1 -5 -4 -16t-10 -20l-35 -62q-12 -18 -37 -18q-10 0 -19.5 4t-17.5 9q-46 40 -97.5 63t-110.5 23 q-62 0 -116.5 -27.5t-95 -74.5t-64.5 -109.5t-24 -133.5t24 -133.5t64.5 -109.5t95 -74.5t116.5 -27.5z" />
<glyph unicode="&#xa3;" horiz-adv-x="1201" d="M595 771q32 0 32 -34v-103q0 -15 -8 -24.5t-24 -9.5h-260v-427h741q14 0 23 -8.5t9 -24.5v-105q0 -14 -8.5 -24.5t-23.5 -10.5h-881q-32 0 -32 30v570h-40q-32 0 -32 34v103q0 14 8.5 24t23.5 10h40v219q0 117 45 213t122.5 164.5t181.5 106t222 37.5q99 0 188.5 -31 t162.5 -89h-1q13 -10 19 -17t7 -12t-1 -9.5t-6 -10.5l-5 -9l1 1l-49 -86v1q-15 -23 -37 -10h1l-43 32q-48 32 -110 55t-127 23q-83 0 -156 -25t-127 -72t-85 -114t-31 -151v-216h260z" />
<glyph unicode="&#xa4;" horiz-adv-x="1078" d="M370 552q0 -35 13 -66t36 -54t53.5 -36t66.5 -13t66.5 13t53.5 36t36 54t13 66q0 36 -13 67t-36 54t-53.5 36t-66.5 13t-66.5 -13t-53.5 -36t-36 -54t-13 -67zM266 955q15 15 29 15q18 0 33 -15l105 -106q32 8 58 13t48 5q20 0 46 -5t57 -13l108 106q13 13 29 13 q20 0 35 -15l128 -128q15 -15 15 -31t-15 -31l-106 -107q8 -32 13 -58t5 -46q0 -21 -5 -47.5t-13 -57.5l106 -106q15 -15 15 -31q0 -19 -15 -31l-128 -127q-13 -13 -35 -13q-18 0 -29 11l-108 105q-63 -17 -103 -17q-41 0 -106 17l-105 -105q-16 -16 -31 -16q-18 0 -31 16 l-127 127q-14 11 -14 35q0 8 3 16t8 13l106 106q-8 31 -13 57.5t-5 47.5q0 20 5 46t13 58l-106 107q-13 15 -13 29q0 19 16 35z" />
<glyph unicode="&#xa5;" horiz-adv-x="1272" d="M530 660l-463 773q-11 17 -11 30q0 22 30 22h113q10 -1 16.5 -2t12 -5.5t11 -13t14.5 -23.5q93 -161 186.5 -320t187.5 -320h2l384 650q11 19 21 25.5t25 8.5h121q23 0 23 -17q0 -4 -1 -12t-8 -16q-118 -192 -233.5 -389.5t-235.5 -390.5h227q18 0 31 -11.5t13 -32.5v-73 q0 -18 -12 -32t-32 -14h-242v-134h242q18 0 31 -11t13 -33v-72q0 -18 -12 -32t-32 -14h-242v-154q0 -47 -44 -47h-75q-43 0 -43 47v154h-233q-46 0 -46 46v72q0 44 46 44h233v134h-233q-46 0 -46 46v73q0 44 46 44h215z" />
<glyph unicode="&#xa6;" horiz-adv-x="497" d="M162 1476q0 18 11 31t33 13h81q18 0 33 -12t15 -32v-746q0 -44 -48 -44h-81q-44 0 -44 44v746zM162 372q0 18 11 31t33 13h81q18 0 33 -12t15 -32v-746q0 -44 -48 -44h-81q-44 0 -44 44v746z" />
<glyph unicode="&#xa7;" horiz-adv-x="1175" d="M856 1263q-31 34 -69.5 58.5t-77.5 41t-74.5 24.5t-60.5 8q-44 0 -90 -12.5t-84.5 -38t-63 -63t-24.5 -86.5q0 -42 24.5 -69.5t66 -47t97 -34.5t118.5 -34q87 -26 149 -55.5t101.5 -65.5t58.5 -79t19 -95q0 -83 -40.5 -145.5t-115.5 -100.5q34 -18 62.5 -39.5t49.5 -49 t32.5 -61.5t11.5 -77q0 -76 -31.5 -139t-86.5 -108.5t-129.5 -70.5t-159.5 -25q-170 0 -301 101q-23 18 -41.5 36t-31.5 34t-19.5 27.5t-6.5 16.5q0 7 5.5 14.5t13.5 12.5l58 39q11 7 19 7q7 0 10.5 -2.5t14.5 -10.5l2 -7q30 -34 68.5 -58.5t77.5 -41t74.5 -24.5t60.5 -8 q45 0 91.5 12.5t85 38t63 62.5t24.5 87q0 41 -24 68.5t-65 47.5t-97 36t-119 35q-86 27 -148 56t-102.5 64t-60 77.5t-19.5 95.5q0 81 39.5 142.5t111.5 99.5q-68 35 -109.5 90.5t-41.5 138.5q0 76 31.5 139.5t86.5 108.5t129.5 70t159.5 25q86 0 159.5 -24t141.5 -75 q23 -18 41 -36t30.5 -34t19 -27.5t6.5 -16.5q0 -14 -16 -27l-59 -39q-7 -4 -11.5 -6.5t-8.5 -2.5q-7 0 -11.5 3.5t-12.5 11.5zM539 878q-58 0 -100.5 -14t-70.5 -36.5t-42 -51t-14 -57.5q0 -12 5 -36.5t29.5 -50.5t75.5 -48.5t143 -31.5h14q58 0 100 14t69 36.5t40 51 t13 57.5q0 20 -4 36.5t-9 31.5q-14 16 -39 34t-57 32t-71 23.5t-82 9.5z" />
<glyph unicode="&#xa8;" horiz-adv-x="884" d="M138 1267q0 26 10 49t27 40t39.5 27t48.5 10q27 0 50 -10t40 -27t26.5 -40t9.5 -49t-9.5 -48.5t-26.5 -39.5t-40 -27t-50 -10q-26 0 -48.5 10t-39.5 27t-27 39.5t-10 48.5zM510 1269q0 26 10 49t27 40t39.5 27t48.5 10q27 0 50 -10t40 -27t26.5 -40t9.5 -49t-9.5 -48.5 t-26.5 -39.5t-40 -27t-50 -10q-26 0 -48.5 10t-39.5 27t-27 39.5t-10 48.5z" />
<glyph unicode="&#xa9;" horiz-adv-x="1756" d="M880 1505q104 0 201 -27t181.5 -77t154 -119.5t119.5 -155t77.5 -183.5t27.5 -204q0 -104 -27 -201t-77 -181.5t-119.5 -154t-154.5 -119.5t-183 -77.5t-204 -27.5q-104 0 -201 27t-181.5 77t-154.5 119.5t-120 155t-77.5 183.5t-27.5 204q0 104 27 200.5t77 181 t119.5 154.5t155 120t183.5 77.5t204 27.5zM572 1269q-112 -66 -186.5 -164t-106.5 -211t-19 -234t77 -233q41 -70 98.5 -126t127 -96t147.5 -61.5t158.5 -22t161 21t154.5 68.5q75 42 133.5 101t99 128t62 146t23 157t-18.5 159t-62 152q-64 111 -162 182.5t-212.5 100.5 t-237.5 13t-237 -81zM1142 1122q23 -17 13 -40l-59 -99q-17 -23 -40 -6q-76 55 -172 55q-61 0 -114 -23t-92.5 -62.5t-62.5 -93t-23 -114.5q0 -62 23 -115t62.5 -92t92.5 -61t114 -22q50 0 93 13t81 42q24 16 40 -7l59 -99q10 -20 -13 -37q-115 -79 -260 -79q-95 0 -178 36 t-145 98t-98 145t-36 178t37 178.5t100 146t147.5 99t179.5 36.5q72 0 132.5 -19.5t118.5 -57.5z" />
<glyph unicode="&#xaa;" horiz-adv-x="1023" d="M854 795q0 -8 -2 -12q-8 -4 -14 -4h-119q-20 0 -20 16v94q-41 -57 -92 -91t-121 -34q-76 0 -143 28.5t-116.5 78t-78 116.5t-28.5 143t28.5 143t78 116.5t116.5 78t143 28.5q77 0 130 -38t86 -104l27 111q0 20 19 20h90q7 0 15 -4q1 -2 1 -13v-673zM852 783q2 0 3 1 l-4 -4q1 1 1 3zM266 1130q0 -46 17 -85.5t46 -69t69 -46t86 -16.5t85.5 16.5t69 46t46 69t16.5 85.5v9q-2 44 -20 82t-47 66.5t-67.5 45t-82.5 16.5q-46 0 -86 -17t-69 -46t-46 -69.5t-17 -86.5z" />
<glyph unicode="&#xab;" horiz-adv-x="1379" d="M143 528q-5 5 -8 14.5t-3 16.5q0 13 13 26l521 519q5 5 15.5 8t17.5 3q18 0 31 -13l53 -55q13 -13 13 -28q0 -7 -2 -17.5t-9 -15.5l-429 -432l429 -429q5 -5 8 -15.5t3 -17.5q0 -18 -13 -30l-57 -58q-5 -5 -12 -8t-15 -3q-18 0 -34.5 15t-31.5 29l-245 245t-245 246z M599 528q-5 5 -8 14.5t-3 16.5q0 13 13 26l521 519q5 5 15.5 8t17.5 3q18 0 31 -13l53 -55q13 -13 13 -28q0 -7 -2 -17.5t-9 -15.5l-429 -432l429 -429q5 -5 8 -15.5t3 -17.5q0 -18 -13 -30l-57 -58q-5 -5 -12 -8t-15 -3q-18 0 -34.5 15t-31.5 29l-245 245t-245 246z" />
<glyph unicode="&#xac;" horiz-adv-x="1162" d="M968 373q0 -13 -9 -22.5t-24 -9.5h-89q-15 0 -26.5 9t-11.5 23v265h-631q-35 0 -35 34v92q0 32 35 32h758q15 0 24 -8t9 -24v-391z" />
<glyph unicode="&#xad;" horiz-adv-x="1057" d="M855 639q18 0 31 -11.5t13 -32.5v-84q0 -18 -12 -32t-32 -14h-637q-47 0 -47 46v84q0 44 47 44h637z" />
<glyph unicode="&#xae;" horiz-adv-x="1756" d="M880 1505q104 0 201 -27t181.5 -77t154 -119.5t119.5 -155t77.5 -183.5t27.5 -204q0 -104 -27 -201t-77 -181.5t-119.5 -154t-154.5 -119.5t-183 -77.5t-204 -27.5q-104 0 -201 27t-181.5 77t-154.5 119.5t-120 155t-77.5 183.5t-27.5 204q0 104 27 200.5t77 181 t119.5 154.5t155 120t183.5 77.5t204 27.5zM572 1269q-112 -66 -186.5 -164t-106.5 -211t-19 -234t77 -233q41 -70 98.5 -126t127 -96t147.5 -61.5t158.5 -22t161 21t154.5 68.5q75 42 133.5 101t99 128t62 146t23 157t-18.5 159t-62 152q-64 111 -162 182.5t-212.5 100.5 t-237.5 13t-237 -81zM559 1135q0 29 26 29h348q56 -3 105 -25t85 -59t57 -86t21 -105q0 -78 -36.5 -140t-97.5 -100l143 -301q0 -2 1 -3.5t1 -3.5q0 -20 -26 -20h-123q-15 0 -22 18l-126 275h-198v-269q0 -24 -26 -24h-106q-11 0 -18.5 5.5t-7.5 18.5v790zM1045 891 q0 22 -8.5 43.5t-23.5 38t-36.5 27t-48.5 10.5h-211v-240h211q26 0 47.5 9.5t37 25.5t24 38t8.5 48z" />
<glyph unicode="&#xaf;" horiz-adv-x="975" d="M100 1312q0 35 36 35h701q36 0 36 -35v-77q0 -11 -8.5 -25t-27.5 -14h-701q-36 0 -36 39v77z" />
<glyph unicode="&#xb0;" horiz-adv-x="651" d="M326 1261q46 0 86 -17t70 -47t47 -70t17 -86q0 -47 -17.5 -87.5t-47.5 -70t-70 -46t-85 -16.5t-85 16.5t-70 46t-47.5 70t-17.5 87.5q0 46 17 86t46.5 70t69.5 47t87 17zM326 1164q-27 0 -49.5 -9.5t-39 -26.5t-26 -39.5t-9.5 -47.5q0 -54 35 -89t89 -35q25 0 47.5 9.5 t39.5 26t26.5 39t9.5 49.5q0 25 -9.5 47.5t-26.5 39.5t-39.5 26.5t-47.5 9.5z" />
<glyph unicode="&#xb1;" horiz-adv-x="994" d="M582 317q0 -18 -11.5 -31t-32.5 -13h-82q-19 0 -33.5 12t-14.5 32v234h-232q-45 0 -45 46v84q0 44 45 44h232v233q0 46 48 46h82q44 0 44 -46v-233h235q18 0 31 -11t13 -33v-84q0 -18 -12 -32t-32 -14h-235v-234zM817 174q18 0 31 -11.5t13 -32.5v-84q0 -18 -12 -32 t-32 -14h-641q-45 0 -45 46v84q0 44 45 44h641z" />
<glyph unicode="&#xb2;" horiz-adv-x="836" d="M414 1355q-35 0 -65.5 -17t-47.5 -46l-23 -39q-7 -13 -20 -13q-7 0 -14 4l-87 51q-12 7 -12 19q0 8 3 14l23 39q38 64 102 97t133 33q58 0 111 -17t93 -49.5t63.5 -80t23.5 -107.5t-24 -107.5t-59 -79.5l-247 -249h304q26 0 26 -26v-92q0 -12 -7.5 -19.5t-18.5 -7.5h-506 q-11 0 -20 7.5t-9 19.5v83q0 2 1.5 5t3.5 8l358 368q24 25 32 43t8 43q0 23 -10 44t-27 37t-40 25.5t-48 9.5z" />
<glyph unicode="&#xb3;" horiz-adv-x="757" d="M306 801q26 0 49 9t40.5 25t28 39t10.5 50q0 25 -10 48t-27 40t-41.5 27t-52.5 10q-26 0 -26 24v87q0 26 27 26q19 0 34.5 8t26.5 20t17.5 27t6.5 29q0 33 -22.5 60t-62.5 27q-20 0 -36 -7.5t-28 -19.5t-20.5 -27t-12.5 -30q-4 -14 -19 -14q-6 0 -9 2l-76 35 q-7 3 -12 7.5t-5 13.5q0 4 1.5 9t3.5 10q12 35 33 64.5t49 51t62.5 33.5t73.5 12q43 0 83 -17t71 -47t49 -70t18 -85q0 -44 -17.5 -80.5t-44.5 -63.5q25 -18 47 -39t38.5 -47t25.5 -57t9 -69q0 -56 -21.5 -104t-58.5 -83.5t-87 -56t-107 -20.5q-55 0 -102 17.5t-83 48 t-60 72t-33 90.5q-1 4 -1 12t4 14.5t15 9.5l78 18q3 1 8 2t9 1q8 0 11.5 -2t5.5 -6.5t3.5 -12t4.5 -18.5q20 -48 54 -75.5t78 -27.5z" />
<glyph unicode="&#xb4;" horiz-adv-x="497" d="M322 1216q-19 -42 -53 -42h-73q-20 0 -26.5 7t-6.5 21q2 7 3.5 14t7.5 22l88 205q12 22 23.5 32t30.5 10h80q13 0 21.5 -3.5t8.5 -15.5q0 -5 -2.5 -14t-10.5 -26z" />
<glyph unicode="&#xb5;" horiz-adv-x="1245" d="M588 153q48 0 93.5 19t81.5 51t59.5 75.5t26.5 93.5v548q0 22 12 33t32 11h82q47 0 47 -44v-891q0 -20 -13 -32t-32 -12h-75q-20 0 -32 12t-14 32l-7 90q-22 -27 -50.5 -53.5t-63 -47.5t-74 -34.5t-81.5 -13.5q-41 0 -76.5 10t-66 27.5t-56 40.5t-46.5 48v-457 q0 -20 -13.5 -32.5t-32.5 -12.5h-82q-22 0 -33.5 12.5t-11.5 32.5v1279q0 44 45 44h84q44 0 44 -44v-548q3 -49 23.5 -92t54 -75t77 -50.5t90.5 -19.5h8z" />
<glyph unicode="&#xb6;" horiz-adv-x="1397" d="M1251 1483q13 0 22.5 -8.5t9.5 -24.5v-105q0 -14 -9 -24.5t-23 -10.5h-165v-1277q0 -33 -35 -33h-105q-33 0 -33 33v1277h-241v-1277q0 -33 -34 -33h-106q-15 0 -24 8t-9 25v649q-89 0 -167 31.5t-136 86t-92 127t-34 154.5q0 83 31.5 156t86 128t127.5 86.5t155 31.5 h458q2 0 4 0.5t4 0.5q4 1 10 1h105h6.5t8.5 -2h185z" />
<glyph unicode="&#xb7;" horiz-adv-x="455" d="M110 553q0 26 10 49t27 40t39.5 27t48.5 10q27 0 50 -10t40 -27t26.5 -40t9.5 -49t-9.5 -48.5t-26.5 -39.5t-40 -27t-50 -10q-26 0 -48.5 10t-39.5 27t-27 39.5t-10 48.5z" />
<glyph unicode="&#xb8;" horiz-adv-x="557" d="M290 -6q0 -20 8.5 -42t38.5 -42q26 -17 50.5 -33.5t44 -38.5t31.5 -50.5t12 -68.5q-5 -66 -62.5 -117t-178.5 -86q-8 -2 -14 -2q-14 0 -24.5 10t-18 24.5t-11.5 30t-4 27.5q0 21 20 28q69 14 108 41t39 58q0 17 -7 29.5t-19 23t-27.5 20t-32.5 20.5q-20 9 -38 23.5 t-31 33.5t-20.5 41t-7.5 46v34q0 20 8 23.5t23 3.5h86q20 0 23.5 -12.5t3.5 -24.5z" />
<glyph unicode="&#xb9;" horiz-adv-x="469" d="M57 1404q0 21 24 35l88 44q6 4 18 4h99q26 0 26 -24v-768q0 -24 -24 -24h-101q-24 0 -24 22v638l-75 -37q-2 -3 -7 -3q-2 0 -2 -2q-11 0 -16.5 7.5t-5.5 19.5v88z" />
<glyph unicode="&#xba;" horiz-adv-x="1023" d="M118 1137q0 76 28.5 143t78 116.5t116.5 78t143 28.5t143 -28.5t116.5 -78t78 -116.5t28.5 -143t-28.5 -143t-78 -116.5t-116.5 -78t-143 -28.5t-143 28.5t-116.5 78t-78 116.5t-28.5 143zM264 1137q0 -45 17.5 -85t47 -69.5t69 -46.5t84.5 -17q46 0 85.5 17t69 46.5 t46 69.5t16.5 85t-16.5 85t-46 69.5t-69 46.5t-85.5 17q-45 0 -84.5 -17t-69 -46.5t-47 -69.5t-17.5 -85z" />
<glyph unicode="&#xbb;" horiz-adv-x="1382" d="M1251 528q-124 -125 -245.5 -246t-245.5 -245q-14 -14 -30.5 -29t-35.5 -15q-8 0 -14.5 3t-11.5 8l-57 58q-13 12 -13 30q0 7 3 17.5t8 15.5l429 429l-429 432q-7 5 -9 15.5t-2 17.5q0 15 13 28l53 55q12 13 30 13q7 0 17.5 -3t15.5 -8l522 -519q13 -13 13 -26 q0 -7 -3 -16.5t-8 -14.5zM795 528q-124 -125 -245.5 -246t-245.5 -245q-14 -14 -30.5 -29t-35.5 -15q-8 0 -14.5 3t-11.5 8l-57 58q-13 12 -13 30q0 7 3 17.5t8 15.5l429 429l-429 432q-7 5 -9 15.5t-2 17.5q0 15 13 28l53 55q12 13 30 13q7 0 17.5 -3t15.5 -8l522 -519 q13 -13 13 -26q0 -7 -3 -16.5t-8 -14.5z" />
<glyph unicode="&#xbc;" horiz-adv-x="1485" d="M754 121q-17 0 -24 10.5t-7 22.5q0 7 2.5 13t6.5 13l371 634q7 11 11.5 14t10.5 3h104q10 0 16 -9t6 -17v-530h81q12 0 21.5 -5.5t9.5 -18.5v-104q0 -10 -9.5 -18t-21.5 -8h-81v-99q0 -12 -6 -18t-21 -6h-99q-24 0 -24 24v99h-347zM1101 275v270l-156 -270h156zM111 1404 q0 21 24 35l88 44q6 4 18 4h99q26 0 26 -24v-768q0 -24 -24 -24h-101q-24 0 -24 22v638l-75 -37q-2 -3 -7 -3q-2 0 -2 -2q-11 0 -16.5 7.5t-5.5 19.5v88zM960 1441q8 18 23.5 31t40.5 13h48q20 0 35 -8t15 -23q0 -11 -2 -13l-763 -1397q-12 -25 -21.5 -34.5t-31.5 -9.5h-70 q-42 0 -42 26q0 -2 1 2.5t3 15.5z" />
<glyph unicode="&#xbd;" horiz-adv-x="1485" d="M960 1441q8 18 23.5 31t40.5 13h48q20 0 35 -8t15 -23q0 -11 -2 -13l-763 -1397q-12 -25 -21.5 -34.5t-31.5 -9.5h-70q-42 0 -42 26q0 -2 1 2.5t3 15.5zM111 1404q0 21 24 35l88 44q6 4 18 4h99q26 0 26 -24v-768q0 -24 -24 -24h-101q-24 0 -24 22v638l-75 -37 q-2 -3 -7 -3q-2 0 -2 -2q-11 0 -16.5 7.5t-5.5 19.5v88zM1116 692q-35 0 -65.5 -17t-47.5 -46l-23 -39q-7 -13 -20 -13q-7 0 -14 4l-87 51q-12 7 -12 19q0 8 3 14l23 39q38 64 102 97t133 33q58 0 111 -17t93 -49.5t63.5 -80t23.5 -107.5t-24 -107.5t-59 -79.5l-247 -249 h304q26 0 26 -26v-92q0 -12 -7.5 -19.5t-18.5 -7.5h-506q-11 0 -20 7.5t-9 19.5v83q0 2 1.5 5t3.5 8l358 368q24 25 32 43t8 43q0 23 -10 44t-27 37t-40 25.5t-48 9.5z" />
<glyph unicode="&#xbe;" horiz-adv-x="1533" d="M1102 1441q8 18 23.5 31t40.5 13h48q20 0 35 -8t15 -23q0 -11 -2 -13l-763 -1397q-12 -25 -21.5 -34.5t-31.5 -9.5h-70q-42 0 -42 26q0 -2 1 2.5t3 15.5zM297 823q26 0 49 9t40.5 25t28 39t10.5 50q0 25 -10 48t-27 40t-41.5 27t-52.5 10q-26 0 -26 24v87q0 26 27 26 q19 0 34.5 8t26.5 20t17.5 27t6.5 29q0 33 -22.5 60t-62.5 27q-20 0 -36 -7.5t-28 -19.5t-20.5 -27t-12.5 -30q-4 -14 -19 -14q-6 0 -9 2l-76 35q-7 3 -12 7.5t-5 13.5q0 4 1.5 9t3.5 10q12 35 33 64.5t49 51t62.5 33.5t73.5 12q43 0 83 -17t71 -47t49 -70t18 -85 q0 -44 -17.5 -80.5t-44.5 -63.5q25 -18 47 -39t38.5 -47t25.5 -57t9 -69q0 -56 -21.5 -104t-58.5 -83.5t-87 -56t-107 -20.5q-55 0 -102 17.5t-83 48t-60 72t-33 90.5q-1 4 -1 12t4 14.5t15 9.5l78 18q3 1 8 2t9 1q8 0 11.5 -2t5.5 -6.5t3.5 -12t4.5 -18.5q20 -48 54 -75.5 t78 -27.5zM810 123q-17 0 -24 10.5t-7 22.5q0 7 2.5 13t6.5 13l371 634q7 11 11.5 14t10.5 3h104q10 0 16 -9t6 -17v-530h81q12 0 21.5 -5.5t9.5 -18.5v-104q0 -10 -9.5 -18t-21.5 -8h-81v-99q0 -12 -6 -18t-21 -6h-99q-24 0 -24 24v99h-347zM1157 277v270l-156 -270h156z " />
<glyph unicode="&#xbf;" horiz-adv-x="1137" d="M482.039 599.023q0 16.999 9.99902 26.498q10 9.49902 22.999 9.49902h107.993q15.999 0 24.999 -10.999q8.99902 -10.999 8.99902 -24.998v-163.99q0 -51.9971 -17.499 -92.9941q-17.499 -40.998 -45.9971 -74.4961t-64.9961 -61.9961t-74.4951 -55.4961 q-39.998 -27.998 -77.9951 -57.4971q-37.998 -29.498 -67.4961 -63.9961q-29.498 -34.4971 -47.4971 -76.9951q-17.999 -42.4971 -17.999 -97.4941q0 -64.9961 24.998 -118.992q24.999 -53.9971 68.4961 -92.9941q43.4971 -38.998 101.494 -60.4971 q57.9961 -21.498 124.992 -21.498q50.9971 0 106.493 17.499q55.4971 17.498 101.994 53.9961t76.4951 92.4941q29.998 55.9971 29.998 132.992v23.999q0 16.999 10 25.498q9.99902 8.49902 22.998 8.49902h105.994q16.999 0 25.498 -10.999t8.49902 -21.999v-14.999 q0 -110.993 -40.4971 -197.987q-40.4971 -86.9951 -107.993 -146.991t-155.99 -91.4941q-88.4951 -31.498 -185.489 -31.498q-101.993 0 -190.988 31.998q-88.9941 31.998 -155.49 89.4941q-66.4961 57.4971 -104.494 137.991q-37.9971 80.4951 -37.9971 176.489 q0 82.9951 23.998 147.491q23.999 64.4961 60.9961 114.993q36.998 50.4971 81.4951 87.9951q44.4971 37.4971 86.4951 66.4951q30.998 21.999 59.4961 43.998q28.498 21.998 49.9971 45.9971q21.499 23.998 34.498 51.4971q12.999 27.498 12.999 60.4961v144.991z M689.026 884.006q0 -25.998 -9.99902 -48.9971q-10 -22.999 -26.999 -39.998t-39.4971 -26.998q-22.499 -9.99902 -48.4971 -9.99902q-26.998 0 -49.9971 9.99902q-22.998 9.99902 -39.9971 26.998t-26.499 39.998q-9.49902 22.999 -9.49902 48.9971t9.49902 48.4971 q9.5 22.498 26.499 39.4971t39.9971 26.999q22.999 9.99902 49.9971 9.99902q25.998 0 48.4971 -9.99902q22.498 -10 39.4971 -26.999t26.999 -39.4971q9.99902 -22.499 9.99902 -48.4971z" />
<glyph unicode="&#xc0;" horiz-adv-x="1396" d="M1102 203h-809l-66 -161q-8 -20 -21.5 -31t-34.5 -11h-74q-24 0 -32 10t-8 23q0 8 2 15.5t4 12.5l605 1447q3 8 10 17.5t21 9.5q12 0 19 -7.5t12 -19.5l605 -1454q2 -1 3 -9.5t1 -12.5q0 -32 -40 -32h-75q-20 0 -34 11t-21 28zM360 366h675l-333 815q-1 1 -1 2l-2 2 q-3 0 -4 -4zM531 1773q-4 9 -8 20t-4 21.5t5 17.5t20 7h62q26 0 41 -7.5t33 -34.5l75 -116q7 -11 11 -23t3.5 -23t-8 -18t-22.5 -7h-76q-17 0 -29.5 10.5t-24.5 29.5z" />
<glyph unicode="&#xc1;" horiz-adv-x="1396" d="M1102 203h-809l-66 -161q-8 -20 -21.5 -31t-34.5 -11h-74q-24 0 -32 10t-8 23q0 8 2 15.5t4 12.5l605 1447q3 8 10 17.5t21 9.5q12 0 19 -7.5t12 -19.5l605 -1454q2 -1 3 -9.5t1 -12.5q0 -32 -40 -32h-75q-20 0 -34 11t-21 28zM360 366h675l-333 815q-1 1 -1 2l-2 2 q-3 0 -4 -4zM788 1650q-12 -19 -24.5 -29.5t-29.5 -10.5h-76q-15 0 -22.5 7t-8 18t3.5 23t11 23l75 116q18 27 33 34.5t41 7.5h62q15 0 20 -7t5 -17.5t-4 -21.5t-8 -20z" />
<glyph unicode="&#xc2;" horiz-adv-x="1396" d="M1102 203h-809l-66 -161q-8 -20 -21.5 -31t-34.5 -11h-74q-24 0 -32 10t-8 23q0 8 2 15.5t4 12.5l605 1447q3 8 10 17.5t21 9.5q12 0 19 -7.5t12 -19.5l605 -1454q2 -1 3 -9.5t1 -12.5q0 -32 -40 -32h-75q-20 0 -34 11t-21 28zM360 366h675l-333 815q-1 1 -1 2l-2 2 q-3 0 -4 -4zM706 1917q5 0 14 -2t14 -8l193 -195q10 -12 10 -27q0 -16 -10 -26l-42 -42q-11 -11 -30 -11q-8 0 -15.5 2.5t-12.5 7.5l-121 118l-121 -118q-5 -5 -12.5 -7.5t-15.5 -2.5q-19 0 -30 11l-42 42q-10 10 -10 26q0 15 10 27l193 195q5 6 14 8t14 2z" />
<glyph unicode="&#xc3;" horiz-adv-x="1396" d="M1102 203h-809l-66 -161q-8 -20 -21.5 -31t-34.5 -11h-74q-24 0 -32 10t-8 23q0 8 2 15.5t4 12.5l605 1447q3 8 10 17.5t21 9.5q12 0 19 -7.5t12 -19.5l605 -1454q2 -1 3 -9.5t1 -12.5q0 -32 -40 -32h-75q-20 0 -34 11t-21 28zM360 366h675l-333 815q-1 1 -1 2l-2 2 q-3 0 -4 -4zM487 1637q-7 -7 -15 -7t-19 8t-23.5 20t-20.5 19q-5 5 -6.5 8.5t-1.5 10.5q0 5 6 14.5t7 11.5q42 59 90 83t106 24q30 0 61 -12t59 -32l55 -38q31 -21 67 -21q42 0 72 28q10 9 20.5 24.5t20.5 25.5q5 7 15 7q7 0 18 -8t23.5 -20t20.5 -18q5 -6 6.5 -9.5 t1.5 -10.5q0 -5 -6 -15t-7 -10q-42 -59 -89.5 -83.5t-105.5 -24.5q-31 0 -62 12t-59 32l-55 38q-30 21 -67 21q-44 0 -72 -28q-9 -9 -19.5 -24.5t-20.5 -25.5z" />
<glyph unicode="&#xc4;" horiz-adv-x="1396" d="M1102 203h-809l-66 -161q-8 -20 -21.5 -31t-34.5 -11h-74q-24 0 -32 10t-8 23q0 8 2 15.5t4 12.5l605 1447q3 8 10 17.5t21 9.5q12 0 19 -7.5t12 -19.5l605 -1454q2 -1 3 -9.5t1 -12.5q0 -32 -40 -32h-75q-20 0 -34 11t-21 28zM360 366h675l-333 815q-1 1 -1 2l-2 2 q-3 0 -4 -4zM400 1720q0 26 10 49t27 40t39.5 27t48.5 10q27 0 50 -10t40 -27t26.5 -40t9.5 -49t-9.5 -48.5t-26.5 -39.5t-40 -27t-50 -10q-26 0 -48.5 10t-39.5 27t-27 39.5t-10 48.5zM772 1722q0 26 10 49t27 40t39.5 27t48.5 10q27 0 50 -10t40 -27t26.5 -40t9.5 -49 t-9.5 -48.5t-26.5 -39.5t-40 -27t-50 -10q-26 0 -48.5 10t-39.5 27t-27 39.5t-10 48.5z" />
<glyph unicode="&#xc5;" horiz-adv-x="1396" d="M1102 203h-809l-66 -161q-8 -20 -21.5 -31t-34.5 -11h-74q-24 0 -32 10t-8 23q0 8 2 15.5t4 12.5l605 1447q3 8 10 17.5t21 9.5q12 0 19 -7.5t12 -19.5l605 -1454q2 -1 3 -9.5t1 -12.5q0 -32 -40 -32h-75q-20 0 -34 11t-21 28zM360 366h675l-333 815q-1 1 -1 2l-2 2 q-3 0 -4 -4zM700 1858q43 0 81.5 -16.5t67.5 -45.5t45.5 -67.5t16.5 -81.5q0 -44 -16.5 -82t-45.5 -66.5t-67.5 -44.5t-81.5 -16q-44 0 -82 16t-66.5 44.5t-44.5 66.5t-16 82q0 43 16 81.5t44.5 67.5t66.5 45.5t82 16.5zM700 1752q-23 0 -42 -8t-32.5 -22.5t-21.5 -33.5 t-8 -41q0 -45 29.5 -74.5t74.5 -29.5q22 0 41 8t33.5 21.5t22.5 32.5t8 42q0 45 -30 75t-75 30z" />
<glyph unicode="&#xc6;" horiz-adv-x="2303" d="M271 40q-17 -21 -33.5 -30.5t-33.5 -9.5h-131q-34 0 -34 19q0 7 3 14t6.5 12.5t6.5 9t2 3.5q211 260 372 458.5t280 345t201 246.5t135 165.5t81.5 100.5t42 51.5t16 19.5l2.5 3q8 11 22 24t41 13h953q45 0 45 -47v-81q0 -18 -12 -32t-35 -14h-821v-442h651q18 0 31 -11 t13 -35v-82q0 -18 -11 -32t-33 -14h-651v-521h830q45 0 45 -47v-83q0 -44 -44 -44h-960q-44 0 -44 42v283h-710zM636 495h571v705z" />
<glyph unicode="&#xc7;" horiz-adv-x="1391" d="M1298 132q-101 -72 -215.5 -112.5t-241.5 -40.5q-106 0 -203.5 27.5t-182.5 77t-154.5 119.5t-119.5 154.5t-77 182t-27 202.5t27 202.5t77 182t119.5 154.5t154.5 119.5t182.5 77t203.5 27.5q127 0 241.5 -40.5t215.5 -112.5q22 -16 22 -37q0 -10 -4.5 -17.5t-9.5 -15.5 l-32 -54q-6 -10 -15.5 -15.5t-17.5 -5.5q-5 0 -16 2.5t-24 11.5q-77 56 -163.5 87.5t-180.5 31.5q-88 0 -168 -22t-148.5 -62t-124.5 -95t-95.5 -121t-61 -141t-21.5 -154q0 -120 47 -229t130 -191.5t196.5 -131.5t245.5 -49q94 0 180 31.5t164 87.5q13 9 24 11.5t16 2.5 q8 0 17.5 -5.5t15.5 -15.5l32 -54q5 -8 9.5 -15.5t4.5 -17.5q0 -21 -22 -37zM852 -6q0 -20 8.5 -42t38.5 -42q26 -17 50.5 -33.5t44 -38.5t31.5 -50.5t12 -68.5q-5 -66 -62.5 -117t-178.5 -86q-8 -2 -14 -2q-14 0 -24.5 10t-18 24.5t-11.5 30t-4 27.5q0 21 20 28 q69 14 108 41t39 58q0 17 -7 29.5t-19 23t-27.5 20t-32.5 20.5q-20 9 -38 23.5t-31 33.5t-20.5 41t-7.5 46v34q0 20 8 23.5t23 3.5h86q20 0 23.5 -12.5t3.5 -24.5z" />
<glyph unicode="&#xc8;" horiz-adv-x="1301" d="M1167 1485q46 0 46 -46v-70q0 -19 -12 -33t-35 -14h-842v-670h671q18 0 31 -11t13 -35v-71q0 -18 -11.5 -32t-32.5 -14h-671v-326h853q45 0 45 -46v-72q0 -20 -11.5 -32.5t-32.5 -12.5h-974q-44 0 -44 43v1397q0 21 11.5 33t32.5 12h963zM473 1774q-4 9 -8 20t-4 21.5 t5 17.5t20 7h62q26 0 41 -7.5t33 -34.5l75 -116q7 -11 11 -23t3.5 -23t-8 -18t-22.5 -7h-76q-17 0 -29.5 10.5t-24.5 29.5z" />
<glyph unicode="&#xc9;" horiz-adv-x="1301" d="M1167 1485q46 0 46 -46v-70q0 -19 -12 -33t-35 -14h-842v-670h671q18 0 31 -11t13 -35v-71q0 -18 -11.5 -32t-32.5 -14h-671v-326h853q45 0 45 -46v-72q0 -20 -11.5 -32.5t-32.5 -12.5h-974q-44 0 -44 43v1397q0 21 11.5 33t32.5 12h963zM731 1652q-12 -19 -24.5 -29.5 t-29.5 -10.5h-76q-15 0 -22.5 7t-8 18t3.5 23t11 23l75 116q18 27 33 34.5t41 7.5h62q15 0 20 -7t5 -17.5t-4 -21.5t-8 -20z" />
<glyph unicode="&#xca;" horiz-adv-x="1301" d="M1167 1485q46 0 46 -46v-70q0 -19 -12 -33t-35 -14h-842v-670h671q18 0 31 -11t13 -35v-71q0 -18 -11.5 -32t-32.5 -14h-671v-326h853q45 0 45 -46v-72q0 -20 -11.5 -32.5t-32.5 -12.5h-974q-44 0 -44 43v1397q0 21 11.5 33t32.5 12h963zM697 1895q5 0 14 -2t14 -8 l193 -195q10 -12 10 -27q0 -16 -10 -26l-42 -42q-11 -11 -30 -11q-8 0 -15.5 2.5t-12.5 7.5l-121 118l-121 -118q-5 -5 -12.5 -7.5t-15.5 -2.5q-19 0 -30 11l-42 42q-10 10 -10 26q0 15 10 27l193 195q5 6 14 8t14 2z" />
<glyph unicode="&#xcb;" horiz-adv-x="1301" d="M1167 1485q46 0 46 -46v-70q0 -19 -12 -33t-35 -14h-842v-670h671q18 0 31 -11t13 -35v-71q0 -18 -11.5 -32t-32.5 -14h-671v-326h853q45 0 45 -46v-72q0 -20 -11.5 -32.5t-32.5 -12.5h-974q-44 0 -44 43v1397q0 21 11.5 33t32.5 12h963zM431 1721q0 26 10 49t27 40 t39.5 27t48.5 10q27 0 50 -10t40 -27t26.5 -40t9.5 -49t-9.5 -48.5t-26.5 -39.5t-40 -27t-50 -10q-26 0 -48.5 10t-39.5 27t-27 39.5t-10 48.5zM803 1723q0 26 10 49t27 40t39.5 27t48.5 10q27 0 50 -10t40 -27t26.5 -40t9.5 -49t-9.5 -48.5t-26.5 -39.5t-40 -27t-50 -10 q-26 0 -48.5 10t-39.5 27t-27 39.5t-10 48.5z" />
<glyph unicode="&#xcc;" horiz-adv-x="486" d="M159 1441q0 18 11 31t33 13h72q18 0 32 -12t14 -32v-1396q0 -45 -46 -45h-72q-44 0 -44 45v1396zM70 1773q-4 9 -8 20t-4 21.5t5 17.5t20 7h62q26 0 41 -7.5t33 -34.5l75 -116q7 -11 11 -23t3.5 -23t-8 -18t-22.5 -7h-76q-17 0 -29.5 10.5t-24.5 29.5z" />
<glyph unicode="&#xcd;" horiz-adv-x="486" d="M159 1441q0 18 11 31t33 13h72q18 0 32 -12t14 -32v-1396q0 -45 -46 -45h-72q-44 0 -44 45v1396zM345 1650q-12 -19 -24.5 -29.5t-29.5 -10.5h-76q-15 0 -22.5 7t-8 18t3.5 23t11 23l75 116q18 27 33 34.5t41 7.5h62q15 0 20 -7t5 -17.5t-4 -21.5t-8 -20z" />
<glyph unicode="&#xce;" horiz-adv-x="486" d="M159 1441q0 18 11 31t33 13h72q18 0 32 -12t14 -32v-1396q0 -45 -46 -45h-72q-44 0 -44 45v1396zM243 1889q5 0 14 -2t14 -8l193 -195q10 -12 10 -27q0 -16 -10 -26l-42 -42q-11 -11 -30 -11q-8 0 -15.5 2.5t-12.5 7.5l-121 118l-121 -118q-5 -5 -12.5 -7.5t-15.5 -2.5 q-19 0 -30 11l-42 42q-10 10 -10 26q0 15 10 27l193 195q5 6 14 8t14 2z" />
<glyph unicode="&#xcf;" horiz-adv-x="488" d="M159 1441q0 18 11 31t33 13h72q18 0 32 -12t14 -32v-1396q0 -45 -46 -45h-72q-44 0 -44 45v1396zM-66 1719q0 26 10 49t27 40t39.5 27t48.5 10q27 0 50 -10t40 -27t26.5 -40t9.5 -49t-9.5 -48.5t-26.5 -39.5t-40 -27t-50 -10q-26 0 -48.5 10t-39.5 27t-27 39.5t-10 48.5z M306 1721q0 26 10 49t27 40t39.5 27t48.5 10q27 0 50 -10t40 -27t26.5 -40t9.5 -49t-9.5 -48.5t-26.5 -39.5t-40 -27t-50 -10q-26 0 -48.5 10t-39.5 27t-27 39.5t-10 48.5z" />
<glyph unicode="&#xd0;" horiz-adv-x="1544" d="M161 1436q0 23 12.5 35.5t33.5 12.5h470q104 0 199.5 -26.5t178 -74.5t149.5 -115.5t115 -150t74 -178t26 -198.5q0 -102 -26.5 -197t-74.5 -177t-116 -150t-150 -116t-177 -74.5t-198 -26.5h-470q-19 0 -32.5 10t-13.5 33v1393zM670 161q86 0 162.5 22t142.5 61 t118.5 94t89.5 120.5t57 140.5t20 155q0 129 -47.5 234.5t-127.5 180t-186 115.5t-223 41h-352v-1164h346zM30 639q0 35 36 35h701q36 0 36 -35v-77q0 -11 -8.5 -25t-27.5 -14h-701q-36 0 -36 39v77z" />
<glyph unicode="&#xd1;" horiz-adv-x="1560" d="M323 1146v-1101q0 -45 -46 -45h-71q-44 0 -44 45v1438q0 4 0.5 10.5t3.5 13t9 11.5t17 5q16 0 26 -13l1021 -1171v1101q0 45 46 45h71q44 0 44 -45v-1438q0 -4 -0.5 -10.5t-3.5 -13t-9 -11.5t-17 -5q-16 0 -26 13zM520 1637q-7 -7 -15 -7t-19 8t-23.5 20t-20.5 19 q-5 5 -6.5 8.5t-1.5 10.5q0 5 6 14.5t7 11.5q42 59 90 83t106 24q30 0 61 -12t59 -32l55 -38q31 -21 67 -21q42 0 72 28q10 9 20.5 24.5t20.5 25.5q5 7 15 7q7 0 18 -8t23.5 -20t20.5 -18q5 -6 6.5 -9.5t1.5 -10.5q0 -5 -6 -15t-7 -10q-42 -59 -89.5 -83.5t-105.5 -24.5 q-31 0 -62 12t-59 32l-55 38q-30 21 -67 21q-44 0 -72 -28q-9 -9 -19.5 -24.5t-20.5 -25.5z" />
<glyph unicode="&#xd2;" horiz-adv-x="1683" d="M78 741q0 105 27.5 203t77 183t119 154.5t154.5 119t182.5 77t203.5 27.5q105 0 202.5 -27.5t182.5 -77t154.5 -119t119 -154.5t77 -183t27.5 -203t-27.5 -202.5t-77 -182.5t-119 -154.5t-154.5 -119t-182.5 -77t-202.5 -27.5t-203 27.5t-183 77t-154.5 119t-119 154.5 t-77 182.5t-27.5 202.5zM240 741q0 -125 47 -234t129 -191t191.5 -129t234.5 -47q124 0 233.5 47t191 129t129 191t47.5 234q0 124 -47.5 234t-129 191.5t-191 129t-233.5 47.5q-83 0 -160 -21.5t-144 -61t-122 -94t-94 -121.5t-60.5 -144t-21.5 -160zM668 1774q-4 9 -8 20 t-4 21.5t5 17.5t20 7h62q26 0 41 -7.5t33 -34.5l75 -116q7 -11 11 -23t3.5 -23t-8 -18t-22.5 -7h-76q-17 0 -29.5 10.5t-24.5 29.5z" />
<glyph unicode="&#xd3;" horiz-adv-x="1683" d="M78 741q0 105 27.5 203t77 183t119 154.5t154.5 119t182.5 77t203.5 27.5q105 0 202.5 -27.5t182.5 -77t154.5 -119t119 -154.5t77 -183t27.5 -203t-27.5 -202.5t-77 -182.5t-119 -154.5t-154.5 -119t-182.5 -77t-202.5 -27.5t-203 27.5t-183 77t-154.5 119t-119 154.5 t-77 182.5t-27.5 202.5zM240 741q0 -125 47 -234t129 -191t191.5 -129t234.5 -47q124 0 233.5 47t191 129t129 191t47.5 234q0 124 -47.5 234t-129 191.5t-191 129t-233.5 47.5q-83 0 -160 -21.5t-144 -61t-122 -94t-94 -121.5t-60.5 -144t-21.5 -160zM948 1654 q-12 -19 -24.5 -29.5t-29.5 -10.5h-76q-15 0 -22.5 7t-8 18t3.5 23t11 23l75 116q18 27 33 34.5t41 7.5h62q15 0 20 -7t5 -17.5t-4 -21.5t-8 -20z" />
<glyph unicode="&#xd4;" horiz-adv-x="1683" d="M78 741q0 105 27.5 203t77 183t119 154.5t154.5 119t182.5 77t203.5 27.5q105 0 202.5 -27.5t182.5 -77t154.5 -119t119 -154.5t77 -183t27.5 -203t-27.5 -202.5t-77 -182.5t-119 -154.5t-154.5 -119t-182.5 -77t-202.5 -27.5t-203 27.5t-183 77t-154.5 119t-119 154.5 t-77 182.5t-27.5 202.5zM240 741q0 -125 47 -234t129 -191t191.5 -129t234.5 -47q124 0 233.5 47t191 129t129 191t47.5 234q0 124 -47.5 234t-129 191.5t-191 129t-233.5 47.5q-83 0 -160 -21.5t-144 -61t-122 -94t-94 -121.5t-60.5 -144t-21.5 -160zM844 1898q5 0 14 -2 t14 -8l193 -195q10 -12 10 -27q0 -16 -10 -26l-42 -42q-11 -11 -30 -11q-8 0 -15.5 2.5t-12.5 7.5l-121 118l-121 -118q-5 -5 -12.5 -7.5t-15.5 -2.5q-19 0 -30 11l-42 42q-10 10 -10 26q0 15 10 27l193 195q5 6 14 8t14 2z" />
<glyph unicode="&#xd5;" horiz-adv-x="1683" d="M78 741q0 105 27.5 203t77 183t119 154.5t154.5 119t182.5 77t203.5 27.5q105 0 202.5 -27.5t182.5 -77t154.5 -119t119 -154.5t77 -183t27.5 -203t-27.5 -202.5t-77 -182.5t-119 -154.5t-154.5 -119t-182.5 -77t-202.5 -27.5t-203 27.5t-183 77t-154.5 119t-119 154.5 t-77 182.5t-27.5 202.5zM240 741q0 -125 47 -234t129 -191t191.5 -129t234.5 -47q124 0 233.5 47t191 129t129 191t47.5 234q0 124 -47.5 234t-129 191.5t-191 129t-233.5 47.5q-83 0 -160 -21.5t-144 -61t-122 -94t-94 -121.5t-60.5 -144t-21.5 -160zM628 1634 q-7 -7 -15 -7t-19 8t-23.5 20t-20.5 19q-5 5 -6.5 8.5t-1.5 10.5q0 5 6 14.5t7 11.5q42 59 90 83t106 24q30 0 61 -12t59 -32l55 -38q31 -21 67 -21q42 0 72 28q10 9 20.5 24.5t20.5 25.5q5 7 15 7q7 0 18 -8t23.5 -20t20.5 -18q5 -6 6.5 -9.5t1.5 -10.5q0 -5 -6 -15t-7 -10 q-42 -59 -89.5 -83.5t-105.5 -24.5q-31 0 -62 12t-59 32l-55 38q-30 21 -67 21q-44 0 -72 -28q-9 -9 -19.5 -24.5t-20.5 -25.5z" />
<glyph unicode="&#xd6;" horiz-adv-x="1683" d="M78 741q0 105 27.5 203t77 183t119 154.5t154.5 119t182.5 77t203.5 27.5q105 0 202.5 -27.5t182.5 -77t154.5 -119t119 -154.5t77 -183t27.5 -203t-27.5 -202.5t-77 -182.5t-119 -154.5t-154.5 -119t-182.5 -77t-202.5 -27.5t-203 27.5t-183 77t-154.5 119t-119 154.5 t-77 182.5t-27.5 202.5zM240 741q0 -125 47 -234t129 -191t191.5 -129t234.5 -47q124 0 233.5 47t191 129t129 191t47.5 234q0 124 -47.5 234t-129 191.5t-191 129t-233.5 47.5q-83 0 -160 -21.5t-144 -61t-122 -94t-94 -121.5t-60.5 -144t-21.5 -160zM540 1723q0 26 10 49 t27 40t39.5 27t48.5 10q27 0 50 -10t40 -27t26.5 -40t9.5 -49t-9.5 -48.5t-26.5 -39.5t-40 -27t-50 -10q-26 0 -48.5 10t-39.5 27t-27 39.5t-10 48.5zM912 1725q0 26 10 49t27 40t39.5 27t48.5 10q27 0 50 -10t40 -27t26.5 -40t9.5 -49t-9.5 -48.5t-26.5 -39.5t-40 -27 t-50 -10q-26 0 -48.5 10t-39.5 27t-27 39.5t-10 48.5z" />
<glyph unicode="&#xd7;" horiz-adv-x="933" d="M586 638l171 -171q13 -13 14 -29.5t-14 -32.5l-58 -57q-13 -13 -31.5 -15t-33.5 12l-171 170l-169 -169q-30 -30 -62 0l-57 58q-18 17 -18 33.5t15 31.5l169 169l-169 169q-32 32 3 65l57 58q32 30 62 0l169 -170l171 171q15 14 33.5 12t31.5 -15l58 -57q15 -16 14 -32.5 t-14 -29.5z" />
<glyph unicode="&#xd8;" horiz-adv-x="1703" d="M842 1505q57 0 110.5 -8t105.5 -23l90 207q11 26 24 35t38 9h89q23 0 33.5 -5t10.5 -19q0 -11 -7 -28q-8 -18 -23.5 -54t-33.5 -75.5t-34.5 -77.5t-25.5 -61q86 -49 157 -119t122 -156t79 -185t28 -206q0 -105 -27 -202.5t-77 -182t-119.5 -154t-154.5 -119t-183 -76.5 t-204 -27q-54 0 -105.5 7t-101.5 21l-99 -205q-8 -17 -19.5 -26t-30.5 -9h-105q-34 0 -34 23q0 7 5 20l121 263q-88 49 -160.5 119t-124 156t-80 186t-28.5 208q0 105 27 202.5t77 182.5t119.5 155t154.5 119.5t182.5 77t203.5 27.5zM239 741q0 -125 47 -234t129 -191 t191.5 -129t234.5 -47q124 0 233.5 47t191 129t129 191t47.5 234q0 124 -47.5 234t-129 191.5t-191 129t-233.5 47.5q-83 0 -160 -21.5t-144 -61t-122 -94t-94 -121.5t-60.5 -144t-21.5 -160z" />
<glyph unicode="&#xd9;" horiz-adv-x="1447" d="M275 603q0 -98 32 -183.5t90.5 -149t141 -100t183.5 -36.5q106 0 189 36.5t140.5 100.5t88 149t30.5 183v838q0 18 13.5 31t33.5 13h66q18 0 34.5 -12t16.5 -32v-854q0 -139 -48 -251.5t-131.5 -192.5t-195 -123.5t-237.5 -43.5t-237 48t-194.5 131.5t-131.5 194.5 t-48 237v854q0 15 11.5 29.5t29.5 14.5h77q15 0 30.5 -13t15.5 -31v-838zM561 1774q-4 9 -8 20t-4 21.5t5 17.5t20 7h62q26 0 41 -7.5t33 -34.5l75 -116q7 -11 11 -23t3.5 -23t-8 -18t-22.5 -7h-76q-17 0 -29.5 10.5t-24.5 29.5z" />
<glyph unicode="&#xda;" horiz-adv-x="1447" d="M275 603q0 -98 32 -183.5t90.5 -149t141 -100t183.5 -36.5q106 0 189 36.5t140.5 100.5t88 149t30.5 183v838q0 18 13.5 31t33.5 13h66q18 0 34.5 -12t16.5 -32v-854q0 -139 -48 -251.5t-131.5 -192.5t-195 -123.5t-237.5 -43.5t-237 48t-194.5 131.5t-131.5 194.5 t-48 237v854q0 15 11.5 29.5t29.5 14.5h77q15 0 30.5 -13t15.5 -31v-838zM836 1650q-12 -19 -24.5 -29.5t-29.5 -10.5h-76q-15 0 -22.5 7t-8 18t3.5 23t11 23l75 116q18 27 33 34.5t41 7.5h62q15 0 20 -7t5 -17.5t-4 -21.5t-8 -20z" />
<glyph unicode="&#xdb;" horiz-adv-x="1447" d="M275 603q0 -98 32 -183.5t90.5 -149t141 -100t183.5 -36.5q106 0 189 36.5t140.5 100.5t88 149t30.5 183v838q0 18 13.5 31t33.5 13h66q18 0 34.5 -12t16.5 -32v-854q0 -139 -48 -251.5t-131.5 -192.5t-195 -123.5t-237.5 -43.5t-237 48t-194.5 131.5t-131.5 194.5 t-48 237v854q0 15 11.5 29.5t29.5 14.5h77q15 0 30.5 -13t15.5 -31v-838zM726 1881q5 0 14 -2t14 -8l193 -195q10 -12 10 -27q0 -16 -10 -26l-42 -42q-11 -11 -30 -11q-8 0 -15.5 2.5t-12.5 7.5l-121 118l-121 -118q-5 -5 -12.5 -7.5t-15.5 -2.5q-19 0 -30 11l-42 42 q-10 10 -10 26q0 15 10 27l193 195q5 6 14 8t14 2z" />
<glyph unicode="&#xdc;" horiz-adv-x="1447" d="M275 603q0 -98 32 -183.5t90.5 -149t141 -100t183.5 -36.5q106 0 189 36.5t140.5 100.5t88 149t30.5 183v838q0 18 13.5 31t33.5 13h66q18 0 34.5 -12t16.5 -32v-854q0 -139 -48 -251.5t-131.5 -192.5t-195 -123.5t-237.5 -43.5t-237 48t-194.5 131.5t-131.5 194.5 t-48 237v854q0 15 11.5 29.5t29.5 14.5h77q15 0 30.5 -13t15.5 -31v-838zM463 1721q0 26 10 49t27 40t39.5 27t48.5 10q27 0 50 -10t40 -27t26.5 -40t9.5 -49t-9.5 -48.5t-26.5 -39.5t-40 -27t-50 -10q-26 0 -48.5 10t-39.5 27t-27 39.5t-10 48.5zM835 1723q0 26 10 49 t27 40t39.5 27t48.5 10q27 0 50 -10t40 -27t26.5 -40t9.5 -49t-9.5 -48.5t-26.5 -39.5t-40 -27t-50 -10q-26 0 -48.5 10t-39.5 27t-27 39.5t-10 48.5z" />
<glyph unicode="&#xdd;" horiz-adv-x="1264" d="M67 1433q-11 17 -11 30q0 22 30 22h113q10 -1 16.5 -2t12 -5.5t11 -13t14.5 -23.5q93 -161 186.5 -320t187.5 -320h2l384 650q11 19 21 25.5t25 8.5h121q23 0 23 -17q0 -4 -1 -12t-8 -16q-122 -198 -240.5 -402t-243.5 -402v-589q0 -47 -44 -47h-75q-43 0 -43 47v583z M751 1649q-12 -19 -24.5 -29.5t-29.5 -10.5h-76q-15 0 -22.5 7t-8 18t3.5 23t11 23l75 116q18 27 33 34.5t41 7.5h62q15 0 20 -7t5 -17.5t-4 -21.5t-8 -20z" />
<glyph unicode="&#xde;" horiz-adv-x="1287" d="M204 0q-44 0 -44 45v1395q0 45 45 45h73q44 0 44 -45v-89h224q81 0 157 -21t143.5 -59.5t123 -92.5t96 -121t62.5 -144.5t22 -162.5q0 -123 -47.5 -233t-129.5 -192t-192 -130t-235 -48h-224v-102q0 -45 -45 -45h-73zM322 309h225q88 0 168 33.5t141 93t97 140t36 174.5 t-36 174.5t-98.5 140t-146 93.5t-177.5 34h-209v-883z" />
<glyph unicode="&#xdf;" horiz-adv-x="1153" d="M563 145q66 1 122 22t97 58.5t64 92t23 123.5q0 74 -23.5 130t-66.5 93.5t-103.5 56.5t-134.5 19q-35 0 -35 30v106q0 33 33 33q50 0 91.5 16.5t71.5 45t46.5 66.5t16.5 82t-12.5 84.5t-39.5 71t-68.5 49t-99.5 18.5q-48 0 -87 -14.5t-66 -40.5t-42 -61t-15 -77l-1 -1470 q0 -22 -12 -33t-33 -11h-83q-45 0 -45 44v1463q0 88 33 155t87.5 112t124.5 68t144 23q79 0 149.5 -28t123 -78.5t83 -119.5t30.5 -150q0 -86 -35.5 -157t-101.5 -122q113 -63 178.5 -162t65.5 -244q0 -102 -37 -187.5t-101.5 -147t-153 -96t-190.5 -35.5h-5q-12 0 -19.5 9 t-10.5 19v99q0 21 9 33t28 12z" />
<glyph unicode="&#xe0;" d="M932 820q0 32 3.5 63t6.5 52q2 20 13 32t33 12h62q20 0 32.5 -12t12.5 -32v-885q0 -23 -13 -36.5t-36 -13.5h-56q-47 0 -50 50l-8 114q-26 -43 -64 -77.5t-85.5 -59t-101.5 -37.5t-111 -13q-105 0 -195 40t-156 109.5t-103.5 162.5t-37.5 200q0 106 37.5 199.5t103.5 163 t156 110t195 40.5q67 0 124 -16.5t102.5 -43.5t80 -61.5t55.5 -70.5v10zM241 489q0 -73 27 -137t73.5 -111.5t109.5 -75t135 -27.5q73 0 136.5 28t110.5 76t74.5 112t27.5 137t-27.5 136.5t-74.5 110.5t-110.5 74.5t-136.5 27.5q-72 0 -135 -27.5t-109.5 -75.5t-73.5 -112 t-27 -136zM508 1426q-8 17 -10.5 26t-2.5 14q0 12 8.5 15.5t21.5 3.5h80q19 0 30.5 -10t23.5 -32l88 -205q6 -15 7.5 -22t3.5 -14q0 -14 -6.5 -21t-26.5 -7h-73q-34 0 -53 42z" />
<glyph unicode="&#xe1;" d="M932 820q0 32 3.5 63t6.5 52q2 20 13 32t33 12h62q20 0 32.5 -12t12.5 -32v-885q0 -23 -13 -36.5t-36 -13.5h-56q-47 0 -50 50l-8 114q-26 -43 -64 -77.5t-85.5 -59t-101.5 -37.5t-111 -13q-105 0 -195 40t-156 109.5t-103.5 162.5t-37.5 200q0 106 37.5 199.5t103.5 163 t156 110t195 40.5q67 0 124 -16.5t102.5 -43.5t80 -61.5t55.5 -70.5v10zM241 489q0 -73 27 -137t73.5 -111.5t109.5 -75t135 -27.5q73 0 136.5 28t110.5 76t74.5 112t27.5 137t-27.5 136.5t-74.5 110.5t-110.5 74.5t-136.5 27.5q-72 0 -135 -27.5t-109.5 -75.5t-73.5 -112 t-27 -136zM788 1216q-19 -42 -53 -42h-73q-20 0 -26.5 7t-6.5 21q2 7 3.5 14t7.5 22l88 205q12 22 23.5 32t30.5 10h80q13 0 21.5 -3.5t8.5 -15.5q0 -5 -2.5 -14t-10.5 -26z" />
<glyph unicode="&#xe2;" d="M932 820q0 32 3.5 63t6.5 52q2 20 13 32t33 12h62q20 0 32.5 -12t12.5 -32v-885q0 -23 -13 -36.5t-36 -13.5h-56q-47 0 -50 50l-8 114q-26 -43 -64 -77.5t-85.5 -59t-101.5 -37.5t-111 -13q-105 0 -195 40t-156 109.5t-103.5 162.5t-37.5 200q0 106 37.5 199.5t103.5 163 t156 110t195 40.5q67 0 124 -16.5t102.5 -43.5t80 -61.5t55.5 -70.5v10zM241 489q0 -73 27 -137t73.5 -111.5t109.5 -75t135 -27.5q73 0 136.5 28t110.5 76t74.5 112t27.5 137t-27.5 136.5t-74.5 110.5t-110.5 74.5t-136.5 27.5q-72 0 -135 -27.5t-109.5 -75.5t-73.5 -112 t-27 -136zM955 1258q4 -4 8.5 -11t4.5 -14q0 -8 -4 -13.5t-9 -10.5l-47 -43q-5 -5 -11 -9.5t-13 -4.5q-5 0 -11.5 2t-11.5 9l-190 191l-191 -191q-5 -7 -10 -9t-13 -2q-6 0 -12.5 4.5t-12.5 9.5l-45 43q-5 5 -9.5 10.5t-4.5 13.5q0 7 5 14t9 11l262 263q3 3 9 6.5t13 3.5 q5 0 11.5 -3.5t10.5 -7.5z" />
<glyph unicode="&#xe3;" d="M932 820q0 32 3.5 63t6.5 52q2 20 13 32t33 12h62q20 0 32.5 -12t12.5 -32v-885q0 -23 -13 -36.5t-36 -13.5h-56q-47 0 -50 50l-8 114q-26 -43 -64 -77.5t-85.5 -59t-101.5 -37.5t-111 -13q-105 0 -195 40t-156 109.5t-103.5 162.5t-37.5 200q0 106 37.5 199.5t103.5 163 t156 110t195 40.5q67 0 124 -16.5t102.5 -43.5t80 -61.5t55.5 -70.5v10zM241 489q0 -73 27 -137t73.5 -111.5t109.5 -75t135 -27.5q73 0 136.5 28t110.5 76t74.5 112t27.5 137t-27.5 136.5t-74.5 110.5t-110.5 74.5t-136.5 27.5q-72 0 -135 -27.5t-109.5 -75.5t-73.5 -112 t-27 -136zM438 1184q-7 -7 -15 -7t-19 8t-23.5 20t-20.5 19q-5 5 -6.5 8.5t-1.5 10.5q0 5 6 14.5t7 11.5q42 59 90 83t106 24q30 0 61 -12t59 -32l55 -38q31 -21 67 -21q42 0 72 28q10 9 20.5 24.5t20.5 25.5q5 7 15 7q7 0 18 -8t23.5 -20t20.5 -18q5 -6 6.5 -9.5t1.5 -10.5 q0 -5 -6 -15t-7 -10q-42 -59 -89.5 -83.5t-105.5 -24.5q-31 0 -62 12t-59 32l-55 38q-30 21 -67 21q-44 0 -72 -28q-9 -9 -19.5 -24.5t-20.5 -25.5z" />
<glyph unicode="&#xe4;" d="M932 820q0 32 3.5 63t6.5 52q2 20 13 32t33 12h62q20 0 32.5 -12t12.5 -32v-885q0 -23 -13 -36.5t-36 -13.5h-56q-47 0 -50 50l-8 114q-26 -43 -64 -77.5t-85.5 -59t-101.5 -37.5t-111 -13q-105 0 -195 40t-156 109.5t-103.5 162.5t-37.5 200q0 106 37.5 199.5t103.5 163 t156 110t195 40.5q67 0 124 -16.5t102.5 -43.5t80 -61.5t55.5 -70.5v10zM241 489q0 -73 27 -137t73.5 -111.5t109.5 -75t135 -27.5q73 0 136.5 28t110.5 76t74.5 112t27.5 137t-27.5 136.5t-74.5 110.5t-110.5 74.5t-136.5 27.5q-72 0 -135 -27.5t-109.5 -75.5t-73.5 -112 t-27 -136zM380 1267q0 26 10 49t27 40t39.5 27t48.5 10q27 0 50 -10t40 -27t26.5 -40t9.5 -49t-9.5 -48.5t-26.5 -39.5t-40 -27t-50 -10q-26 0 -48.5 10t-39.5 27t-27 39.5t-10 48.5zM752 1269q0 26 10 49t27 40t39.5 27t48.5 10q27 0 50 -10t40 -27t26.5 -40t9.5 -49 t-9.5 -48.5t-26.5 -39.5t-40 -27t-50 -10q-26 0 -48.5 10t-39.5 27t-27 39.5t-10 48.5z" />
<glyph unicode="&#xe5;" d="M932 820q0 32 3.5 63t6.5 52q2 20 13 32t33 12h62q20 0 32.5 -12t12.5 -32v-885q0 -23 -13 -36.5t-36 -13.5h-56q-47 0 -50 50l-8 114q-26 -43 -64 -77.5t-85.5 -59t-101.5 -37.5t-111 -13q-105 0 -195 40t-156 109.5t-103.5 162.5t-37.5 200q0 106 37.5 199.5t103.5 163 t156 110t195 40.5q67 0 124 -16.5t102.5 -43.5t80 -61.5t55.5 -70.5v10zM241 489q0 -73 27 -137t73.5 -111.5t109.5 -75t135 -27.5q73 0 136.5 28t110.5 76t74.5 112t27.5 137t-27.5 136.5t-74.5 110.5t-110.5 74.5t-136.5 27.5q-72 0 -135 -27.5t-109.5 -75.5t-73.5 -112 t-27 -136zM679 1548q43 0 81.5 -16.5t67.5 -45.5t45.5 -67.5t16.5 -81.5q0 -44 -16.5 -82t-45.5 -66.5t-67.5 -44.5t-81.5 -16q-44 0 -82 16t-66.5 44.5t-44.5 66.5t-16 82q0 43 16 81.5t44.5 67.5t66.5 45.5t82 16.5zM679 1442q-23 0 -42 -8t-32.5 -22.5t-21.5 -33.5 t-8 -41q0 -45 29.5 -74.5t74.5 -29.5q22 0 41 8t33.5 21.5t22.5 32.5t8 42q0 45 -30 75t-75 30z" />
<glyph unicode="&#xe6;" horiz-adv-x="1997" d="M934 820q0 31 1 60t6.5 51t17 35t31.5 13h62q20 0 32.5 -12t12.5 -32v-76q69 66 159.5 104.5t194.5 38.5q100 0 188 -35.5t154 -99t104 -152t38 -194.5v-26q0 -25 -8.5 -40t-23 -22.5t-33.5 -9.5t-41 -2h-722q12 -60 43.5 -112t77 -89.5t102.5 -59t121 -21.5 q61 0 122 21.5t109 64.5q7 6 16.5 10t19.5 4q15 0 23 -11l56 -80q5 -8 5 -15q0 -14 -11 -26.5t-19 -18.5q-66 -49 -146.5 -80t-174.5 -31q-104 0 -194.5 38t-159.5 104v-69q0 -23 -13 -36.5t-36 -13.5h-56q-47 0 -50 50l-8 114q-26 -43 -64 -77.5t-85.5 -59t-101.5 -37.5 t-111 -13q-105 0 -195 40t-156 109.5t-103.5 162.5t-37.5 200q0 106 37.5 199.5t103.5 163t156 110t195 40.5q67 0 124 -16.5t102.5 -43.5t80 -61.5t55.5 -70.5v10zM243 489q0 -73 27 -137t73.5 -111.5t109.5 -75t135 -27.5q73 0 136.5 28t110.5 76t74.5 112t27.5 137 t-27.5 136.5t-74.5 110.5t-110.5 74.5t-136.5 27.5q-72 0 -135 -27.5t-109.5 -75.5t-73.5 -112t-27 -136zM1775 560q-7 58 -34.5 109t-70.5 89t-99 60t-120 22q-63 0 -120 -21.5t-102.5 -59t-77 -88.5t-43.5 -111h667z" />
<glyph unicode="&#xe7;" horiz-adv-x="1021" d="M590 139q61 0 122 21.5t109 64.5q7 6 16.5 10t19.5 4q15 0 23 -11l56 -80q5 -8 5 -15q0 -14 -11 -26t-19 -19q-66 -49 -146 -80t-175 -31q-106 0 -199.5 40t-163 109.5t-109.5 163t-40 199.5t40 199.5t109.5 163t163 110t199.5 40.5q79 0 154 -24.5t155 -78.5 q33 -24 33 -46q0 -10 -5 -17l-56 -84q-9 -14 -26 -14q-5 0 -13 5.5t-18 13.5q-48 38 -103 60.5t-121 22.5q-72 0 -136 -27.5t-111.5 -75.5t-75 -112t-27.5 -136t27.5 -136t75 -111.5t111.5 -75t136 -27.5zM688 -6q0 -20 8.5 -42t38.5 -42q26 -17 50.5 -33.5t44 -38.5 t31.5 -50.5t12 -68.5q-5 -66 -62.5 -117t-178.5 -86q-8 -2 -14 -2q-14 0 -24.5 10t-18 24.5t-11.5 30t-4 27.5q0 21 20 28q69 14 108 41t39 58q0 17 -7 29.5t-19 23t-27.5 20t-32.5 20.5q-20 9 -38 23.5t-31 33.5t-20.5 41t-7.5 46v34q0 20 8 23.5t23 3.5h86 q20 0 23.5 -12.5t3.5 -24.5z" />
<glyph unicode="&#xe8;" horiz-adv-x="1153" d="M590 139q61 0 122 21.5t109 64.5q7 6 16.5 10t19.5 4q15 0 23 -11l56 -80q5 -8 5 -15q0 -14 -11 -26t-19 -19q-66 -49 -146 -80t-175 -31q-106 0 -199.5 40t-163 109.5t-109.5 163t-40 199.5t40 199.5t109.5 163t163 110t199.5 40.5q100 0 188 -35.5t154 -99t104 -152 t38 -194.5v-26q0 -25 -8.5 -40t-23 -22.5t-33.5 -9.5t-41 -2h-722q12 -60 43.5 -112t77 -89.5t102.5 -59t121 -21.5zM914 560q-7 58 -34.5 109t-70.5 89t-99 60t-120 22q-63 0 -120 -21.5t-102.5 -59t-77 -88.5t-43.5 -111h667zM468 1426q-8 17 -10.5 26t-2.5 14 q0 12 8.5 15.5t21.5 3.5h80q19 0 30.5 -10t23.5 -32l88 -205q6 -15 7.5 -22t3.5 -14q0 -14 -6.5 -21t-26.5 -7h-73q-34 0 -53 42z" />
<glyph unicode="&#xe9;" horiz-adv-x="1153" d="M590 139q61 0 122 21.5t109 64.5q7 6 16.5 10t19.5 4q15 0 23 -11l56 -80q5 -8 5 -15q0 -14 -11 -26t-19 -19q-66 -49 -146 -80t-175 -31q-106 0 -199.5 40t-163 109.5t-109.5 163t-40 199.5t40 199.5t109.5 163t163 110t199.5 40.5q100 0 188 -35.5t154 -99t104 -152 t38 -194.5v-26q0 -25 -8.5 -40t-23 -22.5t-33.5 -9.5t-41 -2h-722q12 -60 43.5 -112t77 -89.5t102.5 -59t121 -21.5zM914 560q-7 58 -34.5 109t-70.5 89t-99 60t-120 22q-63 0 -120 -21.5t-102.5 -59t-77 -88.5t-43.5 -111h667zM708 1216q-19 -42 -53 -42h-73q-20 0 -26.5 7 t-6.5 21q2 7 3.5 14t7.5 22l88 205q12 22 23.5 32t30.5 10h80q13 0 21.5 -3.5t8.5 -15.5q0 -5 -2.5 -14t-10.5 -26z" />
<glyph unicode="&#xea;" horiz-adv-x="1153" d="M590 139q61 0 122 21.5t109 64.5q7 6 16.5 10t19.5 4q15 0 23 -11l56 -80q5 -8 5 -15q0 -14 -11 -26t-19 -19q-66 -49 -146 -80t-175 -31q-106 0 -199.5 40t-163 109.5t-109.5 163t-40 199.5t40 199.5t109.5 163t163 110t199.5 40.5q100 0 188 -35.5t154 -99t104 -152 t38 -194.5v-26q0 -25 -8.5 -40t-23 -22.5t-33.5 -9.5t-41 -2h-722q12 -60 43.5 -112t77 -89.5t102.5 -59t121 -21.5zM914 560q-7 58 -34.5 109t-70.5 89t-99 60t-120 22q-63 0 -120 -21.5t-102.5 -59t-77 -88.5t-43.5 -111h667zM900 1258q4 -4 8.5 -11t4.5 -14 q0 -8 -4 -13.5t-9 -10.5l-47 -43q-5 -5 -11 -9.5t-13 -4.5q-5 0 -11.5 2t-11.5 9l-190 191l-191 -191q-5 -7 -10 -9t-13 -2q-6 0 -12.5 4.5t-12.5 9.5l-45 43q-5 5 -9.5 10.5t-4.5 13.5q0 7 5 14t9 11l262 263q3 3 9 6.5t13 3.5q5 0 11.5 -3.5t10.5 -7.5z" />
<glyph unicode="&#xeb;" horiz-adv-x="1153" d="M590 139q61 0 122 21.5t109 64.5q7 6 16.5 10t19.5 4q15 0 23 -11l56 -80q5 -8 5 -15q0 -14 -11 -26t-19 -19q-66 -49 -146 -80t-175 -31q-106 0 -199.5 40t-163 109.5t-109.5 163t-40 199.5t40 199.5t109.5 163t163 110t199.5 40.5q100 0 188 -35.5t154 -99t104 -152 t38 -194.5v-26q0 -25 -8.5 -40t-23 -22.5t-33.5 -9.5t-41 -2h-722q12 -60 43.5 -112t77 -89.5t102.5 -59t121 -21.5zM914 560q-7 58 -34.5 109t-70.5 89t-99 60t-120 22q-63 0 -120 -21.5t-102.5 -59t-77 -88.5t-43.5 -111h667zM330 1267q0 26 10 49t27 40t39.5 27t48.5 10 q27 0 50 -10t40 -27t26.5 -40t9.5 -49t-9.5 -48.5t-26.5 -39.5t-40 -27t-50 -10q-26 0 -48.5 10t-39.5 27t-27 39.5t-10 48.5zM702 1269q0 26 10 49t27 40t39.5 27t48.5 10q27 0 50 -10t40 -27t26.5 -40t9.5 -49t-9.5 -48.5t-26.5 -39.5t-40 -27t-50 -10q-26 0 -48.5 10 t-39.5 27t-27 39.5t-10 48.5z" />
<glyph unicode="&#xec;" horiz-adv-x="486" d="M161 935q0 20 12 32t32 12h72q22 0 34.5 -12t12.5 -32v-891q0 -21 -12.5 -32.5t-33.5 -11.5h-71q-46 0 -46 44v891zM64 1426q-8 17 -10.5 26t-2.5 14q0 12 8.5 15.5t21.5 3.5h80q19 0 30.5 -10t23.5 -32l88 -205q6 -15 7.5 -22t3.5 -14q0 -14 -6.5 -21t-26.5 -7h-73 q-34 0 -53 42z" />
<glyph unicode="&#xed;" horiz-adv-x="486" d="M161 935q0 20 12 32t32 12h72q22 0 34.5 -12t12.5 -32v-891q0 -21 -12.5 -32.5t-33.5 -11.5h-71q-46 0 -46 44v891zM326 1216q-19 -42 -53 -42h-73q-20 0 -26.5 7t-6.5 21q2 7 3.5 14t7.5 22l88 205q12 22 23.5 32t30.5 10h80q13 0 21.5 -3.5t8.5 -15.5q0 -5 -2.5 -14 t-10.5 -26z" />
<glyph unicode="&#xee;" horiz-adv-x="486" d="M161 935q0 20 12 32t32 12h72q22 0 34.5 -12t12.5 -32v-891q0 -21 -12.5 -32.5t-33.5 -11.5h-71q-46 0 -46 44v891zM524 1258q4 -4 8.5 -11t4.5 -14q0 -8 -4 -13.5t-9 -10.5l-47 -43q-5 -5 -11 -9.5t-13 -4.5q-5 0 -11.5 2t-11.5 9l-190 191l-191 -191q-5 -7 -10 -9 t-13 -2q-6 0 -12.5 4.5t-12.5 9.5l-45 43q-5 5 -9.5 10.5t-4.5 13.5q0 7 5 14t9 11l262 263q3 3 9 6.5t13 3.5q5 0 11.5 -3.5t10.5 -7.5z" />
<glyph unicode="&#xef;" horiz-adv-x="486" d="M161 935q0 20 12 32t32 12h72q22 0 34.5 -12t12.5 -32v-891q0 -21 -12.5 -32.5t-33.5 -11.5h-71q-46 0 -46 44v891zM-68 1267q0 26 10 49t27 40t39.5 27t48.5 10q27 0 50 -10t40 -27t26.5 -40t9.5 -49t-9.5 -48.5t-26.5 -39.5t-40 -27t-50 -10q-26 0 -48.5 10t-39.5 27 t-27 39.5t-10 48.5zM304 1269q0 26 10 49t27 40t39.5 27t48.5 10q27 0 50 -10t40 -27t26.5 -40t9.5 -49t-9.5 -48.5t-26.5 -39.5t-40 -27t-50 -10q-26 0 -48.5 10t-39.5 27t-27 39.5t-10 48.5z" />
<glyph unicode="&#xf0;" horiz-adv-x="1148" d="M1106 490q0 -107 -40 -199.5t-109 -161.5t-161.5 -108.5t-198.5 -39.5t-198.5 39.5t-161.5 108.5t-109 161.5t-40 199.5q0 106 40 199t109 162t161.5 108.5t198.5 39.5q29 0 55.5 -5.5t49.5 -14.5q-18 30 -31.5 54t-26 45.5t-25 43.5t-27.5 49l-92 -55q-11 -6 -18 -6 q-16 0 -31 22l-25 46q-8 13 -8 22q1 7 5 14.5t13 12.5l92 55q-18 31 -39.5 68t-48.5 85q-6 11 -7.5 20t-1.5 14q0 17 37 17h104q26 0 39 -10t27 -34l40 -71l100 59q5 4 14 4q17 0 30 -19l25 -46q7 -12 7 -23q0 -17 -13 -25l-100 -60l293 -509q33 -58 52.5 -124t19.5 -138z M931 490q0 70 -26 132.5t-71 109t-106 74t-131 27.5t-130.5 -27.5t-105 -74t-70 -109t-25.5 -132.5q0 -71 25.5 -133t70 -108.5t105 -73t130.5 -26.5t131 26.5t106 73t71 108.5t26 133z" />
<glyph unicode="&#xf1;" horiz-adv-x="1110" d="M161 935q0 20 12.5 32t32.5 12h62q22 0 33 -12t13 -32l10 -89q19 32 49 60t67.5 49t81 33.5t88.5 12.5q86 0 157 -32.5t122 -88.5t79.5 -132t28.5 -163v-535q0 -24 -13.5 -37t-33.5 -13h-71q-26 0 -35.5 12t-9.5 37v536q0 52 -17.5 99t-50.5 81.5t-80.5 55t-106.5 20.5 q-50 0 -96.5 -19t-81.5 -52.5t-56 -78.5t-21 -96v-551q0 -21 -12.5 -32.5t-32.5 -11.5h-71q-47 0 -47 44v891zM384 1184q-7 -7 -15 -7t-19 8t-23.5 20t-20.5 19q-5 5 -6.5 8.5t-1.5 10.5q0 5 6 14.5t7 11.5q42 59 90 83t106 24q30 0 61 -12t59 -32l55 -38q31 -21 67 -21 q42 0 72 28q10 9 20.5 24.5t20.5 25.5q5 7 15 7q7 0 18 -8t23.5 -20t20.5 -18q5 -6 6.5 -9.5t1.5 -10.5q0 -5 -6 -15t-7 -10q-42 -59 -89.5 -83.5t-105.5 -24.5q-31 0 -62 12t-59 32l-55 38q-30 21 -67 21q-44 0 -72 -28q-9 -9 -19.5 -24.5t-20.5 -25.5z" />
<glyph unicode="&#xf2;" horiz-adv-x="1181" d="M78 489q0 106 40 199.5t109.5 163t163 110t199.5 40.5t199.5 -40.5t163 -110t110 -163t40.5 -199.5t-40.5 -199.5t-110 -163t-163 -109.5t-199.5 -40t-199.5 40t-163 109.5t-109.5 163t-40 199.5zM240 489q0 -72 27.5 -136t75 -111.5t111.5 -75t136 -27.5t136 27.5 t112 75t75.5 111.5t27.5 136t-27.5 136t-75.5 112t-112 75.5t-136 27.5t-136 -27.5t-111.5 -75.5t-75 -112t-27.5 -136zM452 1426q-8 17 -10.5 26t-2.5 14q0 12 8.5 15.5t21.5 3.5h80q19 0 30.5 -10t23.5 -32l88 -205q6 -15 7.5 -22t3.5 -14q0 -14 -6.5 -21t-26.5 -7h-73 q-34 0 -53 42z" />
<glyph unicode="&#xf3;" horiz-adv-x="1181" d="M78 489q0 106 40 199.5t109.5 163t163 110t199.5 40.5t199.5 -40.5t163 -110t110 -163t40.5 -199.5t-40.5 -199.5t-110 -163t-163 -109.5t-199.5 -40t-199.5 40t-163 109.5t-109.5 163t-40 199.5zM240 489q0 -72 27.5 -136t75 -111.5t111.5 -75t136 -27.5t136 27.5 t112 75t75.5 111.5t27.5 136t-27.5 136t-75.5 112t-112 75.5t-136 27.5t-136 -27.5t-111.5 -75.5t-75 -112t-27.5 -136zM696 1216q-19 -42 -53 -42h-73q-20 0 -26.5 7t-6.5 21q2 7 3.5 14t7.5 22l88 205q12 22 23.5 32t30.5 10h80q13 0 21.5 -3.5t8.5 -15.5q0 -5 -2.5 -14 t-10.5 -26z" />
<glyph unicode="&#xf4;" horiz-adv-x="1181" d="M78 489q0 106 40 199.5t109.5 163t163 110t199.5 40.5t199.5 -40.5t163 -110t110 -163t40.5 -199.5t-40.5 -199.5t-110 -163t-163 -109.5t-199.5 -40t-199.5 40t-163 109.5t-109.5 163t-40 199.5zM240 489q0 -72 27.5 -136t75 -111.5t111.5 -75t136 -27.5t136 27.5 t112 75t75.5 111.5t27.5 136t-27.5 136t-75.5 112t-112 75.5t-136 27.5t-136 -27.5t-111.5 -75.5t-75 -112t-27.5 -136zM898 1258q4 -4 8.5 -11t4.5 -14q0 -8 -4 -13.5t-9 -10.5l-47 -43q-5 -5 -11 -9.5t-13 -4.5q-5 0 -11.5 2t-11.5 9l-190 191l-191 -191q-5 -7 -10 -9 t-13 -2q-6 0 -12.5 4.5t-12.5 9.5l-45 43q-5 5 -9.5 10.5t-4.5 13.5q0 7 5 14t9 11l262 263q3 3 9 6.5t13 3.5q5 0 11.5 -3.5t10.5 -7.5z" />
<glyph unicode="&#xf5;" horiz-adv-x="1181" d="M78 489q0 106 40 199.5t109.5 163t163 110t199.5 40.5t199.5 -40.5t163 -110t110 -163t40.5 -199.5t-40.5 -199.5t-110 -163t-163 -109.5t-199.5 -40t-199.5 40t-163 109.5t-109.5 163t-40 199.5zM240 489q0 -72 27.5 -136t75 -111.5t111.5 -75t136 -27.5t136 27.5 t112 75t75.5 111.5t27.5 136t-27.5 136t-75.5 112t-112 75.5t-136 27.5t-136 -27.5t-111.5 -75.5t-75 -112t-27.5 -136zM375 1184q-7 -7 -15 -7t-19 8t-23.5 20t-20.5 19q-5 5 -6.5 8.5t-1.5 10.5q0 5 6 14.5t7 11.5q42 59 90 83t106 24q30 0 61 -12t59 -32l55 -38 q31 -21 67 -21q42 0 72 28q10 9 20.5 24.5t20.5 25.5q5 7 15 7q7 0 18 -8t23.5 -20t20.5 -18q5 -6 6.5 -9.5t1.5 -10.5q0 -5 -6 -15t-7 -10q-42 -59 -89.5 -83.5t-105.5 -24.5q-31 0 -62 12t-59 32l-55 38q-30 21 -67 21q-44 0 -72 -28q-9 -9 -19.5 -24.5t-20.5 -25.5z" />
<glyph unicode="&#xf6;" horiz-adv-x="1181" d="M78 489q0 106 40 199.5t109.5 163t163 110t199.5 40.5t199.5 -40.5t163 -110t110 -163t40.5 -199.5t-40.5 -199.5t-110 -163t-163 -109.5t-199.5 -40t-199.5 40t-163 109.5t-109.5 163t-40 199.5zM240 489q0 -72 27.5 -136t75 -111.5t111.5 -75t136 -27.5t136 27.5 t112 75t75.5 111.5t27.5 136t-27.5 136t-75.5 112t-112 75.5t-136 27.5t-136 -27.5t-111.5 -75.5t-75 -112t-27.5 -136zM332 1267q0 26 10 49t27 40t39.5 27t48.5 10q27 0 50 -10t40 -27t26.5 -40t9.5 -49t-9.5 -48.5t-26.5 -39.5t-40 -27t-50 -10q-26 0 -48.5 10t-39.5 27 t-27 39.5t-10 48.5zM704 1269q0 26 10 49t27 40t39.5 27t48.5 10q27 0 50 -10t40 -27t26.5 -40t9.5 -49t-9.5 -48.5t-26.5 -39.5t-40 -27t-50 -10q-26 0 -48.5 10t-39.5 27t-27 39.5t-10 48.5z" />
<glyph unicode="&#xf7;" horiz-adv-x="903" d="M334 881q0 26 10 48.5t27 39.5t39.5 27t48.5 10q27 0 50 -10t40 -27t26.5 -39.5t9.5 -48.5t-9.5 -49t-26.5 -40t-40 -27t-50 -10q-26 0 -48.5 10t-39.5 27t-27 40t-10 49zM334 101q0 26 10 48.5t27 39.5t39.5 27t48.5 10q27 0 50 -10t40 -27t26.5 -39.5t9.5 -48.5 t-9.5 -49t-26.5 -40t-40 -27t-50 -10q-26 0 -48.5 10t-39.5 27t-27 40t-10 49zM136 403q-47 0 -47 44v84q0 46 47 46h637q20 0 32 -14t12 -32v-84q0 -21 -13 -32.5t-31 -11.5h-637z" />
<glyph unicode="&#xf8;" horiz-adv-x="1181" d="M78 489q0 106 40 200t109.5 163.5t162.5 110t200 40.5q49 0 96 -9l42 101q9 22 21.5 30t32.5 8h77q38 0 38 -20q0 -10 -6 -25l-61 -145q61 -32 111.5 -79.5t86.5 -106t56 -126.5t20 -142q0 -107 -40.5 -200.5t-110 -163t-163.5 -109.5t-200 -40q-39 0 -76.5 5.5 t-72.5 16.5l-50 -120q-14 -30 -43 -30h-91q-29 0 -29 20q0 8 4 17l72 177q-51 34 -93 80t-71.5 100.5t-45.5 117t-16 129.5zM240 489q0 -72 27.5 -136t75.5 -112t111.5 -76t135.5 -28t136 28t112.5 76t76.5 112t28 136t-28 136t-76.5 112.5t-112.5 76.5t-136 28t-135.5 -28 t-111.5 -76.5t-75.5 -112.5t-27.5 -136z" />
<glyph unicode="&#xf9;" horiz-adv-x="1110" d="M949 45q0 -20 -12.5 -32t-32.5 -12h-62q-22 0 -33 12t-13 32l-10 89q-19 -32 -49 -60t-67.5 -49t-81 -33.5t-88.5 -12.5q-86 0 -157 32.5t-122 88.5t-79.5 132t-28.5 163v535q0 24 13.5 37t33.5 13h71q26 0 35.5 -12t9.5 -37v-536q0 -53 17.5 -99.5t50.5 -81t80.5 -55 t106.5 -20.5q50 0 96 19t81.5 52.5t56.5 78.5t21 96v551q0 21 12.5 32.5t32.5 11.5h71q47 0 47 -44v-891zM387 1426q-8 17 -10.5 26t-2.5 14q0 12 8.5 15.5t21.5 3.5h80q19 0 30.5 -10t23.5 -32l88 -205q6 -15 7.5 -22t3.5 -14q0 -14 -6.5 -21t-26.5 -7h-73q-34 0 -53 42z " />
<glyph unicode="&#xfa;" horiz-adv-x="1110" d="M949 45q0 -20 -12.5 -32t-32.5 -12h-62q-22 0 -33 12t-13 32l-10 89q-19 -32 -49 -60t-67.5 -49t-81 -33.5t-88.5 -12.5q-86 0 -157 32.5t-122 88.5t-79.5 132t-28.5 163v535q0 24 13.5 37t33.5 13h71q26 0 35.5 -12t9.5 -37v-536q0 -53 17.5 -99.5t50.5 -81t80.5 -55 t106.5 -20.5q50 0 96 19t81.5 52.5t56.5 78.5t21 96v551q0 21 12.5 32.5t32.5 11.5h71q47 0 47 -44v-891zM670 1216q-19 -42 -53 -42h-73q-20 0 -26.5 7t-6.5 21q2 7 3.5 14t7.5 22l88 205q12 22 23.5 32t30.5 10h80q13 0 21.5 -3.5t8.5 -15.5q0 -5 -2.5 -14t-10.5 -26z" />
<glyph unicode="&#xfb;" horiz-adv-x="1110" d="M949 45q0 -20 -12.5 -32t-32.5 -12h-62q-22 0 -33 12t-13 32l-10 89q-19 -32 -49 -60t-67.5 -49t-81 -33.5t-88.5 -12.5q-86 0 -157 32.5t-122 88.5t-79.5 132t-28.5 163v535q0 24 13.5 37t33.5 13h71q26 0 35.5 -12t9.5 -37v-536q0 -53 17.5 -99.5t50.5 -81t80.5 -55 t106.5 -20.5q50 0 96 19t81.5 52.5t56.5 78.5t21 96v551q0 21 12.5 32.5t32.5 11.5h71q47 0 47 -44v-891zM836 1258q4 -4 8.5 -11t4.5 -14q0 -8 -4 -13.5t-9 -10.5l-47 -43q-5 -5 -11 -9.5t-13 -4.5q-5 0 -11.5 2t-11.5 9l-190 191l-191 -191q-5 -7 -10 -9t-13 -2 q-6 0 -12.5 4.5t-12.5 9.5l-45 43q-5 5 -9.5 10.5t-4.5 13.5q0 7 5 14t9 11l262 263q3 3 9 6.5t13 3.5q5 0 11.5 -3.5t10.5 -7.5z" />
<glyph unicode="&#xfc;" horiz-adv-x="1110" d="M949 45q0 -20 -12.5 -32t-32.5 -12h-62q-22 0 -33 12t-13 32l-10 89q-19 -32 -49 -60t-67.5 -49t-81 -33.5t-88.5 -12.5q-86 0 -157 32.5t-122 88.5t-79.5 132t-28.5 163v535q0 24 13.5 37t33.5 13h71q26 0 35.5 -12t9.5 -37v-536q0 -53 17.5 -99.5t50.5 -81t80.5 -55 t106.5 -20.5q50 0 96 19t81.5 52.5t56.5 78.5t21 96v551q0 21 12.5 32.5t32.5 11.5h71q47 0 47 -44v-891zM272 1267q0 26 10 49t27 40t39.5 27t48.5 10q27 0 50 -10t40 -27t26.5 -40t9.5 -49t-9.5 -48.5t-26.5 -39.5t-40 -27t-50 -10q-26 0 -48.5 10t-39.5 27t-27 39.5 t-10 48.5zM644 1269q0 26 10 49t27 40t39.5 27t48.5 10q27 0 50 -10t40 -27t26.5 -40t9.5 -49t-9.5 -48.5t-26.5 -39.5t-40 -27t-50 -10q-26 0 -48.5 10t-39.5 27t-27 39.5t-10 48.5z" />
<glyph unicode="&#xfd;" horiz-adv-x="995" d="M492 305q0 -1 1 -2q0 -2 2 -2q3 0 4 4l261 635q8 20 21.5 31t34.5 11h74q18 0 29 -11.5t11 -27.5q0 -9 -3 -16l-541 -1282q-6 -14 -20 -23t-33 -9h-55q-28 0 -37 9.5t-9 21.5q0 7 2 13.5t4 11.5l176 427l-349 831q-2 1 -3 9.5t-1 12.5q0 32 40 32h75q20 0 34 -11t21 -28z M621 1216q-19 -42 -53 -42h-73q-20 0 -26.5 7t-6.5 21q2 7 3.5 14t7.5 22l88 205q12 22 23.5 32t30.5 10h80q13 0 21.5 -3.5t8.5 -15.5q0 -5 -2.5 -14t-10.5 -26z" />
<glyph unicode="&#xfe;" horiz-adv-x="1182" d="M335 845q24 33 55.5 62t69.5 50t81.5 33t91.5 12q97 0 180.5 -39.5t145.5 -108.5t97.5 -162t35.5 -199q0 -107 -35.5 -199.5t-97.5 -161.5t-145.5 -108.5t-180.5 -39.5q-103 0 -176.5 41.5t-120.5 110.5v-471q0 -23 -14.5 -36.5t-42.5 -13.5h-59q-26 0 -42 13.5t-16 36.5 v1776q0 20 11.5 32t33.5 12h83q20 0 32.5 -12t12.5 -32v-596zM625 832q-58 0 -109 -24.5t-89.5 -67t-62.5 -99.5t-29 -121v-59q4 -66 28.5 -123t63 -99.5t89.5 -66.5t109 -24q61 0 113.5 26.5t91.5 73t61 108.5t22 133q0 70 -22 132.5t-61 109t-91.5 74t-113.5 27.5z" />
<glyph unicode="&#xff;" horiz-adv-x="995" d="M492 305q0 -1 1 -2q0 -2 2 -2q3 0 4 4l261 635q8 20 21.5 31t34.5 11h74q18 0 29 -11.5t11 -27.5q0 -9 -3 -16l-541 -1282q-6 -14 -20 -23t-33 -9h-55q-28 0 -37 9.5t-9 21.5q0 7 2 13.5t4 11.5l176 427l-349 831q-2 1 -3 9.5t-1 12.5q0 32 40 32h75q20 0 34 -11t21 -28z M239 1267q0 26 10 49t27 40t39.5 27t48.5 10q27 0 50 -10t40 -27t26.5 -40t9.5 -49t-9.5 -48.5t-26.5 -39.5t-40 -27t-50 -10q-26 0 -48.5 10t-39.5 27t-27 39.5t-10 48.5zM611 1269q0 26 10 49t27 40t39.5 27t48.5 10q27 0 50 -10t40 -27t26.5 -40t9.5 -49t-9.5 -48.5 t-26.5 -39.5t-40 -27t-50 -10q-26 0 -48.5 10t-39.5 27t-27 39.5t-10 48.5z" />
<glyph unicode="&#x131;" horiz-adv-x="486" d="M161 935q0 20 12 32t32 12h72q22 0 34.5 -12t12.5 -32v-891q0 -21 -12.5 -32.5t-33.5 -11.5h-71q-46 0 -46 44v891z" />
<glyph unicode="&#x152;" horiz-adv-x="2305" d="M68 743q0 105 27.5 203t77 183t119 154.5t154.5 119t182.5 77t203.5 27.5q105 0 201.5 -27t181.5 -77v39q0 21 11.5 33t32.5 12h963q46 0 46 -46v-70q0 -19 -12 -33t-35 -14h-842v-49q100 -103 158 -239.5t58 -292.5q0 -46 -6 -91h461q18 0 31 -11t13 -35v-71 q0 -18 -11.5 -32t-32.5 -14h-499q-56 -159 -172 -278v-46h853q45 0 45 -46v-72q0 -20 -11.5 -32.5t-32.5 -12.5h-974q-44 0 -44 43v38q-85 -49 -181.5 -76t-201.5 -27t-203 27.5t-183 77t-154.5 119t-119 154.5t-77 182.5t-27.5 202.5zM230 743q0 -125 47 -234t129 -191 t191.5 -129t234.5 -47q124 0 233.5 47t191 129t129 191t47.5 234q0 124 -47.5 234t-129 191.5t-191 129t-233.5 47.5q-83 0 -160 -21.5t-144 -61t-122 -94t-94 -121.5t-60.5 -144t-21.5 -160z" />
<glyph unicode="&#x153;" horiz-adv-x="2019" d="M78 489q0 106 40 199.5t109.5 163t163 110t199.5 40.5t199.5 -40.5t163 -110t110 -163t40.5 -199.5t-40.5 -199.5t-110 -163t-163 -109.5t-199.5 -40t-199.5 40t-163 109.5t-109.5 163t-40 199.5zM240 489q0 -72 27.5 -136t75 -111.5t111.5 -75t136 -27.5t136 27.5 t112 75t75.5 111.5t27.5 136t-27.5 136t-75.5 112t-112 75.5t-136 27.5t-136 -27.5t-111.5 -75.5t-75 -112t-27.5 -136zM1453 139q61 0 122 21.5t109 64.5q7 6 16.5 10t19.5 4q15 0 23 -11l56 -80q5 -8 5 -15q0 -14 -11 -26t-19 -19q-66 -49 -146 -80t-175 -31 q-106 0 -199.5 40t-163 109.5t-109.5 163t-40 199.5t40 199.5t109.5 163t163 110t199.5 40.5q100 0 188 -35.5t154 -99t104 -152t38 -194.5v-26q0 -25 -8.5 -40t-23 -22.5t-33.5 -9.5t-41 -2h-722q12 -60 43.5 -112t77 -89.5t102.5 -59t121 -21.5zM1777 560q-7 58 -34.5 109 t-70.5 89t-99 60t-120 22q-63 0 -120 -21.5t-102.5 -59t-77 -88.5t-43.5 -111h667z" />
<glyph unicode="&#x178;" horiz-adv-x="1264" d="M67 1433q-11 17 -11 30q0 22 30 22h113q10 -1 16.5 -2t12 -5.5t11 -13t14.5 -23.5q93 -161 186.5 -320t187.5 -320h2l384 650q11 19 21 25.5t25 8.5h121q23 0 23 -17q0 -4 -1 -12t-8 -16q-122 -198 -240.5 -402t-243.5 -402v-589q0 -47 -44 -47h-75q-43 0 -43 47v583z M326 1720q0 26 10 49t27 40t39.5 27t48.5 10q27 0 50 -10t40 -27t26.5 -40t9.5 -49t-9.5 -48.5t-26.5 -39.5t-40 -27t-50 -10q-26 0 -48.5 10t-39.5 27t-27 39.5t-10 48.5zM698 1722q0 26 10 49t27 40t39.5 27t48.5 10q27 0 50 -10t40 -27t26.5 -40t9.5 -49t-9.5 -48.5 t-26.5 -39.5t-40 -27t-50 -10q-26 0 -48.5 10t-39.5 27t-27 39.5t-10 48.5z" />
<glyph unicode="&#x2c6;" horiz-adv-x="748" d="M657 1258q4 -4 8.5 -11t4.5 -14q0 -8 -4 -13.5t-9 -10.5l-47 -43q-5 -5 -11 -9.5t-13 -4.5q-5 0 -11.5 2t-11.5 9l-190 191l-191 -191q-5 -7 -10 -9t-13 -2q-6 0 -12.5 4.5t-12.5 9.5l-45 43q-5 5 -9.5 10.5t-4.5 13.5q0 7 5 14t9 11l262 263q3 3 9 6.5t13 3.5 q5 0 11.5 -3.5t10.5 -7.5z" />
<glyph unicode="&#x2da;" horiz-adv-x="518" d="M257 1548q43 0 81.5 -16.5t67.5 -45.5t45.5 -67.5t16.5 -81.5q0 -44 -16.5 -82t-45.5 -66.5t-67.5 -44.5t-81.5 -16q-44 0 -82 16t-66.5 44.5t-44.5 66.5t-16 82q0 43 16 81.5t44.5 67.5t66.5 45.5t82 16.5zM257 1442q-23 0 -42 -8t-32.5 -22.5t-21.5 -33.5t-8 -41 q0 -45 29.5 -74.5t74.5 -29.5q22 0 41 8t33.5 21.5t22.5 32.5t8 42q0 45 -30 75t-75 30z" />
<glyph unicode="&#x2dc;" horiz-adv-x="707" d="M109 1184q-7 -7 -15 -7t-19 8t-23.5 20t-20.5 19q-5 5 -6.5 8.5t-1.5 10.5q0 5 6 14.5t7 11.5q42 59 90 83t106 24q30 0 61 -12t59 -32l55 -38q31 -21 67 -21q42 0 72 28q10 9 20.5 24.5t20.5 25.5q5 7 15 7q7 0 18 -8t23.5 -20t20.5 -18q5 -6 6.5 -9.5t1.5 -10.5 q0 -5 -6 -15t-7 -10q-42 -59 -89.5 -83.5t-105.5 -24.5q-31 0 -62 12t-59 32l-55 38q-30 21 -67 21q-44 0 -72 -28q-9 -9 -19.5 -24.5t-20.5 -25.5z" />
<glyph unicode="&#x2000;" horiz-adv-x="958" />
<glyph unicode="&#x2001;" horiz-adv-x="1917" />
<glyph unicode="&#x2002;" horiz-adv-x="958" />
<glyph unicode="&#x2003;" horiz-adv-x="1917" />
<glyph unicode="&#x2004;" horiz-adv-x="639" />
<glyph unicode="&#x2005;" horiz-adv-x="479" />
<glyph unicode="&#x2006;" horiz-adv-x="319" />
<glyph unicode="&#x2007;" horiz-adv-x="319" />
<glyph unicode="&#x2008;" horiz-adv-x="239" />
<glyph unicode="&#x2009;" horiz-adv-x="383" />
<glyph unicode="&#x200a;" horiz-adv-x="106" />
<glyph unicode="&#x2010;" horiz-adv-x="1034" d="M845 639q18 0 31 -11.5t13 -32.5v-84q0 -18 -12 -32t-32 -14h-637q-47 0 -47 46v84q0 44 47 44h637z" />
<glyph unicode="&#x2011;" horiz-adv-x="1034" d="M845 639q18 0 31 -11.5t13 -32.5v-84q0 -18 -12 -32t-32 -14h-637q-47 0 -47 46v84q0 44 47 44h637z" />
<glyph unicode="&#x2012;" horiz-adv-x="1034" d="M845 639q18 0 31 -11.5t13 -32.5v-84q0 -18 -12 -32t-32 -14h-637q-47 0 -47 46v84q0 44 47 44h637z" />
<glyph unicode="&#x2013;" horiz-adv-x="1342" d="M1130 639q18 0 31 -11.5t13 -32.5v-84q0 -18 -12 -32t-32 -14h-922q-47 0 -47 46v84q0 44 47 44h922z" />
<glyph unicode="&#x2014;" horiz-adv-x="1672" d="M1464 639q18 0 31 -11.5t13 -32.5v-84q0 -18 -12 -32t-32 -14h-1256q-47 0 -47 46v84q0 44 47 44h1256z" />
<glyph unicode="&#x2018;" horiz-adv-x="477" d="M384.283 1232.39q0 -25.1123 -9.42578 -47.085q-9.4248 -21.9727 -25.583 -38.1162q-16.1572 -16.1426 -38.1494 -25.1113t-46.2285 -8.96875q-26.0322 0 -48.0244 9.41699t-38.1494 26.0088q-16.1582 16.5918 -25.1348 40.3584t-8.97656 53.3623 q0 62.7793 12.5674 109.416q12.5674 46.6357 30.0713 77.5771t35.9053 46.1885q18.4023 15.2461 30.0713 15.2461q7.18164 0 11.2207 -1.3457q4.03906 -1.34473 9.4248 -5.8291l27.8271 -21.5244q6.28418 -5.38086 9.87402 -13.0049q3.59082 -7.62305 3.59082 -13.9004 q0 -8.07227 -4.03906 -13.0049q-4.04004 -4.93262 -9.42578 -12.1074q-8.07812 -8.07129 -13.9131 -20.627q-5.83496 -12.5566 -5.83496 -31.3906v-6.27734q20.6455 -3.58789 39.0479 -14.3496q18.4014 -10.7627 32.7637 -26.9062q14.3623 -16.1426 22.4414 -36.3223 q8.0791 -20.1787 8.0791 -41.7031z" />
<glyph unicode="&#x2019;" horiz-adv-x="471" d="M125.417 1381.71q0 25.1406 9.39941 47.1387q9.39844 21.999 25.5107 38.1602q16.1133 16.1621 38.0439 25.1416q21.9307 8.97852 46.0996 8.97852q25.959 0 47.8906 -9.42773q21.9307 -9.42773 38.043 -26.0391q16.1123 -16.6104 25.0645 -40.4043 q8.95117 -23.7949 8.95117 -53.4248q0 -62.8525 -12.5322 -109.542q-12.5322 -46.6904 -29.9873 -77.668q-17.4551 -30.9766 -35.8057 -46.2412q-18.3506 -15.2637 -29.9873 -15.2637q-7.16113 0 -11.1895 1.34668q-4.02734 1.34668 -9.39844 5.83594l-27.75 21.5498 q-6.26562 5.38672 -9.8457 13.0195q-3.58105 7.63184 -3.58105 13.917q0 8.08105 4.02832 13.0195t9.39844 12.1211q8.05664 8.08105 13.875 20.6514t5.81836 31.4268v6.28516q-20.5879 3.59082 -38.9385 14.3662q-18.3506 10.7744 -32.6729 26.9365t-22.3779 36.3643 q-8.05664 20.2021 -8.05664 41.752z" />
<glyph unicode="&#x201a;" horiz-adv-x="528" d="M119.725 81.6191q0 25.1133 9.42578 47.0879t25.585 38.1182q16.1582 16.1445 38.1523 25.1143q21.9932 8.96875 46.2314 8.96875q26.0332 0 48.0273 -9.41797q21.9941 -9.41699 38.1523 -26.0098q16.1592 -16.5928 25.1357 -40.3613q8.97754 -23.7686 8.97754 -53.3662 q0 -62.7842 -12.5684 -109.423q-12.5674 -46.6396 -30.0732 -77.583q-17.5049 -30.9434 -35.9082 -46.1914q-18.4023 -15.2471 -30.0732 -15.2471q-7.18164 0 -11.2207 1.34473q-4.04004 1.3457 -9.42578 5.83008l-27.8291 21.5264q-6.28418 5.38086 -9.875 13.0049 t-3.59082 13.9023q0 8.07227 4.04004 13.0049q4.04004 4.93359 9.42578 12.1084q8.0791 8.07227 13.9141 20.6289t5.83496 31.3926v6.27832q-20.6465 3.58691 -39.0498 14.3506q-18.4033 10.7627 -32.7666 26.9072t-22.4424 36.3242q-8.0791 20.1807 -8.0791 41.707z" />
<glyph unicode="&#x201c;" horiz-adv-x="785" d="M384.283 1232.39q0 -25.1123 -9.42578 -47.085q-9.4248 -21.9727 -25.583 -38.1162q-16.1572 -16.1426 -38.1494 -25.1113t-46.2285 -8.96875q-26.0322 0 -48.0244 9.41699t-38.1494 26.0088q-16.1582 16.5918 -25.1348 40.3584t-8.97656 53.3623 q0 62.7793 12.5674 109.416q12.5674 46.6357 30.0713 77.5771t35.9053 46.1885q18.4023 15.2461 30.0713 15.2461q7.18164 0 11.2207 -1.3457q4.03906 -1.34473 9.4248 -5.8291l27.8271 -21.5244q6.28418 -5.38086 9.87402 -13.0049q3.59082 -7.62305 3.59082 -13.9004 q0 -8.07227 -4.03906 -13.0049q-4.04004 -4.93262 -9.42578 -12.1074q-8.07812 -8.07129 -13.9131 -20.627q-5.83496 -12.5566 -5.83496 -31.3906v-6.27734q20.6455 -3.58789 39.0479 -14.3496q18.4014 -10.7627 32.7637 -26.9062q14.3623 -16.1426 22.4414 -36.3223 q8.0791 -20.1787 8.0791 -41.7031zM665.283 1232.39q0 -25.1123 -9.42578 -47.085q-9.4248 -21.9727 -25.583 -38.1162q-16.1572 -16.1426 -38.1494 -25.1113t-46.2285 -8.96875q-26.0322 0 -48.0244 9.41699t-38.1494 26.0088q-16.1582 16.5918 -25.1348 40.3584 t-8.97656 53.3623q0 62.7793 12.5674 109.416q12.5674 46.6357 30.0713 77.5771t35.9053 46.1885q18.4023 15.2461 30.0713 15.2461q7.18164 0 11.2207 -1.3457q4.03906 -1.34473 9.4248 -5.8291l27.8271 -21.5244q6.28418 -5.38086 9.87402 -13.0049 q3.59082 -7.62305 3.59082 -13.9004q0 -8.07227 -4.03906 -13.0049q-4.04004 -4.93262 -9.42578 -12.1074q-8.07812 -8.07129 -13.9131 -20.627q-5.83496 -12.5566 -5.83496 -31.3906v-6.27734q20.6455 -3.58789 39.0479 -14.3496q18.4014 -10.7627 32.7637 -26.9062 q14.3623 -16.1426 22.4414 -36.3223q8.0791 -20.1787 8.0791 -41.7031z" />
<glyph unicode="&#x201d;" horiz-adv-x="772" d="M125.417 1381.71q0 25.1406 9.39941 47.1387q9.39844 21.999 25.5107 38.1602q16.1133 16.1621 38.0439 25.1416q21.9307 8.97852 46.0996 8.97852q25.959 0 47.8906 -9.42773q21.9307 -9.42773 38.043 -26.0391q16.1123 -16.6104 25.0645 -40.4043 q8.95117 -23.7949 8.95117 -53.4248q0 -62.8525 -12.5322 -109.542q-12.5322 -46.6904 -29.9873 -77.668q-17.4551 -30.9766 -35.8057 -46.2412q-18.3506 -15.2637 -29.9873 -15.2637q-7.16113 0 -11.1895 1.34668q-4.02734 1.34668 -9.39844 5.83594l-27.75 21.5498 q-6.26562 5.38672 -9.8457 13.0195q-3.58105 7.63184 -3.58105 13.917q0 8.08105 4.02832 13.0195t9.39844 12.1211q8.05664 8.08105 13.875 20.6514t5.81836 31.4268v6.28516q-20.5879 3.59082 -38.9385 14.3662q-18.3506 10.7744 -32.6729 26.9365t-22.3779 36.3643 q-8.05664 20.2021 -8.05664 41.752zM406.417 1381.71q0 25.1406 9.39941 47.1387q9.39844 21.999 25.5107 38.1602q16.1133 16.1621 38.0439 25.1416q21.9307 8.97852 46.0996 8.97852q25.959 0 47.8906 -9.42773q21.9307 -9.42773 38.043 -26.0391 q16.1123 -16.6104 25.0645 -40.4043q8.95117 -23.7949 8.95117 -53.4248q0 -62.8525 -12.5322 -109.542q-12.5322 -46.6904 -29.9873 -77.668q-17.4551 -30.9766 -35.8057 -46.2412q-18.3506 -15.2637 -29.9873 -15.2637q-7.16113 0 -11.1895 1.34668 q-4.02734 1.34668 -9.39844 5.83594l-27.75 21.5498q-6.26562 5.38672 -9.8457 13.0195q-3.58105 7.63184 -3.58105 13.917q0 8.08105 4.02832 13.0195t9.39844 12.1211q8.05664 8.08105 13.875 20.6514t5.81836 31.4268v6.28516q-20.5879 3.59082 -38.9385 14.3662 q-18.3506 10.7744 -32.6729 26.9365t-22.3779 36.3643q-8.05664 20.2021 -8.05664 41.752z" />
<glyph unicode="&#x201e;" horiz-adv-x="607" d="M38.417 108.708q0 25.1406 9.39941 47.1387q9.39844 21.999 25.5107 38.1602q16.1133 16.1621 38.0439 25.1416q21.9307 8.97852 46.0996 8.97852q25.959 0 47.8906 -9.42773q21.9307 -9.42773 38.043 -26.0391q16.1123 -16.6104 25.0645 -40.4043 q8.95117 -23.7949 8.95117 -53.4248q0 -62.8525 -12.5322 -109.542q-12.5322 -46.6904 -29.9873 -77.668q-17.4551 -30.9766 -35.8057 -46.2412q-18.3506 -15.2637 -29.9873 -15.2637q-7.16113 0 -11.1895 1.34668q-4.02734 1.34668 -9.39844 5.83594l-27.75 21.5498 q-6.26562 5.38672 -9.8457 13.0195q-3.58105 7.63184 -3.58105 13.917q0 8.08105 4.02832 13.0195t9.39844 12.1211q8.05664 8.08105 13.875 20.6514t5.81836 31.4268v6.28516q-20.5879 3.59082 -38.9385 14.3662q-18.3506 10.7744 -32.6729 26.9365t-22.3779 36.3643 q-8.05664 20.2021 -8.05664 41.752zM319.417 108.708q0 25.1406 9.39941 47.1387q9.39844 21.999 25.5107 38.1602q16.1133 16.1621 38.0439 25.1416q21.9307 8.97852 46.0996 8.97852q25.959 0 47.8906 -9.42773q21.9307 -9.42773 38.043 -26.0391 q16.1123 -16.6104 25.0645 -40.4043q8.95117 -23.7949 8.95117 -53.4248q0 -62.8525 -12.5322 -109.542q-12.5322 -46.6904 -29.9873 -77.668q-17.4551 -30.9766 -35.8057 -46.2412q-18.3506 -15.2637 -29.9873 -15.2637q-7.16113 0 -11.1895 1.34668 q-4.02734 1.34668 -9.39844 5.83594l-27.75 21.5498q-6.26562 5.38672 -9.8457 13.0195q-3.58105 7.63184 -3.58105 13.917q0 8.08105 4.02832 13.0195t9.39844 12.1211q8.05664 8.08105 13.875 20.6514t5.81836 31.4268v6.28516q-20.5879 3.59082 -38.9385 14.3662 q-18.3506 10.7744 -32.6729 26.9365t-22.3779 36.3643q-8.05664 20.2021 -8.05664 41.752z" />
<glyph unicode="&#x2022;" horiz-adv-x="453" d="M117 550q0 23 9 43.5t24 35.5t35.5 24t43.5 9t43.5 -9t35.5 -24t24 -35.5t9 -43.5t-9 -43.5t-24 -35.5t-35.5 -24t-43.5 -9t-43.5 9t-35.5 24t-24 35.5t-9 43.5z" />
<glyph unicode="&#x2026;" horiz-adv-x="1297" d="M129 94q0 26 10 49t27 40t39.5 27t48.5 10q27 0 50 -10t40 -27t26.5 -40t9.5 -49t-9.5 -48.5t-26.5 -39.5t-40 -27t-50 -10q-26 0 -48.5 10t-39.5 27t-27 39.5t-10 48.5zM540 94q0 26 10 49t27 40t39.5 27t48.5 10q27 0 50 -10t40 -27t26.5 -40t9.5 -49t-9.5 -48.5 t-26.5 -39.5t-40 -27t-50 -10q-26 0 -48.5 10t-39.5 27t-27 39.5t-10 48.5zM937 94q0 26 10 49t27 40t39.5 27t48.5 10q27 0 50 -10t40 -27t26.5 -40t9.5 -49t-9.5 -48.5t-26.5 -39.5t-40 -27t-50 -10q-26 0 -48.5 10t-39.5 27t-27 39.5t-10 48.5z" />
<glyph unicode="&#x202f;" horiz-adv-x="383" />
<glyph unicode="&#x2039;" horiz-adv-x="862" d="M88 528q-5 5 -8 14.5t-3 16.5q0 11 13 26l522 519q5 5 15.5 8t17.5 3q18 0 31 -13l52 -55q14 -14 14 -28q0 -7 -2.5 -17.5t-8.5 -15.5l-429 -432l429 -429q5 -5 8 -15.5t3 -17.5q0 -18 -14 -30l-57 -58q-5 -5 -11.5 -8t-14.5 -3q-18 0 -34.5 15t-31.5 29 q-124 124 -245.5 245t-245.5 246z" />
<glyph unicode="&#x203a;" horiz-adv-x="867" d="M779 528q-124 -125 -245.5 -246t-245.5 -245q-15 -14 -31.5 -29t-34.5 -15q-15 0 -26 11l-58 58q-13 13 -13 30q0 7 3 17.5t8 15.5l429 429l-429 432q-7 5 -9 15.5t-2 17.5q0 8 3.5 14.5t9.5 13.5l53 55q13 13 31 13q7 0 17.5 -3t15.5 -8l521 -519q14 -14 14 -26 q0 -7 -3 -16.5t-8 -14.5z" />
<glyph unicode="&#x2044;" horiz-adv-x="988" d="M790 1441q8 18 23.5 31t40.5 13h48q20 0 35 -8t15 -23q0 -11 -2 -13l-763 -1397q-12 -25 -21.5 -34.5t-31.5 -9.5h-70q-42 0 -42 26q0 -2 1 2.5t3 15.5z" />
<glyph unicode="&#x205f;" horiz-adv-x="479" />
<glyph unicode="&#x2074;" horiz-adv-x="774" d="M80 779q-17 0 -24 10.5t-7 22.5q0 7 2.5 13t6.5 13l371 634q7 11 11.5 14t10.5 3h104q10 0 16 -9t6 -17v-530h81q12 0 21.5 -5.5t9.5 -18.5v-104q0 -10 -9.5 -18t-21.5 -8h-81v-99q0 -12 -6 -18t-21 -6h-99q-24 0 -24 24v99h-347zM427 933v270l-156 -270h156z" />
<glyph unicode="&#x20ac;" horiz-adv-x="1542" d="M1364 132q-101 -72 -215.5 -112.5t-241.5 -40.5q-106 0 -203.5 27.5t-182.5 77t-154.5 119.5t-119.5 154.5t-77 182t-27 202.5t27 202.5t77 182t119.5 154.5t154.5 119.5t182.5 77t203.5 27.5q127 0 241.5 -40.5t215.5 -112.5q22 -16 22 -37q0 -10 -4.5 -17.5t-9.5 -15.5 l-32 -54q-6 -10 -15.5 -15.5t-17.5 -5.5q-5 0 -16 2.5t-24 11.5q-77 56 -163.5 87.5t-180.5 31.5q-88 0 -168 -22t-148.5 -62t-124.5 -95t-95.5 -121t-61 -141t-21.5 -154q0 -120 47 -229t130 -191.5t196.5 -131.5t245.5 -49q94 0 180 31.5t164 87.5q13 9 24 11.5t16 2.5 q8 0 17.5 -5.5t15.5 -15.5l32 -54q5 -8 9.5 -15.5t4.5 -17.5q0 -21 -22 -37zM769 966q18 0 31 -11t13 -33v-83q0 -18 -12 -32t-32 -14h-641q-47 0 -47 46v83q0 44 47 44h641zM769 675q18 0 31 -11t13 -33v-83q0 -18 -12 -32t-32 -14h-641q-47 0 -47 46v83q0 44 47 44h641z " />
<glyph unicode="&#x2122;" horiz-adv-x="1895" d="M1275 623q-13 0 -21 6.5t-13 17.5l1 -1l-295 505l-56 -466q-2 -21 -12 -32t-33 -11h-45q-19 0 -33 8.5t-14 26.5v4l88 786q0 5 1.5 12t5.5 13.5t11.5 11t19.5 4.5q23 0 36 -24l359 -616l359 614q7 11 16.5 18.5t19.5 7.5q12 0 19 -4.5t11 -11t5.5 -13.5t2.5 -12l87 -785 v-4q0 -19 -13 -27.5t-32 -8.5h-45q-24 0 -34.5 11t-12.5 32l-54 465l-295 -502q-2 -4 -9.5 -14.5t-24.5 -10.5zM719 1484q17 0 32 -11.5t15 -33.5v-45q0 -20 -11.5 -33t-35.5 -13h-223v-660q0 -20 -11.5 -33t-36.5 -13h-43q-20 0 -32.5 13t-12.5 33v660h-233q-46 0 -46 46 v45q0 20 12 32.5t34 12.5h592z" />
<glyph unicode="&#x25fc;" horiz-adv-x="980" d="M0 980h980v-980h-980v980z" />
<glyph unicode="&#xf6c9;" horiz-adv-x="445" d="M299 1651q-12 -19 -24.5 -29.5t-29.5 -10.5h-76q-15 0 -22.5 7t-8 18t3.5 23t11 23l75 116q18 27 33 34.5t41 7.5h62q15 0 20 -7t5 -17.5t-4 -21.5t-8 -20z" />
<glyph unicode="&#xfb03;" horiz-adv-x="1581" d="M1274 828h-373v-778q0 -24 -16 -37t-35 -13h-65q-23 0 -35 14t-12 36v778h-394v-778q0 -24 -16 -37t-35 -13h-65q-23 0 -35 14t-12 36v778h-99q-21 0 -34.5 15t-13.5 40v46q0 26 13.5 38t34.5 12h99v183q0 62 13 122t43 106.5t79.5 75t121.5 28.5q16 0 34 -1t34 -6 t26.5 -16t10.5 -31v-60q0 -19 -11 -34.5t-29 -15.5t-32 1.5t-28 1.5q-23 0 -41.5 -6t-31 -24.5t-19.5 -52.5t-7 -90v-181h394v183q0 62 13 122t43 106.5t79.5 75t121.5 28.5q16 0 34 -1t34 -6t26.5 -16t10.5 -31v-60q0 -19 -11 -34.5t-29 -15.5t-32 1.5t-28 1.5 q-23 0 -41.5 -6t-31 -24.5t-19.5 -52.5t-7 -90v-181h489q22 0 34.5 -12t12.5 -32v-891q0 -21 -12.5 -32.5t-33.5 -11.5h-71q-46 0 -46 44v784zM1246 1276q0 24 9 44.5t24.5 36t36 24.5t44.5 9t44.5 -9t36 -24.5t24.5 -36t9 -44.5t-9 -44.5t-24.5 -36t-36 -24.5t-44.5 -9 t-44.5 9t-36 24.5t-24.5 36t-9 44.5z" />
</font>
</defs>
</svg>
