<?xml version="1.0" standalone="no"?>
<!DOCTYPE svg PUBLIC "-//W3C//DTD SVG 1.1//EN" "http://www.w3.org/Graphics/SVG/1.1/DTD/svg11.dtd" >
<svg xmlns="http://www.w3.org/2000/svg" xmlns:xlink="http://www.w3.org/1999/xlink" version="1.1">
<metadata></metadata>
<defs>
<font id="cocomatlight" horiz-adv-x="1672" >
<font-face units-per-em="2000" ascent="1600" descent="-400" />
<missing-glyph horiz-adv-x="627" />
<glyph unicode="&#xfb01;" horiz-adv-x="1052" d="M776 874h-439v-837q0 -19 -12.5 -29t-29.5 -10h-37q-20 0 -29.5 11t-9.5 28v837h-124q-40 0 -40 43v26q0 40 40 40h124v190q0 75 21 133.5t61 99.5t97.5 62.5t129.5 21.5q20 0 30.5 -12t10.5 -31v-34q0 -17 -11.5 -28t-26.5 -11q-91 0 -142.5 -52.5t-51.5 -152.5v-186 h518q17 0 27 -10.5t10 -27.5v-909q0 -36 -37 -36h-41q-38 0 -38 36v838zM740 1265q0 19 7.5 36t20 30t29.5 20t36 7q39 0 66 -27t27 -66q0 -19 -7 -36t-20 -29.5t-30 -19.5t-36 -7t-36 7t-29.5 19.5t-20 29.5t-7.5 36z" />
<glyph unicode="&#xfb03;" horiz-adv-x="1669" d="M1393 874h-258h-3h-178v-837q0 -19 -12.5 -29t-29.5 -10h-37q-20 0 -29.5 11t-9.5 28v837h-124h-4h-371v-837q0 -19 -12.5 -29t-29.5 -10h-37q-20 0 -29.5 11t-9.5 28v837h-124q-40 0 -40 43v26q0 40 40 40h124v190q0 75 21 133.5t61 99.5t97.5 62.5t129.5 21.5 q20 0 30.5 -12t10.5 -31v-34q0 -17 -11.5 -28t-26.5 -11q-91 0 -142.5 -52.5t-51.5 -152.5v-186h499v190q0 75 21 133.5t61 99.5t97.5 62.5t129.5 21.5q20 0 30.5 -12t10.5 -31v-34q0 -17 -11.5 -28t-26.5 -11q-91 0 -142.5 -52.5t-51.5 -152.5v-186h516q26 0 35 -21 q4 -7 4 -17v-28v-4v-877q0 -36 -37 -36h-41q-38 0 -38 36v838zM1357 1265q0 19 7.5 36t20 30t29.5 20t36 7q39 0 66 -27t27 -66q0 -19 -7 -36t-20 -29.5t-30 -19.5t-36 -7t-36 7t-29.5 19.5t-20 29.5t-7.5 36z" />
<glyph horiz-adv-x="0" />
<glyph horiz-adv-x="666" />
<glyph unicode=" "  horiz-adv-x="627" />
<glyph unicode="&#x09;" horiz-adv-x="627" />
<glyph unicode="&#xa0;" horiz-adv-x="627" />
<glyph unicode="!" horiz-adv-x="497" d="M162 1450q0 36 37 36h41q37 0 37 -36v-1018q0 -37 -37 -37h-41q-37 0 -37 37v1018zM127 72q0 19 7 36t19.5 29.5t29.5 20t36 7.5q20 0 37 -7.5t29.5 -20t19.5 -29.5t7 -36t-7 -36t-19.5 -29.5t-29.5 -19.5t-37 -7q-19 0 -36 7t-29.5 19.5t-19.5 29.5t-7 36z" />
<glyph unicode="&#x22;" horiz-adv-x="832" d="M160 1448q0 37 37 37h42q36 0 36 -37v-318q0 -22 -10 -29.5t-27 -7.5h-41q-37 0 -37 37v318zM420 1448q0 37 36 37h42q36 0 36 -37v-318q0 -22 -10 -29.5t-27 -7.5h-41q-36 0 -36 37v318z" />
<glyph unicode="#" horiz-adv-x="1109" d="M708 1450q1 16 10.5 26t27.5 10h42q17 0 26 -9.5t9 -26.5l-30 -387h147q15 0 24 -8.5t9 -22.5v-62q0 -9 -9 -16t-19 -7h-156l-33 -397h147q17 0 27.5 -9t10.5 -27v-41q0 -17 -10.5 -28t-27.5 -11h-151q-8 -100 -16 -199t-16 -199q-3 -36 -39 -36h-42q-19 0 -26.5 8.5 t-7.5 27.5q8 100 16 199t16 199h-288q-8 -100 -16 -199t-16 -199q-3 -36 -40 -36h-41q-19 0 -26.5 8.5t-7.5 27.5q8 100 16 199t16 199h-134q-37 0 -37 39v41q0 36 37 36h138l33 397h-134q-38 0 -38 38v42q0 36 38 36h138l30 387q1 16 9.5 26t28.5 10h41q17 0 26.5 -9.5 t9.5 -26.5l-30 -387h288zM353 550h288l33 397h-288z" />
<glyph unicode="$" horiz-adv-x="1283" d="M83 267q20 20 33 31t33 11q11 0 19 -7t13 -14q42 -47 92.5 -83.5t107 -61.5t115.5 -38t117 -13q81 0 160.5 18t142.5 57.5t102 101.5t39 150q0 51 -19.5 90.5t-53.5 69t-79 51t-95.5 37.5t-103.5 28.5t-103 23.5q-124 28 -216.5 63t-153.5 81t-91 105t-30 136 q0 86 31.5 156t90.5 121.5t142.5 82.5t187.5 38v129q0 18 11 31t33 13h24q18 0 32 -12t14 -32v-129q116 -8 218.5 -52t185.5 -126q13 -13 19.5 -20.5t6.5 -15.5t-10 -18.5t-30 -29.5q-9 -8 -15 -13t-12 -5q-13 0 -35 19q-35 30 -73.5 57t-84.5 48t-101.5 33.5t-123.5 12.5 q-98 0 -171 -22.5t-122 -61.5t-73.5 -91t-24.5 -110q0 -44 16 -79t44.5 -62t67 -48t83 -37.5t93.5 -29.5t98 -24q58 -14 120.5 -30t122.5 -37t113.5 -50t94 -69t64 -93t23.5 -123q0 -102 -38 -181t-104.5 -134.5t-157 -87.5t-194.5 -39v-128q0 -46 -46 -46h-24q-44 0 -44 46 v126q-139 8 -262 65t-213 174q-7 8 -11 15t-4 16q0 8 9 16z" />
<glyph unicode="%" horiz-adv-x="1857" d="M99 1146q0 80 30 150.5t82.5 122.5t122.5 82t150 30t150 -30t122.5 -82t82.5 -122.5t30 -150.5t-30 -150t-82.5 -122.5t-122.5 -82.5t-150 -30t-150 30t-122.5 82.5t-82.5 122.5t-30 150zM187 1146q0 -63 23 -117t63 -94t94 -63t117 -23t116.5 23t93.5 63t62.5 94 t22.5 117t-22.5 116.5t-62.5 93.5t-93.5 62.5t-116.5 22.5t-117 -22.5t-94 -62.5t-63 -93.5t-23 -116.5zM848 367q0 80 30 150.5t82 122.5t122.5 82t150.5 30t150 -30t122.5 -82t82.5 -122.5t30 -150.5t-30 -150t-82.5 -122.5t-122.5 -82.5t-150 -30t-150.5 30t-122.5 82.5 t-82 122.5t-30 150zM936 367q0 -63 23 -117t62.5 -94t94 -63t117.5 -23t116.5 23t93 63t62 94t22.5 117t-22.5 117t-62 93.5t-93 62t-116.5 22.5t-117.5 -22.5t-94 -62t-62.5 -93.5t-23 -117zM1209 1441q11 28 23.5 36t37.5 8h29q32 0 37 -10.5t-6 -42.5l-872 -1401 q-14 -31 -48 -31h-42q-40 0 -24 42z" />
<glyph unicode="&#x26;" horiz-adv-x="1654" d="M640 547q43 23 88.5 37t91.5 14q20 0 41.5 -2.5t46.5 -10.5l328 -89q16 -5 32.5 -6.5t31.5 -1.5q35 0 68 12t60 33t47.5 50t29.5 64q11 29 36 29q10 0 19 -4l25 -10q13 -5 21 -13.5t8 -19.5q0 -14 -4 -25q-16 -51 -46 -93.5t-70 -73.5t-88.5 -48.5t-102.5 -17.5 q-7 0 -22 1.5t-31 3.5t-29.5 4t-17.5 4l-103 27q-9 -90 -51.5 -169.5t-108.5 -139t-151 -94t-178 -34.5q-100 0 -187.5 34t-153 94.5t-103 144.5t-37.5 184q0 69 18.5 131.5t52.5 115t82.5 94.5t107.5 71q-71 45 -113.5 118t-42.5 168q0 78 30 143.5t81.5 112t119.5 72.5 t145 26t145 -26t119 -72.5t80.5 -112t29.5 -143.5q0 -19 -10 -31.5t-31 -12.5h-27q-25 0 -35.5 12t-10.5 32q0 56 -19.5 101t-54 77t-82.5 49t-104 17t-104 -17t-83.5 -49t-56 -77t-20.5 -101t19.5 -98.5t53.5 -72.5t80 -46t100 -19h11q19 0 31.5 -10t12.5 -32v-22 q0 -25 -12 -35.5t-32 -10.5q-77 0 -144 -26t-117 -72.5t-79 -111t-29 -140.5q0 -77 29 -140t79 -109t117 -71t144 -25q73 0 140 28t118.5 76.5t83.5 113t35 138.5l-126 33q-20 3 -39 3q-30 0 -60.5 -6.5t-63.5 -23.5q-10 -5 -15.5 -8.5t-18.5 -3.5q-24 0 -35 24l-12 25 q-6 13 -6 24q0 24 28 36z" />
<glyph unicode="'" horiz-adv-x="528" d="M166 1448q0 36 37 36h42q36 0 36 -36v-318q0 -23 -10 -30.5t-27 -7.5h-41q-37 0 -37 38v318z" />
<glyph unicode="(" horiz-adv-x="497" d="M439 1742q9 -5 19.5 -12t19.5 -15t14.5 -16.5t5.5 -14.5q0 -12 -7 -20q-130 -207 -196.5 -441t-66.5 -487q0 -254 66.5 -487.5t196.5 -441.5q2 -3 4 -7l3 -11q0 -7 -7 -17.5t-18 -20.5t-24 -17.5t-25 -7.5q-8 0 -15 6t-14 16t-13.5 21t-12.5 22q-123 210 -189 447.5 t-66 497.5t66 496.5t189 447.5q6 10 12 21t12.5 20.5t15 16t18.5 6.5q7 0 12 -2z" />
<glyph unicode=")" horiz-adv-x="497" d="M76 1742q4 2 12 2q17 0 28 -17l22 -34q127 -214 194.5 -454t67.5 -503t-67.5 -503.5t-194.5 -453.5q-10 -17 -21.5 -35t-26.5 -18q-8 0 -20 5.5t-24 14t-20.5 18.5t-8.5 19q0 5 1.5 12t4.5 12q130 209 197 442.5t67 486.5q0 251 -67 486.5t-197 441.5q-3 4 -4.5 11 t-1.5 12q0 9 6 16.5t15 14.5t19 13t19 11z" />
<glyph unicode="*" horiz-adv-x="983" d="M290 873q-9 15 -9 28q0 21 27 36l20 11q13 9 26 9q21 0 35 -24l97 -170l99 170q7 12 16.5 18t19.5 6q12 0 26 -9l20 -11q26 -15 26 -36q0 -13 -9 -28l-99 -169h216q18 0 31 -11t13 -33v-24q0 -18 -12 -32t-32 -14h-214l113 -192q6 -9 6 -21q0 -11 -5.5 -21t-18.5 -15 l-20 -13q-11 -7 -26 -7q-10 0 -19.5 4.5t-15.5 15.5l-115 194l-112 -194q-7 -11 -16.5 -15.5t-19.5 -4.5q-15 0 -26 7l-19 13q-13 5 -18.5 14.5t-5.5 20.5q0 13 6 22l110 192h-200q-46 0 -46 46v24q0 44 46 44h204z" />
<glyph unicode="+" horiz-adv-x="900" d="M506 328q0 -18 -11 -31t-33 -13h-24q-18 0 -32 12t-14 32v251h-249q-46 0 -46 46v24q0 44 46 44h249v251q0 46 46 46h24q44 0 44 -46v-251h253q18 0 31 -11t13 -33v-24q0 -18 -12 -32t-32 -14h-253v-251z" />
<glyph unicode="," horiz-adv-x="528" d="M128 70q0 42 28 69.5t68 27.5q48 0 72.5 -32.5t24.5 -82.5q0 -52 -9.5 -91t-23.5 -65.5t-29.5 -40t-27.5 -13.5q-6 0 -14 4.5t-15.5 11t-12.5 14t-5 13.5q0 7 5 14t11.5 16t11.5 20.5t5 28.5v10q-36 6 -62.5 32t-26.5 64z" />
<glyph unicode="-" horiz-adv-x="1034" d="M842 608q17 0 27.5 -9t10.5 -27v-42q0 -17 -10.5 -27t-27.5 -10h-640q-38 0 -38 37v42q0 36 38 36h640z" />
<glyph unicode="." horiz-adv-x="528" d="M122 72q0 19 7 36t19.5 29.5t29.5 20t36 7.5q20 0 37 -7.5t29.5 -20t19.5 -29.5t7 -36t-7 -36t-19.5 -29.5t-29.5 -20t-37 -7.5q-19 0 -36 7.5t-29.5 20t-19.5 29.5t-7 36z" />
<glyph unicode="/" horiz-adv-x="836" d="M615 1441q11 28 24 36t38 8h28q21 0 30 -4.5t9 -15.5q-1 -6 -2.5 -14t-5.5 -19l-546 -1401q-12 -31 -48 -31h-42q-29 0 -29 21q0 8 5 21z" />
<glyph unicode="0" d="M822 308q82 0 155 30t130 78h-570q58 -48 130 -78t155 -30zM586 463h564q45 55 70 124t25 147q0 80 -26.5 150t-81.5 139zM822 1251q-105 0 -198 -40t-163.5 -109t-112.5 -163.5t-42 -204.5q0 -103 39.5 -196t108 -163.5t163.5 -112.5t205 -42q35 0 70 5.5t68 15.5 q77 23 146 68t120 108.5t80.5 143.5t29.5 173q0 101 -38.5 194t-107 165t-163.5 115t-205 43zM822 260q-100 0 -186 38t-150 103t-99.5 151.5t-35.5 181.5q0 94 35 179.5t98 151t149.5 103.5t188.5 38q67 0 124 -16q71 -19 134.5 -60t111 -100t75 -134t27.5 -162 q0 -98 -37 -184.5t-101.5 -151t-150.5 -101.5t-183 -37zM492 1004q-45 -55 -70.5 -122.5t-25.5 -147.5q0 -83 28 -155.5t78 -130.5l555 556h-565zM822 1161q-83 0 -155.5 -29t-130.5 -81h566q-55 50 -126.5 80t-153.5 30zM972 191l-90 -16l4 -26l34 6l16 -89l26 5l-16 89 l31 6zM1072 156q-1 7 -8 9l-12 5h-15h-6h-9h-2v1q-3 3 -3 4l-2 1q2 0 2 4v1h3h5v4h1h5h3q3 0 3 1h9q0 3 0.5 4l0.5 1l5 10l-6 4q-9 4 -12 4q-2 0 -4.5 1t-4.5 1q-4 0 -6 -1t-4 -1l-13 -8q-2 -1 -4 -3.5t-3 -6.5q-8 -6 -8 -15v-4t3 -7q2 -9 10 -14q1 0 3.5 -1.5t3.5 -3.5 q4 0 7 -1t6 -1h12h10h2q2 0 3 -3q4 0 4 -1h3v-5q0 -2 -1 -3t-1 -2v-1q-1 0 -2 -2.5t-3 -2.5q-1 -3 -5 -3h-2.5h-2.5h-3.5h-2.5h-6h-8l-5 -1v-2t-1 -2l-5 -7q1 -4 3 -6t3 -4q4 -1 7 -2t7 -1q8 -3 11 -2q4 0 8 1t7 1l7 3.5t8 4.5l5.5 5.5t4.5 6.5q0 5 2.5 7.5t2.5 7.5 t-0.5 8.5t-4.5 6.5q0 8 -5 10zM1122 151q-1 4 -3 4t-3.5 0.5t-3.5 0.5q-1 -1 -6 -1l-7 -4q-2 -1 -2 -3v-2q-1 -2 -1 -5v-1q0 -4 1 -4v-1q0 -6 4 -6q1 -5 6 -5h7q5 0 7 2q1 2 3 2.5t2 2.5v2q0 2 1 2l4 3v2q0 6 -5 6zM846 99q-1 0 -1 4q0 1 -1.5 1t-1.5 1q0 4 -1 4l-41 60 q0 1 -3 2q-1 3 -8 3h-9h-14l3 -119l27 1v79l51 -79h25v118h-30zM599 189l48 -18l8 25l-73 25l-41 -105l26 -11l15 41l38 -15l10 25l-38 15zM747 160l-8 11q-3 3 -6.5 5t-7.5 4q-4 1 -7 2t-8 3q-5 1 -9 1h-7q-10 0 -14 -5q-4 0 -7.5 -1t-7.5 -4l-11 -10q-4 -8 -10 -11 q-2 -5 -3.5 -8.5t-1.5 -6.5v-19l3 -15l5 -12l12 -11q3 -4 7 -5.5t6 -3.5q7 -4 15 -4q5 -1 8.5 -1h6.5q5 0 14 2q4 2 8.5 3t6.5 4q6 2 11 10l9 11q4 7 6 17v15q0 3 -0.5 6.5t-2.5 8.5l-3 7.5t-4 6.5zM730 121q0 -3 -1.5 -6.5t-3.5 -5.5l-4.5 -6t-4.5 -4q-4 -1 -6.5 -2 t-5.5 -1q-7 -3 -12 0q-3 0 -6.5 1t-5.5 2l-8 10q-2 2 -2.5 5.5t-0.5 6.5q-3 5 0 14q0 6 5 11l6 9l12 5h12l12 -5l9 -9q2 -3 3.5 -5t1.5 -6q2 -9 0 -14zM1309 460q-2 -2 -3 -4t-1 -6q0 -2 1 -4t3 -5l40 -57l-69 10h-10l-9 -6l-9 -17l97 -65l16 23l-46 32l60 -12l11 20l-33 50 l47 -30l15 24l-98 63zM1296 333l-14 13l-15 3q-3 2 -15 2h-6.5t-8.5 -2l-12 -3q-4 -3 -8.5 -6.5t-6.5 -6.5q-3 -3 -4.5 -6t-3.5 -6q-3 -3 -4 -6.5t-3 -8.5q0 -3 -1.5 -6.5t-1.5 -8.5v-6t3 -9l4 -13l10 -12l13 -10q5 -1 7.5 -3.5t7.5 -2.5t8.5 -2t6.5 -2t6.5 2t8.5 2 q3 0 6.5 2.5t7.5 3.5q6 3 13 10l10 12q1 2 3 5t2 8q1 5 1 15v15l-6 13q-2 4 -5 9zM1282 280q-3 -9 -7 -10q-8 -7 -10 -9q-3 -1 -6.5 -1h-6.5t-6.5 0.5t-4.5 0.5l-11 9q-4 4 -8 11v10v12q4 8 8 12l11 8q3 0 6 0.5t5 0.5q5 0 13 -3q2 -1 4.5 -3t5.5 -5q2 -2 4 -4.5t3 -5.5 q3 -3 3 -12q0 -2 -1.5 -6.5zM1209 220l-7 -4q-2 0 -3.5 -2.5t-1.5 -4.5l-5 -9l-8 -6q-4 -3 -6 -4t-6 -1q-6 -3 -12 0q-3 2 -5.5 2t-5.5 3q-7 4 -7 11q-5 1 -5 11q-5 3 0 14v3.5t2 7.5q2 2 4 3.5t4 3.5q8 3 10 3q3 2 10 2q2 0 10 3q2 4 5 5l2 7v8q-3 5 -12 5h-13l-14 -5 l-11 -5q-2 -2 -5.5 -4.5t-6.5 -6.5q-2 -2 -4 -5.5t-4 -8.5l-7 -15v-15q0 -5 2 -7.5t2 -7.5l6 -15q3 -3 6 -5t4 -5l15 -10l12 -2q5 -3 16 -3q4 0 7 1.5t7 2.5q5 1 8.5 3.5t6.5 5.5l5 2.5t5 4.5q3 0 5 3.5t5 6.5l3 14q5 4 5 13l-12 2h-6zM519 260l-102 -74l15 -10h2.5h2.5 q3 0 3.5 -0.5t1.5 0.5h5h5l10 10l40 -22l-2 -15v-5q0 -3 1 -3q0 -1 1 -1v-4q0 -1 2 -1l3 -4l17 -10l17 125zM507 218v-2v-3l-1 -22l-19 10l17 15h2h1v2v1h2q1 1 2 1zM477 255l18 20l-69 59l-20 -21l26 -22l-57 -66l20 -19l60 70zM257 411l83 -10h6q1 0 2 1t3 1l11 8l-45 77 l-23 -14l26 -44l-83 9q-1 0 -4.5 -0.5t-7.5 -3.5l-10 -5l45 -79l22 15zM357 303l22 18l-27 30l14 12l31 -39l20 17l-48 60l-90 -75l51 -58l19 18l-32 37l17 11zM191 741l50 4q1 -2 3.5 -4t4.5 -5q2 -1 3.5 -4t1.5 -6q1 -6 3 -11q0 -4 1 -6.5t1 -4.5q0 -8 -1 -14t-3 -11 q-1 -8 -4.5 -13t-6.5 -10q-7 -8 -19 -12q-11 -8 -23 -8h-17q-4 3 -7.5 4t-7.5 4q-4 1 -6.5 3t-6.5 4q-2 3 -5 6t-5 7q-2 2 -3.5 5.5t-3.5 6.5q-1 5 -2 9.5t-1 9.5v6.5v4.5q3 9 3 14q2 3 3.5 5.5t3.5 5.5q2 2 3.5 5t3.5 5l3 -5q3 0 4 -1l1 -1q2 -3 2 -8v-3t-2 -3 q-5 -5 -5 -11v-13t3 -17q2 -4 4.5 -7t5.5 -6q5 -5 14 -7q7 -4 17 -3q6 0 11 3q3 1 5 1.5t4 3.5q1 2 3.5 3t5.5 4q1 2 2.5 3.5t3.5 4.5q0 4 0.5 6.5t2.5 5.5q1 4 1 10q-1 4 -2 7t-2 8q0 3 -5 10l-19 -1v-5v-5q0 -2 -2 -5q-1 -1 -2 -2.5t-2 -1.5q-2 -1 -6 -1h-6zM264 831 l-9 -75l-118 12l8 75l19 -2l-7 -55l30 -5l5 47l20 -2l-5 -45l32 -3l5 57zM164 851l-17 5l22 90l18 -5l-10 -37l98 -23l-4 -18l-97 23zM205 988l-18 8l42 83l16 -8l-15 -32l89 -45l-8 -18l-90 45zM392 1106l-11 -16l-40 30l-35 -47l41 -30l-11 -15l-97 70l11 15l40 -29l35 47 l-40 30l11 15zM456 1166l-54 -51l-83 86l53 53l14 -15l-39 -39l20 -21l33 31l12 -14l-31 -30l21 -23l40 38zM514 1290l10 -17l-39 -24l24 -43l-14 -10l-63 100l63 40l9 -15l-47 -30l18 -26zM562 1290q0 -7 5 -10q2 -4 10 -7q2 -2 5 -2h5q5 0 10 2q8 3 10 7q5 5 7 10 q1 1 1 10q0 6 -1 11l-27 67l17 8l28 -68q2 -5 2.5 -9t0.5 -9q0 -10 -3 -19q-2 -5 -4.5 -8t-7.5 -7q-3 -5 -6 -6.5t-8 -3.5t-9.5 -3.5t-9.5 -1.5q-8 0 -18 5q-5 2 -8.5 3.5t-6.5 6.5q-7 7 -10 15l-30 67l18 8zM662 1276l-30 117l20 5l23 -97l49 10l3 -20zM731 1291l-12 120 l20 2l10 -98l51 5v-20zM864 1296l-19 4l12 118l44 -5q6 0 14 -4q9 -5 11 -10q4 -3 6 -13q4 -7 3 -15q-3 -3 -3 -6.5t-2 -8.5q-6 -8 -9 -11q-4 -4 -14 -7q-3 -2 -13 -2l-25 4zM895 1356h7q3 0 7 5q3 0 3 5q2 2 4 8q0 5 -1 7t-2 3.5l-1 1.5q-2 3 -3.5 4t-2.5 1q-2 2 -3.5 2 t-2.5 1l-25 2l-5 -38zM951 1285l-19 5l30 113l44 -12q6 0 11 -5l10 -10q4 -5 4 -13q1 -5 0.5 -8.5t-0.5 -6.5q-2 -5 -5 -10q-4 -5 -6 -7q-8 -5 -10 -5q-3 -2 -5.5 -2.5t-3.5 -2.5l21 -56l-15 1q-1 2 -3 3.5t-3 1.5q-4 2 -5 9l-19 46l-15 4zM977 1379l-10 -31l25 -7h3h2 q3 0 4 1t4 1q2 0 2 1.5v1.5q5 5 5 7v7v3t-1 3q-1 2 -2.5 2.5t-1.5 2.5q-3 3 -6 3zM1037 1321q0 5 2.5 8.5t6.5 6.5q1 3 4.5 5.5t6.5 4.5q3 3 6.5 4t8.5 3q4 3 14 3h15q9 -1 16 -6q8 -4 15 -9q3 -3 5.5 -6.5t4.5 -4.5l3.5 -7l3.5 -7q1 -5 2 -8t1 -7v-8t-2 -8q-1 -4 -2 -7.5 t-3 -7.5q-3 -4 -4 -7t-4 -7q-3 -3 -6.5 -5t-4.5 -6q-4 -2 -7 -4t-7 -5q-6 0 -16 -1q-12 0 -17 1q-5 0 -15 5q-12 5 -18 15q-9 9 -14 20q-1 7 -1 12v12q0 11 6 21zM1054 1315q-2 -4 -2.5 -6.5t-2.5 -5.5v-10q0 -2 1 -5t2 -5q0 -7 4 -10q1 -2 3 -4.5t3 -2.5q4 -5 10 -6 q7 -4 10 -4h12h12q4 5 8 5q3 2 5 3.5t3 3.5q3 3 4 5.5t3 4.5q2 3 2.5 7.5t0.5 9.5v7.5v7.5q-2 4 -4.5 7.5t-5.5 5.5q-6 7 -13 10q-2 2 -5 2.5t-7 0.5h-10q-6 0 -10 -1q-3 -2 -5 -3t-5 -1q-1 -2 -3 -4t-3 -4zM1222 1290l10 -9q0 -1 1.5 -3t3.5 -3q0 -5 -2 -9l-28 -85l83 38 q1 1 7 1q5 0 7 -4l10 -7l-117 -54l-15 11zM1279 1064l-47 56l90 76l49 -56l-14 -14l-37 44l-23 -19l29 -36l-16 -11l-28 35l-23 -21l35 -42zM1294 1039l-9 16l101 61l23 -37q2 -3 2.5 -6t2.5 -8q2 -7 -2 -12q-2 -9 -5 -13l-4.5 -4.5t-6.5 -5.5q-4 -1 -5.5 -1.5t-4.5 -2.5 q-4 0 -5.5 -0.5t-4.5 0.5q-4 0 -10 3q-4 1 -5.5 1.5t-3.5 3.5l-23 -59l-9 13q-4 2 -4 7q0 6 3 9l20 47l-8 13zM1381 1089l-29 -16l13 -19q2 -5 4 -6q1 0 6 -3h6q1 0 5 3q1 0 6 3q0 3 1 4t1 3q1 1 1 6q-1 1 -1 2.5t-2 3.5zM1436 969q1 1 1 7q0 4 -1 5q-2 3 -2 7q-3 0 -5 3 q-2 2 -5 2q-3 1 -5 0l-2.5 -2.5l-1.5 -1.5l-2 -2l-2 -2v-7v-10v-3v-2v-10q0 -2 -0.5 -4.5t-0.5 -4.5q-4 -14 -19 -21q-4 -2 -7.5 -3t-8.5 1q-6 0 -14 2q-4 3 -7 5t-5 6q-3 2 -5 5.5t-4 6.5q-3 10 -3 15q0 4 3 14q0 3 2 5l3 4q0 4 2 4q4 2 3 2l4 -2q3 -5 5 -7q0 -1 0.5 -2 t0.5 -3q0 -3 -3 -6v-1v-8q0 -5 2 -8q0 -2 1 -3t2 -4q2 0 3.5 -1.5l3.5 -3.5h2t4 -2h4.5t4.5 2q2 0 5 3q2 4 2 5q1 2 1 7v8v4v12q0 8 2 13q1 2 2 4.5t4 5.5q2 2 4.5 3.5t6.5 3.5q8 3 14 1q6 0 12 -3q3 -2 6.5 -3.5t5.5 -5.5q3 -3 6 -11q2 -7 2 -10q0 -7 -1 -10q0 -4 -4 -10 v-4.5t-2 -3.5l-6 4q-3 1 -4 2.5t-3 3.5q-1 3 -1 6v3zM1364 881l-5 18l113 34l5 -19zM1427 881h19q6 0 14 -5q4 0 7.5 -2.5t4.5 -4.5q4 -3 7 -5.5t6 -5.5q4 -8 7 -12q3 -8 5 -18v-15q-2 -10 -5 -15q-1 -5 -3 -8.5t-4 -6.5l-10 -10q-4 -4 -7.5 -5.5t-6.5 -2.5q-7 -4 -15 -4 q-10 -1 -19 0q-8 0 -15 4q-2 1 -6 2.5t-7 3.5q-3 3 -5.5 6.5t-4.5 5.5q-7 5 -8 15q-2 3 -3.5 6.5t-1.5 8.5q-1 13 1 23q5 13 10 20q7 10 18 17q5 3 11 5.5t11 2.5zM1430 861q-8 0 -10 -3q-5 -2 -10 -5q-4 -2 -6 -7q-5 -5 -5 -10q-2 -1 -2.5 -4t-1.5 -6v-10q2 -8 4 -11 q0 -6 5 -9q1 -3 3 -5t3 -5q2 0 4.5 -1.5t5.5 -3.5q2 -1 4.5 -1h5.5q5 -4 11 0q11 0 16 5q5 1 13 11q6 8 6 15q3 7 1 15q0 7 -2 10q-3 4 -3.5 6t-1.5 4q-3 2 -4.5 3.5l-3.5 3.5q-5 3 -10 5q-3 3 -11 3q-4 3 -11 0zM1377 645l2 16l96 60l-91 5l1 20l117 -10v-11q0 -5 -1 -9 q-4 -2 -4 -5l-81 -50l81 -6l-1 -19z" />
<glyph unicode="1" d="M822 308q82 0 155 30t130 78h-570q58 -48 130 -78t155 -30zM586 463h564q45 55 70 124t25 147q0 80 -26.5 150t-81.5 139zM822 1251q-105 0 -198 -40t-163.5 -109t-112.5 -163.5t-42 -204.5q0 -103 39.5 -196t108 -163.5t163.5 -112.5t205 -42q35 0 70 5.5t68 15.5 q77 23 146 68t120 108.5t80.5 143.5t29.5 173q0 101 -38.5 194t-107 165t-163.5 115t-205 43zM822 260q-100 0 -186 38t-150 103t-99.5 151.5t-35.5 181.5q0 94 35 179.5t98 151t149.5 103.5t188.5 38q67 0 124 -16q71 -19 134.5 -60t111 -100t75 -134t27.5 -162 q0 -98 -37 -184.5t-101.5 -151t-150.5 -101.5t-183 -37zM492 1004q-45 -55 -70.5 -122.5t-25.5 -147.5q0 -83 28 -155.5t78 -130.5l555 556h-565zM822 1161q-83 0 -155.5 -29t-130.5 -81h566q-55 50 -126.5 80t-153.5 30zM972 191l-90 -16l4 -26l34 6l16 -89l26 5l-16 89 l31 6zM1072 156q-1 7 -8 9l-12 5h-15h-6h-9h-2v1q-3 3 -3 4l-2 1q2 0 2 4v1h3h5v4h1h5h3q3 0 3 1h9q0 3 0.5 4l0.5 1l5 10l-6 4q-9 4 -12 4q-2 0 -4.5 1t-4.5 1q-4 0 -6 -1t-4 -1l-13 -8q-2 -1 -4 -3.5t-3 -6.5q-8 -6 -8 -15v-4t3 -7q2 -9 10 -14q1 0 3.5 -1.5t3.5 -3.5 q4 0 7 -1t6 -1h12h10h2q2 0 3 -3q4 0 4 -1h3v-5q0 -2 -1 -3t-1 -2v-1q-1 0 -2 -2.5t-3 -2.5q-1 -3 -5 -3h-2.5h-2.5h-3.5h-2.5h-6h-8l-5 -1v-2t-1 -2l-5 -7q1 -4 3 -6t3 -4q4 -1 7 -2t7 -1q8 -3 11 -2q4 0 8 1t7 1l7 3.5t8 4.5l5.5 5.5t4.5 6.5q0 5 2.5 7.5t2.5 7.5 t-0.5 8.5t-4.5 6.5q0 8 -5 10zM1122 151q-1 4 -3 4t-3.5 0.5t-3.5 0.5q-1 -1 -6 -1l-7 -4q-2 -1 -2 -3v-2q-1 -2 -1 -5v-1q0 -4 1 -4v-1q0 -6 4 -6q1 -5 6 -5h7q5 0 7 2q1 2 3 2.5t2 2.5v2q0 2 1 2l4 3v2q0 6 -5 6zM846 99q-1 0 -1 4q0 1 -1.5 1t-1.5 1q0 4 -1 4l-41 60 q0 1 -3 2q-1 3 -8 3h-9h-14l3 -119l27 1v79l51 -79h25v118h-30zM599 189l48 -18l8 25l-73 25l-41 -105l26 -11l15 41l38 -15l10 25l-38 15zM747 160l-8 11q-3 3 -6.5 5t-7.5 4q-4 1 -7 2t-8 3q-5 1 -9 1h-7q-10 0 -14 -5q-4 0 -7.5 -1t-7.5 -4l-11 -10q-4 -8 -10 -11 q-2 -5 -3.5 -8.5t-1.5 -6.5v-19l3 -15l5 -12l12 -11q3 -4 7 -5.5t6 -3.5q7 -4 15 -4q5 -1 8.5 -1h6.5q5 0 14 2q4 2 8.5 3t6.5 4q6 2 11 10l9 11q4 7 6 17v15q0 3 -0.5 6.5t-2.5 8.5l-3 7.5t-4 6.5zM730 121q0 -3 -1.5 -6.5t-3.5 -5.5l-4.5 -6t-4.5 -4q-4 -1 -6.5 -2 t-5.5 -1q-7 -3 -12 0q-3 0 -6.5 1t-5.5 2l-8 10q-2 2 -2.5 5.5t-0.5 6.5q-3 5 0 14q0 6 5 11l6 9l12 5h12l12 -5l9 -9q2 -3 3.5 -5t1.5 -6q2 -9 0 -14zM1309 460q-2 -2 -3 -4t-1 -6q0 -2 1 -4t3 -5l40 -57l-69 10h-10l-9 -6l-9 -17l97 -65l16 23l-46 32l60 -12l11 20l-33 50 l47 -30l15 24l-98 63zM1296 333l-14 13l-15 3q-3 2 -15 2h-6.5t-8.5 -2l-12 -3q-4 -3 -8.5 -6.5t-6.5 -6.5q-3 -3 -4.5 -6t-3.5 -6q-3 -3 -4 -6.5t-3 -8.5q0 -3 -1.5 -6.5t-1.5 -8.5v-6t3 -9l4 -13l10 -12l13 -10q5 -1 7.5 -3.5t7.5 -2.5t8.5 -2t6.5 -2t6.5 2t8.5 2 q3 0 6.5 2.5t7.5 3.5q6 3 13 10l10 12q1 2 3 5t2 8q1 5 1 15v15l-6 13q-2 4 -5 9zM1282 280q-3 -9 -7 -10q-8 -7 -10 -9q-3 -1 -6.5 -1h-6.5t-6.5 0.5t-4.5 0.5l-11 9q-4 4 -8 11v10v12q4 8 8 12l11 8q3 0 6 0.5t5 0.5q5 0 13 -3q2 -1 4.5 -3t5.5 -5q2 -2 4 -4.5t3 -5.5 q3 -3 3 -12q0 -2 -1.5 -6.5zM1209 220l-7 -4q-2 0 -3.5 -2.5t-1.5 -4.5l-5 -9l-8 -6q-4 -3 -6 -4t-6 -1q-6 -3 -12 0q-3 2 -5.5 2t-5.5 3q-7 4 -7 11q-5 1 -5 11q-5 3 0 14v3.5t2 7.5q2 2 4 3.5t4 3.5q8 3 10 3q3 2 10 2q2 0 10 3q2 4 5 5l2 7v8q-3 5 -12 5h-13l-14 -5 l-11 -5q-2 -2 -5.5 -4.5t-6.5 -6.5q-2 -2 -4 -5.5t-4 -8.5l-7 -15v-15q0 -5 2 -7.5t2 -7.5l6 -15q3 -3 6 -5t4 -5l15 -10l12 -2q5 -3 16 -3q4 0 7 1.5t7 2.5q5 1 8.5 3.5t6.5 5.5l5 2.5t5 4.5q3 0 5 3.5t5 6.5l3 14q5 4 5 13l-12 2h-6zM519 260l-102 -74l15 -10h2.5h2.5 q3 0 3.5 -0.5t1.5 0.5h5h5l10 10l40 -22l-2 -15v-5q0 -3 1 -3q0 -1 1 -1v-4q0 -1 2 -1l3 -4l17 -10l17 125zM507 218v-2v-3l-1 -22l-19 10l17 15h2h1v2v1h2q1 1 2 1zM477 255l18 20l-69 59l-20 -21l26 -22l-57 -66l20 -19l60 70zM257 411l83 -10h6q1 0 2 1t3 1l11 8l-45 77 l-23 -14l26 -44l-83 9q-1 0 -4.5 -0.5t-7.5 -3.5l-10 -5l45 -79l22 15zM357 303l22 18l-27 30l14 12l31 -39l20 17l-48 60l-90 -75l51 -58l19 18l-32 37l17 11zM191 741l50 4q1 -2 3.5 -4t4.5 -5q2 -1 3.5 -4t1.5 -6q1 -6 3 -11q0 -4 1 -6.5t1 -4.5q0 -8 -1 -14t-3 -11 q-1 -8 -4.5 -13t-6.5 -10q-7 -8 -19 -12q-11 -8 -23 -8h-17q-4 3 -7.5 4t-7.5 4q-4 1 -6.5 3t-6.5 4q-2 3 -5 6t-5 7q-2 2 -3.5 5.5t-3.5 6.5q-1 5 -2 9.5t-1 9.5v6.5v4.5q3 9 3 14q2 3 3.5 5.5t3.5 5.5q2 2 3.5 5t3.5 5l3 -5q3 0 4 -1l1 -1q2 -3 2 -8v-3t-2 -3 q-5 -5 -5 -11v-13t3 -17q2 -4 4.5 -7t5.5 -6q5 -5 14 -7q7 -4 17 -3q6 0 11 3q3 1 5 1.5t4 3.5q1 2 3.5 3t5.5 4q1 2 2.5 3.5t3.5 4.5q0 4 0.5 6.5t2.5 5.5q1 4 1 10q-1 4 -2 7t-2 8q0 3 -5 10l-19 -1v-5v-5q0 -2 -2 -5q-1 -1 -2 -2.5t-2 -1.5q-2 -1 -6 -1h-6zM264 831 l-9 -75l-118 12l8 75l19 -2l-7 -55l30 -5l5 47l20 -2l-5 -45l32 -3l5 57zM164 851l-17 5l22 90l18 -5l-10 -37l98 -23l-4 -18l-97 23zM205 988l-18 8l42 83l16 -8l-15 -32l89 -45l-8 -18l-90 45zM392 1106l-11 -16l-40 30l-35 -47l41 -30l-11 -15l-97 70l11 15l40 -29l35 47 l-40 30l11 15zM456 1166l-54 -51l-83 86l53 53l14 -15l-39 -39l20 -21l33 31l12 -14l-31 -30l21 -23l40 38zM514 1290l10 -17l-39 -24l24 -43l-14 -10l-63 100l63 40l9 -15l-47 -30l18 -26zM562 1290q0 -7 5 -10q2 -4 10 -7q2 -2 5 -2h5q5 0 10 2q8 3 10 7q5 5 7 10 q1 1 1 10q0 6 -1 11l-27 67l17 8l28 -68q2 -5 2.5 -9t0.5 -9q0 -10 -3 -19q-2 -5 -4.5 -8t-7.5 -7q-3 -5 -6 -6.5t-8 -3.5t-9.5 -3.5t-9.5 -1.5q-8 0 -18 5q-5 2 -8.5 3.5t-6.5 6.5q-7 7 -10 15l-30 67l18 8zM662 1276l-30 117l20 5l23 -97l49 10l3 -20zM731 1291l-12 120 l20 2l10 -98l51 5v-20zM864 1296l-19 4l12 118l44 -5q6 0 14 -4q9 -5 11 -10q4 -3 6 -13q4 -7 3 -15q-3 -3 -3 -6.5t-2 -8.5q-6 -8 -9 -11q-4 -4 -14 -7q-3 -2 -13 -2l-25 4zM895 1356h7q3 0 7 5q3 0 3 5q2 2 4 8q0 5 -1 7t-2 3.5l-1 1.5q-2 3 -3.5 4t-2.5 1q-2 2 -3.5 2 t-2.5 1l-25 2l-5 -38zM951 1285l-19 5l30 113l44 -12q6 0 11 -5l10 -10q4 -5 4 -13q1 -5 0.5 -8.5t-0.5 -6.5q-2 -5 -5 -10q-4 -5 -6 -7q-8 -5 -10 -5q-3 -2 -5.5 -2.5t-3.5 -2.5l21 -56l-15 1q-1 2 -3 3.5t-3 1.5q-4 2 -5 9l-19 46l-15 4zM977 1379l-10 -31l25 -7h3h2 q3 0 4 1t4 1q2 0 2 1.5v1.5q5 5 5 7v7v3t-1 3q-1 2 -2.5 2.5t-1.5 2.5q-3 3 -6 3zM1037 1321q0 5 2.5 8.5t6.5 6.5q1 3 4.5 5.5t6.5 4.5q3 3 6.5 4t8.5 3q4 3 14 3h15q9 -1 16 -6q8 -4 15 -9q3 -3 5.5 -6.5t4.5 -4.5l3.5 -7l3.5 -7q1 -5 2 -8t1 -7v-8t-2 -8q-1 -4 -2 -7.5 t-3 -7.5q-3 -4 -4 -7t-4 -7q-3 -3 -6.5 -5t-4.5 -6q-4 -2 -7 -4t-7 -5q-6 0 -16 -1q-12 0 -17 1q-5 0 -15 5q-12 5 -18 15q-9 9 -14 20q-1 7 -1 12v12q0 11 6 21zM1054 1315q-2 -4 -2.5 -6.5t-2.5 -5.5v-10q0 -2 1 -5t2 -5q0 -7 4 -10q1 -2 3 -4.5t3 -2.5q4 -5 10 -6 q7 -4 10 -4h12h12q4 5 8 5q3 2 5 3.5t3 3.5q3 3 4 5.5t3 4.5q2 3 2.5 7.5t0.5 9.5v7.5v7.5q-2 4 -4.5 7.5t-5.5 5.5q-6 7 -13 10q-2 2 -5 2.5t-7 0.5h-10q-6 0 -10 -1q-3 -2 -5 -3t-5 -1q-1 -2 -3 -4t-3 -4zM1222 1290l10 -9q0 -1 1.5 -3t3.5 -3q0 -5 -2 -9l-28 -85l83 38 q1 1 7 1q5 0 7 -4l10 -7l-117 -54l-15 11zM1279 1064l-47 56l90 76l49 -56l-14 -14l-37 44l-23 -19l29 -36l-16 -11l-28 35l-23 -21l35 -42zM1294 1039l-9 16l101 61l23 -37q2 -3 2.5 -6t2.5 -8q2 -7 -2 -12q-2 -9 -5 -13l-4.5 -4.5t-6.5 -5.5q-4 -1 -5.5 -1.5t-4.5 -2.5 q-4 0 -5.5 -0.5t-4.5 0.5q-4 0 -10 3q-4 1 -5.5 1.5t-3.5 3.5l-23 -59l-9 13q-4 2 -4 7q0 6 3 9l20 47l-8 13zM1381 1089l-29 -16l13 -19q2 -5 4 -6q1 0 6 -3h6q1 0 5 3q1 0 6 3q0 3 1 4t1 3q1 1 1 6q-1 1 -1 2.5t-2 3.5zM1436 969q1 1 1 7q0 4 -1 5q-2 3 -2 7q-3 0 -5 3 q-2 2 -5 2q-3 1 -5 0l-2.5 -2.5l-1.5 -1.5l-2 -2l-2 -2v-7v-10v-3v-2v-10q0 -2 -0.5 -4.5t-0.5 -4.5q-4 -14 -19 -21q-4 -2 -7.5 -3t-8.5 1q-6 0 -14 2q-4 3 -7 5t-5 6q-3 2 -5 5.5t-4 6.5q-3 10 -3 15q0 4 3 14q0 3 2 5l3 4q0 4 2 4q4 2 3 2l4 -2q3 -5 5 -7q0 -1 0.5 -2 t0.5 -3q0 -3 -3 -6v-1v-8q0 -5 2 -8q0 -2 1 -3t2 -4q2 0 3.5 -1.5l3.5 -3.5h2t4 -2h4.5t4.5 2q2 0 5 3q2 4 2 5q1 2 1 7v8v4v12q0 8 2 13q1 2 2 4.5t4 5.5q2 2 4.5 3.5t6.5 3.5q8 3 14 1q6 0 12 -3q3 -2 6.5 -3.5t5.5 -5.5q3 -3 6 -11q2 -7 2 -10q0 -7 -1 -10q0 -4 -4 -10 v-4.5t-2 -3.5l-6 4q-3 1 -4 2.5t-3 3.5q-1 3 -1 6v3zM1364 881l-5 18l113 34l5 -19zM1427 881h19q6 0 14 -5q4 0 7.5 -2.5t4.5 -4.5q4 -3 7 -5.5t6 -5.5q4 -8 7 -12q3 -8 5 -18v-15q-2 -10 -5 -15q-1 -5 -3 -8.5t-4 -6.5l-10 -10q-4 -4 -7.5 -5.5t-6.5 -2.5q-7 -4 -15 -4 q-10 -1 -19 0q-8 0 -15 4q-2 1 -6 2.5t-7 3.5q-3 3 -5.5 6.5t-4.5 5.5q-7 5 -8 15q-2 3 -3.5 6.5t-1.5 8.5q-1 13 1 23q5 13 10 20q7 10 18 17q5 3 11 5.5t11 2.5zM1430 861q-8 0 -10 -3q-5 -2 -10 -5q-4 -2 -6 -7q-5 -5 -5 -10q-2 -1 -2.5 -4t-1.5 -6v-10q2 -8 4 -11 q0 -6 5 -9q1 -3 3 -5t3 -5q2 0 4.5 -1.5t5.5 -3.5q2 -1 4.5 -1h5.5q5 -4 11 0q11 0 16 5q5 1 13 11q6 8 6 15q3 7 1 15q0 7 -2 10q-3 4 -3.5 6t-1.5 4q-3 2 -4.5 3.5l-3.5 3.5q-5 3 -10 5q-3 3 -11 3q-4 3 -11 0zM1377 645l2 16l96 60l-91 5l1 20l117 -10v-11q0 -5 -1 -9 q-4 -2 -4 -5l-81 -50l81 -6l-1 -19z" />
<glyph unicode="2" d="M822 308q82 0 155 30t130 78h-570q58 -48 130 -78t155 -30zM586 463h564q45 55 70 124t25 147q0 80 -26.5 150t-81.5 139zM822 1251q-105 0 -198 -40t-163.5 -109t-112.5 -163.5t-42 -204.5q0 -103 39.5 -196t108 -163.5t163.5 -112.5t205 -42q35 0 70 5.5t68 15.5 q77 23 146 68t120 108.5t80.5 143.5t29.5 173q0 101 -38.5 194t-107 165t-163.5 115t-205 43zM822 260q-100 0 -186 38t-150 103t-99.5 151.5t-35.5 181.5q0 94 35 179.5t98 151t149.5 103.5t188.5 38q67 0 124 -16q71 -19 134.5 -60t111 -100t75 -134t27.5 -162 q0 -98 -37 -184.5t-101.5 -151t-150.5 -101.5t-183 -37zM492 1004q-45 -55 -70.5 -122.5t-25.5 -147.5q0 -83 28 -155.5t78 -130.5l555 556h-565zM822 1161q-83 0 -155.5 -29t-130.5 -81h566q-55 50 -126.5 80t-153.5 30zM972 191l-90 -16l4 -26l34 6l16 -89l26 5l-16 89 l31 6zM1072 156q-1 7 -8 9l-12 5h-15h-6h-9h-2v1q-3 3 -3 4l-2 1q2 0 2 4v1h3h5v4h1h5h3q3 0 3 1h9q0 3 0.5 4l0.5 1l5 10l-6 4q-9 4 -12 4q-2 0 -4.5 1t-4.5 1q-4 0 -6 -1t-4 -1l-13 -8q-2 -1 -4 -3.5t-3 -6.5q-8 -6 -8 -15v-4t3 -7q2 -9 10 -14q1 0 3.5 -1.5t3.5 -3.5 q4 0 7 -1t6 -1h12h10h2q2 0 3 -3q4 0 4 -1h3v-5q0 -2 -1 -3t-1 -2v-1q-1 0 -2 -2.5t-3 -2.5q-1 -3 -5 -3h-2.5h-2.5h-3.5h-2.5h-6h-8l-5 -1v-2t-1 -2l-5 -7q1 -4 3 -6t3 -4q4 -1 7 -2t7 -1q8 -3 11 -2q4 0 8 1t7 1l7 3.5t8 4.5l5.5 5.5t4.5 6.5q0 5 2.5 7.5t2.5 7.5 t-0.5 8.5t-4.5 6.5q0 8 -5 10zM1122 151q-1 4 -3 4t-3.5 0.5t-3.5 0.5q-1 -1 -6 -1l-7 -4q-2 -1 -2 -3v-2q-1 -2 -1 -5v-1q0 -4 1 -4v-1q0 -6 4 -6q1 -5 6 -5h7q5 0 7 2q1 2 3 2.5t2 2.5v2q0 2 1 2l4 3v2q0 6 -5 6zM846 99q-1 0 -1 4q0 1 -1.5 1t-1.5 1q0 4 -1 4l-41 60 q0 1 -3 2q-1 3 -8 3h-9h-14l3 -119l27 1v79l51 -79h25v118h-30zM599 189l48 -18l8 25l-73 25l-41 -105l26 -11l15 41l38 -15l10 25l-38 15zM747 160l-8 11q-3 3 -6.5 5t-7.5 4q-4 1 -7 2t-8 3q-5 1 -9 1h-7q-10 0 -14 -5q-4 0 -7.5 -1t-7.5 -4l-11 -10q-4 -8 -10 -11 q-2 -5 -3.5 -8.5t-1.5 -6.5v-19l3 -15l5 -12l12 -11q3 -4 7 -5.5t6 -3.5q7 -4 15 -4q5 -1 8.5 -1h6.5q5 0 14 2q4 2 8.5 3t6.5 4q6 2 11 10l9 11q4 7 6 17v15q0 3 -0.5 6.5t-2.5 8.5l-3 7.5t-4 6.5zM730 121q0 -3 -1.5 -6.5t-3.5 -5.5l-4.5 -6t-4.5 -4q-4 -1 -6.5 -2 t-5.5 -1q-7 -3 -12 0q-3 0 -6.5 1t-5.5 2l-8 10q-2 2 -2.5 5.5t-0.5 6.5q-3 5 0 14q0 6 5 11l6 9l12 5h12l12 -5l9 -9q2 -3 3.5 -5t1.5 -6q2 -9 0 -14zM1309 460q-2 -2 -3 -4t-1 -6q0 -2 1 -4t3 -5l40 -57l-69 10h-10l-9 -6l-9 -17l97 -65l16 23l-46 32l60 -12l11 20l-33 50 l47 -30l15 24l-98 63zM1296 333l-14 13l-15 3q-3 2 -15 2h-6.5t-8.5 -2l-12 -3q-4 -3 -8.5 -6.5t-6.5 -6.5q-3 -3 -4.5 -6t-3.5 -6q-3 -3 -4 -6.5t-3 -8.5q0 -3 -1.5 -6.5t-1.5 -8.5v-6t3 -9l4 -13l10 -12l13 -10q5 -1 7.5 -3.5t7.5 -2.5t8.5 -2t6.5 -2t6.5 2t8.5 2 q3 0 6.5 2.5t7.5 3.5q6 3 13 10l10 12q1 2 3 5t2 8q1 5 1 15v15l-6 13q-2 4 -5 9zM1282 280q-3 -9 -7 -10q-8 -7 -10 -9q-3 -1 -6.5 -1h-6.5t-6.5 0.5t-4.5 0.5l-11 9q-4 4 -8 11v10v12q4 8 8 12l11 8q3 0 6 0.5t5 0.5q5 0 13 -3q2 -1 4.5 -3t5.5 -5q2 -2 4 -4.5t3 -5.5 q3 -3 3 -12q0 -2 -1.5 -6.5zM1209 220l-7 -4q-2 0 -3.5 -2.5t-1.5 -4.5l-5 -9l-8 -6q-4 -3 -6 -4t-6 -1q-6 -3 -12 0q-3 2 -5.5 2t-5.5 3q-7 4 -7 11q-5 1 -5 11q-5 3 0 14v3.5t2 7.5q2 2 4 3.5t4 3.5q8 3 10 3q3 2 10 2q2 0 10 3q2 4 5 5l2 7v8q-3 5 -12 5h-13l-14 -5 l-11 -5q-2 -2 -5.5 -4.5t-6.5 -6.5q-2 -2 -4 -5.5t-4 -8.5l-7 -15v-15q0 -5 2 -7.5t2 -7.5l6 -15q3 -3 6 -5t4 -5l15 -10l12 -2q5 -3 16 -3q4 0 7 1.5t7 2.5q5 1 8.5 3.5t6.5 5.5l5 2.5t5 4.5q3 0 5 3.5t5 6.5l3 14q5 4 5 13l-12 2h-6zM519 260l-102 -74l15 -10h2.5h2.5 q3 0 3.5 -0.5t1.5 0.5h5h5l10 10l40 -22l-2 -15v-5q0 -3 1 -3q0 -1 1 -1v-4q0 -1 2 -1l3 -4l17 -10l17 125zM507 218v-2v-3l-1 -22l-19 10l17 15h2h1v2v1h2q1 1 2 1zM477 255l18 20l-69 59l-20 -21l26 -22l-57 -66l20 -19l60 70zM257 411l83 -10h6q1 0 2 1t3 1l11 8l-45 77 l-23 -14l26 -44l-83 9q-1 0 -4.5 -0.5t-7.5 -3.5l-10 -5l45 -79l22 15zM357 303l22 18l-27 30l14 12l31 -39l20 17l-48 60l-90 -75l51 -58l19 18l-32 37l17 11zM191 741l50 4q1 -2 3.5 -4t4.5 -5q2 -1 3.5 -4t1.5 -6q1 -6 3 -11q0 -4 1 -6.5t1 -4.5q0 -8 -1 -14t-3 -11 q-1 -8 -4.5 -13t-6.5 -10q-7 -8 -19 -12q-11 -8 -23 -8h-17q-4 3 -7.5 4t-7.5 4q-4 1 -6.5 3t-6.5 4q-2 3 -5 6t-5 7q-2 2 -3.5 5.5t-3.5 6.5q-1 5 -2 9.5t-1 9.5v6.5v4.5q3 9 3 14q2 3 3.5 5.5t3.5 5.5q2 2 3.5 5t3.5 5l3 -5q3 0 4 -1l1 -1q2 -3 2 -8v-3t-2 -3 q-5 -5 -5 -11v-13t3 -17q2 -4 4.5 -7t5.5 -6q5 -5 14 -7q7 -4 17 -3q6 0 11 3q3 1 5 1.5t4 3.5q1 2 3.5 3t5.5 4q1 2 2.5 3.5t3.5 4.5q0 4 0.5 6.5t2.5 5.5q1 4 1 10q-1 4 -2 7t-2 8q0 3 -5 10l-19 -1v-5v-5q0 -2 -2 -5q-1 -1 -2 -2.5t-2 -1.5q-2 -1 -6 -1h-6zM264 831 l-9 -75l-118 12l8 75l19 -2l-7 -55l30 -5l5 47l20 -2l-5 -45l32 -3l5 57zM164 851l-17 5l22 90l18 -5l-10 -37l98 -23l-4 -18l-97 23zM205 988l-18 8l42 83l16 -8l-15 -32l89 -45l-8 -18l-90 45zM392 1106l-11 -16l-40 30l-35 -47l41 -30l-11 -15l-97 70l11 15l40 -29l35 47 l-40 30l11 15zM456 1166l-54 -51l-83 86l53 53l14 -15l-39 -39l20 -21l33 31l12 -14l-31 -30l21 -23l40 38zM514 1290l10 -17l-39 -24l24 -43l-14 -10l-63 100l63 40l9 -15l-47 -30l18 -26zM562 1290q0 -7 5 -10q2 -4 10 -7q2 -2 5 -2h5q5 0 10 2q8 3 10 7q5 5 7 10 q1 1 1 10q0 6 -1 11l-27 67l17 8l28 -68q2 -5 2.5 -9t0.5 -9q0 -10 -3 -19q-2 -5 -4.5 -8t-7.5 -7q-3 -5 -6 -6.5t-8 -3.5t-9.5 -3.5t-9.5 -1.5q-8 0 -18 5q-5 2 -8.5 3.5t-6.5 6.5q-7 7 -10 15l-30 67l18 8zM662 1276l-30 117l20 5l23 -97l49 10l3 -20zM731 1291l-12 120 l20 2l10 -98l51 5v-20zM864 1296l-19 4l12 118l44 -5q6 0 14 -4q9 -5 11 -10q4 -3 6 -13q4 -7 3 -15q-3 -3 -3 -6.5t-2 -8.5q-6 -8 -9 -11q-4 -4 -14 -7q-3 -2 -13 -2l-25 4zM895 1356h7q3 0 7 5q3 0 3 5q2 2 4 8q0 5 -1 7t-2 3.5l-1 1.5q-2 3 -3.5 4t-2.5 1q-2 2 -3.5 2 t-2.5 1l-25 2l-5 -38zM951 1285l-19 5l30 113l44 -12q6 0 11 -5l10 -10q4 -5 4 -13q1 -5 0.5 -8.5t-0.5 -6.5q-2 -5 -5 -10q-4 -5 -6 -7q-8 -5 -10 -5q-3 -2 -5.5 -2.5t-3.5 -2.5l21 -56l-15 1q-1 2 -3 3.5t-3 1.5q-4 2 -5 9l-19 46l-15 4zM977 1379l-10 -31l25 -7h3h2 q3 0 4 1t4 1q2 0 2 1.5v1.5q5 5 5 7v7v3t-1 3q-1 2 -2.5 2.5t-1.5 2.5q-3 3 -6 3zM1037 1321q0 5 2.5 8.5t6.5 6.5q1 3 4.5 5.5t6.5 4.5q3 3 6.5 4t8.5 3q4 3 14 3h15q9 -1 16 -6q8 -4 15 -9q3 -3 5.5 -6.5t4.5 -4.5l3.5 -7l3.5 -7q1 -5 2 -8t1 -7v-8t-2 -8q-1 -4 -2 -7.5 t-3 -7.5q-3 -4 -4 -7t-4 -7q-3 -3 -6.5 -5t-4.5 -6q-4 -2 -7 -4t-7 -5q-6 0 -16 -1q-12 0 -17 1q-5 0 -15 5q-12 5 -18 15q-9 9 -14 20q-1 7 -1 12v12q0 11 6 21zM1054 1315q-2 -4 -2.5 -6.5t-2.5 -5.5v-10q0 -2 1 -5t2 -5q0 -7 4 -10q1 -2 3 -4.5t3 -2.5q4 -5 10 -6 q7 -4 10 -4h12h12q4 5 8 5q3 2 5 3.5t3 3.5q3 3 4 5.5t3 4.5q2 3 2.5 7.5t0.5 9.5v7.5v7.5q-2 4 -4.5 7.5t-5.5 5.5q-6 7 -13 10q-2 2 -5 2.5t-7 0.5h-10q-6 0 -10 -1q-3 -2 -5 -3t-5 -1q-1 -2 -3 -4t-3 -4zM1222 1290l10 -9q0 -1 1.5 -3t3.5 -3q0 -5 -2 -9l-28 -85l83 38 q1 1 7 1q5 0 7 -4l10 -7l-117 -54l-15 11zM1279 1064l-47 56l90 76l49 -56l-14 -14l-37 44l-23 -19l29 -36l-16 -11l-28 35l-23 -21l35 -42zM1294 1039l-9 16l101 61l23 -37q2 -3 2.5 -6t2.5 -8q2 -7 -2 -12q-2 -9 -5 -13l-4.5 -4.5t-6.5 -5.5q-4 -1 -5.5 -1.5t-4.5 -2.5 q-4 0 -5.5 -0.5t-4.5 0.5q-4 0 -10 3q-4 1 -5.5 1.5t-3.5 3.5l-23 -59l-9 13q-4 2 -4 7q0 6 3 9l20 47l-8 13zM1381 1089l-29 -16l13 -19q2 -5 4 -6q1 0 6 -3h6q1 0 5 3q1 0 6 3q0 3 1 4t1 3q1 1 1 6q-1 1 -1 2.5t-2 3.5zM1436 969q1 1 1 7q0 4 -1 5q-2 3 -2 7q-3 0 -5 3 q-2 2 -5 2q-3 1 -5 0l-2.5 -2.5l-1.5 -1.5l-2 -2l-2 -2v-7v-10v-3v-2v-10q0 -2 -0.5 -4.5t-0.5 -4.5q-4 -14 -19 -21q-4 -2 -7.5 -3t-8.5 1q-6 0 -14 2q-4 3 -7 5t-5 6q-3 2 -5 5.5t-4 6.5q-3 10 -3 15q0 4 3 14q0 3 2 5l3 4q0 4 2 4q4 2 3 2l4 -2q3 -5 5 -7q0 -1 0.5 -2 t0.5 -3q0 -3 -3 -6v-1v-8q0 -5 2 -8q0 -2 1 -3t2 -4q2 0 3.5 -1.5l3.5 -3.5h2t4 -2h4.5t4.5 2q2 0 5 3q2 4 2 5q1 2 1 7v8v4v12q0 8 2 13q1 2 2 4.5t4 5.5q2 2 4.5 3.5t6.5 3.5q8 3 14 1q6 0 12 -3q3 -2 6.5 -3.5t5.5 -5.5q3 -3 6 -11q2 -7 2 -10q0 -7 -1 -10q0 -4 -4 -10 v-4.5t-2 -3.5l-6 4q-3 1 -4 2.5t-3 3.5q-1 3 -1 6v3zM1364 881l-5 18l113 34l5 -19zM1427 881h19q6 0 14 -5q4 0 7.5 -2.5t4.5 -4.5q4 -3 7 -5.5t6 -5.5q4 -8 7 -12q3 -8 5 -18v-15q-2 -10 -5 -15q-1 -5 -3 -8.5t-4 -6.5l-10 -10q-4 -4 -7.5 -5.5t-6.5 -2.5q-7 -4 -15 -4 q-10 -1 -19 0q-8 0 -15 4q-2 1 -6 2.5t-7 3.5q-3 3 -5.5 6.5t-4.5 5.5q-7 5 -8 15q-2 3 -3.5 6.5t-1.5 8.5q-1 13 1 23q5 13 10 20q7 10 18 17q5 3 11 5.5t11 2.5zM1430 861q-8 0 -10 -3q-5 -2 -10 -5q-4 -2 -6 -7q-5 -5 -5 -10q-2 -1 -2.5 -4t-1.5 -6v-10q2 -8 4 -11 q0 -6 5 -9q1 -3 3 -5t3 -5q2 0 4.5 -1.5t5.5 -3.5q2 -1 4.5 -1h5.5q5 -4 11 0q11 0 16 5q5 1 13 11q6 8 6 15q3 7 1 15q0 7 -2 10q-3 4 -3.5 6t-1.5 4q-3 2 -4.5 3.5l-3.5 3.5q-5 3 -10 5q-3 3 -11 3q-4 3 -11 0zM1377 645l2 16l96 60l-91 5l1 20l117 -10v-11q0 -5 -1 -9 q-4 -2 -4 -5l-81 -50l81 -6l-1 -19z" />
<glyph unicode="3" d="M822 308q82 0 155 30t130 78h-570q58 -48 130 -78t155 -30zM586 463h564q45 55 70 124t25 147q0 80 -26.5 150t-81.5 139zM822 1251q-105 0 -198 -40t-163.5 -109t-112.5 -163.5t-42 -204.5q0 -103 39.5 -196t108 -163.5t163.5 -112.5t205 -42q35 0 70 5.5t68 15.5 q77 23 146 68t120 108.5t80.5 143.5t29.5 173q0 101 -38.5 194t-107 165t-163.5 115t-205 43zM822 260q-100 0 -186 38t-150 103t-99.5 151.5t-35.5 181.5q0 94 35 179.5t98 151t149.5 103.5t188.5 38q67 0 124 -16q71 -19 134.5 -60t111 -100t75 -134t27.5 -162 q0 -98 -37 -184.5t-101.5 -151t-150.5 -101.5t-183 -37zM492 1004q-45 -55 -70.5 -122.5t-25.5 -147.5q0 -83 28 -155.5t78 -130.5l555 556h-565zM822 1161q-83 0 -155.5 -29t-130.5 -81h566q-55 50 -126.5 80t-153.5 30zM972 191l-90 -16l4 -26l34 6l16 -89l26 5l-16 89 l31 6zM1072 156q-1 7 -8 9l-12 5h-15h-6h-9h-2v1q-3 3 -3 4l-2 1q2 0 2 4v1h3h5v4h1h5h3q3 0 3 1h9q0 3 0.5 4l0.5 1l5 10l-6 4q-9 4 -12 4q-2 0 -4.5 1t-4.5 1q-4 0 -6 -1t-4 -1l-13 -8q-2 -1 -4 -3.5t-3 -6.5q-8 -6 -8 -15v-4t3 -7q2 -9 10 -14q1 0 3.5 -1.5t3.5 -3.5 q4 0 7 -1t6 -1h12h10h2q2 0 3 -3q4 0 4 -1h3v-5q0 -2 -1 -3t-1 -2v-1q-1 0 -2 -2.5t-3 -2.5q-1 -3 -5 -3h-2.5h-2.5h-3.5h-2.5h-6h-8l-5 -1v-2t-1 -2l-5 -7q1 -4 3 -6t3 -4q4 -1 7 -2t7 -1q8 -3 11 -2q4 0 8 1t7 1l7 3.5t8 4.5l5.5 5.5t4.5 6.5q0 5 2.5 7.5t2.5 7.5 t-0.5 8.5t-4.5 6.5q0 8 -5 10zM1122 151q-1 4 -3 4t-3.5 0.5t-3.5 0.5q-1 -1 -6 -1l-7 -4q-2 -1 -2 -3v-2q-1 -2 -1 -5v-1q0 -4 1 -4v-1q0 -6 4 -6q1 -5 6 -5h7q5 0 7 2q1 2 3 2.5t2 2.5v2q0 2 1 2l4 3v2q0 6 -5 6zM846 99q-1 0 -1 4q0 1 -1.5 1t-1.5 1q0 4 -1 4l-41 60 q0 1 -3 2q-1 3 -8 3h-9h-14l3 -119l27 1v79l51 -79h25v118h-30zM599 189l48 -18l8 25l-73 25l-41 -105l26 -11l15 41l38 -15l10 25l-38 15zM747 160l-8 11q-3 3 -6.5 5t-7.5 4q-4 1 -7 2t-8 3q-5 1 -9 1h-7q-10 0 -14 -5q-4 0 -7.5 -1t-7.5 -4l-11 -10q-4 -8 -10 -11 q-2 -5 -3.5 -8.5t-1.5 -6.5v-19l3 -15l5 -12l12 -11q3 -4 7 -5.5t6 -3.5q7 -4 15 -4q5 -1 8.5 -1h6.5q5 0 14 2q4 2 8.5 3t6.5 4q6 2 11 10l9 11q4 7 6 17v15q0 3 -0.5 6.5t-2.5 8.5l-3 7.5t-4 6.5zM730 121q0 -3 -1.5 -6.5t-3.5 -5.5l-4.5 -6t-4.5 -4q-4 -1 -6.5 -2 t-5.5 -1q-7 -3 -12 0q-3 0 -6.5 1t-5.5 2l-8 10q-2 2 -2.5 5.5t-0.5 6.5q-3 5 0 14q0 6 5 11l6 9l12 5h12l12 -5l9 -9q2 -3 3.5 -5t1.5 -6q2 -9 0 -14zM1309 460q-2 -2 -3 -4t-1 -6q0 -2 1 -4t3 -5l40 -57l-69 10h-10l-9 -6l-9 -17l97 -65l16 23l-46 32l60 -12l11 20l-33 50 l47 -30l15 24l-98 63zM1296 333l-14 13l-15 3q-3 2 -15 2h-6.5t-8.5 -2l-12 -3q-4 -3 -8.5 -6.5t-6.5 -6.5q-3 -3 -4.5 -6t-3.5 -6q-3 -3 -4 -6.5t-3 -8.5q0 -3 -1.5 -6.5t-1.5 -8.5v-6t3 -9l4 -13l10 -12l13 -10q5 -1 7.5 -3.5t7.5 -2.5t8.5 -2t6.5 -2t6.5 2t8.5 2 q3 0 6.5 2.5t7.5 3.5q6 3 13 10l10 12q1 2 3 5t2 8q1 5 1 15v15l-6 13q-2 4 -5 9zM1282 280q-3 -9 -7 -10q-8 -7 -10 -9q-3 -1 -6.5 -1h-6.5t-6.5 0.5t-4.5 0.5l-11 9q-4 4 -8 11v10v12q4 8 8 12l11 8q3 0 6 0.5t5 0.5q5 0 13 -3q2 -1 4.5 -3t5.5 -5q2 -2 4 -4.5t3 -5.5 q3 -3 3 -12q0 -2 -1.5 -6.5zM1209 220l-7 -4q-2 0 -3.5 -2.5t-1.5 -4.5l-5 -9l-8 -6q-4 -3 -6 -4t-6 -1q-6 -3 -12 0q-3 2 -5.5 2t-5.5 3q-7 4 -7 11q-5 1 -5 11q-5 3 0 14v3.5t2 7.5q2 2 4 3.5t4 3.5q8 3 10 3q3 2 10 2q2 0 10 3q2 4 5 5l2 7v8q-3 5 -12 5h-13l-14 -5 l-11 -5q-2 -2 -5.5 -4.5t-6.5 -6.5q-2 -2 -4 -5.5t-4 -8.5l-7 -15v-15q0 -5 2 -7.5t2 -7.5l6 -15q3 -3 6 -5t4 -5l15 -10l12 -2q5 -3 16 -3q4 0 7 1.5t7 2.5q5 1 8.5 3.5t6.5 5.5l5 2.5t5 4.5q3 0 5 3.5t5 6.5l3 14q5 4 5 13l-12 2h-6zM519 260l-102 -74l15 -10h2.5h2.5 q3 0 3.5 -0.5t1.5 0.5h5h5l10 10l40 -22l-2 -15v-5q0 -3 1 -3q0 -1 1 -1v-4q0 -1 2 -1l3 -4l17 -10l17 125zM507 218v-2v-3l-1 -22l-19 10l17 15h2h1v2v1h2q1 1 2 1zM477 255l18 20l-69 59l-20 -21l26 -22l-57 -66l20 -19l60 70zM257 411l83 -10h6q1 0 2 1t3 1l11 8l-45 77 l-23 -14l26 -44l-83 9q-1 0 -4.5 -0.5t-7.5 -3.5l-10 -5l45 -79l22 15zM357 303l22 18l-27 30l14 12l31 -39l20 17l-48 60l-90 -75l51 -58l19 18l-32 37l17 11zM191 741l50 4q1 -2 3.5 -4t4.5 -5q2 -1 3.5 -4t1.5 -6q1 -6 3 -11q0 -4 1 -6.5t1 -4.5q0 -8 -1 -14t-3 -11 q-1 -8 -4.5 -13t-6.5 -10q-7 -8 -19 -12q-11 -8 -23 -8h-17q-4 3 -7.5 4t-7.5 4q-4 1 -6.5 3t-6.5 4q-2 3 -5 6t-5 7q-2 2 -3.5 5.5t-3.5 6.5q-1 5 -2 9.5t-1 9.5v6.5v4.5q3 9 3 14q2 3 3.5 5.5t3.5 5.5q2 2 3.5 5t3.5 5l3 -5q3 0 4 -1l1 -1q2 -3 2 -8v-3t-2 -3 q-5 -5 -5 -11v-13t3 -17q2 -4 4.5 -7t5.5 -6q5 -5 14 -7q7 -4 17 -3q6 0 11 3q3 1 5 1.5t4 3.5q1 2 3.5 3t5.5 4q1 2 2.5 3.5t3.5 4.5q0 4 0.5 6.5t2.5 5.5q1 4 1 10q-1 4 -2 7t-2 8q0 3 -5 10l-19 -1v-5v-5q0 -2 -2 -5q-1 -1 -2 -2.5t-2 -1.5q-2 -1 -6 -1h-6zM264 831 l-9 -75l-118 12l8 75l19 -2l-7 -55l30 -5l5 47l20 -2l-5 -45l32 -3l5 57zM164 851l-17 5l22 90l18 -5l-10 -37l98 -23l-4 -18l-97 23zM205 988l-18 8l42 83l16 -8l-15 -32l89 -45l-8 -18l-90 45zM392 1106l-11 -16l-40 30l-35 -47l41 -30l-11 -15l-97 70l11 15l40 -29l35 47 l-40 30l11 15zM456 1166l-54 -51l-83 86l53 53l14 -15l-39 -39l20 -21l33 31l12 -14l-31 -30l21 -23l40 38zM514 1290l10 -17l-39 -24l24 -43l-14 -10l-63 100l63 40l9 -15l-47 -30l18 -26zM562 1290q0 -7 5 -10q2 -4 10 -7q2 -2 5 -2h5q5 0 10 2q8 3 10 7q5 5 7 10 q1 1 1 10q0 6 -1 11l-27 67l17 8l28 -68q2 -5 2.5 -9t0.5 -9q0 -10 -3 -19q-2 -5 -4.5 -8t-7.5 -7q-3 -5 -6 -6.5t-8 -3.5t-9.5 -3.5t-9.5 -1.5q-8 0 -18 5q-5 2 -8.5 3.5t-6.5 6.5q-7 7 -10 15l-30 67l18 8zM662 1276l-30 117l20 5l23 -97l49 10l3 -20zM731 1291l-12 120 l20 2l10 -98l51 5v-20zM864 1296l-19 4l12 118l44 -5q6 0 14 -4q9 -5 11 -10q4 -3 6 -13q4 -7 3 -15q-3 -3 -3 -6.5t-2 -8.5q-6 -8 -9 -11q-4 -4 -14 -7q-3 -2 -13 -2l-25 4zM895 1356h7q3 0 7 5q3 0 3 5q2 2 4 8q0 5 -1 7t-2 3.5l-1 1.5q-2 3 -3.5 4t-2.5 1q-2 2 -3.5 2 t-2.5 1l-25 2l-5 -38zM951 1285l-19 5l30 113l44 -12q6 0 11 -5l10 -10q4 -5 4 -13q1 -5 0.5 -8.5t-0.5 -6.5q-2 -5 -5 -10q-4 -5 -6 -7q-8 -5 -10 -5q-3 -2 -5.5 -2.5t-3.5 -2.5l21 -56l-15 1q-1 2 -3 3.5t-3 1.5q-4 2 -5 9l-19 46l-15 4zM977 1379l-10 -31l25 -7h3h2 q3 0 4 1t4 1q2 0 2 1.5v1.5q5 5 5 7v7v3t-1 3q-1 2 -2.5 2.5t-1.5 2.5q-3 3 -6 3zM1037 1321q0 5 2.5 8.5t6.5 6.5q1 3 4.5 5.5t6.5 4.5q3 3 6.5 4t8.5 3q4 3 14 3h15q9 -1 16 -6q8 -4 15 -9q3 -3 5.5 -6.5t4.5 -4.5l3.5 -7l3.5 -7q1 -5 2 -8t1 -7v-8t-2 -8q-1 -4 -2 -7.5 t-3 -7.5q-3 -4 -4 -7t-4 -7q-3 -3 -6.5 -5t-4.5 -6q-4 -2 -7 -4t-7 -5q-6 0 -16 -1q-12 0 -17 1q-5 0 -15 5q-12 5 -18 15q-9 9 -14 20q-1 7 -1 12v12q0 11 6 21zM1054 1315q-2 -4 -2.5 -6.5t-2.5 -5.5v-10q0 -2 1 -5t2 -5q0 -7 4 -10q1 -2 3 -4.5t3 -2.5q4 -5 10 -6 q7 -4 10 -4h12h12q4 5 8 5q3 2 5 3.5t3 3.5q3 3 4 5.5t3 4.5q2 3 2.5 7.5t0.5 9.5v7.5v7.5q-2 4 -4.5 7.5t-5.5 5.5q-6 7 -13 10q-2 2 -5 2.5t-7 0.5h-10q-6 0 -10 -1q-3 -2 -5 -3t-5 -1q-1 -2 -3 -4t-3 -4zM1222 1290l10 -9q0 -1 1.5 -3t3.5 -3q0 -5 -2 -9l-28 -85l83 38 q1 1 7 1q5 0 7 -4l10 -7l-117 -54l-15 11zM1279 1064l-47 56l90 76l49 -56l-14 -14l-37 44l-23 -19l29 -36l-16 -11l-28 35l-23 -21l35 -42zM1294 1039l-9 16l101 61l23 -37q2 -3 2.5 -6t2.5 -8q2 -7 -2 -12q-2 -9 -5 -13l-4.5 -4.5t-6.5 -5.5q-4 -1 -5.5 -1.5t-4.5 -2.5 q-4 0 -5.5 -0.5t-4.5 0.5q-4 0 -10 3q-4 1 -5.5 1.5t-3.5 3.5l-23 -59l-9 13q-4 2 -4 7q0 6 3 9l20 47l-8 13zM1381 1089l-29 -16l13 -19q2 -5 4 -6q1 0 6 -3h6q1 0 5 3q1 0 6 3q0 3 1 4t1 3q1 1 1 6q-1 1 -1 2.5t-2 3.5zM1436 969q1 1 1 7q0 4 -1 5q-2 3 -2 7q-3 0 -5 3 q-2 2 -5 2q-3 1 -5 0l-2.5 -2.5l-1.5 -1.5l-2 -2l-2 -2v-7v-10v-3v-2v-10q0 -2 -0.5 -4.5t-0.5 -4.5q-4 -14 -19 -21q-4 -2 -7.5 -3t-8.5 1q-6 0 -14 2q-4 3 -7 5t-5 6q-3 2 -5 5.5t-4 6.5q-3 10 -3 15q0 4 3 14q0 3 2 5l3 4q0 4 2 4q4 2 3 2l4 -2q3 -5 5 -7q0 -1 0.5 -2 t0.5 -3q0 -3 -3 -6v-1v-8q0 -5 2 -8q0 -2 1 -3t2 -4q2 0 3.5 -1.5l3.5 -3.5h2t4 -2h4.5t4.5 2q2 0 5 3q2 4 2 5q1 2 1 7v8v4v12q0 8 2 13q1 2 2 4.5t4 5.5q2 2 4.5 3.5t6.5 3.5q8 3 14 1q6 0 12 -3q3 -2 6.5 -3.5t5.5 -5.5q3 -3 6 -11q2 -7 2 -10q0 -7 -1 -10q0 -4 -4 -10 v-4.5t-2 -3.5l-6 4q-3 1 -4 2.5t-3 3.5q-1 3 -1 6v3zM1364 881l-5 18l113 34l5 -19zM1427 881h19q6 0 14 -5q4 0 7.5 -2.5t4.5 -4.5q4 -3 7 -5.5t6 -5.5q4 -8 7 -12q3 -8 5 -18v-15q-2 -10 -5 -15q-1 -5 -3 -8.5t-4 -6.5l-10 -10q-4 -4 -7.5 -5.5t-6.5 -2.5q-7 -4 -15 -4 q-10 -1 -19 0q-8 0 -15 4q-2 1 -6 2.5t-7 3.5q-3 3 -5.5 6.5t-4.5 5.5q-7 5 -8 15q-2 3 -3.5 6.5t-1.5 8.5q-1 13 1 23q5 13 10 20q7 10 18 17q5 3 11 5.5t11 2.5zM1430 861q-8 0 -10 -3q-5 -2 -10 -5q-4 -2 -6 -7q-5 -5 -5 -10q-2 -1 -2.5 -4t-1.5 -6v-10q2 -8 4 -11 q0 -6 5 -9q1 -3 3 -5t3 -5q2 0 4.5 -1.5t5.5 -3.5q2 -1 4.5 -1h5.5q5 -4 11 0q11 0 16 5q5 1 13 11q6 8 6 15q3 7 1 15q0 7 -2 10q-3 4 -3.5 6t-1.5 4q-3 2 -4.5 3.5l-3.5 3.5q-5 3 -10 5q-3 3 -11 3q-4 3 -11 0zM1377 645l2 16l96 60l-91 5l1 20l117 -10v-11q0 -5 -1 -9 q-4 -2 -4 -5l-81 -50l81 -6l-1 -19z" />
<glyph unicode="4" d="M822 308q82 0 155 30t130 78h-570q58 -48 130 -78t155 -30zM586 463h564q45 55 70 124t25 147q0 80 -26.5 150t-81.5 139zM822 1251q-105 0 -198 -40t-163.5 -109t-112.5 -163.5t-42 -204.5q0 -103 39.5 -196t108 -163.5t163.5 -112.5t205 -42q35 0 70 5.5t68 15.5 q77 23 146 68t120 108.5t80.5 143.5t29.5 173q0 101 -38.5 194t-107 165t-163.5 115t-205 43zM822 260q-100 0 -186 38t-150 103t-99.5 151.5t-35.5 181.5q0 94 35 179.5t98 151t149.5 103.5t188.5 38q67 0 124 -16q71 -19 134.5 -60t111 -100t75 -134t27.5 -162 q0 -98 -37 -184.5t-101.5 -151t-150.5 -101.5t-183 -37zM492 1004q-45 -55 -70.5 -122.5t-25.5 -147.5q0 -83 28 -155.5t78 -130.5l555 556h-565zM822 1161q-83 0 -155.5 -29t-130.5 -81h566q-55 50 -126.5 80t-153.5 30zM972 191l-90 -16l4 -26l34 6l16 -89l26 5l-16 89 l31 6zM1072 156q-1 7 -8 9l-12 5h-15h-6h-9h-2v1q-3 3 -3 4l-2 1q2 0 2 4v1h3h5v4h1h5h3q3 0 3 1h9q0 3 0.5 4l0.5 1l5 10l-6 4q-9 4 -12 4q-2 0 -4.5 1t-4.5 1q-4 0 -6 -1t-4 -1l-13 -8q-2 -1 -4 -3.5t-3 -6.5q-8 -6 -8 -15v-4t3 -7q2 -9 10 -14q1 0 3.5 -1.5t3.5 -3.5 q4 0 7 -1t6 -1h12h10h2q2 0 3 -3q4 0 4 -1h3v-5q0 -2 -1 -3t-1 -2v-1q-1 0 -2 -2.5t-3 -2.5q-1 -3 -5 -3h-2.5h-2.5h-3.5h-2.5h-6h-8l-5 -1v-2t-1 -2l-5 -7q1 -4 3 -6t3 -4q4 -1 7 -2t7 -1q8 -3 11 -2q4 0 8 1t7 1l7 3.5t8 4.5l5.5 5.5t4.5 6.5q0 5 2.5 7.5t2.5 7.5 t-0.5 8.5t-4.5 6.5q0 8 -5 10zM1122 151q-1 4 -3 4t-3.5 0.5t-3.5 0.5q-1 -1 -6 -1l-7 -4q-2 -1 -2 -3v-2q-1 -2 -1 -5v-1q0 -4 1 -4v-1q0 -6 4 -6q1 -5 6 -5h7q5 0 7 2q1 2 3 2.5t2 2.5v2q0 2 1 2l4 3v2q0 6 -5 6zM846 99q-1 0 -1 4q0 1 -1.5 1t-1.5 1q0 4 -1 4l-41 60 q0 1 -3 2q-1 3 -8 3h-9h-14l3 -119l27 1v79l51 -79h25v118h-30zM599 189l48 -18l8 25l-73 25l-41 -105l26 -11l15 41l38 -15l10 25l-38 15zM747 160l-8 11q-3 3 -6.5 5t-7.5 4q-4 1 -7 2t-8 3q-5 1 -9 1h-7q-10 0 -14 -5q-4 0 -7.5 -1t-7.5 -4l-11 -10q-4 -8 -10 -11 q-2 -5 -3.5 -8.5t-1.5 -6.5v-19l3 -15l5 -12l12 -11q3 -4 7 -5.5t6 -3.5q7 -4 15 -4q5 -1 8.5 -1h6.5q5 0 14 2q4 2 8.5 3t6.5 4q6 2 11 10l9 11q4 7 6 17v15q0 3 -0.5 6.5t-2.5 8.5l-3 7.5t-4 6.5zM730 121q0 -3 -1.5 -6.5t-3.5 -5.5l-4.5 -6t-4.5 -4q-4 -1 -6.5 -2 t-5.5 -1q-7 -3 -12 0q-3 0 -6.5 1t-5.5 2l-8 10q-2 2 -2.5 5.5t-0.5 6.5q-3 5 0 14q0 6 5 11l6 9l12 5h12l12 -5l9 -9q2 -3 3.5 -5t1.5 -6q2 -9 0 -14zM1309 460q-2 -2 -3 -4t-1 -6q0 -2 1 -4t3 -5l40 -57l-69 10h-10l-9 -6l-9 -17l97 -65l16 23l-46 32l60 -12l11 20l-33 50 l47 -30l15 24l-98 63zM1296 333l-14 13l-15 3q-3 2 -15 2h-6.5t-8.5 -2l-12 -3q-4 -3 -8.5 -6.5t-6.5 -6.5q-3 -3 -4.5 -6t-3.5 -6q-3 -3 -4 -6.5t-3 -8.5q0 -3 -1.5 -6.5t-1.5 -8.5v-6t3 -9l4 -13l10 -12l13 -10q5 -1 7.5 -3.5t7.5 -2.5t8.5 -2t6.5 -2t6.5 2t8.5 2 q3 0 6.5 2.5t7.5 3.5q6 3 13 10l10 12q1 2 3 5t2 8q1 5 1 15v15l-6 13q-2 4 -5 9zM1282 280q-3 -9 -7 -10q-8 -7 -10 -9q-3 -1 -6.5 -1h-6.5t-6.5 0.5t-4.5 0.5l-11 9q-4 4 -8 11v10v12q4 8 8 12l11 8q3 0 6 0.5t5 0.5q5 0 13 -3q2 -1 4.5 -3t5.5 -5q2 -2 4 -4.5t3 -5.5 q3 -3 3 -12q0 -2 -1.5 -6.5zM1209 220l-7 -4q-2 0 -3.5 -2.5t-1.5 -4.5l-5 -9l-8 -6q-4 -3 -6 -4t-6 -1q-6 -3 -12 0q-3 2 -5.5 2t-5.5 3q-7 4 -7 11q-5 1 -5 11q-5 3 0 14v3.5t2 7.5q2 2 4 3.5t4 3.5q8 3 10 3q3 2 10 2q2 0 10 3q2 4 5 5l2 7v8q-3 5 -12 5h-13l-14 -5 l-11 -5q-2 -2 -5.5 -4.5t-6.5 -6.5q-2 -2 -4 -5.5t-4 -8.5l-7 -15v-15q0 -5 2 -7.5t2 -7.5l6 -15q3 -3 6 -5t4 -5l15 -10l12 -2q5 -3 16 -3q4 0 7 1.5t7 2.5q5 1 8.5 3.5t6.5 5.5l5 2.5t5 4.5q3 0 5 3.5t5 6.5l3 14q5 4 5 13l-12 2h-6zM519 260l-102 -74l15 -10h2.5h2.5 q3 0 3.5 -0.5t1.5 0.5h5h5l10 10l40 -22l-2 -15v-5q0 -3 1 -3q0 -1 1 -1v-4q0 -1 2 -1l3 -4l17 -10l17 125zM507 218v-2v-3l-1 -22l-19 10l17 15h2h1v2v1h2q1 1 2 1zM477 255l18 20l-69 59l-20 -21l26 -22l-57 -66l20 -19l60 70zM257 411l83 -10h6q1 0 2 1t3 1l11 8l-45 77 l-23 -14l26 -44l-83 9q-1 0 -4.5 -0.5t-7.5 -3.5l-10 -5l45 -79l22 15zM357 303l22 18l-27 30l14 12l31 -39l20 17l-48 60l-90 -75l51 -58l19 18l-32 37l17 11zM191 741l50 4q1 -2 3.5 -4t4.5 -5q2 -1 3.5 -4t1.5 -6q1 -6 3 -11q0 -4 1 -6.5t1 -4.5q0 -8 -1 -14t-3 -11 q-1 -8 -4.5 -13t-6.5 -10q-7 -8 -19 -12q-11 -8 -23 -8h-17q-4 3 -7.5 4t-7.5 4q-4 1 -6.5 3t-6.5 4q-2 3 -5 6t-5 7q-2 2 -3.5 5.5t-3.5 6.5q-1 5 -2 9.5t-1 9.5v6.5v4.5q3 9 3 14q2 3 3.5 5.5t3.5 5.5q2 2 3.5 5t3.5 5l3 -5q3 0 4 -1l1 -1q2 -3 2 -8v-3t-2 -3 q-5 -5 -5 -11v-13t3 -17q2 -4 4.5 -7t5.5 -6q5 -5 14 -7q7 -4 17 -3q6 0 11 3q3 1 5 1.5t4 3.5q1 2 3.5 3t5.5 4q1 2 2.5 3.5t3.5 4.5q0 4 0.5 6.5t2.5 5.5q1 4 1 10q-1 4 -2 7t-2 8q0 3 -5 10l-19 -1v-5v-5q0 -2 -2 -5q-1 -1 -2 -2.5t-2 -1.5q-2 -1 -6 -1h-6zM264 831 l-9 -75l-118 12l8 75l19 -2l-7 -55l30 -5l5 47l20 -2l-5 -45l32 -3l5 57zM164 851l-17 5l22 90l18 -5l-10 -37l98 -23l-4 -18l-97 23zM205 988l-18 8l42 83l16 -8l-15 -32l89 -45l-8 -18l-90 45zM392 1106l-11 -16l-40 30l-35 -47l41 -30l-11 -15l-97 70l11 15l40 -29l35 47 l-40 30l11 15zM456 1166l-54 -51l-83 86l53 53l14 -15l-39 -39l20 -21l33 31l12 -14l-31 -30l21 -23l40 38zM514 1290l10 -17l-39 -24l24 -43l-14 -10l-63 100l63 40l9 -15l-47 -30l18 -26zM562 1290q0 -7 5 -10q2 -4 10 -7q2 -2 5 -2h5q5 0 10 2q8 3 10 7q5 5 7 10 q1 1 1 10q0 6 -1 11l-27 67l17 8l28 -68q2 -5 2.5 -9t0.5 -9q0 -10 -3 -19q-2 -5 -4.5 -8t-7.5 -7q-3 -5 -6 -6.5t-8 -3.5t-9.5 -3.5t-9.5 -1.5q-8 0 -18 5q-5 2 -8.5 3.5t-6.5 6.5q-7 7 -10 15l-30 67l18 8zM662 1276l-30 117l20 5l23 -97l49 10l3 -20zM731 1291l-12 120 l20 2l10 -98l51 5v-20zM864 1296l-19 4l12 118l44 -5q6 0 14 -4q9 -5 11 -10q4 -3 6 -13q4 -7 3 -15q-3 -3 -3 -6.5t-2 -8.5q-6 -8 -9 -11q-4 -4 -14 -7q-3 -2 -13 -2l-25 4zM895 1356h7q3 0 7 5q3 0 3 5q2 2 4 8q0 5 -1 7t-2 3.5l-1 1.5q-2 3 -3.5 4t-2.5 1q-2 2 -3.5 2 t-2.5 1l-25 2l-5 -38zM951 1285l-19 5l30 113l44 -12q6 0 11 -5l10 -10q4 -5 4 -13q1 -5 0.5 -8.5t-0.5 -6.5q-2 -5 -5 -10q-4 -5 -6 -7q-8 -5 -10 -5q-3 -2 -5.5 -2.5t-3.5 -2.5l21 -56l-15 1q-1 2 -3 3.5t-3 1.5q-4 2 -5 9l-19 46l-15 4zM977 1379l-10 -31l25 -7h3h2 q3 0 4 1t4 1q2 0 2 1.5v1.5q5 5 5 7v7v3t-1 3q-1 2 -2.5 2.5t-1.5 2.5q-3 3 -6 3zM1037 1321q0 5 2.5 8.5t6.5 6.5q1 3 4.5 5.5t6.5 4.5q3 3 6.5 4t8.5 3q4 3 14 3h15q9 -1 16 -6q8 -4 15 -9q3 -3 5.5 -6.5t4.5 -4.5l3.5 -7l3.5 -7q1 -5 2 -8t1 -7v-8t-2 -8q-1 -4 -2 -7.5 t-3 -7.5q-3 -4 -4 -7t-4 -7q-3 -3 -6.5 -5t-4.5 -6q-4 -2 -7 -4t-7 -5q-6 0 -16 -1q-12 0 -17 1q-5 0 -15 5q-12 5 -18 15q-9 9 -14 20q-1 7 -1 12v12q0 11 6 21zM1054 1315q-2 -4 -2.5 -6.5t-2.5 -5.5v-10q0 -2 1 -5t2 -5q0 -7 4 -10q1 -2 3 -4.5t3 -2.5q4 -5 10 -6 q7 -4 10 -4h12h12q4 5 8 5q3 2 5 3.5t3 3.5q3 3 4 5.5t3 4.5q2 3 2.5 7.5t0.5 9.5v7.5v7.5q-2 4 -4.5 7.5t-5.5 5.5q-6 7 -13 10q-2 2 -5 2.5t-7 0.5h-10q-6 0 -10 -1q-3 -2 -5 -3t-5 -1q-1 -2 -3 -4t-3 -4zM1222 1290l10 -9q0 -1 1.5 -3t3.5 -3q0 -5 -2 -9l-28 -85l83 38 q1 1 7 1q5 0 7 -4l10 -7l-117 -54l-15 11zM1279 1064l-47 56l90 76l49 -56l-14 -14l-37 44l-23 -19l29 -36l-16 -11l-28 35l-23 -21l35 -42zM1294 1039l-9 16l101 61l23 -37q2 -3 2.5 -6t2.5 -8q2 -7 -2 -12q-2 -9 -5 -13l-4.5 -4.5t-6.5 -5.5q-4 -1 -5.5 -1.5t-4.5 -2.5 q-4 0 -5.5 -0.5t-4.5 0.5q-4 0 -10 3q-4 1 -5.5 1.5t-3.5 3.5l-23 -59l-9 13q-4 2 -4 7q0 6 3 9l20 47l-8 13zM1381 1089l-29 -16l13 -19q2 -5 4 -6q1 0 6 -3h6q1 0 5 3q1 0 6 3q0 3 1 4t1 3q1 1 1 6q-1 1 -1 2.5t-2 3.5zM1436 969q1 1 1 7q0 4 -1 5q-2 3 -2 7q-3 0 -5 3 q-2 2 -5 2q-3 1 -5 0l-2.5 -2.5l-1.5 -1.5l-2 -2l-2 -2v-7v-10v-3v-2v-10q0 -2 -0.5 -4.5t-0.5 -4.5q-4 -14 -19 -21q-4 -2 -7.5 -3t-8.5 1q-6 0 -14 2q-4 3 -7 5t-5 6q-3 2 -5 5.5t-4 6.5q-3 10 -3 15q0 4 3 14q0 3 2 5l3 4q0 4 2 4q4 2 3 2l4 -2q3 -5 5 -7q0 -1 0.5 -2 t0.5 -3q0 -3 -3 -6v-1v-8q0 -5 2 -8q0 -2 1 -3t2 -4q2 0 3.5 -1.5l3.5 -3.5h2t4 -2h4.5t4.5 2q2 0 5 3q2 4 2 5q1 2 1 7v8v4v12q0 8 2 13q1 2 2 4.5t4 5.5q2 2 4.5 3.5t6.5 3.5q8 3 14 1q6 0 12 -3q3 -2 6.5 -3.5t5.5 -5.5q3 -3 6 -11q2 -7 2 -10q0 -7 -1 -10q0 -4 -4 -10 v-4.5t-2 -3.5l-6 4q-3 1 -4 2.5t-3 3.5q-1 3 -1 6v3zM1364 881l-5 18l113 34l5 -19zM1427 881h19q6 0 14 -5q4 0 7.5 -2.5t4.5 -4.5q4 -3 7 -5.5t6 -5.5q4 -8 7 -12q3 -8 5 -18v-15q-2 -10 -5 -15q-1 -5 -3 -8.5t-4 -6.5l-10 -10q-4 -4 -7.5 -5.5t-6.5 -2.5q-7 -4 -15 -4 q-10 -1 -19 0q-8 0 -15 4q-2 1 -6 2.5t-7 3.5q-3 3 -5.5 6.5t-4.5 5.5q-7 5 -8 15q-2 3 -3.5 6.5t-1.5 8.5q-1 13 1 23q5 13 10 20q7 10 18 17q5 3 11 5.5t11 2.5zM1430 861q-8 0 -10 -3q-5 -2 -10 -5q-4 -2 -6 -7q-5 -5 -5 -10q-2 -1 -2.5 -4t-1.5 -6v-10q2 -8 4 -11 q0 -6 5 -9q1 -3 3 -5t3 -5q2 0 4.5 -1.5t5.5 -3.5q2 -1 4.5 -1h5.5q5 -4 11 0q11 0 16 5q5 1 13 11q6 8 6 15q3 7 1 15q0 7 -2 10q-3 4 -3.5 6t-1.5 4q-3 2 -4.5 3.5l-3.5 3.5q-5 3 -10 5q-3 3 -11 3q-4 3 -11 0zM1377 645l2 16l96 60l-91 5l1 20l117 -10v-11q0 -5 -1 -9 q-4 -2 -4 -5l-81 -50l81 -6l-1 -19z" />
<glyph unicode="5" d="M822 308q82 0 155 30t130 78h-570q58 -48 130 -78t155 -30zM586 463h564q45 55 70 124t25 147q0 80 -26.5 150t-81.5 139zM822 1251q-105 0 -198 -40t-163.5 -109t-112.5 -163.5t-42 -204.5q0 -103 39.5 -196t108 -163.5t163.5 -112.5t205 -42q35 0 70 5.5t68 15.5 q77 23 146 68t120 108.5t80.5 143.5t29.5 173q0 101 -38.5 194t-107 165t-163.5 115t-205 43zM822 260q-100 0 -186 38t-150 103t-99.5 151.5t-35.5 181.5q0 94 35 179.5t98 151t149.5 103.5t188.5 38q67 0 124 -16q71 -19 134.5 -60t111 -100t75 -134t27.5 -162 q0 -98 -37 -184.5t-101.5 -151t-150.5 -101.5t-183 -37zM492 1004q-45 -55 -70.5 -122.5t-25.5 -147.5q0 -83 28 -155.5t78 -130.5l555 556h-565zM822 1161q-83 0 -155.5 -29t-130.5 -81h566q-55 50 -126.5 80t-153.5 30zM972 191l-90 -16l4 -26l34 6l16 -89l26 5l-16 89 l31 6zM1072 156q-1 7 -8 9l-12 5h-15h-6h-9h-2v1q-3 3 -3 4l-2 1q2 0 2 4v1h3h5v4h1h5h3q3 0 3 1h9q0 3 0.5 4l0.5 1l5 10l-6 4q-9 4 -12 4q-2 0 -4.5 1t-4.5 1q-4 0 -6 -1t-4 -1l-13 -8q-2 -1 -4 -3.5t-3 -6.5q-8 -6 -8 -15v-4t3 -7q2 -9 10 -14q1 0 3.5 -1.5t3.5 -3.5 q4 0 7 -1t6 -1h12h10h2q2 0 3 -3q4 0 4 -1h3v-5q0 -2 -1 -3t-1 -2v-1q-1 0 -2 -2.5t-3 -2.5q-1 -3 -5 -3h-2.5h-2.5h-3.5h-2.5h-6h-8l-5 -1v-2t-1 -2l-5 -7q1 -4 3 -6t3 -4q4 -1 7 -2t7 -1q8 -3 11 -2q4 0 8 1t7 1l7 3.5t8 4.5l5.5 5.5t4.5 6.5q0 5 2.5 7.5t2.5 7.5 t-0.5 8.5t-4.5 6.5q0 8 -5 10zM1122 151q-1 4 -3 4t-3.5 0.5t-3.5 0.5q-1 -1 -6 -1l-7 -4q-2 -1 -2 -3v-2q-1 -2 -1 -5v-1q0 -4 1 -4v-1q0 -6 4 -6q1 -5 6 -5h7q5 0 7 2q1 2 3 2.5t2 2.5v2q0 2 1 2l4 3v2q0 6 -5 6zM846 99q-1 0 -1 4q0 1 -1.5 1t-1.5 1q0 4 -1 4l-41 60 q0 1 -3 2q-1 3 -8 3h-9h-14l3 -119l27 1v79l51 -79h25v118h-30zM599 189l48 -18l8 25l-73 25l-41 -105l26 -11l15 41l38 -15l10 25l-38 15zM747 160l-8 11q-3 3 -6.5 5t-7.5 4q-4 1 -7 2t-8 3q-5 1 -9 1h-7q-10 0 -14 -5q-4 0 -7.5 -1t-7.5 -4l-11 -10q-4 -8 -10 -11 q-2 -5 -3.5 -8.5t-1.5 -6.5v-19l3 -15l5 -12l12 -11q3 -4 7 -5.5t6 -3.5q7 -4 15 -4q5 -1 8.5 -1h6.5q5 0 14 2q4 2 8.5 3t6.5 4q6 2 11 10l9 11q4 7 6 17v15q0 3 -0.5 6.5t-2.5 8.5l-3 7.5t-4 6.5zM730 121q0 -3 -1.5 -6.5t-3.5 -5.5l-4.5 -6t-4.5 -4q-4 -1 -6.5 -2 t-5.5 -1q-7 -3 -12 0q-3 0 -6.5 1t-5.5 2l-8 10q-2 2 -2.5 5.5t-0.5 6.5q-3 5 0 14q0 6 5 11l6 9l12 5h12l12 -5l9 -9q2 -3 3.5 -5t1.5 -6q2 -9 0 -14zM1309 460q-2 -2 -3 -4t-1 -6q0 -2 1 -4t3 -5l40 -57l-69 10h-10l-9 -6l-9 -17l97 -65l16 23l-46 32l60 -12l11 20l-33 50 l47 -30l15 24l-98 63zM1296 333l-14 13l-15 3q-3 2 -15 2h-6.5t-8.5 -2l-12 -3q-4 -3 -8.5 -6.5t-6.5 -6.5q-3 -3 -4.5 -6t-3.5 -6q-3 -3 -4 -6.5t-3 -8.5q0 -3 -1.5 -6.5t-1.5 -8.5v-6t3 -9l4 -13l10 -12l13 -10q5 -1 7.5 -3.5t7.5 -2.5t8.5 -2t6.5 -2t6.5 2t8.5 2 q3 0 6.5 2.5t7.5 3.5q6 3 13 10l10 12q1 2 3 5t2 8q1 5 1 15v15l-6 13q-2 4 -5 9zM1282 280q-3 -9 -7 -10q-8 -7 -10 -9q-3 -1 -6.5 -1h-6.5t-6.5 0.5t-4.5 0.5l-11 9q-4 4 -8 11v10v12q4 8 8 12l11 8q3 0 6 0.5t5 0.5q5 0 13 -3q2 -1 4.5 -3t5.5 -5q2 -2 4 -4.5t3 -5.5 q3 -3 3 -12q0 -2 -1.5 -6.5zM1209 220l-7 -4q-2 0 -3.5 -2.5t-1.5 -4.5l-5 -9l-8 -6q-4 -3 -6 -4t-6 -1q-6 -3 -12 0q-3 2 -5.5 2t-5.5 3q-7 4 -7 11q-5 1 -5 11q-5 3 0 14v3.5t2 7.5q2 2 4 3.5t4 3.5q8 3 10 3q3 2 10 2q2 0 10 3q2 4 5 5l2 7v8q-3 5 -12 5h-13l-14 -5 l-11 -5q-2 -2 -5.5 -4.5t-6.5 -6.5q-2 -2 -4 -5.5t-4 -8.5l-7 -15v-15q0 -5 2 -7.5t2 -7.5l6 -15q3 -3 6 -5t4 -5l15 -10l12 -2q5 -3 16 -3q4 0 7 1.5t7 2.5q5 1 8.5 3.5t6.5 5.5l5 2.5t5 4.5q3 0 5 3.5t5 6.5l3 14q5 4 5 13l-12 2h-6zM519 260l-102 -74l15 -10h2.5h2.5 q3 0 3.5 -0.5t1.5 0.5h5h5l10 10l40 -22l-2 -15v-5q0 -3 1 -3q0 -1 1 -1v-4q0 -1 2 -1l3 -4l17 -10l17 125zM507 218v-2v-3l-1 -22l-19 10l17 15h2h1v2v1h2q1 1 2 1zM477 255l18 20l-69 59l-20 -21l26 -22l-57 -66l20 -19l60 70zM257 411l83 -10h6q1 0 2 1t3 1l11 8l-45 77 l-23 -14l26 -44l-83 9q-1 0 -4.5 -0.5t-7.5 -3.5l-10 -5l45 -79l22 15zM357 303l22 18l-27 30l14 12l31 -39l20 17l-48 60l-90 -75l51 -58l19 18l-32 37l17 11zM191 741l50 4q1 -2 3.5 -4t4.5 -5q2 -1 3.5 -4t1.5 -6q1 -6 3 -11q0 -4 1 -6.5t1 -4.5q0 -8 -1 -14t-3 -11 q-1 -8 -4.5 -13t-6.5 -10q-7 -8 -19 -12q-11 -8 -23 -8h-17q-4 3 -7.5 4t-7.5 4q-4 1 -6.5 3t-6.5 4q-2 3 -5 6t-5 7q-2 2 -3.5 5.5t-3.5 6.5q-1 5 -2 9.5t-1 9.5v6.5v4.5q3 9 3 14q2 3 3.5 5.5t3.5 5.5q2 2 3.5 5t3.5 5l3 -5q3 0 4 -1l1 -1q2 -3 2 -8v-3t-2 -3 q-5 -5 -5 -11v-13t3 -17q2 -4 4.5 -7t5.5 -6q5 -5 14 -7q7 -4 17 -3q6 0 11 3q3 1 5 1.5t4 3.5q1 2 3.5 3t5.5 4q1 2 2.5 3.5t3.5 4.5q0 4 0.5 6.5t2.5 5.5q1 4 1 10q-1 4 -2 7t-2 8q0 3 -5 10l-19 -1v-5v-5q0 -2 -2 -5q-1 -1 -2 -2.5t-2 -1.5q-2 -1 -6 -1h-6zM264 831 l-9 -75l-118 12l8 75l19 -2l-7 -55l30 -5l5 47l20 -2l-5 -45l32 -3l5 57zM164 851l-17 5l22 90l18 -5l-10 -37l98 -23l-4 -18l-97 23zM205 988l-18 8l42 83l16 -8l-15 -32l89 -45l-8 -18l-90 45zM392 1106l-11 -16l-40 30l-35 -47l41 -30l-11 -15l-97 70l11 15l40 -29l35 47 l-40 30l11 15zM456 1166l-54 -51l-83 86l53 53l14 -15l-39 -39l20 -21l33 31l12 -14l-31 -30l21 -23l40 38zM514 1290l10 -17l-39 -24l24 -43l-14 -10l-63 100l63 40l9 -15l-47 -30l18 -26zM562 1290q0 -7 5 -10q2 -4 10 -7q2 -2 5 -2h5q5 0 10 2q8 3 10 7q5 5 7 10 q1 1 1 10q0 6 -1 11l-27 67l17 8l28 -68q2 -5 2.5 -9t0.5 -9q0 -10 -3 -19q-2 -5 -4.5 -8t-7.5 -7q-3 -5 -6 -6.5t-8 -3.5t-9.5 -3.5t-9.5 -1.5q-8 0 -18 5q-5 2 -8.5 3.5t-6.5 6.5q-7 7 -10 15l-30 67l18 8zM662 1276l-30 117l20 5l23 -97l49 10l3 -20zM731 1291l-12 120 l20 2l10 -98l51 5v-20zM864 1296l-19 4l12 118l44 -5q6 0 14 -4q9 -5 11 -10q4 -3 6 -13q4 -7 3 -15q-3 -3 -3 -6.5t-2 -8.5q-6 -8 -9 -11q-4 -4 -14 -7q-3 -2 -13 -2l-25 4zM895 1356h7q3 0 7 5q3 0 3 5q2 2 4 8q0 5 -1 7t-2 3.5l-1 1.5q-2 3 -3.5 4t-2.5 1q-2 2 -3.5 2 t-2.5 1l-25 2l-5 -38zM951 1285l-19 5l30 113l44 -12q6 0 11 -5l10 -10q4 -5 4 -13q1 -5 0.5 -8.5t-0.5 -6.5q-2 -5 -5 -10q-4 -5 -6 -7q-8 -5 -10 -5q-3 -2 -5.5 -2.5t-3.5 -2.5l21 -56l-15 1q-1 2 -3 3.5t-3 1.5q-4 2 -5 9l-19 46l-15 4zM977 1379l-10 -31l25 -7h3h2 q3 0 4 1t4 1q2 0 2 1.5v1.5q5 5 5 7v7v3t-1 3q-1 2 -2.5 2.5t-1.5 2.5q-3 3 -6 3zM1037 1321q0 5 2.5 8.5t6.5 6.5q1 3 4.5 5.5t6.5 4.5q3 3 6.5 4t8.5 3q4 3 14 3h15q9 -1 16 -6q8 -4 15 -9q3 -3 5.5 -6.5t4.5 -4.5l3.5 -7l3.5 -7q1 -5 2 -8t1 -7v-8t-2 -8q-1 -4 -2 -7.5 t-3 -7.5q-3 -4 -4 -7t-4 -7q-3 -3 -6.5 -5t-4.5 -6q-4 -2 -7 -4t-7 -5q-6 0 -16 -1q-12 0 -17 1q-5 0 -15 5q-12 5 -18 15q-9 9 -14 20q-1 7 -1 12v12q0 11 6 21zM1054 1315q-2 -4 -2.5 -6.5t-2.5 -5.5v-10q0 -2 1 -5t2 -5q0 -7 4 -10q1 -2 3 -4.5t3 -2.5q4 -5 10 -6 q7 -4 10 -4h12h12q4 5 8 5q3 2 5 3.5t3 3.5q3 3 4 5.5t3 4.5q2 3 2.5 7.5t0.5 9.5v7.5v7.5q-2 4 -4.5 7.5t-5.5 5.5q-6 7 -13 10q-2 2 -5 2.5t-7 0.5h-10q-6 0 -10 -1q-3 -2 -5 -3t-5 -1q-1 -2 -3 -4t-3 -4zM1222 1290l10 -9q0 -1 1.5 -3t3.5 -3q0 -5 -2 -9l-28 -85l83 38 q1 1 7 1q5 0 7 -4l10 -7l-117 -54l-15 11zM1279 1064l-47 56l90 76l49 -56l-14 -14l-37 44l-23 -19l29 -36l-16 -11l-28 35l-23 -21l35 -42zM1294 1039l-9 16l101 61l23 -37q2 -3 2.5 -6t2.5 -8q2 -7 -2 -12q-2 -9 -5 -13l-4.5 -4.5t-6.5 -5.5q-4 -1 -5.5 -1.5t-4.5 -2.5 q-4 0 -5.5 -0.5t-4.5 0.5q-4 0 -10 3q-4 1 -5.5 1.5t-3.5 3.5l-23 -59l-9 13q-4 2 -4 7q0 6 3 9l20 47l-8 13zM1381 1089l-29 -16l13 -19q2 -5 4 -6q1 0 6 -3h6q1 0 5 3q1 0 6 3q0 3 1 4t1 3q1 1 1 6q-1 1 -1 2.5t-2 3.5zM1436 969q1 1 1 7q0 4 -1 5q-2 3 -2 7q-3 0 -5 3 q-2 2 -5 2q-3 1 -5 0l-2.5 -2.5l-1.5 -1.5l-2 -2l-2 -2v-7v-10v-3v-2v-10q0 -2 -0.5 -4.5t-0.5 -4.5q-4 -14 -19 -21q-4 -2 -7.5 -3t-8.5 1q-6 0 -14 2q-4 3 -7 5t-5 6q-3 2 -5 5.5t-4 6.5q-3 10 -3 15q0 4 3 14q0 3 2 5l3 4q0 4 2 4q4 2 3 2l4 -2q3 -5 5 -7q0 -1 0.5 -2 t0.5 -3q0 -3 -3 -6v-1v-8q0 -5 2 -8q0 -2 1 -3t2 -4q2 0 3.5 -1.5l3.5 -3.5h2t4 -2h4.5t4.5 2q2 0 5 3q2 4 2 5q1 2 1 7v8v4v12q0 8 2 13q1 2 2 4.5t4 5.5q2 2 4.5 3.5t6.5 3.5q8 3 14 1q6 0 12 -3q3 -2 6.5 -3.5t5.5 -5.5q3 -3 6 -11q2 -7 2 -10q0 -7 -1 -10q0 -4 -4 -10 v-4.5t-2 -3.5l-6 4q-3 1 -4 2.5t-3 3.5q-1 3 -1 6v3zM1364 881l-5 18l113 34l5 -19zM1427 881h19q6 0 14 -5q4 0 7.5 -2.5t4.5 -4.5q4 -3 7 -5.5t6 -5.5q4 -8 7 -12q3 -8 5 -18v-15q-2 -10 -5 -15q-1 -5 -3 -8.5t-4 -6.5l-10 -10q-4 -4 -7.5 -5.5t-6.5 -2.5q-7 -4 -15 -4 q-10 -1 -19 0q-8 0 -15 4q-2 1 -6 2.5t-7 3.5q-3 3 -5.5 6.5t-4.5 5.5q-7 5 -8 15q-2 3 -3.5 6.5t-1.5 8.5q-1 13 1 23q5 13 10 20q7 10 18 17q5 3 11 5.5t11 2.5zM1430 861q-8 0 -10 -3q-5 -2 -10 -5q-4 -2 -6 -7q-5 -5 -5 -10q-2 -1 -2.5 -4t-1.5 -6v-10q2 -8 4 -11 q0 -6 5 -9q1 -3 3 -5t3 -5q2 0 4.5 -1.5t5.5 -3.5q2 -1 4.5 -1h5.5q5 -4 11 0q11 0 16 5q5 1 13 11q6 8 6 15q3 7 1 15q0 7 -2 10q-3 4 -3.5 6t-1.5 4q-3 2 -4.5 3.5l-3.5 3.5q-5 3 -10 5q-3 3 -11 3q-4 3 -11 0zM1377 645l2 16l96 60l-91 5l1 20l117 -10v-11q0 -5 -1 -9 q-4 -2 -4 -5l-81 -50l81 -6l-1 -19z" />
<glyph unicode="6" d="M822 308q82 0 155 30t130 78h-570q58 -48 130 -78t155 -30zM586 463h564q45 55 70 124t25 147q0 80 -26.5 150t-81.5 139zM822 1251q-105 0 -198 -40t-163.5 -109t-112.5 -163.5t-42 -204.5q0 -103 39.5 -196t108 -163.5t163.5 -112.5t205 -42q35 0 70 5.5t68 15.5 q77 23 146 68t120 108.5t80.5 143.5t29.5 173q0 101 -38.5 194t-107 165t-163.5 115t-205 43zM822 260q-100 0 -186 38t-150 103t-99.5 151.5t-35.5 181.5q0 94 35 179.5t98 151t149.5 103.5t188.5 38q67 0 124 -16q71 -19 134.5 -60t111 -100t75 -134t27.5 -162 q0 -98 -37 -184.5t-101.5 -151t-150.5 -101.5t-183 -37zM492 1004q-45 -55 -70.5 -122.5t-25.5 -147.5q0 -83 28 -155.5t78 -130.5l555 556h-565zM822 1161q-83 0 -155.5 -29t-130.5 -81h566q-55 50 -126.5 80t-153.5 30zM972 191l-90 -16l4 -26l34 6l16 -89l26 5l-16 89 l31 6zM1072 156q-1 7 -8 9l-12 5h-15h-6h-9h-2v1q-3 3 -3 4l-2 1q2 0 2 4v1h3h5v4h1h5h3q3 0 3 1h9q0 3 0.5 4l0.5 1l5 10l-6 4q-9 4 -12 4q-2 0 -4.5 1t-4.5 1q-4 0 -6 -1t-4 -1l-13 -8q-2 -1 -4 -3.5t-3 -6.5q-8 -6 -8 -15v-4t3 -7q2 -9 10 -14q1 0 3.5 -1.5t3.5 -3.5 q4 0 7 -1t6 -1h12h10h2q2 0 3 -3q4 0 4 -1h3v-5q0 -2 -1 -3t-1 -2v-1q-1 0 -2 -2.5t-3 -2.5q-1 -3 -5 -3h-2.5h-2.5h-3.5h-2.5h-6h-8l-5 -1v-2t-1 -2l-5 -7q1 -4 3 -6t3 -4q4 -1 7 -2t7 -1q8 -3 11 -2q4 0 8 1t7 1l7 3.5t8 4.5l5.5 5.5t4.5 6.5q0 5 2.5 7.5t2.5 7.5 t-0.5 8.5t-4.5 6.5q0 8 -5 10zM1122 151q-1 4 -3 4t-3.5 0.5t-3.5 0.5q-1 -1 -6 -1l-7 -4q-2 -1 -2 -3v-2q-1 -2 -1 -5v-1q0 -4 1 -4v-1q0 -6 4 -6q1 -5 6 -5h7q5 0 7 2q1 2 3 2.5t2 2.5v2q0 2 1 2l4 3v2q0 6 -5 6zM846 99q-1 0 -1 4q0 1 -1.5 1t-1.5 1q0 4 -1 4l-41 60 q0 1 -3 2q-1 3 -8 3h-9h-14l3 -119l27 1v79l51 -79h25v118h-30zM599 189l48 -18l8 25l-73 25l-41 -105l26 -11l15 41l38 -15l10 25l-38 15zM747 160l-8 11q-3 3 -6.5 5t-7.5 4q-4 1 -7 2t-8 3q-5 1 -9 1h-7q-10 0 -14 -5q-4 0 -7.5 -1t-7.5 -4l-11 -10q-4 -8 -10 -11 q-2 -5 -3.5 -8.5t-1.5 -6.5v-19l3 -15l5 -12l12 -11q3 -4 7 -5.5t6 -3.5q7 -4 15 -4q5 -1 8.5 -1h6.5q5 0 14 2q4 2 8.5 3t6.5 4q6 2 11 10l9 11q4 7 6 17v15q0 3 -0.5 6.5t-2.5 8.5l-3 7.5t-4 6.5zM730 121q0 -3 -1.5 -6.5t-3.5 -5.5l-4.5 -6t-4.5 -4q-4 -1 -6.5 -2 t-5.5 -1q-7 -3 -12 0q-3 0 -6.5 1t-5.5 2l-8 10q-2 2 -2.5 5.5t-0.5 6.5q-3 5 0 14q0 6 5 11l6 9l12 5h12l12 -5l9 -9q2 -3 3.5 -5t1.5 -6q2 -9 0 -14zM1309 460q-2 -2 -3 -4t-1 -6q0 -2 1 -4t3 -5l40 -57l-69 10h-10l-9 -6l-9 -17l97 -65l16 23l-46 32l60 -12l11 20l-33 50 l47 -30l15 24l-98 63zM1296 333l-14 13l-15 3q-3 2 -15 2h-6.5t-8.5 -2l-12 -3q-4 -3 -8.5 -6.5t-6.5 -6.5q-3 -3 -4.5 -6t-3.5 -6q-3 -3 -4 -6.5t-3 -8.5q0 -3 -1.5 -6.5t-1.5 -8.5v-6t3 -9l4 -13l10 -12l13 -10q5 -1 7.5 -3.5t7.5 -2.5t8.5 -2t6.5 -2t6.5 2t8.5 2 q3 0 6.5 2.5t7.5 3.5q6 3 13 10l10 12q1 2 3 5t2 8q1 5 1 15v15l-6 13q-2 4 -5 9zM1282 280q-3 -9 -7 -10q-8 -7 -10 -9q-3 -1 -6.5 -1h-6.5t-6.5 0.5t-4.5 0.5l-11 9q-4 4 -8 11v10v12q4 8 8 12l11 8q3 0 6 0.5t5 0.5q5 0 13 -3q2 -1 4.5 -3t5.5 -5q2 -2 4 -4.5t3 -5.5 q3 -3 3 -12q0 -2 -1.5 -6.5zM1209 220l-7 -4q-2 0 -3.5 -2.5t-1.5 -4.5l-5 -9l-8 -6q-4 -3 -6 -4t-6 -1q-6 -3 -12 0q-3 2 -5.5 2t-5.5 3q-7 4 -7 11q-5 1 -5 11q-5 3 0 14v3.5t2 7.5q2 2 4 3.5t4 3.5q8 3 10 3q3 2 10 2q2 0 10 3q2 4 5 5l2 7v8q-3 5 -12 5h-13l-14 -5 l-11 -5q-2 -2 -5.5 -4.5t-6.5 -6.5q-2 -2 -4 -5.5t-4 -8.5l-7 -15v-15q0 -5 2 -7.5t2 -7.5l6 -15q3 -3 6 -5t4 -5l15 -10l12 -2q5 -3 16 -3q4 0 7 1.5t7 2.5q5 1 8.5 3.5t6.5 5.5l5 2.5t5 4.5q3 0 5 3.5t5 6.5l3 14q5 4 5 13l-12 2h-6zM519 260l-102 -74l15 -10h2.5h2.5 q3 0 3.5 -0.5t1.5 0.5h5h5l10 10l40 -22l-2 -15v-5q0 -3 1 -3q0 -1 1 -1v-4q0 -1 2 -1l3 -4l17 -10l17 125zM507 218v-2v-3l-1 -22l-19 10l17 15h2h1v2v1h2q1 1 2 1zM477 255l18 20l-69 59l-20 -21l26 -22l-57 -66l20 -19l60 70zM257 411l83 -10h6q1 0 2 1t3 1l11 8l-45 77 l-23 -14l26 -44l-83 9q-1 0 -4.5 -0.5t-7.5 -3.5l-10 -5l45 -79l22 15zM357 303l22 18l-27 30l14 12l31 -39l20 17l-48 60l-90 -75l51 -58l19 18l-32 37l17 11zM191 741l50 4q1 -2 3.5 -4t4.5 -5q2 -1 3.5 -4t1.5 -6q1 -6 3 -11q0 -4 1 -6.5t1 -4.5q0 -8 -1 -14t-3 -11 q-1 -8 -4.5 -13t-6.5 -10q-7 -8 -19 -12q-11 -8 -23 -8h-17q-4 3 -7.5 4t-7.5 4q-4 1 -6.5 3t-6.5 4q-2 3 -5 6t-5 7q-2 2 -3.5 5.5t-3.5 6.5q-1 5 -2 9.5t-1 9.5v6.5v4.5q3 9 3 14q2 3 3.5 5.5t3.5 5.5q2 2 3.5 5t3.5 5l3 -5q3 0 4 -1l1 -1q2 -3 2 -8v-3t-2 -3 q-5 -5 -5 -11v-13t3 -17q2 -4 4.5 -7t5.5 -6q5 -5 14 -7q7 -4 17 -3q6 0 11 3q3 1 5 1.5t4 3.5q1 2 3.5 3t5.5 4q1 2 2.5 3.5t3.5 4.5q0 4 0.5 6.5t2.5 5.5q1 4 1 10q-1 4 -2 7t-2 8q0 3 -5 10l-19 -1v-5v-5q0 -2 -2 -5q-1 -1 -2 -2.5t-2 -1.5q-2 -1 -6 -1h-6zM264 831 l-9 -75l-118 12l8 75l19 -2l-7 -55l30 -5l5 47l20 -2l-5 -45l32 -3l5 57zM164 851l-17 5l22 90l18 -5l-10 -37l98 -23l-4 -18l-97 23zM205 988l-18 8l42 83l16 -8l-15 -32l89 -45l-8 -18l-90 45zM392 1106l-11 -16l-40 30l-35 -47l41 -30l-11 -15l-97 70l11 15l40 -29l35 47 l-40 30l11 15zM456 1166l-54 -51l-83 86l53 53l14 -15l-39 -39l20 -21l33 31l12 -14l-31 -30l21 -23l40 38zM514 1290l10 -17l-39 -24l24 -43l-14 -10l-63 100l63 40l9 -15l-47 -30l18 -26zM562 1290q0 -7 5 -10q2 -4 10 -7q2 -2 5 -2h5q5 0 10 2q8 3 10 7q5 5 7 10 q1 1 1 10q0 6 -1 11l-27 67l17 8l28 -68q2 -5 2.5 -9t0.5 -9q0 -10 -3 -19q-2 -5 -4.5 -8t-7.5 -7q-3 -5 -6 -6.5t-8 -3.5t-9.5 -3.5t-9.5 -1.5q-8 0 -18 5q-5 2 -8.5 3.5t-6.5 6.5q-7 7 -10 15l-30 67l18 8zM662 1276l-30 117l20 5l23 -97l49 10l3 -20zM731 1291l-12 120 l20 2l10 -98l51 5v-20zM864 1296l-19 4l12 118l44 -5q6 0 14 -4q9 -5 11 -10q4 -3 6 -13q4 -7 3 -15q-3 -3 -3 -6.5t-2 -8.5q-6 -8 -9 -11q-4 -4 -14 -7q-3 -2 -13 -2l-25 4zM895 1356h7q3 0 7 5q3 0 3 5q2 2 4 8q0 5 -1 7t-2 3.5l-1 1.5q-2 3 -3.5 4t-2.5 1q-2 2 -3.5 2 t-2.5 1l-25 2l-5 -38zM951 1285l-19 5l30 113l44 -12q6 0 11 -5l10 -10q4 -5 4 -13q1 -5 0.5 -8.5t-0.5 -6.5q-2 -5 -5 -10q-4 -5 -6 -7q-8 -5 -10 -5q-3 -2 -5.5 -2.5t-3.5 -2.5l21 -56l-15 1q-1 2 -3 3.5t-3 1.5q-4 2 -5 9l-19 46l-15 4zM977 1379l-10 -31l25 -7h3h2 q3 0 4 1t4 1q2 0 2 1.5v1.5q5 5 5 7v7v3t-1 3q-1 2 -2.5 2.5t-1.5 2.5q-3 3 -6 3zM1037 1321q0 5 2.5 8.5t6.5 6.5q1 3 4.5 5.5t6.5 4.5q3 3 6.5 4t8.5 3q4 3 14 3h15q9 -1 16 -6q8 -4 15 -9q3 -3 5.5 -6.5t4.5 -4.5l3.5 -7l3.5 -7q1 -5 2 -8t1 -7v-8t-2 -8q-1 -4 -2 -7.5 t-3 -7.5q-3 -4 -4 -7t-4 -7q-3 -3 -6.5 -5t-4.5 -6q-4 -2 -7 -4t-7 -5q-6 0 -16 -1q-12 0 -17 1q-5 0 -15 5q-12 5 -18 15q-9 9 -14 20q-1 7 -1 12v12q0 11 6 21zM1054 1315q-2 -4 -2.5 -6.5t-2.5 -5.5v-10q0 -2 1 -5t2 -5q0 -7 4 -10q1 -2 3 -4.5t3 -2.5q4 -5 10 -6 q7 -4 10 -4h12h12q4 5 8 5q3 2 5 3.5t3 3.5q3 3 4 5.5t3 4.5q2 3 2.5 7.5t0.5 9.5v7.5v7.5q-2 4 -4.5 7.5t-5.5 5.5q-6 7 -13 10q-2 2 -5 2.5t-7 0.5h-10q-6 0 -10 -1q-3 -2 -5 -3t-5 -1q-1 -2 -3 -4t-3 -4zM1222 1290l10 -9q0 -1 1.5 -3t3.5 -3q0 -5 -2 -9l-28 -85l83 38 q1 1 7 1q5 0 7 -4l10 -7l-117 -54l-15 11zM1279 1064l-47 56l90 76l49 -56l-14 -14l-37 44l-23 -19l29 -36l-16 -11l-28 35l-23 -21l35 -42zM1294 1039l-9 16l101 61l23 -37q2 -3 2.5 -6t2.5 -8q2 -7 -2 -12q-2 -9 -5 -13l-4.5 -4.5t-6.5 -5.5q-4 -1 -5.5 -1.5t-4.5 -2.5 q-4 0 -5.5 -0.5t-4.5 0.5q-4 0 -10 3q-4 1 -5.5 1.5t-3.5 3.5l-23 -59l-9 13q-4 2 -4 7q0 6 3 9l20 47l-8 13zM1381 1089l-29 -16l13 -19q2 -5 4 -6q1 0 6 -3h6q1 0 5 3q1 0 6 3q0 3 1 4t1 3q1 1 1 6q-1 1 -1 2.5t-2 3.5zM1436 969q1 1 1 7q0 4 -1 5q-2 3 -2 7q-3 0 -5 3 q-2 2 -5 2q-3 1 -5 0l-2.5 -2.5l-1.5 -1.5l-2 -2l-2 -2v-7v-10v-3v-2v-10q0 -2 -0.5 -4.5t-0.5 -4.5q-4 -14 -19 -21q-4 -2 -7.5 -3t-8.5 1q-6 0 -14 2q-4 3 -7 5t-5 6q-3 2 -5 5.5t-4 6.5q-3 10 -3 15q0 4 3 14q0 3 2 5l3 4q0 4 2 4q4 2 3 2l4 -2q3 -5 5 -7q0 -1 0.5 -2 t0.5 -3q0 -3 -3 -6v-1v-8q0 -5 2 -8q0 -2 1 -3t2 -4q2 0 3.5 -1.5l3.5 -3.5h2t4 -2h4.5t4.5 2q2 0 5 3q2 4 2 5q1 2 1 7v8v4v12q0 8 2 13q1 2 2 4.5t4 5.5q2 2 4.5 3.5t6.5 3.5q8 3 14 1q6 0 12 -3q3 -2 6.5 -3.5t5.5 -5.5q3 -3 6 -11q2 -7 2 -10q0 -7 -1 -10q0 -4 -4 -10 v-4.5t-2 -3.5l-6 4q-3 1 -4 2.5t-3 3.5q-1 3 -1 6v3zM1364 881l-5 18l113 34l5 -19zM1427 881h19q6 0 14 -5q4 0 7.5 -2.5t4.5 -4.5q4 -3 7 -5.5t6 -5.5q4 -8 7 -12q3 -8 5 -18v-15q-2 -10 -5 -15q-1 -5 -3 -8.5t-4 -6.5l-10 -10q-4 -4 -7.5 -5.5t-6.5 -2.5q-7 -4 -15 -4 q-10 -1 -19 0q-8 0 -15 4q-2 1 -6 2.5t-7 3.5q-3 3 -5.5 6.5t-4.5 5.5q-7 5 -8 15q-2 3 -3.5 6.5t-1.5 8.5q-1 13 1 23q5 13 10 20q7 10 18 17q5 3 11 5.5t11 2.5zM1430 861q-8 0 -10 -3q-5 -2 -10 -5q-4 -2 -6 -7q-5 -5 -5 -10q-2 -1 -2.5 -4t-1.5 -6v-10q2 -8 4 -11 q0 -6 5 -9q1 -3 3 -5t3 -5q2 0 4.5 -1.5t5.5 -3.5q2 -1 4.5 -1h5.5q5 -4 11 0q11 0 16 5q5 1 13 11q6 8 6 15q3 7 1 15q0 7 -2 10q-3 4 -3.5 6t-1.5 4q-3 2 -4.5 3.5l-3.5 3.5q-5 3 -10 5q-3 3 -11 3q-4 3 -11 0zM1377 645l2 16l96 60l-91 5l1 20l117 -10v-11q0 -5 -1 -9 q-4 -2 -4 -5l-81 -50l81 -6l-1 -19z" />
<glyph unicode="7" d="M822 308q82 0 155 30t130 78h-570q58 -48 130 -78t155 -30zM586 463h564q45 55 70 124t25 147q0 80 -26.5 150t-81.5 139zM822 1251q-105 0 -198 -40t-163.5 -109t-112.5 -163.5t-42 -204.5q0 -103 39.5 -196t108 -163.5t163.5 -112.5t205 -42q35 0 70 5.5t68 15.5 q77 23 146 68t120 108.5t80.5 143.5t29.5 173q0 101 -38.5 194t-107 165t-163.5 115t-205 43zM822 260q-100 0 -186 38t-150 103t-99.5 151.5t-35.5 181.5q0 94 35 179.5t98 151t149.5 103.5t188.5 38q67 0 124 -16q71 -19 134.5 -60t111 -100t75 -134t27.5 -162 q0 -98 -37 -184.5t-101.5 -151t-150.5 -101.5t-183 -37zM492 1004q-45 -55 -70.5 -122.5t-25.5 -147.5q0 -83 28 -155.5t78 -130.5l555 556h-565zM822 1161q-83 0 -155.5 -29t-130.5 -81h566q-55 50 -126.5 80t-153.5 30zM972 191l-90 -16l4 -26l34 6l16 -89l26 5l-16 89 l31 6zM1072 156q-1 7 -8 9l-12 5h-15h-6h-9h-2v1q-3 3 -3 4l-2 1q2 0 2 4v1h3h5v4h1h5h3q3 0 3 1h9q0 3 0.5 4l0.5 1l5 10l-6 4q-9 4 -12 4q-2 0 -4.5 1t-4.5 1q-4 0 -6 -1t-4 -1l-13 -8q-2 -1 -4 -3.5t-3 -6.5q-8 -6 -8 -15v-4t3 -7q2 -9 10 -14q1 0 3.5 -1.5t3.5 -3.5 q4 0 7 -1t6 -1h12h10h2q2 0 3 -3q4 0 4 -1h3v-5q0 -2 -1 -3t-1 -2v-1q-1 0 -2 -2.5t-3 -2.5q-1 -3 -5 -3h-2.5h-2.5h-3.5h-2.5h-6h-8l-5 -1v-2t-1 -2l-5 -7q1 -4 3 -6t3 -4q4 -1 7 -2t7 -1q8 -3 11 -2q4 0 8 1t7 1l7 3.5t8 4.5l5.5 5.5t4.5 6.5q0 5 2.5 7.5t2.5 7.5 t-0.5 8.5t-4.5 6.5q0 8 -5 10zM1122 151q-1 4 -3 4t-3.5 0.5t-3.5 0.5q-1 -1 -6 -1l-7 -4q-2 -1 -2 -3v-2q-1 -2 -1 -5v-1q0 -4 1 -4v-1q0 -6 4 -6q1 -5 6 -5h7q5 0 7 2q1 2 3 2.5t2 2.5v2q0 2 1 2l4 3v2q0 6 -5 6zM846 99q-1 0 -1 4q0 1 -1.5 1t-1.5 1q0 4 -1 4l-41 60 q0 1 -3 2q-1 3 -8 3h-9h-14l3 -119l27 1v79l51 -79h25v118h-30zM599 189l48 -18l8 25l-73 25l-41 -105l26 -11l15 41l38 -15l10 25l-38 15zM747 160l-8 11q-3 3 -6.5 5t-7.5 4q-4 1 -7 2t-8 3q-5 1 -9 1h-7q-10 0 -14 -5q-4 0 -7.5 -1t-7.5 -4l-11 -10q-4 -8 -10 -11 q-2 -5 -3.5 -8.5t-1.5 -6.5v-19l3 -15l5 -12l12 -11q3 -4 7 -5.5t6 -3.5q7 -4 15 -4q5 -1 8.5 -1h6.5q5 0 14 2q4 2 8.5 3t6.5 4q6 2 11 10l9 11q4 7 6 17v15q0 3 -0.5 6.5t-2.5 8.5l-3 7.5t-4 6.5zM730 121q0 -3 -1.5 -6.5t-3.5 -5.5l-4.5 -6t-4.5 -4q-4 -1 -6.5 -2 t-5.5 -1q-7 -3 -12 0q-3 0 -6.5 1t-5.5 2l-8 10q-2 2 -2.5 5.5t-0.5 6.5q-3 5 0 14q0 6 5 11l6 9l12 5h12l12 -5l9 -9q2 -3 3.5 -5t1.5 -6q2 -9 0 -14zM1309 460q-2 -2 -3 -4t-1 -6q0 -2 1 -4t3 -5l40 -57l-69 10h-10l-9 -6l-9 -17l97 -65l16 23l-46 32l60 -12l11 20l-33 50 l47 -30l15 24l-98 63zM1296 333l-14 13l-15 3q-3 2 -15 2h-6.5t-8.5 -2l-12 -3q-4 -3 -8.5 -6.5t-6.5 -6.5q-3 -3 -4.5 -6t-3.5 -6q-3 -3 -4 -6.5t-3 -8.5q0 -3 -1.5 -6.5t-1.5 -8.5v-6t3 -9l4 -13l10 -12l13 -10q5 -1 7.5 -3.5t7.5 -2.5t8.5 -2t6.5 -2t6.5 2t8.5 2 q3 0 6.5 2.5t7.5 3.5q6 3 13 10l10 12q1 2 3 5t2 8q1 5 1 15v15l-6 13q-2 4 -5 9zM1282 280q-3 -9 -7 -10q-8 -7 -10 -9q-3 -1 -6.5 -1h-6.5t-6.5 0.5t-4.5 0.5l-11 9q-4 4 -8 11v10v12q4 8 8 12l11 8q3 0 6 0.5t5 0.5q5 0 13 -3q2 -1 4.5 -3t5.5 -5q2 -2 4 -4.5t3 -5.5 q3 -3 3 -12q0 -2 -1.5 -6.5zM1209 220l-7 -4q-2 0 -3.5 -2.5t-1.5 -4.5l-5 -9l-8 -6q-4 -3 -6 -4t-6 -1q-6 -3 -12 0q-3 2 -5.5 2t-5.5 3q-7 4 -7 11q-5 1 -5 11q-5 3 0 14v3.5t2 7.5q2 2 4 3.5t4 3.5q8 3 10 3q3 2 10 2q2 0 10 3q2 4 5 5l2 7v8q-3 5 -12 5h-13l-14 -5 l-11 -5q-2 -2 -5.5 -4.5t-6.5 -6.5q-2 -2 -4 -5.5t-4 -8.5l-7 -15v-15q0 -5 2 -7.5t2 -7.5l6 -15q3 -3 6 -5t4 -5l15 -10l12 -2q5 -3 16 -3q4 0 7 1.5t7 2.5q5 1 8.5 3.5t6.5 5.5l5 2.5t5 4.5q3 0 5 3.5t5 6.5l3 14q5 4 5 13l-12 2h-6zM519 260l-102 -74l15 -10h2.5h2.5 q3 0 3.5 -0.5t1.5 0.5h5h5l10 10l40 -22l-2 -15v-5q0 -3 1 -3q0 -1 1 -1v-4q0 -1 2 -1l3 -4l17 -10l17 125zM507 218v-2v-3l-1 -22l-19 10l17 15h2h1v2v1h2q1 1 2 1zM477 255l18 20l-69 59l-20 -21l26 -22l-57 -66l20 -19l60 70zM257 411l83 -10h6q1 0 2 1t3 1l11 8l-45 77 l-23 -14l26 -44l-83 9q-1 0 -4.5 -0.5t-7.5 -3.5l-10 -5l45 -79l22 15zM357 303l22 18l-27 30l14 12l31 -39l20 17l-48 60l-90 -75l51 -58l19 18l-32 37l17 11zM191 741l50 4q1 -2 3.5 -4t4.5 -5q2 -1 3.5 -4t1.5 -6q1 -6 3 -11q0 -4 1 -6.5t1 -4.5q0 -8 -1 -14t-3 -11 q-1 -8 -4.5 -13t-6.5 -10q-7 -8 -19 -12q-11 -8 -23 -8h-17q-4 3 -7.5 4t-7.5 4q-4 1 -6.5 3t-6.5 4q-2 3 -5 6t-5 7q-2 2 -3.5 5.5t-3.5 6.5q-1 5 -2 9.5t-1 9.5v6.5v4.5q3 9 3 14q2 3 3.5 5.5t3.5 5.5q2 2 3.5 5t3.5 5l3 -5q3 0 4 -1l1 -1q2 -3 2 -8v-3t-2 -3 q-5 -5 -5 -11v-13t3 -17q2 -4 4.5 -7t5.5 -6q5 -5 14 -7q7 -4 17 -3q6 0 11 3q3 1 5 1.5t4 3.5q1 2 3.5 3t5.5 4q1 2 2.5 3.5t3.5 4.5q0 4 0.5 6.5t2.5 5.5q1 4 1 10q-1 4 -2 7t-2 8q0 3 -5 10l-19 -1v-5v-5q0 -2 -2 -5q-1 -1 -2 -2.5t-2 -1.5q-2 -1 -6 -1h-6zM264 831 l-9 -75l-118 12l8 75l19 -2l-7 -55l30 -5l5 47l20 -2l-5 -45l32 -3l5 57zM164 851l-17 5l22 90l18 -5l-10 -37l98 -23l-4 -18l-97 23zM205 988l-18 8l42 83l16 -8l-15 -32l89 -45l-8 -18l-90 45zM392 1106l-11 -16l-40 30l-35 -47l41 -30l-11 -15l-97 70l11 15l40 -29l35 47 l-40 30l11 15zM456 1166l-54 -51l-83 86l53 53l14 -15l-39 -39l20 -21l33 31l12 -14l-31 -30l21 -23l40 38zM514 1290l10 -17l-39 -24l24 -43l-14 -10l-63 100l63 40l9 -15l-47 -30l18 -26zM562 1290q0 -7 5 -10q2 -4 10 -7q2 -2 5 -2h5q5 0 10 2q8 3 10 7q5 5 7 10 q1 1 1 10q0 6 -1 11l-27 67l17 8l28 -68q2 -5 2.5 -9t0.5 -9q0 -10 -3 -19q-2 -5 -4.5 -8t-7.5 -7q-3 -5 -6 -6.5t-8 -3.5t-9.5 -3.5t-9.5 -1.5q-8 0 -18 5q-5 2 -8.5 3.5t-6.5 6.5q-7 7 -10 15l-30 67l18 8zM662 1276l-30 117l20 5l23 -97l49 10l3 -20zM731 1291l-12 120 l20 2l10 -98l51 5v-20zM864 1296l-19 4l12 118l44 -5q6 0 14 -4q9 -5 11 -10q4 -3 6 -13q4 -7 3 -15q-3 -3 -3 -6.5t-2 -8.5q-6 -8 -9 -11q-4 -4 -14 -7q-3 -2 -13 -2l-25 4zM895 1356h7q3 0 7 5q3 0 3 5q2 2 4 8q0 5 -1 7t-2 3.5l-1 1.5q-2 3 -3.5 4t-2.5 1q-2 2 -3.5 2 t-2.5 1l-25 2l-5 -38zM951 1285l-19 5l30 113l44 -12q6 0 11 -5l10 -10q4 -5 4 -13q1 -5 0.5 -8.5t-0.5 -6.5q-2 -5 -5 -10q-4 -5 -6 -7q-8 -5 -10 -5q-3 -2 -5.5 -2.5t-3.5 -2.5l21 -56l-15 1q-1 2 -3 3.5t-3 1.5q-4 2 -5 9l-19 46l-15 4zM977 1379l-10 -31l25 -7h3h2 q3 0 4 1t4 1q2 0 2 1.5v1.5q5 5 5 7v7v3t-1 3q-1 2 -2.5 2.5t-1.5 2.5q-3 3 -6 3zM1037 1321q0 5 2.5 8.5t6.5 6.5q1 3 4.5 5.5t6.5 4.5q3 3 6.5 4t8.5 3q4 3 14 3h15q9 -1 16 -6q8 -4 15 -9q3 -3 5.5 -6.5t4.5 -4.5l3.5 -7l3.5 -7q1 -5 2 -8t1 -7v-8t-2 -8q-1 -4 -2 -7.5 t-3 -7.5q-3 -4 -4 -7t-4 -7q-3 -3 -6.5 -5t-4.5 -6q-4 -2 -7 -4t-7 -5q-6 0 -16 -1q-12 0 -17 1q-5 0 -15 5q-12 5 -18 15q-9 9 -14 20q-1 7 -1 12v12q0 11 6 21zM1054 1315q-2 -4 -2.5 -6.5t-2.5 -5.5v-10q0 -2 1 -5t2 -5q0 -7 4 -10q1 -2 3 -4.5t3 -2.5q4 -5 10 -6 q7 -4 10 -4h12h12q4 5 8 5q3 2 5 3.5t3 3.5q3 3 4 5.5t3 4.5q2 3 2.5 7.5t0.5 9.5v7.5v7.5q-2 4 -4.5 7.5t-5.5 5.5q-6 7 -13 10q-2 2 -5 2.5t-7 0.5h-10q-6 0 -10 -1q-3 -2 -5 -3t-5 -1q-1 -2 -3 -4t-3 -4zM1222 1290l10 -9q0 -1 1.5 -3t3.5 -3q0 -5 -2 -9l-28 -85l83 38 q1 1 7 1q5 0 7 -4l10 -7l-117 -54l-15 11zM1279 1064l-47 56l90 76l49 -56l-14 -14l-37 44l-23 -19l29 -36l-16 -11l-28 35l-23 -21l35 -42zM1294 1039l-9 16l101 61l23 -37q2 -3 2.5 -6t2.5 -8q2 -7 -2 -12q-2 -9 -5 -13l-4.5 -4.5t-6.5 -5.5q-4 -1 -5.5 -1.5t-4.5 -2.5 q-4 0 -5.5 -0.5t-4.5 0.5q-4 0 -10 3q-4 1 -5.5 1.5t-3.5 3.5l-23 -59l-9 13q-4 2 -4 7q0 6 3 9l20 47l-8 13zM1381 1089l-29 -16l13 -19q2 -5 4 -6q1 0 6 -3h6q1 0 5 3q1 0 6 3q0 3 1 4t1 3q1 1 1 6q-1 1 -1 2.5t-2 3.5zM1436 969q1 1 1 7q0 4 -1 5q-2 3 -2 7q-3 0 -5 3 q-2 2 -5 2q-3 1 -5 0l-2.5 -2.5l-1.5 -1.5l-2 -2l-2 -2v-7v-10v-3v-2v-10q0 -2 -0.5 -4.5t-0.5 -4.5q-4 -14 -19 -21q-4 -2 -7.5 -3t-8.5 1q-6 0 -14 2q-4 3 -7 5t-5 6q-3 2 -5 5.5t-4 6.5q-3 10 -3 15q0 4 3 14q0 3 2 5l3 4q0 4 2 4q4 2 3 2l4 -2q3 -5 5 -7q0 -1 0.5 -2 t0.5 -3q0 -3 -3 -6v-1v-8q0 -5 2 -8q0 -2 1 -3t2 -4q2 0 3.5 -1.5l3.5 -3.5h2t4 -2h4.5t4.5 2q2 0 5 3q2 4 2 5q1 2 1 7v8v4v12q0 8 2 13q1 2 2 4.5t4 5.5q2 2 4.5 3.5t6.5 3.5q8 3 14 1q6 0 12 -3q3 -2 6.5 -3.5t5.5 -5.5q3 -3 6 -11q2 -7 2 -10q0 -7 -1 -10q0 -4 -4 -10 v-4.5t-2 -3.5l-6 4q-3 1 -4 2.5t-3 3.5q-1 3 -1 6v3zM1364 881l-5 18l113 34l5 -19zM1427 881h19q6 0 14 -5q4 0 7.5 -2.5t4.5 -4.5q4 -3 7 -5.5t6 -5.5q4 -8 7 -12q3 -8 5 -18v-15q-2 -10 -5 -15q-1 -5 -3 -8.5t-4 -6.5l-10 -10q-4 -4 -7.5 -5.5t-6.5 -2.5q-7 -4 -15 -4 q-10 -1 -19 0q-8 0 -15 4q-2 1 -6 2.5t-7 3.5q-3 3 -5.5 6.5t-4.5 5.5q-7 5 -8 15q-2 3 -3.5 6.5t-1.5 8.5q-1 13 1 23q5 13 10 20q7 10 18 17q5 3 11 5.5t11 2.5zM1430 861q-8 0 -10 -3q-5 -2 -10 -5q-4 -2 -6 -7q-5 -5 -5 -10q-2 -1 -2.5 -4t-1.5 -6v-10q2 -8 4 -11 q0 -6 5 -9q1 -3 3 -5t3 -5q2 0 4.5 -1.5t5.5 -3.5q2 -1 4.5 -1h5.5q5 -4 11 0q11 0 16 5q5 1 13 11q6 8 6 15q3 7 1 15q0 7 -2 10q-3 4 -3.5 6t-1.5 4q-3 2 -4.5 3.5l-3.5 3.5q-5 3 -10 5q-3 3 -11 3q-4 3 -11 0zM1377 645l2 16l96 60l-91 5l1 20l117 -10v-11q0 -5 -1 -9 q-4 -2 -4 -5l-81 -50l81 -6l-1 -19z" />
<glyph unicode="8" d="M822 308q82 0 155 30t130 78h-570q58 -48 130 -78t155 -30zM586 463h564q45 55 70 124t25 147q0 80 -26.5 150t-81.5 139zM822 1251q-105 0 -198 -40t-163.5 -109t-112.5 -163.5t-42 -204.5q0 -103 39.5 -196t108 -163.5t163.5 -112.5t205 -42q35 0 70 5.5t68 15.5 q77 23 146 68t120 108.5t80.5 143.5t29.5 173q0 101 -38.5 194t-107 165t-163.5 115t-205 43zM822 260q-100 0 -186 38t-150 103t-99.5 151.5t-35.5 181.5q0 94 35 179.5t98 151t149.5 103.5t188.5 38q67 0 124 -16q71 -19 134.5 -60t111 -100t75 -134t27.5 -162 q0 -98 -37 -184.5t-101.5 -151t-150.5 -101.5t-183 -37zM492 1004q-45 -55 -70.5 -122.5t-25.5 -147.5q0 -83 28 -155.5t78 -130.5l555 556h-565zM822 1161q-83 0 -155.5 -29t-130.5 -81h566q-55 50 -126.5 80t-153.5 30zM972 191l-90 -16l4 -26l34 6l16 -89l26 5l-16 89 l31 6zM1072 156q-1 7 -8 9l-12 5h-15h-6h-9h-2v1q-3 3 -3 4l-2 1q2 0 2 4v1h3h5v4h1h5h3q3 0 3 1h9q0 3 0.5 4l0.5 1l5 10l-6 4q-9 4 -12 4q-2 0 -4.5 1t-4.5 1q-4 0 -6 -1t-4 -1l-13 -8q-2 -1 -4 -3.5t-3 -6.5q-8 -6 -8 -15v-4t3 -7q2 -9 10 -14q1 0 3.5 -1.5t3.5 -3.5 q4 0 7 -1t6 -1h12h10h2q2 0 3 -3q4 0 4 -1h3v-5q0 -2 -1 -3t-1 -2v-1q-1 0 -2 -2.5t-3 -2.5q-1 -3 -5 -3h-2.5h-2.5h-3.5h-2.5h-6h-8l-5 -1v-2t-1 -2l-5 -7q1 -4 3 -6t3 -4q4 -1 7 -2t7 -1q8 -3 11 -2q4 0 8 1t7 1l7 3.5t8 4.5l5.5 5.5t4.5 6.5q0 5 2.5 7.5t2.5 7.5 t-0.5 8.5t-4.5 6.5q0 8 -5 10zM1122 151q-1 4 -3 4t-3.5 0.5t-3.5 0.5q-1 -1 -6 -1l-7 -4q-2 -1 -2 -3v-2q-1 -2 -1 -5v-1q0 -4 1 -4v-1q0 -6 4 -6q1 -5 6 -5h7q5 0 7 2q1 2 3 2.5t2 2.5v2q0 2 1 2l4 3v2q0 6 -5 6zM846 99q-1 0 -1 4q0 1 -1.5 1t-1.5 1q0 4 -1 4l-41 60 q0 1 -3 2q-1 3 -8 3h-9h-14l3 -119l27 1v79l51 -79h25v118h-30zM599 189l48 -18l8 25l-73 25l-41 -105l26 -11l15 41l38 -15l10 25l-38 15zM747 160l-8 11q-3 3 -6.5 5t-7.5 4q-4 1 -7 2t-8 3q-5 1 -9 1h-7q-10 0 -14 -5q-4 0 -7.5 -1t-7.5 -4l-11 -10q-4 -8 -10 -11 q-2 -5 -3.5 -8.5t-1.5 -6.5v-19l3 -15l5 -12l12 -11q3 -4 7 -5.5t6 -3.5q7 -4 15 -4q5 -1 8.5 -1h6.5q5 0 14 2q4 2 8.5 3t6.5 4q6 2 11 10l9 11q4 7 6 17v15q0 3 -0.5 6.5t-2.5 8.5l-3 7.5t-4 6.5zM730 121q0 -3 -1.5 -6.5t-3.5 -5.5l-4.5 -6t-4.5 -4q-4 -1 -6.5 -2 t-5.5 -1q-7 -3 -12 0q-3 0 -6.5 1t-5.5 2l-8 10q-2 2 -2.5 5.5t-0.5 6.5q-3 5 0 14q0 6 5 11l6 9l12 5h12l12 -5l9 -9q2 -3 3.5 -5t1.5 -6q2 -9 0 -14zM1309 460q-2 -2 -3 -4t-1 -6q0 -2 1 -4t3 -5l40 -57l-69 10h-10l-9 -6l-9 -17l97 -65l16 23l-46 32l60 -12l11 20l-33 50 l47 -30l15 24l-98 63zM1296 333l-14 13l-15 3q-3 2 -15 2h-6.5t-8.5 -2l-12 -3q-4 -3 -8.5 -6.5t-6.5 -6.5q-3 -3 -4.5 -6t-3.5 -6q-3 -3 -4 -6.5t-3 -8.5q0 -3 -1.5 -6.5t-1.5 -8.5v-6t3 -9l4 -13l10 -12l13 -10q5 -1 7.5 -3.5t7.5 -2.5t8.5 -2t6.5 -2t6.5 2t8.5 2 q3 0 6.5 2.5t7.5 3.5q6 3 13 10l10 12q1 2 3 5t2 8q1 5 1 15v15l-6 13q-2 4 -5 9zM1282 280q-3 -9 -7 -10q-8 -7 -10 -9q-3 -1 -6.5 -1h-6.5t-6.5 0.5t-4.5 0.5l-11 9q-4 4 -8 11v10v12q4 8 8 12l11 8q3 0 6 0.5t5 0.5q5 0 13 -3q2 -1 4.5 -3t5.5 -5q2 -2 4 -4.5t3 -5.5 q3 -3 3 -12q0 -2 -1.5 -6.5zM1209 220l-7 -4q-2 0 -3.5 -2.5t-1.5 -4.5l-5 -9l-8 -6q-4 -3 -6 -4t-6 -1q-6 -3 -12 0q-3 2 -5.5 2t-5.5 3q-7 4 -7 11q-5 1 -5 11q-5 3 0 14v3.5t2 7.5q2 2 4 3.5t4 3.5q8 3 10 3q3 2 10 2q2 0 10 3q2 4 5 5l2 7v8q-3 5 -12 5h-13l-14 -5 l-11 -5q-2 -2 -5.5 -4.5t-6.5 -6.5q-2 -2 -4 -5.5t-4 -8.5l-7 -15v-15q0 -5 2 -7.5t2 -7.5l6 -15q3 -3 6 -5t4 -5l15 -10l12 -2q5 -3 16 -3q4 0 7 1.5t7 2.5q5 1 8.5 3.5t6.5 5.5l5 2.5t5 4.5q3 0 5 3.5t5 6.5l3 14q5 4 5 13l-12 2h-6zM519 260l-102 -74l15 -10h2.5h2.5 q3 0 3.5 -0.5t1.5 0.5h5h5l10 10l40 -22l-2 -15v-5q0 -3 1 -3q0 -1 1 -1v-4q0 -1 2 -1l3 -4l17 -10l17 125zM507 218v-2v-3l-1 -22l-19 10l17 15h2h1v2v1h2q1 1 2 1zM477 255l18 20l-69 59l-20 -21l26 -22l-57 -66l20 -19l60 70zM257 411l83 -10h6q1 0 2 1t3 1l11 8l-45 77 l-23 -14l26 -44l-83 9q-1 0 -4.5 -0.5t-7.5 -3.5l-10 -5l45 -79l22 15zM357 303l22 18l-27 30l14 12l31 -39l20 17l-48 60l-90 -75l51 -58l19 18l-32 37l17 11zM191 741l50 4q1 -2 3.5 -4t4.5 -5q2 -1 3.5 -4t1.5 -6q1 -6 3 -11q0 -4 1 -6.5t1 -4.5q0 -8 -1 -14t-3 -11 q-1 -8 -4.5 -13t-6.5 -10q-7 -8 -19 -12q-11 -8 -23 -8h-17q-4 3 -7.5 4t-7.5 4q-4 1 -6.5 3t-6.5 4q-2 3 -5 6t-5 7q-2 2 -3.5 5.5t-3.5 6.5q-1 5 -2 9.5t-1 9.5v6.5v4.5q3 9 3 14q2 3 3.5 5.5t3.5 5.5q2 2 3.5 5t3.5 5l3 -5q3 0 4 -1l1 -1q2 -3 2 -8v-3t-2 -3 q-5 -5 -5 -11v-13t3 -17q2 -4 4.5 -7t5.5 -6q5 -5 14 -7q7 -4 17 -3q6 0 11 3q3 1 5 1.5t4 3.5q1 2 3.5 3t5.5 4q1 2 2.5 3.5t3.5 4.5q0 4 0.5 6.5t2.5 5.5q1 4 1 10q-1 4 -2 7t-2 8q0 3 -5 10l-19 -1v-5v-5q0 -2 -2 -5q-1 -1 -2 -2.5t-2 -1.5q-2 -1 -6 -1h-6zM264 831 l-9 -75l-118 12l8 75l19 -2l-7 -55l30 -5l5 47l20 -2l-5 -45l32 -3l5 57zM164 851l-17 5l22 90l18 -5l-10 -37l98 -23l-4 -18l-97 23zM205 988l-18 8l42 83l16 -8l-15 -32l89 -45l-8 -18l-90 45zM392 1106l-11 -16l-40 30l-35 -47l41 -30l-11 -15l-97 70l11 15l40 -29l35 47 l-40 30l11 15zM456 1166l-54 -51l-83 86l53 53l14 -15l-39 -39l20 -21l33 31l12 -14l-31 -30l21 -23l40 38zM514 1290l10 -17l-39 -24l24 -43l-14 -10l-63 100l63 40l9 -15l-47 -30l18 -26zM562 1290q0 -7 5 -10q2 -4 10 -7q2 -2 5 -2h5q5 0 10 2q8 3 10 7q5 5 7 10 q1 1 1 10q0 6 -1 11l-27 67l17 8l28 -68q2 -5 2.5 -9t0.5 -9q0 -10 -3 -19q-2 -5 -4.5 -8t-7.5 -7q-3 -5 -6 -6.5t-8 -3.5t-9.5 -3.5t-9.5 -1.5q-8 0 -18 5q-5 2 -8.5 3.5t-6.5 6.5q-7 7 -10 15l-30 67l18 8zM662 1276l-30 117l20 5l23 -97l49 10l3 -20zM731 1291l-12 120 l20 2l10 -98l51 5v-20zM864 1296l-19 4l12 118l44 -5q6 0 14 -4q9 -5 11 -10q4 -3 6 -13q4 -7 3 -15q-3 -3 -3 -6.5t-2 -8.5q-6 -8 -9 -11q-4 -4 -14 -7q-3 -2 -13 -2l-25 4zM895 1356h7q3 0 7 5q3 0 3 5q2 2 4 8q0 5 -1 7t-2 3.5l-1 1.5q-2 3 -3.5 4t-2.5 1q-2 2 -3.5 2 t-2.5 1l-25 2l-5 -38zM951 1285l-19 5l30 113l44 -12q6 0 11 -5l10 -10q4 -5 4 -13q1 -5 0.5 -8.5t-0.5 -6.5q-2 -5 -5 -10q-4 -5 -6 -7q-8 -5 -10 -5q-3 -2 -5.5 -2.5t-3.5 -2.5l21 -56l-15 1q-1 2 -3 3.5t-3 1.5q-4 2 -5 9l-19 46l-15 4zM977 1379l-10 -31l25 -7h3h2 q3 0 4 1t4 1q2 0 2 1.5v1.5q5 5 5 7v7v3t-1 3q-1 2 -2.5 2.5t-1.5 2.5q-3 3 -6 3zM1037 1321q0 5 2.5 8.5t6.5 6.5q1 3 4.5 5.5t6.5 4.5q3 3 6.5 4t8.5 3q4 3 14 3h15q9 -1 16 -6q8 -4 15 -9q3 -3 5.5 -6.5t4.5 -4.5l3.5 -7l3.5 -7q1 -5 2 -8t1 -7v-8t-2 -8q-1 -4 -2 -7.5 t-3 -7.5q-3 -4 -4 -7t-4 -7q-3 -3 -6.5 -5t-4.5 -6q-4 -2 -7 -4t-7 -5q-6 0 -16 -1q-12 0 -17 1q-5 0 -15 5q-12 5 -18 15q-9 9 -14 20q-1 7 -1 12v12q0 11 6 21zM1054 1315q-2 -4 -2.5 -6.5t-2.5 -5.5v-10q0 -2 1 -5t2 -5q0 -7 4 -10q1 -2 3 -4.5t3 -2.5q4 -5 10 -6 q7 -4 10 -4h12h12q4 5 8 5q3 2 5 3.5t3 3.5q3 3 4 5.5t3 4.5q2 3 2.5 7.5t0.5 9.5v7.5v7.5q-2 4 -4.5 7.5t-5.5 5.5q-6 7 -13 10q-2 2 -5 2.5t-7 0.5h-10q-6 0 -10 -1q-3 -2 -5 -3t-5 -1q-1 -2 -3 -4t-3 -4zM1222 1290l10 -9q0 -1 1.5 -3t3.5 -3q0 -5 -2 -9l-28 -85l83 38 q1 1 7 1q5 0 7 -4l10 -7l-117 -54l-15 11zM1279 1064l-47 56l90 76l49 -56l-14 -14l-37 44l-23 -19l29 -36l-16 -11l-28 35l-23 -21l35 -42zM1294 1039l-9 16l101 61l23 -37q2 -3 2.5 -6t2.5 -8q2 -7 -2 -12q-2 -9 -5 -13l-4.5 -4.5t-6.5 -5.5q-4 -1 -5.5 -1.5t-4.5 -2.5 q-4 0 -5.5 -0.5t-4.5 0.5q-4 0 -10 3q-4 1 -5.5 1.5t-3.5 3.5l-23 -59l-9 13q-4 2 -4 7q0 6 3 9l20 47l-8 13zM1381 1089l-29 -16l13 -19q2 -5 4 -6q1 0 6 -3h6q1 0 5 3q1 0 6 3q0 3 1 4t1 3q1 1 1 6q-1 1 -1 2.5t-2 3.5zM1436 969q1 1 1 7q0 4 -1 5q-2 3 -2 7q-3 0 -5 3 q-2 2 -5 2q-3 1 -5 0l-2.5 -2.5l-1.5 -1.5l-2 -2l-2 -2v-7v-10v-3v-2v-10q0 -2 -0.5 -4.5t-0.5 -4.5q-4 -14 -19 -21q-4 -2 -7.5 -3t-8.5 1q-6 0 -14 2q-4 3 -7 5t-5 6q-3 2 -5 5.5t-4 6.5q-3 10 -3 15q0 4 3 14q0 3 2 5l3 4q0 4 2 4q4 2 3 2l4 -2q3 -5 5 -7q0 -1 0.5 -2 t0.5 -3q0 -3 -3 -6v-1v-8q0 -5 2 -8q0 -2 1 -3t2 -4q2 0 3.5 -1.5l3.5 -3.5h2t4 -2h4.5t4.5 2q2 0 5 3q2 4 2 5q1 2 1 7v8v4v12q0 8 2 13q1 2 2 4.5t4 5.5q2 2 4.5 3.5t6.5 3.5q8 3 14 1q6 0 12 -3q3 -2 6.5 -3.5t5.5 -5.5q3 -3 6 -11q2 -7 2 -10q0 -7 -1 -10q0 -4 -4 -10 v-4.5t-2 -3.5l-6 4q-3 1 -4 2.5t-3 3.5q-1 3 -1 6v3zM1364 881l-5 18l113 34l5 -19zM1427 881h19q6 0 14 -5q4 0 7.5 -2.5t4.5 -4.5q4 -3 7 -5.5t6 -5.5q4 -8 7 -12q3 -8 5 -18v-15q-2 -10 -5 -15q-1 -5 -3 -8.5t-4 -6.5l-10 -10q-4 -4 -7.5 -5.5t-6.5 -2.5q-7 -4 -15 -4 q-10 -1 -19 0q-8 0 -15 4q-2 1 -6 2.5t-7 3.5q-3 3 -5.5 6.5t-4.5 5.5q-7 5 -8 15q-2 3 -3.5 6.5t-1.5 8.5q-1 13 1 23q5 13 10 20q7 10 18 17q5 3 11 5.5t11 2.5zM1430 861q-8 0 -10 -3q-5 -2 -10 -5q-4 -2 -6 -7q-5 -5 -5 -10q-2 -1 -2.5 -4t-1.5 -6v-10q2 -8 4 -11 q0 -6 5 -9q1 -3 3 -5t3 -5q2 0 4.5 -1.5t5.5 -3.5q2 -1 4.5 -1h5.5q5 -4 11 0q11 0 16 5q5 1 13 11q6 8 6 15q3 7 1 15q0 7 -2 10q-3 4 -3.5 6t-1.5 4q-3 2 -4.5 3.5l-3.5 3.5q-5 3 -10 5q-3 3 -11 3q-4 3 -11 0zM1377 645l2 16l96 60l-91 5l1 20l117 -10v-11q0 -5 -1 -9 q-4 -2 -4 -5l-81 -50l81 -6l-1 -19z" />
<glyph unicode="9" d="M822 308q82 0 155 30t130 78h-570q58 -48 130 -78t155 -30zM586 463h564q45 55 70 124t25 147q0 80 -26.5 150t-81.5 139zM822 1251q-105 0 -198 -40t-163.5 -109t-112.5 -163.5t-42 -204.5q0 -103 39.5 -196t108 -163.5t163.5 -112.5t205 -42q35 0 70 5.5t68 15.5 q77 23 146 68t120 108.5t80.5 143.5t29.5 173q0 101 -38.5 194t-107 165t-163.5 115t-205 43zM822 260q-100 0 -186 38t-150 103t-99.5 151.5t-35.5 181.5q0 94 35 179.5t98 151t149.5 103.5t188.5 38q67 0 124 -16q71 -19 134.5 -60t111 -100t75 -134t27.5 -162 q0 -98 -37 -184.5t-101.5 -151t-150.5 -101.5t-183 -37zM492 1004q-45 -55 -70.5 -122.5t-25.5 -147.5q0 -83 28 -155.5t78 -130.5l555 556h-565zM822 1161q-83 0 -155.5 -29t-130.5 -81h566q-55 50 -126.5 80t-153.5 30zM972 191l-90 -16l4 -26l34 6l16 -89l26 5l-16 89 l31 6zM1072 156q-1 7 -8 9l-12 5h-15h-6h-9h-2v1q-3 3 -3 4l-2 1q2 0 2 4v1h3h5v4h1h5h3q3 0 3 1h9q0 3 0.5 4l0.5 1l5 10l-6 4q-9 4 -12 4q-2 0 -4.5 1t-4.5 1q-4 0 -6 -1t-4 -1l-13 -8q-2 -1 -4 -3.5t-3 -6.5q-8 -6 -8 -15v-4t3 -7q2 -9 10 -14q1 0 3.5 -1.5t3.5 -3.5 q4 0 7 -1t6 -1h12h10h2q2 0 3 -3q4 0 4 -1h3v-5q0 -2 -1 -3t-1 -2v-1q-1 0 -2 -2.5t-3 -2.5q-1 -3 -5 -3h-2.5h-2.5h-3.5h-2.5h-6h-8l-5 -1v-2t-1 -2l-5 -7q1 -4 3 -6t3 -4q4 -1 7 -2t7 -1q8 -3 11 -2q4 0 8 1t7 1l7 3.5t8 4.5l5.5 5.5t4.5 6.5q0 5 2.5 7.5t2.5 7.5 t-0.5 8.5t-4.5 6.5q0 8 -5 10zM1122 151q-1 4 -3 4t-3.5 0.5t-3.5 0.5q-1 -1 -6 -1l-7 -4q-2 -1 -2 -3v-2q-1 -2 -1 -5v-1q0 -4 1 -4v-1q0 -6 4 -6q1 -5 6 -5h7q5 0 7 2q1 2 3 2.5t2 2.5v2q0 2 1 2l4 3v2q0 6 -5 6zM846 99q-1 0 -1 4q0 1 -1.5 1t-1.5 1q0 4 -1 4l-41 60 q0 1 -3 2q-1 3 -8 3h-9h-14l3 -119l27 1v79l51 -79h25v118h-30zM599 189l48 -18l8 25l-73 25l-41 -105l26 -11l15 41l38 -15l10 25l-38 15zM747 160l-8 11q-3 3 -6.5 5t-7.5 4q-4 1 -7 2t-8 3q-5 1 -9 1h-7q-10 0 -14 -5q-4 0 -7.5 -1t-7.5 -4l-11 -10q-4 -8 -10 -11 q-2 -5 -3.5 -8.5t-1.5 -6.5v-19l3 -15l5 -12l12 -11q3 -4 7 -5.5t6 -3.5q7 -4 15 -4q5 -1 8.5 -1h6.5q5 0 14 2q4 2 8.5 3t6.5 4q6 2 11 10l9 11q4 7 6 17v15q0 3 -0.5 6.5t-2.5 8.5l-3 7.5t-4 6.5zM730 121q0 -3 -1.5 -6.5t-3.5 -5.5l-4.5 -6t-4.5 -4q-4 -1 -6.5 -2 t-5.5 -1q-7 -3 -12 0q-3 0 -6.5 1t-5.5 2l-8 10q-2 2 -2.5 5.5t-0.5 6.5q-3 5 0 14q0 6 5 11l6 9l12 5h12l12 -5l9 -9q2 -3 3.5 -5t1.5 -6q2 -9 0 -14zM1309 460q-2 -2 -3 -4t-1 -6q0 -2 1 -4t3 -5l40 -57l-69 10h-10l-9 -6l-9 -17l97 -65l16 23l-46 32l60 -12l11 20l-33 50 l47 -30l15 24l-98 63zM1296 333l-14 13l-15 3q-3 2 -15 2h-6.5t-8.5 -2l-12 -3q-4 -3 -8.5 -6.5t-6.5 -6.5q-3 -3 -4.5 -6t-3.5 -6q-3 -3 -4 -6.5t-3 -8.5q0 -3 -1.5 -6.5t-1.5 -8.5v-6t3 -9l4 -13l10 -12l13 -10q5 -1 7.5 -3.5t7.5 -2.5t8.5 -2t6.5 -2t6.5 2t8.5 2 q3 0 6.5 2.5t7.5 3.5q6 3 13 10l10 12q1 2 3 5t2 8q1 5 1 15v15l-6 13q-2 4 -5 9zM1282 280q-3 -9 -7 -10q-8 -7 -10 -9q-3 -1 -6.5 -1h-6.5t-6.5 0.5t-4.5 0.5l-11 9q-4 4 -8 11v10v12q4 8 8 12l11 8q3 0 6 0.5t5 0.5q5 0 13 -3q2 -1 4.5 -3t5.5 -5q2 -2 4 -4.5t3 -5.5 q3 -3 3 -12q0 -2 -1.5 -6.5zM1209 220l-7 -4q-2 0 -3.5 -2.5t-1.5 -4.5l-5 -9l-8 -6q-4 -3 -6 -4t-6 -1q-6 -3 -12 0q-3 2 -5.5 2t-5.5 3q-7 4 -7 11q-5 1 -5 11q-5 3 0 14v3.5t2 7.5q2 2 4 3.5t4 3.5q8 3 10 3q3 2 10 2q2 0 10 3q2 4 5 5l2 7v8q-3 5 -12 5h-13l-14 -5 l-11 -5q-2 -2 -5.5 -4.5t-6.5 -6.5q-2 -2 -4 -5.5t-4 -8.5l-7 -15v-15q0 -5 2 -7.5t2 -7.5l6 -15q3 -3 6 -5t4 -5l15 -10l12 -2q5 -3 16 -3q4 0 7 1.5t7 2.5q5 1 8.5 3.5t6.5 5.5l5 2.5t5 4.5q3 0 5 3.5t5 6.5l3 14q5 4 5 13l-12 2h-6zM519 260l-102 -74l15 -10h2.5h2.5 q3 0 3.5 -0.5t1.5 0.5h5h5l10 10l40 -22l-2 -15v-5q0 -3 1 -3q0 -1 1 -1v-4q0 -1 2 -1l3 -4l17 -10l17 125zM507 218v-2v-3l-1 -22l-19 10l17 15h2h1v2v1h2q1 1 2 1zM477 255l18 20l-69 59l-20 -21l26 -22l-57 -66l20 -19l60 70zM257 411l83 -10h6q1 0 2 1t3 1l11 8l-45 77 l-23 -14l26 -44l-83 9q-1 0 -4.5 -0.5t-7.5 -3.5l-10 -5l45 -79l22 15zM357 303l22 18l-27 30l14 12l31 -39l20 17l-48 60l-90 -75l51 -58l19 18l-32 37l17 11zM191 741l50 4q1 -2 3.5 -4t4.5 -5q2 -1 3.5 -4t1.5 -6q1 -6 3 -11q0 -4 1 -6.5t1 -4.5q0 -8 -1 -14t-3 -11 q-1 -8 -4.5 -13t-6.5 -10q-7 -8 -19 -12q-11 -8 -23 -8h-17q-4 3 -7.5 4t-7.5 4q-4 1 -6.5 3t-6.5 4q-2 3 -5 6t-5 7q-2 2 -3.5 5.5t-3.5 6.5q-1 5 -2 9.5t-1 9.5v6.5v4.5q3 9 3 14q2 3 3.5 5.5t3.5 5.5q2 2 3.5 5t3.5 5l3 -5q3 0 4 -1l1 -1q2 -3 2 -8v-3t-2 -3 q-5 -5 -5 -11v-13t3 -17q2 -4 4.5 -7t5.5 -6q5 -5 14 -7q7 -4 17 -3q6 0 11 3q3 1 5 1.5t4 3.5q1 2 3.5 3t5.5 4q1 2 2.5 3.5t3.5 4.5q0 4 0.5 6.5t2.5 5.5q1 4 1 10q-1 4 -2 7t-2 8q0 3 -5 10l-19 -1v-5v-5q0 -2 -2 -5q-1 -1 -2 -2.5t-2 -1.5q-2 -1 -6 -1h-6zM264 831 l-9 -75l-118 12l8 75l19 -2l-7 -55l30 -5l5 47l20 -2l-5 -45l32 -3l5 57zM164 851l-17 5l22 90l18 -5l-10 -37l98 -23l-4 -18l-97 23zM205 988l-18 8l42 83l16 -8l-15 -32l89 -45l-8 -18l-90 45zM392 1106l-11 -16l-40 30l-35 -47l41 -30l-11 -15l-97 70l11 15l40 -29l35 47 l-40 30l11 15zM456 1166l-54 -51l-83 86l53 53l14 -15l-39 -39l20 -21l33 31l12 -14l-31 -30l21 -23l40 38zM514 1290l10 -17l-39 -24l24 -43l-14 -10l-63 100l63 40l9 -15l-47 -30l18 -26zM562 1290q0 -7 5 -10q2 -4 10 -7q2 -2 5 -2h5q5 0 10 2q8 3 10 7q5 5 7 10 q1 1 1 10q0 6 -1 11l-27 67l17 8l28 -68q2 -5 2.5 -9t0.5 -9q0 -10 -3 -19q-2 -5 -4.5 -8t-7.5 -7q-3 -5 -6 -6.5t-8 -3.5t-9.5 -3.5t-9.5 -1.5q-8 0 -18 5q-5 2 -8.5 3.5t-6.5 6.5q-7 7 -10 15l-30 67l18 8zM662 1276l-30 117l20 5l23 -97l49 10l3 -20zM731 1291l-12 120 l20 2l10 -98l51 5v-20zM864 1296l-19 4l12 118l44 -5q6 0 14 -4q9 -5 11 -10q4 -3 6 -13q4 -7 3 -15q-3 -3 -3 -6.5t-2 -8.5q-6 -8 -9 -11q-4 -4 -14 -7q-3 -2 -13 -2l-25 4zM895 1356h7q3 0 7 5q3 0 3 5q2 2 4 8q0 5 -1 7t-2 3.5l-1 1.5q-2 3 -3.5 4t-2.5 1q-2 2 -3.5 2 t-2.5 1l-25 2l-5 -38zM951 1285l-19 5l30 113l44 -12q6 0 11 -5l10 -10q4 -5 4 -13q1 -5 0.5 -8.5t-0.5 -6.5q-2 -5 -5 -10q-4 -5 -6 -7q-8 -5 -10 -5q-3 -2 -5.5 -2.5t-3.5 -2.5l21 -56l-15 1q-1 2 -3 3.5t-3 1.5q-4 2 -5 9l-19 46l-15 4zM977 1379l-10 -31l25 -7h3h2 q3 0 4 1t4 1q2 0 2 1.5v1.5q5 5 5 7v7v3t-1 3q-1 2 -2.5 2.5t-1.5 2.5q-3 3 -6 3zM1037 1321q0 5 2.5 8.5t6.5 6.5q1 3 4.5 5.5t6.5 4.5q3 3 6.5 4t8.5 3q4 3 14 3h15q9 -1 16 -6q8 -4 15 -9q3 -3 5.5 -6.5t4.5 -4.5l3.5 -7l3.5 -7q1 -5 2 -8t1 -7v-8t-2 -8q-1 -4 -2 -7.5 t-3 -7.5q-3 -4 -4 -7t-4 -7q-3 -3 -6.5 -5t-4.5 -6q-4 -2 -7 -4t-7 -5q-6 0 -16 -1q-12 0 -17 1q-5 0 -15 5q-12 5 -18 15q-9 9 -14 20q-1 7 -1 12v12q0 11 6 21zM1054 1315q-2 -4 -2.5 -6.5t-2.5 -5.5v-10q0 -2 1 -5t2 -5q0 -7 4 -10q1 -2 3 -4.5t3 -2.5q4 -5 10 -6 q7 -4 10 -4h12h12q4 5 8 5q3 2 5 3.5t3 3.5q3 3 4 5.5t3 4.5q2 3 2.5 7.5t0.5 9.5v7.5v7.5q-2 4 -4.5 7.5t-5.5 5.5q-6 7 -13 10q-2 2 -5 2.5t-7 0.5h-10q-6 0 -10 -1q-3 -2 -5 -3t-5 -1q-1 -2 -3 -4t-3 -4zM1222 1290l10 -9q0 -1 1.5 -3t3.5 -3q0 -5 -2 -9l-28 -85l83 38 q1 1 7 1q5 0 7 -4l10 -7l-117 -54l-15 11zM1279 1064l-47 56l90 76l49 -56l-14 -14l-37 44l-23 -19l29 -36l-16 -11l-28 35l-23 -21l35 -42zM1294 1039l-9 16l101 61l23 -37q2 -3 2.5 -6t2.5 -8q2 -7 -2 -12q-2 -9 -5 -13l-4.5 -4.5t-6.5 -5.5q-4 -1 -5.5 -1.5t-4.5 -2.5 q-4 0 -5.5 -0.5t-4.5 0.5q-4 0 -10 3q-4 1 -5.5 1.5t-3.5 3.5l-23 -59l-9 13q-4 2 -4 7q0 6 3 9l20 47l-8 13zM1381 1089l-29 -16l13 -19q2 -5 4 -6q1 0 6 -3h6q1 0 5 3q1 0 6 3q0 3 1 4t1 3q1 1 1 6q-1 1 -1 2.5t-2 3.5zM1436 969q1 1 1 7q0 4 -1 5q-2 3 -2 7q-3 0 -5 3 q-2 2 -5 2q-3 1 -5 0l-2.5 -2.5l-1.5 -1.5l-2 -2l-2 -2v-7v-10v-3v-2v-10q0 -2 -0.5 -4.5t-0.5 -4.5q-4 -14 -19 -21q-4 -2 -7.5 -3t-8.5 1q-6 0 -14 2q-4 3 -7 5t-5 6q-3 2 -5 5.5t-4 6.5q-3 10 -3 15q0 4 3 14q0 3 2 5l3 4q0 4 2 4q4 2 3 2l4 -2q3 -5 5 -7q0 -1 0.5 -2 t0.5 -3q0 -3 -3 -6v-1v-8q0 -5 2 -8q0 -2 1 -3t2 -4q2 0 3.5 -1.5l3.5 -3.5h2t4 -2h4.5t4.5 2q2 0 5 3q2 4 2 5q1 2 1 7v8v4v12q0 8 2 13q1 2 2 4.5t4 5.5q2 2 4.5 3.5t6.5 3.5q8 3 14 1q6 0 12 -3q3 -2 6.5 -3.5t5.5 -5.5q3 -3 6 -11q2 -7 2 -10q0 -7 -1 -10q0 -4 -4 -10 v-4.5t-2 -3.5l-6 4q-3 1 -4 2.5t-3 3.5q-1 3 -1 6v3zM1364 881l-5 18l113 34l5 -19zM1427 881h19q6 0 14 -5q4 0 7.5 -2.5t4.5 -4.5q4 -3 7 -5.5t6 -5.5q4 -8 7 -12q3 -8 5 -18v-15q-2 -10 -5 -15q-1 -5 -3 -8.5t-4 -6.5l-10 -10q-4 -4 -7.5 -5.5t-6.5 -2.5q-7 -4 -15 -4 q-10 -1 -19 0q-8 0 -15 4q-2 1 -6 2.5t-7 3.5q-3 3 -5.5 6.5t-4.5 5.5q-7 5 -8 15q-2 3 -3.5 6.5t-1.5 8.5q-1 13 1 23q5 13 10 20q7 10 18 17q5 3 11 5.5t11 2.5zM1430 861q-8 0 -10 -3q-5 -2 -10 -5q-4 -2 -6 -7q-5 -5 -5 -10q-2 -1 -2.5 -4t-1.5 -6v-10q2 -8 4 -11 q0 -6 5 -9q1 -3 3 -5t3 -5q2 0 4.5 -1.5t5.5 -3.5q2 -1 4.5 -1h5.5q5 -4 11 0q11 0 16 5q5 1 13 11q6 8 6 15q3 7 1 15q0 7 -2 10q-3 4 -3.5 6t-1.5 4q-3 2 -4.5 3.5l-3.5 3.5q-5 3 -10 5q-3 3 -11 3q-4 3 -11 0zM1377 645l2 16l96 60l-91 5l1 20l117 -10v-11q0 -5 -1 -9 q-4 -2 -4 -5l-81 -50l81 -6l-1 -19z" />
<glyph unicode=":" horiz-adv-x="497" d="M145 71q0 19 7.5 36t20 29.5t29.5 20t36 7.5t36 -7.5t30 -20t20 -29.5t7 -36t-7 -36t-20 -29.5t-30 -20t-36 -7.5t-36 7.5t-29.5 20t-20 29.5t-7.5 36zM145 903q0 19 7.5 36t20 29.5t29.5 20t36 7.5t36 -7.5t30 -20t20 -29.5t7 -36t-7 -36t-20 -29.5t-30 -20t-36 -7.5 t-36 7.5t-29.5 20t-20 29.5t-7.5 36z" />
<glyph unicode=";" horiz-adv-x="497" d="M145 903q0 19 7.5 36t20 29.5t29.5 20t36 7.5t36 -7.5t30 -20t20 -29.5t7 -36t-7 -36t-20 -29.5t-30 -20t-36 -7.5t-36 7.5t-29.5 20t-20 29.5t-7.5 36zM144 70q0 41 28 68.5t68 27.5q48 0 72.5 -32t24.5 -82q0 -52 -9.5 -91.5t-23.5 -66t-29.5 -40t-27.5 -13.5 q-4 0 -11.5 4t-15.5 10t-14 13.5t-6 15.5t5 17.5t11.5 19t11.5 20.5t5 22v11q-37 6 -63 32t-26 64z" />
<glyph unicode="&#x3c;" horiz-adv-x="817" d="M123 524q-27 26 4 57l438 438q13 14 31.5 12.5t32.5 -15.5l17 -15q15 -15 13.5 -32.5t-13.5 -31.5l-387 -387l387 -387q14 -14 13 -32t-15 -32l-18 -18q-14 -14 -31 -12.5t-30 12.5z" />
<glyph unicode="=" horiz-adv-x="1005" d="M828 853q18 0 31 -11t13 -33v-24q0 -18 -12 -32t-32 -14h-616q-46 0 -46 46v24q0 44 46 44h616zM828 534q18 0 31 -11t13 -33v-24q0 -18 -12 -32t-32 -14h-616q-46 0 -46 46v24q0 44 46 44h616z" />
<glyph unicode="&#x3e;" horiz-adv-x="838" d="M246 81q-15 -13 -32 -13q-16 0 -29 13l-18 18q-15 13 -15 31q0 20 13 33l387 387l-387 387q-7 7 -10 15.5t-4 17.5q1 8 3.5 16t10.5 15l17 15q7 6 15 10.5t18 4.5q19 0 31 -12l438 -438q16 -16 16 -32q0 -13 -12 -25z" />
<glyph unicode="?" horiz-adv-x="1137" d="M612 348q0 -22 -14 -35.5t-33 -13.5h-30q-22 0 -34.5 15t-12.5 34v169q0 58 19.5 103t51 82t71.5 67.5t82.5 60t82.5 60.5t71.5 68t51 82t19.5 104q0 77 -29 137t-79 101.5t-117.5 63t-143.5 21.5t-142.5 -24.5t-115.5 -69t-77 -107.5t-28 -140q0 -18 -13.5 -32.5 t-28.5 -19.5h-29q-21 0 -30 10t-16 25v13q3 100 41.5 184.5t104 146t152 96.5t184.5 35q100 0 187 -31t152 -88t102.5 -138t37.5 -181q0 -71 -19 -126t-49.5 -99.5t-70 -80t-80 -66.5t-80 -59t-70 -58t-49.5 -63.5t-19 -74.5v-171zM455 72q0 19 7 36t19.5 29.5t29.5 20 t36 7.5q20 0 37 -7.5t29.5 -20t19.5 -29.5t7 -36t-7 -36t-19.5 -29.5t-29.5 -20t-37 -7.5q-19 0 -36 7.5t-29.5 20t-19.5 29.5t-7 36z" />
<glyph unicode="@" d="M822 308q82 0 155 30t130 78h-570q58 -48 130 -78t155 -30zM586 463h564q45 55 70 124t25 147q0 80 -26.5 150t-81.5 139zM822 1251q-105 0 -198 -40t-163.5 -109t-112.5 -163.5t-42 -204.5q0 -103 39.5 -196t108 -163.5t163.5 -112.5t205 -42q35 0 70 5.5t68 15.5 q77 23 146 68t120 108.5t80.5 143.5t29.5 173q0 101 -38.5 194t-107 165t-163.5 115t-205 43zM822 260q-100 0 -186 38t-150 103t-99.5 151.5t-35.5 181.5q0 94 35 179.5t98 151t149.5 103.5t188.5 38q67 0 124 -16q71 -19 134.5 -60t111 -100t75 -134t27.5 -162 q0 -98 -37 -184.5t-101.5 -151t-150.5 -101.5t-183 -37zM492 1004q-45 -55 -70.5 -122.5t-25.5 -147.5q0 -83 28 -155.5t78 -130.5l555 556h-565zM822 1161q-83 0 -155.5 -29t-130.5 -81h566q-55 50 -126.5 80t-153.5 30zM972 191l-90 -16l4 -26l34 6l16 -89l26 5l-16 89 l31 6zM1072 156q-1 7 -8 9l-12 5h-15h-6h-9h-2v1q-3 3 -3 4l-2 1q2 0 2 4v1h3h5v4h1h5h3q3 0 3 1h9q0 3 0.5 4l0.5 1l5 10l-6 4q-9 4 -12 4q-2 0 -4.5 1t-4.5 1q-4 0 -6 -1t-4 -1l-13 -8q-2 -1 -4 -3.5t-3 -6.5q-8 -6 -8 -15v-4t3 -7q2 -9 10 -14q1 0 3.5 -1.5t3.5 -3.5 q4 0 7 -1t6 -1h12h10h2q2 0 3 -3q4 0 4 -1h3v-5q0 -2 -1 -3t-1 -2v-1q-1 0 -2 -2.5t-3 -2.5q-1 -3 -5 -3h-2.5h-2.5h-3.5h-2.5h-6h-8l-5 -1v-2t-1 -2l-5 -7q1 -4 3 -6t3 -4q4 -1 7 -2t7 -1q8 -3 11 -2q4 0 8 1t7 1l7 3.5t8 4.5l5.5 5.5t4.5 6.5q0 5 2.5 7.5t2.5 7.5 t-0.5 8.5t-4.5 6.5q0 8 -5 10zM1122 151q-1 4 -3 4t-3.5 0.5t-3.5 0.5q-1 -1 -6 -1l-7 -4q-2 -1 -2 -3v-2q-1 -2 -1 -5v-1q0 -4 1 -4v-1q0 -6 4 -6q1 -5 6 -5h7q5 0 7 2q1 2 3 2.5t2 2.5v2q0 2 1 2l4 3v2q0 6 -5 6zM846 99q-1 0 -1 4q0 1 -1.5 1t-1.5 1q0 4 -1 4l-41 60 q0 1 -3 2q-1 3 -8 3h-9h-14l3 -119l27 1v79l51 -79h25v118h-30zM599 189l48 -18l8 25l-73 25l-41 -105l26 -11l15 41l38 -15l10 25l-38 15zM747 160l-8 11q-3 3 -6.5 5t-7.5 4q-4 1 -7 2t-8 3q-5 1 -9 1h-7q-10 0 -14 -5q-4 0 -7.5 -1t-7.5 -4l-11 -10q-4 -8 -10 -11 q-2 -5 -3.5 -8.5t-1.5 -6.5v-19l3 -15l5 -12l12 -11q3 -4 7 -5.5t6 -3.5q7 -4 15 -4q5 -1 8.5 -1h6.5q5 0 14 2q4 2 8.5 3t6.5 4q6 2 11 10l9 11q4 7 6 17v15q0 3 -0.5 6.5t-2.5 8.5l-3 7.5t-4 6.5zM730 121q0 -3 -1.5 -6.5t-3.5 -5.5l-4.5 -6t-4.5 -4q-4 -1 -6.5 -2 t-5.5 -1q-7 -3 -12 0q-3 0 -6.5 1t-5.5 2l-8 10q-2 2 -2.5 5.5t-0.5 6.5q-3 5 0 14q0 6 5 11l6 9l12 5h12l12 -5l9 -9q2 -3 3.5 -5t1.5 -6q2 -9 0 -14zM1309 460q-2 -2 -3 -4t-1 -6q0 -2 1 -4t3 -5l40 -57l-69 10h-10l-9 -6l-9 -17l97 -65l16 23l-46 32l60 -12l11 20l-33 50 l47 -30l15 24l-98 63zM1296 333l-14 13l-15 3q-3 2 -15 2h-6.5t-8.5 -2l-12 -3q-4 -3 -8.5 -6.5t-6.5 -6.5q-3 -3 -4.5 -6t-3.5 -6q-3 -3 -4 -6.5t-3 -8.5q0 -3 -1.5 -6.5t-1.5 -8.5v-6t3 -9l4 -13l10 -12l13 -10q5 -1 7.5 -3.5t7.5 -2.5t8.5 -2t6.5 -2t6.5 2t8.5 2 q3 0 6.5 2.5t7.5 3.5q6 3 13 10l10 12q1 2 3 5t2 8q1 5 1 15v15l-6 13q-2 4 -5 9zM1282 280q-3 -9 -7 -10q-8 -7 -10 -9q-3 -1 -6.5 -1h-6.5t-6.5 0.5t-4.5 0.5l-11 9q-4 4 -8 11v10v12q4 8 8 12l11 8q3 0 6 0.5t5 0.5q5 0 13 -3q2 -1 4.5 -3t5.5 -5q2 -2 4 -4.5t3 -5.5 q3 -3 3 -12q0 -2 -1.5 -6.5zM1209 220l-7 -4q-2 0 -3.5 -2.5t-1.5 -4.5l-5 -9l-8 -6q-4 -3 -6 -4t-6 -1q-6 -3 -12 0q-3 2 -5.5 2t-5.5 3q-7 4 -7 11q-5 1 -5 11q-5 3 0 14v3.5t2 7.5q2 2 4 3.5t4 3.5q8 3 10 3q3 2 10 2q2 0 10 3q2 4 5 5l2 7v8q-3 5 -12 5h-13l-14 -5 l-11 -5q-2 -2 -5.5 -4.5t-6.5 -6.5q-2 -2 -4 -5.5t-4 -8.5l-7 -15v-15q0 -5 2 -7.5t2 -7.5l6 -15q3 -3 6 -5t4 -5l15 -10l12 -2q5 -3 16 -3q4 0 7 1.5t7 2.5q5 1 8.5 3.5t6.5 5.5l5 2.5t5 4.5q3 0 5 3.5t5 6.5l3 14q5 4 5 13l-12 2h-6zM519 260l-102 -74l15 -10h2.5h2.5 q3 0 3.5 -0.5t1.5 0.5h5h5l10 10l40 -22l-2 -15v-5q0 -3 1 -3q0 -1 1 -1v-4q0 -1 2 -1l3 -4l17 -10l17 125zM507 218v-2v-3l-1 -22l-19 10l17 15h2h1v2v1h2q1 1 2 1zM477 255l18 20l-69 59l-20 -21l26 -22l-57 -66l20 -19l60 70zM257 411l83 -10h6q1 0 2 1t3 1l11 8l-45 77 l-23 -14l26 -44l-83 9q-1 0 -4.5 -0.5t-7.5 -3.5l-10 -5l45 -79l22 15zM357 303l22 18l-27 30l14 12l31 -39l20 17l-48 60l-90 -75l51 -58l19 18l-32 37l17 11zM191 741l50 4q1 -2 3.5 -4t4.5 -5q2 -1 3.5 -4t1.5 -6q1 -6 3 -11q0 -4 1 -6.5t1 -4.5q0 -8 -1 -14t-3 -11 q-1 -8 -4.5 -13t-6.5 -10q-7 -8 -19 -12q-11 -8 -23 -8h-17q-4 3 -7.5 4t-7.5 4q-4 1 -6.5 3t-6.5 4q-2 3 -5 6t-5 7q-2 2 -3.5 5.5t-3.5 6.5q-1 5 -2 9.5t-1 9.5v6.5v4.5q3 9 3 14q2 3 3.5 5.5t3.5 5.5q2 2 3.5 5t3.5 5l3 -5q3 0 4 -1l1 -1q2 -3 2 -8v-3t-2 -3 q-5 -5 -5 -11v-13t3 -17q2 -4 4.5 -7t5.5 -6q5 -5 14 -7q7 -4 17 -3q6 0 11 3q3 1 5 1.5t4 3.5q1 2 3.5 3t5.5 4q1 2 2.5 3.5t3.5 4.5q0 4 0.5 6.5t2.5 5.5q1 4 1 10q-1 4 -2 7t-2 8q0 3 -5 10l-19 -1v-5v-5q0 -2 -2 -5q-1 -1 -2 -2.5t-2 -1.5q-2 -1 -6 -1h-6zM264 831 l-9 -75l-118 12l8 75l19 -2l-7 -55l30 -5l5 47l20 -2l-5 -45l32 -3l5 57zM164 851l-17 5l22 90l18 -5l-10 -37l98 -23l-4 -18l-97 23zM205 988l-18 8l42 83l16 -8l-15 -32l89 -45l-8 -18l-90 45zM392 1106l-11 -16l-40 30l-35 -47l41 -30l-11 -15l-97 70l11 15l40 -29l35 47 l-40 30l11 15zM456 1166l-54 -51l-83 86l53 53l14 -15l-39 -39l20 -21l33 31l12 -14l-31 -30l21 -23l40 38zM514 1290l10 -17l-39 -24l24 -43l-14 -10l-63 100l63 40l9 -15l-47 -30l18 -26zM562 1290q0 -7 5 -10q2 -4 10 -7q2 -2 5 -2h5q5 0 10 2q8 3 10 7q5 5 7 10 q1 1 1 10q0 6 -1 11l-27 67l17 8l28 -68q2 -5 2.5 -9t0.5 -9q0 -10 -3 -19q-2 -5 -4.5 -8t-7.5 -7q-3 -5 -6 -6.5t-8 -3.5t-9.5 -3.5t-9.5 -1.5q-8 0 -18 5q-5 2 -8.5 3.5t-6.5 6.5q-7 7 -10 15l-30 67l18 8zM662 1276l-30 117l20 5l23 -97l49 10l3 -20zM731 1291l-12 120 l20 2l10 -98l51 5v-20zM864 1296l-19 4l12 118l44 -5q6 0 14 -4q9 -5 11 -10q4 -3 6 -13q4 -7 3 -15q-3 -3 -3 -6.5t-2 -8.5q-6 -8 -9 -11q-4 -4 -14 -7q-3 -2 -13 -2l-25 4zM895 1356h7q3 0 7 5q3 0 3 5q2 2 4 8q0 5 -1 7t-2 3.5l-1 1.5q-2 3 -3.5 4t-2.5 1q-2 2 -3.5 2 t-2.5 1l-25 2l-5 -38zM951 1285l-19 5l30 113l44 -12q6 0 11 -5l10 -10q4 -5 4 -13q1 -5 0.5 -8.5t-0.5 -6.5q-2 -5 -5 -10q-4 -5 -6 -7q-8 -5 -10 -5q-3 -2 -5.5 -2.5t-3.5 -2.5l21 -56l-15 1q-1 2 -3 3.5t-3 1.5q-4 2 -5 9l-19 46l-15 4zM977 1379l-10 -31l25 -7h3h2 q3 0 4 1t4 1q2 0 2 1.5v1.5q5 5 5 7v7v3t-1 3q-1 2 -2.5 2.5t-1.5 2.5q-3 3 -6 3zM1037 1321q0 5 2.5 8.5t6.5 6.5q1 3 4.5 5.5t6.5 4.5q3 3 6.5 4t8.5 3q4 3 14 3h15q9 -1 16 -6q8 -4 15 -9q3 -3 5.5 -6.5t4.5 -4.5l3.5 -7l3.5 -7q1 -5 2 -8t1 -7v-8t-2 -8q-1 -4 -2 -7.5 t-3 -7.5q-3 -4 -4 -7t-4 -7q-3 -3 -6.5 -5t-4.5 -6q-4 -2 -7 -4t-7 -5q-6 0 -16 -1q-12 0 -17 1q-5 0 -15 5q-12 5 -18 15q-9 9 -14 20q-1 7 -1 12v12q0 11 6 21zM1054 1315q-2 -4 -2.5 -6.5t-2.5 -5.5v-10q0 -2 1 -5t2 -5q0 -7 4 -10q1 -2 3 -4.5t3 -2.5q4 -5 10 -6 q7 -4 10 -4h12h12q4 5 8 5q3 2 5 3.5t3 3.5q3 3 4 5.5t3 4.5q2 3 2.5 7.5t0.5 9.5v7.5v7.5q-2 4 -4.5 7.5t-5.5 5.5q-6 7 -13 10q-2 2 -5 2.5t-7 0.5h-10q-6 0 -10 -1q-3 -2 -5 -3t-5 -1q-1 -2 -3 -4t-3 -4zM1222 1290l10 -9q0 -1 1.5 -3t3.5 -3q0 -5 -2 -9l-28 -85l83 38 q1 1 7 1q5 0 7 -4l10 -7l-117 -54l-15 11zM1279 1064l-47 56l90 76l49 -56l-14 -14l-37 44l-23 -19l29 -36l-16 -11l-28 35l-23 -21l35 -42zM1294 1039l-9 16l101 61l23 -37q2 -3 2.5 -6t2.5 -8q2 -7 -2 -12q-2 -9 -5 -13l-4.5 -4.5t-6.5 -5.5q-4 -1 -5.5 -1.5t-4.5 -2.5 q-4 0 -5.5 -0.5t-4.5 0.5q-4 0 -10 3q-4 1 -5.5 1.5t-3.5 3.5l-23 -59l-9 13q-4 2 -4 7q0 6 3 9l20 47l-8 13zM1381 1089l-29 -16l13 -19q2 -5 4 -6q1 0 6 -3h6q1 0 5 3q1 0 6 3q0 3 1 4t1 3q1 1 1 6q-1 1 -1 2.5t-2 3.5zM1436 969q1 1 1 7q0 4 -1 5q-2 3 -2 7q-3 0 -5 3 q-2 2 -5 2q-3 1 -5 0l-2.5 -2.5l-1.5 -1.5l-2 -2l-2 -2v-7v-10v-3v-2v-10q0 -2 -0.5 -4.5t-0.5 -4.5q-4 -14 -19 -21q-4 -2 -7.5 -3t-8.5 1q-6 0 -14 2q-4 3 -7 5t-5 6q-3 2 -5 5.5t-4 6.5q-3 10 -3 15q0 4 3 14q0 3 2 5l3 4q0 4 2 4q4 2 3 2l4 -2q3 -5 5 -7q0 -1 0.5 -2 t0.5 -3q0 -3 -3 -6v-1v-8q0 -5 2 -8q0 -2 1 -3t2 -4q2 0 3.5 -1.5l3.5 -3.5h2t4 -2h4.5t4.5 2q2 0 5 3q2 4 2 5q1 2 1 7v8v4v12q0 8 2 13q1 2 2 4.5t4 5.5q2 2 4.5 3.5t6.5 3.5q8 3 14 1q6 0 12 -3q3 -2 6.5 -3.5t5.5 -5.5q3 -3 6 -11q2 -7 2 -10q0 -7 -1 -10q0 -4 -4 -10 v-4.5t-2 -3.5l-6 4q-3 1 -4 2.5t-3 3.5q-1 3 -1 6v3zM1364 881l-5 18l113 34l5 -19zM1427 881h19q6 0 14 -5q4 0 7.5 -2.5t4.5 -4.5q4 -3 7 -5.5t6 -5.5q4 -8 7 -12q3 -8 5 -18v-15q-2 -10 -5 -15q-1 -5 -3 -8.5t-4 -6.5l-10 -10q-4 -4 -7.5 -5.5t-6.5 -2.5q-7 -4 -15 -4 q-10 -1 -19 0q-8 0 -15 4q-2 1 -6 2.5t-7 3.5q-3 3 -5.5 6.5t-4.5 5.5q-7 5 -8 15q-2 3 -3.5 6.5t-1.5 8.5q-1 13 1 23q5 13 10 20q7 10 18 17q5 3 11 5.5t11 2.5zM1430 861q-8 0 -10 -3q-5 -2 -10 -5q-4 -2 -6 -7q-5 -5 -5 -10q-2 -1 -2.5 -4t-1.5 -6v-10q2 -8 4 -11 q0 -6 5 -9q1 -3 3 -5t3 -5q2 0 4.5 -1.5t5.5 -3.5q2 -1 4.5 -1h5.5q5 -4 11 0q11 0 16 5q5 1 13 11q6 8 6 15q3 7 1 15q0 7 -2 10q-3 4 -3.5 6t-1.5 4q-3 2 -4.5 3.5l-3.5 3.5q-5 3 -10 5q-3 3 -11 3q-4 3 -11 0zM1377 645l2 16l96 60l-91 5l1 20l117 -10v-11q0 -5 -1 -9 q-4 -2 -4 -5l-81 -50l81 -6l-1 -19z" />
<glyph unicode="A" horiz-adv-x="1400" d="M1223 27q-20 48 -40 97l-40 98h-889l-79 -191q-14 -31 -39 -31q-34 0 -54 9.5t-20 22.5q0 9 4 17l584 1396q4 9 10 21t12.5 22.5t13.5 17.5t13 7q20 0 30 -22l602 -1444q2 -3 3 -9t1 -10q0 -11 -23 -19.5t-52 -8.5q-26 0 -37 27zM299 332h798l-364 878q-8 20 -16.5 40.5 t-17.5 40.5q-2 0 -2 -2z" />
<glyph unicode="B" horiz-adv-x="1365" d="M1188 1122q0 -102 -48 -175t-126 -125q55 -21 102.5 -58t83 -88t56 -116t20.5 -143q0 -90 -31.5 -166t-86.5 -131.5t-128 -87t-155 -32.5h-683q-14 1 -22 9t-9 20v1419q0 23 11 30t22 7h604q81 0 152.5 -26t124 -74t83 -115t30.5 -148zM271 749v-640h605q-1 0 -1 -1 q57 2 110 23t93 60t64 95.5t24 128.5t-25 133.5t-66 106t-94.5 69.5t-111.5 25h-598zM1079 1120q0 65 -26 113.5t-70.5 80.5t-104.5 47.5t-129 15.5h-478v-520h526q59 0 110.5 18.5t89.5 53t60 83t22 108.5z" />
<glyph unicode="C" horiz-adv-x="1414" d="M1323 1339q16 -12 16 -28q0 -9 -10 -22q-2 -2 -7 -9.5t-12.5 -16t-15.5 -15.5t-15 -7h-1h-3q-3 0 -8 1.5t-12 6.5q-86 66 -184.5 103.5t-210.5 37.5q-92 0 -176.5 -23.5t-158 -66.5t-133 -103t-102 -132.5t-65.5 -155t-23 -170.5q0 -90 23.5 -172.5t66.5 -154.5 t102.5 -131t131.5 -101t153.5 -65t169.5 -23q206 0 394 135l25 14q10 5 16 5q7 0 16.5 -8t18.5 -19.5t15 -24.5t6 -23q0 -9 -5 -15.5t-13 -13.5q-99 -77 -216.5 -119.5t-254.5 -42.5q-158 0 -296.5 59.5t-241.5 163t-162.5 242t-59.5 296.5q0 105 27 202t76.5 181.5 t119 154.5t154 119.5t182 77t202.5 27.5q134 0 252 -44t219 -120z" />
<glyph unicode="D" horiz-adv-x="1537" d="M163 1447q0 17 9 27t24 11h482q103 -1 197.5 -28t177 -75.5t150 -116t115 -150t74 -177.5t26.5 -198t-26.5 -197.5t-75 -177t-117 -150t-151.5 -115t-178.5 -74t-198.5 -26.5h-470q-13 0 -25.5 7t-12.5 24v1416zM668 108q90 0 173 23t154 65t129.5 100.5t99.5 129.5 t63.5 152.5t22.5 168.5q0 136 -51 251.5t-138.5 199.5t-203.5 131.5t-246 47.5h-397v-1269h394z" />
<glyph unicode="E" horiz-adv-x="1300" d="M1164 1485q38 0 38 -37v-35q0 -17 -9.5 -27t-28.5 -10h-891v-746h720q17 0 27.5 -9t10.5 -29v-36q0 -17 -10 -27t-28 -10h-720v-410h907q38 0 38 -37v-36q0 -36 -37 -36h-987q-17 0 -24.5 9.5t-7.5 25.5v1414q0 23 11.5 29.5t25.5 6.5h965z" />
<glyph unicode="F" horiz-adv-x="1245" d="M163 1449q0 36 36 36h956q18 0 28.5 -8.5t10.5 -28.5v-35q0 -17 -10.5 -27t-28.5 -10h-882v-747h714q17 0 27 -9t10 -29v-36q0 -17 -9.5 -27t-27.5 -10h-714v-483q0 -35 -38 -35h-36q-36 0 -36 35v1414z" />
<glyph unicode="G" horiz-adv-x="1454" d="M1313 635q35 0 37 -35v-426q-2 -22 -19 -30l-3 -3q-97 -77 -217.5 -119t-255.5 -42q-158 0 -296.5 59.5t-241.5 163t-162.5 242t-59.5 296.5q0 104 27 201.5t76.5 182t119 154t154 119.5t181.5 77.5t203 27.5q80 0 154.5 -16t144.5 -46q22 -10 54 -25.5t60.5 -34 t49 -37.5t20.5 -35q0 -8 -3.5 -20t-10 -23t-15.5 -19t-21 -8q-14 0 -27 11q-85 67 -186 103t-214 36q-92 0 -176.5 -24t-157.5 -67.5t-132.5 -103.5t-102 -132t-65.5 -154t-23 -169q0 -90 23.5 -172.5t65.5 -154.5t101.5 -131.5t131 -102t154 -65.5t170.5 -23 q105 0 202.5 35t186.5 92v308h-361q-18 0 -27.5 10t-9.5 27v36q0 37 37 37h434v0z" />
<glyph unicode="H" horiz-adv-x="1532" d="M1259 1449q0 17 9 26.5t27 9.5h35q17 0 28 -9.5t11 -26.5v-1413q0 -36 -39 -36h-35q-36 0 -36 36v483h-988v-483q0 -36 -38 -36h-35q-36 0 -36 36v1413q0 17 9 26.5t27 9.5h36q17 0 27 -9.5t10 -26.5v-819h988v819z" />
<glyph unicode="I" horiz-adv-x="429" d="M162 1449q0 17 9.5 26.5t27.5 9.5h36q17 0 27 -9.5t10 -26.5v-1413q0 -36 -37 -36h-36q-37 0 -37 36v1413z" />
<glyph unicode="J" horiz-adv-x="803" d="M29 97q-5 7 -5 14q0 8 8 18.5t18 19.5t19.5 15.5t13.5 6.5q8 -1 16 -2.5t14 -9.5q6 -7 21 -18.5t37.5 -23t53 -19.5t67.5 -8q52 0 95 19.5t74 51.5t48.5 73.5t19.5 86.5v1129q0 16 8 25.5t27 9.5h38q36 0 36 -36v-1130q0 -74 -27.5 -135.5t-74.5 -106t-109.5 -69.5 t-132.5 -25q-75 0 -143.5 23.5t-113.5 74.5q-8 10 -8 16z" />
<glyph unicode="K" horiz-adv-x="1391" d="M980 415q-57 94 -116.5 192.5t-117.5 195.5l-106 178q-66 -62 -129 -123.5t-129 -122.5l-109 -101v-596q0 -38 -39 -38h-36q-38 0 -38 38v1409q0 17 9.5 27.5t28.5 10.5h37q17 0 27.5 -10t10.5 -28v-653l691 660q13 13 25 19.5t25 9.5t28.5 3.5t35.5 0.5t36.5 -5.5 t16.5 -23.5q0 -8 -10 -17l-397 -377l603 -1011q5 -12 5 -25q0 -31 -53 -31q-14 0 -31 3.5t-24 8.5q-62 102 -122.5 202.5t-121.5 203.5z" />
<glyph unicode="L" horiz-adv-x="1105" d="M1011 109q17 0 27 -9t10 -28v-36q0 -17 -10 -26.5t-27 -9.5h-816q-17 0 -27 9t-10 27v1413q0 17 10 26.5t28 9.5h36q17 0 27 -9t10 -27v-1340h742z" />
<glyph unicode="M" horiz-adv-x="1793" d="M1498 1209q-144 -303 -285 -601t-285 -601q-3 -8 -10 -15.5t-20 -7.5q-18 0 -29 23l-570 1202l-104 -1172q0 -38 -37 -38h-42q-18 0 -27 11.5t-9 28.5l132 1448q2 14 9 26t25 12t27 -19l625 -1301q0 -1 0.5 -1.5t0.5 -1.5v3q10 22 20 44.5t21 44.5l584 1212q9 19 28 19 q17 0 24 -12t9 -26l135 -1451q0 -36 -36 -36h-42q-20 0 -29.5 10.5t-9.5 28.5z" />
<glyph unicode="N" horiz-adv-x="1552" d="M271 1273v-1237q0 -36 -37 -36h-35q-37 0 -37 36v1449q0 11 4.5 22.5t21.5 11.5q14 0 25 -11q268 -327 533.5 -650.5t533.5 -650.5v1242q0 36 37 36h36q36 0 36 -36v-1457q-1 -10 -6 -20.5t-22 -10.5t-27 13z" />
<glyph unicode="O" horiz-adv-x="1701" d="M79 741q0 105 27 202.5t76.5 182t119 154t154 119t182 77t202.5 27.5t202.5 -27.5t182 -77t154 -119t119 -154t77 -182t27.5 -202.5t-27.5 -202t-77 -181.5t-119 -154t-154 -119t-182 -76.5t-202.5 -27t-202.5 27t-182 76.5t-154 119t-119 154t-76.5 181.5t-27 202z M190 741q0 -134 51 -252.5t139.5 -206.5t207 -139t252.5 -51q89 0 172.5 23t155.5 65.5t131.5 102t102 131.5t66 154.5t23.5 172.5q0 134 -51.5 252.5t-140 207t-207 140t-252.5 51.5q-90 0 -172.5 -23.5t-155 -66t-132 -102t-101.5 -131.5t-65.5 -155.5t-23.5 -172.5z" />
<glyph unicode="P" horiz-adv-x="1233" d="M551 1485q133 0 241.5 -49.5t186 -131.5t119.5 -187.5t42 -217.5q0 -110 -41.5 -215t-118 -188t-185.5 -133.5t-244 -50.5h-281v-276q0 -36 -36 -36h-37q-36 0 -36 36v1412q0 31 27 34l6 3h357zM270 422h282q110 0 199 41t151.5 108t96.5 153t34 175q0 90 -34 176 t-97 153.5t-153.5 108.5t-204.5 41h-274v-956z" />
<glyph unicode="Q" horiz-adv-x="1701" d="M79 741q0 105 27 202.5t76.5 182t119 154t154 119t182 77t202.5 27.5t202 -27.5t181.5 -77t154 -119t119 -154t77 -182t27.5 -202.5q0 -101 -25 -194.5t-70.5 -175t-110 -150t-143 -118.5t-169.5 -81t-189 -37v-235q-2 -37 -37 -37h-36q-36 0 -36 38v234 q-149 10 -277.5 72.5t-224 164t-150 235t-54.5 284.5zM190 741q0 -134 51 -252.5t139.5 -206.5t206.5 -139t253 -51q89 0 172 23t155 65.5t131.5 102t102 131.5t66 154.5t23.5 172.5q0 134 -51.5 252.5t-140 207t-206.5 140t-252 51.5q-90 0 -173 -23.5t-155 -66 t-131.5 -102t-102 -131.5t-65.5 -155.5t-23 -172.5z" />
<glyph unicode="R" horiz-adv-x="1402" d="M1253 924q0 -70 -17 -138t-50 -129t-81 -113.5t-110 -90.5l192 -406q1 -2 2 -8t1 -10q0 -11 -7.5 -20t-21.5 -9h-59q-19 0 -29 21l-180 381q-93 -37 -212 -37h-408v-327q0 -38 -39 -38h-37q-38 0 -38 38v1406q0 17 10.5 28.5t24.5 12.5h487q132 0 238 -47t180.5 -125.5 t114 -179.5t39.5 -209zM681 479q109 0 194 37.5t143.5 100t89.5 142.5t31 165t-31 165.5t-89.5 143.5t-143.5 101t-194 38h-408v-893h408z" />
<glyph unicode="S" horiz-adv-x="1173" d="M116 282q8 10 21 21.5t28 11.5q5 0 18.5 -5t19.5 -13q37 -51 77 -91t87.5 -67t104 -41t127.5 -14q77 0 145 18t119 55.5t81 96t30 138.5q0 62 -25 107.5t-68 81t-100.5 62.5t-121.5 53q-100 40 -186.5 77t-150.5 85.5t-100.5 114.5t-36.5 163q0 89 31 160t85.5 120 t129.5 75t162 26q58 0 113.5 -12.5t106 -36.5t94 -59t78.5 -80q5 -7 7 -11.5t2 -12.5q0 -3 -6 -9t-14 -13.5t-17.5 -15t-15.5 -12.5q-11 -8 -20 -5.5t-16 9.5q-61 67 -135 106t-177 39q-67 0 -122 -20t-94.5 -55.5t-61 -84.5t-21.5 -108q0 -70 31.5 -118t88.5 -85t135.5 -69 t171.5 -70q82 -34 149.5 -71.5t115 -84.5t73.5 -107t26 -139q0 -103 -38 -181.5t-103.5 -132t-154 -80.5t-188.5 -27q-151 0 -274.5 61.5t-214.5 201.5q-5 7 -7.5 13t-2.5 14q0 13 14 21z" />
<glyph unicode="T" horiz-adv-x="1119" d="M1036 1485q17 0 28 -8.5t11 -27.5v-35q0 -17 -10 -27.5t-29 -10.5h-422v-1340q0 -36 -37 -36h-36q-36 0 -36 36v1340h-436q-37 0 -37 38v35q0 36 37 36h967z" />
<glyph unicode="U" horiz-adv-x="1469" d="M221 592q0 -106 37.5 -199t104 -162t158 -108.5t199.5 -39.5q110 0 202 39.5t158 108.5t102.5 162t36.5 199v857q0 17 10.5 26.5t27.5 9.5h33q17 0 28.5 -9.5t11.5 -26.5v-869q-1 -132 -49 -242.5t-130.5 -191t-193.5 -125.5t-237 -45q-84 0 -162 21.5t-145.5 61.5 t-123 95t-95 123t-61.5 145.5t-22 161.5v865q0 15 9 25.5t26 10.5h38q15 0 26 -9.5t11 -26.5v-857z" />
<glyph unicode="V" horiz-adv-x="1383" d="M157 1461q119 -293 237 -582t238 -582q12 -29 24.5 -60t25.5 -60l524 1280q7 27 29 27q8 0 14.5 -2.5t11.5 -5.5l37 -3q19 -2 19 -18q0 -6 -3 -14.5t-3 -9.5l-578 -1402q-8 -17 -16 -32.5t-17 -29.5q-1 0 -1.5 0.5t-1.5 0.5q-5 0 -9.5 -6t-13.5 -6q-8 0 -13.5 6.5 t-9.5 15.5q-152 367 -301 731t-301 732l-2 6q-1 2 -1 4.5t-1 4.5q0 14 22.5 23t53.5 9q13 0 22 -7.5t14 -19.5z" />
<glyph unicode="W" horiz-adv-x="2113" d="M158 1461q120 -295 238.5 -586.5t239.5 -586.5q11 -27 22.5 -55.5t23.5 -55.5l43 105q61 149 119.5 297.5t121.5 297.5l39 93l192 487q7 27 29 27q8 0 14.5 -2.5t11.5 -5.5l37 -3q10 -1 15 -4t5 -11q-1 -5 -2 -10.5t-3 -10.5l-190 -477l274 -677q11 -26 21.5 -53 t21.5 -53q12 27 23.5 54.5t23.5 56.5l477 1169q12 31 39 31h37q18 0 27.5 -7.5t9.5 -19.5q0 -15 -4 -23l-604 -1463q-4 -7 -9.5 -13.5t-16.5 -6.5q-8 0 -15.5 7t-15 18t-14 24.5t-10.5 26.5l-324 792l-345 -848q-3 -8 -9 -14t-17 -6q-8 0 -16 7.5t-15.5 19t-13.5 25 t-10 26.5l-581 1414q-1 3 -1.5 5t-0.5 4q0 8 7 13.5t18 9t24.5 5t25.5 1.5q25 0 37 -24z" />
<glyph unicode="X" horiz-adv-x="1210" d="M96 0q-16 0 -31.5 3.5t-15.5 18.5q0 10 7 20q119 177 237.5 350.5t238.5 349.5l-462 686q-6 8 -11.5 18t-5.5 18q0 9 6 13.5t15 7t20 3t22 0.5q17 0 33.5 -5t29.5 -23q16 -23 32.5 -47.5t36.5 -55t46.5 -69.5t62.5 -92.5t82.5 -123t108.5 -160.5l52 -76l422 624 q12 18 28.5 22.5t34.5 4.5q24 0 43 -3t19 -20q0 -8 -5.5 -18t-10.5 -18l-464 -686l478 -700q6 -9 6 -17q0 -17 -17.5 -21t-33.5 -4h-33t-20 2.5t-13.5 7.5t-12.5 15l-395 585q-7 10 -13.5 19.5t-12.5 19.5l-1 -1l-420 -623q-7 -10 -13 -15t-15 -7.5t-22 -2.5h-33z" />
<glyph unicode="Y" horiz-adv-x="1228" d="M68 1437q-9 13 -9 24t10 18.5t22 7.5t24.5 1t25 -0.5t24 -8t20.5 -21.5l40 -66q96 -164 191.5 -325.5t192.5 -324.5q103 174 204.5 344.5t204.5 343.5q7 12 12.5 22.5t13.5 18t20.5 12t35.5 4.5h21t19.5 -2t14 -6.5t5.5 -14.5q0 -4 -1.5 -10t-6.5 -13 q-123 -202 -243 -406t-244 -406v-592q0 -37 -36 -37h-38q-36 0 -36 37v588z" />
<glyph unicode="Z" horiz-adv-x="1205" d="M73 0q-11 0 -23 5t-12 22q0 7 4 14t9 13q226 333 450.5 661t451.5 661h-787q-39 0 -39 38v35q0 36 39 36h927q10 0 21.5 -5t12.5 -23q0 -7 -4 -13.5t-9 -12.5l-898 -1322h895q37 0 37 -37v-35q0 -17 -10 -27t-27 -10h-1038z" />
<glyph unicode="[" horiz-adv-x="497" d="M160 1695q0 15 9 24t24 9h267q15 0 24.5 -9t9.5 -24v-48q0 -35 -34 -35h-184v-1754h184q14 0 24 -9t10 -25v-48q-1 -33 -34 -33h-267q-15 0 -24 8t-9 25v1919z" />
<glyph unicode="\" horiz-adv-x="930" d="M829 42q5 -15 5 -21q0 -21 -29 -21h-42q-34 0 -48 31l-546 1401q-9 22 -8 33q0 11 9 15.5t30 4.5h29q24 0 37 -8t24 -36z" />
<glyph unicode="]" horiz-adv-x="497" d="M337 -227q0 -34 -33 -34h-265q-32 0 -35 34v48q0 15 10.5 24.5t24.5 9.5h183v1753h-183q-35 0 -35 36v47q0 15 10 24t25 9h265q33 0 33 -33v-1918z" />
<glyph unicode="^" horiz-adv-x="977" d="M467 1647q3 3 9.5 6.5t11.5 3.5q6 -1 11.5 -4.5t9.5 -6.5q73 -73 145 -145.5t145 -144.5l24 -26q7 -9 7 -17q-1 -8 -5 -13t-9 -10l-29 -28q-5 -5 -12 -8.5t-15 -3.5t-20 10l-251 254l-251 -255q-9 -9 -19 -9q-15 0 -29 12l-35 34q-6 7 -6 17q0 7 4.5 13t8.5 11z" />
<glyph unicode="_" horiz-adv-x="903" d="M895 -121q17 0 27 -9t10 -27v-42q0 -17 -10 -27.5t-27 -10.5h-871q-37 0 -37 38v42q0 36 37 36h871z" />
<glyph unicode="`" horiz-adv-x="517" d="M352 1214q5 -13 5 -20q0 -18 -26 -18h-41q-17 0 -30 7.5t-23 30.5l-100 234q-5 12 -5 18q0 18 26 18h42q37 0 52 -36z" />
<glyph unicode="a" horiz-adv-x="1188" d="M1044 34q0 -17 -11 -26.5t-30 -9.5h-32q-40 0 -40 40v174q-18 -56 -53 -99.5t-82.5 -73.5t-105.5 -46t-123 -16q-102 0 -190 40t-152.5 109t-101.5 162t-37 199t36.5 199.5t101 163.5t152.5 110t191 40q66 0 125.5 -17t107.5 -48t82 -73.5t49 -93.5l4 171q1 20 10 30.5 t29 10.5h29q18 0 29.5 -10.5t11.5 -30.5v-905zM930 486q0 82 -26.5 155t-74.5 128t-115 87t-147 32q-81 0 -148.5 -32t-116 -86.5t-76 -127.5t-27.5 -155t27.5 -154.5t76.5 -126.5t116.5 -85.5t147.5 -31.5q79 0 146 31t115 84.5t75 126t27 155.5z" />
<glyph unicode="b" horiz-adv-x="1195" d="M157 1445q0 18 11.5 28.5t32.5 10.5h29q21 0 32 -10.5t11 -28.5v-676q23 48 57 90t79 73.5t102.5 49.5t126.5 18q98 0 183.5 -40t149.5 -109.5t100.5 -162.5t36.5 -199q0 -107 -36.5 -200t-100.5 -162t-149.5 -109t-183.5 -40q-88 0 -151 21t-106.5 51t-69 62t-38.5 55 v-125q0 -41 -44 -41h-30q-42 0 -42 41v1403zM266 488q0 -82 29 -155t79 -127.5t116 -86t140 -31.5t140 31.5t115.5 86t78 127.5t28.5 155t-28.5 155t-78 127.5t-115.5 86t-140 31.5t-140 -31.5t-116 -86t-79 -127.5t-29 -155z" />
<glyph unicode="c" horiz-adv-x="1016" d="M855 213q16 14 29 14q6 0 13 -3t13 -11l26 -34q8 -11 8 -19q1 -8 -6 -16.5t-21 -22.5q-70 -66 -155.5 -104.5t-188.5 -38.5q-107 0 -197 40t-156 110t-103 163t-37 200q0 106 37 199.5t103 163t156 109.5t197 40q97 0 180 -33.5t151 -93.5q11 -8 21 -19.5t10 -23.5 t-9 -22l-21 -27q-9 -11 -15.5 -16.5t-14.5 -5.5q-13 0 -28 15q-54 53 -122.5 83.5t-149.5 30.5q-83 0 -152.5 -31.5t-120 -86t-79 -127.5t-28.5 -155q0 -83 28.5 -155.5t79 -127.5t120 -86.5t152.5 -31.5q40 0 78.5 9.5t74.5 26.5t68 39t59 48z" />
<glyph unicode="d" horiz-adv-x="1228" d="M1036 42q0 -41 -42 -41h-30q-44 0 -44 41v125q-13 -23 -38.5 -55t-69 -62t-106.5 -51t-151 -21q-98 0 -183.5 40t-149.5 109t-100.5 162t-36.5 200q0 106 36.5 199t100.5 162.5t149.5 109.5t183.5 40q69 0 126.5 -18t102.5 -49.5t79 -73.5t57 -90v676q0 18 11 28.5 t32 10.5h29q21 0 32.5 -10.5t11.5 -28.5v-1403zM927 488q0 82 -29 155t-79 127.5t-116 86t-140 31.5t-140 -31.5t-115.5 -86t-78 -127.5t-28.5 -155t28.5 -155t78 -127.5t115.5 -86t140 -31.5t140 31.5t116 86t79 127.5t29 155z" />
<glyph unicode="e" horiz-adv-x="1148" d="M599 87q66 0 127 19.5t112 57.5q13 10 29 22t27 14q8 0 17 -8t17 -19.5t13.5 -25.5t5.5 -26q-9 -15 -23.5 -28t-28.5 -23q-63 -43 -136 -67.5t-158 -24.5q-106 0 -199.5 40t-163 109t-109.5 162t-40 199t39 199.5t106 163t156.5 109.5t191.5 40q98 0 184.5 -38 t151.5 -105t103 -158.5t38 -197.5q0 -32 -19 -41.5t-48 -9.5h-790q6 -77 39.5 -143.5t87 -115t123 -76.5t147.5 -28zM949 549q-8 71 -39.5 133.5t-81 108.5t-113 72.5t-134.5 26.5t-135 -26t-114.5 -72t-84.5 -108.5t-45 -134.5h747z" />
<glyph unicode="f" horiz-adv-x="617" d="M521 1488q41 -3 41 -41v-30q0 -19 -11.5 -29t-26.5 -10h-6q-43 0 -78.5 -7t-60.5 -29t-38.5 -62.5t-13.5 -107.5v-192h174q17 0 28 -9.5t11 -30.5v-23q0 -20 -11 -31.5t-28 -11.5h-174v-837q0 -19 -12 -29t-29 -10h-33q-19 0 -28.5 11t-9.5 28v837h-122q-18 0 -28 11.5 t-10 31.5v23q0 40 38 40h122v197q0 149 69.5 230.5t200.5 81.5h18t18 -1z" />
<glyph unicode="g" horiz-adv-x="1190" d="M1054 214v-3v-49v-24t-1 -24q0 -129 -39.5 -224.5t-105.5 -158.5t-153 -94.5t-181 -31.5q-78 0 -140 19t-120 51h1q-13 7 -19 12.5t-6 14.5q0 5 6 15t13.5 21t14.5 20.5t9 12.5q6 9 13.5 11t16.5 0t19 -7.5t22 -10.5q38 -17 80.5 -29t84.5 -12q70 0 136.5 24t118 71.5 t82.5 118.5t31 164v100q-20 -53 -56.5 -95t-85.5 -70.5t-107 -43.5t-121 -15q-102 0 -190 40t-152.5 109t-101.5 162t-37 199t36.5 199.5t101 163.5t152.5 110t191 40q66 0 127 -17t110.5 -48t85.5 -73.5t51 -93.5l4 171q1 20 10 30.5t29 10.5h29q18 0 29.5 -10.5 t11.5 -30.5v-725zM940 486q0 82 -28 155t-78 128t-118.5 87t-148.5 32q-81 0 -148.5 -32t-116 -86.5t-76 -127.5t-27.5 -155t27.5 -154.5t76.5 -126.5t116.5 -85.5t147.5 -31.5q79 0 147.5 31t118.5 84.5t78.5 126t28.5 155.5z" />
<glyph unicode="h" horiz-adv-x="1099" d="M152 1447q0 37 37 37h31q15 0 23.5 -8.5t13 -22.5t5.5 -32.5t1 -37.5v-48v-511q23 39 56.5 71.5t75 56t89 36.5t98.5 13q85 0 158 -32.5t126.5 -88.5t83.5 -131.5t30 -161.5v-549q0 -20 -10.5 -29.5t-27.5 -9.5h-35q-21 0 -29 9t-8 29v553q-4 62 -26.5 117t-61.5 96 t-93.5 64.5t-122.5 23.5q-61 0 -115.5 -22.5t-96 -62t-66 -93t-25.5 -114.5v-564q0 -18 -10.5 -27t-27.5 -9h-35q-38 0 -38 36v1412z" />
<glyph unicode="i" horiz-adv-x="429" d="M160 943q0 17 10.5 27t27.5 10h36q18 0 27.5 -10t9.5 -27v-907q0 -36 -37 -36h-35q-39 0 -39 36v907zM130 1274q0 36 25.5 61.5t61.5 25.5t61.5 -25.5t25.5 -61.5t-25.5 -61.5t-61.5 -25.5t-61.5 25.5t-25.5 61.5z" />
<glyph unicode="j" horiz-adv-x="459" d="M147 1274q0 36 25.5 61.5t61.5 25.5t61.5 -25.5t25.5 -61.5t-25.5 -61.5t-61.5 -25.5t-61.5 25.5t-25.5 61.5zM-9 -352q-49 3 -49 41v30q0 20 13 29t27 9h11q42 0 76 10t58 33.5t37 63t13 99.5v977q0 19 11.5 29.5t28.5 10.5h32q20 0 29.5 -11t9.5 -29v-981 q-1 -61 -18 -117t-50 -99.5t-83 -69.5t-117 -26h-14.5t-14.5 1z" />
<glyph unicode="k" horiz-adv-x="1065" d="M541 662l460 -611q6 -8 8.5 -17.5t2.5 -12.5q0 -8 -9 -14.5t-22 -6.5q-17 0 -34 1.5t-34 3.5q-5 0 -11.5 5t-13 12.5t-13.5 16t-12 15.5l-396 532l-204 -198v-352q0 -36 -39 -36h-36q-36 0 -36 36v1411q0 37 37 37h31q18 0 27 -12.5t12.5 -32.5t3.5 -44.5v-49.5v-811 q109 107 217 213t217 212q6 7 18 11.5t26.5 6.5t29 3t26.5 1q15 0 23 -13t8 -19q0 -10 -7 -17z" />
<glyph unicode="l" horiz-adv-x="431" d="M160 1449q0 17 10.5 26.5t27.5 9.5h31q18 0 26.5 -9.5t10.5 -26.5q2 -25 3.5 -54t1.5 -59v-1300q0 -36 -37 -36h-35q-39 0 -39 36v1413z" />
<glyph unicode="m" horiz-adv-x="1691" d="M275 36q0 -36 -37 -36h-41q-38 0 -38 36v916q0 14 8 23t23 9h59q21 0 23 -22l3 -119q22 31 49.5 58.5t61.5 47.5t73.5 32t85.5 12q57 0 107 -15.5t91.5 -43t73.5 -65t53 -82.5q21 46 52 84.5t70.5 66t87.5 42.5t103 15q71 0 132.5 -25t109 -68.5t77.5 -102.5t38 -128 q6 -53 6 -105v-526q0 -20 -11 -30t-29 -10h-36q-41 0 -41 39v580q-1 54 -19.5 102t-51.5 83t-79 55.5t-100 20.5q-47 0 -90 -16t-77.5 -44t-58 -67t-32.5 -84q-5 -24 -8 -49t-3 -51v-529q0 -40 -38 -40h-40q-38 0 -38 39v583q-1 54 -21.5 101t-55 82t-80.5 55t-100 20 t-102 -20.5t-83.5 -56.5t-56 -84t-20.5 -103v-580z" />
<glyph unicode="n" horiz-adv-x="1099" d="M268 36q0 -36 -37 -36h-41q-38 0 -38 36v916q0 14 8 23t23 9h59q9 0 15.5 -6t7.5 -16l3 -136q25 37 59 69t75 55.5t87.5 37t97.5 13.5q86 0 159.5 -32t127.5 -88t85 -131.5t31 -161.5v-548q0 -20 -10.5 -30t-28.5 -10h-41q-20 0 -28 9.5t-8 29.5v551q-1 62 -25 116 t-64.5 94t-94.5 63t-115 23q-60 0 -114.5 -22t-96.5 -60.5t-67.5 -91t-28.5 -113.5v-563z" />
<glyph unicode="o" horiz-adv-x="1201" d="M89 488q0 106 40 199.5t109 163t162 109.5t199 40t199.5 -40t163 -109.5t109.5 -163t40 -199.5t-40 -199t-109.5 -162.5t-163 -109.5t-199.5 -40t-199 40t-162 109.5t-109 162.5t-40 199zM199 488q0 -83 32 -155.5t86.5 -127.5t127.5 -86.5t156 -31.5q82 0 155.5 31.5 t128 86.5t86.5 127.5t32 155.5t-32 156.5t-86.5 128t-128 86.5t-155.5 32q-83 0 -156 -32t-127.5 -86.5t-86.5 -128t-32 -156.5z" />
<glyph unicode="p" horiz-adv-x="1182" d="M147 945q0 41 42 41h30q44 0 44 -41v-125q13 22 38.5 54.5t69 62.5t106.5 51t151 21q98 0 183.5 -40t149.5 -109t100.5 -162.5t36.5 -199.5t-36.5 -199t-100.5 -162.5t-149.5 -109.5t-183.5 -40q-69 0 -126.5 18t-102.5 49.5t-79 73.5t-57 90v-567q0 -18 -11 -28.5 t-32 -10.5h-29q-21 0 -32.5 10.5t-11.5 28.5v1294zM256 499q0 -82 29 -155t79 -127.5t116 -86t140 -31.5t140 31.5t115.5 86t78 127.5t28.5 155t-28.5 155t-78 127.5t-115.5 86t-140 31.5t-140 -31.5t-116 -86t-79 -127.5t-29 -155z" />
<glyph unicode="q" horiz-adv-x="1176" d="M1036 -349q0 -18 -11.5 -28.5t-32.5 -10.5h-29q-21 0 -32 10.5t-11 28.5v567q-23 -48 -57 -90t-79 -73.5t-102.5 -49.5t-126.5 -18q-98 0 -183.5 40t-149.5 109.5t-100.5 162.5t-36.5 199t36.5 199.5t100.5 162.5t149.5 109t183.5 40q88 0 151 -21t106.5 -51t69 -62.5 t38.5 -54.5v125q0 41 44 41h30q42 0 42 -41v-1294zM927 499q0 82 -29 155t-79 127.5t-116 86t-140 31.5t-140 -31.5t-115.5 -86t-78 -127.5t-28.5 -155t28.5 -155t78 -127.5t115.5 -86t140 -31.5t140 31.5t116 86t79 127.5t29 155z" />
<glyph unicode="r" horiz-adv-x="803" d="M152 935q0 46 44 46h22q49 0 49 -46v-40v-64q14 36 39.5 66.5t59 52t75 33.5t88.5 12q30 0 67 -8t69.5 -21t54.5 -29.5t22 -33.5q0 -10 -6 -23t-14.5 -25t-17.5 -20t-15 -8q-8 0 -12.5 0.5t-10.5 4.5q-29 18 -67 33t-77 15q-56 0 -102.5 -25.5t-80 -68t-53 -97 t-19.5 -112.5l1 -541q0 -36 -37 -36h-9h-32q-38 0 -38 36v10v889z" />
<glyph unicode="s" horiz-adv-x="848" d="M626 780q-32 52 -86 85t-123 33q-43 0 -79 -12t-62 -34t-40.5 -52.5t-14.5 -67.5q0 -36 18.5 -63.5t46.5 -47t61.5 -32.5t63.5 -21l30 -8q73 -20 131.5 -49t99.5 -66.5t63 -83.5t22 -99q0 -68 -28 -121t-75.5 -89t-110 -54.5t-131.5 -18.5q-57 0 -109.5 13t-97 38.5 t-77 64t-48.5 88.5q-3 7 -3 13q0 8 6.5 17.5t17.5 14.5l38 17q9 3 15 3q10 0 17 -6t12 -15l5 -10q16 -32 42.5 -57t58 -42t64 -25.5t59.5 -8.5q36 0 77 10.5t76 32t58 54.5t23 79q0 43 -23 75.5t-59 56t-80 39.5t-86 26q-52 15 -103.5 40t-92 59.5t-65.5 78.5t-25 96 q0 61 22 111t61.5 86t96 55.5t125.5 19.5q100 0 180.5 -43t132.5 -134q5 -12 5 -20q0 -7 -4 -14.5t-12 -12.5l-35 -21q-14 -9 -24 -9q-11 0 -16 6t-13 17l-6 8h1z" />
<glyph unicode="t" horiz-adv-x="623" d="M506 102q17 0 29.5 -9.5t12.5 -29.5v-33q0 -23 -13.5 -31t-33.5 -8h-30q-51 0 -95 6.5t-76 30.5t-50.5 71.5t-18.5 129.5v643h-138q-20 0 -29.5 8t-9.5 28v37q0 20 9.5 28t29.5 8h138v295q0 30 33 35l50 7q20 0 27 -12t7 -30v-295h173q18 0 28.5 -9t10.5 -29v-33 q0 -20 -10.5 -29t-28.5 -9h-173v-616q0 -53 7 -82.5t22 -44.5t37.5 -19.5t54.5 -7.5h37z" />
<glyph unicode="u" horiz-adv-x="1110" d="M946 37q0 -17 -10.5 -27t-27.5 -10h-31q-18 0 -27 10t-10 27q-2 29 -3 58l-2 58q-24 -39 -57.5 -71t-75 -55.5t-88.5 -36.5t-98 -13q-86 0 -159 32t-126 87.5t-83.5 131t-30.5 161.5v551q0 19 11 29.5t28 10.5h35q21 0 29 -10t8 -29v-556q1 -63 23.5 -117.5t62.5 -95 t95.5 -63.5t121.5 -23q62 0 117.5 23t97 63.5t65.5 94.5t24 117v559q0 37 37 37h35q39 0 39 -37v-906z" />
<glyph unicode="v" horiz-adv-x="978" d="M443 274q8 -18 15.5 -37t15.5 -37l16 36t16 38q70 170 139.5 337.5t140.5 337.5q9 22 30 26.5t43 4.5q20 0 30.5 -10t10.5 -24q0 -7 -3 -14l-394 -937q-2 -6 -10.5 -15.5t-19.5 -9.5q-8 0 -14.5 6t-15.5 22l-392 934q-1 2 -2 7.5t-1 8.5q0 14 10 23t27 9h21.5t22 -2.5 t19.5 -8t14 -16.5z" />
<glyph unicode="w" horiz-adv-x="1500" d="M433 281q8 -20 17 -40.5t18 -40.5l36 84q57 132 108.5 264.5t110.5 263.5h-1l58 137q9 21 27.5 26t40.5 5q21 0 33.5 -8.5t12.5 -24.5q0 -8 -3 -15q-23 -52 -44.5 -103.5t-43.5 -103.5l183 -441q8 -20 17 -41.5t19 -42.5l35 80q69 168 138.5 334.5t139.5 334.5 q7 16 31.5 23.5t45.5 7.5q17 0 27 -10t10 -22q0 -7 -3 -16q-100 -235 -197 -468.5t-197 -468.5q-4 -8 -10.5 -14.5t-16.5 -6.5q-11 0 -19 14h-2q-8 8 -14.5 18.5t-11.5 24.5l-233 555l-249 -591q-3 -7 -9.5 -14t-17.5 -7h-3q-11 0 -18 7t-11 17l-392 934q-2 2 -3 8t-1 10 q0 12 10 21t27 9h37q14 0 24 -7.5t15 -19.5z" />
<glyph unicode="x" horiz-adv-x="897" d="M444 406l-248 -370q-16 -23 -33 -29.5t-37 -6.5q-26 0 -44 3t-18 24q0 5 1 11.5t5 10.5l309 453q-44 64 -80.5 117.5t-70 103t-68 100t-73.5 108.5q-3 3 -5 11.5t-2 13.5q0 17 15.5 21t50.5 4q17 0 33.5 -5t28.5 -23l20 -30q58 -87 110.5 -166t105.5 -157 q53 78 105.5 157t110.5 166q18 27 36 48q10 7 29 8.5t37 1.5q25 0 36 -5t11 -19q0 -5 -2 -12.5t-4 -13.5q-40 -59 -74.5 -109t-68 -99.5t-70 -102.5t-80.5 -118q78 -114 155 -226.5t155 -226.5q2 -4 3.5 -11.5t1.5 -12.5q0 -20 -18 -23t-42 -3q-21 0 -38.5 6.5t-33.5 30.5z " />
<glyph unicode="y" horiz-adv-x="979" d="M386 -363q-16 -29 -53 -29h-32q-22 0 -31.5 13t-1.5 36l156 372l-376 904q-10 26 -1 38t32 12h42q18 0 26 -9t16 -24l328 -785l320 790q15 28 53 28h32q22 0 31.5 -12.5t1.5 -35.5z" />
<glyph unicode="z" horiz-adv-x="955" d="M80 0q-12 0 -23 6.5t-11 23.5q0 6 3.5 12t8.5 14l624 812h-544q-39 0 -39 39v36q0 37 39 37h696q9 0 24 -5t15 -23q0 -7 -4 -13.5t-9 -14.5l-624 -814h621q37 0 37 -38v-34q0 -16 -10 -27t-27 -11h-777z" />
<glyph unicode="{" horiz-adv-x="600" d="M612 1731q19 0 31.5 -11t12.5 -33v-26q0 -20 -12 -32t-32 -12q-44 -7 -81.5 -28t-65 -52t-43.5 -71t-16 -84v-500q0 -17 -5.5 -36.5t-16.5 -40t-27.5 -40t-38.5 -35.5q42 -26 65 -67.5t23 -79.5v-508q0 -46 16 -86.5t43.5 -72t65 -52t81.5 -27.5q19 0 31.5 -11t12.5 -33 v-26q0 -20 -12 -32t-32 -12q-68 6 -126.5 35.5t-101.5 76t-68 108t-25 132.5v464q0 23 -12 47t-31.5 43.5t-43.5 31.5t-47 12h-22q-20 0 -32 12t-12 32v27q0 21 13 32.5t31 11.5h18q29 0 54 11t44 30t29.5 44.5t10.5 54.5v454q0 69 25 130t68 107.5t101.5 76t126.5 35.5z " />
<glyph unicode="|" horiz-adv-x="502" d="M160 1514q0 18 11 31t33 13h24q18 0 32 -12t14 -32v-1923q0 -46 -46 -46h-24q-44 0 -44 46v1923z" />
<glyph unicode="}" horiz-adv-x="600" d="M15 1731q68 -6 126.5 -35.5t102 -76t68 -107.5t24.5 -130v-454q0 -29 11 -54.5t29.5 -44.5t44 -30t54.5 -11h18q18 0 31 -11.5t13 -32.5v-27q0 -20 -12 -32t-32 -12h-22q-23 0 -47 -12t-43.5 -31.5t-32 -43.5t-12.5 -47v-464q0 -71 -24.5 -132.5t-68 -108t-102 -76 t-126.5 -35.5q-20 0 -32 12t-12 32v26q0 22 13 33t31 11q44 7 82 27.5t65.5 52t43.5 72t16 86.5v508q0 38 23 79.5t65 67.5q-22 16 -38.5 35.5t-27.5 40t-16.5 40t-5.5 36.5v500q0 44 -16 84t-43.5 71t-65.5 52t-82 28q-20 0 -32 12t-12 32v26q0 22 13 33t31 11z" />
<glyph unicode="~" horiz-adv-x="1042" d="M831 647q6 3 13 3t18 -6l41 -33q11 -9 11 -21q0 -8 -6 -21q-45 -72 -106.5 -103.5t-127.5 -31.5q-41 0 -79 13.5t-76 37.5q-20 12 -38.5 25t-38 23t-39.5 16.5t-41 6.5q-25 0 -49 -7.5t-43 -24.5q-9 -8 -17.5 -19.5t-18 -22t-19.5 -18.5t-21 -8t-23 8t-23 18.5t-18 20.5 t-7 14q0 8 7 20t13 18q42 56 91.5 85t112.5 33h33q35 -2 71 -15.5t70 -35.5l58 -38q26 -14 49 -23.5t49 -9.5q52 0 91 33q6 6 15 16.5l18 21t17 18t13 7.5z" />
<glyph unicode="&#xa1;" horiz-adv-x="497" d="M306 -477q-2 -36 -37 -36h-42q-36 0 -36 36v1018q0 36 36 36h42q37 0 37 -36v-1018zM341 901q0 -20 -7.5 -36.5t-20 -29.5t-29.5 -20t-36 -7q-39 0 -66 27t-27 66q0 19 7 36t20 29.5t29.5 19.5t36.5 7q19 0 36 -7t29.5 -19.5t20 -29.5t7.5 -36z" />
<glyph unicode="&#xa2;" horiz-adv-x="1016" d="M499 -16q-92 13 -169 57.5t-132.5 112t-86.5 154t-31 183.5t31 183t86.5 153.5t132.5 111.5t169 58v128q0 18 11 31t33 13h24q18 0 32 -12t14 -32v-124q85 -6 157 -39.5t134 -85.5q11 -10 21 -20t10 -23q0 -11 -9 -21l-21 -27q-14 -23 -30 -23q-13 0 -28 15 q-54 53 -122.5 83.5t-149.5 30.5q-83 0 -152.5 -31.5t-120 -86t-79 -127.5t-28.5 -155q0 -83 28.5 -155.5t79 -127.5t120 -86.5t152.5 -31.5q40 0 78.5 9.5t74 26.5t68 39t59.5 48q16 14 29 14q15 0 26 -14l24 -37q6 -11 6 -21q0 -20 -23 -34q-63 -60 -138.5 -97t-165.5 -44 v-130q0 -46 -46 -46h-24q-44 0 -44 46v134z" />
<glyph unicode="&#xa3;" horiz-adv-x="1201" d="M608 759q32 0 32 -31v-52q0 -31 -32 -31h-329v-530h801q31 0 31 -31v-52q0 -32 -31 -32h-885q-30 0 -30 29v616h-55q-30 0 -30 31v52q0 31 30 31h55v225q0 111 42.5 205.5t116 163.5t172 108t210.5 39q47 0 95 -9.5t94 -27t89 -41.5t79 -54q8 -5 10.5 -14t-2.5 -17 l-35 -53q-9 -15 -21 -15q-8 0 -18 8l-20 16q-55 44 -125.5 70.5t-146.5 26.5q-88 0 -165.5 -30.5t-135.5 -85t-91.5 -129.5t-33.5 -163v-223h329z" />
<glyph unicode="&#xa4;" horiz-adv-x="1078" d="M153 235q0 18 16 33l53 54q-38 52 -57 110.5t-19 120.5q0 60 18 117t56 109q-14 13 -26 25.5t-26 26.5q-6 6 -11 15t-5 18t5 18.5t12.5 17t16.5 12t17 4.5q9 0 17.5 -5t15.5 -11q14 -14 26 -26.5t26 -25.5q53 42 114.5 63.5t124.5 21.5q61 0 119.5 -20t109.5 -58l46 46 h-1q13 15 33 15q7 0 16.5 -4.5t17 -11.5t13 -16t5.5 -18t-5 -17t-12 -16q-11 -12 -21.5 -22t-21.5 -22q42 -52 62.5 -113t20.5 -124t-21 -126t-62 -115l43 -44q15 -14 15 -33q0 -8 -4.5 -16.5t-11.5 -16t-15.5 -12.5t-17.5 -5q-20 0 -34 15l-45 46q-52 -39 -110.5 -59 t-115.5 -20q-66 0 -127.5 22t-112.5 65l-53 -54q-14 -15 -34 -15q-9 0 -17.5 5t-16 12.5t-12 16.5t-4.5 17zM322 757q-44 -43 -64 -95.5t-20 -108.5q0 -60 23 -113t63 -93t92.5 -63.5t111.5 -23.5q58 0 110 23t92 62.5t63.5 92.5t23.5 113q0 59 -23 112t-62.5 92.5 t-92.5 62.5t-113 23q-57 0 -109.5 -21t-94.5 -63z" />
<glyph unicode="&#xa5;" horiz-adv-x="1192" d="M527 449v135h-252q-46 0 -46 46v24q0 44 46 44h204l-421 730q-9 15 -9 28q0 29 36 29h35q11 0 18.5 -1.5t14 -6t13.5 -14.5t16 -26l400 -698l414 711q20 35 50 35h49q29 0 29 -19q0 -9 -10 -27l-430 -741h207q18 0 31 -11t13 -33v-24q0 -18 -12 -32t-32 -14h-250v-135 h250q18 0 31 -11t13 -33v-24q0 -18 -12 -32t-32 -14h-250v-289q0 -46 -46 -46h-24q-44 0 -44 46v289h-252q-46 0 -46 46v24q0 44 46 44h252z" />
<glyph unicode="&#xa6;" horiz-adv-x="497" d="M189 1484q0 16 9.5 26t27.5 10h41q16 0 27 -9.5t11 -26.5v-768q0 -36 -38 -36h-41q-37 0 -37 36v768zM189 385q0 16 9.5 26.5t27.5 10.5h41q16 0 27 -10t11 -27v-772q0 -36 -38 -36h-41q-37 0 -37 36v772z" />
<glyph unicode="&#xa7;" horiz-adv-x="1108" d="M948 1316q5 -18 -5.5 -34t-28 -25t-37 -8t-32.5 18q-63 70 -133.5 105.5t-157.5 35.5q-45 0 -93.5 -14t-88.5 -41t-65.5 -66.5t-25.5 -91.5q0 -38 20.5 -64.5t60 -47.5t98.5 -40t136 -42q85 -25 146 -54t100 -63.5t57 -76.5t18 -92q0 -80 -44 -142t-125 -104 q37 -19 68 -41.5t53.5 -50t35 -61t12.5 -74.5q0 -74 -31 -135.5t-85 -105.5t-126.5 -68.5t-155.5 -24.5q-118 0 -214.5 48t-168.5 134q-16 19 -10.5 40.5t22.5 35.5t40.5 15.5t44.5 -18.5q63 -70 131.5 -106.5t161.5 -36.5q46 0 95 14t89 41.5t65.5 67.5t25.5 92 q0 40 -21.5 68t-62 49t-99.5 39.5t-134 39.5q-84 25 -145.5 53.5t-101 63t-58.5 75.5t-19 92q0 78 43 139t122 103q-74 38 -119.5 93.5t-45.5 135.5q0 75 31 136.5t85 105.5t126.5 68t156.5 24q54 0 113 -14.5t113 -41t97.5 -64t65.5 -84.5zM517 893q-62 0 -107.5 -15 t-75.5 -39.5t-44.5 -56t-14.5 -63.5q0 -9 1.5 -24t10 -32.5t26 -36.5t49 -36.5t79.5 -31t118 -19.5q63 0 108 15t74 39.5t43 55t14 62.5q0 43 -22.5 76.5t-60.5 57t-89 36t-109 12.5z" />
<glyph unicode="&#xa8;" horiz-adv-x="884" d="M153 1249q0 36 25.5 61.5t61.5 25.5q38 0 63 -25.5t25 -61.5t-25 -61.5t-63 -25.5q-36 0 -61.5 25.5t-25.5 61.5zM517 1250q0 36 25.5 61.5t61.5 25.5q37 0 62 -25.5t25 -61.5t-25 -61.5t-62 -25.5q-36 0 -61.5 25.5t-25.5 61.5z" />
<glyph unicode="&#xa9;" horiz-adv-x="1756" d="M1148 1107q14 -11 14 -24q0 -6 -7 -19.5t-17 -28t-20 -25t-17 -10.5q-8 0 -20 9q-45 32 -94.5 49.5t-104.5 17.5q-71 0 -132 -27t-106.5 -72.5t-71.5 -106.5t-26 -129q0 -69 27 -130t72.5 -106.5t106 -72.5t127.5 -27q49 0 95 13.5t88 42.5q11 5 21 13t19 8q11 0 22 -14 q4 -8 10.5 -17.5t12.5 -19.5t10 -18.5t4 -14.5t-3 -12t-11 -11q-57 -42 -124 -64t-142 -22q-93 0 -175.5 35.5t-143.5 97t-96.5 143.5t-35.5 176q0 93 36 175.5t98 144t144.5 97t176.5 35.5q75 0 140.5 -22.5t122.5 -63.5zM102 743q0 104 27 201t76.5 181.5t119 154 t154.5 119.5t182 77.5t203 27.5q104 0 201 -27.5t181.5 -77t154.5 -119t119.5 -154.5t77 -183t27.5 -203q0 -104 -27.5 -201t-77 -181t-119 -153.5t-154.5 -119t-182.5 -77t-202.5 -27.5q-104 0 -201 27t-181.5 76.5t-154 119t-119 154.5t-77 182t-27.5 203zM244 584 q22 -108 80 -199.5t141 -158t186.5 -104.5t216.5 -38q93 0 178 25.5t158 71t132 108t101 136.5t64.5 156t22.5 167q0 95 -25 180t-69 157t-105.5 129.5t-134 98t-154.5 62.5t-167 22q-146 0 -265.5 -55t-205 -145t-132.5 -205t-47 -235q0 -43 6 -86.5t19 -86.5z" />
<glyph unicode="&#xaa;" horiz-adv-x="1023" d="M774 1456q0 29 29 29h51q11 0 19.5 -8.5t8.5 -20.5v-660q0 -24 -20 -24l-4 -4h-73q-28 0 -28 28v91q-35 -62 -100 -97t-151 -35q-77 0 -144.5 29t-118 79t-80 118t-29.5 145q0 78 29.5 145.5t80 118t118 79.5t144.5 29q91 0 156 -38.5t101 -106.5zM255 1126 q0 -53 20 -98.5t54.5 -79t80 -53t96.5 -19.5q52 0 97 19t78.5 52t53.5 77.5t22 95.5v6q0 51 -19.5 97t-53.5 80t-80 54t-98 20q-51 0 -96.5 -20t-80 -54t-54.5 -80t-20 -97z" />
<glyph unicode="&#xab;" horiz-adv-x="1379" d="M154 535q-12 12 -12 25q0 15 17 32l517 515q12 12 28 12q10 1 18.5 -3.5t16.5 -11.5l16 -15q8 -8 11 -16t3 -16q0 -17 -12 -32l-464 -466l464 -464q11 -11 11 -29q0 -20 -13 -33l-18 -18q-14 -14 -33 -14q-18 0 -28 12zM612 535q-12 12 -12 25q0 15 17 32l517 515 q12 12 28 12q10 1 18.5 -3.5t16.5 -11.5l16 -15q8 -8 11 -16t3 -16q0 -17 -12 -32l-464 -466l464 -464q11 -11 11 -29q0 -20 -13 -33l-18 -18q-14 -14 -33 -14q-18 0 -28 12z" />
<glyph unicode="&#xac;" horiz-adv-x="1162" d="M933 398q0 -18 -11.5 -31t-32.5 -13h-24q-19 0 -33 12t-14 32v273h-545q-46 0 -46 46v24q0 44 46 44h616q18 0 31 -11t13 -33v-343z" />
<glyph unicode="&#xad;" horiz-adv-x="1057" d="M858 594q18 0 31 -11t13 -33v-24q0 -18 -12 -32t-32 -14h-616q-46 0 -46 46v24q0 44 46 44h616z" />
<glyph unicode="&#xae;" horiz-adv-x="1756" d="M607 319q-11 0 -19.5 5t-8.5 23v796q0 35 34 35h321q59 -1 110 -24t88.5 -62t59 -90t21.5 -109q0 -41 -10.5 -78t-30 -69.5t-46 -59t-59.5 -45.5l138 -286l4.5 -9t2.5 -10q0 -6 -7 -11.5t-30 -5.5h-44q-12 0 -21.5 6.5t-16.5 15t-11.5 17.5t-6.5 14q-28 61 -56 120.5 t-57 120.5q-17 -2 -33.5 -3.5t-33.5 -1.5h-208v-261q0 -16 -8.5 -22t-18.5 -6h-53zM1103 893q0 35 -13 67t-36 57t-54.5 39.5t-68.5 14.5h-244v-353h244q36 0 67.5 14t54.5 38t36.5 55.5t13.5 67.5zM102 743q0 104 27 201t76.5 181.5t119 154t154.5 119.5t182 77.5t203 27.5 q104 0 201 -27.5t181.5 -77t154.5 -119t119.5 -154.5t77 -183t27.5 -203q0 -104 -27.5 -201t-77 -181t-119 -153.5t-154.5 -119t-182.5 -77t-202.5 -27.5q-104 0 -201 27t-181.5 76.5t-154 119t-119 154.5t-77 182t-27.5 203zM244 584q22 -108 80 -199.5t141 -158 t186.5 -104.5t216.5 -38q93 0 178 25.5t158 71t132 108t101 136.5t64.5 156t22.5 167q0 95 -25 180t-69 157t-105.5 129.5t-134 98t-154.5 62.5t-167 22q-146 0 -265.5 -55t-205 -145t-132.5 -205t-47 -235q0 -43 6 -86.5t19 -86.5z" />
<glyph unicode="&#xaf;" horiz-adv-x="975" d="M784 1290q34 0 34 -32v-38q0 -14 -8.5 -24t-25.5 -10h-592q-33 0 -33 34v38q0 32 33 32h592z" />
<glyph unicode="&#xb0;" horiz-adv-x="651" d="M324 1275q49 0 91.5 -18.5t74.5 -50.5t50.5 -75t18.5 -92q0 -51 -18.5 -94t-50.5 -74.5t-75 -49.5t-91 -18q-49 0 -92 18t-75 49.5t-50.5 74.5t-18.5 94q0 49 18.5 92t50.5 75t75 50.5t92 18.5zM324 1198q-34 0 -63 -12.5t-50.5 -34.5t-33.5 -50.5t-12 -61.5 q0 -34 12 -63t33.5 -50.5t50.5 -33.5t63 -12q33 0 62 12t50.5 33.5t34 50.5t12.5 63q0 33 -12.5 61.5t-34 50.5t-50.5 34.5t-62 12.5z" />
<glyph unicode="&#xb1;" horiz-adv-x="994" d="M553 316q0 -17 -9 -27.5t-27 -10.5h-41q-17 0 -28 10t-11 28v264h-262q-37 0 -37 37v42q0 37 37 37h262v262q0 38 39 38h41q36 0 36 -38v-262h265q17 0 27 -9t10 -28v-42q0 -17 -10 -27t-27 -10h-265v-264zM175 0q-37 0 -37 37v42q0 37 37 37h643q17 0 27 -9.5t10 -27.5 v-42q0 -17 -10 -27t-27 -10h-643z" />
<glyph unicode="&#xb2;" horiz-adv-x="836" d="M104 670q-11 0 -18.5 7.5t-7.5 18.5v52q0 6 3 14l372 367q33 32 44.5 58.5t11.5 58.5q0 31 -13 58t-35.5 47t-52 31.5t-63.5 11.5q-33 0 -62.5 -12.5t-51.5 -33.5t-34.5 -49.5t-12.5 -60.5t-6 -40t-26 -8h-51q-11 1 -17 5t-6 19v24q0 56 21.5 103t58 81t85 53t102.5 19 q56 0 106 -17.5t87.5 -49.5t59 -77t21.5 -101q0 -55 -21.5 -100t-53.5 -77l-306 -298h369q11 0 18.5 -5t7.5 -19v-54q0 -10 -7.5 -18t-18.5 -8h-503z" />
<glyph unicode="&#xb3;" horiz-adv-x="757" d="M47 918q0 12 4.5 18.5t16.5 6.5h59q22 0 22 -24q0 -32 12.5 -60.5t34 -50t50 -34t60.5 -12.5t61 12.5t50.5 34t34.5 50t13 60.5t-13 61t-34.5 50.5t-50.5 34.5t-61 13q-24 0 -24 23v53q0 24 25 24q22 1 41.5 9.5t34.5 23t23.5 34t8.5 41.5t-8.5 42t-23 35t-34.5 23.5 t-43 8.5t-42 -8.5t-33.5 -23.5t-22.5 -35t-8 -42q0 -14 -5 -19t-17 -5h-61q-20 0 -20 25q0 43 16.5 81.5t45 67t66.5 45t81 16.5t81.5 -16.5t66.5 -45t44.5 -67t16.5 -81.5q0 -45 -17.5 -84t-47.5 -68q53 -35 84.5 -91.5t31.5 -125.5q0 -54 -20.5 -101t-55.5 -82 t-82.5 -55.5t-101.5 -20.5t-101 20.5t-82 55.5t-55.5 82t-20.5 101z" />
<glyph unicode="&#xb4;" horiz-adv-x="497" d="M308 1448q15 36 52 36h42q36 0 21 -36l-100 -234q-10 -23 -23 -30.5t-30 -7.5h-41q-37 0 -21 38z" />
<glyph unicode="&#xb5;" horiz-adv-x="1140" d="M571 -18q-49 0 -92.5 12t-81 33.5t-69 51.5t-56.5 65v-492q0 -17 -10 -27t-27 -10h-41q-19 0 -28.5 10t-9.5 27v1291q0 36 38 36h42q36 0 36 -36v-557q1 -61 25.5 -114.5t65 -93t94 -62.5t114.5 -23h4q61 0 116 23t96.5 62.5t66.5 93t27 115.5v557q0 36 37 36h41 q39 0 39 -36v-905q0 -15 -4 -23t-14 -11.5t-27.5 -4t-44.5 -0.5q-23 0 -23 22l-4 133q-25 -36 -58 -67.5t-72.5 -54.5t-85 -37t-94.5 -14z" />
<glyph unicode="&#xb6;" horiz-adv-x="1397" d="M1279 1485q14 0 22.5 -8t8.5 -23v-52q0 -32 -31 -32h-219v-1339q0 -31 -31 -31h-53q-31 0 -31 31v1339h-272v-1339q0 -31 -31 -31h-53q-31 0 -31 31v592q-29 0 -57.5 3t-57.5 8q-80 10 -149 46.5t-120 92.5t-80 127.5t-29 152.5q0 89 34 168t92.5 137.5t137 92.5 t167.5 34h783v0z" />
<glyph unicode="&#xb7;" horiz-adv-x="455" d="M144 554q0 19 7.5 36t20 30t29.5 20t36 7q39 0 66 -27t27 -66q0 -19 -7 -36t-20 -29.5t-30 -19.5t-36 -7t-36 7t-29.5 19.5t-20 29.5t-7.5 36z" />
<glyph unicode="&#xb8;" horiz-adv-x="557" d="M174 52h95q1 -5 1.5 -18t0.5 -27v-27v-18q0 -19 1 -31.5t3.5 -20.5t8 -12t14.5 -7q28 -11 54 -27t46 -38.5t31.5 -51.5t11.5 -66q-3 -57 -45 -100t-120 -78q-12 -5 -24.5 -9t-26.5 -4q-10 0 -18 6t-14 15t-9 19.5t-3 19.5q0 11 4.5 17.5t20.5 11.5q22 5 45.5 15.5 t43 24.5t32 31.5t12.5 37.5q0 21 -8 37.5t-22 30t-32.5 23t-38.5 15.5q-29 8 -46.5 32t-17.5 55v144z" />
<glyph unicode="&#xb9;" horiz-adv-x="469" d="M248 1487q26 0 26 -24v-769q0 -24 -25 -24h-56q-25 0 -25 24v676l-68 -32q-15 -6 -22 -2t-7 14v65q0 18 20 27l98 45h59z" />
<glyph unicode="&#xba;" horiz-adv-x="1023" d="M111 1138q0 77 29 144t79 117t117.5 79t144.5 29q76 0 143.5 -29t117 -79t78.5 -117t29 -144q0 -81 -30 -149t-80.5 -117t-117.5 -76t-140 -27q-77 0 -144.5 29t-117.5 79t-79 117t-29 144zM214 1138q0 -56 21 -104t57 -84t84.5 -56.5t103.5 -20.5t103.5 20.5t84 56.5 t56 84t20.5 104q0 54 -20.5 102.5t-56 84.5t-84 57t-103.5 21t-103.5 -21t-84.5 -57t-57 -84.5t-21 -102.5z" />
<glyph unicode="&#xbb;" horiz-adv-x="1382" d="M693 13q-11 -12 -28 -12q-19 0 -33 14l-18 18q-13 13 -13 33q0 18 11 29l464 464l-464 466q-12 15 -12 32q0 8 3 16t11 16l16 15q8 7 16.5 11.5t18.5 3.5q16 0 28 -12l517 -515q17 -17 17 -32q0 -13 -12 -25zM235 13q-11 -12 -28 -12q-19 0 -33 14l-18 18q-13 13 -13 33 q0 18 11 29l464 464l-464 466q-12 15 -12 32q0 8 3 16t11 16l16 15q8 7 16.5 11.5t18.5 3.5q16 0 28 -12l517 -515q17 -17 17 -32q0 -13 -12 -25z" />
<glyph unicode="&#xbc;" horiz-adv-x="1364" d="M736 135q-14 0 -21 6t-8.5 15t1.5 19t9 18q92 146 183 292l182 292q8 11 16 24.5t23 13.5h56q25 -1 25 -35v-539h67q29 0 29 -29v-50q0 -27 -29 -27h-67v-109q0 -28 -28 -28h-49q-28 0 -28 28v109h-361zM1097 241v367q-61 -92 -118.5 -183.5t-118.5 -183.5h237zM337 1487 q26 0 26 -24v-769q0 -24 -25 -24h-56q-25 0 -25 24v676l-68 -32q-5 -2 -8.5 -3t-6.5 -1q-14 0 -14 16v65q0 18 20 27l98 45h59zM951 1441q16 28 29.5 36t38.5 8h29q36 0 36 -16q-1 -6 -3.5 -15.5t-9.5 -21.5l-754 -1401q-19 -31 -53 -31h-42q-26 0 -26 16q0 9 9 26z" />
<glyph unicode="&#xbd;" horiz-adv-x="1426" d="M277 1487q26 0 26 -24v-769q0 -24 -25 -24h-56q-25 0 -25 24v676l-68 -32q-15 -6 -22 -2t-7 14v65q0 18 20 27l98 45h59zM797 0q-11 0 -18.5 7.5t-7.5 18.5v52q0 6 3 14l372 367q33 32 44.5 58.5t11.5 58.5q0 31 -13 58t-35.5 47t-52 31.5t-63.5 11.5q-33 0 -62.5 -12.5 t-51.5 -33.5t-34.5 -49.5t-12.5 -60.5t-6 -40t-26 -8h-51q-11 1 -17 5t-6 19v24q0 56 21.5 103t58 81t85 53t102.5 19q56 0 106 -17.5t87.5 -49.5t59 -77t21.5 -101q0 -55 -21.5 -100t-53.5 -77l-306 -298h369q11 0 18.5 -5t7.5 -19v-54q0 -10 -7.5 -18t-18.5 -8h-503z M891 1441q16 28 29.5 36t38.5 8h29q32 0 35.5 -10.5t-12.5 -42.5l-754 -1401q-19 -31 -53 -31h-42q-40 0 -17 42z" />
<glyph unicode="&#xbe;" horiz-adv-x="1446" d="M78 935q0 12 4.5 18.5t16.5 6.5h59q22 0 22 -24q0 -32 12.5 -60.5t34 -50t50 -34t60.5 -12.5t61 12.5t50.5 34t34.5 50t13 60.5t-13 61t-34.5 50.5t-50.5 34.5t-61 13q-24 0 -24 23v53q0 24 25 24q22 1 41.5 9.5t34.5 23t23.5 34t8.5 41.5t-8.5 42t-23 35t-34.5 23.5 t-43 8.5t-42 -8.5t-33.5 -23.5t-22.5 -35t-8 -42q0 -14 -5 -19t-17 -5h-61q-20 0 -20 25q0 43 16.5 81.5t45 67t66.5 45t81 16.5t81.5 -16.5t66.5 -45t44.5 -67t16.5 -81.5q0 -45 -17.5 -84t-47.5 -68q53 -35 84.5 -91.5t31.5 -125.5q0 -54 -20.5 -101t-55.5 -82 t-82.5 -55.5t-101.5 -20.5t-101 20.5t-82 55.5t-55.5 82t-20.5 101zM779 137q-14 0 -21 6t-8.5 15t1.5 19t9 18q92 146 183 292l182 292q8 11 16 24.5t23 13.5h56q25 -1 25 -35v-539h67q29 0 29 -29v-50q0 -27 -29 -27h-67v-109q0 -28 -28 -28h-49q-28 0 -28 28v109h-361z M1140 243v367q-61 -92 -118.5 -183.5t-118.5 -183.5h237zM1061 1441q16 28 29.5 36t38.5 8h29q36 0 36 -16q-1 -6 -3.5 -15.5t-9.5 -21.5l-754 -1401q-19 -31 -53 -31h-42q-26 0 -26 16q0 9 9 26z" />
<glyph unicode="&#xbf;" horiz-adv-x="1137" d="M515.037 760.021q0 21.998 13.999 35.498q13.999 13.499 32.998 13.499h29.998q21.999 0 34.498 -14.999t12.499 -33.998v-168.99q0 -57.9961 -19.498 -102.993q-19.499 -44.9971 -50.9971 -81.9951t-71.4961 -67.4961q-39.9971 -30.498 -82.4941 -59.9961 q-42.498 -29.498 -82.4951 -60.4961q-39.998 -30.998 -71.4961 -67.9961t-50.9971 -81.9951q-19.498 -44.9971 -19.498 -103.993q0 -76.9961 28.998 -136.992t78.9951 -101.494q49.9971 -41.4971 117.492 -62.9961q67.4961 -21.498 143.492 -21.498 q75.9951 0 142.491 24.498q66.4951 24.499 115.492 68.9961t76.9961 107.493q27.998 62.9961 27.998 139.991q0 17.999 13.499 32.498t28.498 19.499h28.998q20.999 0 29.998 -9.99902q9 -10 16 -24.999v-12.999q-3 -99.9941 -41.498 -184.488 q-38.498 -84.4951 -103.993 -145.991q-65.4961 -61.4961 -151.991 -96.4941q-86.4941 -34.998 -184.488 -34.998q-99.9941 0 -186.989 30.998q-86.9941 30.998 -151.99 87.9951q-64.9961 56.9961 -102.494 137.991q-37.4971 80.9951 -37.4971 180.989 q0 70.9951 18.998 125.992q18.999 54.9961 49.4971 99.4941q30.498 44.4971 69.9961 79.9951q39.4971 35.4971 79.9951 66.4951q40.4971 30.998 79.9951 58.9971q39.4971 27.998 69.9961 57.9961q30.498 29.998 49.4961 63.4961q18.999 33.498 18.999 74.4951v170.99z M672.027 1036q0 -18.998 -6.99902 -35.9971q-7 -16.999 -19.499 -29.498q-12.499 -12.5 -29.498 -19.999q-16.999 -7.5 -35.998 -7.5q-19.999 0 -36.998 7.5q-16.998 7.49902 -29.498 19.999q-12.499 12.499 -19.498 29.498q-7 16.999 -7 35.9971q0 18.999 7 35.998 q6.99902 16.999 19.498 29.498q12.5 12.5 29.498 19.999q16.999 7.5 36.998 7.5q18.999 0 35.998 -7.5q16.999 -7.49902 29.498 -19.999q12.499 -12.499 19.499 -29.498q6.99902 -16.999 6.99902 -35.998z" />
<glyph unicode="&#xc0;" horiz-adv-x="1400" d="M1223 27q-20 48 -40 97l-40 98h-889l-79 -191q-14 -31 -39 -31q-34 0 -54 9.5t-20 22.5q0 9 4 17l584 1396q4 9 10 21t12.5 22.5t13.5 17.5t13 7q20 0 30 -22l602 -1444q2 -3 3 -9t1 -10q0 -11 -23 -19.5t-52 -8.5q-26 0 -37 27zM299 332h798l-364 878q-8 20 -16.5 40.5 t-17.5 40.5q-2 0 -2 -2zM716 1716q5 -13 5 -20q0 -18 -26 -18h-41q-17 0 -30 7.5t-23 30.5l-100 234q-5 12 -5 18q0 18 26 18h42q37 0 52 -36z" />
<glyph unicode="&#xc1;" horiz-adv-x="1400" d="M1223 27q-20 48 -40 97l-40 98h-889l-79 -191q-14 -31 -39 -31q-34 0 -54 9.5t-20 22.5q0 9 4 17l584 1396q4 9 10 21t12.5 22.5t13.5 17.5t13 7q20 0 30 -22l602 -1444q2 -3 3 -9t1 -10q0 -11 -23 -19.5t-52 -8.5q-26 0 -37 27zM299 332h798l-364 878q-8 20 -16.5 40.5 t-17.5 40.5q-2 0 -2 -2zM814 1950q15 36 52 36h42q36 0 21 -36l-100 -234q-10 -23 -23 -30.5t-30 -7.5h-41q-37 0 -21 38z" />
<glyph unicode="&#xc2;" horiz-adv-x="1400" d="M1223 27q-20 48 -40 97l-40 98h-889l-79 -191q-14 -31 -39 -31q-34 0 -54 9.5t-20 22.5q0 9 4 17l584 1396q4 9 10 21t12.5 22.5t13.5 17.5t13 7q20 0 30 -22l602 -1444q2 -3 3 -9t1 -10q0 -11 -23 -19.5t-52 -8.5q-26 0 -37 27zM299 332h798l-364 878q-8 20 -16.5 40.5 t-17.5 40.5q-2 0 -2 -2zM705 2009q23 22 51 -4l217 -219q14 -11 13 -27.5t-13 -27.5l-13 -13q-13 -14 -28.5 -13t-26.5 11l-176 174l-174 -174q-11 -12 -27 -12t-27 12l-18 17q-13 14 -11.5 28t11.5 25z" />
<glyph unicode="&#xc3;" horiz-adv-x="1400" d="M1223 27q-20 48 -40 97l-40 98h-889l-79 -191q-14 -31 -39 -31q-34 0 -54 9.5t-20 22.5q0 9 4 17l584 1396q4 9 10 21t12.5 22.5t13.5 17.5t13 7q20 0 30 -22l602 -1444q2 -3 3 -9t1 -10q0 -11 -23 -19.5t-52 -8.5q-26 0 -37 27zM299 332h798l-364 878q-8 20 -16.5 40.5 t-17.5 40.5q-2 0 -2 -2zM497 1703q-9 -6 -17 -6q-11 0 -19.5 6.5t-15 15t-10 15.5t-3.5 8q0 6 8 17q40 56 82 79.5t96 23.5q28 0 55.5 -11.5t53.5 -28.5l51 -33q35 -22 68 -22h5q24 2 42 14.5t32 27t26 26t23 11.5q9 0 18 -5.5t16.5 -13t12 -15t4.5 -11.5q0 -5 -4.5 -12.5 t-6.5 -9.5q-37 -53 -80 -75.5t-94 -22.5q-28 0 -56.5 11t-54.5 28l-46 30q-16 11 -33 18t-36 7q-43 0 -71 -25q-4 -4 -10.5 -11.5t-13.5 -15.5t-13 -14t-9 -6z" />
<glyph unicode="&#xc4;" horiz-adv-x="1400" d="M1223 27q-20 48 -40 97l-40 98h-889l-79 -191q-14 -31 -39 -31q-34 0 -54 9.5t-20 22.5q0 9 4 17l584 1396q4 9 10 21t12.5 22.5t13.5 17.5t13 7q20 0 30 -22l602 -1444q2 -3 3 -9t1 -10q0 -11 -23 -19.5t-52 -8.5q-26 0 -37 27zM299 332h798l-364 878q-8 20 -16.5 40.5 t-17.5 40.5q-2 0 -2 -2zM459 1751q0 36 25.5 61.5t61.5 25.5q38 0 63 -25.5t25 -61.5t-25 -61.5t-63 -25.5q-36 0 -61.5 25.5t-25.5 61.5zM823 1752q0 36 25.5 61.5t61.5 25.5q37 0 62 -25.5t25 -61.5t-25 -61.5t-62 -25.5q-36 0 -61.5 25.5t-25.5 61.5z" />
<glyph unicode="&#xc5;" horiz-adv-x="1400" d="M1223 27q-20 48 -40 97l-40 98h-889l-79 -191q-14 -31 -39 -31q-34 0 -54 9.5t-20 22.5q0 9 4 17l584 1396q4 9 10 21t12.5 22.5t13.5 17.5t13 7q20 0 30 -22l602 -1444q2 -3 3 -9t1 -10q0 -11 -23 -19.5t-52 -8.5q-26 0 -37 27zM299 332h798l-364 878q-8 20 -16.5 40.5 t-17.5 40.5q-2 0 -2 -2zM728 2024q39 0 72.5 -14.5t59 -40t40 -59t14.5 -71.5q0 -39 -14.5 -73t-40 -58.5t-59 -39t-72.5 -14.5t-73 14.5t-58.5 39t-39 58.5t-14.5 73q0 38 14.5 71.5t39 59t58.5 40t73 14.5zM621 1839q0 -46 30.5 -76.5t76.5 -30.5q22 0 41.5 8t34 22.5 t22.5 34t8 42.5q0 22 -8 41.5t-22.5 34t-34 22.5t-41.5 8q-23 0 -42.5 -8t-34 -22.5t-22.5 -34t-8 -41.5z" />
<glyph unicode="&#xc6;" horiz-adv-x="2299" d="M1254 0q-21 0 -31 13t-9 31l1 327h-741l-241 -319q-32 -52 -84 -52h-46q-50 0 -18 47l1107 1394q11 14 30 29t37 15h925q18 0 31 -11t13 -33v-24q0 -18 -12 -32t-32 -14h-857l-1 -750h688q18 0 31 -11.5t13 -32.5v-25q0 -18 -12 -32t-32 -14h-685l-1 -392h878 q18 0 31 -11t13 -33v-24q0 -18 -12 -32t-32 -14h-928h-3h-21zM566 488h648v821z" />
<glyph unicode="&#xc7;" horiz-adv-x="1414" d="M1323 1339q16 -12 16 -28q0 -9 -10 -22q-2 -2 -7 -9.5t-12.5 -16t-15.5 -15.5t-15 -7h-1h-3q-3 0 -8 1.5t-12 6.5q-86 66 -184.5 103.5t-210.5 37.5q-92 0 -176.5 -23.5t-158 -66.5t-133 -103t-102 -132.5t-65.5 -155t-23 -170.5q0 -90 23.5 -172.5t66.5 -154.5 t102.5 -131t131.5 -101t153.5 -65t169.5 -23q206 0 394 135l25 14q10 5 16 5q7 0 16.5 -8t18.5 -19.5t15 -24.5t6 -23q0 -9 -5 -15.5t-13 -13.5q-99 -77 -216.5 -119.5t-254.5 -42.5q-158 0 -296.5 59.5t-241.5 163t-162.5 242t-59.5 296.5q0 105 27 202t76.5 181.5 t119 154.5t154 119.5t182 77t202.5 27.5q134 0 252 -44t219 -120zM814 52h95q1 -5 1.5 -18t0.5 -27v-27v-18q0 -19 1 -31.5t3.5 -20.5t8 -12t14.5 -7q28 -11 54 -27t46 -38.5t31.5 -51.5t11.5 -66q-3 -57 -45 -100t-120 -78q-12 -5 -24.5 -9t-26.5 -4q-10 0 -18 6t-14 15 t-9 19.5t-3 19.5q0 11 4.5 17.5t20.5 11.5q22 5 45.5 15.5t43 24.5t32 31.5t12.5 37.5q0 21 -8 37.5t-22 30t-32.5 23t-38.5 15.5q-29 8 -46.5 32t-17.5 55v144z" />
<glyph unicode="&#xc8;" horiz-adv-x="1300" d="M1164 1485q38 0 38 -37v-35q0 -17 -9.5 -27t-28.5 -10h-891v-746h720q17 0 27.5 -9t10.5 -29v-36q0 -17 -10 -27t-28 -10h-720v-410h907q38 0 38 -37v-36q0 -36 -37 -36h-987q-17 0 -24.5 9.5t-7.5 25.5v1414q0 23 11.5 29.5t25.5 6.5h965zM750 1716q5 -13 5 -20 q0 -18 -26 -18h-41q-17 0 -30 7.5t-23 30.5l-100 234q-5 12 -5 18q0 18 26 18h42q37 0 52 -36z" />
<glyph unicode="&#xc9;" horiz-adv-x="1300" d="M1164 1485q38 0 38 -37v-35q0 -17 -9.5 -27t-28.5 -10h-891v-746h720q17 0 27.5 -9t10.5 -29v-36q0 -17 -10 -27t-28 -10h-720v-410h907q38 0 38 -37v-36q0 -36 -37 -36h-987q-17 0 -24.5 9.5t-7.5 25.5v1414q0 23 11.5 29.5t25.5 6.5h965zM704 1950q15 36 52 36h42 q36 0 21 -36l-100 -234q-10 -23 -23 -30.5t-30 -7.5h-41q-37 0 -21 38z" />
<glyph unicode="&#xca;" horiz-adv-x="1300" d="M1164 1485q38 0 38 -37v-35q0 -17 -9.5 -27t-28.5 -10h-891v-746h720q17 0 27.5 -9t10.5 -29v-36q0 -17 -10 -27t-28 -10h-720v-410h907q38 0 38 -37v-36q0 -36 -37 -36h-987q-17 0 -24.5 9.5t-7.5 25.5v1414q0 23 11.5 29.5t25.5 6.5h965zM672 2009q23 22 51 -4 l217 -219q14 -11 13 -27.5t-13 -27.5l-13 -13q-13 -14 -28.5 -13t-26.5 11l-176 174l-174 -174q-11 -12 -27 -12t-27 12l-18 17q-13 14 -11.5 28t11.5 25z" />
<glyph unicode="&#xcb;" horiz-adv-x="1300" d="M1164 1485q38 0 38 -37v-35q0 -17 -9.5 -27t-28.5 -10h-891v-746h720q17 0 27.5 -9t10.5 -29v-36q0 -17 -10 -27t-28 -10h-720v-410h907q38 0 38 -37v-36q0 -36 -37 -36h-987q-17 0 -24.5 9.5t-7.5 25.5v1414q0 23 11.5 29.5t25.5 6.5h965zM425 1771q0 36 25.5 61.5 t61.5 25.5q38 0 63 -25.5t25 -61.5t-25 -61.5t-63 -25.5q-36 0 -61.5 25.5t-25.5 61.5zM789 1772q0 36 25.5 61.5t61.5 25.5q37 0 62 -25.5t25 -61.5t-25 -61.5t-62 -25.5q-36 0 -61.5 25.5t-25.5 61.5z" />
<glyph unicode="&#xcc;" horiz-adv-x="429" d="M162 1449q0 17 9.5 26.5t27.5 9.5h36q17 0 27 -9.5t10 -26.5v-1413q0 -36 -37 -36h-36q-37 0 -37 36v1413zM263 1716q5 -13 5 -20q0 -18 -26 -18h-41q-17 0 -30 7.5t-23 30.5l-100 234q-5 12 -5 18q0 18 26 18h42q37 0 52 -36z" />
<glyph unicode="&#xcd;" horiz-adv-x="429" d="M162 1449q0 17 9.5 26.5t27.5 9.5h36q17 0 27 -9.5t10 -26.5v-1413q0 -36 -37 -36h-36q-37 0 -37 36v1413zM204 1950q15 36 52 36h42q36 0 21 -36l-100 -234q-10 -23 -23 -30.5t-30 -7.5h-41q-37 0 -21 38z" />
<glyph unicode="&#xce;" horiz-adv-x="429" d="M162 1449q0 17 9.5 26.5t27.5 9.5h36q17 0 27 -9.5t10 -26.5v-1413q0 -36 -37 -36h-36q-37 0 -37 36v1413zM195 2009q23 22 51 -4l217 -219q14 -11 13 -27.5t-13 -27.5l-13 -13q-13 -14 -28.5 -13t-26.5 11l-176 174l-174 -174q-11 -12 -27 -12t-27 12l-18 17 q-13 14 -11.5 28t11.5 25z" />
<glyph unicode="&#xcf;" horiz-adv-x="436" d="M162 1449q0 17 9.5 26.5t27.5 9.5h36q17 0 27 -9.5t10 -26.5v-1413q0 -36 -37 -36h-36q-37 0 -37 36v1413zM-51 1751q0 36 25.5 61.5t61.5 25.5q38 0 63 -25.5t25 -61.5t-25 -61.5t-63 -25.5q-36 0 -61.5 25.5t-25.5 61.5zM313 1752q0 36 25.5 61.5t61.5 25.5 q37 0 62 -25.5t25 -61.5t-25 -61.5t-62 -25.5q-36 0 -61.5 25.5t-25.5 61.5z" />
<glyph unicode="&#xd0;" horiz-adv-x="1480" d="M489 789q15 0 26.5 -9t11.5 -29v-31q0 -15 -11 -27.5t-27 -12.5h-423q-41 0 -41 40v31q0 38 41 38h423zM163 1447q0 17 9 27t24 11h482q103 -1 197.5 -28t177 -75.5t150 -116t115 -150t74 -177.5t26.5 -198t-26.5 -197.5t-75 -177t-117 -150t-151.5 -115t-178.5 -74 t-198.5 -26.5h-470q-13 0 -25.5 7t-12.5 24v1416zM668 108q90 0 173 23t154 65t129.5 100.5t99.5 129.5t63.5 152.5t22.5 168.5q0 136 -51 251.5t-138.5 199.5t-203.5 131.5t-246 47.5h-397v-1269h394z" />
<glyph unicode="&#xd1;" horiz-adv-x="1552" d="M271 1273v-1237q0 -36 -37 -36h-35q-37 0 -37 36v1449q0 11 4.5 22.5t21.5 11.5q14 0 25 -11q268 -327 533.5 -650.5t533.5 -650.5v1242q0 36 37 36h36q36 0 36 -36v-1457q-1 -10 -6 -20.5t-22 -10.5t-27 13zM553 1704q-9 -6 -17 -6q-11 0 -19.5 6.5t-15 15t-10 15.5 t-3.5 8q0 6 8 17q40 56 82 79.5t96 23.5q28 0 55.5 -11.5t53.5 -28.5l51 -33q35 -22 68 -22h5q24 2 42 14.5t32 27t26 26t23 11.5q9 0 18 -5.5t16.5 -13t12 -15t4.5 -11.5q0 -5 -4.5 -12.5t-6.5 -9.5q-37 -53 -80 -75.5t-94 -22.5q-28 0 -56.5 11t-54.5 28l-46 30 q-16 11 -33 18t-36 7q-43 0 -71 -25q-4 -4 -10.5 -11.5t-13.5 -15.5t-13 -14t-9 -6z" />
<glyph unicode="&#xd2;" horiz-adv-x="1701" d="M79 741q0 105 27 202.5t76.5 182t119 154t154 119t182 77t202.5 27.5t202.5 -27.5t182 -77t154 -119t119 -154t77 -182t27.5 -202.5t-27.5 -202t-77 -181.5t-119 -154t-154 -119t-182 -76.5t-202.5 -27t-202.5 27t-182 76.5t-154 119t-119 154t-76.5 181.5t-27 202z M190 741q0 -134 51 -252.5t139.5 -206.5t207 -139t252.5 -51q89 0 172.5 23t155.5 65.5t131.5 102t102 131.5t66 154.5t23.5 172.5q0 134 -51.5 252.5t-140 207t-207 140t-252.5 51.5q-90 0 -172.5 -23.5t-155 -66t-132 -102t-101.5 -131.5t-65.5 -155.5t-23.5 -172.5z M961 1717q5 -13 5 -20q0 -18 -26 -18h-41q-17 0 -30 7.5t-23 30.5l-100 234q-5 12 -5 18q0 18 26 18h42q37 0 52 -36z" />
<glyph unicode="&#xd3;" horiz-adv-x="1701" d="M79 741q0 105 27 202.5t76.5 182t119 154t154 119t182 77t202.5 27.5t202.5 -27.5t182 -77t154 -119t119 -154t77 -182t27.5 -202.5t-27.5 -202t-77 -181.5t-119 -154t-154 -119t-182 -76.5t-202.5 -27t-202.5 27t-182 76.5t-154 119t-119 154t-76.5 181.5t-27 202z M190 741q0 -134 51 -252.5t139.5 -206.5t207 -139t252.5 -51q89 0 172.5 23t155.5 65.5t131.5 102t102 131.5t66 154.5t23.5 172.5q0 134 -51.5 252.5t-140 207t-207 140t-252.5 51.5q-90 0 -172.5 -23.5t-155 -66t-132 -102t-101.5 -131.5t-65.5 -155.5t-23.5 -172.5z M839 1951q15 36 52 36h42q36 0 21 -36l-100 -234q-10 -23 -23 -30.5t-30 -7.5h-41q-37 0 -21 38z" />
<glyph unicode="&#xd4;" horiz-adv-x="1701" d="M79 741q0 105 27 202.5t76.5 182t119 154t154 119t182 77t202.5 27.5t202.5 -27.5t182 -77t154 -119t119 -154t77 -182t27.5 -202.5t-27.5 -202t-77 -181.5t-119 -154t-154 -119t-182 -76.5t-202.5 -27t-202.5 27t-182 76.5t-154 119t-119 154t-76.5 181.5t-27 202z M190 741q0 -134 51 -252.5t139.5 -206.5t207 -139t252.5 -51q89 0 172.5 23t155.5 65.5t131.5 102t102 131.5t66 154.5t23.5 172.5q0 134 -51.5 252.5t-140 207t-207 140t-252.5 51.5q-90 0 -172.5 -23.5t-155 -66t-132 -102t-101.5 -131.5t-65.5 -155.5t-23.5 -172.5z M829 2010q23 22 51 -4l217 -219q14 -11 13 -27.5t-13 -27.5l-13 -13q-13 -14 -28.5 -13t-26.5 11l-176 174l-174 -174q-11 -12 -27 -12t-27 12l-18 17q-13 14 -11.5 28t11.5 25z" />
<glyph unicode="&#xd5;" horiz-adv-x="1701" d="M79 741q0 105 27 202.5t76.5 182t119 154t154 119t182 77t202.5 27.5t202.5 -27.5t182 -77t154 -119t119 -154t77 -182t27.5 -202.5t-27.5 -202t-77 -181.5t-119 -154t-154 -119t-182 -76.5t-202.5 -27t-202.5 27t-182 76.5t-154 119t-119 154t-76.5 181.5t-27 202z M190 741q0 -134 51 -252.5t139.5 -206.5t207 -139t252.5 -51q89 0 172.5 23t155.5 65.5t131.5 102t102 131.5t66 154.5t23.5 172.5q0 134 -51.5 252.5t-140 207t-207 140t-252.5 51.5q-90 0 -172.5 -23.5t-155 -66t-132 -102t-101.5 -131.5t-65.5 -155.5t-23.5 -172.5z M621 1704q-9 -6 -17 -6q-11 0 -19.5 6.5t-15 15t-10 15.5t-3.5 8q0 6 8 17q40 56 82 79.5t96 23.5q28 0 55.5 -11.5t53.5 -28.5l51 -33q35 -22 68 -22h5q24 2 42 14.5t32 27t26 26t23 11.5q9 0 18 -5.5t16.5 -13t12 -15t4.5 -11.5q0 -5 -4.5 -12.5t-6.5 -9.5 q-37 -53 -80 -75.5t-94 -22.5q-28 0 -56.5 11t-54.5 28l-46 30q-16 11 -33 18t-36 7q-43 0 -71 -25q-4 -4 -10.5 -11.5t-13.5 -15.5t-13 -14t-9 -6z" />
<glyph unicode="&#xd6;" horiz-adv-x="1701" d="M79 741q0 105 27 202.5t76.5 182t119 154t154 119t182 77t202.5 27.5t202.5 -27.5t182 -77t154 -119t119 -154t77 -182t27.5 -202.5t-27.5 -202t-77 -181.5t-119 -154t-154 -119t-182 -76.5t-202.5 -27t-202.5 27t-182 76.5t-154 119t-119 154t-76.5 181.5t-27 202z M190 741q0 -134 51 -252.5t139.5 -206.5t207 -139t252.5 -51q89 0 172.5 23t155.5 65.5t131.5 102t102 131.5t66 154.5t23.5 172.5q0 134 -51.5 252.5t-140 207t-207 140t-252.5 51.5q-90 0 -172.5 -23.5t-155 -66t-132 -102t-101.5 -131.5t-65.5 -155.5t-23.5 -172.5z M584 1752q0 36 25.5 61.5t61.5 25.5q38 0 63 -25.5t25 -61.5t-25 -61.5t-63 -25.5q-36 0 -61.5 25.5t-25.5 61.5zM948 1753q0 36 25.5 61.5t61.5 25.5q37 0 62 -25.5t25 -61.5t-25 -61.5t-62 -25.5q-36 0 -61.5 25.5t-25.5 61.5z" />
<glyph unicode="&#xd7;" horiz-adv-x="933" d="M288 384q-13 -13 -30 -14t-31 14l-18 18q-14 11 -15 30t13 34l178 176l-176 176q-33 33 0 66l18 17q30 31 63 -2l174 -176l178 178q33 30 66 0l18 -17q31 -31 -2 -64l-178 -178l180 -179q11 -13 13 -29.5t-13 -31.5l-18 -18q-13 -13 -31.5 -14.5t-31.5 12.5l-181 178z " />
<glyph unicode="&#xd8;" horiz-adv-x="1706" d="M527 52q-97 45 -177.5 115.5t-138.5 160t-90 194.5t-32 219q0 105 27 202.5t76.5 182t119 154.5t154.5 119.5t182 77t203 27.5q58 0 113.5 -8.5t109.5 -25.5l48 119q11 28 23.5 36t38.5 8h28q21 0 30 -4.5t9 -15.5q-2 -6 -3 -14t-5 -19l-62 -152q95 -47 174.5 -117.5 t136.5 -159.5t88.5 -193.5t31.5 -217.5q0 -105 -27.5 -202t-77 -181.5t-119 -153.5t-154 -118.5t-182 -76.5t-202.5 -27q-57 0 -111 8t-106 23l-47 -117q-12 -31 -48 -31h-42q-29 0 -29 21q0 8 5 21zM206 742q0 -134 50.5 -251t138 -204.5t205 -138t251.5 -50.5q89 0 171 23 t153.5 65t130.5 100.5t101 130t65 154t23 171.5q0 133 -51 250t-138.5 204.5t-204.5 138.5t-250 51q-89 0 -171.5 -23t-154.5 -65t-130.5 -101t-100.5 -130.5t-65 -154t-23 -170.5z" />
<glyph unicode="&#xd9;" horiz-adv-x="1469" d="M221 592q0 -106 37.5 -199t104 -162t158 -108.5t199.5 -39.5q110 0 202 39.5t158 108.5t102.5 162t36.5 199v857q0 17 10.5 26.5t27.5 9.5h33q17 0 28.5 -9.5t11.5 -26.5v-869q-1 -132 -49 -242.5t-130.5 -191t-193.5 -125.5t-237 -45q-84 0 -162 21.5t-145.5 61.5 t-123 95t-95 123t-61.5 145.5t-22 161.5v865q0 15 9 25.5t26 10.5h38q15 0 26 -9.5t11 -26.5v-857zM858 1717q5 -13 5 -20q0 -18 -26 -18h-41q-17 0 -30 7.5t-23 30.5l-100 234q-5 12 -5 18q0 18 26 18h42q37 0 52 -36z" />
<glyph unicode="&#xda;" horiz-adv-x="1469" d="M221 592q0 -106 37.5 -199t104 -162t158 -108.5t199.5 -39.5q110 0 202 39.5t158 108.5t102.5 162t36.5 199v857q0 17 10.5 26.5t27.5 9.5h33q17 0 28.5 -9.5t11.5 -26.5v-869q-1 -132 -49 -242.5t-130.5 -191t-193.5 -125.5t-237 -45q-84 0 -162 21.5t-145.5 61.5 t-123 95t-95 123t-61.5 145.5t-22 161.5v865q0 15 9 25.5t26 10.5h38q15 0 26 -9.5t11 -26.5v-857zM736 1951q15 36 52 36h42q36 0 21 -36l-100 -234q-10 -23 -23 -30.5t-30 -7.5h-41q-37 0 -21 38z" />
<glyph unicode="&#xdb;" horiz-adv-x="1469" d="M221 592q0 -106 37.5 -199t104 -162t158 -108.5t199.5 -39.5q110 0 202 39.5t158 108.5t102.5 162t36.5 199v857q0 17 10.5 26.5t27.5 9.5h33q17 0 28.5 -9.5t11.5 -26.5v-869q-1 -132 -49 -242.5t-130.5 -191t-193.5 -125.5t-237 -45q-84 0 -162 21.5t-145.5 61.5 t-123 95t-95 123t-61.5 145.5t-22 161.5v865q0 15 9 25.5t26 10.5h38q15 0 26 -9.5t11 -26.5v-857zM726 2010q23 22 51 -4l217 -219q14 -11 13 -27.5t-13 -27.5l-13 -13q-13 -14 -28.5 -13t-26.5 11l-176 174l-174 -174q-11 -12 -27 -12t-27 12l-18 17q-13 14 -11.5 28 t11.5 25z" />
<glyph unicode="&#xdc;" horiz-adv-x="1469" d="M221 592q0 -106 37.5 -199t104 -162t158 -108.5t199.5 -39.5q110 0 202 39.5t158 108.5t102.5 162t36.5 199v857q0 17 10.5 26.5t27.5 9.5h33q17 0 28.5 -9.5t11.5 -26.5v-869q-1 -132 -49 -242.5t-130.5 -191t-193.5 -125.5t-237 -45q-84 0 -162 21.5t-145.5 61.5 t-123 95t-95 123t-61.5 145.5t-22 161.5v865q0 15 9 25.5t26 10.5h38q15 0 26 -9.5t11 -26.5v-857zM481 1752q0 36 25.5 61.5t61.5 25.5q38 0 63 -25.5t25 -61.5t-25 -61.5t-63 -25.5q-36 0 -61.5 25.5t-25.5 61.5zM845 1753q0 36 25.5 61.5t61.5 25.5q37 0 62 -25.5 t25 -61.5t-25 -61.5t-62 -25.5q-36 0 -61.5 25.5t-25.5 61.5z" />
<glyph unicode="&#xdd;" horiz-adv-x="1228" d="M68 1437q-9 13 -9 24t10 18.5t22 7.5t24.5 1t25 -0.5t24 -8t20.5 -21.5l40 -66q96 -164 191.5 -325.5t192.5 -324.5q103 174 204.5 344.5t204.5 343.5q7 12 12.5 22.5t13.5 18t20.5 12t35.5 4.5h21t19.5 -2t14 -6.5t5.5 -14.5q0 -4 -1.5 -10t-6.5 -13 q-123 -202 -243 -406t-244 -406v-592q0 -37 -36 -37h-38q-36 0 -36 37v588zM584 1951q15 36 52 36h42q36 0 21 -36l-100 -234q-10 -23 -23 -30.5t-30 -7.5h-41q-37 0 -21 38z" />
<glyph unicode="&#xde;" horiz-adv-x="1280" d="M161 1450q0 36 37 36h41q37 0 37 -36v-114h275q133 0 241.5 -49.5t186 -131.5t119.5 -187.5t42 -217.5q0 -110 -41.5 -215t-118 -188t-185.5 -133.5t-244 -50.5h-275v-126q0 -36 -36 -36h-43q-36 0 -36 36v229v1184zM276 273h276q110 0 199 41t151.5 108t96.5 153t34 175 q0 90 -34 176t-97 153.5t-153.5 108.5t-204.5 41h-268v-6v-950z" />
<glyph unicode="&#xdf;" horiz-adv-x="1153" d="M160 1128q2 87 35.5 158.5t88.5 123t128 80t155 28.5q84 0 158.5 -28.5t131 -79.5t89 -122t32.5 -157q0 -45 -11 -87.5t-30.5 -80t-45 -68t-55.5 -50.5q120 -58 183 -165t63 -247q0 -104 -39 -193.5t-107 -155.5t-159.5 -103.5t-196.5 -37.5q-21 0 -33.5 5t-19 13 t-8 19.5t-1.5 23.5t1 23t7 19.5t19 14t37 5.5q68 0 135 26t120.5 74t87 115t33.5 150q0 81 -23 146t-71 110t-121.5 69.5t-173.5 24.5q-16 0 -30.5 7.5t-14.5 29.5v43q0 23 13 31t30 8h11q57 0 107 13.5t87.5 41.5t59 71t21.5 103q0 62 -21.5 112t-60 85t-91 54t-115.5 19 q-64 0 -117.5 -24t-92 -68t-60 -105.5t-21.5 -136.5l1 -1414q0 -36 -36 -36h-41q-39 0 -39 36z" />
<glyph unicode="&#xe0;" horiz-adv-x="1188" d="M1044 34q0 -17 -11 -26.5t-30 -9.5h-32q-40 0 -40 40v174q-18 -56 -53 -99.5t-82.5 -73.5t-105.5 -46t-123 -16q-102 0 -190 40t-152.5 109t-101.5 162t-37 199t36.5 199.5t101 163.5t152.5 110t191 40q66 0 125.5 -17t107.5 -48t82 -73.5t49 -93.5l4 171q1 20 10 30.5 t29 10.5h29q18 0 29.5 -10.5t11.5 -30.5v-905zM930 486q0 82 -26.5 155t-74.5 128t-115 87t-147 32q-81 0 -148.5 -32t-116 -86.5t-76 -127.5t-27.5 -155t27.5 -154.5t76.5 -126.5t116.5 -85.5t147.5 -31.5q79 0 146 31t115 84.5t75 126t27 155.5zM626 1214q5 -13 5 -20 q0 -18 -26 -18h-41q-17 0 -30 7.5t-23 30.5l-100 234q-5 12 -5 18q0 18 26 18h42q37 0 52 -36z" />
<glyph unicode="&#xe1;" horiz-adv-x="1188" d="M1044 34q0 -17 -11 -26.5t-30 -9.5h-32q-40 0 -40 40v174q-18 -56 -53 -99.5t-82.5 -73.5t-105.5 -46t-123 -16q-102 0 -190 40t-152.5 109t-101.5 162t-37 199t36.5 199.5t101 163.5t152.5 110t191 40q66 0 125.5 -17t107.5 -48t82 -73.5t49 -93.5l4 171q1 20 10 30.5 t29 10.5h29q18 0 29.5 -10.5t11.5 -30.5v-905zM930 486q0 82 -26.5 155t-74.5 128t-115 87t-147 32q-81 0 -148.5 -32t-116 -86.5t-76 -127.5t-27.5 -155t27.5 -154.5t76.5 -126.5t116.5 -85.5t147.5 -31.5q79 0 146 31t115 84.5t75 126t27 155.5zM580 1448q15 36 52 36h42 q36 0 21 -36l-100 -234q-10 -23 -23 -30.5t-30 -7.5h-41q-37 0 -21 38z" />
<glyph unicode="&#xe2;" horiz-adv-x="1188" d="M1044 34q0 -17 -11 -26.5t-30 -9.5h-32q-40 0 -40 40v174q-18 -56 -53 -99.5t-82.5 -73.5t-105.5 -46t-123 -16q-102 0 -190 40t-152.5 109t-101.5 162t-37 199t36.5 199.5t101 163.5t152.5 110t191 40q66 0 125.5 -17t107.5 -48t82 -73.5t49 -93.5l4 171q1 20 10 30.5 t29 10.5h29q18 0 29.5 -10.5t11.5 -30.5v-905zM930 486q0 82 -26.5 155t-74.5 128t-115 87t-147 32q-81 0 -148.5 -32t-116 -86.5t-76 -127.5t-27.5 -155t27.5 -154.5t76.5 -126.5t116.5 -85.5t147.5 -31.5q79 0 146 31t115 84.5t75 126t27 155.5zM570 1507q23 22 51 -4 l217 -219q14 -11 13 -27.5t-13 -27.5l-13 -13q-13 -14 -28.5 -13t-26.5 11l-176 174l-174 -174q-11 -12 -27 -12t-27 12l-18 17q-13 14 -11.5 28t11.5 25z" />
<glyph unicode="&#xe3;" horiz-adv-x="1188" d="M1044 34q0 -17 -11 -26.5t-30 -9.5h-32q-40 0 -40 40v174q-18 -56 -53 -99.5t-82.5 -73.5t-105.5 -46t-123 -16q-102 0 -190 40t-152.5 109t-101.5 162t-37 199t36.5 199.5t101 163.5t152.5 110t191 40q66 0 125.5 -17t107.5 -48t82 -73.5t49 -93.5l4 171q1 20 10 30.5 t29 10.5h29q18 0 29.5 -10.5t11.5 -30.5v-905zM930 486q0 82 -26.5 155t-74.5 128t-115 87t-147 32q-81 0 -148.5 -32t-116 -86.5t-76 -127.5t-27.5 -155t27.5 -154.5t76.5 -126.5t116.5 -85.5t147.5 -31.5q79 0 146 31t115 84.5t75 126t27 155.5zM362 1201q-9 -6 -17 -6 q-11 0 -19.5 6.5t-15 15t-10 15.5t-3.5 8q0 6 8 17q40 56 82 79.5t96 23.5q28 0 55.5 -11.5t53.5 -28.5l51 -33q35 -22 68 -22h5q24 2 42 14.5t32 27t26 26t23 11.5q9 0 18 -5.5t16.5 -13t12 -15t4.5 -11.5q0 -5 -4.5 -12.5t-6.5 -9.5q-37 -53 -80 -75.5t-94 -22.5 q-28 0 -56.5 11t-54.5 28l-46 30q-16 11 -33 18t-36 7q-43 0 -71 -25q-4 -4 -10.5 -11.5t-13.5 -15.5t-13 -14t-9 -6z" />
<glyph unicode="&#xe4;" horiz-adv-x="1188" d="M1044 34q0 -17 -11 -26.5t-30 -9.5h-32q-40 0 -40 40v174q-18 -56 -53 -99.5t-82.5 -73.5t-105.5 -46t-123 -16q-102 0 -190 40t-152.5 109t-101.5 162t-37 199t36.5 199.5t101 163.5t152.5 110t191 40q66 0 125.5 -17t107.5 -48t82 -73.5t49 -93.5l4 171q1 20 10 30.5 t29 10.5h29q18 0 29.5 -10.5t11.5 -30.5v-905zM930 486q0 82 -26.5 155t-74.5 128t-115 87t-147 32q-81 0 -148.5 -32t-116 -86.5t-76 -127.5t-27.5 -155t27.5 -154.5t76.5 -126.5t116.5 -85.5t147.5 -31.5q79 0 146 31t115 84.5t75 126t27 155.5zM325 1249q0 36 25.5 61.5 t61.5 25.5q38 0 63 -25.5t25 -61.5t-25 -61.5t-63 -25.5q-36 0 -61.5 25.5t-25.5 61.5zM689 1250q0 36 25.5 61.5t61.5 25.5q37 0 62 -25.5t25 -61.5t-25 -61.5t-62 -25.5q-36 0 -61.5 25.5t-25.5 61.5z" />
<glyph unicode="&#xe5;" horiz-adv-x="1188" d="M1044 34q0 -17 -11 -26.5t-30 -9.5h-32q-40 0 -40 40v174q-18 -56 -53 -99.5t-82.5 -73.5t-105.5 -46t-123 -16q-102 0 -190 40t-152.5 109t-101.5 162t-37 199t36.5 199.5t101 163.5t152.5 110t191 40q66 0 125.5 -17t107.5 -48t82 -73.5t49 -93.5l4 171q1 20 10 30.5 t29 10.5h29q18 0 29.5 -10.5t11.5 -30.5v-905zM930 486q0 82 -26.5 155t-74.5 128t-115 87t-147 32q-81 0 -148.5 -32t-116 -86.5t-76 -127.5t-27.5 -155t27.5 -154.5t76.5 -126.5t116.5 -85.5t147.5 -31.5q79 0 146 31t115 84.5t75 126t27 155.5zM593 1522q39 0 72.5 -14.5 t59 -40t40 -59t14.5 -71.5q0 -39 -14.5 -73t-40 -58.5t-59 -39t-72.5 -14.5t-73 14.5t-58.5 39t-39 58.5t-14.5 73q0 38 14.5 71.5t39 59t58.5 40t73 14.5zM486 1337q0 -46 30.5 -76.5t76.5 -30.5q22 0 41.5 8t34 22.5t22.5 34t8 42.5q0 22 -8 41.5t-22.5 34t-34 22.5 t-41.5 8q-23 0 -42.5 -8t-34 -22.5t-22.5 -34t-8 -41.5z" />
<glyph unicode="&#xe6;" horiz-adv-x="1881" d="M1382 -20q-58 0 -112 14t-102 39.5t-89 61t-72 79.5v-138q0 -17 -11 -26.5t-29 -9.5h-32q-40 0 -40 40v174q-21 -51 -56.5 -94t-82 -74.5t-104 -49t-122.5 -17.5q-102 0 -190 40t-152.5 109t-101 162t-36.5 199t36.5 199.5t101 163.5t152.5 110t190 40q66 0 123 -17.5 t103 -48.5t81 -73.5t58 -92.5l3 171q0 41 40 41h29q18 0 29 -10.5t11 -30.5v-135q62 88 155.5 141t205.5 53q93 0 176.5 -39t146.5 -105.5t99.5 -156.5t36.5 -192q0 -26 -12.5 -39t-31.5 -17.5t-43 -4t-46 0.5h-681q7 -76 37.5 -141.5t79.5 -113.5t114 -75.5t141 -27.5h7 q83 2 155 37t126 89q13 14 27 13t28 -15l22 -33q8 -15 5 -30.5t-21 -26.5q-69 -66 -159 -104.5t-193 -38.5zM893 488q0 82 -26.5 155t-74.5 128t-114.5 87t-147.5 32t-148 -32t-116 -86.5t-76 -127.5t-27 -155t27.5 -154.5t76 -126.5t116 -85.5t147.5 -31.5q79 0 146 31 t115 84.5t75 126t27 155.5zM1364 887q-69 0 -125.5 -26.5t-100.5 -72t-75 -107t-47 -131.5h696q-9 70 -40 131.5t-78 107.5t-106 72t-124 26z" />
<glyph unicode="&#xe7;" horiz-adv-x="1016" d="M855 213q16 14 29 14q6 0 13 -3t13 -11l26 -34q8 -11 8 -19q1 -8 -6 -16.5t-21 -22.5q-70 -66 -155.5 -104.5t-188.5 -38.5q-107 0 -197 40t-156 110t-103 163t-37 200q0 106 37 199.5t103 163t156 109.5t197 40q97 0 180 -33.5t151 -93.5q11 -8 21 -19.5t10 -23.5 t-9 -22l-21 -27q-9 -11 -15.5 -16.5t-14.5 -5.5q-13 0 -28 15q-54 53 -122.5 83.5t-149.5 30.5q-83 0 -152.5 -31.5t-120 -86t-79 -127.5t-28.5 -155q0 -83 28.5 -155.5t79 -127.5t120 -86.5t152.5 -31.5q40 0 78.5 9.5t74.5 26.5t68 39t59 48zM484 52h95q1 -5 1.5 -18 t0.5 -27v-27v-18q0 -19 1 -31.5t3.5 -20.5t8 -12t14.5 -7q28 -11 54 -27t46 -38.5t31.5 -51.5t11.5 -66q-3 -57 -45 -100t-120 -78q-12 -5 -24.5 -9t-26.5 -4q-10 0 -18 6t-14 15t-9 19.5t-3 19.5q0 11 4.5 17.5t20.5 11.5q22 5 45.5 15.5t43 24.5t32 31.5t12.5 37.5 q0 21 -8 37.5t-22 30t-32.5 23t-38.5 15.5q-29 8 -46.5 32t-17.5 55v144z" />
<glyph unicode="&#xe8;" horiz-adv-x="1148" d="M599 87q66 0 127 19.5t112 57.5q13 10 29 22t27 14q8 0 17 -8t17 -19.5t13.5 -25.5t5.5 -26q-9 -15 -23.5 -28t-28.5 -23q-63 -43 -136 -67.5t-158 -24.5q-106 0 -199.5 40t-163 109t-109.5 162t-40 199t39 199.5t106 163t156.5 109.5t191.5 40q98 0 184.5 -38 t151.5 -105t103 -158.5t38 -197.5q0 -32 -19 -41.5t-48 -9.5h-790q6 -77 39.5 -143.5t87 -115t123 -76.5t147.5 -28zM949 549q-8 71 -39.5 133.5t-81 108.5t-113 72.5t-134.5 26.5t-135 -26t-114.5 -72t-84.5 -108.5t-45 -134.5h747zM656 1214q5 -13 5 -20q0 -18 -26 -18 h-41q-17 0 -30 7.5t-23 30.5l-100 234q-5 12 -5 18q0 18 26 18h42q37 0 52 -36z" />
<glyph unicode="&#xe9;" horiz-adv-x="1148" d="M599 87q66 0 127 19.5t112 57.5q13 10 29 22t27 14q8 0 17 -8t17 -19.5t13.5 -25.5t5.5 -26q-9 -15 -23.5 -28t-28.5 -23q-63 -43 -136 -67.5t-158 -24.5q-106 0 -199.5 40t-163 109t-109.5 162t-40 199t39 199.5t106 163t156.5 109.5t191.5 40q98 0 184.5 -38 t151.5 -105t103 -158.5t38 -197.5q0 -32 -19 -41.5t-48 -9.5h-790q6 -77 39.5 -143.5t87 -115t123 -76.5t147.5 -28zM949 549q-8 71 -39.5 133.5t-81 108.5t-113 72.5t-134.5 26.5t-135 -26t-114.5 -72t-84.5 -108.5t-45 -134.5h747zM603 1448q15 36 52 36h42q36 0 21 -36 l-100 -234q-10 -23 -23 -30.5t-30 -7.5h-41q-37 0 -21 38z" />
<glyph unicode="&#xea;" horiz-adv-x="1148" d="M599 87q66 0 127 19.5t112 57.5q13 10 29 22t27 14q8 0 17 -8t17 -19.5t13.5 -25.5t5.5 -26q-9 -15 -23.5 -28t-28.5 -23q-63 -43 -136 -67.5t-158 -24.5q-106 0 -199.5 40t-163 109t-109.5 162t-40 199t39 199.5t106 163t156.5 109.5t191.5 40q98 0 184.5 -38 t151.5 -105t103 -158.5t38 -197.5q0 -32 -19 -41.5t-48 -9.5h-790q6 -77 39.5 -143.5t87 -115t123 -76.5t147.5 -28zM949 549q-8 71 -39.5 133.5t-81 108.5t-113 72.5t-134.5 26.5t-135 -26t-114.5 -72t-84.5 -108.5t-45 -134.5h747zM549 1507q23 22 51 -4l217 -219 q14 -11 13 -27.5t-13 -27.5l-13 -13q-13 -14 -28.5 -13t-26.5 11l-176 174l-174 -174q-11 -12 -27 -12t-27 12l-18 17q-13 14 -11.5 28t11.5 25z" />
<glyph unicode="&#xeb;" horiz-adv-x="1148" d="M599 87q66 0 127 19.5t112 57.5q13 10 29 22t27 14q8 0 17 -8t17 -19.5t13.5 -25.5t5.5 -26q-9 -15 -23.5 -28t-28.5 -23q-63 -43 -136 -67.5t-158 -24.5q-106 0 -199.5 40t-163 109t-109.5 162t-40 199t39 199.5t106 163t156.5 109.5t191.5 40q98 0 184.5 -38 t151.5 -105t103 -158.5t38 -197.5q0 -32 -19 -41.5t-48 -9.5h-790q6 -77 39.5 -143.5t87 -115t123 -76.5t147.5 -28zM949 549q-8 71 -39.5 133.5t-81 108.5t-113 72.5t-134.5 26.5t-135 -26t-114.5 -72t-84.5 -108.5t-45 -134.5h747zM304 1249q0 36 25.5 61.5t61.5 25.5 q38 0 63 -25.5t25 -61.5t-25 -61.5t-63 -25.5q-36 0 -61.5 25.5t-25.5 61.5zM668 1250q0 36 25.5 61.5t61.5 25.5q37 0 62 -25.5t25 -61.5t-25 -61.5t-62 -25.5q-36 0 -61.5 25.5t-25.5 61.5z" />
<glyph unicode="&#xec;" horiz-adv-x="429" d="M160 943q0 17 10.5 27t27.5 10h41q18 0 27.5 -10.5t9.5 -26.5v-907q0 -36 -36 -36h-41q-39 0 -39 36v907zM266 1214q5 -13 5 -20q0 -18 -26 -18h-41q-17 0 -30 7.5t-23 30.5l-100 234q-5 12 -5 18q0 18 26 18h42q37 0 52 -36z" />
<glyph unicode="&#xed;" horiz-adv-x="429" d="M160 943q0 17 10.5 27t27.5 10h41q18 0 27.5 -10.5t9.5 -26.5v-907q0 -36 -36 -36h-41q-39 0 -39 36v907zM256 1448q15 36 52 36h42q36 0 21 -36l-100 -234q-10 -23 -23 -30.5t-30 -7.5h-41q-37 0 -21 38z" />
<glyph unicode="&#xee;" horiz-adv-x="429" d="M160 943q0 17 10.5 27t27.5 10h41q18 0 27.5 -10.5t9.5 -26.5v-907q0 -36 -36 -36h-41q-39 0 -39 36v907zM194 1507q23 22 51 -4l217 -219q14 -11 13 -27.5t-13 -27.5l-13 -13q-13 -14 -28.5 -13t-26.5 11l-176 174l-174 -174q-11 -12 -27 -12t-27 12l-18 17 q-13 14 -11.5 28t11.5 25z" />
<glyph unicode="&#xef;" horiz-adv-x="429" d="M160 943q0 17 10.5 27t27.5 10h41q18 0 27.5 -10.5t9.5 -26.5v-907q0 -36 -36 -36h-41q-39 0 -39 36v907zM-52 1249q0 36 25.5 61.5t61.5 25.5q38 0 63 -25.5t25 -61.5t-25 -61.5t-63 -25.5q-36 0 -61.5 25.5t-25.5 61.5zM312 1250q0 36 25.5 61.5t61.5 25.5 q37 0 62 -25.5t25 -61.5t-25 -61.5t-62 -25.5q-36 0 -61.5 25.5t-25.5 61.5z" />
<glyph unicode="&#xf0;" horiz-adv-x="1148" d="M1117 496q0 -107 -40 -200t-109.5 -163t-162.5 -110t-199 -40t-199.5 40t-163 110t-109.5 163t-40 200q0 106 40 199.5t109.5 163t163 109.5t199.5 40q48 0 94 -9t89 -25l-158 272l-128 -74q-33 -20 -55 14l-11 18q-18 33 15 54l128 74l-61 107q-11 19 -11 32q0 11 8 15 t28 4h40q25 0 37 -10.5t26 -33.5l32 -56l134 79q13 8 27.5 5t24.5 -20l10 -18q8 -14 5 -30t-17 -24l-134 -79l299 -518q42 -62 65.5 -135t23.5 -154zM1005 496q0 82 -31.5 155t-86.5 127.5t-128 86t-155 31.5q-83 0 -155.5 -31.5t-127 -86t-86 -127.5t-31.5 -155 q0 -83 31.5 -155.5t86 -127.5t127 -86.5t155.5 -31.5q82 0 155 31.5t128 86.5t86.5 127.5t31.5 155.5z" />
<glyph unicode="&#xf1;" horiz-adv-x="1099" d="M268 36q0 -36 -37 -36h-41q-38 0 -38 36v916q0 14 8 23t23 9h59q9 0 15.5 -6t7.5 -16l3 -136q25 37 59 69t75 55.5t87.5 37t97.5 13.5q86 0 159.5 -32t127.5 -88t85 -131.5t31 -161.5v-548q0 -20 -10.5 -30t-28.5 -10h-41q-20 0 -28 9.5t-8 29.5v551q-1 62 -25 116 t-64.5 94t-94.5 63t-115 23q-60 0 -114.5 -22t-96.5 -60.5t-67.5 -91t-28.5 -113.5v-563zM334 1201q-9 -6 -17 -6q-11 0 -19.5 6.5t-15 15t-10 15.5t-3.5 8q0 6 8 17q40 56 82 79.5t96 23.5q28 0 55.5 -11.5t53.5 -28.5l51 -33q35 -22 68 -22h5q24 2 42 14.5t32 27t26 26 t23 11.5q9 0 18 -5.5t16.5 -13t12 -15t4.5 -11.5q0 -5 -4.5 -12.5t-6.5 -9.5q-37 -53 -80 -75.5t-94 -22.5q-28 0 -56.5 11t-54.5 28l-46 30q-16 11 -33 18t-36 7q-43 0 -71 -25q-4 -4 -10.5 -11.5t-13.5 -15.5t-13 -14t-9 -6z" />
<glyph unicode="&#xf2;" horiz-adv-x="1201" d="M89 488q0 106 40 199.5t109 163t162 109.5t199 40t199.5 -40t163 -109.5t109.5 -163t40 -199.5t-40 -199t-109.5 -162.5t-163 -109.5t-199.5 -40t-199 40t-162 109.5t-109 162.5t-40 199zM199 488q0 -83 32 -155.5t86.5 -127.5t127.5 -86.5t156 -31.5q82 0 155.5 31.5 t128 86.5t86.5 127.5t32 155.5t-32 156.5t-86.5 128t-128 86.5t-155.5 32q-83 0 -156 -32t-127.5 -86.5t-86.5 -128t-32 -156.5zM673 1214q5 -13 5 -20q0 -18 -26 -18h-41q-17 0 -30 7.5t-23 30.5l-100 234q-5 12 -5 18q0 18 26 18h42q37 0 52 -36z" />
<glyph unicode="&#xf3;" horiz-adv-x="1201" d="M89 488q0 106 40 199.5t109 163t162 109.5t199 40t199.5 -40t163 -109.5t109.5 -163t40 -199.5t-40 -199t-109.5 -162.5t-163 -109.5t-199.5 -40t-199 40t-162 109.5t-109 162.5t-40 199zM199 488q0 -83 32 -155.5t86.5 -127.5t127.5 -86.5t156 -31.5q82 0 155.5 31.5 t128 86.5t86.5 127.5t32 155.5t-32 156.5t-86.5 128t-128 86.5t-155.5 32q-83 0 -156 -32t-127.5 -86.5t-86.5 -128t-32 -156.5zM551 1448q15 36 52 36h42q36 0 21 -36l-100 -234q-10 -23 -23 -30.5t-30 -7.5h-41q-37 0 -21 38z" />
<glyph unicode="&#xf4;" horiz-adv-x="1201" d="M89 488q0 106 40 199.5t109 163t162 109.5t199 40t199.5 -40t163 -109.5t109.5 -163t40 -199.5t-40 -199t-109.5 -162.5t-163 -109.5t-199.5 -40t-199 40t-162 109.5t-109 162.5t-40 199zM199 488q0 -83 32 -155.5t86.5 -127.5t127.5 -86.5t156 -31.5q82 0 155.5 31.5 t128 86.5t86.5 127.5t32 155.5t-32 156.5t-86.5 128t-128 86.5t-155.5 32q-83 0 -156 -32t-127.5 -86.5t-86.5 -128t-32 -156.5zM541 1507q23 22 51 -4l217 -219q14 -11 13 -27.5t-13 -27.5l-13 -13q-13 -14 -28.5 -13t-26.5 11l-176 174l-174 -174q-11 -12 -27 -12t-27 12 l-18 17q-13 14 -11.5 28t11.5 25z" />
<glyph unicode="&#xf5;" horiz-adv-x="1201" d="M89 488q0 106 40 199.5t109 163t162 109.5t199 40t199.5 -40t163 -109.5t109.5 -163t40 -199.5t-40 -199t-109.5 -162.5t-163 -109.5t-199.5 -40t-199 40t-162 109.5t-109 162.5t-40 199zM199 488q0 -83 32 -155.5t86.5 -127.5t127.5 -86.5t156 -31.5q82 0 155.5 31.5 t128 86.5t86.5 127.5t32 155.5t-32 156.5t-86.5 128t-128 86.5t-155.5 32q-83 0 -156 -32t-127.5 -86.5t-86.5 -128t-32 -156.5zM333 1201q-9 -6 -17 -6q-11 0 -19.5 6.5t-15 15t-10 15.5t-3.5 8q0 6 8 17q40 56 82 79.5t96 23.5q28 0 55.5 -11.5t53.5 -28.5l51 -33 q35 -22 68 -22h5q24 2 42 14.5t32 27t26 26t23 11.5q9 0 18 -5.5t16.5 -13t12 -15t4.5 -11.5q0 -5 -4.5 -12.5t-6.5 -9.5q-37 -53 -80 -75.5t-94 -22.5q-28 0 -56.5 11t-54.5 28l-46 30q-16 11 -33 18t-36 7q-43 0 -71 -25q-4 -4 -10.5 -11.5t-13.5 -15.5t-13 -14t-9 -6z " />
<glyph unicode="&#xf6;" horiz-adv-x="1201" d="M89 488q0 106 40 199.5t109 163t162 109.5t199 40t199.5 -40t163 -109.5t109.5 -163t40 -199.5t-40 -199t-109.5 -162.5t-163 -109.5t-199.5 -40t-199 40t-162 109.5t-109 162.5t-40 199zM199 488q0 -83 32 -155.5t86.5 -127.5t127.5 -86.5t156 -31.5q82 0 155.5 31.5 t128 86.5t86.5 127.5t32 155.5t-32 156.5t-86.5 128t-128 86.5t-155.5 32q-83 0 -156 -32t-127.5 -86.5t-86.5 -128t-32 -156.5zM296 1249q0 36 25.5 61.5t61.5 25.5q38 0 63 -25.5t25 -61.5t-25 -61.5t-63 -25.5q-36 0 -61.5 25.5t-25.5 61.5zM660 1250q0 36 25.5 61.5 t61.5 25.5q37 0 62 -25.5t25 -61.5t-25 -61.5t-62 -25.5q-36 0 -61.5 25.5t-25.5 61.5z" />
<glyph unicode="&#xf7;" horiz-adv-x="903" d="M776 547q17 0 27.5 -10t10.5 -27v-42q0 -18 -10.5 -27t-27.5 -9h-640q-38 0 -38 36v42q0 37 38 37h640zM368 74q0 19 7 36t19.5 29.5t29.5 20t36 7.5q20 0 37 -7.5t29.5 -20t19.5 -29.5t7 -36t-7 -36t-19.5 -29.5t-29.5 -19.5t-37 -7q-19 0 -36 7t-29.5 19.5t-19.5 29.5 t-7 36zM368 906q0 19 7 36t19.5 29.5t29.5 20t36 7.5q20 0 37 -7.5t29.5 -20t19.5 -29.5t7 -36t-7 -36t-19.5 -29.5t-29.5 -20t-37 -7.5q-19 0 -36 7.5t-29.5 20t-19.5 29.5t-7 36z" />
<glyph unicode="&#xf8;" horiz-adv-x="1201" d="M201 491q0 -83 31.5 -155.5t86.5 -127.5t127.5 -86.5t155.5 -31.5q82 0 155 31.5t127.5 86.5t86 127.5t31.5 155.5q0 82 -31.5 155t-86 127.5t-127.5 86t-155 31.5q-83 0 -155.5 -31.5t-127.5 -86t-86.5 -127.5t-31.5 -155zM89 491q0 106 40 199.5t109.5 163t162.5 109.5 t199 40q75 0 144 -21l38 99q10 23 20.5 30t32.5 7h24q27 0 32 -9t-5 -36l-50 -128q61 -32 112 -79t87.5 -105.5t56.5 -127t20 -142.5q0 -107 -40 -200t-109.5 -163t-163 -110t-199.5 -40q-35 0 -69 5t-67 14l-48 -125q-11 -27 -41 -27h-36q-17 0 -23 9t2 27l57 149 q-63 31 -116 78.5t-90.5 107t-58.5 129.5t-21 146z" />
<glyph unicode="&#xf9;" horiz-adv-x="1110" d="M946 37q0 -17 -10.5 -27t-27.5 -10h-31q-18 0 -27 10t-10 27q-2 29 -3 58l-2 58q-24 -39 -57.5 -71t-75 -55.5t-88.5 -36.5t-98 -13q-86 0 -159 32t-126 87.5t-83.5 131t-30.5 161.5v551q0 19 11 29.5t28 10.5h35q21 0 29 -10t8 -29v-556q1 -63 23.5 -117.5t62.5 -95 t95.5 -63.5t121.5 -23q62 0 117.5 23t97 63.5t65.5 94.5t24 117v559q0 37 37 37h35q39 0 39 -37v-906zM604 1214q5 -13 5 -20q0 -18 -26 -18h-41q-17 0 -30 7.5t-23 30.5l-100 234q-5 12 -5 18q0 18 26 18h42q37 0 52 -36z" />
<glyph unicode="&#xfa;" horiz-adv-x="1110" d="M946 37q0 -17 -10.5 -27t-27.5 -10h-31q-18 0 -27 10t-10 27q-2 29 -3 58l-2 58q-24 -39 -57.5 -71t-75 -55.5t-88.5 -36.5t-98 -13q-86 0 -159 32t-126 87.5t-83.5 131t-30.5 161.5v551q0 19 11 29.5t28 10.5h35q21 0 29 -10t8 -29v-556q1 -63 23.5 -117.5t62.5 -95 t95.5 -63.5t121.5 -23q62 0 117.5 23t97 63.5t65.5 94.5t24 117v559q0 37 37 37h35q39 0 39 -37v-906zM533 1448q15 36 52 36h42q36 0 21 -36l-100 -234q-10 -23 -23 -30.5t-30 -7.5h-41q-37 0 -21 38z" />
<glyph unicode="&#xfb;" horiz-adv-x="1110" d="M946 37q0 -17 -10.5 -27t-27.5 -10h-31q-18 0 -27 10t-10 27q-2 29 -3 58l-2 58q-24 -39 -57.5 -71t-75 -55.5t-88.5 -36.5t-98 -13q-86 0 -159 32t-126 87.5t-83.5 131t-30.5 161.5v551q0 19 11 29.5t28 10.5h35q21 0 29 -10t8 -29v-556q1 -63 23.5 -117.5t62.5 -95 t95.5 -63.5t121.5 -23q62 0 117.5 23t97 63.5t65.5 94.5t24 117v559q0 37 37 37h35q39 0 39 -37v-906zM524 1507q23 22 51 -4l217 -219q14 -11 13 -27.5t-13 -27.5l-13 -13q-13 -14 -28.5 -13t-26.5 11l-176 174l-174 -174q-11 -12 -27 -12t-27 12l-18 17q-13 14 -11.5 28 t11.5 25z" />
<glyph unicode="&#xfc;" horiz-adv-x="1110" d="M946 37q0 -17 -10.5 -27t-27.5 -10h-31q-18 0 -27 10t-10 27q-2 29 -3 58l-2 58q-24 -39 -57.5 -71t-75 -55.5t-88.5 -36.5t-98 -13q-86 0 -159 32t-126 87.5t-83.5 131t-30.5 161.5v551q0 19 11 29.5t28 10.5h35q21 0 29 -10t8 -29v-556q1 -63 23.5 -117.5t62.5 -95 t95.5 -63.5t121.5 -23q62 0 117.5 23t97 63.5t65.5 94.5t24 117v559q0 37 37 37h35q39 0 39 -37v-906zM278 1249q0 36 25.5 61.5t61.5 25.5q38 0 63 -25.5t25 -61.5t-25 -61.5t-63 -25.5q-36 0 -61.5 25.5t-25.5 61.5zM642 1250q0 36 25.5 61.5t61.5 25.5q37 0 62 -25.5 t25 -61.5t-25 -61.5t-62 -25.5q-36 0 -61.5 25.5t-25.5 61.5z" />
<glyph unicode="&#xfd;" horiz-adv-x="979" d="M386 -363q-16 -29 -53 -29h-32q-22 0 -31.5 13t-1.5 36l156 372l-376 904q-10 26 -1 38t32 12h42q18 0 26 -9t16 -24l328 -785l320 790q15 28 53 28h32q22 0 31.5 -12.5t1.5 -35.5zM545 1448q15 36 52 36h42q36 0 21 -36l-100 -234q-10 -23 -23 -30.5t-30 -7.5h-41 q-37 0 -21 38z" />
<glyph unicode="&#xfe;" horiz-adv-x="1182" d="M149 31q-2 4 -2 15v1397q0 44 48 44h20q46 0 46 -44l2 -649q25 38 61 75t76 62q27 15 53.5 28.5t54.5 23t59 15t67 5.5q105 0 193.5 -40t152 -109.5t99 -163t35.5 -199.5q0 -107 -35.5 -200t-99 -163t-152 -110t-193.5 -40q-41 0 -74.5 5.5t-63.5 16.5t-58 26.5t-58 35.5 q-37 25 -65.5 54.5t-51.5 66.5v-526q0 -46 -46 -46h-24q-44 0 -44 46v374zM1002 491q0 82 -27 155t-76 127.5t-117.5 86t-150.5 31.5q-77 0 -140.5 -27.5t-111 -75.5t-77.5 -112.5t-39 -138.5v-88q7 -75 36.5 -140.5t77.5 -114t112.5 -76.5t141.5 -28q82 0 150.5 31.5 t117.5 86.5t76 127.5t27 155.5z" />
<glyph unicode="&#xff;" horiz-adv-x="979" d="M386 -363q-16 -29 -53 -29h-32q-22 0 -31.5 13t-1.5 36l156 372l-376 904q-10 26 -1 38t32 12h42q18 0 26 -9t16 -24l328 -785l320 790q15 28 53 28h32q22 0 31.5 -12.5t1.5 -35.5zM220 1249q0 36 25.5 61.5t61.5 25.5q38 0 63 -25.5t25 -61.5t-25 -61.5t-63 -25.5 q-36 0 -61.5 25.5t-25.5 61.5zM584 1250q0 36 25.5 61.5t61.5 25.5q37 0 62 -25.5t25 -61.5t-25 -61.5t-62 -25.5q-36 0 -61.5 25.5t-25.5 61.5z" />
<glyph unicode="&#x131;" horiz-adv-x="429" d="M160 943q0 17 10.5 27t27.5 10h41q18 0 27.5 -10.5t9.5 -26.5v-907q0 -36 -36 -36h-41q-39 0 -39 36v907z" />
<glyph unicode="&#x152;" horiz-adv-x="2596" d="M2453 1485q18 0 31 -11t13 -33v-24q0 -18 -12 -32t-32 -14h-860v-561h690q18 0 31 -11.5t13 -32.5v-25q0 -18 -12 -32t-32 -14h-690v-581h882q18 0 31 -11t13 -33v-24q0 -18 -12 -32t-32 -14h-953q-44 0 -44 44v297q-51 -81 -120 -148t-153 -115t-180 -74t-199 -26 q-104 0 -201.5 27t-182 77t-154.5 119.5t-119.5 155t-77 183.5t-27.5 204q0 104 27 201.5t77 182t119.5 154t155 119t183.5 77t204 27.5q102 0 197 -26t178.5 -74t152.5 -115t120 -149v300q0 18 11.5 31t32.5 13h931zM507 1298q-119 -70 -197.5 -173t-112.5 -222.5 t-20 -246.5t81 -245q44 -73 105 -132t133.5 -100.5t154 -64t166 -23t169 22t163.5 71.5q69 39 125 92t98 115.5t68.5 132t37.5 143.5v180q-17 117 -78 223q-45 78 -106.5 137.5t-134.5 100t-154 61t-165 20t-168.5 -23t-164.5 -68.5z" />
<glyph unicode="&#x153;" horiz-adv-x="1955" d="M89 488q0 106 40 199.5t109 163t162 109.5t199 40t199.5 -40t163 -109.5t109.5 -163t40 -199.5t-40 -199t-109.5 -162.5t-163 -109.5t-199.5 -40t-199 40t-162 109.5t-109 162.5t-40 199zM199 488q0 -83 32 -155.5t86.5 -127.5t127.5 -86.5t156 -31.5q82 0 155.5 31.5 t128 86.5t86.5 127.5t32 155.5t-32 156.5t-86.5 128t-128 86.5t-155.5 32q-83 0 -156 -32t-127.5 -86.5t-86.5 -128t-32 -156.5zM1453 87q66 0 127 19.5t112 57.5q13 10 29 22t27 14q8 0 17 -8t17 -19.5t13.5 -25.5t5.5 -26q-9 -15 -23.5 -28t-28.5 -23q-63 -43 -136 -67.5 t-158 -24.5q-106 0 -199.5 40t-163 109t-109.5 162t-40 199t39 199.5t106 163t156.5 109.5t191.5 40q98 0 184.5 -38t151.5 -105t103 -158.5t38 -197.5q0 -32 -19 -41.5t-48 -9.5h-790q6 -77 39.5 -143.5t87 -115t123 -76.5t147.5 -28zM1803 549q-8 71 -39.5 133.5 t-81 108.5t-113 72.5t-134.5 26.5t-135 -26t-114.5 -72t-84.5 -108.5t-45 -134.5h747z" />
<glyph unicode="&#x178;" horiz-adv-x="1228" d="M68 1437q-9 13 -9 24t10 18.5t22 7.5t24.5 1t25 -0.5t24 -8t20.5 -21.5l40 -66q96 -164 191.5 -325.5t192.5 -324.5q103 174 204.5 344.5t204.5 343.5q7 12 12.5 22.5t13.5 18t20.5 12t35.5 4.5h21t19.5 -2t14 -6.5t5.5 -14.5q0 -4 -1.5 -10t-6.5 -13 q-123 -202 -243 -406t-244 -406v-592q0 -37 -36 -37h-38q-36 0 -36 37v588zM329 1752q0 36 25.5 61.5t61.5 25.5q38 0 63 -25.5t25 -61.5t-25 -61.5t-63 -25.5q-36 0 -61.5 25.5t-25.5 61.5zM693 1753q0 36 25.5 61.5t61.5 25.5q37 0 62 -25.5t25 -61.5t-25 -61.5t-62 -25.5 q-36 0 -61.5 25.5t-25.5 61.5z" />
<glyph unicode="&#x2c6;" horiz-adv-x="748" d="M348 1507q23 22 51 -4l217 -219q14 -11 13 -27.5t-13 -27.5l-13 -13q-13 -14 -28.5 -13t-26.5 11l-176 174l-174 -174q-11 -12 -27 -12t-27 12l-18 17q-13 14 -11.5 28t11.5 25z" />
<glyph unicode="&#x2da;" horiz-adv-x="518" d="M234 1522q39 0 72.5 -14.5t59 -40t40 -59t14.5 -71.5q0 -39 -14.5 -73t-40 -58.5t-59 -39t-72.5 -14.5t-73 14.5t-58.5 39t-39 58.5t-14.5 73q0 38 14.5 71.5t39 59t58.5 40t73 14.5zM127 1337q0 -46 30.5 -76.5t76.5 -30.5q22 0 41.5 8t34 22.5t22.5 34t8 42.5 q0 22 -8 41.5t-22.5 34t-34 22.5t-41.5 8q-23 0 -42.5 -8t-34 -22.5t-22.5 -34t-8 -41.5z" />
<glyph unicode="&#x2dc;" horiz-adv-x="707" d="M88 1201q-9 -6 -17 -6q-11 0 -19.5 6.5t-15 15t-10 15.5t-3.5 8q0 6 8 17q40 56 82 79.5t96 23.5q28 0 55.5 -11.5t53.5 -28.5l51 -33q35 -22 68 -22h5q24 2 42 14.5t32 27t26 26t23 11.5q9 0 18 -5.5t16.5 -13t12 -15t4.5 -11.5q0 -5 -4.5 -12.5t-6.5 -9.5 q-37 -53 -80 -75.5t-94 -22.5q-28 0 -56.5 11t-54.5 28l-46 30q-16 11 -33 18t-36 7q-43 0 -71 -25q-4 -4 -10.5 -11.5t-13.5 -15.5t-13 -14t-9 -6z" />
<glyph unicode="&#x2000;" horiz-adv-x="1012" />
<glyph unicode="&#x2001;" horiz-adv-x="2024" />
<glyph unicode="&#x2002;" horiz-adv-x="1012" />
<glyph unicode="&#x2003;" horiz-adv-x="2024" />
<glyph unicode="&#x2004;" horiz-adv-x="674" />
<glyph unicode="&#x2005;" horiz-adv-x="506" />
<glyph unicode="&#x2006;" horiz-adv-x="337" />
<glyph unicode="&#x2007;" horiz-adv-x="337" />
<glyph unicode="&#x2008;" horiz-adv-x="253" />
<glyph unicode="&#x2009;" horiz-adv-x="404" />
<glyph unicode="&#x200a;" horiz-adv-x="112" />
<glyph unicode="&#x2010;" horiz-adv-x="1034" d="M842 608q17 0 27.5 -9t10.5 -27v-42q0 -17 -10.5 -27t-27.5 -10h-640q-38 0 -38 37v42q0 36 38 36h640z" />
<glyph unicode="&#x2011;" horiz-adv-x="1034" d="M842 608q17 0 27.5 -9t10.5 -27v-42q0 -17 -10.5 -27t-27.5 -10h-640q-38 0 -38 37v42q0 36 38 36h640z" />
<glyph unicode="&#x2012;" horiz-adv-x="1034" d="M842 608q17 0 27.5 -9t10.5 -27v-42q0 -17 -10.5 -27t-27.5 -10h-640q-38 0 -38 37v42q0 36 38 36h640z" />
<glyph unicode="&#x2013;" horiz-adv-x="1342" d="M1141 609q17 0 27 -9t10 -27v-42q0 -17 -10 -27.5t-27 -10.5h-940q-38 0 -38 38v42q0 36 38 36h940z" />
<glyph unicode="&#x2014;" d="M1473 609q17 0 27.5 -9t10.5 -27v-42q0 -17 -10.5 -27t-27.5 -10h-1271q-38 0 -38 37v42q0 36 38 36h1271z" />
<glyph unicode="&#x2018;" horiz-adv-x="477" d="M293 1276q0 -19 -7 -35.5t-19.5 -28.5t-29 -19t-34.5 -7q-45 0 -67.5 30.5t-22.5 76.5q0 48 9 85t22 62t27.5 37.5t25.5 12.5q8 0 16 -6l20 -16q8 -8 8 -18q0 -6 -5 -12.5t-10.5 -15t-10.5 -19.5t-5 -27v-10h1l12 -3q29 -7 49.5 -31.5t20.5 -55.5z" />
<glyph unicode="&#x2019;" horiz-adv-x="471" d="M135 1409q0 38 26.5 63.5t63.5 25.5q44 0 67 -30t23 -77q0 -48 -9 -85t-22.5 -62t-28 -37.5t-24.5 -12.5q-8 0 -15 6l-20 16q-9 9 -9 18q0 7 5 13.5t10.5 14.5t10.5 19t5 28v10q-17 0 -32 8t-26 20.5t-18 28.5t-7 33z" />
<glyph unicode="&#x201a;" horiz-adv-x="528" d="M133 66q0 38 26 63.5t63 25.5q45 0 67.5 -30t22.5 -77q0 -48 -9 -84.5t-22 -61.5t-27.5 -37.5t-25.5 -12.5q-8 0 -15 6l-20 16q-8 8 -8 18q0 7 5 13.5t10.5 15t10.5 19.5t5 26v10h-1l-13 3q-29 7 -49 31t-20 56z" />
<glyph unicode="&#x201c;" horiz-adv-x="748" d="M343 1276q0 -19 -7 -35.5t-19.5 -28.5t-29 -19t-34.5 -7q-45 0 -67.5 30.5t-22.5 76.5q0 48 9 85t22 62t27.5 37.5t25.5 12.5q8 0 16 -6l20 -16q8 -8 8 -18q0 -6 -5 -12.5t-10.5 -15t-10.5 -19.5t-5 -27v-10h1l12 -3q29 -7 49.5 -31.5t20.5 -55.5zM598 1276 q0 -19 -7 -35.5t-19 -28.5t-28.5 -19t-34.5 -7q-45 0 -67.5 30.5t-22.5 76.5q0 48 9 85t22 62t27.5 37.5t25.5 12.5q7 0 15 -6l20 -16q8 -8 8 -18q0 -7 -5 -14t-10.5 -15t-10.5 -19t-5 -26v-10h1l13 -3q29 -7 49 -31.5t20 -55.5z" />
<glyph unicode="&#x201d;" horiz-adv-x="697" d="M378 1411q0 19 7 35.5t19.5 28.5t29 19t34.5 7q45 0 67.5 -30.5t22.5 -76.5q0 -48 -9 -85t-22 -62t-27.5 -37.5t-25.5 -12.5q-9 0 -16 6l-20 16q-8 8 -8 18q0 6 5 12.5t10.5 15t10.5 19.5t5 27v10h-1l-12 3q-29 7 -49.5 31.5t-20.5 55.5zM123 1411q0 19 7 35.5t19 28.5 t28.5 19t34.5 7q45 0 67.5 -30.5t22.5 -76.5q0 -48 -9 -85t-22 -62t-27.5 -37.5t-25.5 -12.5q-8 0 -15 6l-20 16q-8 8 -8 18q0 7 5 13.5t10.5 15t10.5 19.5t5 26v10h-1l-13 3q-29 7 -49 31.5t-20 55.5z" />
<glyph unicode="&#x201e;" horiz-adv-x="732" d="M411 82q0 19 7 35.5t19.5 28.5t29 19t34.5 7q45 0 67.5 -30.5t22.5 -76.5q0 -48 -9 -85t-22 -62t-27.5 -37.5t-25.5 -12.5q-9 0 -16 6l-20 16q-8 8 -8 18q0 6 5 12.5t10.5 15t10.5 19.5t5 27v10h-1l-12 3q-29 7 -49.5 31.5t-20.5 55.5zM156 82q0 19 7 35.5t19 28.5 t28.5 19t34.5 7q45 0 67.5 -30.5t22.5 -76.5q0 -48 -9 -85t-22 -62t-27.5 -37.5t-25.5 -12.5q-8 0 -15 6l-20 16q-8 8 -8 18q0 7 5 13.5t10.5 15t10.5 19.5t5 26v10h-1l-13 3q-29 7 -49 31.5t-20 55.5z" />
<glyph unicode="&#x2022;" horiz-adv-x="453" d="M114 557q0 23 9 43.5t24.5 35.5t36 24t43.5 9t43.5 -9t35.5 -24t24 -35.5t9 -43.5t-9 -43.5t-24 -35.5t-35.5 -24t-43.5 -9t-43.5 9t-36 24t-24.5 35.5t-9 43.5z" />
<glyph unicode="&#x2026;" horiz-adv-x="1297" d="M141 72q0 19 7.5 36t20 29.5t29.5 20t36 7.5t36 -7.5t30 -20t20 -29.5t7 -36t-7 -36t-20 -29.5t-30 -20t-36 -7.5t-36 7.5t-29.5 20t-20 29.5t-7.5 36zM531 72q0 19 7 36t19.5 29.5t29.5 20t36 7.5q20 0 37 -7.5t29.5 -20t19.5 -29.5t7 -36t-7 -36t-19.5 -29.5t-29.5 -20 t-37 -7.5q-19 0 -36 7.5t-29.5 20t-19.5 29.5t-7 36zM908 72q0 19 7.5 36t20 29.5t29.5 20t36 7.5t36 -7.5t30 -20t20 -29.5t7 -36t-7 -36t-20 -29.5t-30 -20t-36 -7.5t-36 7.5t-29.5 20t-20 29.5t-7.5 36z" />
<glyph unicode="&#x202f;" horiz-adv-x="404" />
<glyph unicode="&#x2039;" horiz-adv-x="862" d="M130 535q-12 12 -12 25q0 16 16 32l517 515q12 12 29 12q20 0 35 -15l15 -15q15 -15 15 -33q0 -16 -12 -31l-465 -466l465 -464q11 -13 11 -29q0 -9 -3.5 -18t-10.5 -15l-17 -18q-8 -8 -16.5 -10.5t-16.5 -3.5q-17 0 -29 12z" />
<glyph unicode="&#x203a;" horiz-adv-x="867" d="M213 13q-12 -12 -29 -12q-18 0 -32 14l-18 18q-6 6 -10 15t-4 18q0 17 12 29l464 464l-464 466q-12 13 -12 32q0 8 3 16t11 16l16 15q8 7 16.5 11.5t18.5 3.5q16 0 28 -12l517 -515q16 -16 16 -32q0 -14 -11 -25z" />
<glyph unicode="&#x205f;" horiz-adv-x="506" />
<glyph unicode="&#x20ac;" horiz-adv-x="1488" d="M712 930q18 0 31 -11t13 -33v-24q0 -18 -12 -32t-32 -14h-616q-46 0 -46 46v24q0 44 46 44h616zM715 651q18 0 31 -11t13 -33v-24q0 -18 -12 -32t-32 -14h-616q-46 0 -46 46v24q0 44 46 44h616zM1383 1339q16 -12 16 -28q0 -9 -10 -22q-2 -2 -7 -9.5t-12.5 -16 t-15.5 -15.5t-15 -7h-1h-3q-3 0 -8 1.5t-12 6.5q-86 66 -184.5 103.5t-210.5 37.5q-92 0 -176.5 -23.5t-158 -66.5t-133 -103t-102 -132.5t-65.5 -155t-23 -170.5q0 -90 23.5 -172.5t66.5 -154.5t102.5 -131t131.5 -101t153.5 -65t169.5 -23q206 0 394 135l25 14q10 5 16 5 q7 0 16.5 -8t18.5 -19.5t15 -24.5t6 -23q0 -9 -5 -15.5t-13 -13.5q-99 -77 -216.5 -119.5t-254.5 -42.5q-158 0 -296.5 59.5t-241.5 163t-162.5 242t-59.5 296.5q0 105 27 202t76.5 181.5t119 154.5t154 119.5t182 77t202.5 27.5q134 0 252 -44t219 -120z" />
<glyph unicode="&#x2122;" horiz-adv-x="1348" d="M101 1470q0 6 6 11.5t16 5.5h416q22 0 22 -17v-75q0 -8 -5.5 -14t-16.5 -6h-152v-477q0 -7 -5.5 -13.5t-12.5 -6.5h-75q-5 0 -12 6.5t-7 13.5v477h-152q-10 0 -16 6t-6 14v75zM596 1470q0 6 4.5 11.5t12.5 5.5h113q14 0 17 -13l132 -383l134 383q2 7 8.5 10t11.5 3h108 q7 0 13.5 -5.5t6.5 -11.5l28 -575q0 -17 -22 -17h-72q-18 0 -18 17l-24 403l-123 -378q-4 -8 -6.5 -12t-9.5 -4h-68q-9 0 -15 16l-123 378l-25 -403q0 -17 -19 -17h-75q-18 0 -18 17z" />
<glyph unicode="&#x25fc;" horiz-adv-x="980" d="M0 980h980v-980h-980v980z" />
<glyph unicode="&#xfb02;" horiz-adv-x="1133" />
<glyph unicode="&#xfb04;" horiz-adv-x="1765" />
</font>
</defs>
</svg>
